<?xml version="1.0" encoding="UTF-8" standalone="no"?>
<!DOCTYPE svg PUBLIC "-//W3C//DTD SVG 1.1//EN"
 "http://www.w3.org/Graphics/SVG/1.1/DTD/svg11.dtd">
<!-- Generated by graphviz version 2.38.0 (20140413.2041)
 -->
<!-- Title: C:/dev/projects/MotionHub/src/TrackerManagement/xs_datagram.h Pages: 1 -->
<svg width="365pt" height="162pt"
 viewBox="0.00 0.00 365.00 162.00" xmlns="http://www.w3.org/2000/svg" xmlns:xlink="http://www.w3.org/1999/xlink">
<g id="graph0" class="graph" transform="scale(1 1) rotate(0) translate(4 158)">
<title>C:/dev/projects/MotionHub/src/TrackerManagement/xs_datagram.h</title>
<polygon fill="white" stroke="none" points="-4,4 -4,-158 361,-158 361,4 -4,4"/>
<!-- Node1 -->
<g id="node1" class="node"><title>Node1</title>
<g id="a_node1"><a xlink:title=" ">
<polygon fill="#bfbfbf" stroke="black" points="133.5,-112.5 133.5,-153.5 264.5,-153.5 264.5,-112.5 133.5,-112.5"/>
<text text-anchor="start" x="141.5" y="-141.5" font-family="Helvetica,sans-Serif" font-size="10.00">C:/dev/projects/MotionHub</text>
<text text-anchor="start" x="141.5" y="-130.5" font-family="Helvetica,sans-Serif" font-size="10.00">/src/TrackerManagement</text>
<text text-anchor="middle" x="199" y="-119.5" font-family="Helvetica,sans-Serif" font-size="10.00">/xs_datagram.h</text>
</a>
</g>
</g>
<!-- Node2 -->
<g id="node2" class="node"><title>Node2</title>
<g id="a_node2"><a xlink:title=" ">
<polygon fill="white" stroke="#bfbfbf" points="0,-0.5 0,-19.5 52,-19.5 52,-0.5 0,-0.5"/>
<text text-anchor="middle" x="26" y="-7.5" font-family="Helvetica,sans-Serif" font-size="10.00">memory</text>
</a>
</g>
</g>
<!-- Node1&#45;&gt;Node2 -->
<g id="edge1" class="edge"><title>Node1&#45;&gt;Node2</title>
<path fill="none" stroke="midnightblue" d="M161.159,-112.275C142.806,-102.182 120.734,-89.249 102,-76 80.2322,-60.6053 57.2327,-40.2911 42.3118,-26.4988"/>
<polygon fill="midnightblue" stroke="midnightblue" points="44.6074,-23.8536 34.9127,-19.5801 39.8264,-28.9666 44.6074,-23.8536"/>
</g>
<!-- Node3 -->
<g id="node3" class="node"><title>Node3</title>
<g id="a_node3"><a xlink:title=" ">
<polygon fill="white" stroke="#bfbfbf" points="70,-0.5 70,-19.5 124,-19.5 124,-0.5 70,-0.5"/>
<text text-anchor="middle" x="97" y="-7.5" font-family="Helvetica,sans-Serif" font-size="10.00">iostream</text>
</a>
</g>
</g>
<!-- Node1&#45;&gt;Node3 -->
<g id="edge2" class="edge"><title>Node1&#45;&gt;Node3</title>
<path fill="none" stroke="midnightblue" d="M158.528,-112.436C143.27,-103.267 126.97,-91.02 116,-76 106.14,-62.5004 101.372,-43.9447 99.0806,-30.114"/>
<polygon fill="midnightblue" stroke="midnightblue" points="102.497,-29.2595 97.6813,-19.8222 95.5605,-30.2026 102.497,-29.2595"/>
</g>
<!-- Node4 -->
<g id="node4" class="node"><title>Node4</title>
<g id="a_node4"><a xlink:title=" ">
<polygon fill="white" stroke="#bfbfbf" points="274,-0.5 274,-19.5 326,-19.5 326,-0.5 274,-0.5"/>
<text text-anchor="middle" x="300" y="-7.5" font-family="Helvetica,sans-Serif" font-size="10.00">sstream</text>
</a>
</g>
</g>
<!-- Node1&#45;&gt;Node4 -->
<g id="edge3" class="edge"><title>Node1&#45;&gt;Node4</title>
<path fill="none" stroke="midnightblue" d="M211.573,-112.192C221.95,-96.3925 237.447,-74.006 253,-56 261.933,-45.6584 272.918,-35.0423 282.022,-26.7204"/>
<polygon fill="midnightblue" stroke="midnightblue" points="284.633,-29.0793 289.74,-19.7963 279.959,-23.8687 284.633,-29.0793"/>
</g>
<!-- Node5 -->
<g id="node5" class="node"><title>Node5</title>
<g id="a_node5"><a xlink:title=" ">
<polygon fill="white" stroke="#bfbfbf" points="261.5,-56.5 261.5,-75.5 296.5,-75.5 296.5,-56.5 261.5,-56.5"/>
<text text-anchor="middle" x="279" y="-63.5" font-family="Helvetica,sans-Serif" font-size="10.00">map</text>
</a>
</g>
</g>
<!-- Node1&#45;&gt;Node5 -->
<g id="edge4" class="edge"><title>Node1&#45;&gt;Node5</title>
<path fill="none" stroke="midnightblue" d="M223.003,-112.498C235.032,-102.724 249.373,-91.0719 260.53,-82.0066"/>
<polygon fill="midnightblue" stroke="midnightblue" points="262.797,-84.6749 268.351,-75.6525 258.383,-79.242 262.797,-84.6749"/>
</g>
<!-- Node6 -->
<g id="node6" class="node"><title>Node6</title>
<g id="a_node6"><a xlink:title=" ">
<polygon fill="white" stroke="#bfbfbf" points="315,-56.5 315,-75.5 357,-75.5 357,-56.5 315,-56.5"/>
<text text-anchor="middle" x="336" y="-63.5" font-family="Helvetica,sans-Serif" font-size="10.00">vector</text>
</a>
</g>
</g>
<!-- Node1&#45;&gt;Node6 -->
<g id="edge5" class="edge"><title>Node1&#45;&gt;Node6</title>
<path fill="none" stroke="midnightblue" d="M240.105,-112.498C262.22,-102.005 288.897,-89.3482 308.493,-80.0507"/>
<polygon fill="midnightblue" stroke="midnightblue" points="310.229,-83.1012 317.763,-75.6525 307.228,-76.7769 310.229,-83.1012"/>
</g>
<!-- Node7 -->
<g id="node7" class="node"><title>Node7</title>
<g id="a_node7"><a xlink:href="../../dd/dce/xs__streamer_8h.html" target="_top" xlink:title=" ">
<polygon fill="white" stroke="black" points="125.5,-56.5 125.5,-75.5 204.5,-75.5 204.5,-56.5 125.5,-56.5"/>
<text text-anchor="middle" x="165" y="-63.5" font-family="Helvetica,sans-Serif" font-size="10.00">xs_streamer.h</text>
</a>
</g>
</g>
<!-- Node1&#45;&gt;Node7 -->
<g id="edge6" class="edge"><title>Node1&#45;&gt;Node7</title>
<path fill="none" stroke="midnightblue" d="M188.799,-112.498C184.188,-103.682 178.777,-93.3385 174.281,-84.7432"/>
<polygon fill="midnightblue" stroke="midnightblue" points="177.262,-82.8912 169.526,-75.6525 171.06,-86.1357 177.262,-82.8912"/>
</g>
<!-- Node7&#45;&gt;Node2 -->
<g id="edge7" class="edge"><title>Node7&#45;&gt;Node2</title>
<path fill="none" stroke="midnightblue" d="M142.975,-56.4435C119.896,-47.4776 83.438,-33.314 57.3591,-23.1827"/>
<polygon fill="midnightblue" stroke="midnightblue" points="58.5107,-19.8753 47.9219,-19.5164 55.9758,-26.4002 58.5107,-19.8753"/>
</g>
<!-- Node7&#45;&gt;Node3 -->
<g id="edge8" class="edge"><title>Node7&#45;&gt;Node3</title>
<path fill="none" stroke="midnightblue" d="M154.075,-56.324C143.825,-48.1849 128.279,-35.8395 115.999,-26.0874"/>
<polygon fill="midnightblue" stroke="midnightblue" points="118.132,-23.3119 108.124,-19.8339 113.779,-28.7937 118.132,-23.3119"/>
</g>
<!-- Node7&#45;&gt;Node4 -->
<g id="edge9" class="edge"><title>Node7&#45;&gt;Node4</title>
<path fill="none" stroke="midnightblue" d="M186.391,-56.4435C208.707,-47.5171 243.903,-33.4387 269.208,-23.3168"/>
<polygon fill="midnightblue" stroke="midnightblue" points="270.724,-26.4801 278.709,-19.5164 268.124,-19.9807 270.724,-26.4801"/>
</g>
<!-- Node8 -->
<g id="node8" class="node"><title>Node8</title>
<g id="a_node8"><a xlink:title=" ">
<polygon fill="white" stroke="#bfbfbf" points="142.5,-0.5 142.5,-19.5 255.5,-19.5 255.5,-0.5 142.5,-0.5"/>
<text text-anchor="middle" x="199" y="-7.5" font-family="Helvetica,sans-Serif" font-size="10.00">xstypes/xsbytearray.h</text>
</a>
</g>
</g>
<!-- Node7&#45;&gt;Node8 -->
<g id="edge10" class="edge"><title>Node7&#45;&gt;Node8</title>
<path fill="none" stroke="midnightblue" d="M170.614,-56.083C175.367,-48.5341 182.318,-37.4948 188.152,-28.2298"/>
<polygon fill="midnightblue" stroke="midnightblue" points="191.124,-30.0783 193.49,-19.7511 185.2,-26.3486 191.124,-30.0783"/>
</g>
</g>
</svg>
