<?xml version="1.0" encoding="UTF-8" standalone="no"?>
<!DOCTYPE svg PUBLIC "-//W3C//DTD SVG 1.1//EN"
 "http://www.w3.org/Graphics/SVG/1.1/DTD/svg11.dtd">
<!-- Generated by graphviz version 2.38.0 (20140413.2041)
 -->
<!-- Title: Tracker::Property&lt; T &gt; Pages: 1 -->
<svg width="123pt" height="182pt"
 viewBox="0.00 0.00 123.00 182.00" xmlns="http://www.w3.org/2000/svg" xmlns:xlink="http://www.w3.org/1999/xlink">
<g id="graph0" class="graph" transform="scale(1 1) rotate(0) translate(4 178)">
<title>Tracker::Property&lt; T &gt;</title>
<polygon fill="white" stroke="none" points="-4,4 -4,-178 119,-178 119,4 -4,4"/>
<!-- Node1 -->
<g id="node1" class="node"><title>Node1</title>
<g id="a_node1"><a xlink:title=" ">
<polygon fill="#bfbfbf" stroke="black" points="0,-0.5 0,-57.5 115,-57.5 115,-0.5 0,-0.5"/>
<text text-anchor="middle" x="57.5" y="-45.5" font-family="Helvetica,sans-Serif" font-size="10.00">Tracker::Property&lt; T &gt;</text>
<polyline fill="none" stroke="black" points="0,-38.5 115,-38.5 "/>
<text text-anchor="start" x="8" y="-26.5" font-family="Helvetica,sans-Serif" font-size="10.00">+ value</text>
<polyline fill="none" stroke="black" points="0,-19.5 115,-19.5 "/>
<text text-anchor="start" x="8" y="-7.5" font-family="Helvetica,sans-Serif" font-size="10.00">+ Property()</text>
</a>
</g>
</g>
<!-- Node2 -->
<g id="node2" class="node"><title>Node2</title>
<g id="a_node2"><a xlink:href="../../d4/df4/struct_tracker_1_1_null_property.html" target="_top" xlink:title=" ">
<polygon fill="white" stroke="black" points="3.5,-94.5 3.5,-173.5 111.5,-173.5 111.5,-94.5 3.5,-94.5"/>
<text text-anchor="middle" x="57.5" y="-161.5" font-family="Helvetica,sans-Serif" font-size="10.00">Tracker::NullProperty</text>
<polyline fill="none" stroke="black" points="3.5,-154.5 111.5,-154.5 "/>
<text text-anchor="start" x="11.5" y="-142.5" font-family="Helvetica,sans-Serif" font-size="10.00">+ name</text>
<text text-anchor="start" x="11.5" y="-131.5" font-family="Helvetica,sans-Serif" font-size="10.00">+ type</text>
<polyline fill="none" stroke="black" points="3.5,-124.5 111.5,-124.5 "/>
<text text-anchor="start" x="11.5" y="-112.5" font-family="Helvetica,sans-Serif" font-size="10.00">+ NullProperty()</text>
<text text-anchor="start" x="11.5" y="-101.5" font-family="Helvetica,sans-Serif" font-size="10.00">+ isType()</text>
</a>
</g>
</g>
<!-- Node2&#45;&gt;Node1 -->
<g id="edge1" class="edge"><title>Node2&#45;&gt;Node1</title>
<path fill="none" stroke="midnightblue" d="M57.5,-84.1628C57.5,-75.0404 57.5,-65.8063 57.5,-57.6095"/>
<polygon fill="none" stroke="midnightblue" points="54.0001,-84.3535 57.5,-94.3536 61.0001,-84.3536 54.0001,-84.3535"/>
</g>
</g>
</svg>
