<?xml version="1.0" encoding="UTF-8" standalone="no"?>
<!DOCTYPE svg PUBLIC "-//W3C//DTD SVG 1.1//EN"
 "http://www.w3.org/Graphics/SVG/1.1/DTD/svg11.dtd">
<!-- Generated by graphviz version 2.38.0 (20140413.2041)
 -->
<!-- Title: IKSolver Pages: 1 -->
<svg width="258pt" height="628pt"
 viewBox="0.00 0.00 258.00 628.00" xmlns="http://www.w3.org/2000/svg" xmlns:xlink="http://www.w3.org/1999/xlink">
<g id="graph0" class="graph" transform="scale(1 1) rotate(0) translate(4 624)">
<title>IKSolver</title>
<polygon fill="white" stroke="none" points="-4,4 -4,-624 254,-624 254,4 -4,4"/>
<!-- Node1 -->
<g id="node1" class="node"><title>Node1</title>
<g id="a_node1"><a xlink:title=" ">
<polygon fill="#bfbfbf" stroke="black" points="64.5,-518.5 64.5,-619.5 150.5,-619.5 150.5,-518.5 64.5,-518.5"/>
<text text-anchor="middle" x="107.5" y="-607.5" font-family="Helvetica,sans-Serif" font-size="10.00">IKSolver</text>
<polyline fill="none" stroke="black" points="64.5,-600.5 150.5,-600.5 "/>
<text text-anchor="start" x="72.5" y="-588.5" font-family="Helvetica,sans-Serif" font-size="10.00"># targetPosition</text>
<text text-anchor="start" x="72.5" y="-577.5" font-family="Helvetica,sans-Serif" font-size="10.00"># targetRotation</text>
<polyline fill="none" stroke="black" points="64.5,-570.5 150.5,-570.5 "/>
<text text-anchor="start" x="72.5" y="-558.5" font-family="Helvetica,sans-Serif" font-size="10.00">+ IKSolver()</text>
<text text-anchor="start" x="72.5" y="-547.5" font-family="Helvetica,sans-Serif" font-size="10.00">+ ~IKSolver()</text>
<text text-anchor="start" x="72.5" y="-536.5" font-family="Helvetica,sans-Serif" font-size="10.00">+ init()</text>
<text text-anchor="start" x="72.5" y="-525.5" font-family="Helvetica,sans-Serif" font-size="10.00">+ solve()</text>
</a>
</g>
</g>
<!-- Node2 -->
<g id="node2" class="node"><title>Node2</title>
<g id="a_node2"><a xlink:href="../../d7/d61/class_i_k_solver_hip.html" target="_top" xlink:title=" ">
<polygon fill="white" stroke="black" points="0,-248.5 0,-327.5 81,-327.5 81,-248.5 0,-248.5"/>
<text text-anchor="middle" x="40.5" y="-315.5" font-family="Helvetica,sans-Serif" font-size="10.00">IKSolverHip</text>
<polyline fill="none" stroke="black" points="0,-308.5 81,-308.5 "/>
<text text-anchor="start" x="8" y="-296.5" font-family="Helvetica,sans-Serif" font-size="10.00"># hip</text>
<polyline fill="none" stroke="black" points="0,-289.5 81,-289.5 "/>
<text text-anchor="start" x="8" y="-277.5" font-family="Helvetica,sans-Serif" font-size="10.00">+ IKSolverHip()</text>
<text text-anchor="start" x="8" y="-266.5" font-family="Helvetica,sans-Serif" font-size="10.00">+ init()</text>
<text text-anchor="start" x="8" y="-255.5" font-family="Helvetica,sans-Serif" font-size="10.00">+ solve()</text>
</a>
</g>
</g>
<!-- Node1&#45;&gt;Node2 -->
<g id="edge1" class="edge"><title>Node1&#45;&gt;Node2</title>
<path fill="none" stroke="midnightblue" d="M93.223,-508.548C80.1112,-453.948 61.061,-374.62 49.81,-327.769"/>
<polygon fill="none" stroke="midnightblue" points="89.8606,-509.536 95.5989,-518.442 96.6671,-507.901 89.8606,-509.536"/>
</g>
<!-- Node3 -->
<g id="node3" class="node"><title>Node3</title>
<g id="a_node3"><a xlink:href="../../de/d95/class_i_k_solver_limb.html" target="_top" xlink:title=" ">
<polygon fill="white" stroke="black" points="99,-94.5 99,-481.5 250,-481.5 250,-94.5 99,-94.5"/>
<text text-anchor="middle" x="174.5" y="-469.5" font-family="Helvetica,sans-Serif" font-size="10.00">IKSolverLimb</text>
<polyline fill="none" stroke="black" points="99,-462.5 250,-462.5 "/>
<text text-anchor="start" x="107" y="-450.5" font-family="Helvetica,sans-Serif" font-size="10.00">+ iterations</text>
<text text-anchor="start" x="107" y="-439.5" font-family="Helvetica,sans-Serif" font-size="10.00">+ tolerance</text>
<text text-anchor="start" x="107" y="-428.5" font-family="Helvetica,sans-Serif" font-size="10.00">+ progressTolerance</text>
<text text-anchor="start" x="107" y="-417.5" font-family="Helvetica,sans-Serif" font-size="10.00">+ bendToTargetRotationWeight</text>
<text text-anchor="start" x="107" y="-406.5" font-family="Helvetica,sans-Serif" font-size="10.00">+ bendToGoalWeight</text>
<text text-anchor="start" x="107" y="-395.5" font-family="Helvetica,sans-Serif" font-size="10.00">+ middleUntwistWeight</text>
<text text-anchor="start" x="107" y="-384.5" font-family="Helvetica,sans-Serif" font-size="10.00">+ upperUntwistWeight</text>
<text text-anchor="start" x="107" y="-373.5" font-family="Helvetica,sans-Serif" font-size="10.00">+ DebugFloat1</text>
<text text-anchor="start" x="107" y="-362.5" font-family="Helvetica,sans-Serif" font-size="10.00">+ DebugFloat2</text>
<text text-anchor="start" x="107" y="-351.5" font-family="Helvetica,sans-Serif" font-size="10.00">+ DebugFloat3</text>
<text text-anchor="start" x="107" y="-340.5" font-family="Helvetica,sans-Serif" font-size="10.00">+ DebugFloat4</text>
<text text-anchor="start" x="107" y="-329.5" font-family="Helvetica,sans-Serif" font-size="10.00"># upperJoint</text>
<text text-anchor="start" x="107" y="-318.5" font-family="Helvetica,sans-Serif" font-size="10.00"># middleJoint</text>
<text text-anchor="start" x="107" y="-307.5" font-family="Helvetica,sans-Serif" font-size="10.00"># lowerJoint</text>
<text text-anchor="start" x="107" y="-296.5" font-family="Helvetica,sans-Serif" font-size="10.00"># joints</text>
<text text-anchor="start" x="107" y="-285.5" font-family="Helvetica,sans-Serif" font-size="10.00"># normal</text>
<text text-anchor="start" x="107" y="-274.5" font-family="Helvetica,sans-Serif" font-size="10.00"># _normal</text>
<text text-anchor="start" x="107" y="-263.5" font-family="Helvetica,sans-Serif" font-size="10.00"># lowerDefaultRotation</text>
<text text-anchor="start" x="107" y="-252.5" font-family="Helvetica,sans-Serif" font-size="10.00"># startPosition</text>
<polyline fill="none" stroke="black" points="99,-245.5 250,-245.5 "/>
<text text-anchor="start" x="107" y="-233.5" font-family="Helvetica,sans-Serif" font-size="10.00">+ IKSolverLimb()</text>
<text text-anchor="start" x="107" y="-222.5" font-family="Helvetica,sans-Serif" font-size="10.00">+ init()</text>
<text text-anchor="start" x="107" y="-211.5" font-family="Helvetica,sans-Serif" font-size="10.00">+ solve()</text>
<text text-anchor="start" x="107" y="-200.5" font-family="Helvetica,sans-Serif" font-size="10.00">+ getStartPosition()</text>
<text text-anchor="start" x="107" y="-189.5" font-family="Helvetica,sans-Serif" font-size="10.00"># saveDefaultState()</text>
<text text-anchor="start" x="107" y="-178.5" font-family="Helvetica,sans-Serif" font-size="10.00"># loadDefaultState()</text>
<text text-anchor="start" x="107" y="-167.5" font-family="Helvetica,sans-Serif" font-size="10.00"># solve()</text>
<text text-anchor="start" x="107" y="-156.5" font-family="Helvetica,sans-Serif" font-size="10.00"># constraint()</text>
<text text-anchor="start" x="107" y="-145.5" font-family="Helvetica,sans-Serif" font-size="10.00"># apply()</text>
<text text-anchor="start" x="107" y="-134.5" font-family="Helvetica,sans-Serif" font-size="10.00"># untwist()</text>
<text text-anchor="start" x="107" y="-123.5" font-family="Helvetica,sans-Serif" font-size="10.00"># forwardReach()</text>
<text text-anchor="start" x="107" y="-112.5" font-family="Helvetica,sans-Serif" font-size="10.00"># backwardReach()</text>
<text text-anchor="start" x="107" y="-101.5" font-family="Helvetica,sans-Serif" font-size="10.00"># solveFABRIK()</text>
</a>
</g>
</g>
<!-- Node1&#45;&gt;Node3 -->
<g id="edge2" class="edge"><title>Node1&#45;&gt;Node3</title>
<path fill="none" stroke="midnightblue" d="M121.793,-508.482C123.814,-500.066 125.976,-491.064 128.228,-481.685"/>
<polygon fill="none" stroke="midnightblue" points="118.333,-507.901 119.401,-518.442 125.139,-509.536 118.333,-507.901"/>
</g>
<!-- Node4 -->
<g id="node4" class="node"><title>Node4</title>
<g id="a_node4"><a xlink:href="../../d7/dfb/class_i_k_solver_arm.html" target="_top" xlink:title=" ">
<polygon fill="white" stroke="black" points="139.5,-0.5 139.5,-57.5 209.5,-57.5 209.5,-0.5 139.5,-0.5"/>
<text text-anchor="middle" x="174.5" y="-45.5" font-family="Helvetica,sans-Serif" font-size="10.00">IKSolverArm</text>
<polyline fill="none" stroke="black" points="139.5,-38.5 209.5,-38.5 "/>
<text text-anchor="middle" x="174.5" y="-26.5" font-family="Helvetica,sans-Serif" font-size="10.00"> </text>
<polyline fill="none" stroke="black" points="139.5,-19.5 209.5,-19.5 "/>
<text text-anchor="middle" x="174.5" y="-7.5" font-family="Helvetica,sans-Serif" font-size="10.00"> </text>
</a>
</g>
</g>
<!-- Node3&#45;&gt;Node4 -->
<g id="edge3" class="edge"><title>Node3&#45;&gt;Node4</title>
<path fill="none" stroke="midnightblue" d="M174.5,-84.091C174.5,-74.2731 174.5,-65.3393 174.5,-57.6866"/>
<polygon fill="none" stroke="midnightblue" points="171,-84.189 174.5,-94.189 178,-84.189 171,-84.189"/>
</g>
</g>
</svg>
