<?xml version="1.0" encoding="UTF-8" standalone="no"?>
<!DOCTYPE svg PUBLIC "-//W3C//DTD SVG 1.1//EN"
 "http://www.w3.org/Graphics/SVG/1.1/DTD/svg11.dtd">
<!-- Generated by graphviz version 2.38.0 (20140413.2041)
 -->
<!-- Title: Plane Pages: 1 -->
<svg width="190pt" height="701pt"
 viewBox="0.00 0.00 189.50 701.00" xmlns="http://www.w3.org/2000/svg" xmlns:xlink="http://www.w3.org/1999/xlink">
<g id="graph0" class="graph" transform="scale(1 1) rotate(0) translate(4 697)">
<title>Plane</title>
<polygon fill="white" stroke="none" points="-4,4 -4,-697 185.5,-697 185.5,4 -4,4"/>
<!-- Node1 -->
<g id="node1" class="node"><title>Node1</title>
<g id="a_node1"><a xlink:title="plane mesh">
<polygon fill="#bfbfbf" stroke="black" points="41.5,-0.5 41.5,-68.5 103.5,-68.5 103.5,-0.5 41.5,-0.5"/>
<text text-anchor="middle" x="72.5" y="-56.5" font-family="Helvetica,sans-Serif" font-size="10.00">Plane</text>
<polyline fill="none" stroke="black" points="41.5,-49.5 103.5,-49.5 "/>
<text text-anchor="middle" x="72.5" y="-37.5" font-family="Helvetica,sans-Serif" font-size="10.00"> </text>
<polyline fill="none" stroke="black" points="41.5,-30.5 103.5,-30.5 "/>
<text text-anchor="start" x="49.5" y="-18.5" font-family="Helvetica,sans-Serif" font-size="10.00">+ Plane()</text>
<text text-anchor="start" x="49.5" y="-7.5" font-family="Helvetica,sans-Serif" font-size="10.00">+ ~Plane()</text>
</a>
</g>
</g>
<!-- Node2 -->
<g id="node2" class="node"><title>Node2</title>
<g id="a_node2"><a xlink:href="../../dc/dbe/class_mesh.html" target="_top" xlink:title="mesh base class">
<polygon fill="white" stroke="black" points="20.5,-106.5 20.5,-306.5 124.5,-306.5 124.5,-106.5 20.5,-106.5"/>
<text text-anchor="middle" x="72.5" y="-294.5" font-family="Helvetica,sans-Serif" font-size="10.00">Mesh</text>
<polyline fill="none" stroke="black" points="20.5,-287.5 124.5,-287.5 "/>
<text text-anchor="start" x="28.5" y="-275.5" font-family="Helvetica,sans-Serif" font-size="10.00"># m_vertexData</text>
<text text-anchor="start" x="28.5" y="-264.5" font-family="Helvetica,sans-Serif" font-size="10.00"># m_faceCount</text>
<text text-anchor="start" x="28.5" y="-253.5" font-family="Helvetica,sans-Serif" font-size="10.00"># m_vbo</text>
<text text-anchor="start" x="28.5" y="-242.5" font-family="Helvetica,sans-Serif" font-size="10.00"># m_texture</text>
<text text-anchor="start" x="28.5" y="-231.5" font-family="Helvetica,sans-Serif" font-size="10.00"># m_shaderProgram</text>
<text text-anchor="start" x="28.5" y="-220.5" font-family="Helvetica,sans-Serif" font-size="10.00"># m_isActive</text>
<polyline fill="none" stroke="black" points="20.5,-213.5 124.5,-213.5 "/>
<text text-anchor="start" x="28.5" y="-201.5" font-family="Helvetica,sans-Serif" font-size="10.00">+ Mesh()</text>
<text text-anchor="start" x="28.5" y="-190.5" font-family="Helvetica,sans-Serif" font-size="10.00">+ ~Mesh()</text>
<text text-anchor="start" x="28.5" y="-179.5" font-family="Helvetica,sans-Serif" font-size="10.00">+ bind()</text>
<text text-anchor="start" x="28.5" y="-168.5" font-family="Helvetica,sans-Serif" font-size="10.00">+ release()</text>
<text text-anchor="start" x="28.5" y="-157.5" font-family="Helvetica,sans-Serif" font-size="10.00">+ getFaceCount()</text>
<text text-anchor="start" x="28.5" y="-146.5" font-family="Helvetica,sans-Serif" font-size="10.00">+ isActive()</text>
<text text-anchor="start" x="28.5" y="-135.5" font-family="Helvetica,sans-Serif" font-size="10.00">+ setActive()</text>
<text text-anchor="start" x="28.5" y="-124.5" font-family="Helvetica,sans-Serif" font-size="10.00">+ setDiffuseColor()</text>
<text text-anchor="start" x="28.5" y="-113.5" font-family="Helvetica,sans-Serif" font-size="10.00"># init()</text>
</a>
</g>
</g>
<!-- Node2&#45;&gt;Node1 -->
<g id="edge1" class="edge"><title>Node2&#45;&gt;Node1</title>
<path fill="none" stroke="midnightblue" d="M72.5,-95.899C72.5,-86.2313 72.5,-77.0283 72.5,-68.852"/>
<polygon fill="none" stroke="midnightblue" points="69.0001,-96.1184 72.5,-106.118 76.0001,-96.1185 69.0001,-96.1184"/>
</g>
<!-- Node3 -->
<g id="node3" class="node"><title>Node3</title>
<g id="a_node3"><a xlink:href="../../d2/d96/class_entity.html" target="_top" xlink:title="base class for all objects in openGl window">
<polygon fill="white" stroke="black" points="0,-360 0,-560 81,-560 81,-360 0,-360"/>
<text text-anchor="middle" x="40.5" y="-548" font-family="Helvetica,sans-Serif" font-size="10.00">Entity</text>
<polyline fill="none" stroke="black" points="0,-541 81,-541 "/>
<text text-anchor="start" x="8" y="-529" font-family="Helvetica,sans-Serif" font-size="10.00"># m_matrix</text>
<polyline fill="none" stroke="black" points="0,-522 81,-522 "/>
<text text-anchor="start" x="8" y="-510" font-family="Helvetica,sans-Serif" font-size="10.00">+ Entity()</text>
<text text-anchor="start" x="8" y="-499" font-family="Helvetica,sans-Serif" font-size="10.00">+ ~Entity()</text>
<text text-anchor="start" x="8" y="-488" font-family="Helvetica,sans-Serif" font-size="10.00">+ getMatrix()</text>
<text text-anchor="start" x="8" y="-477" font-family="Helvetica,sans-Serif" font-size="10.00">+ translate()</text>
<text text-anchor="start" x="8" y="-466" font-family="Helvetica,sans-Serif" font-size="10.00">+ setPosition()</text>
<text text-anchor="start" x="8" y="-455" font-family="Helvetica,sans-Serif" font-size="10.00">+ getPosition()</text>
<text text-anchor="start" x="8" y="-444" font-family="Helvetica,sans-Serif" font-size="10.00">+ rotate()</text>
<text text-anchor="start" x="8" y="-433" font-family="Helvetica,sans-Serif" font-size="10.00">+ setRotation()</text>
<text text-anchor="start" x="8" y="-422" font-family="Helvetica,sans-Serif" font-size="10.00">+ getRotation()</text>
<text text-anchor="start" x="8" y="-411" font-family="Helvetica,sans-Serif" font-size="10.00">+ scale()</text>
<text text-anchor="start" x="8" y="-400" font-family="Helvetica,sans-Serif" font-size="10.00">+ scale()</text>
<text text-anchor="start" x="8" y="-389" font-family="Helvetica,sans-Serif" font-size="10.00">+ setScale()</text>
<text text-anchor="start" x="8" y="-378" font-family="Helvetica,sans-Serif" font-size="10.00">+ setScale()</text>
<text text-anchor="start" x="8" y="-367" font-family="Helvetica,sans-Serif" font-size="10.00">+ getScale()</text>
</a>
</g>
</g>
<!-- Node3&#45;&gt;Node2 -->
<g id="edge2" class="edge"><title>Node3&#45;&gt;Node2</title>
<path fill="none" stroke="midnightblue" d="M54.4119,-349.661C56.2225,-335.431 58.0694,-320.915 59.8577,-306.861"/>
<polygon fill="none" stroke="midnightblue" points="50.8916,-349.6 53.1013,-359.962 57.8356,-350.483 50.8916,-349.6"/>
</g>
<!-- Node4 -->
<g id="node4" class="node"><title>Node4</title>
<g id="a_node4"><a xlink:href="../../d3/de7/class_vector3.html" target="_top" xlink:title="Utility Class.">
<polygon fill="white" stroke="black" points="99,-354.5 99,-565.5 172,-565.5 172,-354.5 99,-354.5"/>
<text text-anchor="middle" x="135.5" y="-553.5" font-family="Helvetica,sans-Serif" font-size="10.00">Vector3</text>
<polyline fill="none" stroke="black" points="99,-546.5 172,-546.5 "/>
<text text-anchor="middle" x="135.5" y="-534.5" font-family="Helvetica,sans-Serif" font-size="10.00"> </text>
<polyline fill="none" stroke="black" points="99,-527.5 172,-527.5 "/>
<text text-anchor="start" x="107" y="-515.5" font-family="Helvetica,sans-Serif" font-size="10.00">+ Vector3()</text>
<text text-anchor="start" x="107" y="-504.5" font-family="Helvetica,sans-Serif" font-size="10.00">+ Vector3()</text>
<text text-anchor="start" x="107" y="-493.5" font-family="Helvetica,sans-Serif" font-size="10.00">+ Vector3()</text>
<text text-anchor="start" x="107" y="-482.5" font-family="Helvetica,sans-Serif" font-size="10.00">+ Vector3()</text>
<text text-anchor="start" x="107" y="-471.5" font-family="Helvetica,sans-Serif" font-size="10.00">+ Vector3()</text>
<text text-anchor="start" x="107" y="-460.5" font-family="Helvetica,sans-Serif" font-size="10.00">+ operator+()</text>
<text text-anchor="start" x="107" y="-449.5" font-family="Helvetica,sans-Serif" font-size="10.00">+ operator&#45;()</text>
<text text-anchor="start" x="107" y="-438.5" font-family="Helvetica,sans-Serif" font-size="10.00">+ operator*()</text>
<text text-anchor="start" x="107" y="-427.5" font-family="Helvetica,sans-Serif" font-size="10.00">+ operator/()</text>
<text text-anchor="start" x="107" y="-416.5" font-family="Helvetica,sans-Serif" font-size="10.00">+ operator*()</text>
<text text-anchor="start" x="107" y="-405.5" font-family="Helvetica,sans-Serif" font-size="10.00">+ operator*()</text>
<text text-anchor="start" x="107" y="-394.5" font-family="Helvetica,sans-Serif" font-size="10.00">+ toString()</text>
<text text-anchor="start" x="107" y="-383.5" font-family="Helvetica,sans-Serif" font-size="10.00">+ toEigen()</text>
<text text-anchor="start" x="107" y="-372.5" font-family="Helvetica,sans-Serif" font-size="10.00">+ zero()</text>
<text text-anchor="start" x="107" y="-361.5" font-family="Helvetica,sans-Serif" font-size="10.00">+ one()</text>
</a>
</g>
</g>
<!-- Node4&#45;&gt;Node2 -->
<g id="edge3" class="edge"><title>Node4&#45;&gt;Node2</title>
<path fill="none" stroke="#404040" d="M109.239,-354.163C106.276,-342.335 103.25,-330.254 100.269,-318.354"/>
<polygon fill="none" stroke="#404040" points="100.222,-318.17 94.8844,-313.321 97.3065,-306.529 102.645,-311.377 100.222,-318.17"/>
<text text-anchor="middle" x="140" y="-328" font-family="Helvetica,sans-Serif" font-size="10.00"> #m_diffuseColor</text>
</g>
<!-- Node5 -->
<g id="node5" class="node"><title>Node5</title>
<g id="a_node5"><a xlink:href="../../df/d32/struct_vector3_1_1_position.html" target="_top" xlink:title=" ">
<polygon fill="white" stroke="black" points="89.5,-613.5 89.5,-692.5 181.5,-692.5 181.5,-613.5 89.5,-613.5"/>
<text text-anchor="middle" x="135.5" y="-680.5" font-family="Helvetica,sans-Serif" font-size="10.00">Vector3::Position</text>
<polyline fill="none" stroke="black" points="89.5,-673.5 181.5,-673.5 "/>
<text text-anchor="start" x="97.5" y="-661.5" font-family="Helvetica,sans-Serif" font-size="10.00">+ x</text>
<text text-anchor="start" x="97.5" y="-650.5" font-family="Helvetica,sans-Serif" font-size="10.00">+ y</text>
<text text-anchor="start" x="97.5" y="-639.5" font-family="Helvetica,sans-Serif" font-size="10.00">+ z</text>
<polyline fill="none" stroke="black" points="89.5,-632.5 181.5,-632.5 "/>
<text text-anchor="middle" x="135.5" y="-620.5" font-family="Helvetica,sans-Serif" font-size="10.00"> </text>
</a>
</g>
</g>
<!-- Node5&#45;&gt;Node4 -->
<g id="edge4" class="edge"><title>Node5&#45;&gt;Node4</title>
<path fill="none" stroke="#404040" d="M135.5,-613.348C135.5,-602.692 135.5,-590.551 135.5,-577.881"/>
<polygon fill="none" stroke="#404040" points="135.5,-577.603 131.5,-571.603 135.5,-565.603 139.5,-571.603 135.5,-577.603"/>
<text text-anchor="middle" x="155" y="-587" font-family="Helvetica,sans-Serif" font-size="10.00"> +m_xyz</text>
</g>
</g>
</svg>
