<?xml version="1.0" encoding="UTF-8" standalone="no"?>
<!DOCTYPE svg PUBLIC "-//W3C//DTD SVG 1.1//EN"
 "http://www.w3.org/Graphics/SVG/1.1/DTD/svg11.dtd">
<!-- Generated by graphviz version 2.38.0 (20140413.2041)
 -->
<!-- Title: MainWindow Pages: 1 -->
<svg width="924pt" height="1625pt"
 viewBox="0.00 0.00 924.07 1625.00" xmlns="http://www.w3.org/2000/svg" xmlns:xlink="http://www.w3.org/1999/xlink">
<g id="graph0" class="graph" transform="scale(1 1) rotate(0) translate(4 1621)">
<title>MainWindow</title>
<polygon fill="white" stroke="none" points="-4,4 -4,-1621 920.066,-1621 920.066,4 -4,4"/>
<!-- Node1 -->
<g id="node1" class="node"><title>Node1</title>
<g id="a_node1"><a xlink:title="Qt main Window wrapper containing slot methods.">
<polygon fill="#bfbfbf" stroke="black" points="388.566,-0.5 388.566,-365.5 543.566,-365.5 543.566,-0.5 388.566,-0.5"/>
<text text-anchor="middle" x="466.066" y="-353.5" font-family="Helvetica,sans-Serif" font-size="10.00">MainWindow</text>
<polyline fill="none" stroke="black" points="388.566,-346.5 543.566,-346.5 "/>
<text text-anchor="start" x="396.566" y="-334.5" font-family="Helvetica,sans-Serif" font-size="10.00">&#45; ui</text>
<text text-anchor="start" x="396.566" y="-323.5" font-family="Helvetica,sans-Serif" font-size="10.00">&#45; m_hirachyItemPool</text>
<text text-anchor="start" x="396.566" y="-312.5" font-family="Helvetica,sans-Serif" font-size="10.00">&#45; m_isTracking</text>
<text text-anchor="start" x="396.566" y="-301.5" font-family="Helvetica,sans-Serif" font-size="10.00">&#45; m_isInspectorInit</text>
<text text-anchor="start" x="396.566" y="-290.5" font-family="Helvetica,sans-Serif" font-size="10.00">&#45; m_selectedTrackerInList</text>
<text text-anchor="start" x="396.566" y="-279.5" font-family="Helvetica,sans-Serif" font-size="10.00">&#45; m_inputFieldPool</text>
<polyline fill="none" stroke="black" points="388.566,-272.5 543.566,-272.5 "/>
<text text-anchor="start" x="396.566" y="-260.5" font-family="Helvetica,sans-Serif" font-size="10.00">+ MainWindow()</text>
<text text-anchor="start" x="396.566" y="-249.5" font-family="Helvetica,sans-Serif" font-size="10.00">+ ~MainWindow()</text>
<text text-anchor="start" x="396.566" y="-238.5" font-family="Helvetica,sans-Serif" font-size="10.00">+ update()</text>
<text text-anchor="start" x="396.566" y="-227.5" font-family="Helvetica,sans-Serif" font-size="10.00">+ updateConsole()</text>
<text text-anchor="start" x="396.566" y="-216.5" font-family="Helvetica,sans-Serif" font-size="10.00">+ getOglRenderer()</text>
<text text-anchor="start" x="396.566" y="-205.5" font-family="Helvetica,sans-Serif" font-size="10.00">&#45; updateHirachy()</text>
<text text-anchor="start" x="396.566" y="-194.5" font-family="Helvetica,sans-Serif" font-size="10.00">&#45; drawInspector()</text>
<text text-anchor="start" x="396.566" y="-183.5" font-family="Helvetica,sans-Serif" font-size="10.00">&#45; updateInspector()</text>
<text text-anchor="start" x="396.566" y="-172.5" font-family="Helvetica,sans-Serif" font-size="10.00">&#45; clearInspector()</text>
<text text-anchor="start" x="396.566" y="-161.5" font-family="Helvetica,sans-Serif" font-size="10.00">&#45; addRowToInspector()</text>
<text text-anchor="start" x="396.566" y="-150.5" font-family="Helvetica,sans-Serif" font-size="10.00">&#45; toggleTrackingButtons()</text>
<text text-anchor="start" x="396.566" y="-139.5" font-family="Helvetica,sans-Serif" font-size="10.00">&#45; toQString()</text>
<text text-anchor="start" x="396.566" y="-128.5" font-family="Helvetica,sans-Serif" font-size="10.00">&#45; addTrackerToList()</text>
<text text-anchor="start" x="396.566" y="-117.5" font-family="Helvetica,sans-Serif" font-size="10.00">&#45; slotToggleTracking()</text>
<text text-anchor="start" x="396.566" y="-106.5" font-family="Helvetica,sans-Serif" font-size="10.00">&#45; slotAddTracker()</text>
<text text-anchor="start" x="396.566" y="-95.5" font-family="Helvetica,sans-Serif" font-size="10.00">&#45; slotAddGroup()</text>
<text text-anchor="start" x="396.566" y="-84.5" font-family="Helvetica,sans-Serif" font-size="10.00">&#45; slotRemoveTracker()</text>
<text text-anchor="start" x="396.566" y="-73.5" font-family="Helvetica,sans-Serif" font-size="10.00">&#45; on_actionExit_triggered()</text>
<text text-anchor="start" x="396.566" y="-62.5" font-family="Helvetica,sans-Serif" font-size="10.00">&#45; slotTrackerSelectionChanged()</text>
<text text-anchor="start" x="396.566" y="-51.5" font-family="Helvetica,sans-Serif" font-size="10.00">&#45; slotInspectorItemChanged()</text>
<text text-anchor="start" x="396.566" y="-40.5" font-family="Helvetica,sans-Serif" font-size="10.00">&#45; slotInspectorInputPosX()</text>
<text text-anchor="start" x="396.566" y="-29.5" font-family="Helvetica,sans-Serif" font-size="10.00">&#45; slotInspectorInputPosY()</text>
<text text-anchor="start" x="396.566" y="-18.5" font-family="Helvetica,sans-Serif" font-size="10.00">&#45; slotInspectorInputPosZ()</text>
<text text-anchor="start" x="396.566" y="-7.5" font-family="Helvetica,sans-Serif" font-size="10.00">and 6 more...</text>
</a>
</g>
</g>
<!-- Node2 -->
<g id="node2" class="node"><title>Node2</title>
<g id="a_node2"><a xlink:title=" ">
<polygon fill="white" stroke="#bfbfbf" points="125.066,-529 125.066,-586 205.066,-586 205.066,-529 125.066,-529"/>
<text text-anchor="middle" x="165.066" y="-574" font-family="Helvetica,sans-Serif" font-size="10.00">QMainWindow</text>
<polyline fill="none" stroke="#bfbfbf" points="125.066,-567 205.066,-567 "/>
<text text-anchor="middle" x="165.066" y="-555" font-family="Helvetica,sans-Serif" font-size="10.00"> </text>
<polyline fill="none" stroke="#bfbfbf" points="125.066,-548 205.066,-548 "/>
<text text-anchor="middle" x="165.066" y="-536" font-family="Helvetica,sans-Serif" font-size="10.00"> </text>
</a>
</g>
</g>
<!-- Node2&#45;&gt;Node1 -->
<g id="edge1" class="edge"><title>Node2&#45;&gt;Node1</title>
<path fill="none" stroke="midnightblue" d="M172.415,-518.967C179.599,-488.58 192.642,-445.62 214.066,-413 260.229,-342.711 332.897,-279.83 388.362,-237.826"/>
<polygon fill="none" stroke="midnightblue" points="168.993,-518.231 170.199,-528.757 175.82,-519.776 168.993,-518.231"/>
</g>
<!-- Node3 -->
<g id="node3" class="node"><title>Node3</title>
<g id="a_node3"><a xlink:href="../../d8/d32/class_gl_widget.html" target="_top" xlink:title="3d render context for skeleton visualisation">
<polygon fill="white" stroke="black" points="223.066,-419 223.066,-696 389.066,-696 389.066,-419 223.066,-419"/>
<text text-anchor="middle" x="306.066" y="-684" font-family="Helvetica,sans-Serif" font-size="10.00">GlWidget</text>
<polyline fill="none" stroke="black" points="223.066,-677 389.066,-677 "/>
<text text-anchor="start" x="231.066" y="-665" font-family="Helvetica,sans-Serif" font-size="10.00">&#45; m_worldMatrix</text>
<text text-anchor="start" x="231.066" y="-654" font-family="Helvetica,sans-Serif" font-size="10.00">&#45; m_shaderProgram_texture</text>
<text text-anchor="start" x="231.066" y="-643" font-family="Helvetica,sans-Serif" font-size="10.00">&#45; m_shaderProgram_confidence</text>
<text text-anchor="start" x="231.066" y="-632" font-family="Helvetica,sans-Serif" font-size="10.00">&#45; lastPos</text>
<text text-anchor="start" x="231.066" y="-621" font-family="Helvetica,sans-Serif" font-size="10.00">&#45; m_clearColor</text>
<text text-anchor="start" x="231.066" y="-610" font-family="Helvetica,sans-Serif" font-size="10.00">&#45; m_skeletonMeshPool</text>
<polyline fill="none" stroke="black" points="223.066,-603 389.066,-603 "/>
<text text-anchor="start" x="231.066" y="-591" font-family="Helvetica,sans-Serif" font-size="10.00">+ GlWidget()</text>
<text text-anchor="start" x="231.066" y="-580" font-family="Helvetica,sans-Serif" font-size="10.00">+ ~GlWidget()</text>
<text text-anchor="start" x="231.066" y="-569" font-family="Helvetica,sans-Serif" font-size="10.00">+ updateSkeletonMeshPoolSize()</text>
<text text-anchor="start" x="231.066" y="-558" font-family="Helvetica,sans-Serif" font-size="10.00">+ updateSkeletonMeshCount()</text>
<text text-anchor="start" x="231.066" y="-547" font-family="Helvetica,sans-Serif" font-size="10.00">+ updateSkeletonMeshTransform()</text>
<text text-anchor="start" x="231.066" y="-536" font-family="Helvetica,sans-Serif" font-size="10.00"># initializeGL()</text>
<text text-anchor="start" x="231.066" y="-525" font-family="Helvetica,sans-Serif" font-size="10.00"># paintGL()</text>
<text text-anchor="start" x="231.066" y="-514" font-family="Helvetica,sans-Serif" font-size="10.00"># resizeGL()</text>
<text text-anchor="start" x="231.066" y="-503" font-family="Helvetica,sans-Serif" font-size="10.00"># mousePressEvent()</text>
<text text-anchor="start" x="231.066" y="-492" font-family="Helvetica,sans-Serif" font-size="10.00"># mouseMoveEvent()</text>
<text text-anchor="start" x="231.066" y="-481" font-family="Helvetica,sans-Serif" font-size="10.00"># mouseReleaseEvent()</text>
<text text-anchor="start" x="231.066" y="-470" font-family="Helvetica,sans-Serif" font-size="10.00">&#45; init()</text>
<text text-anchor="start" x="231.066" y="-459" font-family="Helvetica,sans-Serif" font-size="10.00">&#45; createShaderProgram()</text>
<text text-anchor="start" x="231.066" y="-448" font-family="Helvetica,sans-Serif" font-size="10.00">&#45; createMeshes()</text>
<text text-anchor="start" x="231.066" y="-437" font-family="Helvetica,sans-Serif" font-size="10.00">&#45; renderMesh()</text>
<text text-anchor="start" x="231.066" y="-426" font-family="Helvetica,sans-Serif" font-size="10.00">&#45; renderSkeletonMesh()</text>
</a>
</g>
</g>
<!-- Node3&#45;&gt;Node1 -->
<g id="edge2" class="edge"><title>Node3&#45;&gt;Node1</title>
<path fill="none" stroke="#404040" d="M365.228,-418.559C370.246,-406.869 375.243,-395.228 380.066,-384 381.273,-381.189 382.49,-378.356 383.714,-375.505"/>
<polygon fill="none" stroke="#404040" points="383.736,-375.454 382.43,-368.362 388.473,-364.428 389.78,-371.52 383.736,-375.454"/>
<text text-anchor="middle" x="416.066" y="-387" font-family="Helvetica,sans-Serif" font-size="10.00"> &#45;m_oglRenderer</text>
</g>
<!-- Node4 -->
<g id="node4" class="node"><title>Node4</title>
<g id="a_node4"><a xlink:title=" ">
<polygon fill="white" stroke="#bfbfbf" points="247.566,-826.5 247.566,-883.5 338.566,-883.5 338.566,-826.5 247.566,-826.5"/>
<text text-anchor="middle" x="293.066" y="-871.5" font-family="Helvetica,sans-Serif" font-size="10.00">QOpenGLWidget</text>
<polyline fill="none" stroke="#bfbfbf" points="247.566,-864.5 338.566,-864.5 "/>
<text text-anchor="middle" x="293.066" y="-852.5" font-family="Helvetica,sans-Serif" font-size="10.00"> </text>
<polyline fill="none" stroke="#bfbfbf" points="247.566,-845.5 338.566,-845.5 "/>
<text text-anchor="middle" x="293.066" y="-833.5" font-family="Helvetica,sans-Serif" font-size="10.00"> </text>
</a>
</g>
</g>
<!-- Node4&#45;&gt;Node3 -->
<g id="edge3" class="edge"><title>Node4&#45;&gt;Node3</title>
<path fill="none" stroke="midnightblue" d="M294.727,-816.239C296.078,-785.53 298.072,-740.21 300.012,-696.101"/>
<polygon fill="none" stroke="midnightblue" points="291.22,-816.321 294.277,-826.465 298.213,-816.629 291.22,-816.321"/>
</g>
<!-- Node5 -->
<g id="node5" class="node"><title>Node5</title>
<g id="a_node5"><a xlink:title=" ">
<polygon fill="white" stroke="#bfbfbf" points="356.566,-826.5 356.566,-883.5 459.566,-883.5 459.566,-826.5 356.566,-826.5"/>
<text text-anchor="middle" x="408.066" y="-871.5" font-family="Helvetica,sans-Serif" font-size="10.00">QOpenGLFunctions</text>
<polyline fill="none" stroke="#bfbfbf" points="356.566,-864.5 459.566,-864.5 "/>
<text text-anchor="middle" x="408.066" y="-852.5" font-family="Helvetica,sans-Serif" font-size="10.00"> </text>
<polyline fill="none" stroke="#bfbfbf" points="356.566,-845.5 459.566,-845.5 "/>
<text text-anchor="middle" x="408.066" y="-833.5" font-family="Helvetica,sans-Serif" font-size="10.00"> </text>
</a>
</g>
</g>
<!-- Node5&#45;&gt;Node3 -->
<g id="edge4" class="edge"><title>Node5&#45;&gt;Node3</title>
<path fill="none" stroke="darkgreen" d="M388.949,-817.684C377.591,-797.024 362.437,-770.969 347.066,-749 341.096,-740.468 336.333,-740.499 332.066,-731 327.102,-719.949 323.055,-708.14 319.758,-696.08"/>
<polygon fill="none" stroke="darkgreen" points="385.876,-819.36 393.731,-826.47 392.025,-816.014 385.876,-819.36"/>
</g>
<!-- Node6 -->
<g id="node6" class="node"><title>Node6</title>
<g id="a_node6"><a xlink:href="../../dc/dbc/class_tracker_manager.html" target="_top" xlink:title="Manager for all types of tracker.">
<polygon fill="white" stroke="black" points="478.066,-749.5 478.066,-960.5 620.066,-960.5 620.066,-749.5 478.066,-749.5"/>
<text text-anchor="middle" x="549.066" y="-948.5" font-family="Helvetica,sans-Serif" font-size="10.00">TrackerManager</text>
<polyline fill="none" stroke="black" points="478.066,-941.5 620.066,-941.5 "/>
<text text-anchor="start" x="486.066" y="-929.5" font-family="Helvetica,sans-Serif" font-size="10.00">&#45; m_trackerPool</text>
<text text-anchor="start" x="486.066" y="-918.5" font-family="Helvetica,sans-Serif" font-size="10.00">&#45; m_isTracking</text>
<text text-anchor="start" x="486.066" y="-907.5" font-family="Helvetica,sans-Serif" font-size="10.00">&#45; m_hasTrackerPoolChanged</text>
<text text-anchor="start" x="486.066" y="-896.5" font-family="Helvetica,sans-Serif" font-size="10.00">&#45; m_nextFreeTrackerID</text>
<text text-anchor="start" x="486.066" y="-885.5" font-family="Helvetica,sans-Serif" font-size="10.00">&#45; m_nextFreeAKCamID</text>
<text text-anchor="start" x="486.066" y="-874.5" font-family="Helvetica,sans-Serif" font-size="10.00">&#45; m_trackerPoolLock</text>
<polyline fill="none" stroke="black" points="478.066,-867.5 620.066,-867.5 "/>
<text text-anchor="start" x="486.066" y="-855.5" font-family="Helvetica,sans-Serif" font-size="10.00">+ TrackerManager()</text>
<text text-anchor="start" x="486.066" y="-844.5" font-family="Helvetica,sans-Serif" font-size="10.00">+ createTracker()</text>
<text text-anchor="start" x="486.066" y="-833.5" font-family="Helvetica,sans-Serif" font-size="10.00">+ removeTrackerAt()</text>
<text text-anchor="start" x="486.066" y="-822.5" font-family="Helvetica,sans-Serif" font-size="10.00">+ startTracker()</text>
<text text-anchor="start" x="486.066" y="-811.5" font-family="Helvetica,sans-Serif" font-size="10.00">+ stopTracker()</text>
<text text-anchor="start" x="486.066" y="-800.5" font-family="Helvetica,sans-Serif" font-size="10.00">+ isTracking()</text>
<text text-anchor="start" x="486.066" y="-789.5" font-family="Helvetica,sans-Serif" font-size="10.00">+ hasTrackerPoolChanged()</text>
<text text-anchor="start" x="486.066" y="-778.5" font-family="Helvetica,sans-Serif" font-size="10.00">+ getPoolTracker()</text>
<text text-anchor="start" x="486.066" y="-767.5" font-family="Helvetica,sans-Serif" font-size="10.00">+ getTrackerRefAt()</text>
<text text-anchor="start" x="486.066" y="-756.5" font-family="Helvetica,sans-Serif" font-size="10.00">+ getTrackerPoolLock()</text>
</a>
</g>
</g>
<!-- Node6&#45;&gt;Node1 -->
<g id="edge15" class="edge"><title>Node6&#45;&gt;Node1</title>
<path fill="none" stroke="#404040" d="M490.978,-749.485C484.49,-733.957 478.862,-717.841 475.066,-702 460.753,-642.277 459.149,-498.871 460.768,-378.056"/>
<polygon fill="none" stroke="#404040" points="460.773,-377.692 456.86,-371.635 460.946,-365.693 464.859,-371.75 460.773,-377.692"/>
<text text-anchor="middle" x="525.066" y="-555" font-family="Helvetica,sans-Serif" font-size="10.00"> &#45;m_refTrackerManager</text>
</g>
<!-- Node6&#45;&gt;Node3 -->
<g id="edge5" class="edge"><title>Node6&#45;&gt;Node3</title>
<path fill="none" stroke="#404040" d="M477.9,-755.535C474.714,-753.182 471.435,-750.992 468.066,-749 423.152,-722.453 390.871,-765.873 352.066,-731 344.278,-724.002 337.744,-715.846 332.27,-706.962"/>
<polygon fill="none" stroke="#404040" points="332.135,-706.718 325.728,-703.409 326.318,-696.222 332.725,-699.531 332.135,-706.718"/>
<text text-anchor="middle" x="402.066" y="-723" font-family="Helvetica,sans-Serif" font-size="10.00"> &#45;m_refTrackerManager</text>
</g>
<!-- Node15 -->
<g id="node15" class="node"><title>Node15</title>
<g id="a_node15"><a xlink:href="../../d0/dde/class_create_tracker_window.html" target="_top" xlink:title="dialog for creating new trackers">
<polygon fill="white" stroke="black" points="584.566,-501.5 584.566,-613.5 747.566,-613.5 747.566,-501.5 584.566,-501.5"/>
<text text-anchor="middle" x="666.066" y="-601.5" font-family="Helvetica,sans-Serif" font-size="10.00">CreateTrackerWindow</text>
<polyline fill="none" stroke="black" points="584.566,-594.5 747.566,-594.5 "/>
<text text-anchor="start" x="592.566" y="-582.5" font-family="Helvetica,sans-Serif" font-size="10.00">&#45; ui</text>
<text text-anchor="start" x="592.566" y="-571.5" font-family="Helvetica,sans-Serif" font-size="10.00">&#45; m_refTreeWidgetTracker</text>
<text text-anchor="start" x="592.566" y="-560.5" font-family="Helvetica,sans-Serif" font-size="10.00">&#45; m_selectedTrackerIdInDropdown</text>
<polyline fill="none" stroke="black" points="584.566,-553.5 747.566,-553.5 "/>
<text text-anchor="start" x="592.566" y="-541.5" font-family="Helvetica,sans-Serif" font-size="10.00">+ CreateTrackerWindow()</text>
<text text-anchor="start" x="592.566" y="-530.5" font-family="Helvetica,sans-Serif" font-size="10.00">+ ~CreateTrackerWindow()</text>
<text text-anchor="start" x="592.566" y="-519.5" font-family="Helvetica,sans-Serif" font-size="10.00">&#45; slotCreateTracker()</text>
<text text-anchor="start" x="592.566" y="-508.5" font-family="Helvetica,sans-Serif" font-size="10.00">&#45; slotSelectTrackerInDropdown()</text>
</a>
</g>
</g>
<!-- Node6&#45;&gt;Node15 -->
<g id="edge20" class="edge"><title>Node6&#45;&gt;Node15</title>
<path fill="none" stroke="#404040" d="M554.307,-749.432C556.269,-739.344 558.805,-729.383 562.066,-720 569.089,-699.787 595.206,-659.255 619.508,-623.854"/>
<polygon fill="none" stroke="#404040" points="619.81,-623.418 619.93,-616.208 626.632,-613.546 626.512,-620.756 619.81,-623.418"/>
<text text-anchor="middle" x="612.066" y="-723" font-family="Helvetica,sans-Serif" font-size="10.00"> &#45;m_refTrackerManager</text>
</g>
<!-- Node7 -->
<g id="node7" class="node"><title>Node7</title>
<g id="a_node7"><a xlink:href="../../da/dbb/class_camera.html" target="_top" xlink:title=" ">
<polygon fill="white" stroke="black" points="169.566,-1085.5 169.566,-1175.5 252.566,-1175.5 252.566,-1085.5 169.566,-1085.5"/>
<text text-anchor="middle" x="211.066" y="-1163.5" font-family="Helvetica,sans-Serif" font-size="10.00">Camera</text>
<polyline fill="none" stroke="black" points="169.566,-1156.5 252.566,-1156.5 "/>
<text text-anchor="middle" x="211.066" y="-1144.5" font-family="Helvetica,sans-Serif" font-size="10.00"> </text>
<polyline fill="none" stroke="black" points="169.566,-1137.5 252.566,-1137.5 "/>
<text text-anchor="start" x="177.566" y="-1125.5" font-family="Helvetica,sans-Serif" font-size="10.00">+ Camera()</text>
<text text-anchor="start" x="177.566" y="-1114.5" font-family="Helvetica,sans-Serif" font-size="10.00">+ ~Camera()</text>
<text text-anchor="start" x="177.566" y="-1103.5" font-family="Helvetica,sans-Serif" font-size="10.00">+ addRotation()</text>
<text text-anchor="start" x="177.566" y="-1092.5" font-family="Helvetica,sans-Serif" font-size="10.00">+ rotate()</text>
</a>
</g>
</g>
<!-- Node7&#45;&gt;Node3 -->
<g id="edge6" class="edge"><title>Node7&#45;&gt;Node3</title>
<path fill="none" stroke="#404040" d="M198.598,-1085.38C180.354,-1013.37 152.048,-866.826 186.066,-749 186.628,-747.051 199.456,-726.317 216.53,-699.191"/>
<polygon fill="none" stroke="#404040" points="216.599,-699.083 216.415,-691.874 222.999,-688.932 223.182,-696.14 216.599,-699.083"/>
<text text-anchor="middle" x="212.066" y="-852.5" font-family="Helvetica,sans-Serif" font-size="10.00"> &#45;m_camera</text>
</g>
<!-- Node8 -->
<g id="node8" class="node"><title>Node8</title>
<g id="a_node8"><a xlink:href="../../d2/d96/class_entity.html" target="_top" xlink:title="base class for all objects in openGl window">
<polygon fill="white" stroke="black" points="185.566,-1284 185.566,-1484 266.566,-1484 266.566,-1284 185.566,-1284"/>
<text text-anchor="middle" x="226.066" y="-1472" font-family="Helvetica,sans-Serif" font-size="10.00">Entity</text>
<polyline fill="none" stroke="black" points="185.566,-1465 266.566,-1465 "/>
<text text-anchor="start" x="193.566" y="-1453" font-family="Helvetica,sans-Serif" font-size="10.00"># m_matrix</text>
<polyline fill="none" stroke="black" points="185.566,-1446 266.566,-1446 "/>
<text text-anchor="start" x="193.566" y="-1434" font-family="Helvetica,sans-Serif" font-size="10.00">+ Entity()</text>
<text text-anchor="start" x="193.566" y="-1423" font-family="Helvetica,sans-Serif" font-size="10.00">+ ~Entity()</text>
<text text-anchor="start" x="193.566" y="-1412" font-family="Helvetica,sans-Serif" font-size="10.00">+ getMatrix()</text>
<text text-anchor="start" x="193.566" y="-1401" font-family="Helvetica,sans-Serif" font-size="10.00">+ translate()</text>
<text text-anchor="start" x="193.566" y="-1390" font-family="Helvetica,sans-Serif" font-size="10.00">+ setPosition()</text>
<text text-anchor="start" x="193.566" y="-1379" font-family="Helvetica,sans-Serif" font-size="10.00">+ getPosition()</text>
<text text-anchor="start" x="193.566" y="-1368" font-family="Helvetica,sans-Serif" font-size="10.00">+ rotate()</text>
<text text-anchor="start" x="193.566" y="-1357" font-family="Helvetica,sans-Serif" font-size="10.00">+ setRotation()</text>
<text text-anchor="start" x="193.566" y="-1346" font-family="Helvetica,sans-Serif" font-size="10.00">+ getRotation()</text>
<text text-anchor="start" x="193.566" y="-1335" font-family="Helvetica,sans-Serif" font-size="10.00">+ scale()</text>
<text text-anchor="start" x="193.566" y="-1324" font-family="Helvetica,sans-Serif" font-size="10.00">+ scale()</text>
<text text-anchor="start" x="193.566" y="-1313" font-family="Helvetica,sans-Serif" font-size="10.00">+ setScale()</text>
<text text-anchor="start" x="193.566" y="-1302" font-family="Helvetica,sans-Serif" font-size="10.00">+ setScale()</text>
<text text-anchor="start" x="193.566" y="-1291" font-family="Helvetica,sans-Serif" font-size="10.00">+ getScale()</text>
</a>
</g>
</g>
<!-- Node8&#45;&gt;Node7 -->
<g id="edge7" class="edge"><title>Node8&#45;&gt;Node7</title>
<path fill="none" stroke="midnightblue" d="M226.25,-1273.62C225.958,-1265.29 225.571,-1257.01 225.066,-1249 223.532,-1224.7 220.419,-1197.72 217.517,-1175.75"/>
<polygon fill="none" stroke="midnightblue" points="222.757,-1273.91 226.56,-1283.8 229.754,-1273.7 222.757,-1273.91"/>
</g>
<!-- Node12 -->
<g id="node12" class="node"><title>Node12</title>
<g id="a_node12"><a xlink:href="../../dc/dbe/class_mesh.html" target="_top" xlink:title="mesh base class">
<polygon fill="white" stroke="black" points="47.0656,-1030.5 47.0656,-1230.5 151.066,-1230.5 151.066,-1030.5 47.0656,-1030.5"/>
<text text-anchor="middle" x="99.0656" y="-1218.5" font-family="Helvetica,sans-Serif" font-size="10.00">Mesh</text>
<polyline fill="none" stroke="black" points="47.0656,-1211.5 151.066,-1211.5 "/>
<text text-anchor="start" x="55.0656" y="-1199.5" font-family="Helvetica,sans-Serif" font-size="10.00"># m_vertexData</text>
<text text-anchor="start" x="55.0656" y="-1188.5" font-family="Helvetica,sans-Serif" font-size="10.00"># m_faceCount</text>
<text text-anchor="start" x="55.0656" y="-1177.5" font-family="Helvetica,sans-Serif" font-size="10.00"># m_vbo</text>
<text text-anchor="start" x="55.0656" y="-1166.5" font-family="Helvetica,sans-Serif" font-size="10.00"># m_texture</text>
<text text-anchor="start" x="55.0656" y="-1155.5" font-family="Helvetica,sans-Serif" font-size="10.00"># m_shaderProgram</text>
<text text-anchor="start" x="55.0656" y="-1144.5" font-family="Helvetica,sans-Serif" font-size="10.00"># m_isActive</text>
<polyline fill="none" stroke="black" points="47.0656,-1137.5 151.066,-1137.5 "/>
<text text-anchor="start" x="55.0656" y="-1125.5" font-family="Helvetica,sans-Serif" font-size="10.00">+ Mesh()</text>
<text text-anchor="start" x="55.0656" y="-1114.5" font-family="Helvetica,sans-Serif" font-size="10.00">+ ~Mesh()</text>
<text text-anchor="start" x="55.0656" y="-1103.5" font-family="Helvetica,sans-Serif" font-size="10.00">+ bind()</text>
<text text-anchor="start" x="55.0656" y="-1092.5" font-family="Helvetica,sans-Serif" font-size="10.00">+ release()</text>
<text text-anchor="start" x="55.0656" y="-1081.5" font-family="Helvetica,sans-Serif" font-size="10.00">+ getFaceCount()</text>
<text text-anchor="start" x="55.0656" y="-1070.5" font-family="Helvetica,sans-Serif" font-size="10.00">+ isActive()</text>
<text text-anchor="start" x="55.0656" y="-1059.5" font-family="Helvetica,sans-Serif" font-size="10.00">+ setActive()</text>
<text text-anchor="start" x="55.0656" y="-1048.5" font-family="Helvetica,sans-Serif" font-size="10.00">+ setDiffuseColor()</text>
<text text-anchor="start" x="55.0656" y="-1037.5" font-family="Helvetica,sans-Serif" font-size="10.00"># init()</text>
</a>
</g>
</g>
<!-- Node8&#45;&gt;Node12 -->
<g id="edge13" class="edge"><title>Node8&#45;&gt;Node12</title>
<path fill="none" stroke="midnightblue" d="M214.567,-1274.21C210.823,-1265.16 206.071,-1256.58 200.066,-1249 187.963,-1233.72 174.698,-1243.88 160.066,-1231 157.024,-1228.32 154.085,-1225.46 151.252,-1222.45"/>
<polygon fill="none" stroke="midnightblue" points="211.362,-1275.63 218.115,-1283.79 217.926,-1273.2 211.362,-1275.63"/>
</g>
<!-- Node9 -->
<g id="node9" class="node"><title>Node9</title>
<g id="a_node9"><a xlink:href="../../d3/de7/class_vector3.html" target="_top" xlink:title="Utility Class.">
<polygon fill="white" stroke="black" points="14.5656,-1278.5 14.5656,-1489.5 87.5656,-1489.5 87.5656,-1278.5 14.5656,-1278.5"/>
<text text-anchor="middle" x="51.0656" y="-1477.5" font-family="Helvetica,sans-Serif" font-size="10.00">Vector3</text>
<polyline fill="none" stroke="black" points="14.5656,-1470.5 87.5656,-1470.5 "/>
<text text-anchor="middle" x="51.0656" y="-1458.5" font-family="Helvetica,sans-Serif" font-size="10.00"> </text>
<polyline fill="none" stroke="black" points="14.5656,-1451.5 87.5656,-1451.5 "/>
<text text-anchor="start" x="22.5656" y="-1439.5" font-family="Helvetica,sans-Serif" font-size="10.00">+ Vector3()</text>
<text text-anchor="start" x="22.5656" y="-1428.5" font-family="Helvetica,sans-Serif" font-size="10.00">+ Vector3()</text>
<text text-anchor="start" x="22.5656" y="-1417.5" font-family="Helvetica,sans-Serif" font-size="10.00">+ Vector3()</text>
<text text-anchor="start" x="22.5656" y="-1406.5" font-family="Helvetica,sans-Serif" font-size="10.00">+ Vector3()</text>
<text text-anchor="start" x="22.5656" y="-1395.5" font-family="Helvetica,sans-Serif" font-size="10.00">+ Vector3()</text>
<text text-anchor="start" x="22.5656" y="-1384.5" font-family="Helvetica,sans-Serif" font-size="10.00">+ operator+()</text>
<text text-anchor="start" x="22.5656" y="-1373.5" font-family="Helvetica,sans-Serif" font-size="10.00">+ operator&#45;()</text>
<text text-anchor="start" x="22.5656" y="-1362.5" font-family="Helvetica,sans-Serif" font-size="10.00">+ operator*()</text>
<text text-anchor="start" x="22.5656" y="-1351.5" font-family="Helvetica,sans-Serif" font-size="10.00">+ operator/()</text>
<text text-anchor="start" x="22.5656" y="-1340.5" font-family="Helvetica,sans-Serif" font-size="10.00">+ operator*()</text>
<text text-anchor="start" x="22.5656" y="-1329.5" font-family="Helvetica,sans-Serif" font-size="10.00">+ operator*()</text>
<text text-anchor="start" x="22.5656" y="-1318.5" font-family="Helvetica,sans-Serif" font-size="10.00">+ toString()</text>
<text text-anchor="start" x="22.5656" y="-1307.5" font-family="Helvetica,sans-Serif" font-size="10.00">+ toEigen()</text>
<text text-anchor="start" x="22.5656" y="-1296.5" font-family="Helvetica,sans-Serif" font-size="10.00">+ zero()</text>
<text text-anchor="start" x="22.5656" y="-1285.5" font-family="Helvetica,sans-Serif" font-size="10.00">+ one()</text>
</a>
</g>
</g>
<!-- Node9&#45;&gt;Node3 -->
<g id="edge10" class="edge"><title>Node9&#45;&gt;Node3</title>
<path fill="none" stroke="#404040" d="M25.4663,-1278.22C-0.858811,-1146.61 -26.9422,-917.627 60.0656,-749 91.2127,-688.635 147.806,-735.478 212.36,-701.938"/>
<polygon fill="none" stroke="#404040" points="212.429,-701.898 215.587,-695.415 222.786,-695.836 219.628,-702.319 212.429,-701.898"/>
<text text-anchor="middle" x="35.5656" y="-1004" font-family="Helvetica,sans-Serif" font-size="10.00"> &#45;m_colorRed</text>
<text text-anchor="middle" x="35.5656" y="-993" font-family="Helvetica,sans-Serif" font-size="10.00">&#45;m_colorGreen</text>
<text text-anchor="middle" x="35.5656" y="-982" font-family="Helvetica,sans-Serif" font-size="10.00">&#45;m_colorYellow</text>
</g>
<!-- Node9&#45;&gt;Node7 -->
<g id="edge8" class="edge"><title>Node9&#45;&gt;Node7</title>
<path fill="none" stroke="#404040" d="M87.8015,-1335.64C109.885,-1306.26 137.908,-1267.31 160.066,-1231 168.606,-1217 177.063,-1201.41 184.562,-1186.8"/>
<polygon fill="none" stroke="#404040" points="184.679,-1186.57 183.818,-1179.41 190.095,-1175.86 190.956,-1183.02 184.679,-1186.57"/>
<text text-anchor="middle" x="173.066" y="-1252" font-family="Helvetica,sans-Serif" font-size="10.00"> &#45;m_rotation</text>
</g>
<!-- Node9&#45;&gt;Node12 -->
<g id="edge14" class="edge"><title>Node9&#45;&gt;Node12</title>
<path fill="none" stroke="#404040" d="M48.0754,-1278.38C48.9205,-1268.4 50.2045,-1258.47 52.0656,-1249 52.4918,-1246.83 52.9571,-1244.65 53.4578,-1242.46"/>
<polygon fill="none" stroke="#404040" points="53.4856,-1242.35 51.0926,-1235.55 56.4514,-1230.73 58.8444,-1237.53 53.4856,-1242.35"/>
<text text-anchor="middle" x="88.5656" y="-1252" font-family="Helvetica,sans-Serif" font-size="10.00"> #m_diffuseColor</text>
</g>
<!-- Node10 -->
<g id="node10" class="node"><title>Node10</title>
<g id="a_node10"><a xlink:href="../../df/d32/struct_vector3_1_1_position.html" target="_top" xlink:title=" ">
<polygon fill="white" stroke="black" points="5.06565,-1537.5 5.06565,-1616.5 97.0656,-1616.5 97.0656,-1537.5 5.06565,-1537.5"/>
<text text-anchor="middle" x="51.0656" y="-1604.5" font-family="Helvetica,sans-Serif" font-size="10.00">Vector3::Position</text>
<polyline fill="none" stroke="black" points="5.06565,-1597.5 97.0656,-1597.5 "/>
<text text-anchor="start" x="13.0656" y="-1585.5" font-family="Helvetica,sans-Serif" font-size="10.00">+ x</text>
<text text-anchor="start" x="13.0656" y="-1574.5" font-family="Helvetica,sans-Serif" font-size="10.00">+ y</text>
<text text-anchor="start" x="13.0656" y="-1563.5" font-family="Helvetica,sans-Serif" font-size="10.00">+ z</text>
<polyline fill="none" stroke="black" points="5.06565,-1556.5 97.0656,-1556.5 "/>
<text text-anchor="middle" x="51.0656" y="-1544.5" font-family="Helvetica,sans-Serif" font-size="10.00"> </text>
</a>
</g>
</g>
<!-- Node10&#45;&gt;Node9 -->
<g id="edge9" class="edge"><title>Node10&#45;&gt;Node9</title>
<path fill="none" stroke="#404040" d="M51.0656,-1537.35C51.0656,-1526.69 51.0656,-1514.55 51.0656,-1501.88"/>
<polygon fill="none" stroke="#404040" points="51.0657,-1501.6 47.0657,-1495.6 51.0656,-1489.6 55.0657,-1495.6 51.0657,-1501.6"/>
<text text-anchor="middle" x="70.5656" y="-1511" font-family="Helvetica,sans-Serif" font-size="10.00"> +m_xyz</text>
</g>
<!-- Node11 -->
<g id="node11" class="node"><title>Node11</title>
<g id="a_node11"><a xlink:href="../../d2/d8d/class_plane.html" target="_top" xlink:title="plane mesh">
<polygon fill="white" stroke="black" points="69.0656,-821 69.0656,-889 131.066,-889 131.066,-821 69.0656,-821"/>
<text text-anchor="middle" x="100.066" y="-877" font-family="Helvetica,sans-Serif" font-size="10.00">Plane</text>
<polyline fill="none" stroke="black" points="69.0656,-870 131.066,-870 "/>
<text text-anchor="middle" x="100.066" y="-858" font-family="Helvetica,sans-Serif" font-size="10.00"> </text>
<polyline fill="none" stroke="black" points="69.0656,-851 131.066,-851 "/>
<text text-anchor="start" x="77.0656" y="-839" font-family="Helvetica,sans-Serif" font-size="10.00">+ Plane()</text>
<text text-anchor="start" x="77.0656" y="-828" font-family="Helvetica,sans-Serif" font-size="10.00">+ ~Plane()</text>
</a>
</g>
</g>
<!-- Node11&#45;&gt;Node3 -->
<g id="edge11" class="edge"><title>Node11&#45;&gt;Node3</title>
<path fill="none" stroke="#404040" d="M89.5024,-820.943C82.1788,-790.979 77.4806,-747.431 101.066,-720 131.889,-684.149 166.285,-723.465 212.147,-701.805"/>
<polygon fill="none" stroke="#404040" points="212.316,-701.709 215.56,-695.268 222.752,-695.785 219.509,-702.226 212.316,-701.709"/>
<text text-anchor="middle" x="132.066" y="-723" font-family="Helvetica,sans-Serif" font-size="10.00"> &#45;m_meshGrid</text>
</g>
<!-- Node12&#45;&gt;Node11 -->
<g id="edge12" class="edge"><title>Node12&#45;&gt;Node11</title>
<path fill="none" stroke="midnightblue" d="M99.4656,-1020.12C99.6371,-973.196 99.8251,-921.783 99.9441,-889.231"/>
<polygon fill="none" stroke="midnightblue" points="95.9648,-1020.36 99.4281,-1030.37 102.965,-1020.39 95.9648,-1020.36"/>
</g>
<!-- Node13 -->
<g id="node13" class="node"><title>Node13</title>
<g id="a_node13"><a xlink:href="../../de/dbb/class_tracker.html" target="_top" xlink:title="Prototype class for implemetation &#45; holds virtual methods.">
<polygon fill="white" stroke="black" points="766.066,-413.5 766.066,-701.5 916.066,-701.5 916.066,-413.5 766.066,-413.5"/>
<text text-anchor="middle" x="841.066" y="-689.5" font-family="Helvetica,sans-Serif" font-size="10.00">Tracker</text>
<polyline fill="none" stroke="black" points="766.066,-682.5 916.066,-682.5 "/>
<text text-anchor="start" x="774.066" y="-670.5" font-family="Helvetica,sans-Serif" font-size="10.00"># m_isDataAvailable</text>
<text text-anchor="start" x="774.066" y="-659.5" font-family="Helvetica,sans-Serif" font-size="10.00"># m_hasSkeletonPoolChanged</text>
<text text-anchor="start" x="774.066" y="-648.5" font-family="Helvetica,sans-Serif" font-size="10.00"># m_trackingThread</text>
<text text-anchor="start" x="774.066" y="-637.5" font-family="Helvetica,sans-Serif" font-size="10.00"># m_skeletonPool</text>
<text text-anchor="start" x="774.066" y="-626.5" font-family="Helvetica,sans-Serif" font-size="10.00"># m_skeletonPoolCache</text>
<text text-anchor="start" x="774.066" y="-615.5" font-family="Helvetica,sans-Serif" font-size="10.00"># m_idCam</text>
<text text-anchor="start" x="774.066" y="-604.5" font-family="Helvetica,sans-Serif" font-size="10.00"># m_trackingCycles</text>
<text text-anchor="start" x="774.066" y="-593.5" font-family="Helvetica,sans-Serif" font-size="10.00"># m_offsetMatrix</text>
<text text-anchor="start" x="774.066" y="-582.5" font-family="Helvetica,sans-Serif" font-size="10.00"># m_skeletonPoolLock</text>
<polyline fill="none" stroke="black" points="766.066,-575.5 916.066,-575.5 "/>
<text text-anchor="start" x="774.066" y="-563.5" font-family="Helvetica,sans-Serif" font-size="10.00">+ Tracker()</text>
<text text-anchor="start" x="774.066" y="-552.5" font-family="Helvetica,sans-Serif" font-size="10.00">+ start()</text>
<text text-anchor="start" x="774.066" y="-541.5" font-family="Helvetica,sans-Serif" font-size="10.00">+ stop()</text>
<text text-anchor="start" x="774.066" y="-530.5" font-family="Helvetica,sans-Serif" font-size="10.00">+ destroy()</text>
<text text-anchor="start" x="774.066" y="-519.5" font-family="Helvetica,sans-Serif" font-size="10.00">+ disable()</text>
<text text-anchor="start" x="774.066" y="-508.5" font-family="Helvetica,sans-Serif" font-size="10.00">+ enable()</text>
<text text-anchor="start" x="774.066" y="-497.5" font-family="Helvetica,sans-Serif" font-size="10.00">+ clean()</text>
<text text-anchor="start" x="774.066" y="-486.5" font-family="Helvetica,sans-Serif" font-size="10.00">+ isDataAvailable()</text>
<text text-anchor="start" x="774.066" y="-475.5" font-family="Helvetica,sans-Serif" font-size="10.00">+ resetIsDataAvailable()</text>
<text text-anchor="start" x="774.066" y="-464.5" font-family="Helvetica,sans-Serif" font-size="10.00">+ hasSkeletonPoolChanged()</text>
<text text-anchor="start" x="774.066" y="-453.5" font-family="Helvetica,sans-Serif" font-size="10.00">and 9 more...</text>
<text text-anchor="start" x="774.066" y="-442.5" font-family="Helvetica,sans-Serif" font-size="10.00"># init()</text>
<text text-anchor="start" x="774.066" y="-431.5" font-family="Helvetica,sans-Serif" font-size="10.00"># update()</text>
<text text-anchor="start" x="774.066" y="-420.5" font-family="Helvetica,sans-Serif" font-size="10.00"># track()</text>
</a>
</g>
</g>
<!-- Node13&#45;&gt;Node1 -->
<g id="edge16" class="edge"><title>Node13&#45;&gt;Node1</title>
<path fill="none" stroke="#404040" d="M765.889,-424.852C762.678,-420.778 759.402,-416.814 756.066,-413 696.758,-345.186 615.251,-282.861 553.747,-240.41"/>
<polygon fill="none" stroke="#404040" points="553.569,-240.289 546.359,-240.198 543.669,-233.508 550.879,-233.598 553.569,-240.289"/>
<text text-anchor="middle" x="780.566" y="-387" font-family="Helvetica,sans-Serif" font-size="10.00"> &#45;m_selectedTracker</text>
</g>
<!-- Node14 -->
<g id="node14" class="node"><title>Node14</title>
<g id="a_node14"><a xlink:href="../../d4/d92/struct_tracker_1_1_properties.html" target="_top" xlink:title=" ">
<polygon fill="white" stroke="black" points="777.566,-788 777.566,-922 904.566,-922 904.566,-788 777.566,-788"/>
<text text-anchor="middle" x="841.066" y="-910" font-family="Helvetica,sans-Serif" font-size="10.00">Tracker::Properties</text>
<polyline fill="none" stroke="black" points="777.566,-903 904.566,-903 "/>
<text text-anchor="start" x="785.566" y="-891" font-family="Helvetica,sans-Serif" font-size="10.00">+ id</text>
<text text-anchor="start" x="785.566" y="-880" font-family="Helvetica,sans-Serif" font-size="10.00">+ name</text>
<text text-anchor="start" x="785.566" y="-869" font-family="Helvetica,sans-Serif" font-size="10.00">+ isTracking</text>
<text text-anchor="start" x="785.566" y="-858" font-family="Helvetica,sans-Serif" font-size="10.00">+ isEnabled</text>
<text text-anchor="start" x="785.566" y="-847" font-family="Helvetica,sans-Serif" font-size="10.00">+ countDetectedSkeleton</text>
<text text-anchor="start" x="785.566" y="-836" font-family="Helvetica,sans-Serif" font-size="10.00">+ positionOffset</text>
<text text-anchor="start" x="785.566" y="-825" font-family="Helvetica,sans-Serif" font-size="10.00">+ rotationOffset</text>
<text text-anchor="start" x="785.566" y="-814" font-family="Helvetica,sans-Serif" font-size="10.00">+ scaleOffset</text>
<polyline fill="none" stroke="black" points="777.566,-807 904.566,-807 "/>
<text text-anchor="middle" x="841.066" y="-795" font-family="Helvetica,sans-Serif" font-size="10.00"> </text>
</a>
</g>
</g>
<!-- Node14&#45;&gt;Node13 -->
<g id="edge17" class="edge"><title>Node14&#45;&gt;Node13</title>
<path fill="none" stroke="#404040" d="M841.066,-787.684C841.066,-765.576 841.066,-739.93 841.066,-713.966"/>
<polygon fill="none" stroke="#404040" points="841.066,-713.619 837.066,-707.619 841.066,-701.619 845.066,-707.619 841.066,-713.619"/>
<text text-anchor="middle" x="873.566" y="-723" font-family="Helvetica,sans-Serif" font-size="10.00"> #m_properties</text>
</g>
<!-- Node15&#45;&gt;Node1 -->
<g id="edge18" class="edge"><title>Node15&#45;&gt;Node1</title>
<path fill="none" stroke="#404040" d="M636.34,-501.135C613.342,-458.302 580.317,-396.793 549.462,-339.326"/>
<polygon fill="none" stroke="#404040" points="549.405,-339.22 543.043,-335.826 543.729,-328.648 550.091,-332.042 549.405,-339.22"/>
<text text-anchor="middle" x="635.066" y="-387" font-family="Helvetica,sans-Serif" font-size="10.00"> &#45;m_createTrackerWindow</text>
</g>
<!-- Node16 -->
<g id="node16" class="node"><title>Node16</title>
<g id="a_node16"><a xlink:title=" ">
<polygon fill="white" stroke="#bfbfbf" points="640.566,-826.5 640.566,-883.5 691.566,-883.5 691.566,-826.5 640.566,-826.5"/>
<text text-anchor="middle" x="666.066" y="-871.5" font-family="Helvetica,sans-Serif" font-size="10.00">QDialog</text>
<polyline fill="none" stroke="#bfbfbf" points="640.566,-864.5 691.566,-864.5 "/>
<text text-anchor="middle" x="666.066" y="-852.5" font-family="Helvetica,sans-Serif" font-size="10.00"> </text>
<polyline fill="none" stroke="#bfbfbf" points="640.566,-845.5 691.566,-845.5 "/>
<text text-anchor="middle" x="666.066" y="-833.5" font-family="Helvetica,sans-Serif" font-size="10.00"> </text>
</a>
</g>
</g>
<!-- Node16&#45;&gt;Node15 -->
<g id="edge19" class="edge"><title>Node16&#45;&gt;Node15</title>
<path fill="none" stroke="midnightblue" d="M666.066,-816.145C666.066,-764.756 666.066,-672.569 666.066,-613.531"/>
<polygon fill="none" stroke="midnightblue" points="662.566,-816.465 666.066,-826.465 669.566,-816.465 662.566,-816.465"/>
</g>
</g>
</svg>
