<?xml version="1.0" encoding="UTF-8" standalone="no"?>
<!DOCTYPE svg PUBLIC "-//W3C//DTD SVG 1.1//EN"
 "http://www.w3.org/Graphics/SVG/1.1/DTD/svg11.dtd">
<!-- Generated by graphviz version 2.38.0 (20140413.2041)
 -->
<!-- Title: OSCListener Pages: 1 -->
<svg width="130pt" height="237pt"
 viewBox="0.00 0.00 130.00 237.00" xmlns="http://www.w3.org/2000/svg" xmlns:xlink="http://www.w3.org/1999/xlink">
<g id="graph0" class="graph" transform="scale(1 1) rotate(0) translate(4 233)">
<title>OSCListener</title>
<polygon fill="white" stroke="none" points="-4,4 -4,-233 126,-233 126,4 -4,4"/>
<!-- Node1 -->
<g id="node1" class="node"><title>Node1</title>
<g id="a_node1"><a xlink:title=" ">
<polygon fill="#bfbfbf" stroke="black" points="7.5,-0.5 7.5,-134.5 114.5,-134.5 114.5,-0.5 7.5,-0.5"/>
<text text-anchor="middle" x="61" y="-122.5" font-family="Helvetica,sans-Serif" font-size="10.00">OSCListener</text>
<polyline fill="none" stroke="black" points="7.5,-115.5 114.5,-115.5 "/>
<text text-anchor="start" x="15.5" y="-103.5" font-family="Helvetica,sans-Serif" font-size="10.00">&#45; m_toggleStatus</text>
<polyline fill="none" stroke="black" points="7.5,-96.5 114.5,-96.5 "/>
<text text-anchor="start" x="15.5" y="-84.5" font-family="Helvetica,sans-Serif" font-size="10.00">+ ~OSCListener()</text>
<text text-anchor="start" x="15.5" y="-73.5" font-family="Helvetica,sans-Serif" font-size="10.00">+ start()</text>
<text text-anchor="start" x="15.5" y="-62.5" font-family="Helvetica,sans-Serif" font-size="10.00">+ getToggleStatus()</text>
<text text-anchor="start" x="15.5" y="-51.5" font-family="Helvetica,sans-Serif" font-size="10.00">+ instance()</text>
<text text-anchor="start" x="15.5" y="-40.5" font-family="Helvetica,sans-Serif" font-size="10.00"># ProcessMessage()</text>
<text text-anchor="start" x="15.5" y="-29.5" font-family="Helvetica,sans-Serif" font-size="10.00">&#45; OSCListener()</text>
<text text-anchor="start" x="15.5" y="-18.5" font-family="Helvetica,sans-Serif" font-size="10.00">&#45; OSCListener()</text>
<text text-anchor="start" x="15.5" y="-7.5" font-family="Helvetica,sans-Serif" font-size="10.00">&#45; operator=()</text>
</a>
</g>
</g>
<!-- Node2 -->
<g id="node2" class="node"><title>Node2</title>
<g id="a_node2"><a xlink:title=" ">
<polygon fill="white" stroke="#bfbfbf" points="0,-171.5 0,-228.5 122,-228.5 122,-171.5 0,-171.5"/>
<text text-anchor="middle" x="61" y="-216.5" font-family="Helvetica,sans-Serif" font-size="10.00">osc::OscPacketListener</text>
<polyline fill="none" stroke="#bfbfbf" points="0,-209.5 122,-209.5 "/>
<text text-anchor="middle" x="61" y="-197.5" font-family="Helvetica,sans-Serif" font-size="10.00"> </text>
<polyline fill="none" stroke="#bfbfbf" points="0,-190.5 122,-190.5 "/>
<text text-anchor="middle" x="61" y="-178.5" font-family="Helvetica,sans-Serif" font-size="10.00"> </text>
</a>
</g>
</g>
<!-- Node2&#45;&gt;Node1 -->
<g id="edge1" class="edge"><title>Node2&#45;&gt;Node1</title>
<path fill="none" stroke="midnightblue" d="M61,-161.16C61,-152.782 61,-143.668 61,-134.533"/>
<polygon fill="none" stroke="midnightblue" points="57.5001,-161.324 61,-171.324 64.5001,-161.324 57.5001,-161.324"/>
</g>
</g>
</svg>
