<?xml version="1.0" encoding="UTF-8" standalone="no"?>
<!DOCTYPE svg PUBLIC "-//W3C//DTD SVG 1.1//EN"
 "http://www.w3.org/Graphics/SVG/1.1/DTD/svg11.dtd">
<!-- Generated by graphviz version 2.38.0 (20140413.2041)
 -->
<!-- Title: Vector4 Pages: 1 -->
<svg width="100pt" height="347pt"
 viewBox="0.00 0.00 100.00 347.00" xmlns="http://www.w3.org/2000/svg" xmlns:xlink="http://www.w3.org/1999/xlink">
<g id="graph0" class="graph" transform="scale(1 1) rotate(0) translate(4 343)">
<title>Vector4</title>
<polygon fill="white" stroke="none" points="-4,4 -4,-343 96,-343 96,4 -4,4"/>
<!-- Node1 -->
<g id="node1" class="node"><title>Node1</title>
<g id="a_node1"><a xlink:title="Utility Class.">
<polygon fill="#bfbfbf" stroke="black" points="9.5,-0.5 9.5,-200.5 82.5,-200.5 82.5,-0.5 9.5,-0.5"/>
<text text-anchor="middle" x="46" y="-188.5" font-family="Helvetica,sans-Serif" font-size="10.00">Vector4</text>
<polyline fill="none" stroke="black" points="9.5,-181.5 82.5,-181.5 "/>
<text text-anchor="middle" x="46" y="-169.5" font-family="Helvetica,sans-Serif" font-size="10.00"> </text>
<polyline fill="none" stroke="black" points="9.5,-162.5 82.5,-162.5 "/>
<text text-anchor="start" x="17.5" y="-150.5" font-family="Helvetica,sans-Serif" font-size="10.00">+ Vector4()</text>
<text text-anchor="start" x="17.5" y="-139.5" font-family="Helvetica,sans-Serif" font-size="10.00">+ Vector4()</text>
<text text-anchor="start" x="17.5" y="-128.5" font-family="Helvetica,sans-Serif" font-size="10.00">+ Vector4()</text>
<text text-anchor="start" x="17.5" y="-117.5" font-family="Helvetica,sans-Serif" font-size="10.00">+ Vector4()</text>
<text text-anchor="start" x="17.5" y="-106.5" font-family="Helvetica,sans-Serif" font-size="10.00">+ Vector4()</text>
<text text-anchor="start" x="17.5" y="-95.5" font-family="Helvetica,sans-Serif" font-size="10.00">+ operator+()</text>
<text text-anchor="start" x="17.5" y="-84.5" font-family="Helvetica,sans-Serif" font-size="10.00">+ operator&#45;()</text>
<text text-anchor="start" x="17.5" y="-73.5" font-family="Helvetica,sans-Serif" font-size="10.00">+ operator*()</text>
<text text-anchor="start" x="17.5" y="-62.5" font-family="Helvetica,sans-Serif" font-size="10.00">+ operator/()</text>
<text text-anchor="start" x="17.5" y="-51.5" font-family="Helvetica,sans-Serif" font-size="10.00">+ operator*()</text>
<text text-anchor="start" x="17.5" y="-40.5" font-family="Helvetica,sans-Serif" font-size="10.00">+ operator*()</text>
<text text-anchor="start" x="17.5" y="-29.5" font-family="Helvetica,sans-Serif" font-size="10.00">+ toString()</text>
<text text-anchor="start" x="17.5" y="-18.5" font-family="Helvetica,sans-Serif" font-size="10.00">+ zero()</text>
<text text-anchor="start" x="17.5" y="-7.5" font-family="Helvetica,sans-Serif" font-size="10.00">+ one()</text>
</a>
</g>
</g>
<!-- Node2 -->
<g id="node2" class="node"><title>Node2</title>
<g id="a_node2"><a xlink:href="../../d0/d94/struct_vector4_1_1_position.html" target="_top" xlink:title=" ">
<polygon fill="white" stroke="black" points="0,-248.5 0,-338.5 92,-338.5 92,-248.5 0,-248.5"/>
<text text-anchor="middle" x="46" y="-326.5" font-family="Helvetica,sans-Serif" font-size="10.00">Vector4::Position</text>
<polyline fill="none" stroke="black" points="0,-319.5 92,-319.5 "/>
<text text-anchor="start" x="8" y="-307.5" font-family="Helvetica,sans-Serif" font-size="10.00">+ x</text>
<text text-anchor="start" x="8" y="-296.5" font-family="Helvetica,sans-Serif" font-size="10.00">+ y</text>
<text text-anchor="start" x="8" y="-285.5" font-family="Helvetica,sans-Serif" font-size="10.00">+ z</text>
<text text-anchor="start" x="8" y="-274.5" font-family="Helvetica,sans-Serif" font-size="10.00">+ w</text>
<polyline fill="none" stroke="black" points="0,-267.5 92,-267.5 "/>
<text text-anchor="middle" x="46" y="-255.5" font-family="Helvetica,sans-Serif" font-size="10.00"> </text>
</a>
</g>
</g>
<!-- Node2&#45;&gt;Node1 -->
<g id="edge1" class="edge"><title>Node2&#45;&gt;Node1</title>
<path fill="none" stroke="#404040" d="M46,-248.201C46,-237.344 46,-225.234 46,-212.755"/>
<polygon fill="none" stroke="#404040" points="46.0001,-212.706 42,-206.706 46,-200.706 50,-206.706 46.0001,-212.706"/>
<text text-anchor="middle" x="69" y="-222" font-family="Helvetica,sans-Serif" font-size="10.00"> +m_xyzw</text>
</g>
</g>
</svg>
