<?xml version="1.0" encoding="UTF-8" standalone="no"?>
<!DOCTYPE svg PUBLIC "-//W3C//DTD SVG 1.1//EN"
 "http://www.w3.org/Graphics/SVG/1.1/DTD/svg11.dtd">
<!-- Generated by graphviz version 2.38.0 (20140413.2041)
 -->
<!-- Title: C:/dev/projects/MotionHub/src/TrackerManagement/xs_udpserver.h Pages: 1 -->
<svg width="353pt" height="563pt"
 viewBox="0.00 0.00 353.00 563.00" xmlns="http://www.w3.org/2000/svg" xmlns:xlink="http://www.w3.org/1999/xlink">
<g id="graph0" class="graph" transform="scale(1 1) rotate(0) translate(4 559)">
<title>C:/dev/projects/MotionHub/src/TrackerManagement/xs_udpserver.h</title>
<polygon fill="white" stroke="none" points="-4,4 -4,-559 349,-559 349,4 -4,4"/>
<!-- Node1 -->
<g id="node1" class="node"><title>Node1</title>
<g id="a_node1"><a xlink:title=" ">
<polygon fill="#bfbfbf" stroke="black" points="65,-513.5 65,-554.5 196,-554.5 196,-513.5 65,-513.5"/>
<text text-anchor="start" x="73" y="-542.5" font-family="Helvetica,sans-Serif" font-size="10.00">C:/dev/projects/MotionHub</text>
<text text-anchor="start" x="73" y="-531.5" font-family="Helvetica,sans-Serif" font-size="10.00">/src/TrackerManagement</text>
<text text-anchor="middle" x="130.5" y="-520.5" font-family="Helvetica,sans-Serif" font-size="10.00">/xs_udpserver.h</text>
</a>
</g>
</g>
<!-- Node2 -->
<g id="node2" class="node"><title>Node2</title>
<g id="a_node2"><a xlink:href="../../d0/d47/_x_s_tracker_8h_source.html" target="_top" xlink:title=" ">
<polygon fill="white" stroke="black" points="18,-357.5 18,-398.5 149,-398.5 149,-357.5 18,-357.5"/>
<text text-anchor="start" x="26" y="-386.5" font-family="Helvetica,sans-Serif" font-size="10.00">C:/dev/projects/MotionHub</text>
<text text-anchor="start" x="26" y="-375.5" font-family="Helvetica,sans-Serif" font-size="10.00">/src/TrackerManagement</text>
<text text-anchor="middle" x="83.5" y="-364.5" font-family="Helvetica,sans-Serif" font-size="10.00">/XSTracker.h</text>
</a>
</g>
</g>
<!-- Node1&#45;&gt;Node2 -->
<g id="edge1" class="edge"><title>Node1&#45;&gt;Node2</title>
<path fill="none" stroke="midnightblue" d="M82.5824,-507.56C71.7159,-499.346 61.5936,-489.155 55.5,-477 42.653,-451.375 57.2782,-418.937 69.7506,-398.571"/>
<polygon fill="midnightblue" stroke="midnightblue" points="80.7867,-510.575 90.9828,-513.455 84.8077,-504.845 80.7867,-510.575"/>
</g>
<!-- Node8 -->
<g id="node8" class="node"><title>Node8</title>
<g id="a_node8"><a xlink:href="../../d7/db5/_x_s_bvh_writer_8h_source.html" target="_top" xlink:title=" ">
<polygon fill="white" stroke="black" points="65,-435.5 65,-476.5 196,-476.5 196,-435.5 65,-435.5"/>
<text text-anchor="start" x="73" y="-464.5" font-family="Helvetica,sans-Serif" font-size="10.00">C:/dev/projects/MotionHub</text>
<text text-anchor="start" x="73" y="-453.5" font-family="Helvetica,sans-Serif" font-size="10.00">/src/TrackerManagement</text>
<text text-anchor="middle" x="130.5" y="-442.5" font-family="Helvetica,sans-Serif" font-size="10.00">/XSBvhWriter.h</text>
</a>
</g>
</g>
<!-- Node1&#45;&gt;Node8 -->
<g id="edge8" class="edge"><title>Node1&#45;&gt;Node8</title>
<path fill="none" stroke="midnightblue" d="M130.5,-503.297C130.5,-494.301 130.5,-484.653 130.5,-476.506"/>
<polygon fill="midnightblue" stroke="midnightblue" points="127,-503.428 130.5,-513.428 134,-503.428 127,-503.428"/>
</g>
<!-- Node9 -->
<g id="node9" class="node"><title>Node9</title>
<g id="a_node9"><a xlink:href="../../db/d56/xs__udpserver_8cpp.html" target="_top" xlink:title=" ">
<polygon fill="white" stroke="black" points="214,-435.5 214,-476.5 345,-476.5 345,-435.5 214,-435.5"/>
<text text-anchor="start" x="222" y="-464.5" font-family="Helvetica,sans-Serif" font-size="10.00">C:/dev/projects/MotionHub</text>
<text text-anchor="start" x="222" y="-453.5" font-family="Helvetica,sans-Serif" font-size="10.00">/src/TrackerManagement</text>
<text text-anchor="middle" x="279.5" y="-442.5" font-family="Helvetica,sans-Serif" font-size="10.00">/xs_udpserver.cpp</text>
</a>
</g>
</g>
<!-- Node1&#45;&gt;Node9 -->
<g id="edge10" class="edge"><title>Node1&#45;&gt;Node9</title>
<path fill="none" stroke="midnightblue" d="M178.008,-508.768C198.433,-498.35 221.986,-486.336 241.259,-476.506"/>
<polygon fill="midnightblue" stroke="midnightblue" points="176.189,-505.766 168.871,-513.428 179.37,-512.002 176.189,-505.766"/>
</g>
<!-- Node3 -->
<g id="node3" class="node"><title>Node3</title>
<g id="a_node3"><a xlink:href="../../d4/d9c/_tracker_manager_8h_source.html" target="_top" xlink:title=" ">
<polygon fill="white" stroke="black" points="18,-279.5 18,-320.5 149,-320.5 149,-279.5 18,-279.5"/>
<text text-anchor="start" x="26" y="-308.5" font-family="Helvetica,sans-Serif" font-size="10.00">C:/dev/projects/MotionHub</text>
<text text-anchor="start" x="26" y="-297.5" font-family="Helvetica,sans-Serif" font-size="10.00">/src/TrackerManagement</text>
<text text-anchor="middle" x="83.5" y="-286.5" font-family="Helvetica,sans-Serif" font-size="10.00">/TrackerManager.h</text>
</a>
</g>
</g>
<!-- Node2&#45;&gt;Node3 -->
<g id="edge2" class="edge"><title>Node2&#45;&gt;Node3</title>
<path fill="none" stroke="midnightblue" d="M83.5,-347.297C83.5,-338.301 83.5,-328.653 83.5,-320.506"/>
<polygon fill="midnightblue" stroke="midnightblue" points="80.0001,-347.428 83.5,-357.428 87.0001,-347.428 80.0001,-347.428"/>
</g>
<!-- Node4 -->
<g id="node4" class="node"><title>Node4</title>
<g id="a_node4"><a xlink:href="../../d6/d0a/_motion_hub_8h_source.html" target="_top" xlink:title=" ">
<polygon fill="white" stroke="black" points="0,-0.5 0,-30.5 165,-30.5 165,-0.5 0,-0.5"/>
<text text-anchor="start" x="8" y="-18.5" font-family="Helvetica,sans-Serif" font-size="10.00">C:/dev/projects/MotionHub</text>
<text text-anchor="middle" x="82.5" y="-7.5" font-family="Helvetica,sans-Serif" font-size="10.00">/src/MireviMotionHub/MotionHub.h</text>
</a>
</g>
</g>
<!-- Node3&#45;&gt;Node4 -->
<g id="edge3" class="edge"><title>Node3&#45;&gt;Node4</title>
<path fill="none" stroke="midnightblue" d="M57.2911,-271.338C50.8674,-262.878 44.8723,-253.117 41.5,-243 16.7624,-168.787 17.1377,-140.651 43.5,-67 48.4277,-53.233 58.6426,-40.2369 67.3821,-30.8768"/>
<polygon fill="midnightblue" stroke="midnightblue" points="54.7574,-273.77 63.7764,-279.33 60.1929,-269.359 54.7574,-273.77"/>
</g>
<!-- Node5 -->
<g id="node5" class="node"><title>Node5</title>
<g id="a_node5"><a xlink:href="../../de/d0c/_create_tracker_window_8h_source.html" target="_top" xlink:title=" ">
<polygon fill="white" stroke="black" points="51,-201.5 51,-242.5 238,-242.5 238,-201.5 51,-201.5"/>
<text text-anchor="start" x="59" y="-230.5" font-family="Helvetica,sans-Serif" font-size="10.00">C:/dev/projects/MotionHub</text>
<text text-anchor="start" x="59" y="-219.5" font-family="Helvetica,sans-Serif" font-size="10.00">/src/RenderManagement/CreateTracker</text>
<text text-anchor="middle" x="144.5" y="-208.5" font-family="Helvetica,sans-Serif" font-size="10.00">Window.h</text>
</a>
</g>
</g>
<!-- Node3&#45;&gt;Node5 -->
<g id="edge4" class="edge"><title>Node3&#45;&gt;Node5</title>
<path fill="none" stroke="midnightblue" d="M105.47,-271.627C113.205,-261.99 121.736,-251.362 128.844,-242.506"/>
<polygon fill="midnightblue" stroke="midnightblue" points="102.739,-269.439 99.209,-279.428 108.198,-273.82 102.739,-269.439"/>
</g>
<!-- Node6 -->
<g id="node6" class="node"><title>Node6</title>
<g id="a_node6"><a xlink:href="../../d2/d97/_main_window_8h_source.html" target="_top" xlink:title=" ">
<polygon fill="white" stroke="black" points="50.5,-134.5 50.5,-164.5 240.5,-164.5 240.5,-134.5 50.5,-134.5"/>
<text text-anchor="start" x="58.5" y="-152.5" font-family="Helvetica,sans-Serif" font-size="10.00">C:/dev/projects/MotionHub</text>
<text text-anchor="middle" x="145.5" y="-141.5" font-family="Helvetica,sans-Serif" font-size="10.00">/src/RenderManagement/MainWindow.h</text>
</a>
</g>
</g>
<!-- Node5&#45;&gt;Node6 -->
<g id="edge5" class="edge"><title>Node5&#45;&gt;Node6</title>
<path fill="none" stroke="midnightblue" d="M144.924,-191.08C145.053,-182.006 145.189,-172.45 145.296,-164.892"/>
<polygon fill="midnightblue" stroke="midnightblue" points="141.421,-191.313 144.779,-201.362 148.42,-191.412 141.421,-191.313"/>
</g>
<!-- Node7 -->
<g id="node7" class="node"><title>Node7</title>
<g id="a_node7"><a xlink:href="../../d7/df2/_u_i_manager_8h_source.html" target="_top" xlink:title=" ">
<polygon fill="white" stroke="black" points="53,-67.5 53,-97.5 234,-97.5 234,-67.5 53,-67.5"/>
<text text-anchor="start" x="61" y="-85.5" font-family="Helvetica,sans-Serif" font-size="10.00">C:/dev/projects/MotionHub</text>
<text text-anchor="middle" x="143.5" y="-74.5" font-family="Helvetica,sans-Serif" font-size="10.00">/src/RenderManagement/UIManager.h</text>
</a>
</g>
</g>
<!-- Node6&#45;&gt;Node7 -->
<g id="edge6" class="edge"><title>Node6&#45;&gt;Node7</title>
<path fill="none" stroke="midnightblue" d="M144.749,-124.108C144.474,-115.154 144.171,-105.323 143.933,-97.5765"/>
<polygon fill="midnightblue" stroke="midnightblue" points="141.26,-124.508 145.066,-134.396 148.257,-124.293 141.26,-124.508"/>
</g>
<!-- Node7&#45;&gt;Node4 -->
<g id="edge7" class="edge"><title>Node7&#45;&gt;Node4</title>
<path fill="none" stroke="midnightblue" d="M123.346,-60.0243C114.257,-50.3398 103.779,-39.1739 95.7103,-30.5765"/>
<polygon fill="midnightblue" stroke="midnightblue" points="120.869,-62.4992 130.264,-67.396 125.973,-57.709 120.869,-62.4992"/>
</g>
<!-- Node8&#45;&gt;Node2 -->
<g id="edge9" class="edge"><title>Node8&#45;&gt;Node2</title>
<path fill="none" stroke="midnightblue" d="M113.034,-426.757C107.219,-417.354 100.875,-407.096 95.5627,-398.506"/>
<polygon fill="midnightblue" stroke="midnightblue" points="110.16,-428.764 118.396,-435.428 116.113,-425.082 110.16,-428.764"/>
</g>
</g>
</svg>
