<?xml version="1.0" encoding="UTF-8" standalone="no"?>
<!DOCTYPE svg PUBLIC "-//W3C//DTD SVG 1.1//EN"
 "http://www.w3.org/Graphics/SVG/1.1/DTD/svg11.dtd">
<!-- Generated by graphviz version 2.38.0 (20140413.2041)
 -->
<!-- Title: CreateTrackerWindow Pages: 1 -->
<svg width="171pt" height="226pt"
 viewBox="0.00 0.00 171.00 226.00" xmlns="http://www.w3.org/2000/svg" xmlns:xlink="http://www.w3.org/1999/xlink">
<g id="graph0" class="graph" transform="scale(1 1) rotate(0) translate(4 222)">
<title>CreateTrackerWindow</title>
<polygon fill="white" stroke="none" points="-4,4 -4,-222 167,-222 167,4 -4,4"/>
<!-- Node1 -->
<g id="node1" class="node"><title>Node1</title>
<g id="a_node1"><a xlink:title="dialog for creating new trackers">
<polygon fill="#bfbfbf" stroke="black" points="0,-0.5 0,-123.5 163,-123.5 163,-0.5 0,-0.5"/>
<text text-anchor="middle" x="81.5" y="-111.5" font-family="Helvetica,sans-Serif" font-size="10.00">CreateTrackerWindow</text>
<polyline fill="none" stroke="black" points="0,-104.5 163,-104.5 "/>
<text text-anchor="start" x="8" y="-92.5" font-family="Helvetica,sans-Serif" font-size="10.00">&#45; ui</text>
<text text-anchor="start" x="8" y="-81.5" font-family="Helvetica,sans-Serif" font-size="10.00">&#45; m_refTrackerManager</text>
<text text-anchor="start" x="8" y="-70.5" font-family="Helvetica,sans-Serif" font-size="10.00">&#45; m_refTreeWidgetTracker</text>
<text text-anchor="start" x="8" y="-59.5" font-family="Helvetica,sans-Serif" font-size="10.00">&#45; m_selectedTrackerIdInDropdown</text>
<polyline fill="none" stroke="black" points="0,-52.5 163,-52.5 "/>
<text text-anchor="start" x="8" y="-40.5" font-family="Helvetica,sans-Serif" font-size="10.00">+ CreateTrackerWindow()</text>
<text text-anchor="start" x="8" y="-29.5" font-family="Helvetica,sans-Serif" font-size="10.00">+ ~CreateTrackerWindow()</text>
<text text-anchor="start" x="8" y="-18.5" font-family="Helvetica,sans-Serif" font-size="10.00">&#45; slotCreateTracker()</text>
<text text-anchor="start" x="8" y="-7.5" font-family="Helvetica,sans-Serif" font-size="10.00">&#45; slotSelectTrackerInDropdown()</text>
</a>
</g>
</g>
<!-- Node2 -->
<g id="node2" class="node"><title>Node2</title>
<g id="a_node2"><a xlink:title=" ">
<polygon fill="white" stroke="#bfbfbf" points="56,-160.5 56,-217.5 107,-217.5 107,-160.5 56,-160.5"/>
<text text-anchor="middle" x="81.5" y="-205.5" font-family="Helvetica,sans-Serif" font-size="10.00">QDialog</text>
<polyline fill="none" stroke="#bfbfbf" points="56,-198.5 107,-198.5 "/>
<text text-anchor="middle" x="81.5" y="-186.5" font-family="Helvetica,sans-Serif" font-size="10.00"> </text>
<polyline fill="none" stroke="#bfbfbf" points="56,-179.5 107,-179.5 "/>
<text text-anchor="middle" x="81.5" y="-167.5" font-family="Helvetica,sans-Serif" font-size="10.00"> </text>
</a>
</g>
</g>
<!-- Node2&#45;&gt;Node1 -->
<g id="edge1" class="edge"><title>Node2&#45;&gt;Node1</title>
<path fill="none" stroke="midnightblue" d="M81.5,-150.099C81.5,-141.739 81.5,-132.68 81.5,-123.672"/>
<polygon fill="none" stroke="midnightblue" points="78.0001,-150.258 81.5,-160.258 85.0001,-150.258 78.0001,-150.258"/>
</g>
</g>
</svg>
