<?xml version="1.0" encoding="UTF-8" standalone="no"?>
<!DOCTYPE svg PUBLIC "-//W3C//DTD SVG 1.1//EN"
 "http://www.w3.org/Graphics/SVG/1.1/DTD/svg11.dtd">
<!-- Generated by graphviz version 2.38.0 (20140413.2041)
 -->
<!-- Title: OVRTracker Pages: 1 -->
<svg width="409pt" height="1008pt"
 viewBox="0.00 0.00 409.00 1008.00" xmlns="http://www.w3.org/2000/svg" xmlns:xlink="http://www.w3.org/1999/xlink">
<g id="graph0" class="graph" transform="scale(1 1) rotate(0) translate(4 1004)">
<title>OVRTracker</title>
<polygon fill="white" stroke="none" points="-4,4 -4,-1004 405,-1004 405,4 -4,4"/>
<!-- Node1 -->
<g id="node1" class="node"><title>Node1</title>
<g id="a_node1"><a xlink:title="Manages TODO: Kommentare.">
<polygon fill="#bfbfbf" stroke="black" points="246.5,-0.5 246.5,-167.5 344.5,-167.5 344.5,-0.5 246.5,-0.5"/>
<text text-anchor="middle" x="295.5" y="-155.5" font-family="Helvetica,sans-Serif" font-size="10.00">OVRTracker</text>
<polyline fill="none" stroke="black" points="246.5,-148.5 344.5,-148.5 "/>
<text text-anchor="middle" x="295.5" y="-136.5" font-family="Helvetica,sans-Serif" font-size="10.00"> </text>
<polyline fill="none" stroke="black" points="246.5,-129.5 344.5,-129.5 "/>
<text text-anchor="start" x="254.5" y="-117.5" font-family="Helvetica,sans-Serif" font-size="10.00">+ OVRTracker()</text>
<text text-anchor="start" x="254.5" y="-106.5" font-family="Helvetica,sans-Serif" font-size="10.00">+ OVRTracker()</text>
<text text-anchor="start" x="254.5" y="-95.5" font-family="Helvetica,sans-Serif" font-size="10.00">+ ~OVRTracker()</text>
<text text-anchor="start" x="254.5" y="-84.5" font-family="Helvetica,sans-Serif" font-size="10.00">+ start()</text>
<text text-anchor="start" x="254.5" y="-73.5" font-family="Helvetica,sans-Serif" font-size="10.00">+ stop()</text>
<text text-anchor="start" x="254.5" y="-62.5" font-family="Helvetica,sans-Serif" font-size="10.00">+ getTrackerType()</text>
<text text-anchor="start" x="254.5" y="-51.5" font-family="Helvetica,sans-Serif" font-size="10.00">&#45; init()</text>
<text text-anchor="start" x="254.5" y="-40.5" font-family="Helvetica,sans-Serif" font-size="10.00">&#45; update()</text>
<text text-anchor="start" x="254.5" y="-29.5" font-family="Helvetica,sans-Serif" font-size="10.00">&#45; track()</text>
<text text-anchor="start" x="254.5" y="-18.5" font-family="Helvetica,sans-Serif" font-size="10.00">&#45; extractSkeleton()</text>
<text text-anchor="start" x="254.5" y="-7.5" font-family="Helvetica,sans-Serif" font-size="10.00">&#45; parseSkeleton()</text>
</a>
</g>
</g>
<!-- Node2 -->
<g id="node2" class="node"><title>Node2</title>
<g id="a_node2"><a xlink:href="../../de/dbb/class_tracker.html" target="_top" xlink:title="Prototype class for implemetation &#45; holds virtual methods.">
<polygon fill="white" stroke="black" points="101.5,-215.5 101.5,-536.5 251.5,-536.5 251.5,-215.5 101.5,-215.5"/>
<text text-anchor="middle" x="176.5" y="-524.5" font-family="Helvetica,sans-Serif" font-size="10.00">Tracker</text>
<polyline fill="none" stroke="black" points="101.5,-517.5 251.5,-517.5 "/>
<text text-anchor="start" x="109.5" y="-505.5" font-family="Helvetica,sans-Serif" font-size="10.00"># m_isTracking</text>
<text text-anchor="start" x="109.5" y="-494.5" font-family="Helvetica,sans-Serif" font-size="10.00"># m_isEnabled</text>
<text text-anchor="start" x="109.5" y="-483.5" font-family="Helvetica,sans-Serif" font-size="10.00"># m_countDetectedSkeleton</text>
<text text-anchor="start" x="109.5" y="-472.5" font-family="Helvetica,sans-Serif" font-size="10.00"># m_offsetMatrix</text>
<text text-anchor="start" x="109.5" y="-461.5" font-family="Helvetica,sans-Serif" font-size="10.00"># m_rotationOffset</text>
<text text-anchor="start" x="109.5" y="-450.5" font-family="Helvetica,sans-Serif" font-size="10.00"># m_isDataAvailable</text>
<text text-anchor="start" x="109.5" y="-439.5" font-family="Helvetica,sans-Serif" font-size="10.00"># m_hasSkeletonPoolChanged</text>
<text text-anchor="start" x="109.5" y="-428.5" font-family="Helvetica,sans-Serif" font-size="10.00"># m_trackingThread</text>
<text text-anchor="start" x="109.5" y="-417.5" font-family="Helvetica,sans-Serif" font-size="10.00"># m_skeletonPool</text>
<text text-anchor="start" x="109.5" y="-406.5" font-family="Helvetica,sans-Serif" font-size="10.00"># m_skeletonPoolCache</text>
<text text-anchor="start" x="109.5" y="-395.5" font-family="Helvetica,sans-Serif" font-size="10.00">and 6 more...</text>
<polyline fill="none" stroke="black" points="101.5,-388.5 251.5,-388.5 "/>
<text text-anchor="start" x="109.5" y="-376.5" font-family="Helvetica,sans-Serif" font-size="10.00">+ Tracker()</text>
<text text-anchor="start" x="109.5" y="-365.5" font-family="Helvetica,sans-Serif" font-size="10.00">+ ~Tracker()</text>
<text text-anchor="start" x="109.5" y="-354.5" font-family="Helvetica,sans-Serif" font-size="10.00">+ start()</text>
<text text-anchor="start" x="109.5" y="-343.5" font-family="Helvetica,sans-Serif" font-size="10.00">+ stop()</text>
<text text-anchor="start" x="109.5" y="-332.5" font-family="Helvetica,sans-Serif" font-size="10.00">+ disable()</text>
<text text-anchor="start" x="109.5" y="-321.5" font-family="Helvetica,sans-Serif" font-size="10.00">+ enable()</text>
<text text-anchor="start" x="109.5" y="-310.5" font-family="Helvetica,sans-Serif" font-size="10.00">+ clean()</text>
<text text-anchor="start" x="109.5" y="-299.5" font-family="Helvetica,sans-Serif" font-size="10.00">+ isTracking()</text>
<text text-anchor="start" x="109.5" y="-288.5" font-family="Helvetica,sans-Serif" font-size="10.00">+ isEnabled()</text>
<text text-anchor="start" x="109.5" y="-277.5" font-family="Helvetica,sans-Serif" font-size="10.00">+ isDataAvailable()</text>
<text text-anchor="start" x="109.5" y="-266.5" font-family="Helvetica,sans-Serif" font-size="10.00">and 23 more...</text>
<text text-anchor="start" x="109.5" y="-255.5" font-family="Helvetica,sans-Serif" font-size="10.00"># getTrackerIdentifier()</text>
<text text-anchor="start" x="109.5" y="-244.5" font-family="Helvetica,sans-Serif" font-size="10.00"># readOffsetFromConfig()</text>
<text text-anchor="start" x="109.5" y="-233.5" font-family="Helvetica,sans-Serif" font-size="10.00"># update()</text>
<text text-anchor="start" x="109.5" y="-222.5" font-family="Helvetica,sans-Serif" font-size="10.00"># track()</text>
</a>
</g>
</g>
<!-- Node2&#45;&gt;Node1 -->
<g id="edge1" class="edge"><title>Node2&#45;&gt;Node1</title>
<path fill="none" stroke="midnightblue" d="M246.023,-205.574C251.399,-192.473 256.662,-179.646 261.631,-167.538"/>
<polygon fill="none" stroke="midnightblue" points="242.65,-204.575 242.092,-215.155 249.126,-207.232 242.65,-204.575"/>
</g>
<!-- Node3 -->
<g id="node3" class="node"><title>Node3</title>
<g id="a_node3"><a xlink:href="../../d4/daf/class_config_manager.html" target="_top" xlink:title=" ">
<polygon fill="white" stroke="black" points="0,-755.5 0,-999.5 119,-999.5 119,-755.5 0,-755.5"/>
<text text-anchor="middle" x="59.5" y="-987.5" font-family="Helvetica,sans-Serif" font-size="10.00">ConfigManager</text>
<polyline fill="none" stroke="black" points="0,-980.5 119,-980.5 "/>
<text text-anchor="start" x="8" y="-968.5" font-family="Helvetica,sans-Serif" font-size="10.00">&#45; m_config</text>
<polyline fill="none" stroke="black" points="0,-961.5 119,-961.5 "/>
<text text-anchor="start" x="8" y="-949.5" font-family="Helvetica,sans-Serif" font-size="10.00">+ readString()</text>
<text text-anchor="start" x="8" y="-938.5" font-family="Helvetica,sans-Serif" font-size="10.00">+ readBool()</text>
<text text-anchor="start" x="8" y="-927.5" font-family="Helvetica,sans-Serif" font-size="10.00">+ readInt()</text>
<text text-anchor="start" x="8" y="-916.5" font-family="Helvetica,sans-Serif" font-size="10.00">+ readFloat()</text>
<text text-anchor="start" x="8" y="-905.5" font-family="Helvetica,sans-Serif" font-size="10.00">+ readVec3f()</text>
<text text-anchor="start" x="8" y="-894.5" font-family="Helvetica,sans-Serif" font-size="10.00">+ readVec4f()</text>
<text text-anchor="start" x="8" y="-883.5" font-family="Helvetica,sans-Serif" font-size="10.00">+ writeString()</text>
<text text-anchor="start" x="8" y="-872.5" font-family="Helvetica,sans-Serif" font-size="10.00">+ writeBool()</text>
<text text-anchor="start" x="8" y="-861.5" font-family="Helvetica,sans-Serif" font-size="10.00">+ writeInt()</text>
<text text-anchor="start" x="8" y="-850.5" font-family="Helvetica,sans-Serif" font-size="10.00">+ writeFloat()</text>
<text text-anchor="start" x="8" y="-839.5" font-family="Helvetica,sans-Serif" font-size="10.00">+ writeVec3f()</text>
<text text-anchor="start" x="8" y="-828.5" font-family="Helvetica,sans-Serif" font-size="10.00">+ writeVec4f()</text>
<text text-anchor="start" x="8" y="-817.5" font-family="Helvetica,sans-Serif" font-size="10.00">+ write()</text>
<text text-anchor="start" x="8" y="-806.5" font-family="Helvetica,sans-Serif" font-size="10.00">&#45; isLoaded()</text>
<text text-anchor="start" x="8" y="-795.5" font-family="Helvetica,sans-Serif" font-size="10.00">&#45; loadConfig()</text>
<text text-anchor="start" x="8" y="-784.5" font-family="Helvetica,sans-Serif" font-size="10.00">&#45; saveConfig()</text>
<text text-anchor="start" x="8" y="-773.5" font-family="Helvetica,sans-Serif" font-size="10.00">&#45; findElement()</text>
<text text-anchor="start" x="8" y="-762.5" font-family="Helvetica,sans-Serif" font-size="10.00">&#45; findOrCreateElement()</text>
</a>
</g>
</g>
<!-- Node3&#45;&gt;Node2 -->
<g id="edge2" class="edge"><title>Node3&#45;&gt;Node2</title>
<path fill="none" stroke="#404040" d="M17.8809,-755.33C5.7075,-701.755 0.0266269,-638.65 18.5,-584 33.9165,-538.394 63.8447,-494.913 93.5449,-459.68"/>
<polygon fill="none" stroke="#404040" points="93.6684,-459.536 94.5465,-452.379 101.491,-450.437 100.613,-457.594 93.6684,-459.536"/>
<text text-anchor="middle" x="61" y="-643.5" font-family="Helvetica,sans-Serif" font-size="10.00"> #m_configManager</text>
</g>
<!-- Node4 -->
<g id="node4" class="node"><title>Node4</title>
<g id="a_node4"><a xlink:href="../../da/d21/class_network_manager.html" target="_top" xlink:title="Manager for different Network Sender and skeleton sending.">
<polygon fill="white" stroke="black" points="112.5,-584.5 112.5,-707.5 240.5,-707.5 240.5,-584.5 112.5,-584.5"/>
<text text-anchor="middle" x="176.5" y="-695.5" font-family="Helvetica,sans-Serif" font-size="10.00">NetworkManager</text>
<polyline fill="none" stroke="black" points="112.5,-688.5 240.5,-688.5 "/>
<text text-anchor="start" x="120.5" y="-676.5" font-family="Helvetica,sans-Serif" font-size="10.00">+ m_ipAddress</text>
<text text-anchor="start" x="120.5" y="-665.5" font-family="Helvetica,sans-Serif" font-size="10.00">&#45; m_poolSender</text>
<polyline fill="none" stroke="black" points="112.5,-658.5 240.5,-658.5 "/>
<text text-anchor="start" x="120.5" y="-646.5" font-family="Helvetica,sans-Serif" font-size="10.00">+ NetworkManager()</text>
<text text-anchor="start" x="120.5" y="-635.5" font-family="Helvetica,sans-Serif" font-size="10.00">+ sendSkeletonPool()</text>
<text text-anchor="start" x="120.5" y="-624.5" font-family="Helvetica,sans-Serif" font-size="10.00">+ createOSCSender()</text>
<text text-anchor="start" x="120.5" y="-613.5" font-family="Helvetica,sans-Serif" font-size="10.00">+ removeNetworkSender()</text>
<text text-anchor="start" x="120.5" y="-602.5" font-family="Helvetica,sans-Serif" font-size="10.00">+ setIPAddress()</text>
<text text-anchor="start" x="120.5" y="-591.5" font-family="Helvetica,sans-Serif" font-size="10.00">+ isValidIPAddress()</text>
</a>
</g>
</g>
<!-- Node3&#45;&gt;Node4 -->
<g id="edge4" class="edge"><title>Node3&#45;&gt;Node4</title>
<path fill="none" stroke="#404040" d="M119.028,-759.733C126.217,-745.632 133.385,-731.572 140.098,-718.404"/>
<polygon fill="none" stroke="#404040" points="140.17,-718.263 139.332,-711.1 145.62,-707.572 146.459,-714.734 140.17,-718.263"/>
<text text-anchor="middle" x="177" y="-729" font-family="Helvetica,sans-Serif" font-size="10.00"> &#45;m_configManager</text>
</g>
<!-- Node4&#45;&gt;Node2 -->
<g id="edge3" class="edge"><title>Node4&#45;&gt;Node2</title>
<path fill="none" stroke="#404040" d="M176.5,-584.187C176.5,-573.127 176.5,-561.108 176.5,-548.614"/>
<polygon fill="none" stroke="#404040" points="176.5,-548.506 172.5,-542.506 176.5,-536.506 180.5,-542.506 176.5,-548.506"/>
<text text-anchor="middle" x="223.5" y="-558" font-family="Helvetica,sans-Serif" font-size="10.00"> #m_networkManager</text>
</g>
<!-- Node5 -->
<g id="node5" class="node"><title>Node5</title>
<g id="a_node5"><a xlink:href="../../d4/d92/struct_tracker_1_1_properties.html" target="_top" xlink:title=" ">
<polygon fill="white" stroke="black" points="259,-590 259,-702 370,-702 370,-590 259,-590"/>
<text text-anchor="middle" x="314.5" y="-690" font-family="Helvetica,sans-Serif" font-size="10.00">Tracker::Properties</text>
<polyline fill="none" stroke="black" points="259,-683 370,-683 "/>
<text text-anchor="start" x="267" y="-671" font-family="Helvetica,sans-Serif" font-size="10.00">+ id</text>
<text text-anchor="start" x="267" y="-660" font-family="Helvetica,sans-Serif" font-size="10.00">+ name</text>
<text text-anchor="start" x="267" y="-649" font-family="Helvetica,sans-Serif" font-size="10.00">+ positionOffset</text>
<text text-anchor="start" x="267" y="-638" font-family="Helvetica,sans-Serif" font-size="10.00">+ rotationOffset</text>
<text text-anchor="start" x="267" y="-627" font-family="Helvetica,sans-Serif" font-size="10.00">+ scaleOffset</text>
<text text-anchor="start" x="267" y="-616" font-family="Helvetica,sans-Serif" font-size="10.00">+ additionalProperties</text>
<polyline fill="none" stroke="black" points="259,-609 370,-609 "/>
<text text-anchor="start" x="267" y="-597" font-family="Helvetica,sans-Serif" font-size="10.00">+ ~Properties()</text>
</a>
</g>
</g>
<!-- Node5&#45;&gt;Node2 -->
<g id="edge5" class="edge"><title>Node5&#45;&gt;Node2</title>
<path fill="none" stroke="#404040" d="M292.453,-589.672C287.086,-577.955 281.001,-565.855 274.5,-555 269.292,-546.305 265.988,-545.52 260.5,-537 259.664,-535.702 258.829,-534.394 257.995,-533.079"/>
<polygon fill="none" stroke="#404040" points="257.967,-533.034 251.403,-530.048 251.634,-522.841 258.198,-525.826 257.967,-533.034"/>
<text text-anchor="middle" x="313" y="-558" font-family="Helvetica,sans-Serif" font-size="10.00"> #m_properties</text>
</g>
<!-- Node6 -->
<g id="node6" class="node"><title>Node6</title>
<g id="a_node6"><a xlink:href="../../da/d29/class_open_v_r_tracking.html" target="_top" xlink:title=" ">
<polygon fill="white" stroke="black" points="270,-237.5 270,-514.5 401,-514.5 401,-237.5 270,-237.5"/>
<text text-anchor="middle" x="335.5" y="-502.5" font-family="Helvetica,sans-Serif" font-size="10.00">OpenVRTracking</text>
<polyline fill="none" stroke="black" points="270,-495.5 401,-495.5 "/>
<text text-anchor="start" x="278" y="-483.5" font-family="Helvetica,sans-Serif" font-size="10.00">+ Valid</text>
<text text-anchor="start" x="278" y="-472.5" font-family="Helvetica,sans-Serif" font-size="10.00">+ Devices</text>
<text text-anchor="start" x="278" y="-461.5" font-family="Helvetica,sans-Serif" font-size="10.00">+ Poses</text>
<text text-anchor="start" x="278" y="-450.5" font-family="Helvetica,sans-Serif" font-size="10.00">&#45; trackedPoseCount</text>
<text text-anchor="start" x="278" y="-439.5" font-family="Helvetica,sans-Serif" font-size="10.00">&#45; predictSecondsFromNow</text>
<text text-anchor="start" x="278" y="-428.5" font-family="Helvetica,sans-Serif" font-size="10.00">&#45; pVRSystem</text>
<text text-anchor="start" x="278" y="-417.5" font-family="Helvetica,sans-Serif" font-size="10.00">&#45; devicePoses</text>
<text text-anchor="start" x="278" y="-406.5" font-family="Helvetica,sans-Serif" font-size="10.00">&#45; userIndexToJoint</text>
<polyline fill="none" stroke="black" points="270,-399.5 401,-399.5 "/>
<text text-anchor="start" x="278" y="-387.5" font-family="Helvetica,sans-Serif" font-size="10.00">+ OpenVRTracking()</text>
<text text-anchor="start" x="278" y="-376.5" font-family="Helvetica,sans-Serif" font-size="10.00">+ ~OpenVRTracking()</text>
<text text-anchor="start" x="278" y="-365.5" font-family="Helvetica,sans-Serif" font-size="10.00">+ init()</text>
<text text-anchor="start" x="278" y="-354.5" font-family="Helvetica,sans-Serif" font-size="10.00">+ start()</text>
<text text-anchor="start" x="278" y="-343.5" font-family="Helvetica,sans-Serif" font-size="10.00">+ LoadDevices()</text>
<text text-anchor="start" x="278" y="-332.5" font-family="Helvetica,sans-Serif" font-size="10.00">+ GetDevice()</text>
<text text-anchor="start" x="278" y="-321.5" font-family="Helvetica,sans-Serif" font-size="10.00">+ ReceiveDevicePoses()</text>
<text text-anchor="start" x="278" y="-310.5" font-family="Helvetica,sans-Serif" font-size="10.00">+ IsDeviceConnected()</text>
<text text-anchor="start" x="278" y="-299.5" font-family="Helvetica,sans-Serif" font-size="10.00">+ SetPredictionTime()</text>
<text text-anchor="start" x="278" y="-288.5" font-family="Helvetica,sans-Serif" font-size="10.00">+ PollEvents()</text>
<text text-anchor="start" x="278" y="-277.5" font-family="Helvetica,sans-Serif" font-size="10.00">+ GetDeviceClassType()</text>
<text text-anchor="start" x="278" y="-266.5" font-family="Helvetica,sans-Serif" font-size="10.00">&#45; tryAddDevice()</text>
<text text-anchor="start" x="278" y="-255.5" font-family="Helvetica,sans-Serif" font-size="10.00">&#45; updateDeviceRoles()</text>
<text text-anchor="start" x="278" y="-244.5" font-family="Helvetica,sans-Serif" font-size="10.00">&#45; GetConnectedDevices()</text>
</a>
</g>
</g>
<!-- Node6&#45;&gt;Node1 -->
<g id="edge6" class="edge"><title>Node6&#45;&gt;Node1</title>
<path fill="none" stroke="#404040" d="M316.496,-237.219C313.8,-217.678 311.081,-197.962 308.534,-179.495"/>
<polygon fill="none" stroke="#404040" points="308.527,-179.442 303.744,-174.045 306.887,-167.554 311.669,-172.952 308.527,-179.442"/>
<text text-anchor="middle" x="349" y="-189" font-family="Helvetica,sans-Serif" font-size="10.00"> &#45;trackingSystem</text>
</g>
</g>
</svg>
