<?xml version="1.0" encoding="UTF-8" standalone="no"?>
<!DOCTYPE svg PUBLIC "-//W3C//DTD SVG 1.1//EN"
 "http://www.w3.org/Graphics/SVG/1.1/DTD/svg11.dtd">
<!-- Generated by graphviz version 2.38.0 (20140413.2041)
 -->
<!-- Title: C:/dev/projects/MotionHub/src/TrackerManagement/xs_parsermanager.h Pages: 1 -->
<!--zoomable 641 -->
<svg id="main" version="1.1" xmlns="http://www.w3.org/2000/svg" xmlns:xlink="http://www.w3.org/1999/xlink" xml:space="preserve" onload="init(evt)">
<style type="text/css"><![CDATA[
.edge:hover path { stroke: red; }
.edge:hover polygon { stroke: red; fill: red; }
]]></style>
<script type="text/javascript"><![CDATA[
var edges = document.getElementsByTagName('g');
if (edges && edges.length) {
  for (var i=0;i<edges.length;i++) {
    if (edges[i].id.substr(0,4)=='edge') {
      edges[i].setAttribute('class','edge');
    }
  }
}
]]></script>
        <defs>
                <circle id="rim" cx="0" cy="0" r="7"/>
                <circle id="rim2" cx="0" cy="0" r="3.5"/>
                <g id="zoomPlus">
                        <use xlink:href="#rim" fill="#404040">
                                <set attributeName="fill" to="#808080" begin="zoomplus.mouseover" end="zoomplus.mouseout"/>
                        </use>
                        <path d="M-4,0h8M0,-4v8" fill="none" stroke="white" stroke-width="1.5" pointer-events="none"/>
                </g>
                <g id="zoomMin">
                        <use xlink:href="#rim" fill="#404040">
                                <set attributeName="fill" to="#808080" begin="zoomminus.mouseover" end="zoomminus.mouseout"/>
                        </use>
                        <path d="M-4,0h8" fill="none" stroke="white" stroke-width="1.5" pointer-events="none"/>
                </g>
                <g id="dirArrow">
                        <path fill="none" stroke="white" stroke-width="1.5" d="M0,-3.0v7 M-2.5,-0.5L0,-3.0L2.5,-0.5"/>
                </g>
               <g id="resetDef">
                       <use xlink:href="#rim2" fill="#404040">
                               <set attributeName="fill" to="#808080" begin="reset.mouseover" end="reset.mouseout"/>
                       </use>
               </g>
        </defs>

<script type="text/javascript">
var viewWidth = 353;
var viewHeight = 641;
var sectionId = 'dynsection-1';
</script>
<script xlink:href="../../svgpan.js"/>
<svg id="graph" class="graph">
<g id="viewport">
<title>C:/dev/projects/MotionHub/src/TrackerManagement/xs_parsermanager.h</title>
<polygon fill="white" stroke="none" points="-4,4 -4,-637 349,-637 349,4 -4,4"/>
<!-- Node1 -->
<g id="node1" class="node"><title>Node1</title>
<g id="a_node1"><a xlink:title=" ">
<polygon fill="#bfbfbf" stroke="black" points="139,-591.5 139,-632.5 270,-632.5 270,-591.5 139,-591.5"/>
<text text-anchor="start" x="147" y="-620.5" font-family="Helvetica,sans-Serif" font-size="10.00">C:/dev/projects/MotionHub</text>
<text text-anchor="start" x="147" y="-609.5" font-family="Helvetica,sans-Serif" font-size="10.00">/src/TrackerManagement</text>
<text text-anchor="middle" x="204.5" y="-598.5" font-family="Helvetica,sans-Serif" font-size="10.00">/xs_parsermanager.h</text>
</a>
</g>
</g>
<!-- Node2 -->
<g id="node2" class="node"><title>Node2</title>
<g id="a_node2"><a xlink:href="../../d9/d51/xs__udpserver_8h.html" target="_top" xlink:title=" ">
<polygon fill="white" stroke="black" points="65,-513.5 65,-554.5 196,-554.5 196,-513.5 65,-513.5"/>
<text text-anchor="start" x="73" y="-542.5" font-family="Helvetica,sans-Serif" font-size="10.00">C:/dev/projects/MotionHub</text>
<text text-anchor="start" x="73" y="-531.5" font-family="Helvetica,sans-Serif" font-size="10.00">/src/TrackerManagement</text>
<text text-anchor="middle" x="130.5" y="-520.5" font-family="Helvetica,sans-Serif" font-size="10.00">/xs_udpserver.h</text>
</a>
</g>
</g>
<!-- Node1&#45;&gt;Node2 -->
<g id="edge1" class="edge"><title>Node1&#45;&gt;Node2</title>
<path fill="none" stroke="midnightblue" d="M178.409,-584.204C168.879,-574.416 158.288,-563.539 149.492,-554.506"/>
<polygon fill="midnightblue" stroke="midnightblue" points="175.959,-586.705 185.443,-591.428 180.975,-581.822 175.959,-586.705"/>
</g>
<!-- Node11 -->
<g id="node11" class="node"><title>Node11</title>
<g id="a_node11"><a xlink:href="../../dc/d93/xs__parsermanager_8cpp.html" target="_top" xlink:title=" ">
<polygon fill="white" stroke="black" points="214,-513.5 214,-554.5 345,-554.5 345,-513.5 214,-513.5"/>
<text text-anchor="start" x="222" y="-542.5" font-family="Helvetica,sans-Serif" font-size="10.00">C:/dev/projects/MotionHub</text>
<text text-anchor="start" x="222" y="-531.5" font-family="Helvetica,sans-Serif" font-size="10.00">/src/TrackerManagement</text>
<text text-anchor="middle" x="279.5" y="-520.5" font-family="Helvetica,sans-Serif" font-size="10.00">/xs_parsermanager.cpp</text>
</a>
</g>
</g>
<!-- Node1&#45;&gt;Node11 -->
<g id="edge12" class="edge"><title>Node1&#45;&gt;Node11</title>
<path fill="none" stroke="midnightblue" d="M230.943,-584.204C240.603,-574.416 251.337,-563.539 260.251,-554.506"/>
<polygon fill="midnightblue" stroke="midnightblue" points="228.347,-581.852 223.814,-591.428 233.33,-586.769 228.347,-581.852"/>
</g>
<!-- Node3 -->
<g id="node3" class="node"><title>Node3</title>
<g id="a_node3"><a xlink:href="../../d0/d47/_x_s_tracker_8h_source.html" target="_top" xlink:title=" ">
<polygon fill="white" stroke="black" points="18,-357.5 18,-398.5 149,-398.5 149,-357.5 18,-357.5"/>
<text text-anchor="start" x="26" y="-386.5" font-family="Helvetica,sans-Serif" font-size="10.00">C:/dev/projects/MotionHub</text>
<text text-anchor="start" x="26" y="-375.5" font-family="Helvetica,sans-Serif" font-size="10.00">/src/TrackerManagement</text>
<text text-anchor="middle" x="83.5" y="-364.5" font-family="Helvetica,sans-Serif" font-size="10.00">/XSTracker.h</text>
</a>
</g>
</g>
<!-- Node2&#45;&gt;Node3 -->
<g id="edge2" class="edge"><title>Node2&#45;&gt;Node3</title>
<path fill="none" stroke="midnightblue" d="M82.5824,-507.56C71.7159,-499.346 61.5936,-489.155 55.5,-477 42.653,-451.375 57.2782,-418.937 69.7506,-398.571"/>
<polygon fill="midnightblue" stroke="midnightblue" points="80.7867,-510.575 90.9828,-513.455 84.8077,-504.845 80.7867,-510.575"/>
</g>
<!-- Node9 -->
<g id="node9" class="node"><title>Node9</title>
<g id="a_node9"><a xlink:href="../../d7/db5/_x_s_bvh_writer_8h_source.html" target="_top" xlink:title=" ">
<polygon fill="white" stroke="black" points="65,-435.5 65,-476.5 196,-476.5 196,-435.5 65,-435.5"/>
<text text-anchor="start" x="73" y="-464.5" font-family="Helvetica,sans-Serif" font-size="10.00">C:/dev/projects/MotionHub</text>
<text text-anchor="start" x="73" y="-453.5" font-family="Helvetica,sans-Serif" font-size="10.00">/src/TrackerManagement</text>
<text text-anchor="middle" x="130.5" y="-442.5" font-family="Helvetica,sans-Serif" font-size="10.00">/XSBvhWriter.h</text>
</a>
</g>
</g>
<!-- Node2&#45;&gt;Node9 -->
<g id="edge9" class="edge"><title>Node2&#45;&gt;Node9</title>
<path fill="none" stroke="midnightblue" d="M130.5,-503.297C130.5,-494.301 130.5,-484.653 130.5,-476.506"/>
<polygon fill="midnightblue" stroke="midnightblue" points="127,-503.428 130.5,-513.428 134,-503.428 127,-503.428"/>
</g>
<!-- Node10 -->
<g id="node10" class="node"><title>Node10</title>
<g id="a_node10"><a xlink:href="../../db/d56/xs__udpserver_8cpp.html" target="_top" xlink:title=" ">
<polygon fill="white" stroke="black" points="214,-435.5 214,-476.5 345,-476.5 345,-435.5 214,-435.5"/>
<text text-anchor="start" x="222" y="-464.5" font-family="Helvetica,sans-Serif" font-size="10.00">C:/dev/projects/MotionHub</text>
<text text-anchor="start" x="222" y="-453.5" font-family="Helvetica,sans-Serif" font-size="10.00">/src/TrackerManagement</text>
<text text-anchor="middle" x="279.5" y="-442.5" font-family="Helvetica,sans-Serif" font-size="10.00">/xs_udpserver.cpp</text>
</a>
</g>
</g>
<!-- Node2&#45;&gt;Node10 -->
<g id="edge11" class="edge"><title>Node2&#45;&gt;Node10</title>
<path fill="none" stroke="midnightblue" d="M178.008,-508.768C198.433,-498.35 221.986,-486.336 241.259,-476.506"/>
<polygon fill="midnightblue" stroke="midnightblue" points="176.189,-505.766 168.871,-513.428 179.37,-512.002 176.189,-505.766"/>
</g>
<!-- Node4 -->
<g id="node4" class="node"><title>Node4</title>
<g id="a_node4"><a xlink:href="../../d4/d9c/_tracker_manager_8h_source.html" target="_top" xlink:title=" ">
<polygon fill="white" stroke="black" points="18,-279.5 18,-320.5 149,-320.5 149,-279.5 18,-279.5"/>
<text text-anchor="start" x="26" y="-308.5" font-family="Helvetica,sans-Serif" font-size="10.00">C:/dev/projects/MotionHub</text>
<text text-anchor="start" x="26" y="-297.5" font-family="Helvetica,sans-Serif" font-size="10.00">/src/TrackerManagement</text>
<text text-anchor="middle" x="83.5" y="-286.5" font-family="Helvetica,sans-Serif" font-size="10.00">/TrackerManager.h</text>
</a>
</g>
</g>
<!-- Node3&#45;&gt;Node4 -->
<g id="edge3" class="edge"><title>Node3&#45;&gt;Node4</title>
<path fill="none" stroke="midnightblue" d="M83.5,-347.297C83.5,-338.301 83.5,-328.653 83.5,-320.506"/>
<polygon fill="midnightblue" stroke="midnightblue" points="80.0001,-347.428 83.5,-357.428 87.0001,-347.428 80.0001,-347.428"/>
</g>
<!-- Node5 -->
<g id="node5" class="node"><title>Node5</title>
<g id="a_node5"><a xlink:href="../../d6/d0a/_motion_hub_8h_source.html" target="_top" xlink:title=" ">
<polygon fill="white" stroke="black" points="0,-0.5 0,-30.5 165,-30.5 165,-0.5 0,-0.5"/>
<text text-anchor="start" x="8" y="-18.5" font-family="Helvetica,sans-Serif" font-size="10.00">C:/dev/projects/MotionHub</text>
<text text-anchor="middle" x="82.5" y="-7.5" font-family="Helvetica,sans-Serif" font-size="10.00">/src/MireviMotionHub/MotionHub.h</text>
</a>
</g>
</g>
<!-- Node4&#45;&gt;Node5 -->
<g id="edge4" class="edge"><title>Node4&#45;&gt;Node5</title>
<path fill="none" stroke="midnightblue" d="M57.2911,-271.338C50.8674,-262.878 44.8723,-253.117 41.5,-243 16.7624,-168.787 17.1377,-140.651 43.5,-67 48.4277,-53.233 58.6426,-40.2369 67.3821,-30.8768"/>
<polygon fill="midnightblue" stroke="midnightblue" points="54.7574,-273.77 63.7764,-279.33 60.1929,-269.359 54.7574,-273.77"/>
</g>
<!-- Node6 -->
<g id="node6" class="node"><title>Node6</title>
<g id="a_node6"><a xlink:href="../../de/d0c/_create_tracker_window_8h_source.html" target="_top" xlink:title=" ">
<polygon fill="white" stroke="black" points="51,-201.5 51,-242.5 238,-242.5 238,-201.5 51,-201.5"/>
<text text-anchor="start" x="59" y="-230.5" font-family="Helvetica,sans-Serif" font-size="10.00">C:/dev/projects/MotionHub</text>
<text text-anchor="start" x="59" y="-219.5" font-family="Helvetica,sans-Serif" font-size="10.00">/src/RenderManagement/CreateTracker</text>
<text text-anchor="middle" x="144.5" y="-208.5" font-family="Helvetica,sans-Serif" font-size="10.00">Window.h</text>
</a>
</g>
</g>
<!-- Node4&#45;&gt;Node6 -->
<g id="edge5" class="edge"><title>Node4&#45;&gt;Node6</title>
<path fill="none" stroke="midnightblue" d="M105.47,-271.627C113.205,-261.99 121.736,-251.362 128.844,-242.506"/>
<polygon fill="midnightblue" stroke="midnightblue" points="102.739,-269.439 99.209,-279.428 108.198,-273.82 102.739,-269.439"/>
</g>
<!-- Node7 -->
<g id="node7" class="node"><title>Node7</title>
<g id="a_node7"><a xlink:href="../../d2/d97/_main_window_8h_source.html" target="_top" xlink:title=" ">
<polygon fill="white" stroke="black" points="50.5,-134.5 50.5,-164.5 240.5,-164.5 240.5,-134.5 50.5,-134.5"/>
<text text-anchor="start" x="58.5" y="-152.5" font-family="Helvetica,sans-Serif" font-size="10.00">C:/dev/projects/MotionHub</text>
<text text-anchor="middle" x="145.5" y="-141.5" font-family="Helvetica,sans-Serif" font-size="10.00">/src/RenderManagement/MainWindow.h</text>
</a>
</g>
</g>
<!-- Node6&#45;&gt;Node7 -->
<g id="edge6" class="edge"><title>Node6&#45;&gt;Node7</title>
<path fill="none" stroke="midnightblue" d="M144.924,-191.08C145.053,-182.006 145.189,-172.45 145.296,-164.892"/>
<polygon fill="midnightblue" stroke="midnightblue" points="141.421,-191.313 144.779,-201.362 148.42,-191.412 141.421,-191.313"/>
</g>
<!-- Node8 -->
<g id="node8" class="node"><title>Node8</title>
<g id="a_node8"><a xlink:href="../../d7/df2/_u_i_manager_8h_source.html" target="_top" xlink:title=" ">
<polygon fill="white" stroke="black" points="53,-67.5 53,-97.5 234,-97.5 234,-67.5 53,-67.5"/>
<text text-anchor="start" x="61" y="-85.5" font-family="Helvetica,sans-Serif" font-size="10.00">C:/dev/projects/MotionHub</text>
<text text-anchor="middle" x="143.5" y="-74.5" font-family="Helvetica,sans-Serif" font-size="10.00">/src/RenderManagement/UIManager.h</text>
</a>
</g>
</g>
<!-- Node7&#45;&gt;Node8 -->
<g id="edge7" class="edge"><title>Node7&#45;&gt;Node8</title>
<path fill="none" stroke="midnightblue" d="M144.749,-124.108C144.474,-115.154 144.171,-105.323 143.933,-97.5765"/>
<polygon fill="midnightblue" stroke="midnightblue" points="141.26,-124.508 145.066,-134.396 148.257,-124.293 141.26,-124.508"/>
</g>
<!-- Node8&#45;&gt;Node5 -->
<g id="edge8" class="edge"><title>Node8&#45;&gt;Node5</title>
<path fill="none" stroke="midnightblue" d="M123.346,-60.0243C114.257,-50.3398 103.779,-39.1739 95.7103,-30.5765"/>
<polygon fill="midnightblue" stroke="midnightblue" points="120.869,-62.4992 130.264,-67.396 125.973,-57.709 120.869,-62.4992"/>
</g>
<!-- Node9&#45;&gt;Node3 -->
<g id="edge10" class="edge"><title>Node9&#45;&gt;Node3</title>
<path fill="none" stroke="midnightblue" d="M113.034,-426.757C107.219,-417.354 100.875,-407.096 95.5627,-398.506"/>
<polygon fill="midnightblue" stroke="midnightblue" points="110.16,-428.764 118.396,-435.428 116.113,-425.082 110.16,-428.764"/>
</g>
</g>
</svg>
        <g id="navigator" transform="translate(0 0)" fill="#404254">
                <rect fill="#f2f5e9" fill-opacity="0.5" stroke="#606060" stroke-width=".5" x="0" y="0" width="60" height="60"/>
                <use id="zoomplus" xlink:href="#zoomPlus" x="17" y="9" onmousedown="handleZoom(evt,'in')"/>
                <use id="zoomminus" xlink:href="#zoomMin" x="42" y="9" onmousedown="handleZoom(evt,'out')"/>
                <use id="reset" xlink:href="#resetDef" x="30" y="36" onmousedown="handleReset()"/>
                <g id="arrowUp" xlink:href="#dirArrow" transform="translate(30 24)" onmousedown="handlePan(0,-1)">
                  <use xlink:href="#rim" fill="#404040">
                        <set attributeName="fill" to="#808080" begin="arrowUp.mouseover" end="arrowUp.mouseout"/>
                  </use>
                  <path fill="none" stroke="white" stroke-width="1.5" d="M0,-3.0v7 M-2.5,-0.5L0,-3.0L2.5,-0.5"/>
                </g>
                <g id="arrowRight" xlink:href="#dirArrow" transform="rotate(90) translate(36 -43)" onmousedown="handlePan(1,0)">
                  <use xlink:href="#rim" fill="#404040">
                        <set attributeName="fill" to="#808080" begin="arrowRight.mouseover" end="arrowRight.mouseout"/>
                  </use>
                  <path fill="none" stroke="white" stroke-width="1.5" d="M0,-3.0v7 M-2.5,-0.5L0,-3.0L2.5,-0.5"/>
                </g>
                <g id="arrowDown" xlink:href="#dirArrow" transform="rotate(180) translate(-30 -48)" onmousedown="handlePan(0,1)">
                  <use xlink:href="#rim" fill="#404040">
                        <set attributeName="fill" to="#808080" begin="arrowDown.mouseover" end="arrowDown.mouseout"/>
                  </use>
                  <path fill="none" stroke="white" stroke-width="1.5" d="M0,-3.0v7 M-2.5,-0.5L0,-3.0L2.5,-0.5"/>
                </g>
                <g id="arrowLeft" xlink:href="#dirArrow" transform="rotate(270) translate(-36 17)" onmousedown="handlePan(-1,0)">
                  <use xlink:href="#rim" fill="#404040">
                        <set attributeName="fill" to="#808080" begin="arrowLeft.mouseover" end="arrowLeft.mouseout"/>
                  </use>
                  <path fill="none" stroke="white" stroke-width="1.5" d="M0,-3.0v7 M-2.5,-0.5L0,-3.0L2.5,-0.5"/>
                </g>
        </g>
        <svg viewBox="0 0 15 15" width="100%" height="30px" preserveAspectRatio="xMaxYMin meet">
         <g id="arrow_out" transform="scale(0.3 0.3)">
          <a xlink:href="xs__parsermanager_8h__dep__incl_org.svg" target="_base">
           <rect id="button" ry="5" rx="5" y="6" x="6" height="38" width="38"
                fill="#f2f5e9" fill-opacity="0.5" stroke="#606060" stroke-width="1.0"/>
           <path id="arrow"
             d="M 11.500037,31.436501 C 11.940474,20.09759 22.043105,11.32322 32.158766,21.979434 L 37.068811,17.246167 C 37.068811,17.246167 37.088388,32 37.088388,32 L 22.160133,31.978069 C 22.160133,31.978069 26.997745,27.140456 26.997745,27.140456 C 18.528582,18.264221 13.291696,25.230495 11.500037,31.436501 z"
             style="fill:#404040;"/>
          </a>
         </g>
        </svg>
</svg>
