<?xml version="1.0" encoding="UTF-8" standalone="no"?>
<!DOCTYPE svg PUBLIC "-//W3C//DTD SVG 1.1//EN"
 "http://www.w3.org/Graphics/SVG/1.1/DTD/svg11.dtd">
<!-- Generated by graphviz version 2.38.0 (20140413.2041)
 -->
<!-- Title: TrackerModWindow Pages: 1 -->
<svg width="131pt" height="171pt"
 viewBox="0.00 0.00 131.00 171.00" xmlns="http://www.w3.org/2000/svg" xmlns:xlink="http://www.w3.org/1999/xlink">
<g id="graph0" class="graph" transform="scale(1 1) rotate(0) translate(4 167)">
<title>TrackerModWindow</title>
<polygon fill="white" stroke="none" points="-4,4 -4,-167 127,-167 127,4 -4,4"/>
<!-- Node1 -->
<g id="node1" class="node"><title>Node1</title>
<g id="a_node1"><a xlink:title=" ">
<polygon fill="#bfbfbf" stroke="black" points="0,-0.5 0,-68.5 123,-68.5 123,-0.5 0,-0.5"/>
<text text-anchor="middle" x="61.5" y="-56.5" font-family="Helvetica,sans-Serif" font-size="10.00">TrackerModWindow</text>
<polyline fill="none" stroke="black" points="0,-49.5 123,-49.5 "/>
<text text-anchor="start" x="8" y="-37.5" font-family="Helvetica,sans-Serif" font-size="10.00">&#45; ui</text>
<polyline fill="none" stroke="black" points="0,-30.5 123,-30.5 "/>
<text text-anchor="start" x="8" y="-18.5" font-family="Helvetica,sans-Serif" font-size="10.00">+ TrackerModWindow()</text>
<text text-anchor="start" x="8" y="-7.5" font-family="Helvetica,sans-Serif" font-size="10.00">+ ~TrackerModWindow()</text>
</a>
</g>
</g>
<!-- Node2 -->
<g id="node2" class="node"><title>Node2</title>
<g id="a_node2"><a xlink:title=" ">
<polygon fill="white" stroke="#bfbfbf" points="36,-105.5 36,-162.5 87,-162.5 87,-105.5 36,-105.5"/>
<text text-anchor="middle" x="61.5" y="-150.5" font-family="Helvetica,sans-Serif" font-size="10.00">QDialog</text>
<polyline fill="none" stroke="#bfbfbf" points="36,-143.5 87,-143.5 "/>
<text text-anchor="middle" x="61.5" y="-131.5" font-family="Helvetica,sans-Serif" font-size="10.00"> </text>
<polyline fill="none" stroke="#bfbfbf" points="36,-124.5 87,-124.5 "/>
<text text-anchor="middle" x="61.5" y="-112.5" font-family="Helvetica,sans-Serif" font-size="10.00"> </text>
</a>
</g>
</g>
<!-- Node2&#45;&gt;Node1 -->
<g id="edge1" class="edge"><title>Node2&#45;&gt;Node1</title>
<path fill="none" stroke="midnightblue" d="M61.5,-95.0631C61.5,-86.3933 61.5,-77.2431 61.5,-68.7855"/>
<polygon fill="none" stroke="midnightblue" points="58.0001,-95.3212 61.5,-105.321 65.0001,-95.3212 58.0001,-95.3212"/>
</g>
</g>
</svg>
