<?xml version="1.0" encoding="UTF-8" standalone="no"?>
<!DOCTYPE svg PUBLIC "-//W3C//DTD SVG 1.1//EN"
 "http://www.w3.org/Graphics/SVG/1.1/DTD/svg11.dtd">
<!-- Generated by graphviz version 2.38.0 (20140413.2041)
 -->
<!-- Title: GlWidget Pages: 1 -->
<!--zoomable 1201 -->
<svg id="main" version="1.1" xmlns="http://www.w3.org/2000/svg" xmlns:xlink="http://www.w3.org/1999/xlink" xml:space="preserve" onload="init(evt)">
<style type="text/css"><![CDATA[
.edge:hover path { stroke: red; }
.edge:hover polygon { stroke: red; fill: red; }
]]></style>
<script type="text/javascript"><![CDATA[
var edges = document.getElementsByTagName('g');
if (edges && edges.length) {
  for (var i=0;i<edges.length;i++) {
    if (edges[i].id.substr(0,4)=='edge') {
      edges[i].setAttribute('class','edge');
    }
  }
}
]]></script>
        <defs>
                <circle id="rim" cx="0" cy="0" r="7"/>
                <circle id="rim2" cx="0" cy="0" r="3.5"/>
                <g id="zoomPlus">
                        <use xlink:href="#rim" fill="#404040">
                                <set attributeName="fill" to="#808080" begin="zoomplus.mouseover" end="zoomplus.mouseout"/>
                        </use>
                        <path d="M-4,0h8M0,-4v8" fill="none" stroke="white" stroke-width="1.5" pointer-events="none"/>
                </g>
                <g id="zoomMin">
                        <use xlink:href="#rim" fill="#404040">
                                <set attributeName="fill" to="#808080" begin="zoomminus.mouseover" end="zoomminus.mouseout"/>
                        </use>
                        <path d="M-4,0h8" fill="none" stroke="white" stroke-width="1.5" pointer-events="none"/>
                </g>
                <g id="dirArrow">
                        <path fill="none" stroke="white" stroke-width="1.5" d="M0,-3.0v7 M-2.5,-0.5L0,-3.0L2.5,-0.5"/>
                </g>
               <g id="resetDef">
                       <use xlink:href="#rim2" fill="#404040">
                               <set attributeName="fill" to="#808080" begin="reset.mouseover" end="reset.mouseout"/>
                       </use>
               </g>
        </defs>

<script type="text/javascript">
var viewWidth = 693;
var viewHeight = 1201;
var sectionId = 'dynsection-1';
</script>
<script xlink:href="../../svgpan.js"/>
<svg id="graph" class="graph">
<g id="viewport">
<title>GlWidget</title>
<polygon fill="white" stroke="none" points="-4,4 -4,-1197 688.5,-1197 688.5,4 -4,4"/>
<!-- Node1 -->
<g id="node1" class="node"><title>Node1</title>
<g id="a_node1"><a xlink:title="3d render context for skeleton visualisation">
<polygon fill="#bfbfbf" stroke="black" points="278.5,-0.5 278.5,-277.5 444.5,-277.5 444.5,-0.5 278.5,-0.5"/>
<text text-anchor="middle" x="361.5" y="-265.5" font-family="Helvetica,sans-Serif" font-size="10.00">GlWidget</text>
<polyline fill="none" stroke="black" points="278.5,-258.5 444.5,-258.5 "/>
<text text-anchor="start" x="286.5" y="-246.5" font-family="Helvetica,sans-Serif" font-size="10.00">&#45; m_worldMatrix</text>
<text text-anchor="start" x="286.5" y="-235.5" font-family="Helvetica,sans-Serif" font-size="10.00">&#45; m_shaderProgram_texture</text>
<text text-anchor="start" x="286.5" y="-224.5" font-family="Helvetica,sans-Serif" font-size="10.00">&#45; m_shaderProgram_confidence</text>
<text text-anchor="start" x="286.5" y="-213.5" font-family="Helvetica,sans-Serif" font-size="10.00">&#45; lastPos</text>
<text text-anchor="start" x="286.5" y="-202.5" font-family="Helvetica,sans-Serif" font-size="10.00">&#45; m_clearColor</text>
<text text-anchor="start" x="286.5" y="-191.5" font-family="Helvetica,sans-Serif" font-size="10.00">&#45; m_skeletonMeshPool</text>
<polyline fill="none" stroke="black" points="278.5,-184.5 444.5,-184.5 "/>
<text text-anchor="start" x="286.5" y="-172.5" font-family="Helvetica,sans-Serif" font-size="10.00">+ GlWidget()</text>
<text text-anchor="start" x="286.5" y="-161.5" font-family="Helvetica,sans-Serif" font-size="10.00">+ ~GlWidget()</text>
<text text-anchor="start" x="286.5" y="-150.5" font-family="Helvetica,sans-Serif" font-size="10.00">+ updateSkeletonMeshPoolSize()</text>
<text text-anchor="start" x="286.5" y="-139.5" font-family="Helvetica,sans-Serif" font-size="10.00">+ updateSkeletonMeshCount()</text>
<text text-anchor="start" x="286.5" y="-128.5" font-family="Helvetica,sans-Serif" font-size="10.00">+ updateSkeletonMeshTransform()</text>
<text text-anchor="start" x="286.5" y="-117.5" font-family="Helvetica,sans-Serif" font-size="10.00"># initializeGL()</text>
<text text-anchor="start" x="286.5" y="-106.5" font-family="Helvetica,sans-Serif" font-size="10.00"># paintGL()</text>
<text text-anchor="start" x="286.5" y="-95.5" font-family="Helvetica,sans-Serif" font-size="10.00"># resizeGL()</text>
<text text-anchor="start" x="286.5" y="-84.5" font-family="Helvetica,sans-Serif" font-size="10.00"># mousePressEvent()</text>
<text text-anchor="start" x="286.5" y="-73.5" font-family="Helvetica,sans-Serif" font-size="10.00"># mouseMoveEvent()</text>
<text text-anchor="start" x="286.5" y="-62.5" font-family="Helvetica,sans-Serif" font-size="10.00"># mouseReleaseEvent()</text>
<text text-anchor="start" x="286.5" y="-51.5" font-family="Helvetica,sans-Serif" font-size="10.00">&#45; init()</text>
<text text-anchor="start" x="286.5" y="-40.5" font-family="Helvetica,sans-Serif" font-size="10.00">&#45; createShaderProgram()</text>
<text text-anchor="start" x="286.5" y="-29.5" font-family="Helvetica,sans-Serif" font-size="10.00">&#45; createMeshes()</text>
<text text-anchor="start" x="286.5" y="-18.5" font-family="Helvetica,sans-Serif" font-size="10.00">&#45; renderMesh()</text>
<text text-anchor="start" x="286.5" y="-7.5" font-family="Helvetica,sans-Serif" font-size="10.00">&#45; renderSkeletonMesh()</text>
</a>
</g>
</g>
<!-- Node2 -->
<g id="node2" class="node"><title>Node2</title>
<g id="a_node2"><a xlink:title=" ">
<polygon fill="white" stroke="#bfbfbf" points="0,-402.5 0,-459.5 91,-459.5 91,-402.5 0,-402.5"/>
<text text-anchor="middle" x="45.5" y="-447.5" font-family="Helvetica,sans-Serif" font-size="10.00">QOpenGLWidget</text>
<polyline fill="none" stroke="#bfbfbf" points="0,-440.5 91,-440.5 "/>
<text text-anchor="middle" x="45.5" y="-428.5" font-family="Helvetica,sans-Serif" font-size="10.00"> </text>
<polyline fill="none" stroke="#bfbfbf" points="0,-421.5 91,-421.5 "/>
<text text-anchor="middle" x="45.5" y="-409.5" font-family="Helvetica,sans-Serif" font-size="10.00"> </text>
</a>
</g>
</g>
<!-- Node2&#45;&gt;Node1 -->
<g id="edge1" class="edge"><title>Node2&#45;&gt;Node1</title>
<path fill="none" stroke="midnightblue" d="M59.3311,-392.956C68.5328,-371.551 82.1251,-344.991 99.5,-325 149.999,-266.897 222.366,-217.596 278.253,-184.535"/>
<polygon fill="none" stroke="midnightblue" points="56.0179,-391.808 55.4144,-402.386 62.4825,-394.493 56.0179,-391.808"/>
</g>
<!-- Node3 -->
<g id="node3" class="node"><title>Node3</title>
<g id="a_node3"><a xlink:title=" ">
<polygon fill="white" stroke="#bfbfbf" points="109,-402.5 109,-459.5 212,-459.5 212,-402.5 109,-402.5"/>
<text text-anchor="middle" x="160.5" y="-447.5" font-family="Helvetica,sans-Serif" font-size="10.00">QOpenGLFunctions</text>
<polyline fill="none" stroke="#bfbfbf" points="109,-440.5 212,-440.5 "/>
<text text-anchor="middle" x="160.5" y="-428.5" font-family="Helvetica,sans-Serif" font-size="10.00"> </text>
<polyline fill="none" stroke="#bfbfbf" points="109,-421.5 212,-421.5 "/>
<text text-anchor="middle" x="160.5" y="-409.5" font-family="Helvetica,sans-Serif" font-size="10.00"> </text>
</a>
</g>
</g>
<!-- Node3&#45;&gt;Node1 -->
<g id="edge2" class="edge"><title>Node3&#45;&gt;Node1</title>
<path fill="none" stroke="darkgreen" d="M180.402,-393.253C191.841,-372.792 206.816,-347.071 221.5,-325 239.014,-298.675 258.951,-271.1 278.178,-245.516"/>
<polygon fill="none" stroke="darkgreen" points="177.201,-391.81 175.409,-402.252 183.322,-395.206 177.201,-391.81"/>
</g>
<!-- Node4 -->
<g id="node4" class="node"><title>Node4</title>
<g id="a_node4"><a xlink:href="../../dc/dbc/class_tracker_manager.html" target="_top" xlink:title="Manager for all types of tracker.">
<polygon fill="white" stroke="black" points="230.5,-325.5 230.5,-536.5 372.5,-536.5 372.5,-325.5 230.5,-325.5"/>
<text text-anchor="middle" x="301.5" y="-524.5" font-family="Helvetica,sans-Serif" font-size="10.00">TrackerManager</text>
<polyline fill="none" stroke="black" points="230.5,-517.5 372.5,-517.5 "/>
<text text-anchor="start" x="238.5" y="-505.5" font-family="Helvetica,sans-Serif" font-size="10.00">&#45; m_trackerPool</text>
<text text-anchor="start" x="238.5" y="-494.5" font-family="Helvetica,sans-Serif" font-size="10.00">&#45; m_isTracking</text>
<text text-anchor="start" x="238.5" y="-483.5" font-family="Helvetica,sans-Serif" font-size="10.00">&#45; m_hasTrackerPoolChanged</text>
<text text-anchor="start" x="238.5" y="-472.5" font-family="Helvetica,sans-Serif" font-size="10.00">&#45; m_nextFreeTrackerID</text>
<text text-anchor="start" x="238.5" y="-461.5" font-family="Helvetica,sans-Serif" font-size="10.00">&#45; m_nextFreeAKCamID</text>
<text text-anchor="start" x="238.5" y="-450.5" font-family="Helvetica,sans-Serif" font-size="10.00">&#45; m_trackerPoolLock</text>
<polyline fill="none" stroke="black" points="230.5,-443.5 372.5,-443.5 "/>
<text text-anchor="start" x="238.5" y="-431.5" font-family="Helvetica,sans-Serif" font-size="10.00">+ TrackerManager()</text>
<text text-anchor="start" x="238.5" y="-420.5" font-family="Helvetica,sans-Serif" font-size="10.00">+ createTracker()</text>
<text text-anchor="start" x="238.5" y="-409.5" font-family="Helvetica,sans-Serif" font-size="10.00">+ removeTrackerAt()</text>
<text text-anchor="start" x="238.5" y="-398.5" font-family="Helvetica,sans-Serif" font-size="10.00">+ startTracker()</text>
<text text-anchor="start" x="238.5" y="-387.5" font-family="Helvetica,sans-Serif" font-size="10.00">+ stopTracker()</text>
<text text-anchor="start" x="238.5" y="-376.5" font-family="Helvetica,sans-Serif" font-size="10.00">+ isTracking()</text>
<text text-anchor="start" x="238.5" y="-365.5" font-family="Helvetica,sans-Serif" font-size="10.00">+ hasTrackerPoolChanged()</text>
<text text-anchor="start" x="238.5" y="-354.5" font-family="Helvetica,sans-Serif" font-size="10.00">+ getPoolTracker()</text>
<text text-anchor="start" x="238.5" y="-343.5" font-family="Helvetica,sans-Serif" font-size="10.00">+ getTrackerRefAt()</text>
<text text-anchor="start" x="238.5" y="-332.5" font-family="Helvetica,sans-Serif" font-size="10.00">+ getTrackerPoolLock()</text>
</a>
</g>
</g>
<!-- Node4&#45;&gt;Node1 -->
<g id="edge3" class="edge"><title>Node4&#45;&gt;Node1</title>
<path fill="none" stroke="#404040" d="M297.788,-325.415C298.546,-315.428 299.737,-305.492 301.5,-296 301.882,-293.941 302.291,-291.873 302.724,-289.8"/>
<polygon fill="none" stroke="#404040" points="302.776,-289.574 300.218,-282.831 305.457,-277.877 308.015,-284.619 302.776,-289.574"/>
<text text-anchor="middle" x="351.5" y="-299" font-family="Helvetica,sans-Serif" font-size="10.00"> &#45;m_refTrackerManager</text>
</g>
<!-- Node5 -->
<g id="node5" class="node"><title>Node5</title>
<g id="a_node5"><a xlink:href="../../da/dbb/class_camera.html" target="_top" xlink:title=" ">
<polygon fill="white" stroke="black" points="464,-661.5 464,-751.5 547,-751.5 547,-661.5 464,-661.5"/>
<text text-anchor="middle" x="505.5" y="-739.5" font-family="Helvetica,sans-Serif" font-size="10.00">Camera</text>
<polyline fill="none" stroke="black" points="464,-732.5 547,-732.5 "/>
<text text-anchor="middle" x="505.5" y="-720.5" font-family="Helvetica,sans-Serif" font-size="10.00"> </text>
<polyline fill="none" stroke="black" points="464,-713.5 547,-713.5 "/>
<text text-anchor="start" x="472" y="-701.5" font-family="Helvetica,sans-Serif" font-size="10.00">+ Camera()</text>
<text text-anchor="start" x="472" y="-690.5" font-family="Helvetica,sans-Serif" font-size="10.00">+ ~Camera()</text>
<text text-anchor="start" x="472" y="-679.5" font-family="Helvetica,sans-Serif" font-size="10.00">+ addRotation()</text>
<text text-anchor="start" x="472" y="-668.5" font-family="Helvetica,sans-Serif" font-size="10.00">+ rotate()</text>
</a>
</g>
</g>
<!-- Node5&#45;&gt;Node1 -->
<g id="edge4" class="edge"><title>Node5&#45;&gt;Node1</title>
<path fill="none" stroke="#404040" d="M508.843,-661.494C513.119,-584.746 515.202,-422.528 469.5,-296 464.511,-282.188 457.984,-268.455 450.607,-255.194"/>
<polygon fill="none" stroke="#404040" points="450.527,-255.055 444.061,-251.863 444.521,-244.666 450.987,-247.859 450.527,-255.055"/>
<text text-anchor="middle" x="535.5" y="-428.5" font-family="Helvetica,sans-Serif" font-size="10.00"> &#45;m_camera</text>
</g>
<!-- Node6 -->
<g id="node6" class="node"><title>Node6</title>
<g id="a_node6"><a xlink:href="../../d2/d96/class_entity.html" target="_top" xlink:title="base class for all objects in openGl window">
<polygon fill="white" stroke="black" points="331,-860 331,-1060 412,-1060 412,-860 331,-860"/>
<text text-anchor="middle" x="371.5" y="-1048" font-family="Helvetica,sans-Serif" font-size="10.00">Entity</text>
<polyline fill="none" stroke="black" points="331,-1041 412,-1041 "/>
<text text-anchor="start" x="339" y="-1029" font-family="Helvetica,sans-Serif" font-size="10.00"># m_matrix</text>
<polyline fill="none" stroke="black" points="331,-1022 412,-1022 "/>
<text text-anchor="start" x="339" y="-1010" font-family="Helvetica,sans-Serif" font-size="10.00">+ Entity()</text>
<text text-anchor="start" x="339" y="-999" font-family="Helvetica,sans-Serif" font-size="10.00">+ ~Entity()</text>
<text text-anchor="start" x="339" y="-988" font-family="Helvetica,sans-Serif" font-size="10.00">+ getMatrix()</text>
<text text-anchor="start" x="339" y="-977" font-family="Helvetica,sans-Serif" font-size="10.00">+ translate()</text>
<text text-anchor="start" x="339" y="-966" font-family="Helvetica,sans-Serif" font-size="10.00">+ setPosition()</text>
<text text-anchor="start" x="339" y="-955" font-family="Helvetica,sans-Serif" font-size="10.00">+ getPosition()</text>
<text text-anchor="start" x="339" y="-944" font-family="Helvetica,sans-Serif" font-size="10.00">+ rotate()</text>
<text text-anchor="start" x="339" y="-933" font-family="Helvetica,sans-Serif" font-size="10.00">+ setRotation()</text>
<text text-anchor="start" x="339" y="-922" font-family="Helvetica,sans-Serif" font-size="10.00">+ getRotation()</text>
<text text-anchor="start" x="339" y="-911" font-family="Helvetica,sans-Serif" font-size="10.00">+ scale()</text>
<text text-anchor="start" x="339" y="-900" font-family="Helvetica,sans-Serif" font-size="10.00">+ scale()</text>
<text text-anchor="start" x="339" y="-889" font-family="Helvetica,sans-Serif" font-size="10.00">+ setScale()</text>
<text text-anchor="start" x="339" y="-878" font-family="Helvetica,sans-Serif" font-size="10.00">+ setScale()</text>
<text text-anchor="start" x="339" y="-867" font-family="Helvetica,sans-Serif" font-size="10.00">+ getScale()</text>
</a>
</g>
</g>
<!-- Node6&#45;&gt;Node5 -->
<g id="edge5" class="edge"><title>Node6&#45;&gt;Node5</title>
<path fill="none" stroke="midnightblue" d="M404.789,-850.774C409.919,-841.553 415.791,-832.789 422.5,-825 433.149,-812.636 443.187,-818.76 454.5,-807 469.572,-791.332 481.218,-770.329 489.551,-751.657"/>
<polygon fill="none" stroke="midnightblue" points="401.633,-849.256 400.095,-859.738 407.834,-852.503 401.633,-849.256"/>
</g>
<!-- Node10 -->
<g id="node10" class="node"><title>Node10</title>
<g id="a_node10"><a xlink:href="../../dc/dbe/class_mesh.html" target="_top" xlink:title="mesh base class">
<polygon fill="white" stroke="black" points="341.5,-606.5 341.5,-806.5 445.5,-806.5 445.5,-606.5 341.5,-606.5"/>
<text text-anchor="middle" x="393.5" y="-794.5" font-family="Helvetica,sans-Serif" font-size="10.00">Mesh</text>
<polyline fill="none" stroke="black" points="341.5,-787.5 445.5,-787.5 "/>
<text text-anchor="start" x="349.5" y="-775.5" font-family="Helvetica,sans-Serif" font-size="10.00"># m_vertexData</text>
<text text-anchor="start" x="349.5" y="-764.5" font-family="Helvetica,sans-Serif" font-size="10.00"># m_faceCount</text>
<text text-anchor="start" x="349.5" y="-753.5" font-family="Helvetica,sans-Serif" font-size="10.00"># m_vbo</text>
<text text-anchor="start" x="349.5" y="-742.5" font-family="Helvetica,sans-Serif" font-size="10.00"># m_texture</text>
<text text-anchor="start" x="349.5" y="-731.5" font-family="Helvetica,sans-Serif" font-size="10.00"># m_shaderProgram</text>
<text text-anchor="start" x="349.5" y="-720.5" font-family="Helvetica,sans-Serif" font-size="10.00"># m_isActive</text>
<polyline fill="none" stroke="black" points="341.5,-713.5 445.5,-713.5 "/>
<text text-anchor="start" x="349.5" y="-701.5" font-family="Helvetica,sans-Serif" font-size="10.00">+ Mesh()</text>
<text text-anchor="start" x="349.5" y="-690.5" font-family="Helvetica,sans-Serif" font-size="10.00">+ ~Mesh()</text>
<text text-anchor="start" x="349.5" y="-679.5" font-family="Helvetica,sans-Serif" font-size="10.00">+ bind()</text>
<text text-anchor="start" x="349.5" y="-668.5" font-family="Helvetica,sans-Serif" font-size="10.00">+ release()</text>
<text text-anchor="start" x="349.5" y="-657.5" font-family="Helvetica,sans-Serif" font-size="10.00">+ getFaceCount()</text>
<text text-anchor="start" x="349.5" y="-646.5" font-family="Helvetica,sans-Serif" font-size="10.00">+ isActive()</text>
<text text-anchor="start" x="349.5" y="-635.5" font-family="Helvetica,sans-Serif" font-size="10.00">+ setActive()</text>
<text text-anchor="start" x="349.5" y="-624.5" font-family="Helvetica,sans-Serif" font-size="10.00">+ setDiffuseColor()</text>
<text text-anchor="start" x="349.5" y="-613.5" font-family="Helvetica,sans-Serif" font-size="10.00"># init()</text>
</a>
</g>
</g>
<!-- Node6&#45;&gt;Node10 -->
<g id="edge11" class="edge"><title>Node6&#45;&gt;Node10</title>
<path fill="none" stroke="midnightblue" d="M371.75,-849.583C372.192,-841.256 372.765,-832.989 373.5,-825 374.05,-819.024 374.732,-812.895 375.509,-806.723"/>
<polygon fill="none" stroke="midnightblue" points="368.245,-849.601 371.274,-859.754 375.237,-849.928 368.245,-849.601"/>
</g>
<!-- Node7 -->
<g id="node7" class="node"><title>Node7</title>
<g id="a_node7"><a xlink:href="../../d3/de7/class_vector3.html" target="_top" xlink:title="Utility Class.">
<polygon fill="white" stroke="black" points="477,-854.5 477,-1065.5 550,-1065.5 550,-854.5 477,-854.5"/>
<text text-anchor="middle" x="513.5" y="-1053.5" font-family="Helvetica,sans-Serif" font-size="10.00">Vector3</text>
<polyline fill="none" stroke="black" points="477,-1046.5 550,-1046.5 "/>
<text text-anchor="middle" x="513.5" y="-1034.5" font-family="Helvetica,sans-Serif" font-size="10.00"> </text>
<polyline fill="none" stroke="black" points="477,-1027.5 550,-1027.5 "/>
<text text-anchor="start" x="485" y="-1015.5" font-family="Helvetica,sans-Serif" font-size="10.00">+ Vector3()</text>
<text text-anchor="start" x="485" y="-1004.5" font-family="Helvetica,sans-Serif" font-size="10.00">+ Vector3()</text>
<text text-anchor="start" x="485" y="-993.5" font-family="Helvetica,sans-Serif" font-size="10.00">+ Vector3()</text>
<text text-anchor="start" x="485" y="-982.5" font-family="Helvetica,sans-Serif" font-size="10.00">+ Vector3()</text>
<text text-anchor="start" x="485" y="-971.5" font-family="Helvetica,sans-Serif" font-size="10.00">+ Vector3()</text>
<text text-anchor="start" x="485" y="-960.5" font-family="Helvetica,sans-Serif" font-size="10.00">+ operator+()</text>
<text text-anchor="start" x="485" y="-949.5" font-family="Helvetica,sans-Serif" font-size="10.00">+ operator&#45;()</text>
<text text-anchor="start" x="485" y="-938.5" font-family="Helvetica,sans-Serif" font-size="10.00">+ operator*()</text>
<text text-anchor="start" x="485" y="-927.5" font-family="Helvetica,sans-Serif" font-size="10.00">+ operator/()</text>
<text text-anchor="start" x="485" y="-916.5" font-family="Helvetica,sans-Serif" font-size="10.00">+ operator*()</text>
<text text-anchor="start" x="485" y="-905.5" font-family="Helvetica,sans-Serif" font-size="10.00">+ operator*()</text>
<text text-anchor="start" x="485" y="-894.5" font-family="Helvetica,sans-Serif" font-size="10.00">+ toString()</text>
<text text-anchor="start" x="485" y="-883.5" font-family="Helvetica,sans-Serif" font-size="10.00">+ toEigen()</text>
<text text-anchor="start" x="485" y="-872.5" font-family="Helvetica,sans-Serif" font-size="10.00">+ zero()</text>
<text text-anchor="start" x="485" y="-861.5" font-family="Helvetica,sans-Serif" font-size="10.00">+ one()</text>
</a>
</g>
</g>
<!-- Node7&#45;&gt;Node1 -->
<g id="edge8" class="edge"><title>Node7&#45;&gt;Node1</title>
<path fill="none" stroke="#404040" d="M550.072,-885.729C556.465,-869.716 562.138,-852.587 565.5,-836 610.617,-613.415 657.505,-532.64 565.5,-325 542.455,-272.99 496.764,-229.364 454.456,-197.562"/>
<polygon fill="none" stroke="#404040" points="454.312,-197.456 447.108,-197.124 444.643,-190.347 451.847,-190.679 454.312,-197.456"/>
<text text-anchor="middle" x="651" y="-580" font-family="Helvetica,sans-Serif" font-size="10.00"> &#45;m_colorRed</text>
<text text-anchor="middle" x="651" y="-569" font-family="Helvetica,sans-Serif" font-size="10.00">&#45;m_colorGreen</text>
<text text-anchor="middle" x="651" y="-558" font-family="Helvetica,sans-Serif" font-size="10.00">&#45;m_colorYellow</text>
</g>
<!-- Node7&#45;&gt;Node5 -->
<g id="edge6" class="edge"><title>Node7&#45;&gt;Node5</title>
<path fill="none" stroke="#404040" d="M510.165,-854.163C509.181,-823.212 508.141,-790.522 507.293,-763.88"/>
<polygon fill="none" stroke="#404040" points="507.288,-763.701 503.099,-757.831 506.906,-751.707 511.095,-757.577 507.288,-763.701"/>
<text text-anchor="middle" x="535.5" y="-828" font-family="Helvetica,sans-Serif" font-size="10.00"> &#45;m_rotation</text>
</g>
<!-- Node7&#45;&gt;Node10 -->
<g id="edge12" class="edge"><title>Node7&#45;&gt;Node10</title>
<path fill="none" stroke="#404040" d="M476.834,-911.326C461.211,-889.309 443.794,-862.266 431.5,-836 428.757,-830.14 426.162,-824.036 423.714,-817.811"/>
<polygon fill="none" stroke="#404040" points="423.686,-817.736 417.832,-813.525 419.468,-806.502 425.322,-810.713 423.686,-817.736"/>
<text text-anchor="middle" x="468" y="-828" font-family="Helvetica,sans-Serif" font-size="10.00"> #m_diffuseColor</text>
</g>
<!-- Node8 -->
<g id="node8" class="node"><title>Node8</title>
<g id="a_node8"><a xlink:href="../../df/d32/struct_vector3_1_1_position.html" target="_top" xlink:title=" ">
<polygon fill="white" stroke="black" points="467.5,-1113.5 467.5,-1192.5 559.5,-1192.5 559.5,-1113.5 467.5,-1113.5"/>
<text text-anchor="middle" x="513.5" y="-1180.5" font-family="Helvetica,sans-Serif" font-size="10.00">Vector3::Position</text>
<polyline fill="none" stroke="black" points="467.5,-1173.5 559.5,-1173.5 "/>
<text text-anchor="start" x="475.5" y="-1161.5" font-family="Helvetica,sans-Serif" font-size="10.00">+ x</text>
<text text-anchor="start" x="475.5" y="-1150.5" font-family="Helvetica,sans-Serif" font-size="10.00">+ y</text>
<text text-anchor="start" x="475.5" y="-1139.5" font-family="Helvetica,sans-Serif" font-size="10.00">+ z</text>
<polyline fill="none" stroke="black" points="467.5,-1132.5 559.5,-1132.5 "/>
<text text-anchor="middle" x="513.5" y="-1120.5" font-family="Helvetica,sans-Serif" font-size="10.00"> </text>
</a>
</g>
</g>
<!-- Node8&#45;&gt;Node7 -->
<g id="edge7" class="edge"><title>Node8&#45;&gt;Node7</title>
<path fill="none" stroke="#404040" d="M513.5,-1113.35C513.5,-1102.69 513.5,-1090.55 513.5,-1077.88"/>
<polygon fill="none" stroke="#404040" points="513.5,-1077.6 509.5,-1071.6 513.5,-1065.6 517.5,-1071.6 513.5,-1077.6"/>
<text text-anchor="middle" x="533" y="-1087" font-family="Helvetica,sans-Serif" font-size="10.00"> +m_xyz</text>
</g>
<!-- Node9 -->
<g id="node9" class="node"><title>Node9</title>
<g id="a_node9"><a xlink:href="../../d2/d8d/class_plane.html" target="_top" xlink:title="plane mesh">
<polygon fill="white" stroke="black" points="391.5,-397 391.5,-465 453.5,-465 453.5,-397 391.5,-397"/>
<text text-anchor="middle" x="422.5" y="-453" font-family="Helvetica,sans-Serif" font-size="10.00">Plane</text>
<polyline fill="none" stroke="black" points="391.5,-446 453.5,-446 "/>
<text text-anchor="middle" x="422.5" y="-434" font-family="Helvetica,sans-Serif" font-size="10.00"> </text>
<polyline fill="none" stroke="black" points="391.5,-427 453.5,-427 "/>
<text text-anchor="start" x="399.5" y="-415" font-family="Helvetica,sans-Serif" font-size="10.00">+ Plane()</text>
<text text-anchor="start" x="399.5" y="-404" font-family="Helvetica,sans-Serif" font-size="10.00">+ ~Plane()</text>
</a>
</g>
</g>
<!-- Node9&#45;&gt;Node1 -->
<g id="edge9" class="edge"><title>Node9&#45;&gt;Node1</title>
<path fill="none" stroke="#404040" d="M418.197,-396.8C414.454,-369.587 408.534,-330.134 401.5,-296 401.054,-293.835 400.597,-291.655 400.131,-289.463"/>
<polygon fill="none" stroke="#404040" points="400.11,-289.366 394.923,-284.356 397.553,-277.641 402.739,-282.651 400.11,-289.366"/>
<text text-anchor="middle" x="434.5" y="-299" font-family="Helvetica,sans-Serif" font-size="10.00"> &#45;m_meshGrid</text>
</g>
<!-- Node10&#45;&gt;Node9 -->
<g id="edge10" class="edge"><title>Node10&#45;&gt;Node9</title>
<path fill="none" stroke="midnightblue" d="M405.066,-596.42C410.05,-549.412 415.518,-497.851 418.976,-465.231"/>
<polygon fill="none" stroke="midnightblue" points="401.585,-596.06 404.011,-606.374 408.546,-596.798 401.585,-596.06"/>
</g>
</g>
</svg>
        <g id="navigator" transform="translate(0 0)" fill="#404254">
                <rect fill="#f2f5e9" fill-opacity="0.5" stroke="#606060" stroke-width=".5" x="0" y="0" width="60" height="60"/>
                <use id="zoomplus" xlink:href="#zoomPlus" x="17" y="9" onmousedown="handleZoom(evt,'in')"/>
                <use id="zoomminus" xlink:href="#zoomMin" x="42" y="9" onmousedown="handleZoom(evt,'out')"/>
                <use id="reset" xlink:href="#resetDef" x="30" y="36" onmousedown="handleReset()"/>
                <g id="arrowUp" xlink:href="#dirArrow" transform="translate(30 24)" onmousedown="handlePan(0,-1)">
                  <use xlink:href="#rim" fill="#404040">
                        <set attributeName="fill" to="#808080" begin="arrowUp.mouseover" end="arrowUp.mouseout"/>
                  </use>
                  <path fill="none" stroke="white" stroke-width="1.5" d="M0,-3.0v7 M-2.5,-0.5L0,-3.0L2.5,-0.5"/>
                </g>
                <g id="arrowRight" xlink:href="#dirArrow" transform="rotate(90) translate(36 -43)" onmousedown="handlePan(1,0)">
                  <use xlink:href="#rim" fill="#404040">
                        <set attributeName="fill" to="#808080" begin="arrowRight.mouseover" end="arrowRight.mouseout"/>
                  </use>
                  <path fill="none" stroke="white" stroke-width="1.5" d="M0,-3.0v7 M-2.5,-0.5L0,-3.0L2.5,-0.5"/>
                </g>
                <g id="arrowDown" xlink:href="#dirArrow" transform="rotate(180) translate(-30 -48)" onmousedown="handlePan(0,1)">
                  <use xlink:href="#rim" fill="#404040">
                        <set attributeName="fill" to="#808080" begin="arrowDown.mouseover" end="arrowDown.mouseout"/>
                  </use>
                  <path fill="none" stroke="white" stroke-width="1.5" d="M0,-3.0v7 M-2.5,-0.5L0,-3.0L2.5,-0.5"/>
                </g>
                <g id="arrowLeft" xlink:href="#dirArrow" transform="rotate(270) translate(-36 17)" onmousedown="handlePan(-1,0)">
                  <use xlink:href="#rim" fill="#404040">
                        <set attributeName="fill" to="#808080" begin="arrowLeft.mouseover" end="arrowLeft.mouseout"/>
                  </use>
                  <path fill="none" stroke="white" stroke-width="1.5" d="M0,-3.0v7 M-2.5,-0.5L0,-3.0L2.5,-0.5"/>
                </g>
        </g>
        <svg viewBox="0 0 15 15" width="100%" height="30px" preserveAspectRatio="xMaxYMin meet">
         <g id="arrow_out" transform="scale(0.3 0.3)">
          <a xlink:href="class_gl_widget__coll__graph_org.svg" target="_base">
           <rect id="button" ry="5" rx="5" y="6" x="6" height="38" width="38"
                fill="#f2f5e9" fill-opacity="0.5" stroke="#606060" stroke-width="1.0"/>
           <path id="arrow"
             d="M 11.500037,31.436501 C 11.940474,20.09759 22.043105,11.32322 32.158766,21.979434 L 37.068811,17.246167 C 37.068811,17.246167 37.088388,32 37.088388,32 L 22.160133,31.978069 C 22.160133,31.978069 26.997745,27.140456 26.997745,27.140456 C 18.528582,18.264221 13.291696,25.230495 11.500037,31.436501 z"
             style="fill:#404040;"/>
          </a>
         </g>
        </svg>
</svg>
