<?xml version="1.0" encoding="UTF-8" standalone="no"?>
<!DOCTYPE svg PUBLIC "-//W3C//DTD SVG 1.1//EN"
 "http://www.w3.org/Graphics/SVG/1.1/DTD/svg11.dtd">
<!-- Generated by graphviz version 2.38.0 (20140413.2041)
 -->
<!-- Title: C:/dev/projects/MotionHub/src/TrackerManagement/xs_centerofmassdatagram.h Pages: 1 -->
<svg width="310pt" height="128pt"
 viewBox="0.00 0.00 310.00 128.00" xmlns="http://www.w3.org/2000/svg" xmlns:xlink="http://www.w3.org/1999/xlink">
<g id="graph0" class="graph" transform="scale(1 1) rotate(0) translate(4 124)">
<title>C:/dev/projects/MotionHub/src/TrackerManagement/xs_centerofmassdatagram.h</title>
<polygon fill="white" stroke="none" points="-4,4 -4,-124 306,-124 306,4 -4,4"/>
<!-- Node1 -->
<g id="node1" class="node"><title>Node1</title>
<g id="a_node1"><a xlink:title=" ">
<polygon fill="#bfbfbf" stroke="black" points="85,-78.5 85,-119.5 228,-119.5 228,-78.5 85,-78.5"/>
<text text-anchor="start" x="93" y="-107.5" font-family="Helvetica,sans-Serif" font-size="10.00">C:/dev/projects/MotionHub</text>
<text text-anchor="start" x="93" y="-96.5" font-family="Helvetica,sans-Serif" font-size="10.00">/src/TrackerManagement</text>
<text text-anchor="middle" x="156.5" y="-85.5" font-family="Helvetica,sans-Serif" font-size="10.00">/xs_centerofmassdatagram.h</text>
</a>
</g>
</g>
<!-- Node2 -->
<g id="node2" class="node"><title>Node2</title>
<g id="a_node2"><a xlink:href="../../dc/d46/xs__centerofmassdatagram_8cpp.html" target="_top" xlink:title=" ">
<polygon fill="white" stroke="black" points="0,-0.5 0,-41.5 153,-41.5 153,-0.5 0,-0.5"/>
<text text-anchor="start" x="8" y="-29.5" font-family="Helvetica,sans-Serif" font-size="10.00">C:/dev/projects/MotionHub</text>
<text text-anchor="start" x="8" y="-18.5" font-family="Helvetica,sans-Serif" font-size="10.00">/src/TrackerManagement</text>
<text text-anchor="middle" x="76.5" y="-7.5" font-family="Helvetica,sans-Serif" font-size="10.00">/xs_centerofmassdatagram.cpp</text>
</a>
</g>
</g>
<!-- Node1&#45;&gt;Node2 -->
<g id="edge1" class="edge"><title>Node1&#45;&gt;Node2</title>
<path fill="none" stroke="midnightblue" d="M128.596,-71.4916C118.215,-61.6294 106.634,-50.6273 97.0322,-41.5056"/>
<polygon fill="midnightblue" stroke="midnightblue" points="126.237,-74.0781 135.898,-78.4281 131.059,-69.0031 126.237,-74.0781"/>
</g>
<!-- Node3 -->
<g id="node3" class="node"><title>Node3</title>
<g id="a_node3"><a xlink:href="../../dc/d93/xs__parsermanager_8cpp.html" target="_top" xlink:title=" ">
<polygon fill="white" stroke="black" points="171,-0.5 171,-41.5 302,-41.5 302,-0.5 171,-0.5"/>
<text text-anchor="start" x="179" y="-29.5" font-family="Helvetica,sans-Serif" font-size="10.00">C:/dev/projects/MotionHub</text>
<text text-anchor="start" x="179" y="-18.5" font-family="Helvetica,sans-Serif" font-size="10.00">/src/TrackerManagement</text>
<text text-anchor="middle" x="236.5" y="-7.5" font-family="Helvetica,sans-Serif" font-size="10.00">/xs_parsermanager.cpp</text>
</a>
</g>
</g>
<!-- Node1&#45;&gt;Node3 -->
<g id="edge2" class="edge"><title>Node1&#45;&gt;Node3</title>
<path fill="none" stroke="midnightblue" d="M184.404,-71.4916C194.785,-61.6294 206.366,-50.6273 215.968,-41.5056"/>
<polygon fill="midnightblue" stroke="midnightblue" points="181.941,-69.0031 177.102,-78.4281 186.763,-74.0781 181.941,-69.0031"/>
</g>
</g>
</svg>
