<?xml version="1.0" encoding="UTF-8" standalone="no"?>
<!DOCTYPE svg PUBLIC "-//W3C//DTD SVG 1.1//EN"
 "http://www.w3.org/Graphics/SVG/1.1/DTD/svg11.dtd">
<!-- Generated by graphviz version 2.38.0 (20140413.2041)
 -->
<!-- Title: OsgQtWidget Pages: 1 -->
<!--zoomable 1107 -->
<svg id="main" version="1.1" xmlns="http://www.w3.org/2000/svg" xmlns:xlink="http://www.w3.org/1999/xlink" xml:space="preserve" onload="init(evt)">
<style type="text/css"><![CDATA[
.edge:hover path { stroke: red; }
.edge:hover polygon { stroke: red; fill: red; }
]]></style>
<script type="text/javascript"><![CDATA[
var edges = document.getElementsByTagName('g');
if (edges && edges.length) {
  for (var i=0;i<edges.length;i++) {
    if (edges[i].id.substr(0,4)=='edge') {
      edges[i].setAttribute('class','edge');
    }
  }
}
]]></script>
        <defs>
                <circle id="rim" cx="0" cy="0" r="7"/>
                <circle id="rim2" cx="0" cy="0" r="3.5"/>
                <g id="zoomPlus">
                        <use xlink:href="#rim" fill="#404040">
                                <set attributeName="fill" to="#808080" begin="zoomplus.mouseover" end="zoomplus.mouseout"/>
                        </use>
                        <path d="M-4,0h8M0,-4v8" fill="none" stroke="white" stroke-width="1.5" pointer-events="none"/>
                </g>
                <g id="zoomMin">
                        <use xlink:href="#rim" fill="#404040">
                                <set attributeName="fill" to="#808080" begin="zoomminus.mouseover" end="zoomminus.mouseout"/>
                        </use>
                        <path d="M-4,0h8" fill="none" stroke="white" stroke-width="1.5" pointer-events="none"/>
                </g>
                <g id="dirArrow">
                        <path fill="none" stroke="white" stroke-width="1.5" d="M0,-3.0v7 M-2.5,-0.5L0,-3.0L2.5,-0.5"/>
                </g>
               <g id="resetDef">
                       <use xlink:href="#rim2" fill="#404040">
                               <set attributeName="fill" to="#808080" begin="reset.mouseover" end="reset.mouseout"/>
                       </use>
               </g>
        </defs>

<script type="text/javascript">
var viewWidth = 589;
var viewHeight = 1107;
var sectionId = 'dynsection-1';
</script>
<script xlink:href="../../svgpan.js"/>
<svg id="graph" class="graph">
<g id="viewport">
<title>OsgQtWidget</title>
<polygon fill="white" stroke="none" points="-4,4 -4,-1103 584.5,-1103 584.5,4 -4,4"/>
<!-- Node1 -->
<g id="node1" class="node"><title>Node1</title>
<g id="a_node1"><a xlink:title=" ">
<polygon fill="#bfbfbf" stroke="black" points="33.5,-0.5 33.5,-354.5 199.5,-354.5 199.5,-0.5 33.5,-0.5"/>
<text text-anchor="middle" x="116.5" y="-342.5" font-family="Helvetica,sans-Serif" font-size="10.00">OsgQtWidget</text>
<polyline fill="none" stroke="black" points="33.5,-335.5 199.5,-335.5 "/>
<text text-anchor="start" x="41.5" y="-323.5" font-family="Helvetica,sans-Serif" font-size="10.00"># m_viewer</text>
<text text-anchor="start" x="41.5" y="-312.5" font-family="Helvetica,sans-Serif" font-size="10.00"># m_cameraManipulator</text>
<text text-anchor="start" x="41.5" y="-301.5" font-family="Helvetica,sans-Serif" font-size="10.00"># m_timer</text>
<text text-anchor="start" x="41.5" y="-290.5" font-family="Helvetica,sans-Serif" font-size="10.00"># m_sceneRoot</text>
<text text-anchor="start" x="41.5" y="-279.5" font-family="Helvetica,sans-Serif" font-size="10.00"># m_colorRed</text>
<text text-anchor="start" x="41.5" y="-268.5" font-family="Helvetica,sans-Serif" font-size="10.00"># m_colorYellow</text>
<text text-anchor="start" x="41.5" y="-257.5" font-family="Helvetica,sans-Serif" font-size="10.00"># m_colorGreen</text>
<text text-anchor="start" x="41.5" y="-246.5" font-family="Helvetica,sans-Serif" font-size="10.00"># m_skeletonMeshPool</text>
<text text-anchor="start" x="41.5" y="-235.5" font-family="Helvetica,sans-Serif" font-size="10.00"># m_spheres</text>
<text text-anchor="start" x="41.5" y="-224.5" font-family="Helvetica,sans-Serif" font-size="10.00"># m_sphereTransforms</text>
<text text-anchor="start" x="41.5" y="-213.5" font-family="Helvetica,sans-Serif" font-size="10.00"># m_renderConfidenceSpheres</text>
<text text-anchor="start" x="41.5" y="-202.5" font-family="Helvetica,sans-Serif" font-size="10.00"># m_renderSolidBoneRendering</text>
<text text-anchor="start" x="41.5" y="-191.5" font-family="Helvetica,sans-Serif" font-size="10.00"># m_renderJointAxes</text>
<text text-anchor="start" x="41.5" y="-180.5" font-family="Helvetica,sans-Serif" font-size="10.00"># m_renderStickManRendering</text>
<polyline fill="none" stroke="black" points="33.5,-173.5 199.5,-173.5 "/>
<text text-anchor="start" x="41.5" y="-161.5" font-family="Helvetica,sans-Serif" font-size="10.00">+ OsgQtWidget()</text>
<text text-anchor="start" x="41.5" y="-150.5" font-family="Helvetica,sans-Serif" font-size="10.00">+ updateSkeletonMeshPoolSize()</text>
<text text-anchor="start" x="41.5" y="-139.5" font-family="Helvetica,sans-Serif" font-size="10.00">+ updateSkeletonMeshTransform()</text>
<text text-anchor="start" x="41.5" y="-128.5" font-family="Helvetica,sans-Serif" font-size="10.00">+ updateSkeletonMeshCount()</text>
<text text-anchor="start" x="41.5" y="-117.5" font-family="Helvetica,sans-Serif" font-size="10.00">+ setFlagForJointAxes()</text>
<text text-anchor="start" x="41.5" y="-106.5" font-family="Helvetica,sans-Serif" font-size="10.00">+ setFlagForStickManRendering()</text>
<text text-anchor="start" x="41.5" y="-95.5" font-family="Helvetica,sans-Serif" font-size="10.00">+ setFlagForSolidBoneRendering()</text>
<text text-anchor="start" x="41.5" y="-84.5" font-family="Helvetica,sans-Serif" font-size="10.00">+ setFlagForConfidenceSpheres</text>
<text text-anchor="start" x="41.5" y="-73.5" font-family="Helvetica,sans-Serif" font-size="10.00">Rendering()</text>
<text text-anchor="start" x="41.5" y="-62.5" font-family="Helvetica,sans-Serif" font-size="10.00">+ drawLine()</text>
<text text-anchor="start" x="41.5" y="-51.5" font-family="Helvetica,sans-Serif" font-size="10.00">+ setCameraTransform()</text>
<text text-anchor="start" x="41.5" y="-40.5" font-family="Helvetica,sans-Serif" font-size="10.00"># mouseMoveEvent()</text>
<text text-anchor="start" x="41.5" y="-29.5" font-family="Helvetica,sans-Serif" font-size="10.00"># mousePressEvent()</text>
<text text-anchor="start" x="41.5" y="-18.5" font-family="Helvetica,sans-Serif" font-size="10.00"># mouseReleaseEvent()</text>
<text text-anchor="start" x="41.5" y="-7.5" font-family="Helvetica,sans-Serif" font-size="10.00"># paintEvent()</text>
</a>
</g>
</g>
<!-- Node2 -->
<g id="node2" class="node"><title>Node2</title>
<g id="a_node2"><a xlink:title=" ">
<polygon fill="white" stroke="#bfbfbf" points="0,-490.5 0,-547.5 55,-547.5 55,-490.5 0,-490.5"/>
<text text-anchor="middle" x="27.5" y="-535.5" font-family="Helvetica,sans-Serif" font-size="10.00">QWidget</text>
<polyline fill="none" stroke="#bfbfbf" points="0,-528.5 55,-528.5 "/>
<text text-anchor="middle" x="27.5" y="-516.5" font-family="Helvetica,sans-Serif" font-size="10.00"> </text>
<polyline fill="none" stroke="#bfbfbf" points="0,-509.5 55,-509.5 "/>
<text text-anchor="middle" x="27.5" y="-497.5" font-family="Helvetica,sans-Serif" font-size="10.00"> </text>
</a>
</g>
</g>
<!-- Node2&#45;&gt;Node1 -->
<g id="edge1" class="edge"><title>Node2&#45;&gt;Node1</title>
<path fill="none" stroke="midnightblue" d="M37.3985,-480.241C45.5879,-449.002 57.8563,-402.203 70.302,-354.727"/>
<polygon fill="none" stroke="midnightblue" points="33.9335,-479.657 34.7832,-490.217 40.7047,-481.432 33.9335,-479.657"/>
</g>
<!-- Node3 -->
<g id="node3" class="node"><title>Node3</title>
<g id="a_node3"><a xlink:href="../../d4/daf/class_config_manager.html" target="_top" xlink:title=" ">
<polygon fill="white" stroke="black" points="124,-854.5 124,-1098.5 243,-1098.5 243,-854.5 124,-854.5"/>
<text text-anchor="middle" x="183.5" y="-1086.5" font-family="Helvetica,sans-Serif" font-size="10.00">ConfigManager</text>
<polyline fill="none" stroke="black" points="124,-1079.5 243,-1079.5 "/>
<text text-anchor="start" x="132" y="-1067.5" font-family="Helvetica,sans-Serif" font-size="10.00">&#45; m_config</text>
<polyline fill="none" stroke="black" points="124,-1060.5 243,-1060.5 "/>
<text text-anchor="start" x="132" y="-1048.5" font-family="Helvetica,sans-Serif" font-size="10.00">+ readString()</text>
<text text-anchor="start" x="132" y="-1037.5" font-family="Helvetica,sans-Serif" font-size="10.00">+ readBool()</text>
<text text-anchor="start" x="132" y="-1026.5" font-family="Helvetica,sans-Serif" font-size="10.00">+ readInt()</text>
<text text-anchor="start" x="132" y="-1015.5" font-family="Helvetica,sans-Serif" font-size="10.00">+ readFloat()</text>
<text text-anchor="start" x="132" y="-1004.5" font-family="Helvetica,sans-Serif" font-size="10.00">+ readVec3f()</text>
<text text-anchor="start" x="132" y="-993.5" font-family="Helvetica,sans-Serif" font-size="10.00">+ readVec4f()</text>
<text text-anchor="start" x="132" y="-982.5" font-family="Helvetica,sans-Serif" font-size="10.00">+ writeString()</text>
<text text-anchor="start" x="132" y="-971.5" font-family="Helvetica,sans-Serif" font-size="10.00">+ writeBool()</text>
<text text-anchor="start" x="132" y="-960.5" font-family="Helvetica,sans-Serif" font-size="10.00">+ writeInt()</text>
<text text-anchor="start" x="132" y="-949.5" font-family="Helvetica,sans-Serif" font-size="10.00">+ writeFloat()</text>
<text text-anchor="start" x="132" y="-938.5" font-family="Helvetica,sans-Serif" font-size="10.00">+ writeVec3f()</text>
<text text-anchor="start" x="132" y="-927.5" font-family="Helvetica,sans-Serif" font-size="10.00">+ writeVec4f()</text>
<text text-anchor="start" x="132" y="-916.5" font-family="Helvetica,sans-Serif" font-size="10.00">+ write()</text>
<text text-anchor="start" x="132" y="-905.5" font-family="Helvetica,sans-Serif" font-size="10.00">&#45; isLoaded()</text>
<text text-anchor="start" x="132" y="-894.5" font-family="Helvetica,sans-Serif" font-size="10.00">&#45; loadConfig()</text>
<text text-anchor="start" x="132" y="-883.5" font-family="Helvetica,sans-Serif" font-size="10.00">&#45; saveConfig()</text>
<text text-anchor="start" x="132" y="-872.5" font-family="Helvetica,sans-Serif" font-size="10.00">&#45; findElement()</text>
<text text-anchor="start" x="132" y="-861.5" font-family="Helvetica,sans-Serif" font-size="10.00">&#45; findOrCreateElement()</text>
</a>
</g>
</g>
<!-- Node3&#45;&gt;Node1 -->
<g id="edge2" class="edge"><title>Node3&#45;&gt;Node1</title>
<path fill="none" stroke="#404040" d="M140.291,-854.428C122.261,-797.705 103.452,-728.723 94.5,-665 78.2286,-549.18 98.0168,-518.829 103.5,-402 104.034,-390.618 104.617,-378.912 105.229,-367.105"/>
<polygon fill="none" stroke="#404040" points="105.247,-366.757 101.568,-360.556 105.877,-354.774 109.557,-360.976 105.247,-366.757"/>
<text text-anchor="middle" x="137" y="-657" font-family="Helvetica,sans-Serif" font-size="10.00"> #m_configManager</text>
</g>
<!-- Node4 -->
<g id="node4" class="node"><title>Node4</title>
<g id="a_node4"><a xlink:href="../../dc/dbc/class_tracker_manager.html" target="_top" xlink:title="Manager for all types of tracker.">
<polygon fill="white" stroke="black" points="112.5,-402.5 112.5,-635.5 254.5,-635.5 254.5,-402.5 112.5,-402.5"/>
<text text-anchor="middle" x="183.5" y="-623.5" font-family="Helvetica,sans-Serif" font-size="10.00">TrackerManager</text>
<polyline fill="none" stroke="black" points="112.5,-616.5 254.5,-616.5 "/>
<text text-anchor="start" x="120.5" y="-604.5" font-family="Helvetica,sans-Serif" font-size="10.00">+ TrackerTypeString</text>
<text text-anchor="start" x="120.5" y="-593.5" font-family="Helvetica,sans-Serif" font-size="10.00">&#45; m_trackerPool</text>
<text text-anchor="start" x="120.5" y="-582.5" font-family="Helvetica,sans-Serif" font-size="10.00">&#45; m_isTracking</text>
<text text-anchor="start" x="120.5" y="-571.5" font-family="Helvetica,sans-Serif" font-size="10.00">&#45; m_hasTrackerPoolChanged</text>
<text text-anchor="start" x="120.5" y="-560.5" font-family="Helvetica,sans-Serif" font-size="10.00">&#45; m_nextFreeTrackerID</text>
<text text-anchor="start" x="120.5" y="-549.5" font-family="Helvetica,sans-Serif" font-size="10.00">&#45; m_trackerPoolLock</text>
<polyline fill="none" stroke="black" points="112.5,-542.5 254.5,-542.5 "/>
<text text-anchor="start" x="120.5" y="-530.5" font-family="Helvetica,sans-Serif" font-size="10.00">+ TrackerManager()</text>
<text text-anchor="start" x="120.5" y="-519.5" font-family="Helvetica,sans-Serif" font-size="10.00">+ ~TrackerManager()</text>
<text text-anchor="start" x="120.5" y="-508.5" font-family="Helvetica,sans-Serif" font-size="10.00">+ createTracker()</text>
<text text-anchor="start" x="120.5" y="-497.5" font-family="Helvetica,sans-Serif" font-size="10.00">+ removeTrackerAt()</text>
<text text-anchor="start" x="120.5" y="-486.5" font-family="Helvetica,sans-Serif" font-size="10.00">+ startTracker()</text>
<text text-anchor="start" x="120.5" y="-475.5" font-family="Helvetica,sans-Serif" font-size="10.00">+ stopTracker()</text>
<text text-anchor="start" x="120.5" y="-464.5" font-family="Helvetica,sans-Serif" font-size="10.00">+ isTracking()</text>
<text text-anchor="start" x="120.5" y="-453.5" font-family="Helvetica,sans-Serif" font-size="10.00">+ hasTrackerPoolChanged()</text>
<text text-anchor="start" x="120.5" y="-442.5" font-family="Helvetica,sans-Serif" font-size="10.00">+ getPoolTracker()</text>
<text text-anchor="start" x="120.5" y="-431.5" font-family="Helvetica,sans-Serif" font-size="10.00">+ getTrackerRefAt()</text>
<text text-anchor="start" x="120.5" y="-420.5" font-family="Helvetica,sans-Serif" font-size="10.00">and 6 more...</text>
<text text-anchor="start" x="120.5" y="-409.5" font-family="Helvetica,sans-Serif" font-size="10.00">&#45; instantiateTracker()</text>
</a>
</g>
</g>
<!-- Node3&#45;&gt;Node4 -->
<g id="edge4" class="edge"><title>Node3&#45;&gt;Node4</title>
<path fill="none" stroke="#404040" d="M183.5,-854.332C183.5,-790.699 183.5,-712.735 183.5,-648.105"/>
<polygon fill="none" stroke="#404040" points="183.5,-647.782 179.5,-641.782 183.5,-635.782 187.5,-641.782 183.5,-647.782"/>
<text text-anchor="middle" x="225" y="-742.5" font-family="Helvetica,sans-Serif" font-size="10.00"> &#45;m_configManager</text>
</g>
<!-- Node5 -->
<g id="node5" class="node"><title>Node5</title>
<g id="a_node5"><a xlink:href="../../da/d21/class_network_manager.html" target="_top" xlink:title="Manager for different Network Sender and skeleton sending.">
<polygon fill="white" stroke="black" points="284.5,-683.5 284.5,-806.5 412.5,-806.5 412.5,-683.5 284.5,-683.5"/>
<text text-anchor="middle" x="348.5" y="-794.5" font-family="Helvetica,sans-Serif" font-size="10.00">NetworkManager</text>
<polyline fill="none" stroke="black" points="284.5,-787.5 412.5,-787.5 "/>
<text text-anchor="start" x="292.5" y="-775.5" font-family="Helvetica,sans-Serif" font-size="10.00">+ m_ipAddress</text>
<text text-anchor="start" x="292.5" y="-764.5" font-family="Helvetica,sans-Serif" font-size="10.00">&#45; m_poolSender</text>
<polyline fill="none" stroke="black" points="284.5,-757.5 412.5,-757.5 "/>
<text text-anchor="start" x="292.5" y="-745.5" font-family="Helvetica,sans-Serif" font-size="10.00">+ NetworkManager()</text>
<text text-anchor="start" x="292.5" y="-734.5" font-family="Helvetica,sans-Serif" font-size="10.00">+ sendSkeletonPool()</text>
<text text-anchor="start" x="292.5" y="-723.5" font-family="Helvetica,sans-Serif" font-size="10.00">+ createOSCSender()</text>
<text text-anchor="start" x="292.5" y="-712.5" font-family="Helvetica,sans-Serif" font-size="10.00">+ removeNetworkSender()</text>
<text text-anchor="start" x="292.5" y="-701.5" font-family="Helvetica,sans-Serif" font-size="10.00">+ setIPAddress()</text>
<text text-anchor="start" x="292.5" y="-690.5" font-family="Helvetica,sans-Serif" font-size="10.00">+ isValidIPAddress()</text>
</a>
</g>
</g>
<!-- Node3&#45;&gt;Node5 -->
<g id="edge6" class="edge"><title>Node3&#45;&gt;Node5</title>
<path fill="none" stroke="#404040" d="M243.069,-892.645C260.999,-867.706 280.498,-840.584 297.796,-816.524"/>
<polygon fill="none" stroke="#404040" points="297.806,-816.511 298.061,-809.304 304.811,-806.768 304.556,-813.974 297.806,-816.511"/>
<text text-anchor="middle" x="332" y="-828" font-family="Helvetica,sans-Serif" font-size="10.00"> &#45;m_configManager</text>
</g>
<!-- Node4&#45;&gt;Node1 -->
<g id="edge3" class="edge"><title>Node4&#45;&gt;Node1</title>
<path fill="none" stroke="#404040" d="M160.63,-402.113C158.355,-390.587 156.008,-378.692 153.636,-366.673"/>
<polygon fill="none" stroke="#404040" points="153.581,-366.393 148.495,-361.281 151.257,-354.621 156.343,-359.732 153.581,-366.393"/>
<text text-anchor="middle" x="208" y="-376" font-family="Helvetica,sans-Serif" font-size="10.00"> #m_refTrackerManager</text>
</g>
<!-- Node5&#45;&gt;Node4 -->
<g id="edge5" class="edge"><title>Node5&#45;&gt;Node4</title>
<path fill="none" stroke="#404040" d="M303.849,-683.382C290.867,-665.759 276.289,-645.968 261.879,-626.405"/>
<polygon fill="none" stroke="#404040" points="261.715,-626.183 254.936,-623.724 254.598,-616.521 261.377,-618.98 261.715,-626.183"/>
<text text-anchor="middle" x="333.5" y="-657" font-family="Helvetica,sans-Serif" font-size="10.00"> +m_networkManager</text>
</g>
<!-- Node6 -->
<g id="node6" class="node"><title>Node6</title>
<g id="a_node6"><a xlink:href="../../d7/d6e/class_osg_line.html" target="_top" xlink:title=" ">
<polygon fill="white" stroke="black" points="364,-419 364,-619 465,-619 465,-419 364,-419"/>
<text text-anchor="middle" x="414.5" y="-607" font-family="Helvetica,sans-Serif" font-size="10.00">OsgLine</text>
<polyline fill="none" stroke="black" points="364,-600 465,-600 "/>
<text text-anchor="start" x="372" y="-588" font-family="Helvetica,sans-Serif" font-size="10.00">&#45; m_scale</text>
<text text-anchor="start" x="372" y="-577" font-family="Helvetica,sans-Serif" font-size="10.00">&#45; m_thickness</text>
<text text-anchor="start" x="372" y="-566" font-family="Helvetica,sans-Serif" font-size="10.00">&#45; m_geode</text>
<text text-anchor="start" x="372" y="-555" font-family="Helvetica,sans-Serif" font-size="10.00">&#45; m_geom</text>
<text text-anchor="start" x="372" y="-544" font-family="Helvetica,sans-Serif" font-size="10.00">&#45; m_colors</text>
<text text-anchor="start" x="372" y="-533" font-family="Helvetica,sans-Serif" font-size="10.00">&#45; m_drawArrays</text>
<text text-anchor="start" x="372" y="-522" font-family="Helvetica,sans-Serif" font-size="10.00">&#45; m_vertices</text>
<text text-anchor="start" x="372" y="-511" font-family="Helvetica,sans-Serif" font-size="10.00">&#45; m_isDirty</text>
<text text-anchor="start" x="372" y="-500" font-family="Helvetica,sans-Serif" font-size="10.00">&#45; m_isDisplayed</text>
<polyline fill="none" stroke="black" points="364,-493 465,-493 "/>
<text text-anchor="start" x="372" y="-481" font-family="Helvetica,sans-Serif" font-size="10.00">+ OsgLine()</text>
<text text-anchor="start" x="372" y="-470" font-family="Helvetica,sans-Serif" font-size="10.00">+ ~OsgLine()</text>
<text text-anchor="start" x="372" y="-459" font-family="Helvetica,sans-Serif" font-size="10.00">+ createGeometry()</text>
<text text-anchor="start" x="372" y="-448" font-family="Helvetica,sans-Serif" font-size="10.00">+ draw()</text>
<text text-anchor="start" x="372" y="-437" font-family="Helvetica,sans-Serif" font-size="10.00">+ redraw()</text>
<text text-anchor="start" x="372" y="-426" font-family="Helvetica,sans-Serif" font-size="10.00">+ clear()</text>
</a>
</g>
</g>
<!-- Node6&#45;&gt;Node1 -->
<g id="edge7" class="edge"><title>Node6&#45;&gt;Node1</title>
<path fill="none" stroke="#404040" d="M363.948,-460.408C321.311,-411.834 259.207,-341.08 207.883,-282.609"/>
<polygon fill="none" stroke="#404040" points="207.659,-282.354 200.695,-280.484 199.743,-273.336 206.708,-275.206 207.659,-282.354"/>
<text text-anchor="middle" x="311" y="-376" font-family="Helvetica,sans-Serif" font-size="10.00"> #m_line</text>
</g>
<!-- Node7 -->
<g id="node7" class="node"><title>Node7</title>
<g id="a_node7"><a xlink:title=" ">
<polygon fill="white" stroke="#bfbfbf" points="430.5,-716.5 430.5,-773.5 580.5,-773.5 580.5,-716.5 430.5,-716.5"/>
<text text-anchor="middle" x="505.5" y="-761.5" font-family="Helvetica,sans-Serif" font-size="10.00">osg::PositionAttitudeTransform</text>
<polyline fill="none" stroke="#bfbfbf" points="430.5,-754.5 580.5,-754.5 "/>
<text text-anchor="middle" x="505.5" y="-742.5" font-family="Helvetica,sans-Serif" font-size="10.00"> </text>
<polyline fill="none" stroke="#bfbfbf" points="430.5,-735.5 580.5,-735.5 "/>
<text text-anchor="middle" x="505.5" y="-723.5" font-family="Helvetica,sans-Serif" font-size="10.00"> </text>
</a>
</g>
</g>
<!-- Node7&#45;&gt;Node6 -->
<g id="edge8" class="edge"><title>Node7&#45;&gt;Node6</title>
<path fill="none" stroke="midnightblue" d="M490.335,-706.671C480.589,-682.681 467.433,-650.297 454.816,-619.239"/>
<polygon fill="none" stroke="midnightblue" points="487.152,-708.136 494.159,-716.083 493.638,-705.501 487.152,-708.136"/>
</g>
</g>
</svg>
        <g id="navigator" transform="translate(0 0)" fill="#404254">
                <rect fill="#f2f5e9" fill-opacity="0.5" stroke="#606060" stroke-width=".5" x="0" y="0" width="60" height="60"/>
                <use id="zoomplus" xlink:href="#zoomPlus" x="17" y="9" onmousedown="handleZoom(evt,'in')"/>
                <use id="zoomminus" xlink:href="#zoomMin" x="42" y="9" onmousedown="handleZoom(evt,'out')"/>
                <use id="reset" xlink:href="#resetDef" x="30" y="36" onmousedown="handleReset()"/>
                <g id="arrowUp" xlink:href="#dirArrow" transform="translate(30 24)" onmousedown="handlePan(0,-1)">
                  <use xlink:href="#rim" fill="#404040">
                        <set attributeName="fill" to="#808080" begin="arrowUp.mouseover" end="arrowUp.mouseout"/>
                  </use>
                  <path fill="none" stroke="white" stroke-width="1.5" d="M0,-3.0v7 M-2.5,-0.5L0,-3.0L2.5,-0.5"/>
                </g>
                <g id="arrowRight" xlink:href="#dirArrow" transform="rotate(90) translate(36 -43)" onmousedown="handlePan(1,0)">
                  <use xlink:href="#rim" fill="#404040">
                        <set attributeName="fill" to="#808080" begin="arrowRight.mouseover" end="arrowRight.mouseout"/>
                  </use>
                  <path fill="none" stroke="white" stroke-width="1.5" d="M0,-3.0v7 M-2.5,-0.5L0,-3.0L2.5,-0.5"/>
                </g>
                <g id="arrowDown" xlink:href="#dirArrow" transform="rotate(180) translate(-30 -48)" onmousedown="handlePan(0,1)">
                  <use xlink:href="#rim" fill="#404040">
                        <set attributeName="fill" to="#808080" begin="arrowDown.mouseover" end="arrowDown.mouseout"/>
                  </use>
                  <path fill="none" stroke="white" stroke-width="1.5" d="M0,-3.0v7 M-2.5,-0.5L0,-3.0L2.5,-0.5"/>
                </g>
                <g id="arrowLeft" xlink:href="#dirArrow" transform="rotate(270) translate(-36 17)" onmousedown="handlePan(-1,0)">
                  <use xlink:href="#rim" fill="#404040">
                        <set attributeName="fill" to="#808080" begin="arrowLeft.mouseover" end="arrowLeft.mouseout"/>
                  </use>
                  <path fill="none" stroke="white" stroke-width="1.5" d="M0,-3.0v7 M-2.5,-0.5L0,-3.0L2.5,-0.5"/>
                </g>
        </g>
        <svg viewBox="0 0 15 15" width="100%" height="30px" preserveAspectRatio="xMaxYMin meet">
         <g id="arrow_out" transform="scale(0.3 0.3)">
          <a xlink:href="class_osg_qt_widget__coll__graph_org.svg" target="_base">
           <rect id="button" ry="5" rx="5" y="6" x="6" height="38" width="38"
                fill="#f2f5e9" fill-opacity="0.5" stroke="#606060" stroke-width="1.0"/>
           <path id="arrow"
             d="M 11.500037,31.436501 C 11.940474,20.09759 22.043105,11.32322 32.158766,21.979434 L 37.068811,17.246167 C 37.068811,17.246167 37.088388,32 37.088388,32 L 22.160133,31.978069 C 22.160133,31.978069 26.997745,27.140456 26.997745,27.140456 C 18.528582,18.264221 13.291696,25.230495 11.500037,31.436501 z"
             style="fill:#404040;"/>
          </a>
         </g>
        </svg>
</svg>
