<?xml version="1.0" encoding="UTF-8" standalone="no"?>
<!DOCTYPE svg PUBLIC "-//W3C//DTD SVG 1.1//EN"
 "http://www.w3.org/Graphics/SVG/1.1/DTD/svg11.dtd">
<!-- Generated by graphviz version 2.38.0 (20140413.2041)
 -->
<!-- Title: CapturyActorContinuedPacket Pages: 1 -->
<svg width="156pt" height="237pt"
 viewBox="0.00 0.00 156.00 237.00" xmlns="http://www.w3.org/2000/svg" xmlns:xlink="http://www.w3.org/1999/xlink">
<g id="graph0" class="graph" transform="scale(1 1) rotate(0) translate(4 233)">
<title>CapturyActorContinuedPacket</title>
<polygon fill="white" stroke="none" points="-4,4 -4,-233 152,-233 152,4 -4,4"/>
<!-- Node1 -->
<g id="node1" class="node"><title>Node1</title>
<g id="a_node1"><a xlink:title=" ">
<polygon fill="#bfbfbf" stroke="black" points="0,-0.5 0,-90.5 148,-90.5 148,-0.5 0,-0.5"/>
<text text-anchor="middle" x="74" y="-78.5" font-family="Helvetica,sans-Serif" font-size="10.00">CapturyActorContinuedPacket</text>
<polyline fill="none" stroke="black" points="0,-71.5 148,-71.5 "/>
<text text-anchor="start" x="8" y="-59.5" font-family="Helvetica,sans-Serif" font-size="10.00">+ type</text>
<text text-anchor="start" x="8" y="-48.5" font-family="Helvetica,sans-Serif" font-size="10.00">+ size</text>
<text text-anchor="start" x="8" y="-37.5" font-family="Helvetica,sans-Serif" font-size="10.00">+ id</text>
<text text-anchor="start" x="8" y="-26.5" font-family="Helvetica,sans-Serif" font-size="10.00">+ startJoint</text>
<polyline fill="none" stroke="black" points="0,-19.5 148,-19.5 "/>
<text text-anchor="middle" x="74" y="-7.5" font-family="Helvetica,sans-Serif" font-size="10.00"> </text>
</a>
</g>
</g>
<!-- Node2 -->
<g id="node2" class="node"><title>Node2</title>
<g id="a_node2"><a xlink:href="../../d5/dd7/struct_captury_joint_packet.html" target="_top" xlink:title=" ">
<polygon fill="white" stroke="black" points="23.5,-138.5 23.5,-228.5 124.5,-228.5 124.5,-138.5 23.5,-138.5"/>
<text text-anchor="middle" x="74" y="-216.5" font-family="Helvetica,sans-Serif" font-size="10.00">CapturyJointPacket</text>
<polyline fill="none" stroke="black" points="23.5,-209.5 124.5,-209.5 "/>
<text text-anchor="start" x="31.5" y="-197.5" font-family="Helvetica,sans-Serif" font-size="10.00">+ name</text>
<text text-anchor="start" x="31.5" y="-186.5" font-family="Helvetica,sans-Serif" font-size="10.00">+ parent</text>
<text text-anchor="start" x="31.5" y="-175.5" font-family="Helvetica,sans-Serif" font-size="10.00">+ offset</text>
<text text-anchor="start" x="31.5" y="-164.5" font-family="Helvetica,sans-Serif" font-size="10.00">+ orientation</text>
<polyline fill="none" stroke="black" points="23.5,-157.5 124.5,-157.5 "/>
<text text-anchor="middle" x="74" y="-145.5" font-family="Helvetica,sans-Serif" font-size="10.00"> </text>
</a>
</g>
</g>
<!-- Node2&#45;&gt;Node1 -->
<g id="edge1" class="edge"><title>Node2&#45;&gt;Node1</title>
<path fill="none" stroke="#404040" d="M74,-138.345C74,-127.062 74,-114.777 74,-102.969"/>
<polygon fill="none" stroke="#404040" points="74.0001,-102.899 70,-96.8992 74,-90.8992 78,-96.8991 74.0001,-102.899"/>
<text text-anchor="middle" x="90.5" y="-112" font-family="Helvetica,sans-Serif" font-size="10.00"> +joints</text>
</g>
</g>
</svg>
