<?xml version="1.0" encoding="UTF-8" standalone="no"?>
<!DOCTYPE svg PUBLIC "-//W3C//DTD SVG 1.1//EN"
 "http://www.w3.org/Graphics/SVG/1.1/DTD/svg11.dtd">
<!-- Generated by graphviz version 2.38.0 (20140413.2041)
 -->
<!-- Title: CapturyActor Pages: 1 -->
<svg width="168pt" height="248pt"
 viewBox="0.00 0.00 167.50 248.00" xmlns="http://www.w3.org/2000/svg" xmlns:xlink="http://www.w3.org/1999/xlink">
<g id="graph0" class="graph" transform="scale(1 1) rotate(0) translate(4 244)">
<title>CapturyActor</title>
<polygon fill="white" stroke="none" points="-4,4 -4,-244 163.5,-244 163.5,4 -4,4"/>
<!-- Node1 -->
<g id="node1" class="node"><title>Node1</title>
<g id="a_node1"><a xlink:title=" ">
<polygon fill="#bfbfbf" stroke="black" points="42,-0.5 42,-101.5 116,-101.5 116,-0.5 42,-0.5"/>
<text text-anchor="middle" x="79" y="-89.5" font-family="Helvetica,sans-Serif" font-size="10.00">CapturyActor</text>
<polyline fill="none" stroke="black" points="42,-82.5 116,-82.5 "/>
<text text-anchor="start" x="50" y="-70.5" font-family="Helvetica,sans-Serif" font-size="10.00">+ name</text>
<text text-anchor="start" x="50" y="-59.5" font-family="Helvetica,sans-Serif" font-size="10.00">+ id</text>
<text text-anchor="start" x="50" y="-48.5" font-family="Helvetica,sans-Serif" font-size="10.00">+ numJoints</text>
<text text-anchor="start" x="50" y="-37.5" font-family="Helvetica,sans-Serif" font-size="10.00">+ numBlobs</text>
<text text-anchor="start" x="50" y="-26.5" font-family="Helvetica,sans-Serif" font-size="10.00">+ padding</text>
<polyline fill="none" stroke="black" points="42,-19.5 116,-19.5 "/>
<text text-anchor="middle" x="79" y="-7.5" font-family="Helvetica,sans-Serif" font-size="10.00"> </text>
</a>
</g>
</g>
<!-- Node2 -->
<g id="node2" class="node"><title>Node2</title>
<g id="a_node2"><a xlink:href="../../df/d3e/struct_captury_blob.html" target="_top" xlink:title=" ">
<polygon fill="white" stroke="black" points="0,-149.5 0,-239.5 70,-239.5 70,-149.5 0,-149.5"/>
<text text-anchor="middle" x="35" y="-227.5" font-family="Helvetica,sans-Serif" font-size="10.00">CapturyBlob</text>
<polyline fill="none" stroke="black" points="0,-220.5 70,-220.5 "/>
<text text-anchor="start" x="8" y="-208.5" font-family="Helvetica,sans-Serif" font-size="10.00">+ parent</text>
<text text-anchor="start" x="8" y="-197.5" font-family="Helvetica,sans-Serif" font-size="10.00">+ offset</text>
<text text-anchor="start" x="8" y="-186.5" font-family="Helvetica,sans-Serif" font-size="10.00">+ size</text>
<text text-anchor="start" x="8" y="-175.5" font-family="Helvetica,sans-Serif" font-size="10.00">+ color</text>
<polyline fill="none" stroke="black" points="0,-168.5 70,-168.5 "/>
<text text-anchor="middle" x="35" y="-156.5" font-family="Helvetica,sans-Serif" font-size="10.00"> </text>
</a>
</g>
</g>
<!-- Node2&#45;&gt;Node1 -->
<g id="edge1" class="edge"><title>Node2&#45;&gt;Node1</title>
<path fill="none" stroke="#404040" d="M48.8012,-149.117C52.3169,-137.81 56.1587,-125.456 59.8878,-113.463"/>
<polygon fill="none" stroke="#404040" points="59.9999,-113.102 57.9619,-106.185 63.5631,-101.644 65.6011,-108.561 59.9999,-113.102"/>
<text text-anchor="middle" x="73.5" y="-123" font-family="Helvetica,sans-Serif" font-size="10.00"> +blobs</text>
</g>
<!-- Node3 -->
<g id="node3" class="node"><title>Node3</title>
<g id="a_node3"><a xlink:href="../../de/d23/struct_captury_joint.html" target="_top" xlink:title=" ">
<polygon fill="white" stroke="black" points="88.5,-149.5 88.5,-239.5 159.5,-239.5 159.5,-149.5 88.5,-149.5"/>
<text text-anchor="middle" x="124" y="-227.5" font-family="Helvetica,sans-Serif" font-size="10.00">CapturyJoint</text>
<polyline fill="none" stroke="black" points="88.5,-220.5 159.5,-220.5 "/>
<text text-anchor="start" x="96.5" y="-208.5" font-family="Helvetica,sans-Serif" font-size="10.00">+ name</text>
<text text-anchor="start" x="96.5" y="-197.5" font-family="Helvetica,sans-Serif" font-size="10.00">+ parent</text>
<text text-anchor="start" x="96.5" y="-186.5" font-family="Helvetica,sans-Serif" font-size="10.00">+ offset</text>
<text text-anchor="start" x="96.5" y="-175.5" font-family="Helvetica,sans-Serif" font-size="10.00">+ orientation</text>
<polyline fill="none" stroke="black" points="88.5,-168.5 159.5,-168.5 "/>
<text text-anchor="middle" x="124" y="-156.5" font-family="Helvetica,sans-Serif" font-size="10.00"> </text>
</a>
</g>
</g>
<!-- Node3&#45;&gt;Node1 -->
<g id="edge2" class="edge"><title>Node3&#45;&gt;Node1</title>
<path fill="none" stroke="#404040" d="M109.885,-149.117C106.252,-137.693 102.279,-125.198 98.4274,-113.088"/>
<polygon fill="none" stroke="#404040" points="98.4246,-113.079 92.7943,-108.574 94.7877,-101.644 100.418,-106.149 98.4246,-113.079"/>
<text text-anchor="middle" x="119.5" y="-123" font-family="Helvetica,sans-Serif" font-size="10.00"> +joints</text>
</g>
</g>
</svg>
