<?xml version="1.0" encoding="UTF-8" standalone="no"?>
<!DOCTYPE svg PUBLIC "-//W3C//DTD SVG 1.1//EN"
 "http://www.w3.org/Graphics/SVG/1.1/DTD/svg11.dtd">
<!-- Generated by graphviz version 2.38.0 (20140413.2041)
 -->
<!-- Title: C:/dev/projects/MotionHub/src/TrackerManagement/xs_quaterniondatagram.cpp Pages: 1 -->
<svg width="384pt" height="274pt"
 viewBox="0.00 0.00 383.50 274.00" xmlns="http://www.w3.org/2000/svg" xmlns:xlink="http://www.w3.org/1999/xlink">
<g id="graph0" class="graph" transform="scale(1 1) rotate(0) translate(4 270)">
<title>C:/dev/projects/MotionHub/src/TrackerManagement/xs_quaterniondatagram.cpp</title>
<polygon fill="white" stroke="none" points="-4,4 -4,-270 379.5,-270 379.5,4 -4,4"/>
<!-- Node1 -->
<g id="node1" class="node"><title>Node1</title>
<g id="a_node1"><a xlink:title=" ">
<polygon fill="#bfbfbf" stroke="black" points="193,-224.5 193,-265.5 333,-265.5 333,-224.5 193,-224.5"/>
<text text-anchor="start" x="201" y="-253.5" font-family="Helvetica,sans-Serif" font-size="10.00">C:/dev/projects/MotionHub</text>
<text text-anchor="start" x="201" y="-242.5" font-family="Helvetica,sans-Serif" font-size="10.00">/src/TrackerManagement</text>
<text text-anchor="middle" x="263" y="-231.5" font-family="Helvetica,sans-Serif" font-size="10.00">/xs_quaterniondatagram.cpp</text>
</a>
</g>
</g>
<!-- Node2 -->
<g id="node2" class="node"><title>Node2</title>
<g id="a_node2"><a xlink:href="../../d3/ddb/xs__quaterniondatagram_8h.html" target="_top" xlink:title=" ">
<polygon fill="white" stroke="black" points="136,-168.5 136,-187.5 262,-187.5 262,-168.5 136,-168.5"/>
<text text-anchor="middle" x="199" y="-175.5" font-family="Helvetica,sans-Serif" font-size="10.00">xs_quaterniondatagram.h</text>
</a>
</g>
</g>
<!-- Node1&#45;&gt;Node2 -->
<g id="edge1" class="edge"><title>Node1&#45;&gt;Node2</title>
<path fill="none" stroke="midnightblue" d="M243.798,-224.498C234.457,-215.011 223.375,-203.756 214.57,-194.813"/>
<polygon fill="midnightblue" stroke="midnightblue" points="217.029,-192.323 207.519,-187.652 212.041,-197.234 217.029,-192.323"/>
</g>
<!-- Node11 -->
<g id="node11" class="node"><title>Node11</title>
<g id="a_node11"><a xlink:title=" ">
<polygon fill="white" stroke="#bfbfbf" points="280.5,-168.5 280.5,-187.5 375.5,-187.5 375.5,-168.5 280.5,-168.5"/>
<text text-anchor="middle" x="328" y="-175.5" font-family="Helvetica,sans-Serif" font-size="10.00">xstypes/xsmath.h</text>
</a>
</g>
</g>
<!-- Node1&#45;&gt;Node11 -->
<g id="edge13" class="edge"><title>Node1&#45;&gt;Node11</title>
<path fill="none" stroke="midnightblue" d="M282.502,-224.498C291.989,-215.011 303.244,-203.756 312.187,-194.813"/>
<polygon fill="midnightblue" stroke="midnightblue" points="314.751,-197.198 319.348,-187.652 309.802,-192.249 314.751,-197.198"/>
</g>
<!-- Node3 -->
<g id="node3" class="node"><title>Node3</title>
<g id="a_node3"><a xlink:href="../../d1/d43/xs__datagram_8h.html" target="_top" xlink:title=" ">
<polygon fill="white" stroke="black" points="158.5,-112.5 158.5,-131.5 239.5,-131.5 239.5,-112.5 158.5,-112.5"/>
<text text-anchor="middle" x="199" y="-119.5" font-family="Helvetica,sans-Serif" font-size="10.00">xs_datagram.h</text>
</a>
</g>
</g>
<!-- Node2&#45;&gt;Node3 -->
<g id="edge2" class="edge"><title>Node2&#45;&gt;Node3</title>
<path fill="none" stroke="midnightblue" d="M199,-168.083C199,-161.006 199,-150.861 199,-141.986"/>
<polygon fill="midnightblue" stroke="midnightblue" points="202.5,-141.751 199,-131.751 195.5,-141.751 202.5,-141.751"/>
</g>
<!-- Node4 -->
<g id="node4" class="node"><title>Node4</title>
<g id="a_node4"><a xlink:title=" ">
<polygon fill="white" stroke="#bfbfbf" points="0,-0.5 0,-19.5 52,-19.5 52,-0.5 0,-0.5"/>
<text text-anchor="middle" x="26" y="-7.5" font-family="Helvetica,sans-Serif" font-size="10.00">memory</text>
</a>
</g>
</g>
<!-- Node3&#45;&gt;Node4 -->
<g id="edge3" class="edge"><title>Node3&#45;&gt;Node4</title>
<path fill="none" stroke="midnightblue" d="M176.134,-112.463C155.878,-104.426 125.898,-91.3501 102,-76 79.5674,-61.5912 56.7007,-41.0802 41.9925,-26.9724"/>
<polygon fill="midnightblue" stroke="midnightblue" points="44.3173,-24.3507 34.7152,-19.873 39.4291,-29.3614 44.3173,-24.3507"/>
</g>
<!-- Node5 -->
<g id="node5" class="node"><title>Node5</title>
<g id="a_node5"><a xlink:title=" ">
<polygon fill="white" stroke="#bfbfbf" points="70,-0.5 70,-19.5 124,-19.5 124,-0.5 70,-0.5"/>
<text text-anchor="middle" x="97" y="-7.5" font-family="Helvetica,sans-Serif" font-size="10.00">iostream</text>
</a>
</g>
</g>
<!-- Node3&#45;&gt;Node5 -->
<g id="edge4" class="edge"><title>Node3&#45;&gt;Node5</title>
<path fill="none" stroke="midnightblue" d="M171.41,-112.35C153.218,-105.302 130.209,-93.6003 116,-76 105.278,-62.7184 100.606,-43.5948 98.5709,-29.5276"/>
<polygon fill="midnightblue" stroke="midnightblue" points="102.043,-29.0805 97.4387,-19.5383 95.0872,-29.8689 102.043,-29.0805"/>
</g>
<!-- Node6 -->
<g id="node6" class="node"><title>Node6</title>
<g id="a_node6"><a xlink:title=" ">
<polygon fill="white" stroke="#bfbfbf" points="274,-0.5 274,-19.5 326,-19.5 326,-0.5 274,-0.5"/>
<text text-anchor="middle" x="300" y="-7.5" font-family="Helvetica,sans-Serif" font-size="10.00">sstream</text>
</a>
</g>
</g>
<!-- Node3&#45;&gt;Node6 -->
<g id="edge5" class="edge"><title>Node3&#45;&gt;Node6</title>
<path fill="none" stroke="midnightblue" d="M205.692,-112.323C215.613,-99.6056 234.996,-75.319 253,-56 262.531,-45.7729 273.83,-34.918 282.961,-26.4321"/>
<polygon fill="midnightblue" stroke="midnightblue" points="285.334,-29.0043 290.328,-19.6599 280.597,-23.8509 285.334,-29.0043"/>
</g>
<!-- Node7 -->
<g id="node7" class="node"><title>Node7</title>
<g id="a_node7"><a xlink:title=" ">
<polygon fill="white" stroke="#bfbfbf" points="261.5,-56.5 261.5,-75.5 296.5,-75.5 296.5,-56.5 261.5,-56.5"/>
<text text-anchor="middle" x="279" y="-63.5" font-family="Helvetica,sans-Serif" font-size="10.00">map</text>
</a>
</g>
</g>
<!-- Node3&#45;&gt;Node7 -->
<g id="edge6" class="edge"><title>Node3&#45;&gt;Node7</title>
<path fill="none" stroke="midnightblue" d="M211.853,-112.324C224.216,-103.979 243.13,-91.2122 257.737,-81.3524"/>
<polygon fill="midnightblue" stroke="midnightblue" points="259.848,-84.1503 266.179,-75.6545 255.932,-78.3483 259.848,-84.1503"/>
</g>
<!-- Node8 -->
<g id="node8" class="node"><title>Node8</title>
<g id="a_node8"><a xlink:title=" ">
<polygon fill="white" stroke="#bfbfbf" points="315,-56.5 315,-75.5 357,-75.5 357,-56.5 315,-56.5"/>
<text text-anchor="middle" x="336" y="-63.5" font-family="Helvetica,sans-Serif" font-size="10.00">vector</text>
</a>
</g>
</g>
<!-- Node3&#45;&gt;Node8 -->
<g id="edge7" class="edge"><title>Node3&#45;&gt;Node8</title>
<path fill="none" stroke="midnightblue" d="M220.708,-112.444C243.488,-103.465 279.493,-89.2729 305.204,-79.1386"/>
<polygon fill="midnightblue" stroke="midnightblue" points="306.824,-82.2623 314.844,-75.339 304.257,-75.7499 306.824,-82.2623"/>
</g>
<!-- Node9 -->
<g id="node9" class="node"><title>Node9</title>
<g id="a_node9"><a xlink:href="../../dd/dce/xs__streamer_8h.html" target="_top" xlink:title=" ">
<polygon fill="white" stroke="black" points="125.5,-56.5 125.5,-75.5 204.5,-75.5 204.5,-56.5 125.5,-56.5"/>
<text text-anchor="middle" x="165" y="-63.5" font-family="Helvetica,sans-Serif" font-size="10.00">xs_streamer.h</text>
</a>
</g>
</g>
<!-- Node3&#45;&gt;Node9 -->
<g id="edge8" class="edge"><title>Node3&#45;&gt;Node9</title>
<path fill="none" stroke="midnightblue" d="M193.386,-112.083C188.633,-104.534 181.682,-93.4948 175.848,-84.2298"/>
<polygon fill="midnightblue" stroke="midnightblue" points="178.8,-82.3486 170.51,-75.7511 172.876,-86.0783 178.8,-82.3486"/>
</g>
<!-- Node9&#45;&gt;Node4 -->
<g id="edge9" class="edge"><title>Node9&#45;&gt;Node4</title>
<path fill="none" stroke="midnightblue" d="M142.975,-56.4435C119.896,-47.4776 83.438,-33.314 57.3591,-23.1827"/>
<polygon fill="midnightblue" stroke="midnightblue" points="58.5107,-19.8753 47.9219,-19.5164 55.9758,-26.4002 58.5107,-19.8753"/>
</g>
<!-- Node9&#45;&gt;Node5 -->
<g id="edge10" class="edge"><title>Node9&#45;&gt;Node5</title>
<path fill="none" stroke="midnightblue" d="M154.075,-56.324C143.825,-48.1849 128.279,-35.8395 115.999,-26.0874"/>
<polygon fill="midnightblue" stroke="midnightblue" points="118.132,-23.3119 108.124,-19.8339 113.779,-28.7937 118.132,-23.3119"/>
</g>
<!-- Node9&#45;&gt;Node6 -->
<g id="edge11" class="edge"><title>Node9&#45;&gt;Node6</title>
<path fill="none" stroke="midnightblue" d="M186.391,-56.4435C208.707,-47.5171 243.903,-33.4387 269.208,-23.3168"/>
<polygon fill="midnightblue" stroke="midnightblue" points="270.724,-26.4801 278.709,-19.5164 268.124,-19.9807 270.724,-26.4801"/>
</g>
<!-- Node10 -->
<g id="node10" class="node"><title>Node10</title>
<g id="a_node10"><a xlink:title=" ">
<polygon fill="white" stroke="#bfbfbf" points="142.5,-0.5 142.5,-19.5 255.5,-19.5 255.5,-0.5 142.5,-0.5"/>
<text text-anchor="middle" x="199" y="-7.5" font-family="Helvetica,sans-Serif" font-size="10.00">xstypes/xsbytearray.h</text>
</a>
</g>
</g>
<!-- Node9&#45;&gt;Node10 -->
<g id="edge12" class="edge"><title>Node9&#45;&gt;Node10</title>
<path fill="none" stroke="midnightblue" d="M170.614,-56.083C175.367,-48.5341 182.318,-37.4948 188.152,-28.2298"/>
<polygon fill="midnightblue" stroke="midnightblue" points="191.124,-30.0783 193.49,-19.7511 185.2,-26.3486 191.124,-30.0783"/>
</g>
</g>
</svg>
