<?xml version="1.0" encoding="UTF-8" standalone="no"?>
<!DOCTYPE svg PUBLIC "-//W3C//DTD SVG 1.1//EN"
 "http://www.w3.org/Graphics/SVG/1.1/DTD/svg11.dtd">
<!-- Generated by graphviz version 2.38.0 (20140413.2041)
 -->
<!-- Title: DataHandlerManager Pages: 1 -->
<svg width="378pt" height="942pt"
 viewBox="0.00 0.00 378.00 942.00" xmlns="http://www.w3.org/2000/svg" xmlns:xlink="http://www.w3.org/1999/xlink">
<g id="graph0" class="graph" transform="scale(1 1) rotate(0) translate(4 938)">
<title>DataHandlerManager</title>
<polygon fill="white" stroke="none" points="-4,4 -4,-938 374,-938 374,4 -4,4"/>
<!-- Node1 -->
<g id="node1" class="node"><title>Node1</title>
<g id="a_node1"><a xlink:title="helper class for DataHandler method callback">
<polygon fill="#bfbfbf" stroke="black" points="115.5,-0.5 115.5,-101.5 237.5,-101.5 237.5,-0.5 115.5,-0.5"/>
<text text-anchor="middle" x="176.5" y="-89.5" font-family="Helvetica,sans-Serif" font-size="10.00">DataHandlerManager</text>
<polyline fill="none" stroke="black" points="115.5,-82.5 237.5,-82.5 "/>
<text text-anchor="start" x="123.5" y="-70.5" font-family="Helvetica,sans-Serif" font-size="10.00">&#45; m_data</text>
<text text-anchor="start" x="123.5" y="-59.5" font-family="Helvetica,sans-Serif" font-size="10.00">&#45; m_isDataAvailable</text>
<polyline fill="none" stroke="black" points="115.5,-52.5 237.5,-52.5 "/>
<text text-anchor="start" x="123.5" y="-40.5" font-family="Helvetica,sans-Serif" font-size="10.00">+ DataHandlerManager()</text>
<text text-anchor="start" x="123.5" y="-29.5" font-family="Helvetica,sans-Serif" font-size="10.00">+ getData()</text>
<text text-anchor="start" x="123.5" y="-18.5" font-family="Helvetica,sans-Serif" font-size="10.00">+ isDataAvailable()</text>
<text text-anchor="start" x="123.5" y="-7.5" font-family="Helvetica,sans-Serif" font-size="10.00">+ DataHandler()</text>
</a>
</g>
</g>
<!-- Node2 -->
<g id="node2" class="node"><title>Node2</title>
<g id="a_node2"><a xlink:href="../../de/dbb/class_tracker.html" target="_top" xlink:title="Prototype class for implemetation &#45; holds virtual methods.">
<polygon fill="white" stroke="black" points="101.5,-149.5 101.5,-470.5 251.5,-470.5 251.5,-149.5 101.5,-149.5"/>
<text text-anchor="middle" x="176.5" y="-458.5" font-family="Helvetica,sans-Serif" font-size="10.00">Tracker</text>
<polyline fill="none" stroke="black" points="101.5,-451.5 251.5,-451.5 "/>
<text text-anchor="start" x="109.5" y="-439.5" font-family="Helvetica,sans-Serif" font-size="10.00"># m_isTracking</text>
<text text-anchor="start" x="109.5" y="-428.5" font-family="Helvetica,sans-Serif" font-size="10.00"># m_isEnabled</text>
<text text-anchor="start" x="109.5" y="-417.5" font-family="Helvetica,sans-Serif" font-size="10.00"># m_countDetectedSkeleton</text>
<text text-anchor="start" x="109.5" y="-406.5" font-family="Helvetica,sans-Serif" font-size="10.00"># m_offsetMatrix</text>
<text text-anchor="start" x="109.5" y="-395.5" font-family="Helvetica,sans-Serif" font-size="10.00"># m_rotationOffset</text>
<text text-anchor="start" x="109.5" y="-384.5" font-family="Helvetica,sans-Serif" font-size="10.00"># m_isDataAvailable</text>
<text text-anchor="start" x="109.5" y="-373.5" font-family="Helvetica,sans-Serif" font-size="10.00"># m_hasSkeletonPoolChanged</text>
<text text-anchor="start" x="109.5" y="-362.5" font-family="Helvetica,sans-Serif" font-size="10.00"># m_trackingThread</text>
<text text-anchor="start" x="109.5" y="-351.5" font-family="Helvetica,sans-Serif" font-size="10.00"># m_skeletonPool</text>
<text text-anchor="start" x="109.5" y="-340.5" font-family="Helvetica,sans-Serif" font-size="10.00"># m_skeletonPoolCache</text>
<text text-anchor="start" x="109.5" y="-329.5" font-family="Helvetica,sans-Serif" font-size="10.00">and 6 more...</text>
<polyline fill="none" stroke="black" points="101.5,-322.5 251.5,-322.5 "/>
<text text-anchor="start" x="109.5" y="-310.5" font-family="Helvetica,sans-Serif" font-size="10.00">+ Tracker()</text>
<text text-anchor="start" x="109.5" y="-299.5" font-family="Helvetica,sans-Serif" font-size="10.00">+ ~Tracker()</text>
<text text-anchor="start" x="109.5" y="-288.5" font-family="Helvetica,sans-Serif" font-size="10.00">+ start()</text>
<text text-anchor="start" x="109.5" y="-277.5" font-family="Helvetica,sans-Serif" font-size="10.00">+ stop()</text>
<text text-anchor="start" x="109.5" y="-266.5" font-family="Helvetica,sans-Serif" font-size="10.00">+ disable()</text>
<text text-anchor="start" x="109.5" y="-255.5" font-family="Helvetica,sans-Serif" font-size="10.00">+ enable()</text>
<text text-anchor="start" x="109.5" y="-244.5" font-family="Helvetica,sans-Serif" font-size="10.00">+ clean()</text>
<text text-anchor="start" x="109.5" y="-233.5" font-family="Helvetica,sans-Serif" font-size="10.00">+ isTracking()</text>
<text text-anchor="start" x="109.5" y="-222.5" font-family="Helvetica,sans-Serif" font-size="10.00">+ isEnabled()</text>
<text text-anchor="start" x="109.5" y="-211.5" font-family="Helvetica,sans-Serif" font-size="10.00">+ isDataAvailable()</text>
<text text-anchor="start" x="109.5" y="-200.5" font-family="Helvetica,sans-Serif" font-size="10.00">and 23 more...</text>
<text text-anchor="start" x="109.5" y="-189.5" font-family="Helvetica,sans-Serif" font-size="10.00"># getTrackerIdentifier()</text>
<text text-anchor="start" x="109.5" y="-178.5" font-family="Helvetica,sans-Serif" font-size="10.00"># readOffsetFromConfig()</text>
<text text-anchor="start" x="109.5" y="-167.5" font-family="Helvetica,sans-Serif" font-size="10.00"># update()</text>
<text text-anchor="start" x="109.5" y="-156.5" font-family="Helvetica,sans-Serif" font-size="10.00"># track()</text>
</a>
</g>
</g>
<!-- Node2&#45;&gt;Node1 -->
<g id="edge1" class="edge"><title>Node2&#45;&gt;Node1</title>
<path fill="none" stroke="#404040" d="M176.5,-149.161C176.5,-136.775 176.5,-124.803 176.5,-113.744"/>
<polygon fill="none" stroke="#404040" points="176.5,-113.674 172.5,-107.674 176.5,-101.674 180.5,-107.673 176.5,-113.674"/>
<text text-anchor="middle" x="201.5" y="-123" font-family="Helvetica,sans-Serif" font-size="10.00"> &#45;m_tracker</text>
</g>
<!-- Node3 -->
<g id="node3" class="node"><title>Node3</title>
<g id="a_node3"><a xlink:href="../../d4/daf/class_config_manager.html" target="_top" xlink:title=" ">
<polygon fill="white" stroke="black" points="0,-689.5 0,-933.5 119,-933.5 119,-689.5 0,-689.5"/>
<text text-anchor="middle" x="59.5" y="-921.5" font-family="Helvetica,sans-Serif" font-size="10.00">ConfigManager</text>
<polyline fill="none" stroke="black" points="0,-914.5 119,-914.5 "/>
<text text-anchor="start" x="8" y="-902.5" font-family="Helvetica,sans-Serif" font-size="10.00">&#45; m_config</text>
<polyline fill="none" stroke="black" points="0,-895.5 119,-895.5 "/>
<text text-anchor="start" x="8" y="-883.5" font-family="Helvetica,sans-Serif" font-size="10.00">+ readString()</text>
<text text-anchor="start" x="8" y="-872.5" font-family="Helvetica,sans-Serif" font-size="10.00">+ readBool()</text>
<text text-anchor="start" x="8" y="-861.5" font-family="Helvetica,sans-Serif" font-size="10.00">+ readInt()</text>
<text text-anchor="start" x="8" y="-850.5" font-family="Helvetica,sans-Serif" font-size="10.00">+ readFloat()</text>
<text text-anchor="start" x="8" y="-839.5" font-family="Helvetica,sans-Serif" font-size="10.00">+ readVec3f()</text>
<text text-anchor="start" x="8" y="-828.5" font-family="Helvetica,sans-Serif" font-size="10.00">+ readVec4f()</text>
<text text-anchor="start" x="8" y="-817.5" font-family="Helvetica,sans-Serif" font-size="10.00">+ writeString()</text>
<text text-anchor="start" x="8" y="-806.5" font-family="Helvetica,sans-Serif" font-size="10.00">+ writeBool()</text>
<text text-anchor="start" x="8" y="-795.5" font-family="Helvetica,sans-Serif" font-size="10.00">+ writeInt()</text>
<text text-anchor="start" x="8" y="-784.5" font-family="Helvetica,sans-Serif" font-size="10.00">+ writeFloat()</text>
<text text-anchor="start" x="8" y="-773.5" font-family="Helvetica,sans-Serif" font-size="10.00">+ writeVec3f()</text>
<text text-anchor="start" x="8" y="-762.5" font-family="Helvetica,sans-Serif" font-size="10.00">+ writeVec4f()</text>
<text text-anchor="start" x="8" y="-751.5" font-family="Helvetica,sans-Serif" font-size="10.00">+ write()</text>
<text text-anchor="start" x="8" y="-740.5" font-family="Helvetica,sans-Serif" font-size="10.00">&#45; isLoaded()</text>
<text text-anchor="start" x="8" y="-729.5" font-family="Helvetica,sans-Serif" font-size="10.00">&#45; loadConfig()</text>
<text text-anchor="start" x="8" y="-718.5" font-family="Helvetica,sans-Serif" font-size="10.00">&#45; saveConfig()</text>
<text text-anchor="start" x="8" y="-707.5" font-family="Helvetica,sans-Serif" font-size="10.00">&#45; findElement()</text>
<text text-anchor="start" x="8" y="-696.5" font-family="Helvetica,sans-Serif" font-size="10.00">&#45; findOrCreateElement()</text>
</a>
</g>
</g>
<!-- Node3&#45;&gt;Node2 -->
<g id="edge2" class="edge"><title>Node3&#45;&gt;Node2</title>
<path fill="none" stroke="#404040" d="M17.8809,-689.33C5.7075,-635.755 0.0266269,-572.65 18.5,-518 33.9165,-472.394 63.8447,-428.913 93.5449,-393.68"/>
<polygon fill="none" stroke="#404040" points="93.6684,-393.536 94.5465,-386.379 101.491,-384.437 100.613,-391.594 93.6684,-393.536"/>
<text text-anchor="middle" x="61" y="-577.5" font-family="Helvetica,sans-Serif" font-size="10.00"> #m_configManager</text>
</g>
<!-- Node4 -->
<g id="node4" class="node"><title>Node4</title>
<g id="a_node4"><a xlink:href="../../da/d21/class_network_manager.html" target="_top" xlink:title="Manager for different Network Sender and skeleton sending.">
<polygon fill="white" stroke="black" points="112.5,-518.5 112.5,-641.5 240.5,-641.5 240.5,-518.5 112.5,-518.5"/>
<text text-anchor="middle" x="176.5" y="-629.5" font-family="Helvetica,sans-Serif" font-size="10.00">NetworkManager</text>
<polyline fill="none" stroke="black" points="112.5,-622.5 240.5,-622.5 "/>
<text text-anchor="start" x="120.5" y="-610.5" font-family="Helvetica,sans-Serif" font-size="10.00">+ m_ipAddress</text>
<text text-anchor="start" x="120.5" y="-599.5" font-family="Helvetica,sans-Serif" font-size="10.00">&#45; m_poolSender</text>
<polyline fill="none" stroke="black" points="112.5,-592.5 240.5,-592.5 "/>
<text text-anchor="start" x="120.5" y="-580.5" font-family="Helvetica,sans-Serif" font-size="10.00">+ NetworkManager()</text>
<text text-anchor="start" x="120.5" y="-569.5" font-family="Helvetica,sans-Serif" font-size="10.00">+ sendSkeletonPool()</text>
<text text-anchor="start" x="120.5" y="-558.5" font-family="Helvetica,sans-Serif" font-size="10.00">+ createOSCSender()</text>
<text text-anchor="start" x="120.5" y="-547.5" font-family="Helvetica,sans-Serif" font-size="10.00">+ removeNetworkSender()</text>
<text text-anchor="start" x="120.5" y="-536.5" font-family="Helvetica,sans-Serif" font-size="10.00">+ setIPAddress()</text>
<text text-anchor="start" x="120.5" y="-525.5" font-family="Helvetica,sans-Serif" font-size="10.00">+ isValidIPAddress()</text>
</a>
</g>
</g>
<!-- Node3&#45;&gt;Node4 -->
<g id="edge4" class="edge"><title>Node3&#45;&gt;Node4</title>
<path fill="none" stroke="#404040" d="M119.028,-693.733C126.217,-679.632 133.385,-665.572 140.098,-652.404"/>
<polygon fill="none" stroke="#404040" points="140.17,-652.263 139.332,-645.1 145.62,-641.572 146.459,-648.734 140.17,-652.263"/>
<text text-anchor="middle" x="177" y="-663" font-family="Helvetica,sans-Serif" font-size="10.00"> &#45;m_configManager</text>
</g>
<!-- Node4&#45;&gt;Node2 -->
<g id="edge3" class="edge"><title>Node4&#45;&gt;Node2</title>
<path fill="none" stroke="#404040" d="M176.5,-518.187C176.5,-507.127 176.5,-495.108 176.5,-482.614"/>
<polygon fill="none" stroke="#404040" points="176.5,-482.506 172.5,-476.506 176.5,-470.506 180.5,-476.506 176.5,-482.506"/>
<text text-anchor="middle" x="223.5" y="-492" font-family="Helvetica,sans-Serif" font-size="10.00"> #m_networkManager</text>
</g>
<!-- Node5 -->
<g id="node5" class="node"><title>Node5</title>
<g id="a_node5"><a xlink:href="../../d4/d92/struct_tracker_1_1_properties.html" target="_top" xlink:title=" ">
<polygon fill="white" stroke="black" points="259,-524 259,-636 370,-636 370,-524 259,-524"/>
<text text-anchor="middle" x="314.5" y="-624" font-family="Helvetica,sans-Serif" font-size="10.00">Tracker::Properties</text>
<polyline fill="none" stroke="black" points="259,-617 370,-617 "/>
<text text-anchor="start" x="267" y="-605" font-family="Helvetica,sans-Serif" font-size="10.00">+ id</text>
<text text-anchor="start" x="267" y="-594" font-family="Helvetica,sans-Serif" font-size="10.00">+ name</text>
<text text-anchor="start" x="267" y="-583" font-family="Helvetica,sans-Serif" font-size="10.00">+ positionOffset</text>
<text text-anchor="start" x="267" y="-572" font-family="Helvetica,sans-Serif" font-size="10.00">+ rotationOffset</text>
<text text-anchor="start" x="267" y="-561" font-family="Helvetica,sans-Serif" font-size="10.00">+ scaleOffset</text>
<text text-anchor="start" x="267" y="-550" font-family="Helvetica,sans-Serif" font-size="10.00">+ additionalProperties</text>
<polyline fill="none" stroke="black" points="259,-543 370,-543 "/>
<text text-anchor="start" x="267" y="-531" font-family="Helvetica,sans-Serif" font-size="10.00">+ ~Properties()</text>
</a>
</g>
</g>
<!-- Node5&#45;&gt;Node2 -->
<g id="edge5" class="edge"><title>Node5&#45;&gt;Node2</title>
<path fill="none" stroke="#404040" d="M290.911,-523.921C285.687,-512.303 280.05,-500.18 274.5,-489 269.032,-477.985 263.237,-466.669 257.304,-455.339"/>
<polygon fill="none" stroke="#404040" points="257.176,-455.096 250.839,-451.654 251.579,-444.481 257.916,-447.923 257.176,-455.096"/>
<text text-anchor="middle" x="312" y="-492" font-family="Helvetica,sans-Serif" font-size="10.00"> #m_properties</text>
</g>
</g>
</svg>
