<?xml version="1.0" encoding="UTF-8" standalone="no"?>
<!DOCTYPE svg PUBLIC "-//W3C//DTD SVG 1.1//EN"
 "http://www.w3.org/Graphics/SVG/1.1/DTD/svg11.dtd">
<!-- Generated by graphviz version 2.38.0 (20140413.2041)
 -->
<!-- Title: XSBvhWriter Pages: 1 -->
<!--zoomable 650 -->
<svg id="main" version="1.1" xmlns="http://www.w3.org/2000/svg" xmlns:xlink="http://www.w3.org/1999/xlink" xml:space="preserve" onload="init(evt)">
<style type="text/css"><![CDATA[
.edge:hover path { stroke: red; }
.edge:hover polygon { stroke: red; fill: red; }
]]></style>
<script type="text/javascript"><![CDATA[
var edges = document.getElementsByTagName('g');
if (edges && edges.length) {
  for (var i=0;i<edges.length;i++) {
    if (edges[i].id.substr(0,4)=='edge') {
      edges[i].setAttribute('class','edge');
    }
  }
}
]]></script>
        <defs>
                <circle id="rim" cx="0" cy="0" r="7"/>
                <circle id="rim2" cx="0" cy="0" r="3.5"/>
                <g id="zoomPlus">
                        <use xlink:href="#rim" fill="#404040">
                                <set attributeName="fill" to="#808080" begin="zoomplus.mouseover" end="zoomplus.mouseout"/>
                        </use>
                        <path d="M-4,0h8M0,-4v8" fill="none" stroke="white" stroke-width="1.5" pointer-events="none"/>
                </g>
                <g id="zoomMin">
                        <use xlink:href="#rim" fill="#404040">
                                <set attributeName="fill" to="#808080" begin="zoomminus.mouseover" end="zoomminus.mouseout"/>
                        </use>
                        <path d="M-4,0h8" fill="none" stroke="white" stroke-width="1.5" pointer-events="none"/>
                </g>
                <g id="dirArrow">
                        <path fill="none" stroke="white" stroke-width="1.5" d="M0,-3.0v7 M-2.5,-0.5L0,-3.0L2.5,-0.5"/>
                </g>
               <g id="resetDef">
                       <use xlink:href="#rim2" fill="#404040">
                               <set attributeName="fill" to="#808080" begin="reset.mouseover" end="reset.mouseout"/>
                       </use>
               </g>
        </defs>

<script type="text/javascript">
var viewWidth = 380;
var viewHeight = 650;
var sectionId = 'dynsection-0';
</script>
<script xlink:href="../../svgpan.js"/>
<svg id="graph" class="graph">
<g id="viewport">
<title>XSBvhWriter</title>
<polygon fill="white" stroke="none" points="-4,4 -4,-646 375.5,-646 375.5,4 -4,4"/>
<!-- Node1 -->
<g id="node1" class="node"><title>Node1</title>
<g id="a_node1"><a xlink:title="Manages Xsens BVH Export.">
<polygon fill="#bfbfbf" stroke="black" points="62,-0.5 62,-266.5 215,-266.5 215,-0.5 62,-0.5"/>
<text text-anchor="middle" x="138.5" y="-254.5" font-family="Helvetica,sans-Serif" font-size="10.00">XSBvhWriter</text>
<polyline fill="none" stroke="black" points="62,-247.5 215,-247.5 "/>
<text text-anchor="start" x="70" y="-235.5" font-family="Helvetica,sans-Serif" font-size="10.00">+ isRecording</text>
<text text-anchor="start" x="70" y="-224.5" font-family="Helvetica,sans-Serif" font-size="10.00">+ isWriting</text>
<text text-anchor="start" x="70" y="-213.5" font-family="Helvetica,sans-Serif" font-size="10.00">&#45; m_joints</text>
<text text-anchor="start" x="70" y="-202.5" font-family="Helvetica,sans-Serif" font-size="10.00">&#45; m_recordingThread</text>
<text text-anchor="start" x="70" y="-191.5" font-family="Helvetica,sans-Serif" font-size="10.00">&#45; bvhMotionInputStreamTemp</text>
<text text-anchor="start" x="70" y="-180.5" font-family="Helvetica,sans-Serif" font-size="10.00">&#45; bvhMotionOutputStreamTemp</text>
<text text-anchor="start" x="70" y="-169.5" font-family="Helvetica,sans-Serif" font-size="10.00">&#45; finalBvhStream</text>
<text text-anchor="start" x="70" y="-158.5" font-family="Helvetica,sans-Serif" font-size="10.00">&#45; bvhExportFilePath</text>
<text text-anchor="start" x="70" y="-147.5" font-family="Helvetica,sans-Serif" font-size="10.00">&#45; bvhExportFilePathTemp</text>
<text text-anchor="start" x="70" y="-136.5" font-family="Helvetica,sans-Serif" font-size="10.00">&#45; bvhExportPath</text>
<text text-anchor="start" x="70" y="-125.5" font-family="Helvetica,sans-Serif" font-size="10.00">&#45; bvhFileName</text>
<text text-anchor="start" x="70" y="-114.5" font-family="Helvetica,sans-Serif" font-size="10.00">&#45; m_avatarId</text>
<text text-anchor="start" x="70" y="-103.5" font-family="Helvetica,sans-Serif" font-size="10.00">&#45; bvhFrameNumber</text>
<text text-anchor="start" x="70" y="-92.5" font-family="Helvetica,sans-Serif" font-size="10.00">&#45; bvhFrameTime</text>
<text text-anchor="start" x="70" y="-81.5" font-family="Helvetica,sans-Serif" font-size="10.00">&#45; m_bvhLock</text>
<polyline fill="none" stroke="black" points="62,-74.5 215,-74.5 "/>
<text text-anchor="start" x="70" y="-62.5" font-family="Helvetica,sans-Serif" font-size="10.00">+ XSBvhWriter()</text>
<text text-anchor="start" x="70" y="-51.5" font-family="Helvetica,sans-Serif" font-size="10.00">+ ~XSBvhWriter()</text>
<text text-anchor="start" x="70" y="-40.5" font-family="Helvetica,sans-Serif" font-size="10.00">&#45; setupSkeleton()</text>
<text text-anchor="start" x="70" y="-29.5" font-family="Helvetica,sans-Serif" font-size="10.00">&#45; setupBvhParameters()</text>
<text text-anchor="start" x="70" y="-18.5" font-family="Helvetica,sans-Serif" font-size="10.00">&#45; writeFinalBvhFile()</text>
<text text-anchor="start" x="70" y="-7.5" font-family="Helvetica,sans-Serif" font-size="10.00">&#45; writeMotionDataInBvhStream()</text>
</a>
</g>
</g>
<!-- Node2 -->
<g id="node2" class="node"><title>Node2</title>
<g id="a_node2"><a xlink:href="../../d4/dd9/struct_scale_datagram_1_1_bvh_scale_information.html" target="_top" xlink:title=" ">
<polygon fill="white" stroke="black" points="0,-557 0,-636 177,-636 177,-557 0,-557"/>
<text text-anchor="middle" x="88.5" y="-624" font-family="Helvetica,sans-Serif" font-size="10.00">ScaleDatagram::BvhScaleInformation</text>
<polyline fill="none" stroke="black" points="0,-617 177,-617 "/>
<text text-anchor="start" x="8" y="-605" font-family="Helvetica,sans-Serif" font-size="10.00">+ avatarId</text>
<text text-anchor="start" x="8" y="-594" font-family="Helvetica,sans-Serif" font-size="10.00">+ tPose</text>
<text text-anchor="start" x="8" y="-583" font-family="Helvetica,sans-Serif" font-size="10.00">+ endSites</text>
<polyline fill="none" stroke="black" points="0,-576 177,-576 "/>
<text text-anchor="middle" x="88.5" y="-564" font-family="Helvetica,sans-Serif" font-size="10.00"> </text>
</a>
</g>
</g>
<!-- Node2&#45;&gt;Node1 -->
<g id="edge1" class="edge"><title>Node2&#45;&gt;Node1</title>
<path fill="none" stroke="#404040" d="M86.898,-556.597C85.2365,-502.098 84.2518,-400.042 95.5,-314 97.011,-302.442 98.9607,-290.545 101.194,-278.637"/>
<polygon fill="none" stroke="#404040" points="101.217,-278.517 98.4408,-271.862 103.516,-266.739 106.293,-273.394 101.217,-278.517"/>
<text text-anchor="middle" x="142" y="-406.5" font-family="Helvetica,sans-Serif" font-size="10.00"> &#45;bvhScaleInformation</text>
</g>
<!-- Node3 -->
<g id="node3" class="node"><title>Node3</title>
<g id="a_node3"><a xlink:href="../../db/d0b/class_udp_server.html" target="_top" xlink:title=" ">
<polygon fill="white" stroke="black" points="197.5,-314.5 197.5,-503.5 331.5,-503.5 331.5,-314.5 197.5,-314.5"/>
<text text-anchor="middle" x="264.5" y="-491.5" font-family="Helvetica,sans-Serif" font-size="10.00">UdpServer</text>
<polyline fill="none" stroke="black" points="197.5,-484.5 331.5,-484.5 "/>
<text text-anchor="start" x="205.5" y="-472.5" font-family="Helvetica,sans-Serif" font-size="10.00">+ m_started</text>
<text text-anchor="start" x="205.5" y="-461.5" font-family="Helvetica,sans-Serif" font-size="10.00">+ m_stopping</text>
<text text-anchor="start" x="205.5" y="-450.5" font-family="Helvetica,sans-Serif" font-size="10.00">&#45; m_socket</text>
<text text-anchor="start" x="205.5" y="-439.5" font-family="Helvetica,sans-Serif" font-size="10.00">&#45; m_port</text>
<text text-anchor="start" x="205.5" y="-428.5" font-family="Helvetica,sans-Serif" font-size="10.00">&#45; m_hostName</text>
<text text-anchor="start" x="205.5" y="-417.5" font-family="Helvetica,sans-Serif" font-size="10.00">&#45; m_parserManager</text>
<text text-anchor="start" x="205.5" y="-406.5" font-family="Helvetica,sans-Serif" font-size="10.00">&#45; m_udpLock</text>
<polyline fill="none" stroke="black" points="197.5,-399.5 331.5,-399.5 "/>
<text text-anchor="start" x="205.5" y="-387.5" font-family="Helvetica,sans-Serif" font-size="10.00">+ UdpServer()</text>
<text text-anchor="start" x="205.5" y="-376.5" font-family="Helvetica,sans-Serif" font-size="10.00">+ ~UdpServer()</text>
<text text-anchor="start" x="205.5" y="-365.5" font-family="Helvetica,sans-Serif" font-size="10.00">+ readMessages()</text>
<text text-anchor="start" x="205.5" y="-354.5" font-family="Helvetica,sans-Serif" font-size="10.00">+ startThread()</text>
<text text-anchor="start" x="205.5" y="-343.5" font-family="Helvetica,sans-Serif" font-size="10.00">+ stopThread()</text>
<text text-anchor="start" x="205.5" y="-332.5" font-family="Helvetica,sans-Serif" font-size="10.00">+ getQuaternionDatagram()</text>
<text text-anchor="start" x="205.5" y="-321.5" font-family="Helvetica,sans-Serif" font-size="10.00">+ getScaleDatagram()</text>
</a>
</g>
</g>
<!-- Node2&#45;&gt;Node3 -->
<g id="edge3" class="edge"><title>Node2&#45;&gt;Node3</title>
<path fill="none" stroke="#404040" d="M130.471,-556.681C147.302,-540.704 166.661,-521.799 183.5,-504 185.365,-502.029 187.242,-500.025 189.126,-497.995"/>
<polygon fill="none" stroke="#404040" points="189.303,-497.802 190.409,-490.676 197.412,-488.957 196.306,-496.082 189.303,-497.802"/>
<text text-anchor="middle" x="198.5" y="-525" font-family="Helvetica,sans-Serif" font-size="10.00"> &#45;m_scaleData</text>
</g>
<!-- Node3&#45;&gt;Node1 -->
<g id="edge2" class="edge"><title>Node3&#45;&gt;Node1</title>
<path fill="none" stroke="#404040" d="M221.314,-314.259C215.915,-302.539 210.299,-290.349 204.649,-278.085"/>
<polygon fill="none" stroke="#404040" points="204.477,-277.712 198.334,-273.936 199.456,-266.813 205.6,-270.589 204.477,-277.712"/>
<text text-anchor="middle" x="245.5" y="-288" font-family="Helvetica,sans-Serif" font-size="10.00"> &#45;m_UdpServer</text>
</g>
<!-- Node4 -->
<g id="node4" class="node"><title>Node4</title>
<g id="a_node4"><a xlink:href="../../d6/d4b/struct_parser_manager_1_1_quaternion_data_with_id.html" target="_top" xlink:title=" ">
<polygon fill="white" stroke="black" points="196.5,-551.5 196.5,-641.5 332.5,-641.5 332.5,-551.5 196.5,-551.5"/>
<text text-anchor="start" x="204.5" y="-629.5" font-family="Helvetica,sans-Serif" font-size="10.00">ParserManager::Quaternion</text>
<text text-anchor="middle" x="264.5" y="-618.5" font-family="Helvetica,sans-Serif" font-size="10.00">DataWithId</text>
<polyline fill="none" stroke="black" points="196.5,-611.5 332.5,-611.5 "/>
<text text-anchor="start" x="204.5" y="-599.5" font-family="Helvetica,sans-Serif" font-size="10.00">+ avatarId</text>
<text text-anchor="start" x="204.5" y="-588.5" font-family="Helvetica,sans-Serif" font-size="10.00">+ frameTime</text>
<text text-anchor="start" x="204.5" y="-577.5" font-family="Helvetica,sans-Serif" font-size="10.00">+ kinematics</text>
<polyline fill="none" stroke="black" points="196.5,-570.5 332.5,-570.5 "/>
<text text-anchor="middle" x="264.5" y="-558.5" font-family="Helvetica,sans-Serif" font-size="10.00"> </text>
</a>
</g>
</g>
<!-- Node4&#45;&gt;Node3 -->
<g id="edge4" class="edge"><title>Node4&#45;&gt;Node3</title>
<path fill="none" stroke="#404040" d="M264.5,-551.068C264.5,-540.296 264.5,-528.318 264.5,-516.021"/>
<polygon fill="none" stroke="#404040" points="264.5,-515.652 260.5,-509.652 264.5,-503.652 268.5,-509.652 264.5,-515.652"/>
<text text-anchor="middle" x="318" y="-525" font-family="Helvetica,sans-Serif" font-size="10.00"> &#45;m_quaternionDatagram</text>
</g>
</g>
</svg>
        <g id="navigator" transform="translate(0 0)" fill="#404254">
                <rect fill="#f2f5e9" fill-opacity="0.5" stroke="#606060" stroke-width=".5" x="0" y="0" width="60" height="60"/>
                <use id="zoomplus" xlink:href="#zoomPlus" x="17" y="9" onmousedown="handleZoom(evt,'in')"/>
                <use id="zoomminus" xlink:href="#zoomMin" x="42" y="9" onmousedown="handleZoom(evt,'out')"/>
                <use id="reset" xlink:href="#resetDef" x="30" y="36" onmousedown="handleReset()"/>
                <g id="arrowUp" xlink:href="#dirArrow" transform="translate(30 24)" onmousedown="handlePan(0,-1)">
                  <use xlink:href="#rim" fill="#404040">
                        <set attributeName="fill" to="#808080" begin="arrowUp.mouseover" end="arrowUp.mouseout"/>
                  </use>
                  <path fill="none" stroke="white" stroke-width="1.5" d="M0,-3.0v7 M-2.5,-0.5L0,-3.0L2.5,-0.5"/>
                </g>
                <g id="arrowRight" xlink:href="#dirArrow" transform="rotate(90) translate(36 -43)" onmousedown="handlePan(1,0)">
                  <use xlink:href="#rim" fill="#404040">
                        <set attributeName="fill" to="#808080" begin="arrowRight.mouseover" end="arrowRight.mouseout"/>
                  </use>
                  <path fill="none" stroke="white" stroke-width="1.5" d="M0,-3.0v7 M-2.5,-0.5L0,-3.0L2.5,-0.5"/>
                </g>
                <g id="arrowDown" xlink:href="#dirArrow" transform="rotate(180) translate(-30 -48)" onmousedown="handlePan(0,1)">
                  <use xlink:href="#rim" fill="#404040">
                        <set attributeName="fill" to="#808080" begin="arrowDown.mouseover" end="arrowDown.mouseout"/>
                  </use>
                  <path fill="none" stroke="white" stroke-width="1.5" d="M0,-3.0v7 M-2.5,-0.5L0,-3.0L2.5,-0.5"/>
                </g>
                <g id="arrowLeft" xlink:href="#dirArrow" transform="rotate(270) translate(-36 17)" onmousedown="handlePan(-1,0)">
                  <use xlink:href="#rim" fill="#404040">
                        <set attributeName="fill" to="#808080" begin="arrowLeft.mouseover" end="arrowLeft.mouseout"/>
                  </use>
                  <path fill="none" stroke="white" stroke-width="1.5" d="M0,-3.0v7 M-2.5,-0.5L0,-3.0L2.5,-0.5"/>
                </g>
        </g>
        <svg viewBox="0 0 15 15" width="100%" height="30px" preserveAspectRatio="xMaxYMin meet">
         <g id="arrow_out" transform="scale(0.3 0.3)">
          <a xlink:href="class_x_s_bvh_writer__coll__graph_org.svg" target="_base">
           <rect id="button" ry="5" rx="5" y="6" x="6" height="38" width="38"
                fill="#f2f5e9" fill-opacity="0.5" stroke="#606060" stroke-width="1.0"/>
           <path id="arrow"
             d="M 11.500037,31.436501 C 11.940474,20.09759 22.043105,11.32322 32.158766,21.979434 L 37.068811,17.246167 C 37.068811,17.246167 37.088388,32 37.088388,32 L 22.160133,31.978069 C 22.160133,31.978069 26.997745,27.140456 26.997745,27.140456 C 18.528582,18.264221 13.291696,25.230495 11.500037,31.436501 z"
             style="fill:#404040;"/>
          </a>
         </g>
        </svg>
</svg>
