<?xml version="1.0" encoding="UTF-8" standalone="no"?>
<!DOCTYPE svg PUBLIC "-//W3C//DTD SVG 1.1//EN"
 "http://www.w3.org/Graphics/SVG/1.1/DTD/svg11.dtd">
<!-- Generated by graphviz version 2.38.0 (20140413.2041)
 -->
<!-- Title: SettingsWindow Pages: 1 -->
<svg width="325pt" height="595pt"
 viewBox="0.00 0.00 324.50 595.00" xmlns="http://www.w3.org/2000/svg" xmlns:xlink="http://www.w3.org/1999/xlink">
<g id="graph0" class="graph" transform="scale(1 1) rotate(0) translate(4 591)">
<title>SettingsWindow</title>
<polygon fill="white" stroke="none" points="-4,4 -4,-591 320.5,-591 320.5,4 -4,4"/>
<!-- Node1 -->
<g id="node1" class="node"><title>Node1</title>
<g id="a_node1"><a xlink:title=" ">
<polygon fill="#bfbfbf" stroke="black" points="23,-0.5 23,-123.5 152,-123.5 152,-0.5 23,-0.5"/>
<text text-anchor="middle" x="87.5" y="-111.5" font-family="Helvetica,sans-Serif" font-size="10.00">SettingsWindow</text>
<polyline fill="none" stroke="black" points="23,-104.5 152,-104.5 "/>
<text text-anchor="start" x="31" y="-92.5" font-family="Helvetica,sans-Serif" font-size="10.00">&#45; ui</text>
<text text-anchor="start" x="31" y="-81.5" font-family="Helvetica,sans-Serif" font-size="10.00">&#45; m_LineEditIP</text>
<polyline fill="none" stroke="black" points="23,-74.5 152,-74.5 "/>
<text text-anchor="start" x="31" y="-62.5" font-family="Helvetica,sans-Serif" font-size="10.00">+ SettingsWindow()</text>
<text text-anchor="start" x="31" y="-51.5" font-family="Helvetica,sans-Serif" font-size="10.00">+ ~SettingsWindow()</text>
<text text-anchor="start" x="31" y="-40.5" font-family="Helvetica,sans-Serif" font-size="10.00">&#45; accept()</text>
<text text-anchor="start" x="31" y="-29.5" font-family="Helvetica,sans-Serif" font-size="10.00">&#45; setLocalhost()</text>
<text text-anchor="start" x="31" y="-18.5" font-family="Helvetica,sans-Serif" font-size="10.00">&#45; slotRecorderFileDialog()</text>
<text text-anchor="start" x="31" y="-7.5" font-family="Helvetica,sans-Serif" font-size="10.00">&#45; ipAddressTextChanged()</text>
</a>
</g>
</g>
<!-- Node2 -->
<g id="node2" class="node"><title>Node2</title>
<g id="a_node2"><a xlink:title=" ">
<polygon fill="white" stroke="#bfbfbf" points="0,-204.5 0,-261.5 51,-261.5 51,-204.5 0,-204.5"/>
<text text-anchor="middle" x="25.5" y="-249.5" font-family="Helvetica,sans-Serif" font-size="10.00">QDialog</text>
<polyline fill="none" stroke="#bfbfbf" points="0,-242.5 51,-242.5 "/>
<text text-anchor="middle" x="25.5" y="-230.5" font-family="Helvetica,sans-Serif" font-size="10.00"> </text>
<polyline fill="none" stroke="#bfbfbf" points="0,-223.5 51,-223.5 "/>
<text text-anchor="middle" x="25.5" y="-211.5" font-family="Helvetica,sans-Serif" font-size="10.00"> </text>
</a>
</g>
</g>
<!-- Node2&#45;&gt;Node1 -->
<g id="edge1" class="edge"><title>Node2&#45;&gt;Node1</title>
<path fill="none" stroke="midnightblue" d="M39.0609,-195.036C46.7047,-174.2 56.4451,-147.65 65.184,-123.829"/>
<polygon fill="none" stroke="midnightblue" points="35.7577,-193.877 35.5994,-204.471 42.3295,-196.288 35.7577,-193.877"/>
</g>
<!-- Node3 -->
<g id="node3" class="node"><title>Node3</title>
<g id="a_node3"><a xlink:href="../../d4/daf/class_config_manager.html" target="_top" xlink:title=" ">
<polygon fill="white" stroke="black" points="77,-342.5 77,-586.5 196,-586.5 196,-342.5 77,-342.5"/>
<text text-anchor="middle" x="136.5" y="-574.5" font-family="Helvetica,sans-Serif" font-size="10.00">ConfigManager</text>
<polyline fill="none" stroke="black" points="77,-567.5 196,-567.5 "/>
<text text-anchor="start" x="85" y="-555.5" font-family="Helvetica,sans-Serif" font-size="10.00">&#45; m_config</text>
<polyline fill="none" stroke="black" points="77,-548.5 196,-548.5 "/>
<text text-anchor="start" x="85" y="-536.5" font-family="Helvetica,sans-Serif" font-size="10.00">+ readString()</text>
<text text-anchor="start" x="85" y="-525.5" font-family="Helvetica,sans-Serif" font-size="10.00">+ readBool()</text>
<text text-anchor="start" x="85" y="-514.5" font-family="Helvetica,sans-Serif" font-size="10.00">+ readInt()</text>
<text text-anchor="start" x="85" y="-503.5" font-family="Helvetica,sans-Serif" font-size="10.00">+ readFloat()</text>
<text text-anchor="start" x="85" y="-492.5" font-family="Helvetica,sans-Serif" font-size="10.00">+ readVec3f()</text>
<text text-anchor="start" x="85" y="-481.5" font-family="Helvetica,sans-Serif" font-size="10.00">+ readVec4f()</text>
<text text-anchor="start" x="85" y="-470.5" font-family="Helvetica,sans-Serif" font-size="10.00">+ writeString()</text>
<text text-anchor="start" x="85" y="-459.5" font-family="Helvetica,sans-Serif" font-size="10.00">+ writeBool()</text>
<text text-anchor="start" x="85" y="-448.5" font-family="Helvetica,sans-Serif" font-size="10.00">+ writeInt()</text>
<text text-anchor="start" x="85" y="-437.5" font-family="Helvetica,sans-Serif" font-size="10.00">+ writeFloat()</text>
<text text-anchor="start" x="85" y="-426.5" font-family="Helvetica,sans-Serif" font-size="10.00">+ writeVec3f()</text>
<text text-anchor="start" x="85" y="-415.5" font-family="Helvetica,sans-Serif" font-size="10.00">+ writeVec4f()</text>
<text text-anchor="start" x="85" y="-404.5" font-family="Helvetica,sans-Serif" font-size="10.00">+ write()</text>
<text text-anchor="start" x="85" y="-393.5" font-family="Helvetica,sans-Serif" font-size="10.00">&#45; isLoaded()</text>
<text text-anchor="start" x="85" y="-382.5" font-family="Helvetica,sans-Serif" font-size="10.00">&#45; loadConfig()</text>
<text text-anchor="start" x="85" y="-371.5" font-family="Helvetica,sans-Serif" font-size="10.00">&#45; saveConfig()</text>
<text text-anchor="start" x="85" y="-360.5" font-family="Helvetica,sans-Serif" font-size="10.00">&#45; findElement()</text>
<text text-anchor="start" x="85" y="-349.5" font-family="Helvetica,sans-Serif" font-size="10.00">&#45; findOrCreateElement()</text>
</a>
</g>
</g>
<!-- Node3&#45;&gt;Node1 -->
<g id="edge2" class="edge"><title>Node3&#45;&gt;Node1</title>
<path fill="none" stroke="#404040" d="M104.722,-342.083C101.471,-326.329 98.5982,-310.341 96.5,-295 89.2703,-242.139 87.1107,-181.918 86.7111,-136.081"/>
<polygon fill="none" stroke="#404040" points="86.7099,-135.853 82.6765,-129.875 86.643,-123.853 90.6764,-129.83 86.7099,-135.853"/>
<text text-anchor="middle" x="138" y="-230.5" font-family="Helvetica,sans-Serif" font-size="10.00"> &#45;m_configManager</text>
</g>
<!-- Node4 -->
<g id="node4" class="node"><title>Node4</title>
<g id="a_node4"><a xlink:href="../../da/d21/class_network_manager.html" target="_top" xlink:title="Manager for different Network Sender and skeleton sending.">
<polygon fill="white" stroke="black" points="188.5,-171.5 188.5,-294.5 316.5,-294.5 316.5,-171.5 188.5,-171.5"/>
<text text-anchor="middle" x="252.5" y="-282.5" font-family="Helvetica,sans-Serif" font-size="10.00">NetworkManager</text>
<polyline fill="none" stroke="black" points="188.5,-275.5 316.5,-275.5 "/>
<text text-anchor="start" x="196.5" y="-263.5" font-family="Helvetica,sans-Serif" font-size="10.00">+ m_ipAddress</text>
<text text-anchor="start" x="196.5" y="-252.5" font-family="Helvetica,sans-Serif" font-size="10.00">&#45; m_poolSender</text>
<polyline fill="none" stroke="black" points="188.5,-245.5 316.5,-245.5 "/>
<text text-anchor="start" x="196.5" y="-233.5" font-family="Helvetica,sans-Serif" font-size="10.00">+ NetworkManager()</text>
<text text-anchor="start" x="196.5" y="-222.5" font-family="Helvetica,sans-Serif" font-size="10.00">+ sendSkeletonPool()</text>
<text text-anchor="start" x="196.5" y="-211.5" font-family="Helvetica,sans-Serif" font-size="10.00">+ createOSCSender()</text>
<text text-anchor="start" x="196.5" y="-200.5" font-family="Helvetica,sans-Serif" font-size="10.00">+ removeNetworkSender()</text>
<text text-anchor="start" x="196.5" y="-189.5" font-family="Helvetica,sans-Serif" font-size="10.00">+ setIPAddress()</text>
<text text-anchor="start" x="196.5" y="-178.5" font-family="Helvetica,sans-Serif" font-size="10.00">+ isValidIPAddress()</text>
</a>
</g>
</g>
<!-- Node3&#45;&gt;Node4 -->
<g id="edge4" class="edge"><title>Node3&#45;&gt;Node4</title>
<path fill="none" stroke="#404040" d="M196.029,-345.725C202.956,-332.02 209.854,-318.373 216.327,-305.566"/>
<polygon fill="none" stroke="#404040" points="216.483,-305.257 215.62,-298.098 221.896,-294.548 222.76,-301.707 216.483,-305.257"/>
<text text-anchor="middle" x="253" y="-316" font-family="Helvetica,sans-Serif" font-size="10.00"> &#45;m_configManager</text>
</g>
<!-- Node4&#45;&gt;Node1 -->
<g id="edge3" class="edge"><title>Node4&#45;&gt;Node1</title>
<path fill="none" stroke="#404040" d="M193.397,-171.464C181.076,-158.844 167.995,-145.446 155.385,-132.53"/>
<polygon fill="none" stroke="#404040" points="155.128,-132.267 148.074,-130.768 146.745,-123.681 153.798,-125.18 155.128,-132.267"/>
<text text-anchor="middle" x="227" y="-145" font-family="Helvetica,sans-Serif" font-size="10.00"> &#45;m_refNetworkManager</text>
</g>
</g>
</svg>
