<?xml version="1.0" encoding="UTF-8" standalone="no"?>
<!DOCTYPE svg PUBLIC "-//W3C//DTD SVG 1.1//EN"
 "http://www.w3.org/Graphics/SVG/1.1/DTD/svg11.dtd">
<!-- Generated by graphviz version 2.38.0 (20140413.2041)
 -->
<!-- Title: C:/dev/projects/MotionHub/src/TrackerManagement/xs_positiondatagram.h Pages: 1 -->
<svg width="288pt" height="128pt"
 viewBox="0.00 0.00 288.00 128.00" xmlns="http://www.w3.org/2000/svg" xmlns:xlink="http://www.w3.org/1999/xlink">
<g id="graph0" class="graph" transform="scale(1 1) rotate(0) translate(4 124)">
<title>C:/dev/projects/MotionHub/src/TrackerManagement/xs_positiondatagram.h</title>
<polygon fill="white" stroke="none" points="-4,4 -4,-124 284,-124 284,4 -4,4"/>
<!-- Node1 -->
<g id="node1" class="node"><title>Node1</title>
<g id="a_node1"><a xlink:title=" ">
<polygon fill="#bfbfbf" stroke="black" points="74,-78.5 74,-119.5 205,-119.5 205,-78.5 74,-78.5"/>
<text text-anchor="start" x="82" y="-107.5" font-family="Helvetica,sans-Serif" font-size="10.00">C:/dev/projects/MotionHub</text>
<text text-anchor="start" x="82" y="-96.5" font-family="Helvetica,sans-Serif" font-size="10.00">/src/TrackerManagement</text>
<text text-anchor="middle" x="139.5" y="-85.5" font-family="Helvetica,sans-Serif" font-size="10.00">/xs_positiondatagram.h</text>
</a>
</g>
</g>
<!-- Node2 -->
<g id="node2" class="node"><title>Node2</title>
<g id="a_node2"><a xlink:href="../../dc/d93/xs__parsermanager_8cpp.html" target="_top" xlink:title=" ">
<polygon fill="white" stroke="black" points="0,-0.5 0,-41.5 131,-41.5 131,-0.5 0,-0.5"/>
<text text-anchor="start" x="8" y="-29.5" font-family="Helvetica,sans-Serif" font-size="10.00">C:/dev/projects/MotionHub</text>
<text text-anchor="start" x="8" y="-18.5" font-family="Helvetica,sans-Serif" font-size="10.00">/src/TrackerManagement</text>
<text text-anchor="middle" x="65.5" y="-7.5" font-family="Helvetica,sans-Serif" font-size="10.00">/xs_parsermanager.cpp</text>
</a>
</g>
</g>
<!-- Node1&#45;&gt;Node2 -->
<g id="edge1" class="edge"><title>Node1&#45;&gt;Node2</title>
<path fill="none" stroke="midnightblue" d="M113.409,-71.204C103.879,-61.416 93.2878,-50.5388 84.4923,-41.5056"/>
<polygon fill="midnightblue" stroke="midnightblue" points="110.959,-73.705 120.443,-78.4281 115.975,-68.8217 110.959,-73.705"/>
</g>
<!-- Node3 -->
<g id="node3" class="node"><title>Node3</title>
<g id="a_node3"><a xlink:href="../../d8/d41/xs__positiondatagram_8cpp.html" target="_top" xlink:title=" ">
<polygon fill="white" stroke="black" points="149,-0.5 149,-41.5 280,-41.5 280,-0.5 149,-0.5"/>
<text text-anchor="start" x="157" y="-29.5" font-family="Helvetica,sans-Serif" font-size="10.00">C:/dev/projects/MotionHub</text>
<text text-anchor="start" x="157" y="-18.5" font-family="Helvetica,sans-Serif" font-size="10.00">/src/TrackerManagement</text>
<text text-anchor="middle" x="214.5" y="-7.5" font-family="Helvetica,sans-Serif" font-size="10.00">/xs_positiondatagram.cpp</text>
</a>
</g>
</g>
<!-- Node1&#45;&gt;Node3 -->
<g id="edge2" class="edge"><title>Node1&#45;&gt;Node3</title>
<path fill="none" stroke="midnightblue" d="M165.943,-71.204C175.603,-61.416 186.337,-50.5388 195.251,-41.5056"/>
<polygon fill="midnightblue" stroke="midnightblue" points="163.347,-68.8519 158.814,-78.4281 168.33,-73.7688 163.347,-68.8519"/>
</g>
</g>
</svg>
