<?xml version="1.0" encoding="UTF-8" standalone="no"?>
<!DOCTYPE svg PUBLIC "-//W3C//DTD SVG 1.1//EN"
 "http://www.w3.org/Graphics/SVG/1.1/DTD/svg11.dtd">
<!-- Generated by graphviz version 2.38.0 (20140413.2041)
 -->
<!-- Title: C:/dev/projects/MotionHub/src/TrackerManagement/xs_jointanglesdatagram.h Pages: 1 -->
<svg width="298pt" height="128pt"
 viewBox="0.00 0.00 298.00 128.00" xmlns="http://www.w3.org/2000/svg" xmlns:xlink="http://www.w3.org/1999/xlink">
<g id="graph0" class="graph" transform="scale(1 1) rotate(0) translate(4 124)">
<title>C:/dev/projects/MotionHub/src/TrackerManagement/xs_jointanglesdatagram.h</title>
<polygon fill="white" stroke="none" points="-4,4 -4,-124 294,-124 294,4 -4,4"/>
<!-- Node1 -->
<g id="node1" class="node"><title>Node1</title>
<g id="a_node1"><a xlink:title=" ">
<polygon fill="#bfbfbf" stroke="black" points="82,-78.5 82,-119.5 213,-119.5 213,-78.5 82,-78.5"/>
<text text-anchor="start" x="90" y="-107.5" font-family="Helvetica,sans-Serif" font-size="10.00">C:/dev/projects/MotionHub</text>
<text text-anchor="start" x="90" y="-96.5" font-family="Helvetica,sans-Serif" font-size="10.00">/src/TrackerManagement</text>
<text text-anchor="middle" x="147.5" y="-85.5" font-family="Helvetica,sans-Serif" font-size="10.00">/xs_jointanglesdatagram.h</text>
</a>
</g>
</g>
<!-- Node2 -->
<g id="node2" class="node"><title>Node2</title>
<g id="a_node2"><a xlink:href="../../d0/db6/xs__jointanglesdatagram_8cpp.html" target="_top" xlink:title=" ">
<polygon fill="white" stroke="black" points="0,-0.5 0,-41.5 141,-41.5 141,-0.5 0,-0.5"/>
<text text-anchor="start" x="8" y="-29.5" font-family="Helvetica,sans-Serif" font-size="10.00">C:/dev/projects/MotionHub</text>
<text text-anchor="start" x="8" y="-18.5" font-family="Helvetica,sans-Serif" font-size="10.00">/src/TrackerManagement</text>
<text text-anchor="middle" x="70.5" y="-7.5" font-family="Helvetica,sans-Serif" font-size="10.00">/xs_jointanglesdatagram.cpp</text>
</a>
</g>
</g>
<!-- Node1&#45;&gt;Node2 -->
<g id="edge1" class="edge"><title>Node1&#45;&gt;Node2</title>
<path fill="none" stroke="midnightblue" d="M120.351,-71.204C110.435,-61.416 99.4143,-50.5388 90.2622,-41.5056"/>
<polygon fill="midnightblue" stroke="midnightblue" points="118.095,-73.8944 127.671,-78.4281 123.012,-68.9124 118.095,-73.8944"/>
</g>
<!-- Node3 -->
<g id="node3" class="node"><title>Node3</title>
<g id="a_node3"><a xlink:href="../../dc/d93/xs__parsermanager_8cpp.html" target="_top" xlink:title=" ">
<polygon fill="white" stroke="black" points="159,-0.5 159,-41.5 290,-41.5 290,-0.5 159,-0.5"/>
<text text-anchor="start" x="167" y="-29.5" font-family="Helvetica,sans-Serif" font-size="10.00">C:/dev/projects/MotionHub</text>
<text text-anchor="start" x="167" y="-18.5" font-family="Helvetica,sans-Serif" font-size="10.00">/src/TrackerManagement</text>
<text text-anchor="middle" x="224.5" y="-7.5" font-family="Helvetica,sans-Serif" font-size="10.00">/xs_parsermanager.cpp</text>
</a>
</g>
</g>
<!-- Node1&#45;&gt;Node3 -->
<g id="edge2" class="edge"><title>Node1&#45;&gt;Node3</title>
<path fill="none" stroke="midnightblue" d="M174.649,-71.204C184.565,-61.416 195.586,-50.5388 204.738,-41.5056"/>
<polygon fill="midnightblue" stroke="midnightblue" points="171.988,-68.9124 167.329,-78.4281 176.905,-73.8944 171.988,-68.9124"/>
</g>
</g>
</svg>
