<?xml version="1.0" encoding="UTF-8" standalone="no"?>
<!DOCTYPE svg PUBLIC "-//W3C//DTD SVG 1.1//EN"
 "http://www.w3.org/Graphics/SVG/1.1/DTD/svg11.dtd">
<!-- Generated by graphviz version 2.38.0 (20140413.2041)
 -->
<!-- Title: CreateTrackerWindow Pages: 1 -->
<svg width="220pt" height="380pt"
 viewBox="0.00 0.00 219.50 380.00" xmlns="http://www.w3.org/2000/svg" xmlns:xlink="http://www.w3.org/1999/xlink">
<g id="graph0" class="graph" transform="scale(1 1) rotate(0) translate(4 376)">
<title>CreateTrackerWindow</title>
<polygon fill="white" stroke="none" points="-4,4 -4,-376 215.5,-376 215.5,4 -4,4"/>
<!-- Node1 -->
<g id="node1" class="node"><title>Node1</title>
<g id="a_node1"><a xlink:title="dialog for creating new trackers">
<polygon fill="#bfbfbf" stroke="black" points="1,-0.5 1,-112.5 164,-112.5 164,-0.5 1,-0.5"/>
<text text-anchor="middle" x="82.5" y="-100.5" font-family="Helvetica,sans-Serif" font-size="10.00">CreateTrackerWindow</text>
<polyline fill="none" stroke="black" points="1,-93.5 164,-93.5 "/>
<text text-anchor="start" x="9" y="-81.5" font-family="Helvetica,sans-Serif" font-size="10.00">&#45; ui</text>
<text text-anchor="start" x="9" y="-70.5" font-family="Helvetica,sans-Serif" font-size="10.00">&#45; m_refTreeWidgetTracker</text>
<text text-anchor="start" x="9" y="-59.5" font-family="Helvetica,sans-Serif" font-size="10.00">&#45; m_selectedTrackerIdInDropdown</text>
<polyline fill="none" stroke="black" points="1,-52.5 164,-52.5 "/>
<text text-anchor="start" x="9" y="-40.5" font-family="Helvetica,sans-Serif" font-size="10.00">+ CreateTrackerWindow()</text>
<text text-anchor="start" x="9" y="-29.5" font-family="Helvetica,sans-Serif" font-size="10.00">+ ~CreateTrackerWindow()</text>
<text text-anchor="start" x="9" y="-18.5" font-family="Helvetica,sans-Serif" font-size="10.00">&#45; slotCreateTracker()</text>
<text text-anchor="start" x="9" y="-7.5" font-family="Helvetica,sans-Serif" font-size="10.00">&#45; slotSelectTrackerInDropdown()</text>
</a>
</g>
</g>
<!-- Node2 -->
<g id="node2" class="node"><title>Node2</title>
<g id="a_node2"><a xlink:title=" ">
<polygon fill="white" stroke="#bfbfbf" points="0,-237.5 0,-294.5 51,-294.5 51,-237.5 0,-237.5"/>
<text text-anchor="middle" x="25.5" y="-282.5" font-family="Helvetica,sans-Serif" font-size="10.00">QDialog</text>
<polyline fill="none" stroke="#bfbfbf" points="0,-275.5 51,-275.5 "/>
<text text-anchor="middle" x="25.5" y="-263.5" font-family="Helvetica,sans-Serif" font-size="10.00"> </text>
<polyline fill="none" stroke="#bfbfbf" points="0,-256.5 51,-256.5 "/>
<text text-anchor="middle" x="25.5" y="-244.5" font-family="Helvetica,sans-Serif" font-size="10.00"> </text>
</a>
</g>
</g>
<!-- Node2&#45;&gt;Node1 -->
<g id="edge1" class="edge"><title>Node2&#45;&gt;Node1</title>
<path fill="none" stroke="midnightblue" d="M35.7725,-227.605C44.5558,-195.63 57.3187,-149.169 67.2874,-112.879"/>
<polygon fill="none" stroke="midnightblue" points="32.3431,-226.876 33.0692,-237.446 39.0931,-228.73 32.3431,-226.876"/>
</g>
<!-- Node3 -->
<g id="node3" class="node"><title>Node3</title>
<g id="a_node3"><a xlink:href="../../dc/dbc/class_tracker_manager.html" target="_top" xlink:title="Manager for all types of tracker.">
<polygon fill="white" stroke="black" points="69.5,-160.5 69.5,-371.5 211.5,-371.5 211.5,-160.5 69.5,-160.5"/>
<text text-anchor="middle" x="140.5" y="-359.5" font-family="Helvetica,sans-Serif" font-size="10.00">TrackerManager</text>
<polyline fill="none" stroke="black" points="69.5,-352.5 211.5,-352.5 "/>
<text text-anchor="start" x="77.5" y="-340.5" font-family="Helvetica,sans-Serif" font-size="10.00">&#45; m_trackerPool</text>
<text text-anchor="start" x="77.5" y="-329.5" font-family="Helvetica,sans-Serif" font-size="10.00">&#45; m_isTracking</text>
<text text-anchor="start" x="77.5" y="-318.5" font-family="Helvetica,sans-Serif" font-size="10.00">&#45; m_hasTrackerPoolChanged</text>
<text text-anchor="start" x="77.5" y="-307.5" font-family="Helvetica,sans-Serif" font-size="10.00">&#45; m_nextFreeTrackerID</text>
<text text-anchor="start" x="77.5" y="-296.5" font-family="Helvetica,sans-Serif" font-size="10.00">&#45; m_nextFreeAKCamID</text>
<text text-anchor="start" x="77.5" y="-285.5" font-family="Helvetica,sans-Serif" font-size="10.00">&#45; m_trackerPoolLock</text>
<polyline fill="none" stroke="black" points="69.5,-278.5 211.5,-278.5 "/>
<text text-anchor="start" x="77.5" y="-266.5" font-family="Helvetica,sans-Serif" font-size="10.00">+ TrackerManager()</text>
<text text-anchor="start" x="77.5" y="-255.5" font-family="Helvetica,sans-Serif" font-size="10.00">+ createTracker()</text>
<text text-anchor="start" x="77.5" y="-244.5" font-family="Helvetica,sans-Serif" font-size="10.00">+ removeTrackerAt()</text>
<text text-anchor="start" x="77.5" y="-233.5" font-family="Helvetica,sans-Serif" font-size="10.00">+ startTracker()</text>
<text text-anchor="start" x="77.5" y="-222.5" font-family="Helvetica,sans-Serif" font-size="10.00">+ stopTracker()</text>
<text text-anchor="start" x="77.5" y="-211.5" font-family="Helvetica,sans-Serif" font-size="10.00">+ isTracking()</text>
<text text-anchor="start" x="77.5" y="-200.5" font-family="Helvetica,sans-Serif" font-size="10.00">+ hasTrackerPoolChanged()</text>
<text text-anchor="start" x="77.5" y="-189.5" font-family="Helvetica,sans-Serif" font-size="10.00">+ getPoolTracker()</text>
<text text-anchor="start" x="77.5" y="-178.5" font-family="Helvetica,sans-Serif" font-size="10.00">+ getTrackerRefAt()</text>
<text text-anchor="start" x="77.5" y="-167.5" font-family="Helvetica,sans-Serif" font-size="10.00">+ getTrackerPoolLock()</text>
</a>
</g>
</g>
<!-- Node3&#45;&gt;Node1 -->
<g id="edge2" class="edge"><title>Node3&#45;&gt;Node1</title>
<path fill="none" stroke="#404040" d="M111.245,-160.338C107.818,-148.078 104.396,-135.836 101.17,-124.295"/>
<polygon fill="none" stroke="#404040" points="101.118,-124.108 95.6506,-119.406 97.8877,-112.551 103.355,-117.252 101.118,-124.108"/>
<text text-anchor="middle" x="155.5" y="-134" font-family="Helvetica,sans-Serif" font-size="10.00"> &#45;m_refTrackerManager</text>
</g>
</g>
</svg>
