<?xml version="1.0" encoding="UTF-8" standalone="no"?>
<!DOCTYPE svg PUBLIC "-//W3C//DTD SVG 1.1//EN"
 "http://www.w3.org/Graphics/SVG/1.1/DTD/svg11.dtd">
<!-- Generated by graphviz version 2.38.0 (20140413.2041)
 -->
<!-- Title: ActorData Pages: 1 -->
<svg width="205pt" height="419pt"
 viewBox="0.00 0.00 204.50 419.00" xmlns="http://www.w3.org/2000/svg" xmlns:xlink="http://www.w3.org/1999/xlink">
<g id="graph0" class="graph" transform="scale(1 1) rotate(0) translate(4 415)">
<title>ActorData</title>
<polygon fill="white" stroke="none" points="-4,4 -4,-415 200.5,-415 200.5,4 -4,4"/>
<!-- Node1 -->
<g id="node1" class="node"><title>Node1</title>
<g id="a_node1"><a xlink:title=" ">
<polygon fill="#bfbfbf" stroke="black" points="28.5,-0.5 28.5,-134.5 148.5,-134.5 148.5,-0.5 28.5,-0.5"/>
<text text-anchor="middle" x="88.5" y="-122.5" font-family="Helvetica,sans-Serif" font-size="10.00">ActorData</text>
<polyline fill="none" stroke="black" points="28.5,-115.5 148.5,-115.5 "/>
<text text-anchor="start" x="36.5" y="-103.5" font-family="Helvetica,sans-Serif" font-size="10.00">+ scalingProgress</text>
<text text-anchor="start" x="36.5" y="-92.5" font-family="Helvetica,sans-Serif" font-size="10.00">+ trackingQuality</text>
<text text-anchor="start" x="36.5" y="-81.5" font-family="Helvetica,sans-Serif" font-size="10.00">+ inProgressPose</text>
<text text-anchor="start" x="36.5" y="-70.5" font-family="Helvetica,sans-Serif" font-size="10.00">+ inProgressBytesDone</text>
<text text-anchor="start" x="36.5" y="-59.5" font-family="Helvetica,sans-Serif" font-size="10.00">+ inProgressTimestamp</text>
<text text-anchor="start" x="36.5" y="-48.5" font-family="Helvetica,sans-Serif" font-size="10.00">+ lastPoseTimestamp</text>
<text text-anchor="start" x="36.5" y="-37.5" font-family="Helvetica,sans-Serif" font-size="10.00">+ receivedPackets</text>
<text text-anchor="start" x="36.5" y="-26.5" font-family="Helvetica,sans-Serif" font-size="10.00">+ status</text>
<polyline fill="none" stroke="black" points="28.5,-19.5 148.5,-19.5 "/>
<text text-anchor="start" x="36.5" y="-7.5" font-family="Helvetica,sans-Serif" font-size="10.00">+ ActorData()</text>
</a>
</g>
</g>
<!-- Node2 -->
<g id="node2" class="node"><title>Node2</title>
<g id="a_node2"><a xlink:href="../../d6/dd1/struct_captury_image.html" target="_top" xlink:title=" ">
<polygon fill="white" stroke="black" points="0,-182.5 0,-294.5 77,-294.5 77,-182.5 0,-182.5"/>
<text text-anchor="middle" x="38.5" y="-282.5" font-family="Helvetica,sans-Serif" font-size="10.00">CapturyImage</text>
<polyline fill="none" stroke="black" points="0,-275.5 77,-275.5 "/>
<text text-anchor="start" x="8" y="-263.5" font-family="Helvetica,sans-Serif" font-size="10.00">+ width</text>
<text text-anchor="start" x="8" y="-252.5" font-family="Helvetica,sans-Serif" font-size="10.00">+ height</text>
<text text-anchor="start" x="8" y="-241.5" font-family="Helvetica,sans-Serif" font-size="10.00">+ camera</text>
<text text-anchor="start" x="8" y="-230.5" font-family="Helvetica,sans-Serif" font-size="10.00">+ timestamp</text>
<text text-anchor="start" x="8" y="-219.5" font-family="Helvetica,sans-Serif" font-size="10.00">+ data</text>
<text text-anchor="start" x="8" y="-208.5" font-family="Helvetica,sans-Serif" font-size="10.00">+ gpuData</text>
<polyline fill="none" stroke="black" points="0,-201.5 77,-201.5 "/>
<text text-anchor="middle" x="38.5" y="-189.5" font-family="Helvetica,sans-Serif" font-size="10.00"> </text>
</a>
</g>
</g>
<!-- Node2&#45;&gt;Node1 -->
<g id="edge1" class="edge"><title>Node2&#45;&gt;Node1</title>
<path fill="none" stroke="#404040" d="M35.8988,-182.378C36.5307,-172.471 37.9155,-162.334 40.5,-153 41.1683,-150.586 41.9205,-148.169 42.7446,-145.755"/>
<polygon fill="none" stroke="#404040" points="42.7582,-145.72 41.1881,-138.682 47.0809,-134.525 48.651,-141.563 42.7582,-145.72"/>
<text text-anchor="middle" x="79" y="-156" font-family="Helvetica,sans-Serif" font-size="10.00"> +currentTextures</text>
</g>
<!-- Node3 -->
<g id="node3" class="node"><title>Node3</title>
<g id="a_node3"><a xlink:href="../../dc/d7c/struct_captury_pose.html" target="_top" xlink:title=" ">
<polygon fill="white" stroke="black" points="95.5,-199 95.5,-278 187.5,-278 187.5,-199 95.5,-199"/>
<text text-anchor="middle" x="141.5" y="-266" font-family="Helvetica,sans-Serif" font-size="10.00">CapturyPose</text>
<polyline fill="none" stroke="black" points="95.5,-259 187.5,-259 "/>
<text text-anchor="start" x="103.5" y="-247" font-family="Helvetica,sans-Serif" font-size="10.00">+ actor</text>
<text text-anchor="start" x="103.5" y="-236" font-family="Helvetica,sans-Serif" font-size="10.00">+ timestamp</text>
<text text-anchor="start" x="103.5" y="-225" font-family="Helvetica,sans-Serif" font-size="10.00">+ numTransforms</text>
<polyline fill="none" stroke="black" points="95.5,-218 187.5,-218 "/>
<text text-anchor="middle" x="141.5" y="-206" font-family="Helvetica,sans-Serif" font-size="10.00"> </text>
</a>
</g>
</g>
<!-- Node3&#45;&gt;Node1 -->
<g id="edge2" class="edge"><title>Node3&#45;&gt;Node1</title>
<path fill="none" stroke="#404040" d="M130.944,-198.669C126.906,-184.273 122.151,-167.844 117.5,-153 116.804,-150.78 116.091,-148.53 115.363,-146.261"/>
<polygon fill="none" stroke="#404040" points="115.351,-146.222 109.689,-141.755 111.635,-134.812 117.296,-139.278 115.351,-146.222"/>
<text text-anchor="middle" x="151.5" y="-156" font-family="Helvetica,sans-Serif" font-size="10.00"> +currentPose</text>
</g>
<!-- Node4 -->
<g id="node4" class="node"><title>Node4</title>
<g id="a_node4"><a xlink:href="../../d7/d61/struct_captury_transform.html" target="_top" xlink:title=" ">
<polygon fill="white" stroke="black" points="95,-342.5 95,-410.5 188,-410.5 188,-342.5 95,-342.5"/>
<text text-anchor="middle" x="141.5" y="-398.5" font-family="Helvetica,sans-Serif" font-size="10.00">CapturyTransform</text>
<polyline fill="none" stroke="black" points="95,-391.5 188,-391.5 "/>
<text text-anchor="start" x="103" y="-379.5" font-family="Helvetica,sans-Serif" font-size="10.00">+ translation</text>
<text text-anchor="start" x="103" y="-368.5" font-family="Helvetica,sans-Serif" font-size="10.00">+ rotation</text>
<polyline fill="none" stroke="black" points="95,-361.5 188,-361.5 "/>
<text text-anchor="middle" x="141.5" y="-349.5" font-family="Helvetica,sans-Serif" font-size="10.00"> </text>
</a>
</g>
</g>
<!-- Node4&#45;&gt;Node3 -->
<g id="edge3" class="edge"><title>Node4&#45;&gt;Node3</title>
<path fill="none" stroke="#404040" d="M141.5,-342.231C141.5,-326.588 141.5,-307.595 141.5,-290.215"/>
<polygon fill="none" stroke="#404040" points="141.5,-290.209 137.5,-284.209 141.5,-278.209 145.5,-284.209 141.5,-290.209"/>
<text text-anchor="middle" x="169" y="-316" font-family="Helvetica,sans-Serif" font-size="10.00"> +transforms</text>
</g>
</g>
</svg>
