<?xml version="1.0" encoding="UTF-8" standalone="no"?>
<!DOCTYPE svg PUBLIC "-//W3C//DTD SVG 1.1//EN"
 "http://www.w3.org/Graphics/SVG/1.1/DTD/svg11.dtd">
<!-- Generated by graphviz version 2.38.0 (20140413.2041)
 -->
<!-- Title: Entity Pages: 1 -->
<svg width="332pt" height="584pt"
 viewBox="0.00 0.00 331.50 584.00" xmlns="http://www.w3.org/2000/svg" xmlns:xlink="http://www.w3.org/1999/xlink">
<g id="graph0" class="graph" transform="scale(1 1) rotate(0) translate(4 580)">
<title>Entity</title>
<polygon fill="white" stroke="none" points="-4,4 -4,-580 327.5,-580 327.5,4 -4,4"/>
<!-- Node1 -->
<g id="node1" class="node"><title>Node1</title>
<g id="a_node1"><a xlink:title="base class for all objects in openGl window">
<polygon fill="#bfbfbf" stroke="black" points="113,-375.5 113,-575.5 194,-575.5 194,-375.5 113,-375.5"/>
<text text-anchor="middle" x="153.5" y="-563.5" font-family="Helvetica,sans-Serif" font-size="10.00">Entity</text>
<polyline fill="none" stroke="black" points="113,-556.5 194,-556.5 "/>
<text text-anchor="start" x="121" y="-544.5" font-family="Helvetica,sans-Serif" font-size="10.00"># m_matrix</text>
<polyline fill="none" stroke="black" points="113,-537.5 194,-537.5 "/>
<text text-anchor="start" x="121" y="-525.5" font-family="Helvetica,sans-Serif" font-size="10.00">+ Entity()</text>
<text text-anchor="start" x="121" y="-514.5" font-family="Helvetica,sans-Serif" font-size="10.00">+ ~Entity()</text>
<text text-anchor="start" x="121" y="-503.5" font-family="Helvetica,sans-Serif" font-size="10.00">+ getMatrix()</text>
<text text-anchor="start" x="121" y="-492.5" font-family="Helvetica,sans-Serif" font-size="10.00">+ translate()</text>
<text text-anchor="start" x="121" y="-481.5" font-family="Helvetica,sans-Serif" font-size="10.00">+ setPosition()</text>
<text text-anchor="start" x="121" y="-470.5" font-family="Helvetica,sans-Serif" font-size="10.00">+ getPosition()</text>
<text text-anchor="start" x="121" y="-459.5" font-family="Helvetica,sans-Serif" font-size="10.00">+ rotate()</text>
<text text-anchor="start" x="121" y="-448.5" font-family="Helvetica,sans-Serif" font-size="10.00">+ setRotation()</text>
<text text-anchor="start" x="121" y="-437.5" font-family="Helvetica,sans-Serif" font-size="10.00">+ getRotation()</text>
<text text-anchor="start" x="121" y="-426.5" font-family="Helvetica,sans-Serif" font-size="10.00">+ scale()</text>
<text text-anchor="start" x="121" y="-415.5" font-family="Helvetica,sans-Serif" font-size="10.00">+ scale()</text>
<text text-anchor="start" x="121" y="-404.5" font-family="Helvetica,sans-Serif" font-size="10.00">+ setScale()</text>
<text text-anchor="start" x="121" y="-393.5" font-family="Helvetica,sans-Serif" font-size="10.00">+ setScale()</text>
<text text-anchor="start" x="121" y="-382.5" font-family="Helvetica,sans-Serif" font-size="10.00">+ getScale()</text>
</a>
</g>
</g>
<!-- Node2 -->
<g id="node2" class="node"><title>Node2</title>
<g id="a_node2"><a xlink:href="../../da/dbb/class_camera.html" target="_top" xlink:title=" ">
<polygon fill="white" stroke="black" points="0,-188 0,-278 83,-278 83,-188 0,-188"/>
<text text-anchor="middle" x="41.5" y="-266" font-family="Helvetica,sans-Serif" font-size="10.00">Camera</text>
<polyline fill="none" stroke="black" points="0,-259 83,-259 "/>
<text text-anchor="start" x="8" y="-247" font-family="Helvetica,sans-Serif" font-size="10.00">&#45; m_rotation</text>
<polyline fill="none" stroke="black" points="0,-240 83,-240 "/>
<text text-anchor="start" x="8" y="-228" font-family="Helvetica,sans-Serif" font-size="10.00">+ Camera()</text>
<text text-anchor="start" x="8" y="-217" font-family="Helvetica,sans-Serif" font-size="10.00">+ ~Camera()</text>
<text text-anchor="start" x="8" y="-206" font-family="Helvetica,sans-Serif" font-size="10.00">+ addRotation()</text>
<text text-anchor="start" x="8" y="-195" font-family="Helvetica,sans-Serif" font-size="10.00">+ rotate()</text>
</a>
</g>
</g>
<!-- Node1&#45;&gt;Node2 -->
<g id="edge1" class="edge"><title>Node1&#45;&gt;Node2</title>
<path fill="none" stroke="midnightblue" d="M108.616,-378.12C92.4808,-343.472 75.0626,-306.07 62.015,-278.052"/>
<polygon fill="none" stroke="midnightblue" points="105.513,-379.746 112.907,-387.334 111.858,-376.791 105.513,-379.746"/>
</g>
<!-- Node3 -->
<g id="node3" class="node"><title>Node3</title>
<g id="a_node3"><a xlink:href="../../dc/dbe/class_mesh.html" target="_top" xlink:title="mesh base class">
<polygon fill="white" stroke="black" points="101.5,-127.5 101.5,-338.5 205.5,-338.5 205.5,-127.5 101.5,-127.5"/>
<text text-anchor="middle" x="153.5" y="-326.5" font-family="Helvetica,sans-Serif" font-size="10.00">Mesh</text>
<polyline fill="none" stroke="black" points="101.5,-319.5 205.5,-319.5 "/>
<text text-anchor="start" x="109.5" y="-307.5" font-family="Helvetica,sans-Serif" font-size="10.00"># m_vertexData</text>
<text text-anchor="start" x="109.5" y="-296.5" font-family="Helvetica,sans-Serif" font-size="10.00"># m_faceCount</text>
<text text-anchor="start" x="109.5" y="-285.5" font-family="Helvetica,sans-Serif" font-size="10.00"># m_vbo</text>
<text text-anchor="start" x="109.5" y="-274.5" font-family="Helvetica,sans-Serif" font-size="10.00"># m_texture</text>
<text text-anchor="start" x="109.5" y="-263.5" font-family="Helvetica,sans-Serif" font-size="10.00"># m_shaderProgram</text>
<text text-anchor="start" x="109.5" y="-252.5" font-family="Helvetica,sans-Serif" font-size="10.00"># m_isActive</text>
<text text-anchor="start" x="109.5" y="-241.5" font-family="Helvetica,sans-Serif" font-size="10.00"># m_diffuseColor</text>
<polyline fill="none" stroke="black" points="101.5,-234.5 205.5,-234.5 "/>
<text text-anchor="start" x="109.5" y="-222.5" font-family="Helvetica,sans-Serif" font-size="10.00">+ Mesh()</text>
<text text-anchor="start" x="109.5" y="-211.5" font-family="Helvetica,sans-Serif" font-size="10.00">+ ~Mesh()</text>
<text text-anchor="start" x="109.5" y="-200.5" font-family="Helvetica,sans-Serif" font-size="10.00">+ bind()</text>
<text text-anchor="start" x="109.5" y="-189.5" font-family="Helvetica,sans-Serif" font-size="10.00">+ release()</text>
<text text-anchor="start" x="109.5" y="-178.5" font-family="Helvetica,sans-Serif" font-size="10.00">+ getFaceCount()</text>
<text text-anchor="start" x="109.5" y="-167.5" font-family="Helvetica,sans-Serif" font-size="10.00">+ isActive()</text>
<text text-anchor="start" x="109.5" y="-156.5" font-family="Helvetica,sans-Serif" font-size="10.00">+ setActive()</text>
<text text-anchor="start" x="109.5" y="-145.5" font-family="Helvetica,sans-Serif" font-size="10.00">+ setDiffuseColor()</text>
<text text-anchor="start" x="109.5" y="-134.5" font-family="Helvetica,sans-Serif" font-size="10.00"># init()</text>
</a>
</g>
</g>
<!-- Node1&#45;&gt;Node3 -->
<g id="edge2" class="edge"><title>Node1&#45;&gt;Node3</title>
<path fill="none" stroke="midnightblue" d="M153.5,-365.08C153.5,-356.342 153.5,-347.528 153.5,-338.823"/>
<polygon fill="none" stroke="midnightblue" points="150,-365.291 153.5,-375.291 157,-365.291 150,-365.291"/>
</g>
<!-- Node6 -->
<g id="node6" class="node"><title>Node6</title>
<g id="a_node6"><a xlink:href="../../d2/d34/class_skeleton_mesh.html" target="_top" xlink:title="container for joint meshes">
<polygon fill="white" stroke="black" points="223.5,-199 223.5,-267 323.5,-267 323.5,-199 223.5,-199"/>
<text text-anchor="middle" x="273.5" y="-255" font-family="Helvetica,sans-Serif" font-size="10.00">SkeletonMesh</text>
<polyline fill="none" stroke="black" points="223.5,-248 323.5,-248 "/>
<text text-anchor="start" x="231.5" y="-236" font-family="Helvetica,sans-Serif" font-size="10.00">+ m_joints</text>
<polyline fill="none" stroke="black" points="223.5,-229 323.5,-229 "/>
<text text-anchor="start" x="231.5" y="-217" font-family="Helvetica,sans-Serif" font-size="10.00">+ SkeletonMesh()</text>
<text text-anchor="start" x="231.5" y="-206" font-family="Helvetica,sans-Serif" font-size="10.00">+ ~SkeletonMesh()</text>
</a>
</g>
</g>
<!-- Node1&#45;&gt;Node6 -->
<g id="edge5" class="edge"><title>Node1&#45;&gt;Node6</title>
<path fill="none" stroke="midnightblue" d="M198.709,-383.893C219.111,-343.004 241.947,-297.238 256.956,-267.156"/>
<polygon fill="none" stroke="midnightblue" points="195.459,-382.567 194.127,-393.078 201.723,-385.692 195.459,-382.567"/>
</g>
<!-- Node4 -->
<g id="node4" class="node"><title>Node4</title>
<g id="a_node4"><a xlink:href="../../d9/dbf/class_cube.html" target="_top" xlink:title=" ">
<polygon fill="white" stroke="black" points="80,-0.5 80,-90.5 145,-90.5 145,-0.5 80,-0.5"/>
<text text-anchor="middle" x="112.5" y="-78.5" font-family="Helvetica,sans-Serif" font-size="10.00">Cube</text>
<polyline fill="none" stroke="black" points="80,-71.5 145,-71.5 "/>
<text text-anchor="middle" x="112.5" y="-59.5" font-family="Helvetica,sans-Serif" font-size="10.00"> </text>
<polyline fill="none" stroke="black" points="80,-52.5 145,-52.5 "/>
<text text-anchor="start" x="88" y="-40.5" font-family="Helvetica,sans-Serif" font-size="10.00">+ Cube()</text>
<text text-anchor="start" x="88" y="-29.5" font-family="Helvetica,sans-Serif" font-size="10.00">+ Cube()</text>
<text text-anchor="start" x="88" y="-18.5" font-family="Helvetica,sans-Serif" font-size="10.00">+ ~Cube()</text>
<text text-anchor="start" x="88" y="-7.5" font-family="Helvetica,sans-Serif" font-size="10.00">&#45; initVerts()</text>
</a>
</g>
</g>
<!-- Node3&#45;&gt;Node4 -->
<g id="edge3" class="edge"><title>Node3&#45;&gt;Node4</title>
<path fill="none" stroke="midnightblue" d="M128.19,-117.487C126.124,-108.139 124.127,-99.1045 122.29,-90.7919"/>
<polygon fill="none" stroke="midnightblue" points="124.788,-118.314 130.364,-127.323 131.623,-116.804 124.788,-118.314"/>
</g>
<!-- Node5 -->
<g id="node5" class="node"><title>Node5</title>
<g id="a_node5"><a xlink:href="../../d2/d8d/class_plane.html" target="_top" xlink:title="plane mesh">
<polygon fill="white" stroke="black" points="163.5,-11.5 163.5,-79.5 225.5,-79.5 225.5,-11.5 163.5,-11.5"/>
<text text-anchor="middle" x="194.5" y="-67.5" font-family="Helvetica,sans-Serif" font-size="10.00">Plane</text>
<polyline fill="none" stroke="black" points="163.5,-60.5 225.5,-60.5 "/>
<text text-anchor="middle" x="194.5" y="-48.5" font-family="Helvetica,sans-Serif" font-size="10.00"> </text>
<polyline fill="none" stroke="black" points="163.5,-41.5 225.5,-41.5 "/>
<text text-anchor="start" x="171.5" y="-29.5" font-family="Helvetica,sans-Serif" font-size="10.00">+ Plane()</text>
<text text-anchor="start" x="171.5" y="-18.5" font-family="Helvetica,sans-Serif" font-size="10.00">+ ~Plane()</text>
</a>
</g>
</g>
<!-- Node3&#45;&gt;Node5 -->
<g id="edge4" class="edge"><title>Node3&#45;&gt;Node5</title>
<path fill="none" stroke="midnightblue" d="M178.853,-117.294C181.867,-103.657 184.732,-90.693 187.168,-79.6737"/>
<polygon fill="none" stroke="midnightblue" points="175.377,-116.804 176.636,-127.323 182.212,-118.314 175.377,-116.804"/>
</g>
</g>
</svg>
