<?xml version="1.0" encoding="UTF-8" standalone="no"?>
<!DOCTYPE svg PUBLIC "-//W3C//DTD SVG 1.1//EN"
 "http://www.w3.org/Graphics/SVG/1.1/DTD/svg11.dtd">
<!-- Generated by graphviz version 2.38.0 (20140413.2041)
 -->
<!-- Title: MarkerTransform Pages: 1 -->
<svg width="101pt" height="182pt"
 viewBox="0.00 0.00 101.00 182.00" xmlns="http://www.w3.org/2000/svg" xmlns:xlink="http://www.w3.org/1999/xlink">
<g id="graph0" class="graph" transform="scale(1 1) rotate(0) translate(4 178)">
<title>MarkerTransform</title>
<polygon fill="white" stroke="none" points="-4,4 -4,-178 97,-178 97,4 -4,4"/>
<!-- Node1 -->
<g id="node1" class="node"><title>Node1</title>
<g id="a_node1"><a xlink:title=" ">
<polygon fill="#bfbfbf" stroke="black" points="2,-0.5 2,-57.5 91,-57.5 91,-0.5 2,-0.5"/>
<text text-anchor="middle" x="46.5" y="-45.5" font-family="Helvetica,sans-Serif" font-size="10.00">MarkerTransform</text>
<polyline fill="none" stroke="black" points="2,-38.5 91,-38.5 "/>
<text text-anchor="start" x="10" y="-26.5" font-family="Helvetica,sans-Serif" font-size="10.00">+ timestamp</text>
<polyline fill="none" stroke="black" points="2,-19.5 91,-19.5 "/>
<text text-anchor="middle" x="46.5" y="-7.5" font-family="Helvetica,sans-Serif" font-size="10.00"> </text>
</a>
</g>
</g>
<!-- Node2 -->
<g id="node2" class="node"><title>Node2</title>
<g id="a_node2"><a xlink:href="../../d7/d61/struct_captury_transform.html" target="_top" xlink:title=" ">
<polygon fill="white" stroke="black" points="0,-105.5 0,-173.5 93,-173.5 93,-105.5 0,-105.5"/>
<text text-anchor="middle" x="46.5" y="-161.5" font-family="Helvetica,sans-Serif" font-size="10.00">CapturyTransform</text>
<polyline fill="none" stroke="black" points="0,-154.5 93,-154.5 "/>
<text text-anchor="start" x="8" y="-142.5" font-family="Helvetica,sans-Serif" font-size="10.00">+ translation</text>
<text text-anchor="start" x="8" y="-131.5" font-family="Helvetica,sans-Serif" font-size="10.00">+ rotation</text>
<polyline fill="none" stroke="black" points="0,-124.5 93,-124.5 "/>
<text text-anchor="middle" x="46.5" y="-112.5" font-family="Helvetica,sans-Serif" font-size="10.00"> </text>
</a>
</g>
</g>
<!-- Node2&#45;&gt;Node1 -->
<g id="edge1" class="edge"><title>Node2&#45;&gt;Node1</title>
<path fill="none" stroke="#404040" d="M46.5,-105.357C46.5,-94.1899 46.5,-81.6093 46.5,-69.9724"/>
<polygon fill="none" stroke="#404040" points="46.5001,-69.827 42.5,-63.827 46.5,-57.827 50.5,-63.8269 46.5001,-69.827"/>
<text text-anchor="middle" x="60.5" y="-79" font-family="Helvetica,sans-Serif" font-size="10.00"> +trafo</text>
</g>
</g>
</svg>
