<?xml version="1.0" encoding="UTF-8" standalone="no"?>
<!DOCTYPE svg PUBLIC "-//W3C//DTD SVG 1.1//EN"
 "http://www.w3.org/Graphics/SVG/1.1/DTD/svg11.dtd">
<!-- Generated by graphviz version 2.38.0 (20140413.2041)
 -->
<!-- Title: CapturyARTagPacket Pages: 1 -->
<svg width="118pt" height="309pt"
 viewBox="0.00 0.00 118.00 309.00" xmlns="http://www.w3.org/2000/svg" xmlns:xlink="http://www.w3.org/1999/xlink">
<g id="graph0" class="graph" transform="scale(1 1) rotate(0) translate(4 305)">
<title>CapturyARTagPacket</title>
<polygon fill="white" stroke="none" points="-4,4 -4,-305 114,-305 114,4 -4,4"/>
<!-- Node1 -->
<g id="node1" class="node"><title>Node1</title>
<g id="a_node1"><a xlink:title=" ">
<polygon fill="#bfbfbf" stroke="black" points="0,-0.5 0,-79.5 110,-79.5 110,-0.5 0,-0.5"/>
<text text-anchor="middle" x="55" y="-67.5" font-family="Helvetica,sans-Serif" font-size="10.00">CapturyARTagPacket</text>
<polyline fill="none" stroke="black" points="0,-60.5 110,-60.5 "/>
<text text-anchor="start" x="8" y="-48.5" font-family="Helvetica,sans-Serif" font-size="10.00">+ type</text>
<text text-anchor="start" x="8" y="-37.5" font-family="Helvetica,sans-Serif" font-size="10.00">+ size</text>
<text text-anchor="start" x="8" y="-26.5" font-family="Helvetica,sans-Serif" font-size="10.00">+ numTags</text>
<polyline fill="none" stroke="black" points="0,-19.5 110,-19.5 "/>
<text text-anchor="middle" x="55" y="-7.5" font-family="Helvetica,sans-Serif" font-size="10.00"> </text>
</a>
</g>
</g>
<!-- Node2 -->
<g id="node2" class="node"><title>Node2</title>
<g id="a_node2"><a xlink:href="../../dc/d63/struct_captury_a_r_tag.html" target="_top" xlink:title=" ">
<polygon fill="white" stroke="black" points="15,-127.5 15,-184.5 95,-184.5 95,-127.5 15,-127.5"/>
<text text-anchor="middle" x="55" y="-172.5" font-family="Helvetica,sans-Serif" font-size="10.00">CapturyARTag</text>
<polyline fill="none" stroke="black" points="15,-165.5 95,-165.5 "/>
<text text-anchor="start" x="23" y="-153.5" font-family="Helvetica,sans-Serif" font-size="10.00">+ id</text>
<polyline fill="none" stroke="black" points="15,-146.5 95,-146.5 "/>
<text text-anchor="middle" x="55" y="-134.5" font-family="Helvetica,sans-Serif" font-size="10.00"> </text>
</a>
</g>
</g>
<!-- Node2&#45;&gt;Node1 -->
<g id="edge1" class="edge"><title>Node2&#45;&gt;Node1</title>
<path fill="none" stroke="#404040" d="M55,-127.404C55,-116.63 55,-103.926 55,-91.6231"/>
<polygon fill="none" stroke="#404040" points="55.0001,-91.5406 51,-85.5406 55,-79.5406 59,-85.5405 55.0001,-91.5406"/>
<text text-anchor="middle" x="69" y="-101" font-family="Helvetica,sans-Serif" font-size="10.00"> +tags</text>
</g>
<!-- Node3 -->
<g id="node3" class="node"><title>Node3</title>
<g id="a_node3"><a xlink:href="../../d7/d61/struct_captury_transform.html" target="_top" xlink:title=" ">
<polygon fill="white" stroke="black" points="8.5,-232.5 8.5,-300.5 101.5,-300.5 101.5,-232.5 8.5,-232.5"/>
<text text-anchor="middle" x="55" y="-288.5" font-family="Helvetica,sans-Serif" font-size="10.00">CapturyTransform</text>
<polyline fill="none" stroke="black" points="8.5,-281.5 101.5,-281.5 "/>
<text text-anchor="start" x="16.5" y="-269.5" font-family="Helvetica,sans-Serif" font-size="10.00">+ translation</text>
<text text-anchor="start" x="16.5" y="-258.5" font-family="Helvetica,sans-Serif" font-size="10.00">+ rotation</text>
<polyline fill="none" stroke="black" points="8.5,-251.5 101.5,-251.5 "/>
<text text-anchor="middle" x="55" y="-239.5" font-family="Helvetica,sans-Serif" font-size="10.00"> </text>
</a>
</g>
</g>
<!-- Node3&#45;&gt;Node2 -->
<g id="edge2" class="edge"><title>Node3&#45;&gt;Node2</title>
<path fill="none" stroke="#404040" d="M55,-232.357C55,-221.19 55,-208.609 55,-196.972"/>
<polygon fill="none" stroke="#404040" points="55.0001,-196.827 51,-190.827 55,-184.827 59,-190.827 55.0001,-196.827"/>
<text text-anchor="middle" x="80" y="-206" font-family="Helvetica,sans-Serif" font-size="10.00"> +transform</text>
</g>
</g>
</svg>
