<?xml version="1.0" encoding="UTF-8" standalone="no"?>
<!DOCTYPE svg PUBLIC "-//W3C//DTD SVG 1.1//EN"
 "http://www.w3.org/Graphics/SVG/1.1/DTD/svg11.dtd">
<!-- Generated by graphviz version 2.38.0 (20140413.2041)
 -->
<!-- Title: ParserManager Pages: 1 -->
<!--zoomable 683 -->
<svg id="main" version="1.1" xmlns="http://www.w3.org/2000/svg" xmlns:xlink="http://www.w3.org/1999/xlink" xml:space="preserve" onload="init(evt)">
<style type="text/css"><![CDATA[
.edge:hover path { stroke: red; }
.edge:hover polygon { stroke: red; fill: red; }
]]></style>
<script type="text/javascript"><![CDATA[
var edges = document.getElementsByTagName('g');
if (edges && edges.length) {
  for (var i=0;i<edges.length;i++) {
    if (edges[i].id.substr(0,4)=='edge') {
      edges[i].setAttribute('class','edge');
    }
  }
}
]]></script>
        <defs>
                <circle id="rim" cx="0" cy="0" r="7"/>
                <circle id="rim2" cx="0" cy="0" r="3.5"/>
                <g id="zoomPlus">
                        <use xlink:href="#rim" fill="#404040">
                                <set attributeName="fill" to="#808080" begin="zoomplus.mouseover" end="zoomplus.mouseout"/>
                        </use>
                        <path d="M-4,0h8M0,-4v8" fill="none" stroke="white" stroke-width="1.5" pointer-events="none"/>
                </g>
                <g id="zoomMin">
                        <use xlink:href="#rim" fill="#404040">
                                <set attributeName="fill" to="#808080" begin="zoomminus.mouseover" end="zoomminus.mouseout"/>
                        </use>
                        <path d="M-4,0h8" fill="none" stroke="white" stroke-width="1.5" pointer-events="none"/>
                </g>
                <g id="dirArrow">
                        <path fill="none" stroke="white" stroke-width="1.5" d="M0,-3.0v7 M-2.5,-0.5L0,-3.0L2.5,-0.5"/>
                </g>
               <g id="resetDef">
                       <use xlink:href="#rim2" fill="#404040">
                               <set attributeName="fill" to="#808080" begin="reset.mouseover" end="reset.mouseout"/>
                       </use>
               </g>
        </defs>

<script type="text/javascript">
var viewWidth = 609;
var viewHeight = 683;
var sectionId = 'dynsection-0';
</script>
<script xlink:href="../../svgpan.js"/>
<svg id="graph" class="graph">
<g id="viewport">
<title>ParserManager</title>
<polygon fill="white" stroke="none" points="-4,4 -4,-679 604.5,-679 604.5,4 -4,4"/>
<!-- Node1 -->
<g id="node1" class="node"><title>Node1</title>
<g id="a_node1"><a xlink:title=" ">
<polygon fill="#bfbfbf" stroke="black" points="253.5,-0.5 253.5,-90.5 365.5,-90.5 365.5,-0.5 253.5,-0.5"/>
<text text-anchor="middle" x="309.5" y="-78.5" font-family="Helvetica,sans-Serif" font-size="10.00">ParserManager</text>
<polyline fill="none" stroke="black" points="253.5,-71.5 365.5,-71.5 "/>
<text text-anchor="start" x="261.5" y="-59.5" font-family="Helvetica,sans-Serif" font-size="10.00">&#45; endEffectors</text>
<polyline fill="none" stroke="black" points="253.5,-52.5 365.5,-52.5 "/>
<text text-anchor="start" x="261.5" y="-40.5" font-family="Helvetica,sans-Serif" font-size="10.00">+ ParserManager()</text>
<text text-anchor="start" x="261.5" y="-29.5" font-family="Helvetica,sans-Serif" font-size="10.00">+ ~ParserManager()</text>
<text text-anchor="start" x="261.5" y="-18.5" font-family="Helvetica,sans-Serif" font-size="10.00">+ getDatagram()</text>
<text text-anchor="start" x="261.5" y="-7.5" font-family="Helvetica,sans-Serif" font-size="10.00">+ getScaleDatagram()</text>
</a>
</g>
</g>
<!-- Node2 -->
<g id="node2" class="node"><title>Node2</title>
<g id="a_node2"><a xlink:href="../../d4/dd9/struct_scale_datagram_1_1_bvh_scale_information.html" target="_top" xlink:title=" ">
<polygon fill="white" stroke="black" points="0,-469 0,-548 177,-548 177,-469 0,-469"/>
<text text-anchor="middle" x="88.5" y="-536" font-family="Helvetica,sans-Serif" font-size="10.00">ScaleDatagram::BvhScaleInformation</text>
<polyline fill="none" stroke="black" points="0,-529 177,-529 "/>
<text text-anchor="start" x="8" y="-517" font-family="Helvetica,sans-Serif" font-size="10.00">+ avatarId</text>
<text text-anchor="start" x="8" y="-506" font-family="Helvetica,sans-Serif" font-size="10.00">+ tPose</text>
<text text-anchor="start" x="8" y="-495" font-family="Helvetica,sans-Serif" font-size="10.00">+ endSites</text>
<polyline fill="none" stroke="black" points="0,-488 177,-488 "/>
<text text-anchor="middle" x="88.5" y="-476" font-family="Helvetica,sans-Serif" font-size="10.00"> </text>
</a>
</g>
</g>
<!-- Node2&#45;&gt;Node1 -->
<g id="edge1" class="edge"><title>Node2&#45;&gt;Node1</title>
<path fill="none" stroke="#404040" d="M73.0969,-468.835C47.1127,-396.696 3.8504,-239.705 73.5,-138 110.916,-83.3633 186.057,-61.3448 241.545,-52.4752"/>
<polygon fill="none" stroke="#404040" points="241.547,-52.475 246.901,-47.6439 253.419,-50.7275 248.066,-55.5586 241.547,-52.475"/>
<text text-anchor="middle" x="120" y="-219.5" font-family="Helvetica,sans-Serif" font-size="10.00"> &#45;scaleData</text>
<text text-anchor="middle" x="120" y="-208.5" font-family="Helvetica,sans-Serif" font-size="10.00">&#45;m_scaleDataFiltered</text>
</g>
<!-- Node3 -->
<g id="node3" class="node"><title>Node3</title>
<g id="a_node3"><a xlink:href="../../d8/da5/class_scale_datagram.html" target="_top" xlink:title=" ">
<polygon fill="white" stroke="black" points="176,-138.5 176,-294.5 301,-294.5 301,-138.5 176,-138.5"/>
<text text-anchor="middle" x="238.5" y="-282.5" font-family="Helvetica,sans-Serif" font-size="10.00">ScaleDatagram</text>
<polyline fill="none" stroke="black" points="176,-275.5 301,-275.5 "/>
<text text-anchor="start" x="184" y="-263.5" font-family="Helvetica,sans-Serif" font-size="10.00">&#45; m_tPose</text>
<text text-anchor="start" x="184" y="-252.5" font-family="Helvetica,sans-Serif" font-size="10.00">&#45; m_pointDefinitions</text>
<polyline fill="none" stroke="black" points="176,-245.5 301,-245.5 "/>
<text text-anchor="start" x="184" y="-233.5" font-family="Helvetica,sans-Serif" font-size="10.00">+ ScaleDatagram()</text>
<text text-anchor="start" x="184" y="-222.5" font-family="Helvetica,sans-Serif" font-size="10.00">+ ~ScaleDatagram()</text>
<text text-anchor="start" x="184" y="-211.5" font-family="Helvetica,sans-Serif" font-size="10.00">+ printData()</text>
<text text-anchor="start" x="184" y="-200.5" font-family="Helvetica,sans-Serif" font-size="10.00">+ getScaleData()</text>
<text text-anchor="start" x="184" y="-189.5" font-family="Helvetica,sans-Serif" font-size="10.00"># deserializeData()</text>
<text text-anchor="start" x="184" y="-178.5" font-family="Helvetica,sans-Serif" font-size="10.00">&#45; printSegmentData()</text>
<text text-anchor="start" x="184" y="-167.5" font-family="Helvetica,sans-Serif" font-size="10.00">&#45; printViveSegmentData()</text>
<text text-anchor="start" x="184" y="-156.5" font-family="Helvetica,sans-Serif" font-size="10.00">&#45; printPointData()</text>
<text text-anchor="start" x="184" y="-145.5" font-family="Helvetica,sans-Serif" font-size="10.00">&#45; printVivePointData()</text>
</a>
</g>
</g>
<!-- Node2&#45;&gt;Node3 -->
<g id="edge4" class="edge"><title>Node2&#45;&gt;Node3</title>
<path fill="none" stroke="#404040" d="M95.9003,-468.953C104.852,-428.205 122.449,-363.034 151.5,-313 156.384,-304.589 162.11,-296.286 168.252,-288.298"/>
<polygon fill="none" stroke="#404040" points="168.42,-288.088 169.049,-280.905 175.923,-278.723 175.293,-285.906 168.42,-288.088"/>
<text text-anchor="middle" x="204.5" y="-316" font-family="Helvetica,sans-Serif" font-size="10.00"> &#45;m_bvhScaleInformation</text>
</g>
<!-- Node3&#45;&gt;Node1 -->
<g id="edge2" class="edge"><title>Node3&#45;&gt;Node1</title>
<path fill="none" stroke="#404040" d="M263.592,-138.417C267.337,-128.421 271.345,-118.398 275.5,-109 276.575,-106.568 277.711,-104.102 278.888,-101.627"/>
<polygon fill="none" stroke="#404040" points="278.935,-101.53 278.015,-94.3782 284.262,-90.7776 285.183,-97.9297 278.935,-101.53"/>
<text text-anchor="middle" x="311.5" y="-112" font-family="Helvetica,sans-Serif" font-size="10.00"> &#45;scaleDatagram</text>
</g>
<!-- Node4 -->
<g id="node4" class="node"><title>Node4</title>
<g id="a_node4"><a xlink:href="../../db/d35/class_datagram.html" target="_top" xlink:title=" ">
<polygon fill="white" stroke="black" points="221,-342.5 221,-674.5 382,-674.5 382,-342.5 221,-342.5"/>
<text text-anchor="middle" x="301.5" y="-662.5" font-family="Helvetica,sans-Serif" font-size="10.00">Datagram</text>
<polyline fill="none" stroke="black" points="221,-655.5 382,-655.5 "/>
<text text-anchor="start" x="229" y="-643.5" font-family="Helvetica,sans-Serif" font-size="10.00"># EULERPOSITIONSCALE</text>
<text text-anchor="start" x="229" y="-632.5" font-family="Helvetica,sans-Serif" font-size="10.00">&#45; m_header</text>
<text text-anchor="start" x="229" y="-621.5" font-family="Helvetica,sans-Serif" font-size="10.00">&#45; m_sampleCounter</text>
<text text-anchor="start" x="229" y="-610.5" font-family="Helvetica,sans-Serif" font-size="10.00">&#45; m_frameTime</text>
<text text-anchor="start" x="229" y="-599.5" font-family="Helvetica,sans-Serif" font-size="10.00">&#45; m_avatarId</text>
<text text-anchor="start" x="229" y="-588.5" font-family="Helvetica,sans-Serif" font-size="10.00">&#45; m_dataCount</text>
<text text-anchor="start" x="229" y="-577.5" font-family="Helvetica,sans-Serif" font-size="10.00">&#45; m_dgramCounter</text>
<text text-anchor="start" x="229" y="-566.5" font-family="Helvetica,sans-Serif" font-size="10.00">&#45; m_bodySegmentCount</text>
<text text-anchor="start" x="229" y="-555.5" font-family="Helvetica,sans-Serif" font-size="10.00">&#45; m_propCount</text>
<text text-anchor="start" x="229" y="-544.5" font-family="Helvetica,sans-Serif" font-size="10.00">&#45; m_fingerTrackingSegmentCount</text>
<text text-anchor="start" x="229" y="-533.5" font-family="Helvetica,sans-Serif" font-size="10.00">&#45; m_dataSize</text>
<text text-anchor="start" x="229" y="-522.5" font-family="Helvetica,sans-Serif" font-size="10.00">&#45; m_packetsName</text>
<polyline fill="none" stroke="black" points="221,-515.5 382,-515.5 "/>
<text text-anchor="start" x="229" y="-503.5" font-family="Helvetica,sans-Serif" font-size="10.00">+ Datagram()</text>
<text text-anchor="start" x="229" y="-492.5" font-family="Helvetica,sans-Serif" font-size="10.00">+ ~Datagram()</text>
<text text-anchor="start" x="229" y="-481.5" font-family="Helvetica,sans-Serif" font-size="10.00">+ deserialize()</text>
<text text-anchor="start" x="229" y="-470.5" font-family="Helvetica,sans-Serif" font-size="10.00">+ setDataCount()</text>
<text text-anchor="start" x="229" y="-459.5" font-family="Helvetica,sans-Serif" font-size="10.00">+ setType()</text>
<text text-anchor="start" x="229" y="-448.5" font-family="Helvetica,sans-Serif" font-size="10.00">+ messageType()</text>
<text text-anchor="start" x="229" y="-437.5" font-family="Helvetica,sans-Serif" font-size="10.00">+ sampleCounter()</text>
<text text-anchor="start" x="229" y="-426.5" font-family="Helvetica,sans-Serif" font-size="10.00">+ frameTime()</text>
<text text-anchor="start" x="229" y="-415.5" font-family="Helvetica,sans-Serif" font-size="10.00">+ avatarId()</text>
<text text-anchor="start" x="229" y="-404.5" font-family="Helvetica,sans-Serif" font-size="10.00">+ dataCount()</text>
<text text-anchor="start" x="229" y="-393.5" font-family="Helvetica,sans-Serif" font-size="10.00">and 8 more...</text>
<text text-anchor="start" x="229" y="-382.5" font-family="Helvetica,sans-Serif" font-size="10.00">+ messageType()</text>
<text text-anchor="start" x="229" y="-371.5" font-family="Helvetica,sans-Serif" font-size="10.00"># deserializeData()</text>
<text text-anchor="start" x="229" y="-360.5" font-family="Helvetica,sans-Serif" font-size="10.00">&#45; getDataSize()</text>
<text text-anchor="start" x="229" y="-349.5" font-family="Helvetica,sans-Serif" font-size="10.00">&#45; initMap()</text>
</a>
</g>
</g>
<!-- Node4&#45;&gt;Node3 -->
<g id="edge3" class="edge"><title>Node4&#45;&gt;Node3</title>
<path fill="none" stroke="midnightblue" d="M263.406,-332.145C260.575,-319.113 257.818,-306.424 255.233,-294.525"/>
<polygon fill="none" stroke="midnightblue" points="260.04,-333.14 265.583,-342.169 266.881,-331.654 260.04,-333.14"/>
</g>
<!-- Node6 -->
<g id="node6" class="node"><title>Node6</title>
<g id="a_node6"><a xlink:href="../../de/d22/class_quaternion_datagram.html" target="_top" xlink:title="a Position &amp; Quaternion orientation pose datagram (type 02)">
<polygon fill="white" stroke="black" points="319,-166 319,-267 446,-267 446,-166 319,-166"/>
<text text-anchor="middle" x="382.5" y="-255" font-family="Helvetica,sans-Serif" font-size="10.00">QuaternionDatagram</text>
<polyline fill="none" stroke="black" points="319,-248 446,-248 "/>
<text text-anchor="start" x="327" y="-236" font-family="Helvetica,sans-Serif" font-size="10.00">+ m_data</text>
<polyline fill="none" stroke="black" points="319,-229 446,-229 "/>
<text text-anchor="start" x="327" y="-217" font-family="Helvetica,sans-Serif" font-size="10.00">+ QuaternionDatagram()</text>
<text text-anchor="start" x="327" y="-206" font-family="Helvetica,sans-Serif" font-size="10.00">+ ~QuaternionDatagram()</text>
<text text-anchor="start" x="327" y="-195" font-family="Helvetica,sans-Serif" font-size="10.00">+ printData()</text>
<text text-anchor="start" x="327" y="-184" font-family="Helvetica,sans-Serif" font-size="10.00">+ getData()</text>
<text text-anchor="start" x="327" y="-173" font-family="Helvetica,sans-Serif" font-size="10.00"># deserializeData()</text>
</a>
</g>
</g>
<!-- Node4&#45;&gt;Node6 -->
<g id="edge7" class="edge"><title>Node4&#45;&gt;Node6</title>
<path fill="none" stroke="midnightblue" d="M350.439,-332.285C357.08,-308.51 363.404,-285.869 368.653,-267.075"/>
<polygon fill="none" stroke="midnightblue" points="346.998,-331.596 347.679,-342.169 353.74,-333.479 346.998,-331.596"/>
</g>
<!-- Node5 -->
<g id="node5" class="node"><title>Node5</title>
<g id="a_node5"><a xlink:href="../../d6/d4b/struct_parser_manager_1_1_quaternion_data_with_id.html" target="_top" xlink:title=" ">
<polygon fill="white" stroke="black" points="464.5,-171.5 464.5,-261.5 600.5,-261.5 600.5,-171.5 464.5,-171.5"/>
<text text-anchor="start" x="472.5" y="-249.5" font-family="Helvetica,sans-Serif" font-size="10.00">ParserManager::Quaternion</text>
<text text-anchor="middle" x="532.5" y="-238.5" font-family="Helvetica,sans-Serif" font-size="10.00">DataWithId</text>
<polyline fill="none" stroke="black" points="464.5,-231.5 600.5,-231.5 "/>
<text text-anchor="start" x="472.5" y="-219.5" font-family="Helvetica,sans-Serif" font-size="10.00">+ avatarId</text>
<text text-anchor="start" x="472.5" y="-208.5" font-family="Helvetica,sans-Serif" font-size="10.00">+ frameTime</text>
<text text-anchor="start" x="472.5" y="-197.5" font-family="Helvetica,sans-Serif" font-size="10.00">+ kinematics</text>
<polyline fill="none" stroke="black" points="464.5,-190.5 600.5,-190.5 "/>
<text text-anchor="middle" x="532.5" y="-178.5" font-family="Helvetica,sans-Serif" font-size="10.00"> </text>
</a>
</g>
</g>
<!-- Node5&#45;&gt;Node1 -->
<g id="edge5" class="edge"><title>Node5&#45;&gt;Node1</title>
<path fill="none" stroke="#404040" d="M491.577,-171.489C480.056,-160.048 467.193,-148.109 454.5,-138 430.147,-118.605 401.49,-99.7845 376.111,-84.307"/>
<polygon fill="none" stroke="#404040" points="376.104,-84.303 368.901,-84.6307 365.827,-78.1072 373.031,-77.7795 376.104,-84.303"/>
<text text-anchor="middle" x="489" y="-112" font-family="Helvetica,sans-Serif" font-size="10.00"> &#45;quaternionDatagramWithId</text>
</g>
<!-- Node6&#45;&gt;Node1 -->
<g id="edge6" class="edge"><title>Node6&#45;&gt;Node1</title>
<path fill="none" stroke="#404040" d="M368.763,-165.821C363.054,-147.598 355.81,-127.029 347.5,-109 346.311,-106.421 345.041,-103.816 343.711,-101.209"/>
<polygon fill="none" stroke="#404040" points="343.658,-101.111 337.293,-97.7212 337.974,-90.5423 344.338,-93.9316 343.658,-101.111"/>
<text text-anchor="middle" x="375" y="-112" font-family="Helvetica,sans-Serif" font-size="10.00"> &#45;datagram</text>
</g>
</g>
</svg>
        <g id="navigator" transform="translate(0 0)" fill="#404254">
                <rect fill="#f2f5e9" fill-opacity="0.5" stroke="#606060" stroke-width=".5" x="0" y="0" width="60" height="60"/>
                <use id="zoomplus" xlink:href="#zoomPlus" x="17" y="9" onmousedown="handleZoom(evt,'in')"/>
                <use id="zoomminus" xlink:href="#zoomMin" x="42" y="9" onmousedown="handleZoom(evt,'out')"/>
                <use id="reset" xlink:href="#resetDef" x="30" y="36" onmousedown="handleReset()"/>
                <g id="arrowUp" xlink:href="#dirArrow" transform="translate(30 24)" onmousedown="handlePan(0,-1)">
                  <use xlink:href="#rim" fill="#404040">
                        <set attributeName="fill" to="#808080" begin="arrowUp.mouseover" end="arrowUp.mouseout"/>
                  </use>
                  <path fill="none" stroke="white" stroke-width="1.5" d="M0,-3.0v7 M-2.5,-0.5L0,-3.0L2.5,-0.5"/>
                </g>
                <g id="arrowRight" xlink:href="#dirArrow" transform="rotate(90) translate(36 -43)" onmousedown="handlePan(1,0)">
                  <use xlink:href="#rim" fill="#404040">
                        <set attributeName="fill" to="#808080" begin="arrowRight.mouseover" end="arrowRight.mouseout"/>
                  </use>
                  <path fill="none" stroke="white" stroke-width="1.5" d="M0,-3.0v7 M-2.5,-0.5L0,-3.0L2.5,-0.5"/>
                </g>
                <g id="arrowDown" xlink:href="#dirArrow" transform="rotate(180) translate(-30 -48)" onmousedown="handlePan(0,1)">
                  <use xlink:href="#rim" fill="#404040">
                        <set attributeName="fill" to="#808080" begin="arrowDown.mouseover" end="arrowDown.mouseout"/>
                  </use>
                  <path fill="none" stroke="white" stroke-width="1.5" d="M0,-3.0v7 M-2.5,-0.5L0,-3.0L2.5,-0.5"/>
                </g>
                <g id="arrowLeft" xlink:href="#dirArrow" transform="rotate(270) translate(-36 17)" onmousedown="handlePan(-1,0)">
                  <use xlink:href="#rim" fill="#404040">
                        <set attributeName="fill" to="#808080" begin="arrowLeft.mouseover" end="arrowLeft.mouseout"/>
                  </use>
                  <path fill="none" stroke="white" stroke-width="1.5" d="M0,-3.0v7 M-2.5,-0.5L0,-3.0L2.5,-0.5"/>
                </g>
        </g>
        <svg viewBox="0 0 15 15" width="100%" height="30px" preserveAspectRatio="xMaxYMin meet">
         <g id="arrow_out" transform="scale(0.3 0.3)">
          <a xlink:href="class_parser_manager__coll__graph_org.svg" target="_base">
           <rect id="button" ry="5" rx="5" y="6" x="6" height="38" width="38"
                fill="#f2f5e9" fill-opacity="0.5" stroke="#606060" stroke-width="1.0"/>
           <path id="arrow"
             d="M 11.500037,31.436501 C 11.940474,20.09759 22.043105,11.32322 32.158766,21.979434 L 37.068811,17.246167 C 37.068811,17.246167 37.088388,32 37.088388,32 L 22.160133,31.978069 C 22.160133,31.978069 26.997745,27.140456 26.997745,27.140456 C 18.528582,18.264221 13.291696,25.230495 11.500037,31.436501 z"
             style="fill:#404040;"/>
          </a>
         </g>
        </svg>
</svg>
