<?xml version="1.0" encoding="UTF-8" standalone="no"?>
<!DOCTYPE svg PUBLIC "-//W3C//DTD SVG 1.1//EN"
 "http://www.w3.org/Graphics/SVG/1.1/DTD/svg11.dtd">
<!-- Generated by graphviz version 2.38.0 (20140413.2041)
 -->
<!-- Title: Camera Pages: 1 -->
<svg width="91pt" height="336pt"
 viewBox="0.00 0.00 91.00 336.00" xmlns="http://www.w3.org/2000/svg" xmlns:xlink="http://www.w3.org/1999/xlink">
<g id="graph0" class="graph" transform="scale(1 1) rotate(0) translate(4 332)">
<title>Camera</title>
<polygon fill="white" stroke="none" points="-4,4 -4,-332 87,-332 87,4 -4,4"/>
<!-- Node1 -->
<g id="node1" class="node"><title>Node1</title>
<g id="a_node1"><a xlink:title=" ">
<polygon fill="#bfbfbf" stroke="black" points="0,-0.5 0,-90.5 83,-90.5 83,-0.5 0,-0.5"/>
<text text-anchor="middle" x="41.5" y="-78.5" font-family="Helvetica,sans-Serif" font-size="10.00">Camera</text>
<polyline fill="none" stroke="black" points="0,-71.5 83,-71.5 "/>
<text text-anchor="start" x="8" y="-59.5" font-family="Helvetica,sans-Serif" font-size="10.00">&#45; m_rotation</text>
<polyline fill="none" stroke="black" points="0,-52.5 83,-52.5 "/>
<text text-anchor="start" x="8" y="-40.5" font-family="Helvetica,sans-Serif" font-size="10.00">+ Camera()</text>
<text text-anchor="start" x="8" y="-29.5" font-family="Helvetica,sans-Serif" font-size="10.00">+ ~Camera()</text>
<text text-anchor="start" x="8" y="-18.5" font-family="Helvetica,sans-Serif" font-size="10.00">+ addRotation()</text>
<text text-anchor="start" x="8" y="-7.5" font-family="Helvetica,sans-Serif" font-size="10.00">+ rotate()</text>
</a>
</g>
</g>
<!-- Node2 -->
<g id="node2" class="node"><title>Node2</title>
<g id="a_node2"><a xlink:href="../../d2/d96/class_entity.html" target="_top" xlink:title="base class for all objects in openGl window">
<polygon fill="white" stroke="black" points="1,-127.5 1,-327.5 82,-327.5 82,-127.5 1,-127.5"/>
<text text-anchor="middle" x="41.5" y="-315.5" font-family="Helvetica,sans-Serif" font-size="10.00">Entity</text>
<polyline fill="none" stroke="black" points="1,-308.5 82,-308.5 "/>
<text text-anchor="start" x="9" y="-296.5" font-family="Helvetica,sans-Serif" font-size="10.00"># m_matrix</text>
<polyline fill="none" stroke="black" points="1,-289.5 82,-289.5 "/>
<text text-anchor="start" x="9" y="-277.5" font-family="Helvetica,sans-Serif" font-size="10.00">+ Entity()</text>
<text text-anchor="start" x="9" y="-266.5" font-family="Helvetica,sans-Serif" font-size="10.00">+ ~Entity()</text>
<text text-anchor="start" x="9" y="-255.5" font-family="Helvetica,sans-Serif" font-size="10.00">+ getMatrix()</text>
<text text-anchor="start" x="9" y="-244.5" font-family="Helvetica,sans-Serif" font-size="10.00">+ translate()</text>
<text text-anchor="start" x="9" y="-233.5" font-family="Helvetica,sans-Serif" font-size="10.00">+ setPosition()</text>
<text text-anchor="start" x="9" y="-222.5" font-family="Helvetica,sans-Serif" font-size="10.00">+ getPosition()</text>
<text text-anchor="start" x="9" y="-211.5" font-family="Helvetica,sans-Serif" font-size="10.00">+ rotate()</text>
<text text-anchor="start" x="9" y="-200.5" font-family="Helvetica,sans-Serif" font-size="10.00">+ setRotation()</text>
<text text-anchor="start" x="9" y="-189.5" font-family="Helvetica,sans-Serif" font-size="10.00">+ getRotation()</text>
<text text-anchor="start" x="9" y="-178.5" font-family="Helvetica,sans-Serif" font-size="10.00">+ scale()</text>
<text text-anchor="start" x="9" y="-167.5" font-family="Helvetica,sans-Serif" font-size="10.00">+ scale()</text>
<text text-anchor="start" x="9" y="-156.5" font-family="Helvetica,sans-Serif" font-size="10.00">+ setScale()</text>
<text text-anchor="start" x="9" y="-145.5" font-family="Helvetica,sans-Serif" font-size="10.00">+ setScale()</text>
<text text-anchor="start" x="9" y="-134.5" font-family="Helvetica,sans-Serif" font-size="10.00">+ getScale()</text>
</a>
</g>
</g>
<!-- Node2&#45;&gt;Node1 -->
<g id="edge1" class="edge"><title>Node2&#45;&gt;Node1</title>
<path fill="none" stroke="midnightblue" d="M41.5,-117.226C41.5,-108.039 41.5,-99.1337 41.5,-90.9168"/>
<polygon fill="none" stroke="midnightblue" points="38.0001,-117.286 41.5,-127.286 45.0001,-117.286 38.0001,-117.286"/>
</g>
</g>
</svg>
