<?xml version="1.0" encoding="UTF-8" standalone="no"?>
<!DOCTYPE svg PUBLIC "-//W3C//DTD SVG 1.1//EN"
 "http://www.w3.org/Graphics/SVG/1.1/DTD/svg11.dtd">
<!-- Generated by graphviz version 2.38.0 (20140413.2041)
 -->
<!-- Title: MotionHub Pages: 1 -->
<svg width="989pt" height="1956pt"
 viewBox="0.00 0.00 989.00 1956.00" xmlns="http://www.w3.org/2000/svg" xmlns:xlink="http://www.w3.org/1999/xlink">
<g id="graph0" class="graph" transform="scale(1 1) rotate(0) translate(4 1952)">
<title>MotionHub</title>
<polygon fill="white" stroke="none" points="-4,4 -4,-1952 985,-1952 985,4 -4,4"/>
<!-- Node1 -->
<g id="node1" class="node"><title>Node1</title>
<g id="a_node1"><a xlink:title="Hub for combining different body tracking solutions and sending position and rotation data of skeleto...">
<polygon fill="#bfbfbf" stroke="black" points="309.5,-0.5 309.5,-79.5 387.5,-79.5 387.5,-0.5 309.5,-0.5"/>
<text text-anchor="middle" x="348.5" y="-67.5" font-family="Helvetica,sans-Serif" font-size="10.00">MotionHub</text>
<polyline fill="none" stroke="black" points="309.5,-60.5 387.5,-60.5 "/>
<text text-anchor="start" x="317.5" y="-48.5" font-family="Helvetica,sans-Serif" font-size="10.00">&#45; m_argc</text>
<text text-anchor="start" x="317.5" y="-37.5" font-family="Helvetica,sans-Serif" font-size="10.00">&#45; m_argv</text>
<polyline fill="none" stroke="black" points="309.5,-30.5 387.5,-30.5 "/>
<text text-anchor="start" x="317.5" y="-18.5" font-family="Helvetica,sans-Serif" font-size="10.00">+ MotionHub()</text>
<text text-anchor="start" x="317.5" y="-7.5" font-family="Helvetica,sans-Serif" font-size="10.00">&#45; update()</text>
</a>
</g>
</g>
<!-- Node2 -->
<g id="node2" class="node"><title>Node2</title>
<g id="a_node2"><a xlink:href="../../d7/d75/class_u_i_manager.html" target="_top" xlink:title=" ">
<polygon fill="white" stroke="black" points="153,-166 153,-245 254,-245 254,-166 153,-166"/>
<text text-anchor="middle" x="203.5" y="-233" font-family="Helvetica,sans-Serif" font-size="10.00">UIManager</text>
<polyline fill="none" stroke="black" points="153,-226 254,-226 "/>
<text text-anchor="start" x="161" y="-214" font-family="Helvetica,sans-Serif" font-size="10.00">&#45; m_app</text>
<polyline fill="none" stroke="black" points="153,-207 254,-207 "/>
<text text-anchor="start" x="161" y="-195" font-family="Helvetica,sans-Serif" font-size="10.00">+ UIManager()</text>
<text text-anchor="start" x="161" y="-184" font-family="Helvetica,sans-Serif" font-size="10.00">+ getMainWindow()</text>
<text text-anchor="start" x="161" y="-173" font-family="Helvetica,sans-Serif" font-size="10.00">+ processInput()</text>
</a>
</g>
</g>
<!-- Node2&#45;&gt;Node1 -->
<g id="edge1" class="edge"><title>Node2&#45;&gt;Node1</title>
<path fill="none" stroke="#404040" d="M227.463,-165.95C241.422,-144.859 260.067,-118.857 279.5,-98 285.69,-91.3568 292.649,-84.7763 299.704,-78.5761"/>
<polygon fill="none" stroke="#404040" points="300.184,-78.1671 302.159,-71.2316 309.321,-70.3868 307.346,-77.3223 300.184,-78.1671"/>
<text text-anchor="middle" x="312" y="-101" font-family="Helvetica,sans-Serif" font-size="10.00"> &#45;m_uiManager</text>
</g>
<!-- Node3 -->
<g id="node3" class="node"><title>Node3</title>
<g id="a_node3"><a xlink:href="../../d9/dc6/class_main_window.html" target="_top" xlink:title="Qt main Window wrapper containing slot methods.">
<polygon fill="white" stroke="black" points="280,-331.5 280,-696.5 435,-696.5 435,-331.5 280,-331.5"/>
<text text-anchor="middle" x="357.5" y="-684.5" font-family="Helvetica,sans-Serif" font-size="10.00">MainWindow</text>
<polyline fill="none" stroke="black" points="280,-677.5 435,-677.5 "/>
<text text-anchor="start" x="288" y="-665.5" font-family="Helvetica,sans-Serif" font-size="10.00">&#45; ui</text>
<text text-anchor="start" x="288" y="-654.5" font-family="Helvetica,sans-Serif" font-size="10.00">&#45; m_hirachyItemPool</text>
<text text-anchor="start" x="288" y="-643.5" font-family="Helvetica,sans-Serif" font-size="10.00">&#45; m_isTracking</text>
<text text-anchor="start" x="288" y="-632.5" font-family="Helvetica,sans-Serif" font-size="10.00">&#45; m_isInspectorInit</text>
<text text-anchor="start" x="288" y="-621.5" font-family="Helvetica,sans-Serif" font-size="10.00">&#45; m_selectedTrackerInList</text>
<text text-anchor="start" x="288" y="-610.5" font-family="Helvetica,sans-Serif" font-size="10.00">&#45; m_inputFieldPool</text>
<polyline fill="none" stroke="black" points="280,-603.5 435,-603.5 "/>
<text text-anchor="start" x="288" y="-591.5" font-family="Helvetica,sans-Serif" font-size="10.00">+ MainWindow()</text>
<text text-anchor="start" x="288" y="-580.5" font-family="Helvetica,sans-Serif" font-size="10.00">+ ~MainWindow()</text>
<text text-anchor="start" x="288" y="-569.5" font-family="Helvetica,sans-Serif" font-size="10.00">+ update()</text>
<text text-anchor="start" x="288" y="-558.5" font-family="Helvetica,sans-Serif" font-size="10.00">+ updateConsole()</text>
<text text-anchor="start" x="288" y="-547.5" font-family="Helvetica,sans-Serif" font-size="10.00">+ getOglRenderer()</text>
<text text-anchor="start" x="288" y="-536.5" font-family="Helvetica,sans-Serif" font-size="10.00">&#45; updateHirachy()</text>
<text text-anchor="start" x="288" y="-525.5" font-family="Helvetica,sans-Serif" font-size="10.00">&#45; drawInspector()</text>
<text text-anchor="start" x="288" y="-514.5" font-family="Helvetica,sans-Serif" font-size="10.00">&#45; updateInspector()</text>
<text text-anchor="start" x="288" y="-503.5" font-family="Helvetica,sans-Serif" font-size="10.00">&#45; clearInspector()</text>
<text text-anchor="start" x="288" y="-492.5" font-family="Helvetica,sans-Serif" font-size="10.00">&#45; addRowToInspector()</text>
<text text-anchor="start" x="288" y="-481.5" font-family="Helvetica,sans-Serif" font-size="10.00">&#45; toggleTrackingButtons()</text>
<text text-anchor="start" x="288" y="-470.5" font-family="Helvetica,sans-Serif" font-size="10.00">&#45; toQString()</text>
<text text-anchor="start" x="288" y="-459.5" font-family="Helvetica,sans-Serif" font-size="10.00">&#45; addTrackerToList()</text>
<text text-anchor="start" x="288" y="-448.5" font-family="Helvetica,sans-Serif" font-size="10.00">&#45; slotToggleTracking()</text>
<text text-anchor="start" x="288" y="-437.5" font-family="Helvetica,sans-Serif" font-size="10.00">&#45; slotAddTracker()</text>
<text text-anchor="start" x="288" y="-426.5" font-family="Helvetica,sans-Serif" font-size="10.00">&#45; slotAddGroup()</text>
<text text-anchor="start" x="288" y="-415.5" font-family="Helvetica,sans-Serif" font-size="10.00">&#45; slotRemoveTracker()</text>
<text text-anchor="start" x="288" y="-404.5" font-family="Helvetica,sans-Serif" font-size="10.00">&#45; on_actionExit_triggered()</text>
<text text-anchor="start" x="288" y="-393.5" font-family="Helvetica,sans-Serif" font-size="10.00">&#45; slotTrackerSelectionChanged()</text>
<text text-anchor="start" x="288" y="-382.5" font-family="Helvetica,sans-Serif" font-size="10.00">&#45; slotInspectorItemChanged()</text>
<text text-anchor="start" x="288" y="-371.5" font-family="Helvetica,sans-Serif" font-size="10.00">&#45; slotInspectorInputPosX()</text>
<text text-anchor="start" x="288" y="-360.5" font-family="Helvetica,sans-Serif" font-size="10.00">&#45; slotInspectorInputPosY()</text>
<text text-anchor="start" x="288" y="-349.5" font-family="Helvetica,sans-Serif" font-size="10.00">&#45; slotInspectorInputPosZ()</text>
<text text-anchor="start" x="288" y="-338.5" font-family="Helvetica,sans-Serif" font-size="10.00">and 6 more...</text>
</a>
</g>
</g>
<!-- Node3&#45;&gt;Node2 -->
<g id="edge2" class="edge"><title>Node3&#45;&gt;Node2</title>
<path fill="none" stroke="#404040" d="M279.823,-358.403C261.147,-321.233 242.525,-284.169 228.35,-255.958"/>
<polygon fill="none" stroke="#404040" points="228.338,-255.935 222.07,-252.369 222.951,-245.212 229.219,-248.778 228.338,-255.935"/>
<text text-anchor="middle" x="291.5" y="-305" font-family="Helvetica,sans-Serif" font-size="10.00"> &#45;m_mainWindow</text>
</g>
<!-- Node4 -->
<g id="node4" class="node"><title>Node4</title>
<g id="a_node4"><a xlink:title=" ">
<polygon fill="white" stroke="#bfbfbf" points="396.5,-860 396.5,-917 476.5,-917 476.5,-860 396.5,-860"/>
<text text-anchor="middle" x="436.5" y="-905" font-family="Helvetica,sans-Serif" font-size="10.00">QMainWindow</text>
<polyline fill="none" stroke="#bfbfbf" points="396.5,-898 476.5,-898 "/>
<text text-anchor="middle" x="436.5" y="-886" font-family="Helvetica,sans-Serif" font-size="10.00"> </text>
<polyline fill="none" stroke="#bfbfbf" points="396.5,-879 476.5,-879 "/>
<text text-anchor="middle" x="436.5" y="-867" font-family="Helvetica,sans-Serif" font-size="10.00"> </text>
</a>
</g>
</g>
<!-- Node4&#45;&gt;Node3 -->
<g id="edge3" class="edge"><title>Node4&#45;&gt;Node3</title>
<path fill="none" stroke="midnightblue" d="M428.464,-849.609C420.692,-812.962 408.322,-754.634 396.071,-696.869"/>
<polygon fill="none" stroke="midnightblue" points="425.128,-850.75 430.627,-859.806 431.976,-849.298 425.128,-850.75"/>
</g>
<!-- Node5 -->
<g id="node5" class="node"><title>Node5</title>
<g id="a_node5"><a xlink:href="../../d8/d32/class_gl_widget.html" target="_top" xlink:title="3d render context for skeleton visualisation">
<polygon fill="white" stroke="black" points="494.5,-750 494.5,-1027 660.5,-1027 660.5,-750 494.5,-750"/>
<text text-anchor="middle" x="577.5" y="-1015" font-family="Helvetica,sans-Serif" font-size="10.00">GlWidget</text>
<polyline fill="none" stroke="black" points="494.5,-1008 660.5,-1008 "/>
<text text-anchor="start" x="502.5" y="-996" font-family="Helvetica,sans-Serif" font-size="10.00">&#45; m_worldMatrix</text>
<text text-anchor="start" x="502.5" y="-985" font-family="Helvetica,sans-Serif" font-size="10.00">&#45; m_shaderProgram_texture</text>
<text text-anchor="start" x="502.5" y="-974" font-family="Helvetica,sans-Serif" font-size="10.00">&#45; m_shaderProgram_confidence</text>
<text text-anchor="start" x="502.5" y="-963" font-family="Helvetica,sans-Serif" font-size="10.00">&#45; lastPos</text>
<text text-anchor="start" x="502.5" y="-952" font-family="Helvetica,sans-Serif" font-size="10.00">&#45; m_clearColor</text>
<text text-anchor="start" x="502.5" y="-941" font-family="Helvetica,sans-Serif" font-size="10.00">&#45; m_skeletonMeshPool</text>
<polyline fill="none" stroke="black" points="494.5,-934 660.5,-934 "/>
<text text-anchor="start" x="502.5" y="-922" font-family="Helvetica,sans-Serif" font-size="10.00">+ GlWidget()</text>
<text text-anchor="start" x="502.5" y="-911" font-family="Helvetica,sans-Serif" font-size="10.00">+ ~GlWidget()</text>
<text text-anchor="start" x="502.5" y="-900" font-family="Helvetica,sans-Serif" font-size="10.00">+ updateSkeletonMeshPoolSize()</text>
<text text-anchor="start" x="502.5" y="-889" font-family="Helvetica,sans-Serif" font-size="10.00">+ updateSkeletonMeshCount()</text>
<text text-anchor="start" x="502.5" y="-878" font-family="Helvetica,sans-Serif" font-size="10.00">+ updateSkeletonMeshTransform()</text>
<text text-anchor="start" x="502.5" y="-867" font-family="Helvetica,sans-Serif" font-size="10.00"># initializeGL()</text>
<text text-anchor="start" x="502.5" y="-856" font-family="Helvetica,sans-Serif" font-size="10.00"># paintGL()</text>
<text text-anchor="start" x="502.5" y="-845" font-family="Helvetica,sans-Serif" font-size="10.00"># resizeGL()</text>
<text text-anchor="start" x="502.5" y="-834" font-family="Helvetica,sans-Serif" font-size="10.00"># mousePressEvent()</text>
<text text-anchor="start" x="502.5" y="-823" font-family="Helvetica,sans-Serif" font-size="10.00"># mouseMoveEvent()</text>
<text text-anchor="start" x="502.5" y="-812" font-family="Helvetica,sans-Serif" font-size="10.00"># mouseReleaseEvent()</text>
<text text-anchor="start" x="502.5" y="-801" font-family="Helvetica,sans-Serif" font-size="10.00">&#45; init()</text>
<text text-anchor="start" x="502.5" y="-790" font-family="Helvetica,sans-Serif" font-size="10.00">&#45; createShaderProgram()</text>
<text text-anchor="start" x="502.5" y="-779" font-family="Helvetica,sans-Serif" font-size="10.00">&#45; createMeshes()</text>
<text text-anchor="start" x="502.5" y="-768" font-family="Helvetica,sans-Serif" font-size="10.00">&#45; renderMesh()</text>
<text text-anchor="start" x="502.5" y="-757" font-family="Helvetica,sans-Serif" font-size="10.00">&#45; renderSkeletonMesh()</text>
</a>
</g>
</g>
<!-- Node5&#45;&gt;Node3 -->
<g id="edge4" class="edge"><title>Node5&#45;&gt;Node3</title>
<path fill="none" stroke="#404040" d="M496.205,-749.853C478.358,-719.634 459.427,-687.58 441.476,-657.187"/>
<polygon fill="none" stroke="#404040" points="441.274,-656.844 434.778,-653.712 435.171,-646.512 441.667,-649.644 441.274,-656.844"/>
<text text-anchor="middle" x="517.5" y="-718" font-family="Helvetica,sans-Serif" font-size="10.00"> &#45;m_oglRenderer</text>
</g>
<!-- Node6 -->
<g id="node6" class="node"><title>Node6</title>
<g id="a_node6"><a xlink:title=" ">
<polygon fill="white" stroke="#bfbfbf" points="455,-1157.5 455,-1214.5 546,-1214.5 546,-1157.5 455,-1157.5"/>
<text text-anchor="middle" x="500.5" y="-1202.5" font-family="Helvetica,sans-Serif" font-size="10.00">QOpenGLWidget</text>
<polyline fill="none" stroke="#bfbfbf" points="455,-1195.5 546,-1195.5 "/>
<text text-anchor="middle" x="500.5" y="-1183.5" font-family="Helvetica,sans-Serif" font-size="10.00"> </text>
<polyline fill="none" stroke="#bfbfbf" points="455,-1176.5 546,-1176.5 "/>
<text text-anchor="middle" x="500.5" y="-1164.5" font-family="Helvetica,sans-Serif" font-size="10.00"> </text>
</a>
</g>
</g>
<!-- Node6&#45;&gt;Node5 -->
<g id="edge5" class="edge"><title>Node6&#45;&gt;Node5</title>
<path fill="none" stroke="midnightblue" d="M510.235,-1147.64C518.238,-1116.93 530.101,-1071.4 541.645,-1027.1"/>
<polygon fill="none" stroke="midnightblue" points="506.81,-1146.91 507.675,-1157.47 513.583,-1148.67 506.81,-1146.91"/>
</g>
<!-- Node7 -->
<g id="node7" class="node"><title>Node7</title>
<g id="a_node7"><a xlink:title=" ">
<polygon fill="white" stroke="#bfbfbf" points="564,-1157.5 564,-1214.5 667,-1214.5 667,-1157.5 564,-1157.5"/>
<text text-anchor="middle" x="615.5" y="-1202.5" font-family="Helvetica,sans-Serif" font-size="10.00">QOpenGLFunctions</text>
<polyline fill="none" stroke="#bfbfbf" points="564,-1195.5 667,-1195.5 "/>
<text text-anchor="middle" x="615.5" y="-1183.5" font-family="Helvetica,sans-Serif" font-size="10.00"> </text>
<polyline fill="none" stroke="#bfbfbf" points="564,-1176.5 667,-1176.5 "/>
<text text-anchor="middle" x="615.5" y="-1164.5" font-family="Helvetica,sans-Serif" font-size="10.00"> </text>
</a>
</g>
</g>
<!-- Node7&#45;&gt;Node5 -->
<g id="edge6" class="edge"><title>Node7&#45;&gt;Node5</title>
<path fill="none" stroke="darkgreen" d="M610.644,-1147.24C606.695,-1116.53 600.867,-1071.21 595.195,-1027.1"/>
<polygon fill="none" stroke="darkgreen" points="607.212,-1147.99 611.959,-1157.47 614.155,-1147.1 607.212,-1147.99"/>
</g>
<!-- Node8 -->
<g id="node8" class="node"><title>Node8</title>
<g id="a_node8"><a xlink:href="../../dc/dbc/class_tracker_manager.html" target="_top" xlink:title="Manager for all types of tracker.">
<polygon fill="white" stroke="black" points="148.5,-1080.5 148.5,-1291.5 290.5,-1291.5 290.5,-1080.5 148.5,-1080.5"/>
<text text-anchor="middle" x="219.5" y="-1279.5" font-family="Helvetica,sans-Serif" font-size="10.00">TrackerManager</text>
<polyline fill="none" stroke="black" points="148.5,-1272.5 290.5,-1272.5 "/>
<text text-anchor="start" x="156.5" y="-1260.5" font-family="Helvetica,sans-Serif" font-size="10.00">&#45; m_trackerPool</text>
<text text-anchor="start" x="156.5" y="-1249.5" font-family="Helvetica,sans-Serif" font-size="10.00">&#45; m_isTracking</text>
<text text-anchor="start" x="156.5" y="-1238.5" font-family="Helvetica,sans-Serif" font-size="10.00">&#45; m_hasTrackerPoolChanged</text>
<text text-anchor="start" x="156.5" y="-1227.5" font-family="Helvetica,sans-Serif" font-size="10.00">&#45; m_nextFreeTrackerID</text>
<text text-anchor="start" x="156.5" y="-1216.5" font-family="Helvetica,sans-Serif" font-size="10.00">&#45; m_nextFreeAKCamID</text>
<text text-anchor="start" x="156.5" y="-1205.5" font-family="Helvetica,sans-Serif" font-size="10.00">&#45; m_trackerPoolLock</text>
<polyline fill="none" stroke="black" points="148.5,-1198.5 290.5,-1198.5 "/>
<text text-anchor="start" x="156.5" y="-1186.5" font-family="Helvetica,sans-Serif" font-size="10.00">+ TrackerManager()</text>
<text text-anchor="start" x="156.5" y="-1175.5" font-family="Helvetica,sans-Serif" font-size="10.00">+ createTracker()</text>
<text text-anchor="start" x="156.5" y="-1164.5" font-family="Helvetica,sans-Serif" font-size="10.00">+ removeTrackerAt()</text>
<text text-anchor="start" x="156.5" y="-1153.5" font-family="Helvetica,sans-Serif" font-size="10.00">+ startTracker()</text>
<text text-anchor="start" x="156.5" y="-1142.5" font-family="Helvetica,sans-Serif" font-size="10.00">+ stopTracker()</text>
<text text-anchor="start" x="156.5" y="-1131.5" font-family="Helvetica,sans-Serif" font-size="10.00">+ isTracking()</text>
<text text-anchor="start" x="156.5" y="-1120.5" font-family="Helvetica,sans-Serif" font-size="10.00">+ hasTrackerPoolChanged()</text>
<text text-anchor="start" x="156.5" y="-1109.5" font-family="Helvetica,sans-Serif" font-size="10.00">+ getPoolTracker()</text>
<text text-anchor="start" x="156.5" y="-1098.5" font-family="Helvetica,sans-Serif" font-size="10.00">+ getTrackerRefAt()</text>
<text text-anchor="start" x="156.5" y="-1087.5" font-family="Helvetica,sans-Serif" font-size="10.00">+ getTrackerPoolLock()</text>
</a>
</g>
</g>
<!-- Node8&#45;&gt;Node1 -->
<g id="edge24" class="edge"><title>Node8&#45;&gt;Node1</title>
<path fill="none" stroke="#404040" d="M148.229,-1130.58C119.026,-1104.35 87.8374,-1070.46 69.5,-1033 41.2155,-975.217 50.5,-953.834 50.5,-889.5 50.5,-889.5 50.5,-889.5 50.5,-204.5 50.5,-93.2748 212.036,-57.2012 297.245,-45.9097"/>
<polygon fill="none" stroke="#404040" points="297.327,-45.8996 302.787,-41.1892 309.235,-44.4176 303.775,-49.128 297.327,-45.8996"/>
<text text-anchor="middle" x="94.5" y="-511.5" font-family="Helvetica,sans-Serif" font-size="10.00"> &#45;m_trackerManager</text>
</g>
<!-- Node8&#45;&gt;Node3 -->
<g id="edge17" class="edge"><title>Node8&#45;&gt;Node3</title>
<path fill="none" stroke="#404040" d="M260.011,-1080.23C261.694,-1074.11 263.211,-1068 264.5,-1062 294.242,-923.454 261.514,-883.299 287.5,-744 289.673,-732.353 292.229,-720.46 295.057,-708.522"/>
<polygon fill="none" stroke="#404040" points="295.128,-708.234 292.664,-701.457 297.972,-696.576 300.436,-703.353 295.128,-708.234"/>
<text text-anchor="middle" x="337.5" y="-886" font-family="Helvetica,sans-Serif" font-size="10.00"> &#45;m_refTrackerManager</text>
</g>
<!-- Node8&#45;&gt;Node5 -->
<g id="edge7" class="edge"><title>Node8&#45;&gt;Node5</title>
<path fill="none" stroke="#404040" d="M277.82,-1080.26C288.024,-1068.86 299.58,-1058.64 312.5,-1051 375.797,-1013.58 415.654,-1067.75 483.63,-1033.07"/>
<polygon fill="none" stroke="#404040" points="483.889,-1032.93 487.135,-1026.49 494.327,-1027.01 491.081,-1033.45 483.889,-1032.93"/>
<text text-anchor="middle" x="362.5" y="-1054" font-family="Helvetica,sans-Serif" font-size="10.00"> &#45;m_refTrackerManager</text>
</g>
<!-- Node17 -->
<g id="node17" class="node"><title>Node17</title>
<g id="a_node17"><a xlink:href="../../d0/dde/class_create_tracker_window.html" target="_top" xlink:title="dialog for creating new trackers">
<polygon fill="white" stroke="black" points="79,-832.5 79,-944.5 242,-944.5 242,-832.5 79,-832.5"/>
<text text-anchor="middle" x="160.5" y="-932.5" font-family="Helvetica,sans-Serif" font-size="10.00">CreateTrackerWindow</text>
<polyline fill="none" stroke="black" points="79,-925.5 242,-925.5 "/>
<text text-anchor="start" x="87" y="-913.5" font-family="Helvetica,sans-Serif" font-size="10.00">&#45; ui</text>
<text text-anchor="start" x="87" y="-902.5" font-family="Helvetica,sans-Serif" font-size="10.00">&#45; m_refTreeWidgetTracker</text>
<text text-anchor="start" x="87" y="-891.5" font-family="Helvetica,sans-Serif" font-size="10.00">&#45; m_selectedTrackerIdInDropdown</text>
<polyline fill="none" stroke="black" points="79,-884.5 242,-884.5 "/>
<text text-anchor="start" x="87" y="-872.5" font-family="Helvetica,sans-Serif" font-size="10.00">+ CreateTrackerWindow()</text>
<text text-anchor="start" x="87" y="-861.5" font-family="Helvetica,sans-Serif" font-size="10.00">+ ~CreateTrackerWindow()</text>
<text text-anchor="start" x="87" y="-850.5" font-family="Helvetica,sans-Serif" font-size="10.00">&#45; slotCreateTracker()</text>
<text text-anchor="start" x="87" y="-839.5" font-family="Helvetica,sans-Serif" font-size="10.00">&#45; slotSelectTrackerInDropdown()</text>
</a>
</g>
</g>
<!-- Node8&#45;&gt;Node17 -->
<g id="edge22" class="edge"><title>Node8&#45;&gt;Node17</title>
<path fill="none" stroke="#404040" d="M169.434,-1080.26C167.535,-1074.16 165.864,-1068.05 164.5,-1062 156.786,-1027.8 155.289,-988.81 155.938,-956.563"/>
<polygon fill="none" stroke="#404040" points="155.938,-956.554 152.112,-950.441 156.283,-944.559 160.109,-950.671 155.938,-956.554"/>
<text text-anchor="middle" x="214.5" y="-1054" font-family="Helvetica,sans-Serif" font-size="10.00"> &#45;m_refTrackerManager</text>
</g>
<!-- Node9 -->
<g id="node9" class="node"><title>Node9</title>
<g id="a_node9"><a xlink:href="../../da/dbb/class_camera.html" target="_top" xlink:title=" ">
<polygon fill="white" stroke="black" points="742,-1416.5 742,-1506.5 825,-1506.5 825,-1416.5 742,-1416.5"/>
<text text-anchor="middle" x="783.5" y="-1494.5" font-family="Helvetica,sans-Serif" font-size="10.00">Camera</text>
<polyline fill="none" stroke="black" points="742,-1487.5 825,-1487.5 "/>
<text text-anchor="middle" x="783.5" y="-1475.5" font-family="Helvetica,sans-Serif" font-size="10.00"> </text>
<polyline fill="none" stroke="black" points="742,-1468.5 825,-1468.5 "/>
<text text-anchor="start" x="750" y="-1456.5" font-family="Helvetica,sans-Serif" font-size="10.00">+ Camera()</text>
<text text-anchor="start" x="750" y="-1445.5" font-family="Helvetica,sans-Serif" font-size="10.00">+ ~Camera()</text>
<text text-anchor="start" x="750" y="-1434.5" font-family="Helvetica,sans-Serif" font-size="10.00">+ addRotation()</text>
<text text-anchor="start" x="750" y="-1423.5" font-family="Helvetica,sans-Serif" font-size="10.00">+ rotate()</text>
</a>
</g>
</g>
<!-- Node9&#45;&gt;Node5 -->
<g id="edge8" class="edge"><title>Node9&#45;&gt;Node5</title>
<path fill="none" stroke="#404040" d="M783.722,-1416.19C783.611,-1329.34 780.515,-1139.94 756.5,-1080 738.294,-1034.56 703.653,-993.595 669.659,-961.398"/>
<polygon fill="none" stroke="#404040" points="669.375,-961.135 662.255,-959.991 660.573,-952.979 667.693,-954.123 669.375,-961.135"/>
<text text-anchor="middle" x="807.5" y="-1183.5" font-family="Helvetica,sans-Serif" font-size="10.00"> &#45;m_camera</text>
</g>
<!-- Node10 -->
<g id="node10" class="node"><title>Node10</title>
<g id="a_node10"><a xlink:href="../../d2/d96/class_entity.html" target="_top" xlink:title="base class for all objects in openGl window">
<polygon fill="white" stroke="black" points="696,-1615 696,-1815 777,-1815 777,-1615 696,-1615"/>
<text text-anchor="middle" x="736.5" y="-1803" font-family="Helvetica,sans-Serif" font-size="10.00">Entity</text>
<polyline fill="none" stroke="black" points="696,-1796 777,-1796 "/>
<text text-anchor="start" x="704" y="-1784" font-family="Helvetica,sans-Serif" font-size="10.00"># m_matrix</text>
<polyline fill="none" stroke="black" points="696,-1777 777,-1777 "/>
<text text-anchor="start" x="704" y="-1765" font-family="Helvetica,sans-Serif" font-size="10.00">+ Entity()</text>
<text text-anchor="start" x="704" y="-1754" font-family="Helvetica,sans-Serif" font-size="10.00">+ ~Entity()</text>
<text text-anchor="start" x="704" y="-1743" font-family="Helvetica,sans-Serif" font-size="10.00">+ getMatrix()</text>
<text text-anchor="start" x="704" y="-1732" font-family="Helvetica,sans-Serif" font-size="10.00">+ translate()</text>
<text text-anchor="start" x="704" y="-1721" font-family="Helvetica,sans-Serif" font-size="10.00">+ setPosition()</text>
<text text-anchor="start" x="704" y="-1710" font-family="Helvetica,sans-Serif" font-size="10.00">+ getPosition()</text>
<text text-anchor="start" x="704" y="-1699" font-family="Helvetica,sans-Serif" font-size="10.00">+ rotate()</text>
<text text-anchor="start" x="704" y="-1688" font-family="Helvetica,sans-Serif" font-size="10.00">+ setRotation()</text>
<text text-anchor="start" x="704" y="-1677" font-family="Helvetica,sans-Serif" font-size="10.00">+ getRotation()</text>
<text text-anchor="start" x="704" y="-1666" font-family="Helvetica,sans-Serif" font-size="10.00">+ scale()</text>
<text text-anchor="start" x="704" y="-1655" font-family="Helvetica,sans-Serif" font-size="10.00">+ scale()</text>
<text text-anchor="start" x="704" y="-1644" font-family="Helvetica,sans-Serif" font-size="10.00">+ setScale()</text>
<text text-anchor="start" x="704" y="-1633" font-family="Helvetica,sans-Serif" font-size="10.00">+ setScale()</text>
<text text-anchor="start" x="704" y="-1622" font-family="Helvetica,sans-Serif" font-size="10.00">+ getScale()</text>
</a>
</g>
</g>
<!-- Node10&#45;&gt;Node9 -->
<g id="edge9" class="edge"><title>Node10&#45;&gt;Node9</title>
<path fill="none" stroke="midnightblue" d="M766.654,-1605.13C767.674,-1600.37 768.629,-1595.64 769.5,-1591 774.71,-1563.21 778.183,-1531.65 780.367,-1506.76"/>
<polygon fill="none" stroke="midnightblue" points="763.226,-1604.42 764.476,-1614.95 770.06,-1605.94 763.226,-1604.42"/>
</g>
<!-- Node14 -->
<g id="node14" class="node"><title>Node14</title>
<g id="a_node14"><a xlink:href="../../dc/dbe/class_mesh.html" target="_top" xlink:title="mesh base class">
<polygon fill="white" stroke="black" points="619.5,-1361.5 619.5,-1561.5 723.5,-1561.5 723.5,-1361.5 619.5,-1361.5"/>
<text text-anchor="middle" x="671.5" y="-1549.5" font-family="Helvetica,sans-Serif" font-size="10.00">Mesh</text>
<polyline fill="none" stroke="black" points="619.5,-1542.5 723.5,-1542.5 "/>
<text text-anchor="start" x="627.5" y="-1530.5" font-family="Helvetica,sans-Serif" font-size="10.00"># m_vertexData</text>
<text text-anchor="start" x="627.5" y="-1519.5" font-family="Helvetica,sans-Serif" font-size="10.00"># m_faceCount</text>
<text text-anchor="start" x="627.5" y="-1508.5" font-family="Helvetica,sans-Serif" font-size="10.00"># m_vbo</text>
<text text-anchor="start" x="627.5" y="-1497.5" font-family="Helvetica,sans-Serif" font-size="10.00"># m_texture</text>
<text text-anchor="start" x="627.5" y="-1486.5" font-family="Helvetica,sans-Serif" font-size="10.00"># m_shaderProgram</text>
<text text-anchor="start" x="627.5" y="-1475.5" font-family="Helvetica,sans-Serif" font-size="10.00"># m_isActive</text>
<polyline fill="none" stroke="black" points="619.5,-1468.5 723.5,-1468.5 "/>
<text text-anchor="start" x="627.5" y="-1456.5" font-family="Helvetica,sans-Serif" font-size="10.00">+ Mesh()</text>
<text text-anchor="start" x="627.5" y="-1445.5" font-family="Helvetica,sans-Serif" font-size="10.00">+ ~Mesh()</text>
<text text-anchor="start" x="627.5" y="-1434.5" font-family="Helvetica,sans-Serif" font-size="10.00">+ bind()</text>
<text text-anchor="start" x="627.5" y="-1423.5" font-family="Helvetica,sans-Serif" font-size="10.00">+ release()</text>
<text text-anchor="start" x="627.5" y="-1412.5" font-family="Helvetica,sans-Serif" font-size="10.00">+ getFaceCount()</text>
<text text-anchor="start" x="627.5" y="-1401.5" font-family="Helvetica,sans-Serif" font-size="10.00">+ isActive()</text>
<text text-anchor="start" x="627.5" y="-1390.5" font-family="Helvetica,sans-Serif" font-size="10.00">+ setActive()</text>
<text text-anchor="start" x="627.5" y="-1379.5" font-family="Helvetica,sans-Serif" font-size="10.00">+ setDiffuseColor()</text>
<text text-anchor="start" x="627.5" y="-1368.5" font-family="Helvetica,sans-Serif" font-size="10.00"># init()</text>
</a>
</g>
</g>
<!-- Node10&#45;&gt;Node14 -->
<g id="edge15" class="edge"><title>Node10&#45;&gt;Node14</title>
<path fill="none" stroke="midnightblue" d="M701.295,-1605.11C699.972,-1600.35 698.7,-1595.64 697.5,-1591 695.047,-1581.53 692.684,-1571.61 690.451,-1561.66"/>
<polygon fill="none" stroke="midnightblue" points="697.978,-1606.25 704.075,-1614.91 704.713,-1604.33 697.978,-1606.25"/>
</g>
<!-- Node11 -->
<g id="node11" class="node"><title>Node11</title>
<g id="a_node11"><a xlink:href="../../d3/de7/class_vector3.html" target="_top" xlink:title="Utility Class.">
<polygon fill="white" stroke="black" points="559,-1609.5 559,-1820.5 632,-1820.5 632,-1609.5 559,-1609.5"/>
<text text-anchor="middle" x="595.5" y="-1808.5" font-family="Helvetica,sans-Serif" font-size="10.00">Vector3</text>
<polyline fill="none" stroke="black" points="559,-1801.5 632,-1801.5 "/>
<text text-anchor="middle" x="595.5" y="-1789.5" font-family="Helvetica,sans-Serif" font-size="10.00"> </text>
<polyline fill="none" stroke="black" points="559,-1782.5 632,-1782.5 "/>
<text text-anchor="start" x="567" y="-1770.5" font-family="Helvetica,sans-Serif" font-size="10.00">+ Vector3()</text>
<text text-anchor="start" x="567" y="-1759.5" font-family="Helvetica,sans-Serif" font-size="10.00">+ Vector3()</text>
<text text-anchor="start" x="567" y="-1748.5" font-family="Helvetica,sans-Serif" font-size="10.00">+ Vector3()</text>
<text text-anchor="start" x="567" y="-1737.5" font-family="Helvetica,sans-Serif" font-size="10.00">+ Vector3()</text>
<text text-anchor="start" x="567" y="-1726.5" font-family="Helvetica,sans-Serif" font-size="10.00">+ Vector3()</text>
<text text-anchor="start" x="567" y="-1715.5" font-family="Helvetica,sans-Serif" font-size="10.00">+ operator+()</text>
<text text-anchor="start" x="567" y="-1704.5" font-family="Helvetica,sans-Serif" font-size="10.00">+ operator&#45;()</text>
<text text-anchor="start" x="567" y="-1693.5" font-family="Helvetica,sans-Serif" font-size="10.00">+ operator*()</text>
<text text-anchor="start" x="567" y="-1682.5" font-family="Helvetica,sans-Serif" font-size="10.00">+ operator/()</text>
<text text-anchor="start" x="567" y="-1671.5" font-family="Helvetica,sans-Serif" font-size="10.00">+ operator*()</text>
<text text-anchor="start" x="567" y="-1660.5" font-family="Helvetica,sans-Serif" font-size="10.00">+ operator*()</text>
<text text-anchor="start" x="567" y="-1649.5" font-family="Helvetica,sans-Serif" font-size="10.00">+ toString()</text>
<text text-anchor="start" x="567" y="-1638.5" font-family="Helvetica,sans-Serif" font-size="10.00">+ toEigen()</text>
<text text-anchor="start" x="567" y="-1627.5" font-family="Helvetica,sans-Serif" font-size="10.00">+ zero()</text>
<text text-anchor="start" x="567" y="-1616.5" font-family="Helvetica,sans-Serif" font-size="10.00">+ one()</text>
</a>
</g>
</g>
<!-- Node11&#45;&gt;Node5 -->
<g id="edge12" class="edge"><title>Node11&#45;&gt;Node5</title>
<path fill="none" stroke="#404040" d="M558.769,-1654.49C493.336,-1540.52 370.22,-1284.61 445.5,-1080 454.971,-1054.26 469.172,-1055.04 485.5,-1033 486.062,-1032.24 486.623,-1031.48 487.185,-1030.72"/>
<polygon fill="none" stroke="#404040" points="487.459,-1030.34 487.736,-1023.13 494.494,-1020.62 494.217,-1027.82 487.459,-1030.34"/>
<text text-anchor="middle" x="468" y="-1335" font-family="Helvetica,sans-Serif" font-size="10.00"> &#45;m_colorRed</text>
<text text-anchor="middle" x="468" y="-1324" font-family="Helvetica,sans-Serif" font-size="10.00">&#45;m_colorGreen</text>
<text text-anchor="middle" x="468" y="-1313" font-family="Helvetica,sans-Serif" font-size="10.00">&#45;m_colorYellow</text>
</g>
<!-- Node11&#45;&gt;Node9 -->
<g id="edge10" class="edge"><title>Node11&#45;&gt;Node9</title>
<path fill="none" stroke="#404040" d="M632.238,-1669.68C654.913,-1642.99 685.02,-1608.73 713.5,-1580 721.689,-1571.74 725.525,-1571.31 732.5,-1562 742.517,-1548.63 751.563,-1533.01 759.159,-1518.15"/>
<polygon fill="none" stroke="#404040" points="759.357,-1517.75 758.431,-1510.6 764.676,-1506.99 765.602,-1514.14 759.357,-1517.75"/>
<text text-anchor="middle" x="739.5" y="-1583" font-family="Helvetica,sans-Serif" font-size="10.00"> &#45;m_rotation</text>
</g>
<!-- Node11&#45;&gt;Node14 -->
<g id="edge16" class="edge"><title>Node11&#45;&gt;Node14</title>
<path fill="none" stroke="#404040" d="M610.848,-1609.15C613.094,-1599.22 615.635,-1589.37 618.5,-1580 619.2,-1577.71 619.933,-1575.41 620.697,-1573.1"/>
<polygon fill="none" stroke="#404040" points="620.79,-1572.84 618.991,-1565.85 624.745,-1561.51 626.544,-1568.49 620.79,-1572.84"/>
<text text-anchor="middle" x="655" y="-1583" font-family="Helvetica,sans-Serif" font-size="10.00"> #m_diffuseColor</text>
</g>
<!-- Node12 -->
<g id="node12" class="node"><title>Node12</title>
<g id="a_node12"><a xlink:href="../../df/d32/struct_vector3_1_1_position.html" target="_top" xlink:title=" ">
<polygon fill="white" stroke="black" points="549.5,-1868.5 549.5,-1947.5 641.5,-1947.5 641.5,-1868.5 549.5,-1868.5"/>
<text text-anchor="middle" x="595.5" y="-1935.5" font-family="Helvetica,sans-Serif" font-size="10.00">Vector3::Position</text>
<polyline fill="none" stroke="black" points="549.5,-1928.5 641.5,-1928.5 "/>
<text text-anchor="start" x="557.5" y="-1916.5" font-family="Helvetica,sans-Serif" font-size="10.00">+ x</text>
<text text-anchor="start" x="557.5" y="-1905.5" font-family="Helvetica,sans-Serif" font-size="10.00">+ y</text>
<text text-anchor="start" x="557.5" y="-1894.5" font-family="Helvetica,sans-Serif" font-size="10.00">+ z</text>
<polyline fill="none" stroke="black" points="549.5,-1887.5 641.5,-1887.5 "/>
<text text-anchor="middle" x="595.5" y="-1875.5" font-family="Helvetica,sans-Serif" font-size="10.00"> </text>
</a>
</g>
</g>
<!-- Node12&#45;&gt;Node11 -->
<g id="edge11" class="edge"><title>Node12&#45;&gt;Node11</title>
<path fill="none" stroke="#404040" d="M595.5,-1868.35C595.5,-1857.69 595.5,-1845.55 595.5,-1832.88"/>
<polygon fill="none" stroke="#404040" points="595.5,-1832.6 591.5,-1826.6 595.5,-1820.6 599.5,-1826.6 595.5,-1832.6"/>
<text text-anchor="middle" x="615" y="-1842" font-family="Helvetica,sans-Serif" font-size="10.00"> +m_xyz</text>
</g>
<!-- Node13 -->
<g id="node13" class="node"><title>Node13</title>
<g id="a_node13"><a xlink:href="../../d2/d8d/class_plane.html" target="_top" xlink:title="plane mesh">
<polygon fill="white" stroke="black" points="685.5,-1152 685.5,-1220 747.5,-1220 747.5,-1152 685.5,-1152"/>
<text text-anchor="middle" x="716.5" y="-1208" font-family="Helvetica,sans-Serif" font-size="10.00">Plane</text>
<polyline fill="none" stroke="black" points="685.5,-1201 747.5,-1201 "/>
<text text-anchor="middle" x="716.5" y="-1189" font-family="Helvetica,sans-Serif" font-size="10.00"> </text>
<polyline fill="none" stroke="black" points="685.5,-1182 747.5,-1182 "/>
<text text-anchor="start" x="693.5" y="-1170" font-family="Helvetica,sans-Serif" font-size="10.00">+ Plane()</text>
<text text-anchor="start" x="693.5" y="-1159" font-family="Helvetica,sans-Serif" font-size="10.00">+ ~Plane()</text>
</a>
</g>
</g>
<!-- Node13&#45;&gt;Node5 -->
<g id="edge13" class="edge"><title>Node13&#45;&gt;Node5</title>
<path fill="none" stroke="#404040" d="M704.436,-1151.53C696.689,-1130.73 686.12,-1103.55 675.5,-1080 669.286,-1066.22 662.574,-1052.02 655.681,-1037.87"/>
<polygon fill="none" stroke="#404040" points="655.667,-1037.84 649.432,-1034.22 650.379,-1027.07 656.614,-1030.69 655.667,-1037.84"/>
<text text-anchor="middle" x="697.5" y="-1054" font-family="Helvetica,sans-Serif" font-size="10.00"> &#45;m_meshGrid</text>
</g>
<!-- Node14&#45;&gt;Node13 -->
<g id="edge14" class="edge"><title>Node14&#45;&gt;Node13</title>
<path fill="none" stroke="midnightblue" d="M689.447,-1351.42C697.182,-1304.41 705.665,-1252.85 711.032,-1220.23"/>
<polygon fill="none" stroke="midnightblue" points="685.98,-1350.94 687.81,-1361.37 692.887,-1352.07 685.98,-1350.94"/>
</g>
<!-- Node15 -->
<g id="node15" class="node"><title>Node15</title>
<g id="a_node15"><a xlink:href="../../de/dbb/class_tracker.html" target="_top" xlink:title="Prototype class for implemetation &#45; holds virtual methods.">
<polygon fill="white" stroke="black" points="767.5,-744.5 767.5,-1032.5 917.5,-1032.5 917.5,-744.5 767.5,-744.5"/>
<text text-anchor="middle" x="842.5" y="-1020.5" font-family="Helvetica,sans-Serif" font-size="10.00">Tracker</text>
<polyline fill="none" stroke="black" points="767.5,-1013.5 917.5,-1013.5 "/>
<text text-anchor="start" x="775.5" y="-1001.5" font-family="Helvetica,sans-Serif" font-size="10.00"># m_isDataAvailable</text>
<text text-anchor="start" x="775.5" y="-990.5" font-family="Helvetica,sans-Serif" font-size="10.00"># m_hasSkeletonPoolChanged</text>
<text text-anchor="start" x="775.5" y="-979.5" font-family="Helvetica,sans-Serif" font-size="10.00"># m_trackingThread</text>
<text text-anchor="start" x="775.5" y="-968.5" font-family="Helvetica,sans-Serif" font-size="10.00"># m_skeletonPool</text>
<text text-anchor="start" x="775.5" y="-957.5" font-family="Helvetica,sans-Serif" font-size="10.00"># m_skeletonPoolCache</text>
<text text-anchor="start" x="775.5" y="-946.5" font-family="Helvetica,sans-Serif" font-size="10.00"># m_idCam</text>
<text text-anchor="start" x="775.5" y="-935.5" font-family="Helvetica,sans-Serif" font-size="10.00"># m_trackingCycles</text>
<text text-anchor="start" x="775.5" y="-924.5" font-family="Helvetica,sans-Serif" font-size="10.00"># m_offsetMatrix</text>
<text text-anchor="start" x="775.5" y="-913.5" font-family="Helvetica,sans-Serif" font-size="10.00"># m_skeletonPoolLock</text>
<polyline fill="none" stroke="black" points="767.5,-906.5 917.5,-906.5 "/>
<text text-anchor="start" x="775.5" y="-894.5" font-family="Helvetica,sans-Serif" font-size="10.00">+ Tracker()</text>
<text text-anchor="start" x="775.5" y="-883.5" font-family="Helvetica,sans-Serif" font-size="10.00">+ start()</text>
<text text-anchor="start" x="775.5" y="-872.5" font-family="Helvetica,sans-Serif" font-size="10.00">+ stop()</text>
<text text-anchor="start" x="775.5" y="-861.5" font-family="Helvetica,sans-Serif" font-size="10.00">+ destroy()</text>
<text text-anchor="start" x="775.5" y="-850.5" font-family="Helvetica,sans-Serif" font-size="10.00">+ disable()</text>
<text text-anchor="start" x="775.5" y="-839.5" font-family="Helvetica,sans-Serif" font-size="10.00">+ enable()</text>
<text text-anchor="start" x="775.5" y="-828.5" font-family="Helvetica,sans-Serif" font-size="10.00">+ clean()</text>
<text text-anchor="start" x="775.5" y="-817.5" font-family="Helvetica,sans-Serif" font-size="10.00">+ isDataAvailable()</text>
<text text-anchor="start" x="775.5" y="-806.5" font-family="Helvetica,sans-Serif" font-size="10.00">+ resetIsDataAvailable()</text>
<text text-anchor="start" x="775.5" y="-795.5" font-family="Helvetica,sans-Serif" font-size="10.00">+ hasSkeletonPoolChanged()</text>
<text text-anchor="start" x="775.5" y="-784.5" font-family="Helvetica,sans-Serif" font-size="10.00">and 9 more...</text>
<text text-anchor="start" x="775.5" y="-773.5" font-family="Helvetica,sans-Serif" font-size="10.00"># init()</text>
<text text-anchor="start" x="775.5" y="-762.5" font-family="Helvetica,sans-Serif" font-size="10.00"># update()</text>
<text text-anchor="start" x="775.5" y="-751.5" font-family="Helvetica,sans-Serif" font-size="10.00"># track()</text>
</a>
</g>
</g>
<!-- Node15&#45;&gt;Node3 -->
<g id="edge18" class="edge"><title>Node15&#45;&gt;Node3</title>
<path fill="none" stroke="#404040" d="M767.075,-823.292C737.038,-798.157 701.952,-769.333 669.5,-744 594.968,-685.818 508.1,-622.406 444.98,-577.093"/>
<polygon fill="none" stroke="#404040" points="444.811,-576.972 437.604,-576.726 435.059,-569.98 442.266,-570.225 444.811,-576.972"/>
<text text-anchor="middle" x="690" y="-718" font-family="Helvetica,sans-Serif" font-size="10.00"> &#45;m_selectedTracker</text>
</g>
<!-- Node16 -->
<g id="node16" class="node"><title>Node16</title>
<g id="a_node16"><a xlink:href="../../d4/d92/struct_tracker_1_1_properties.html" target="_top" xlink:title=" ">
<polygon fill="white" stroke="black" points="854,-1119 854,-1253 981,-1253 981,-1119 854,-1119"/>
<text text-anchor="middle" x="917.5" y="-1241" font-family="Helvetica,sans-Serif" font-size="10.00">Tracker::Properties</text>
<polyline fill="none" stroke="black" points="854,-1234 981,-1234 "/>
<text text-anchor="start" x="862" y="-1222" font-family="Helvetica,sans-Serif" font-size="10.00">+ id</text>
<text text-anchor="start" x="862" y="-1211" font-family="Helvetica,sans-Serif" font-size="10.00">+ name</text>
<text text-anchor="start" x="862" y="-1200" font-family="Helvetica,sans-Serif" font-size="10.00">+ isTracking</text>
<text text-anchor="start" x="862" y="-1189" font-family="Helvetica,sans-Serif" font-size="10.00">+ isEnabled</text>
<text text-anchor="start" x="862" y="-1178" font-family="Helvetica,sans-Serif" font-size="10.00">+ countDetectedSkeleton</text>
<text text-anchor="start" x="862" y="-1167" font-family="Helvetica,sans-Serif" font-size="10.00">+ positionOffset</text>
<text text-anchor="start" x="862" y="-1156" font-family="Helvetica,sans-Serif" font-size="10.00">+ rotationOffset</text>
<text text-anchor="start" x="862" y="-1145" font-family="Helvetica,sans-Serif" font-size="10.00">+ scaleOffset</text>
<polyline fill="none" stroke="black" points="854,-1138 981,-1138 "/>
<text text-anchor="middle" x="917.5" y="-1126" font-family="Helvetica,sans-Serif" font-size="10.00"> </text>
</a>
</g>
</g>
<!-- Node16&#45;&gt;Node15 -->
<g id="edge19" class="edge"><title>Node16&#45;&gt;Node15</title>
<path fill="none" stroke="#404040" d="M900.669,-1118.68C895.007,-1096.38 888.43,-1070.47 881.779,-1044.26"/>
<polygon fill="none" stroke="#404040" points="881.777,-1044.25 876.424,-1039.42 878.825,-1032.62 884.178,-1037.45 881.777,-1044.25"/>
<text text-anchor="middle" x="916" y="-1054" font-family="Helvetica,sans-Serif" font-size="10.00"> #m_properties</text>
</g>
<!-- Node17&#45;&gt;Node3 -->
<g id="edge20" class="edge"><title>Node17&#45;&gt;Node3</title>
<path fill="none" stroke="#404040" d="M145.076,-832.13C138.249,-797.193 134.857,-751.866 150.5,-715 175.004,-657.251 225.255,-608.045 270.107,-572.89"/>
<polygon fill="none" stroke="#404040" points="270.365,-572.692 272.686,-565.865 279.881,-565.381 277.56,-572.208 270.365,-572.692"/>
<text text-anchor="middle" x="207.5" y="-718" font-family="Helvetica,sans-Serif" font-size="10.00"> &#45;m_createTrackerWindow</text>
</g>
<!-- Node18 -->
<g id="node18" class="node"><title>Node18</title>
<g id="a_node18"><a xlink:title=" ">
<polygon fill="white" stroke="#bfbfbf" points="0,-1157.5 0,-1214.5 51,-1214.5 51,-1157.5 0,-1157.5"/>
<text text-anchor="middle" x="25.5" y="-1202.5" font-family="Helvetica,sans-Serif" font-size="10.00">QDialog</text>
<polyline fill="none" stroke="#bfbfbf" points="0,-1195.5 51,-1195.5 "/>
<text text-anchor="middle" x="25.5" y="-1183.5" font-family="Helvetica,sans-Serif" font-size="10.00"> </text>
<polyline fill="none" stroke="#bfbfbf" points="0,-1176.5 51,-1176.5 "/>
<text text-anchor="middle" x="25.5" y="-1164.5" font-family="Helvetica,sans-Serif" font-size="10.00"> </text>
</a>
</g>
</g>
<!-- Node18&#45;&gt;Node17 -->
<g id="edge21" class="edge"><title>Node18&#45;&gt;Node17</title>
<path fill="none" stroke="midnightblue" d="M42.3542,-1148.11C65.7423,-1096.91 108.218,-1003.94 135.359,-944.531"/>
<polygon fill="none" stroke="midnightblue" points="39.0512,-1146.92 38.0792,-1157.47 45.4182,-1149.82 39.0512,-1146.92"/>
</g>
<!-- Node19 -->
<g id="node19" class="node"><title>Node19</title>
<g id="a_node19"><a xlink:href="../../d2/dbc/class_config_reader.html" target="_top" xlink:title=" ">
<polygon fill="white" stroke="black" points="272.5,-127.5 272.5,-283.5 424.5,-283.5 424.5,-127.5 272.5,-127.5"/>
<text text-anchor="middle" x="348.5" y="-271.5" font-family="Helvetica,sans-Serif" font-size="10.00">ConfigReader</text>
<polyline fill="none" stroke="black" points="272.5,-264.5 424.5,-264.5 "/>
<text text-anchor="start" x="280.5" y="-252.5" font-family="Helvetica,sans-Serif" font-size="10.00">&#45; m_startupConfig</text>
<text text-anchor="start" x="280.5" y="-241.5" font-family="Helvetica,sans-Serif" font-size="10.00">&#45; m_debugLevel</text>
<polyline fill="none" stroke="black" points="272.5,-234.5 424.5,-234.5 "/>
<text text-anchor="start" x="280.5" y="-222.5" font-family="Helvetica,sans-Serif" font-size="10.00">+ ConfigReader()</text>
<text text-anchor="start" x="280.5" y="-211.5" font-family="Helvetica,sans-Serif" font-size="10.00">+ ~ConfigReader()</text>
<text text-anchor="start" x="280.5" y="-200.5" font-family="Helvetica,sans-Serif" font-size="10.00">+ getDebugLevel()</text>
<text text-anchor="start" x="280.5" y="-189.5" font-family="Helvetica,sans-Serif" font-size="10.00">+ getStringFromStartupConfig()</text>
<text text-anchor="start" x="280.5" y="-178.5" font-family="Helvetica,sans-Serif" font-size="10.00">+ getFloatFromStartupConfig()</text>
<text text-anchor="start" x="280.5" y="-167.5" font-family="Helvetica,sans-Serif" font-size="10.00">+ getIntFromStartupConfig()</text>
<text text-anchor="start" x="280.5" y="-156.5" font-family="Helvetica,sans-Serif" font-size="10.00">+ getBoolFromStartupConfig()</text>
<text text-anchor="start" x="280.5" y="-145.5" font-family="Helvetica,sans-Serif" font-size="10.00">+ readConfigFile()</text>
<text text-anchor="start" x="280.5" y="-134.5" font-family="Helvetica,sans-Serif" font-size="10.00">+ printDebugMessage()</text>
</a>
</g>
</g>
<!-- Node19&#45;&gt;Node1 -->
<g id="edge23" class="edge"><title>Node19&#45;&gt;Node1</title>
<path fill="none" stroke="#404040" d="M348.5,-127.059C348.5,-115.065 348.5,-102.947 348.5,-91.742"/>
<polygon fill="none" stroke="#404040" points="348.5,-91.5337 344.5,-85.5337 348.5,-79.5337 352.5,-85.5337 348.5,-91.5337"/>
<text text-anchor="middle" x="386.5" y="-101" font-family="Helvetica,sans-Serif" font-size="10.00"> &#45;m_configReader</text>
</g>
<!-- Node20 -->
<g id="node20" class="node"><title>Node20</title>
<g id="a_node20"><a xlink:href="../../da/d21/class_network_manager.html" target="_top" xlink:title="Manager for different Network Sender and skeleton sending.">
<polygon fill="white" stroke="black" points="442.5,-171.5 442.5,-239.5 552.5,-239.5 552.5,-171.5 442.5,-171.5"/>
<text text-anchor="middle" x="497.5" y="-227.5" font-family="Helvetica,sans-Serif" font-size="10.00">NetworkManager</text>
<polyline fill="none" stroke="black" points="442.5,-220.5 552.5,-220.5 "/>
<text text-anchor="start" x="450.5" y="-208.5" font-family="Helvetica,sans-Serif" font-size="10.00">&#45; m_poolSender</text>
<polyline fill="none" stroke="black" points="442.5,-201.5 552.5,-201.5 "/>
<text text-anchor="start" x="450.5" y="-189.5" font-family="Helvetica,sans-Serif" font-size="10.00">+ NetworkManager()</text>
<text text-anchor="start" x="450.5" y="-178.5" font-family="Helvetica,sans-Serif" font-size="10.00">+ sendSkeletonPool()</text>
</a>
</g>
</g>
<!-- Node20&#45;&gt;Node1 -->
<g id="edge25" class="edge"><title>Node20&#45;&gt;Node1</title>
<path fill="none" stroke="#404040" d="M480.431,-171.479C467.927,-149.199 449.518,-119.968 428.5,-98 419.383,-88.4715 408.475,-79.4986 397.689,-71.6151"/>
<polygon fill="none" stroke="#404040" points="397.682,-71.6098 390.473,-71.4228 387.873,-64.6967 395.082,-64.8837 397.682,-71.6098"/>
<text text-anchor="middle" x="484" y="-101" font-family="Helvetica,sans-Serif" font-size="10.00"> &#45;m_networkManager</text>
</g>
<!-- Node21 -->
<g id="node21" class="node"><title>Node21</title>
<g id="a_node21"><a xlink:href="../../d1/d12/class_gesture_manager.html" target="_top" xlink:title=" ">
<polygon fill="white" stroke="black" points="571,-171.5 571,-239.5 720,-239.5 720,-171.5 571,-171.5"/>
<text text-anchor="middle" x="645.5" y="-227.5" font-family="Helvetica,sans-Serif" font-size="10.00">GestureManager</text>
<polyline fill="none" stroke="black" points="571,-220.5 720,-220.5 "/>
<text text-anchor="middle" x="645.5" y="-208.5" font-family="Helvetica,sans-Serif" font-size="10.00"> </text>
<polyline fill="none" stroke="black" points="571,-201.5 720,-201.5 "/>
<text text-anchor="start" x="579" y="-189.5" font-family="Helvetica,sans-Serif" font-size="10.00">+ GestureManager()</text>
<text text-anchor="start" x="579" y="-178.5" font-family="Helvetica,sans-Serif" font-size="10.00">+ updateAllSkeletonPostures()</text>
</a>
</g>
</g>
<!-- Node21&#45;&gt;Node1 -->
<g id="edge26" class="edge"><title>Node21&#45;&gt;Node1</title>
<path fill="none" stroke="#404040" d="M618.213,-171.402C597.246,-147.909 566.383,-117.247 533.5,-98 491.665,-73.5131 438.245,-58.5248 399.574,-50.1049"/>
<polygon fill="none" stroke="#404040" points="399.569,-50.104 392.878,-52.7918 387.823,-47.6489 394.514,-44.961 399.569,-50.104"/>
<text text-anchor="middle" x="593.5" y="-101" font-family="Helvetica,sans-Serif" font-size="10.00"> &#45;m_gestureManager</text>
</g>
</g>
</svg>
