<?xml version="1.0" encoding="UTF-8" standalone="no"?>
<!DOCTYPE svg PUBLIC "-//W3C//DTD SVG 1.1//EN"
 "http://www.w3.org/Graphics/SVG/1.1/DTD/svg11.dtd">
<!-- Generated by graphviz version 2.38.0 (20140413.2041)
 -->
<!-- Title: XSTracker Pages: 1 -->
<!--zoomable 1041 -->
<svg id="main" version="1.1" xmlns="http://www.w3.org/2000/svg" xmlns:xlink="http://www.w3.org/1999/xlink" xml:space="preserve" onload="init(evt)">
<style type="text/css"><![CDATA[
.edge:hover path { stroke: red; }
.edge:hover polygon { stroke: red; fill: red; }
]]></style>
<script type="text/javascript"><![CDATA[
var edges = document.getElementsByTagName('g');
if (edges && edges.length) {
  for (var i=0;i<edges.length;i++) {
    if (edges[i].id.substr(0,4)=='edge') {
      edges[i].setAttribute('class','edge');
    }
  }
}
]]></script>
        <defs>
                <circle id="rim" cx="0" cy="0" r="7"/>
                <circle id="rim2" cx="0" cy="0" r="3.5"/>
                <g id="zoomPlus">
                        <use xlink:href="#rim" fill="#404040">
                                <set attributeName="fill" to="#808080" begin="zoomplus.mouseover" end="zoomplus.mouseout"/>
                        </use>
                        <path d="M-4,0h8M0,-4v8" fill="none" stroke="white" stroke-width="1.5" pointer-events="none"/>
                </g>
                <g id="zoomMin">
                        <use xlink:href="#rim" fill="#404040">
                                <set attributeName="fill" to="#808080" begin="zoomminus.mouseover" end="zoomminus.mouseout"/>
                        </use>
                        <path d="M-4,0h8" fill="none" stroke="white" stroke-width="1.5" pointer-events="none"/>
                </g>
                <g id="dirArrow">
                        <path fill="none" stroke="white" stroke-width="1.5" d="M0,-3.0v7 M-2.5,-0.5L0,-3.0L2.5,-0.5"/>
                </g>
               <g id="resetDef">
                       <use xlink:href="#rim2" fill="#404040">
                               <set attributeName="fill" to="#808080" begin="reset.mouseover" end="reset.mouseout"/>
                       </use>
               </g>
        </defs>

<script type="text/javascript">
var viewWidth = 728;
var viewHeight = 1041;
var sectionId = 'dynsection-1';
</script>
<script xlink:href="../../svgpan.js"/>
<svg id="graph" class="graph">
<g id="viewport">
<title>XSTracker</title>
<polygon fill="white" stroke="none" points="-4,4 -4,-1037 724,-1037 724,4 -4,4"/>
<!-- Node1 -->
<g id="node1" class="node"><title>Node1</title>
<g id="a_node1"><a xlink:title="Manages Xsens Body Tracking.">
<polygon fill="#bfbfbf" stroke="black" points="348,-0.5 348,-200.5 495,-200.5 495,-0.5 348,-0.5"/>
<text text-anchor="middle" x="421.5" y="-188.5" font-family="Helvetica,sans-Serif" font-size="10.00">XSTracker</text>
<polyline fill="none" stroke="black" points="348,-181.5 495,-181.5 "/>
<text text-anchor="start" x="356" y="-169.5" font-family="Helvetica,sans-Serif" font-size="10.00">&#45; m_kinematics</text>
<text text-anchor="start" x="356" y="-158.5" font-family="Helvetica,sans-Serif" font-size="10.00">&#45; m_avatarList</text>
<text text-anchor="start" x="356" y="-147.5" font-family="Helvetica,sans-Serif" font-size="10.00">&#45; m_cleanSkeletonCountDown</text>
<text text-anchor="start" x="356" y="-136.5" font-family="Helvetica,sans-Serif" font-size="10.00">&#45; bvhWriters</text>
<text text-anchor="start" x="356" y="-125.5" font-family="Helvetica,sans-Serif" font-size="10.00">&#45; isRecordBvh</text>
<polyline fill="none" stroke="black" points="348,-118.5 495,-118.5 "/>
<text text-anchor="start" x="356" y="-106.5" font-family="Helvetica,sans-Serif" font-size="10.00">+ XSTracker()</text>
<text text-anchor="start" x="356" y="-95.5" font-family="Helvetica,sans-Serif" font-size="10.00">+ ~XSTracker()</text>
<text text-anchor="start" x="356" y="-84.5" font-family="Helvetica,sans-Serif" font-size="10.00">+ start()</text>
<text text-anchor="start" x="356" y="-73.5" font-family="Helvetica,sans-Serif" font-size="10.00">+ stop()</text>
<text text-anchor="start" x="356" y="-62.5" font-family="Helvetica,sans-Serif" font-size="10.00">+ getTrackerType()</text>
<text text-anchor="start" x="356" y="-51.5" font-family="Helvetica,sans-Serif" font-size="10.00">&#45; track()</text>
<text text-anchor="start" x="356" y="-40.5" font-family="Helvetica,sans-Serif" font-size="10.00">&#45; extractSkeleton()</text>
<text text-anchor="start" x="356" y="-29.5" font-family="Helvetica,sans-Serif" font-size="10.00">&#45; parseSkeleton()</text>
<text text-anchor="start" x="356" y="-18.5" font-family="Helvetica,sans-Serif" font-size="10.00">&#45; cleanSkeletonPool()</text>
<text text-anchor="start" x="356" y="-7.5" font-family="Helvetica,sans-Serif" font-size="10.00">&#45; rotateAxis()</text>
</a>
</g>
</g>
<!-- Node2 -->
<g id="node2" class="node"><title>Node2</title>
<g id="a_node2"><a xlink:href="../../de/dbb/class_tracker.html" target="_top" xlink:title="Prototype class for implemetation &#45; holds virtual methods.">
<polygon fill="white" stroke="black" points="161.5,-248.5 161.5,-569.5 311.5,-569.5 311.5,-248.5 161.5,-248.5"/>
<text text-anchor="middle" x="236.5" y="-557.5" font-family="Helvetica,sans-Serif" font-size="10.00">Tracker</text>
<polyline fill="none" stroke="black" points="161.5,-550.5 311.5,-550.5 "/>
<text text-anchor="start" x="169.5" y="-538.5" font-family="Helvetica,sans-Serif" font-size="10.00"># m_isTracking</text>
<text text-anchor="start" x="169.5" y="-527.5" font-family="Helvetica,sans-Serif" font-size="10.00"># m_isEnabled</text>
<text text-anchor="start" x="169.5" y="-516.5" font-family="Helvetica,sans-Serif" font-size="10.00"># m_countDetectedSkeleton</text>
<text text-anchor="start" x="169.5" y="-505.5" font-family="Helvetica,sans-Serif" font-size="10.00"># m_offsetMatrix</text>
<text text-anchor="start" x="169.5" y="-494.5" font-family="Helvetica,sans-Serif" font-size="10.00"># m_rotationOffset</text>
<text text-anchor="start" x="169.5" y="-483.5" font-family="Helvetica,sans-Serif" font-size="10.00"># m_isDataAvailable</text>
<text text-anchor="start" x="169.5" y="-472.5" font-family="Helvetica,sans-Serif" font-size="10.00"># m_hasSkeletonPoolChanged</text>
<text text-anchor="start" x="169.5" y="-461.5" font-family="Helvetica,sans-Serif" font-size="10.00"># m_trackingThread</text>
<text text-anchor="start" x="169.5" y="-450.5" font-family="Helvetica,sans-Serif" font-size="10.00"># m_skeletonPool</text>
<text text-anchor="start" x="169.5" y="-439.5" font-family="Helvetica,sans-Serif" font-size="10.00"># m_skeletonPoolCache</text>
<text text-anchor="start" x="169.5" y="-428.5" font-family="Helvetica,sans-Serif" font-size="10.00">and 6 more...</text>
<polyline fill="none" stroke="black" points="161.5,-421.5 311.5,-421.5 "/>
<text text-anchor="start" x="169.5" y="-409.5" font-family="Helvetica,sans-Serif" font-size="10.00">+ Tracker()</text>
<text text-anchor="start" x="169.5" y="-398.5" font-family="Helvetica,sans-Serif" font-size="10.00">+ ~Tracker()</text>
<text text-anchor="start" x="169.5" y="-387.5" font-family="Helvetica,sans-Serif" font-size="10.00">+ start()</text>
<text text-anchor="start" x="169.5" y="-376.5" font-family="Helvetica,sans-Serif" font-size="10.00">+ stop()</text>
<text text-anchor="start" x="169.5" y="-365.5" font-family="Helvetica,sans-Serif" font-size="10.00">+ disable()</text>
<text text-anchor="start" x="169.5" y="-354.5" font-family="Helvetica,sans-Serif" font-size="10.00">+ enable()</text>
<text text-anchor="start" x="169.5" y="-343.5" font-family="Helvetica,sans-Serif" font-size="10.00">+ clean()</text>
<text text-anchor="start" x="169.5" y="-332.5" font-family="Helvetica,sans-Serif" font-size="10.00">+ isTracking()</text>
<text text-anchor="start" x="169.5" y="-321.5" font-family="Helvetica,sans-Serif" font-size="10.00">+ isEnabled()</text>
<text text-anchor="start" x="169.5" y="-310.5" font-family="Helvetica,sans-Serif" font-size="10.00">+ isDataAvailable()</text>
<text text-anchor="start" x="169.5" y="-299.5" font-family="Helvetica,sans-Serif" font-size="10.00">and 23 more...</text>
<text text-anchor="start" x="169.5" y="-288.5" font-family="Helvetica,sans-Serif" font-size="10.00"># getTrackerIdentifier()</text>
<text text-anchor="start" x="169.5" y="-277.5" font-family="Helvetica,sans-Serif" font-size="10.00"># readOffsetFromConfig()</text>
<text text-anchor="start" x="169.5" y="-266.5" font-family="Helvetica,sans-Serif" font-size="10.00"># update()</text>
<text text-anchor="start" x="169.5" y="-255.5" font-family="Helvetica,sans-Serif" font-size="10.00"># track()</text>
</a>
</g>
</g>
<!-- Node2&#45;&gt;Node1 -->
<g id="edge1" class="edge"><title>Node2&#45;&gt;Node1</title>
<path fill="none" stroke="midnightblue" d="M317.024,-274.592C332.001,-249.778 347.404,-224.258 361.627,-200.694"/>
<polygon fill="none" stroke="midnightblue" points="313.918,-272.965 311.747,-283.335 319.911,-276.582 313.918,-272.965"/>
</g>
<!-- Node3 -->
<g id="node3" class="node"><title>Node3</title>
<g id="a_node3"><a xlink:href="../../d4/daf/class_config_manager.html" target="_top" xlink:title=" ">
<polygon fill="white" stroke="black" points="0,-788.5 0,-1032.5 119,-1032.5 119,-788.5 0,-788.5"/>
<text text-anchor="middle" x="59.5" y="-1020.5" font-family="Helvetica,sans-Serif" font-size="10.00">ConfigManager</text>
<polyline fill="none" stroke="black" points="0,-1013.5 119,-1013.5 "/>
<text text-anchor="start" x="8" y="-1001.5" font-family="Helvetica,sans-Serif" font-size="10.00">&#45; m_config</text>
<polyline fill="none" stroke="black" points="0,-994.5 119,-994.5 "/>
<text text-anchor="start" x="8" y="-982.5" font-family="Helvetica,sans-Serif" font-size="10.00">+ readString()</text>
<text text-anchor="start" x="8" y="-971.5" font-family="Helvetica,sans-Serif" font-size="10.00">+ readBool()</text>
<text text-anchor="start" x="8" y="-960.5" font-family="Helvetica,sans-Serif" font-size="10.00">+ readInt()</text>
<text text-anchor="start" x="8" y="-949.5" font-family="Helvetica,sans-Serif" font-size="10.00">+ readFloat()</text>
<text text-anchor="start" x="8" y="-938.5" font-family="Helvetica,sans-Serif" font-size="10.00">+ readVec3f()</text>
<text text-anchor="start" x="8" y="-927.5" font-family="Helvetica,sans-Serif" font-size="10.00">+ readVec4f()</text>
<text text-anchor="start" x="8" y="-916.5" font-family="Helvetica,sans-Serif" font-size="10.00">+ writeString()</text>
<text text-anchor="start" x="8" y="-905.5" font-family="Helvetica,sans-Serif" font-size="10.00">+ writeBool()</text>
<text text-anchor="start" x="8" y="-894.5" font-family="Helvetica,sans-Serif" font-size="10.00">+ writeInt()</text>
<text text-anchor="start" x="8" y="-883.5" font-family="Helvetica,sans-Serif" font-size="10.00">+ writeFloat()</text>
<text text-anchor="start" x="8" y="-872.5" font-family="Helvetica,sans-Serif" font-size="10.00">+ writeVec3f()</text>
<text text-anchor="start" x="8" y="-861.5" font-family="Helvetica,sans-Serif" font-size="10.00">+ writeVec4f()</text>
<text text-anchor="start" x="8" y="-850.5" font-family="Helvetica,sans-Serif" font-size="10.00">+ write()</text>
<text text-anchor="start" x="8" y="-839.5" font-family="Helvetica,sans-Serif" font-size="10.00">&#45; isLoaded()</text>
<text text-anchor="start" x="8" y="-828.5" font-family="Helvetica,sans-Serif" font-size="10.00">&#45; loadConfig()</text>
<text text-anchor="start" x="8" y="-817.5" font-family="Helvetica,sans-Serif" font-size="10.00">&#45; saveConfig()</text>
<text text-anchor="start" x="8" y="-806.5" font-family="Helvetica,sans-Serif" font-size="10.00">&#45; findElement()</text>
<text text-anchor="start" x="8" y="-795.5" font-family="Helvetica,sans-Serif" font-size="10.00">&#45; findOrCreateElement()</text>
</a>
</g>
</g>
<!-- Node3&#45;&gt;Node2 -->
<g id="edge2" class="edge"><title>Node3&#45;&gt;Node2</title>
<path fill="none" stroke="#404040" d="M14.1835,-788.215C0.991592,-734.031 -4.46605,-670.477 18.5,-617 45.6189,-553.853 102.517,-500.9 151.384,-464.362"/>
<polygon fill="none" stroke="#404040" points="151.681,-464.144 154.153,-457.37 161.357,-457.046 158.885,-463.82 151.681,-464.144"/>
<text text-anchor="middle" x="61" y="-676.5" font-family="Helvetica,sans-Serif" font-size="10.00"> #m_configManager</text>
</g>
<!-- Node4 -->
<g id="node4" class="node"><title>Node4</title>
<g id="a_node4"><a xlink:href="../../da/d21/class_network_manager.html" target="_top" xlink:title="Manager for different Network Sender and skeleton sending.">
<polygon fill="white" stroke="black" points="112.5,-617.5 112.5,-740.5 240.5,-740.5 240.5,-617.5 112.5,-617.5"/>
<text text-anchor="middle" x="176.5" y="-728.5" font-family="Helvetica,sans-Serif" font-size="10.00">NetworkManager</text>
<polyline fill="none" stroke="black" points="112.5,-721.5 240.5,-721.5 "/>
<text text-anchor="start" x="120.5" y="-709.5" font-family="Helvetica,sans-Serif" font-size="10.00">+ m_ipAddress</text>
<text text-anchor="start" x="120.5" y="-698.5" font-family="Helvetica,sans-Serif" font-size="10.00">&#45; m_poolSender</text>
<polyline fill="none" stroke="black" points="112.5,-691.5 240.5,-691.5 "/>
<text text-anchor="start" x="120.5" y="-679.5" font-family="Helvetica,sans-Serif" font-size="10.00">+ NetworkManager()</text>
<text text-anchor="start" x="120.5" y="-668.5" font-family="Helvetica,sans-Serif" font-size="10.00">+ sendSkeletonPool()</text>
<text text-anchor="start" x="120.5" y="-657.5" font-family="Helvetica,sans-Serif" font-size="10.00">+ createOSCSender()</text>
<text text-anchor="start" x="120.5" y="-646.5" font-family="Helvetica,sans-Serif" font-size="10.00">+ removeNetworkSender()</text>
<text text-anchor="start" x="120.5" y="-635.5" font-family="Helvetica,sans-Serif" font-size="10.00">+ setIPAddress()</text>
<text text-anchor="start" x="120.5" y="-624.5" font-family="Helvetica,sans-Serif" font-size="10.00">+ isValidIPAddress()</text>
</a>
</g>
</g>
<!-- Node3&#45;&gt;Node4 -->
<g id="edge4" class="edge"><title>Node3&#45;&gt;Node4</title>
<path fill="none" stroke="#404040" d="M119.028,-792.733C126.217,-778.632 133.385,-764.572 140.098,-751.404"/>
<polygon fill="none" stroke="#404040" points="140.17,-751.263 139.332,-744.1 145.62,-740.572 146.459,-747.734 140.17,-751.263"/>
<text text-anchor="middle" x="177" y="-762" font-family="Helvetica,sans-Serif" font-size="10.00"> &#45;m_configManager</text>
</g>
<!-- Node4&#45;&gt;Node2 -->
<g id="edge3" class="edge"><title>Node4&#45;&gt;Node2</title>
<path fill="none" stroke="#404040" d="M190.115,-617.187C192.617,-606.013 195.337,-593.86 198.166,-581.227"/>
<polygon fill="none" stroke="#404040" points="198.168,-581.216 195.576,-574.487 200.79,-569.506 203.382,-576.235 198.168,-581.216"/>
<text text-anchor="middle" x="243.5" y="-591" font-family="Helvetica,sans-Serif" font-size="10.00"> #m_networkManager</text>
</g>
<!-- Node5 -->
<g id="node5" class="node"><title>Node5</title>
<g id="a_node5"><a xlink:href="../../d4/d92/struct_tracker_1_1_properties.html" target="_top" xlink:title=" ">
<polygon fill="white" stroke="black" points="259,-623 259,-735 370,-735 370,-623 259,-623"/>
<text text-anchor="middle" x="314.5" y="-723" font-family="Helvetica,sans-Serif" font-size="10.00">Tracker::Properties</text>
<polyline fill="none" stroke="black" points="259,-716 370,-716 "/>
<text text-anchor="start" x="267" y="-704" font-family="Helvetica,sans-Serif" font-size="10.00">+ id</text>
<text text-anchor="start" x="267" y="-693" font-family="Helvetica,sans-Serif" font-size="10.00">+ name</text>
<text text-anchor="start" x="267" y="-682" font-family="Helvetica,sans-Serif" font-size="10.00">+ positionOffset</text>
<text text-anchor="start" x="267" y="-671" font-family="Helvetica,sans-Serif" font-size="10.00">+ rotationOffset</text>
<text text-anchor="start" x="267" y="-660" font-family="Helvetica,sans-Serif" font-size="10.00">+ scaleOffset</text>
<text text-anchor="start" x="267" y="-649" font-family="Helvetica,sans-Serif" font-size="10.00">+ additionalProperties</text>
<polyline fill="none" stroke="black" points="259,-642 370,-642 "/>
<text text-anchor="start" x="267" y="-630" font-family="Helvetica,sans-Serif" font-size="10.00">+ ~Properties()</text>
</a>
</g>
</g>
<!-- Node5&#45;&gt;Node2 -->
<g id="edge5" class="edge"><title>Node5&#45;&gt;Node2</title>
<path fill="none" stroke="#404040" d="M301.569,-622.64C298.717,-611.154 295.614,-599.155 292.5,-588 291.905,-585.869 291.302,-583.726 290.692,-581.572"/>
<polygon fill="none" stroke="#404040" points="290.67,-581.496 285.172,-576.83 287.364,-569.961 292.863,-574.626 290.67,-581.496"/>
<text text-anchor="middle" x="328" y="-591" font-family="Helvetica,sans-Serif" font-size="10.00"> #m_properties</text>
</g>
<!-- Node6 -->
<g id="node6" class="node"><title>Node6</title>
<g id="a_node6"><a xlink:href="../../d6/d4b/struct_parser_manager_1_1_quaternion_data_with_id.html" target="_top" xlink:title=" ">
<polygon fill="white" stroke="black" points="388.5,-634 388.5,-724 524.5,-724 524.5,-634 388.5,-634"/>
<text text-anchor="start" x="396.5" y="-712" font-family="Helvetica,sans-Serif" font-size="10.00">ParserManager::Quaternion</text>
<text text-anchor="middle" x="456.5" y="-701" font-family="Helvetica,sans-Serif" font-size="10.00">DataWithId</text>
<polyline fill="none" stroke="black" points="388.5,-694 524.5,-694 "/>
<text text-anchor="start" x="396.5" y="-682" font-family="Helvetica,sans-Serif" font-size="10.00">+ avatarId</text>
<text text-anchor="start" x="396.5" y="-671" font-family="Helvetica,sans-Serif" font-size="10.00">+ frameTime</text>
<text text-anchor="start" x="396.5" y="-660" font-family="Helvetica,sans-Serif" font-size="10.00">+ kinematics</text>
<polyline fill="none" stroke="black" points="388.5,-653 524.5,-653 "/>
<text text-anchor="middle" x="456.5" y="-641" font-family="Helvetica,sans-Serif" font-size="10.00"> </text>
</a>
</g>
</g>
<!-- Node6&#45;&gt;Node1 -->
<g id="edge6" class="edge"><title>Node6&#45;&gt;Node1</title>
<path fill="none" stroke="#404040" d="M443.55,-633.741C438.477,-614.357 433.227,-591.233 430.5,-570 414.914,-448.638 414.536,-308.162 416.875,-212.925"/>
<polygon fill="none" stroke="#404040" points="416.882,-212.663 413.041,-206.56 417.198,-200.667 421.038,-206.77 416.882,-212.663"/>
<text text-anchor="middle" x="487" y="-406.5" font-family="Helvetica,sans-Serif" font-size="10.00"> &#45;m_quaternianDataWithId</text>
</g>
<!-- Node7 -->
<g id="node7" class="node"><title>Node7</title>
<g id="a_node7"><a xlink:href="../../db/d0b/class_udp_server.html" target="_top" xlink:title=" ">
<polygon fill="white" stroke="black" points="552.5,-314.5 552.5,-503.5 686.5,-503.5 686.5,-314.5 552.5,-314.5"/>
<text text-anchor="middle" x="619.5" y="-491.5" font-family="Helvetica,sans-Serif" font-size="10.00">UdpServer</text>
<polyline fill="none" stroke="black" points="552.5,-484.5 686.5,-484.5 "/>
<text text-anchor="start" x="560.5" y="-472.5" font-family="Helvetica,sans-Serif" font-size="10.00">+ m_started</text>
<text text-anchor="start" x="560.5" y="-461.5" font-family="Helvetica,sans-Serif" font-size="10.00">+ m_stopping</text>
<text text-anchor="start" x="560.5" y="-450.5" font-family="Helvetica,sans-Serif" font-size="10.00">&#45; m_socket</text>
<text text-anchor="start" x="560.5" y="-439.5" font-family="Helvetica,sans-Serif" font-size="10.00">&#45; m_port</text>
<text text-anchor="start" x="560.5" y="-428.5" font-family="Helvetica,sans-Serif" font-size="10.00">&#45; m_hostName</text>
<text text-anchor="start" x="560.5" y="-417.5" font-family="Helvetica,sans-Serif" font-size="10.00">&#45; m_parserManager</text>
<text text-anchor="start" x="560.5" y="-406.5" font-family="Helvetica,sans-Serif" font-size="10.00">&#45; m_udpLock</text>
<polyline fill="none" stroke="black" points="552.5,-399.5 686.5,-399.5 "/>
<text text-anchor="start" x="560.5" y="-387.5" font-family="Helvetica,sans-Serif" font-size="10.00">+ UdpServer()</text>
<text text-anchor="start" x="560.5" y="-376.5" font-family="Helvetica,sans-Serif" font-size="10.00">+ ~UdpServer()</text>
<text text-anchor="start" x="560.5" y="-365.5" font-family="Helvetica,sans-Serif" font-size="10.00">+ readMessages()</text>
<text text-anchor="start" x="560.5" y="-354.5" font-family="Helvetica,sans-Serif" font-size="10.00">+ startThread()</text>
<text text-anchor="start" x="560.5" y="-343.5" font-family="Helvetica,sans-Serif" font-size="10.00">+ stopThread()</text>
<text text-anchor="start" x="560.5" y="-332.5" font-family="Helvetica,sans-Serif" font-size="10.00">+ getQuaternionDatagram()</text>
<text text-anchor="start" x="560.5" y="-321.5" font-family="Helvetica,sans-Serif" font-size="10.00">+ getScaleDatagram()</text>
</a>
</g>
</g>
<!-- Node6&#45;&gt;Node7 -->
<g id="edge9" class="edge"><title>Node6&#45;&gt;Node7</title>
<path fill="none" stroke="#404040" d="M483.144,-633.696C493.111,-618.556 505.053,-601.939 517.5,-588 525.688,-578.831 530.911,-579.67 538.5,-570 551.718,-553.158 563.679,-533.819 574.105,-514.54"/>
<polygon fill="none" stroke="#404040" points="574.143,-514.468 573.402,-507.295 579.738,-503.852 580.479,-511.025 574.143,-514.468"/>
<text text-anchor="middle" x="571" y="-591" font-family="Helvetica,sans-Serif" font-size="10.00"> &#45;m_quaternionDatagram</text>
</g>
<!-- Node7&#45;&gt;Node1 -->
<g id="edge7" class="edge"><title>Node7&#45;&gt;Node1</title>
<path fill="none" stroke="#404040" d="M576.168,-314.4C564.766,-292.141 551.883,-268.822 538.5,-248 527.613,-231.062 515.156,-213.756 502.523,-197.248"/>
<polygon fill="none" stroke="#404040" points="502.422,-197.118 495.586,-194.823 495.075,-187.63 501.912,-189.925 502.422,-197.118"/>
<text text-anchor="middle" x="556.5" y="-222" font-family="Helvetica,sans-Serif" font-size="10.00"> &#45;m_UdpServer</text>
</g>
<!-- Node8 -->
<g id="node8" class="node"><title>Node8</title>
<g id="a_node8"><a xlink:href="../../d4/dd9/struct_scale_datagram_1_1_bvh_scale_information.html" target="_top" xlink:title=" ">
<polygon fill="white" stroke="black" points="543,-639.5 543,-718.5 720,-718.5 720,-639.5 543,-639.5"/>
<text text-anchor="middle" x="631.5" y="-706.5" font-family="Helvetica,sans-Serif" font-size="10.00">ScaleDatagram::BvhScaleInformation</text>
<polyline fill="none" stroke="black" points="543,-699.5 720,-699.5 "/>
<text text-anchor="start" x="551" y="-687.5" font-family="Helvetica,sans-Serif" font-size="10.00">+ avatarId</text>
<text text-anchor="start" x="551" y="-676.5" font-family="Helvetica,sans-Serif" font-size="10.00">+ tPose</text>
<text text-anchor="start" x="551" y="-665.5" font-family="Helvetica,sans-Serif" font-size="10.00">+ endSites</text>
<polyline fill="none" stroke="black" points="543,-658.5 720,-658.5 "/>
<text text-anchor="middle" x="631.5" y="-646.5" font-family="Helvetica,sans-Serif" font-size="10.00"> </text>
</a>
</g>
</g>
<!-- Node8&#45;&gt;Node7 -->
<g id="edge8" class="edge"><title>Node8&#45;&gt;Node7</title>
<path fill="none" stroke="#404040" d="M629.768,-639.317C628.32,-606.987 626.186,-559.31 624.237,-515.79"/>
<polygon fill="none" stroke="#404040" points="624.23,-515.63 619.965,-509.815 623.693,-503.642 627.957,-509.457 624.23,-515.63"/>
<text text-anchor="middle" x="660.5" y="-591" font-family="Helvetica,sans-Serif" font-size="10.00"> &#45;m_scaleData</text>
</g>
</g>
</svg>
        <g id="navigator" transform="translate(0 0)" fill="#404254">
                <rect fill="#f2f5e9" fill-opacity="0.5" stroke="#606060" stroke-width=".5" x="0" y="0" width="60" height="60"/>
                <use id="zoomplus" xlink:href="#zoomPlus" x="17" y="9" onmousedown="handleZoom(evt,'in')"/>
                <use id="zoomminus" xlink:href="#zoomMin" x="42" y="9" onmousedown="handleZoom(evt,'out')"/>
                <use id="reset" xlink:href="#resetDef" x="30" y="36" onmousedown="handleReset()"/>
                <g id="arrowUp" xlink:href="#dirArrow" transform="translate(30 24)" onmousedown="handlePan(0,-1)">
                  <use xlink:href="#rim" fill="#404040">
                        <set attributeName="fill" to="#808080" begin="arrowUp.mouseover" end="arrowUp.mouseout"/>
                  </use>
                  <path fill="none" stroke="white" stroke-width="1.5" d="M0,-3.0v7 M-2.5,-0.5L0,-3.0L2.5,-0.5"/>
                </g>
                <g id="arrowRight" xlink:href="#dirArrow" transform="rotate(90) translate(36 -43)" onmousedown="handlePan(1,0)">
                  <use xlink:href="#rim" fill="#404040">
                        <set attributeName="fill" to="#808080" begin="arrowRight.mouseover" end="arrowRight.mouseout"/>
                  </use>
                  <path fill="none" stroke="white" stroke-width="1.5" d="M0,-3.0v7 M-2.5,-0.5L0,-3.0L2.5,-0.5"/>
                </g>
                <g id="arrowDown" xlink:href="#dirArrow" transform="rotate(180) translate(-30 -48)" onmousedown="handlePan(0,1)">
                  <use xlink:href="#rim" fill="#404040">
                        <set attributeName="fill" to="#808080" begin="arrowDown.mouseover" end="arrowDown.mouseout"/>
                  </use>
                  <path fill="none" stroke="white" stroke-width="1.5" d="M0,-3.0v7 M-2.5,-0.5L0,-3.0L2.5,-0.5"/>
                </g>
                <g id="arrowLeft" xlink:href="#dirArrow" transform="rotate(270) translate(-36 17)" onmousedown="handlePan(-1,0)">
                  <use xlink:href="#rim" fill="#404040">
                        <set attributeName="fill" to="#808080" begin="arrowLeft.mouseover" end="arrowLeft.mouseout"/>
                  </use>
                  <path fill="none" stroke="white" stroke-width="1.5" d="M0,-3.0v7 M-2.5,-0.5L0,-3.0L2.5,-0.5"/>
                </g>
        </g>
        <svg viewBox="0 0 15 15" width="100%" height="30px" preserveAspectRatio="xMaxYMin meet">
         <g id="arrow_out" transform="scale(0.3 0.3)">
          <a xlink:href="class_x_s_tracker__coll__graph_org.svg" target="_base">
           <rect id="button" ry="5" rx="5" y="6" x="6" height="38" width="38"
                fill="#f2f5e9" fill-opacity="0.5" stroke="#606060" stroke-width="1.0"/>
           <path id="arrow"
             d="M 11.500037,31.436501 C 11.940474,20.09759 22.043105,11.32322 32.158766,21.979434 L 37.068811,17.246167 C 37.068811,17.246167 37.088388,32 37.088388,32 L 22.160133,31.978069 C 22.160133,31.978069 26.997745,27.140456 26.997745,27.140456 C 18.528582,18.264221 13.291696,25.230495 11.500037,31.436501 z"
             style="fill:#404040;"/>
          </a>
         </g>
        </svg>
</svg>
