<?xml version="1.0" encoding="UTF-8" standalone="no"?>
<!DOCTYPE svg PUBLIC "-//W3C//DTD SVG 1.1//EN"
 "http://www.w3.org/Graphics/SVG/1.1/DTD/svg11.dtd">
<!-- Generated by graphviz version 2.38.0 (20140413.2041)
 -->
<!-- Title: CapturyConstraint Pages: 1 -->
<svg width="121pt" height="226pt"
 viewBox="0.00 0.00 121.00 226.00" xmlns="http://www.w3.org/2000/svg" xmlns:xlink="http://www.w3.org/1999/xlink">
<g id="graph0" class="graph" transform="scale(1 1) rotate(0) translate(4 222)">
<title>CapturyConstraint</title>
<polygon fill="white" stroke="none" points="-4,4 -4,-222 117,-222 117,4 -4,4"/>
<!-- Node1 -->
<g id="node1" class="node"><title>Node1</title>
<g id="a_node1"><a xlink:title=" ">
<polygon fill="#bfbfbf" stroke="black" points="0,-0.5 0,-101.5 113,-101.5 113,-0.5 0,-0.5"/>
<text text-anchor="middle" x="56.5" y="-89.5" font-family="Helvetica,sans-Serif" font-size="10.00">CapturyConstraint</text>
<polyline fill="none" stroke="black" points="0,-82.5 113,-82.5 "/>
<text text-anchor="start" x="8" y="-70.5" font-family="Helvetica,sans-Serif" font-size="10.00">+ actor</text>
<text text-anchor="start" x="8" y="-59.5" font-family="Helvetica,sans-Serif" font-size="10.00">+ jointName</text>
<text text-anchor="start" x="8" y="-48.5" font-family="Helvetica,sans-Serif" font-size="10.00">+ weight</text>
<text text-anchor="start" x="8" y="-37.5" font-family="Helvetica,sans-Serif" font-size="10.00">+ constrainTranslation</text>
<text text-anchor="start" x="8" y="-26.5" font-family="Helvetica,sans-Serif" font-size="10.00">+ constrainRotation</text>
<polyline fill="none" stroke="black" points="0,-19.5 113,-19.5 "/>
<text text-anchor="middle" x="56.5" y="-7.5" font-family="Helvetica,sans-Serif" font-size="10.00"> </text>
</a>
</g>
</g>
<!-- Node2 -->
<g id="node2" class="node"><title>Node2</title>
<g id="a_node2"><a xlink:href="../../d7/d61/struct_captury_transform.html" target="_top" xlink:title=" ">
<polygon fill="white" stroke="black" points="10,-149.5 10,-217.5 103,-217.5 103,-149.5 10,-149.5"/>
<text text-anchor="middle" x="56.5" y="-205.5" font-family="Helvetica,sans-Serif" font-size="10.00">CapturyTransform</text>
<polyline fill="none" stroke="black" points="10,-198.5 103,-198.5 "/>
<text text-anchor="start" x="18" y="-186.5" font-family="Helvetica,sans-Serif" font-size="10.00">+ translation</text>
<text text-anchor="start" x="18" y="-175.5" font-family="Helvetica,sans-Serif" font-size="10.00">+ rotation</text>
<polyline fill="none" stroke="black" points="10,-168.5 103,-168.5 "/>
<text text-anchor="middle" x="56.5" y="-156.5" font-family="Helvetica,sans-Serif" font-size="10.00"> </text>
</a>
</g>
</g>
<!-- Node2&#45;&gt;Node1 -->
<g id="edge1" class="edge"><title>Node2&#45;&gt;Node1</title>
<path fill="none" stroke="#404040" d="M56.5,-149.232C56.5,-138.471 56.5,-126.168 56.5,-114.015"/>
<polygon fill="none" stroke="#404040" points="56.5001,-113.975 52.5,-107.975 56.5,-101.975 60.5,-107.975 56.5001,-113.975"/>
<text text-anchor="middle" x="81.5" y="-123" font-family="Helvetica,sans-Serif" font-size="10.00"> +transform</text>
</g>
</g>
</svg>
