<?xml version="1.0" encoding="UTF-8" standalone="no"?>
<!DOCTYPE svg PUBLIC "-//W3C//DTD SVG 1.1//EN"
 "http://www.w3.org/Graphics/SVG/1.1/DTD/svg11.dtd">
<!-- Generated by graphviz version 2.38.0 (20140413.2041)
 -->
<!-- Title: SkeletonMesh Pages: 1 -->
<svg width="209pt" height="839pt"
 viewBox="0.00 0.00 208.50 839.00" xmlns="http://www.w3.org/2000/svg" xmlns:xlink="http://www.w3.org/1999/xlink">
<g id="graph0" class="graph" transform="scale(1 1) rotate(0) translate(4 835)">
<title>SkeletonMesh</title>
<polygon fill="white" stroke="none" points="-4,4 -4,-835 204.5,-835 204.5,4 -4,4"/>
<!-- Node1 -->
<g id="node1" class="node"><title>Node1</title>
<g id="a_node1"><a xlink:title="container for joint meshes">
<polygon fill="#bfbfbf" stroke="black" points="14.5,-0.5 14.5,-68.5 114.5,-68.5 114.5,-0.5 14.5,-0.5"/>
<text text-anchor="middle" x="64.5" y="-56.5" font-family="Helvetica,sans-Serif" font-size="10.00">SkeletonMesh</text>
<polyline fill="none" stroke="black" points="14.5,-49.5 114.5,-49.5 "/>
<text text-anchor="middle" x="64.5" y="-37.5" font-family="Helvetica,sans-Serif" font-size="10.00"> </text>
<polyline fill="none" stroke="black" points="14.5,-30.5 114.5,-30.5 "/>
<text text-anchor="start" x="22.5" y="-18.5" font-family="Helvetica,sans-Serif" font-size="10.00">+ SkeletonMesh()</text>
<text text-anchor="start" x="22.5" y="-7.5" font-family="Helvetica,sans-Serif" font-size="10.00">+ ~SkeletonMesh()</text>
</a>
</g>
</g>
<!-- Node2 -->
<g id="node2" class="node"><title>Node2</title>
<g id="a_node2"><a xlink:href="../../d2/d96/class_entity.html" target="_top" xlink:title="base class for all objects in openGl window">
<polygon fill="white" stroke="black" points="0,-498 0,-698 81,-698 81,-498 0,-498"/>
<text text-anchor="middle" x="40.5" y="-686" font-family="Helvetica,sans-Serif" font-size="10.00">Entity</text>
<polyline fill="none" stroke="black" points="0,-679 81,-679 "/>
<text text-anchor="start" x="8" y="-667" font-family="Helvetica,sans-Serif" font-size="10.00"># m_matrix</text>
<polyline fill="none" stroke="black" points="0,-660 81,-660 "/>
<text text-anchor="start" x="8" y="-648" font-family="Helvetica,sans-Serif" font-size="10.00">+ Entity()</text>
<text text-anchor="start" x="8" y="-637" font-family="Helvetica,sans-Serif" font-size="10.00">+ ~Entity()</text>
<text text-anchor="start" x="8" y="-626" font-family="Helvetica,sans-Serif" font-size="10.00">+ getMatrix()</text>
<text text-anchor="start" x="8" y="-615" font-family="Helvetica,sans-Serif" font-size="10.00">+ translate()</text>
<text text-anchor="start" x="8" y="-604" font-family="Helvetica,sans-Serif" font-size="10.00">+ setPosition()</text>
<text text-anchor="start" x="8" y="-593" font-family="Helvetica,sans-Serif" font-size="10.00">+ getPosition()</text>
<text text-anchor="start" x="8" y="-582" font-family="Helvetica,sans-Serif" font-size="10.00">+ rotate()</text>
<text text-anchor="start" x="8" y="-571" font-family="Helvetica,sans-Serif" font-size="10.00">+ setRotation()</text>
<text text-anchor="start" x="8" y="-560" font-family="Helvetica,sans-Serif" font-size="10.00">+ getRotation()</text>
<text text-anchor="start" x="8" y="-549" font-family="Helvetica,sans-Serif" font-size="10.00">+ scale()</text>
<text text-anchor="start" x="8" y="-538" font-family="Helvetica,sans-Serif" font-size="10.00">+ scale()</text>
<text text-anchor="start" x="8" y="-527" font-family="Helvetica,sans-Serif" font-size="10.00">+ setScale()</text>
<text text-anchor="start" x="8" y="-516" font-family="Helvetica,sans-Serif" font-size="10.00">+ setScale()</text>
<text text-anchor="start" x="8" y="-505" font-family="Helvetica,sans-Serif" font-size="10.00">+ getScale()</text>
</a>
</g>
</g>
<!-- Node2&#45;&gt;Node1 -->
<g id="edge1" class="edge"><title>Node2&#45;&gt;Node1</title>
<path fill="none" stroke="midnightblue" d="M45.1781,-487.553C50.7194,-357.909 59.6327,-149.375 63.0775,-68.7814"/>
<polygon fill="none" stroke="midnightblue" points="41.6658,-487.767 44.7355,-497.908 48.6594,-488.066 41.6658,-487.767"/>
</g>
<!-- Node4 -->
<g id="node4" class="node"><title>Node4</title>
<g id="a_node4"><a xlink:href="../../dc/dbe/class_mesh.html" target="_top" xlink:title="mesh base class">
<polygon fill="white" stroke="black" points="68.5,-244.5 68.5,-444.5 172.5,-444.5 172.5,-244.5 68.5,-244.5"/>
<text text-anchor="middle" x="120.5" y="-432.5" font-family="Helvetica,sans-Serif" font-size="10.00">Mesh</text>
<polyline fill="none" stroke="black" points="68.5,-425.5 172.5,-425.5 "/>
<text text-anchor="start" x="76.5" y="-413.5" font-family="Helvetica,sans-Serif" font-size="10.00"># m_vertexData</text>
<text text-anchor="start" x="76.5" y="-402.5" font-family="Helvetica,sans-Serif" font-size="10.00"># m_faceCount</text>
<text text-anchor="start" x="76.5" y="-391.5" font-family="Helvetica,sans-Serif" font-size="10.00"># m_vbo</text>
<text text-anchor="start" x="76.5" y="-380.5" font-family="Helvetica,sans-Serif" font-size="10.00"># m_texture</text>
<text text-anchor="start" x="76.5" y="-369.5" font-family="Helvetica,sans-Serif" font-size="10.00"># m_shaderProgram</text>
<text text-anchor="start" x="76.5" y="-358.5" font-family="Helvetica,sans-Serif" font-size="10.00"># m_isActive</text>
<polyline fill="none" stroke="black" points="68.5,-351.5 172.5,-351.5 "/>
<text text-anchor="start" x="76.5" y="-339.5" font-family="Helvetica,sans-Serif" font-size="10.00">+ Mesh()</text>
<text text-anchor="start" x="76.5" y="-328.5" font-family="Helvetica,sans-Serif" font-size="10.00">+ ~Mesh()</text>
<text text-anchor="start" x="76.5" y="-317.5" font-family="Helvetica,sans-Serif" font-size="10.00">+ bind()</text>
<text text-anchor="start" x="76.5" y="-306.5" font-family="Helvetica,sans-Serif" font-size="10.00">+ release()</text>
<text text-anchor="start" x="76.5" y="-295.5" font-family="Helvetica,sans-Serif" font-size="10.00">+ getFaceCount()</text>
<text text-anchor="start" x="76.5" y="-284.5" font-family="Helvetica,sans-Serif" font-size="10.00">+ isActive()</text>
<text text-anchor="start" x="76.5" y="-273.5" font-family="Helvetica,sans-Serif" font-size="10.00">+ setActive()</text>
<text text-anchor="start" x="76.5" y="-262.5" font-family="Helvetica,sans-Serif" font-size="10.00">+ setDiffuseColor()</text>
<text text-anchor="start" x="76.5" y="-251.5" font-family="Helvetica,sans-Serif" font-size="10.00"># init()</text>
</a>
</g>
</g>
<!-- Node2&#45;&gt;Node4 -->
<g id="edge4" class="edge"><title>Node2&#45;&gt;Node4</title>
<path fill="none" stroke="midnightblue" d="M75.148,-488.075C79.7166,-473.713 84.3801,-459.052 88.8942,-444.861"/>
<polygon fill="none" stroke="midnightblue" points="71.6993,-487.371 72.0033,-497.962 78.3699,-489.493 71.6993,-487.371"/>
</g>
<!-- Node3 -->
<g id="node3" class="node"><title>Node3</title>
<g id="a_node3"><a xlink:href="../../d9/dbf/class_cube.html" target="_top" xlink:title=" ">
<polygon fill="white" stroke="black" points="74,-116.5 74,-206.5 139,-206.5 139,-116.5 74,-116.5"/>
<text text-anchor="middle" x="106.5" y="-194.5" font-family="Helvetica,sans-Serif" font-size="10.00">Cube</text>
<polyline fill="none" stroke="black" points="74,-187.5 139,-187.5 "/>
<text text-anchor="middle" x="106.5" y="-175.5" font-family="Helvetica,sans-Serif" font-size="10.00"> </text>
<polyline fill="none" stroke="black" points="74,-168.5 139,-168.5 "/>
<text text-anchor="start" x="82" y="-156.5" font-family="Helvetica,sans-Serif" font-size="10.00">+ Cube()</text>
<text text-anchor="start" x="82" y="-145.5" font-family="Helvetica,sans-Serif" font-size="10.00">+ Cube()</text>
<text text-anchor="start" x="82" y="-134.5" font-family="Helvetica,sans-Serif" font-size="10.00">+ ~Cube()</text>
<text text-anchor="start" x="82" y="-123.5" font-family="Helvetica,sans-Serif" font-size="10.00">&#45; initVerts()</text>
</a>
</g>
</g>
<!-- Node3&#45;&gt;Node1 -->
<g id="edge2" class="edge"><title>Node3&#45;&gt;Node1</title>
<path fill="none" stroke="#404040" d="M91.6924,-116.43C87.7247,-104.621 83.4331,-91.8484 79.4573,-80.0159"/>
<polygon fill="none" stroke="#404040" points="79.4327,-79.9422 73.7299,-75.5287 75.6106,-68.5672 81.3133,-72.9807 79.4327,-79.9422"/>
<text text-anchor="middle" x="108.5" y="-90" font-family="Helvetica,sans-Serif" font-size="10.00"> +m_joints</text>
</g>
<!-- Node4&#45;&gt;Node3 -->
<g id="edge3" class="edge"><title>Node4&#45;&gt;Node3</title>
<path fill="none" stroke="midnightblue" d="M112.041,-234.142C111.297,-224.516 110.575,-215.187 109.912,-206.618"/>
<polygon fill="none" stroke="midnightblue" points="108.563,-234.562 112.824,-244.263 115.542,-234.022 108.563,-234.562"/>
</g>
<!-- Node5 -->
<g id="node5" class="node"><title>Node5</title>
<g id="a_node5"><a xlink:href="../../d3/de7/class_vector3.html" target="_top" xlink:title="Utility Class.">
<polygon fill="white" stroke="black" points="99,-492.5 99,-703.5 172,-703.5 172,-492.5 99,-492.5"/>
<text text-anchor="middle" x="135.5" y="-691.5" font-family="Helvetica,sans-Serif" font-size="10.00">Vector3</text>
<polyline fill="none" stroke="black" points="99,-684.5 172,-684.5 "/>
<text text-anchor="middle" x="135.5" y="-672.5" font-family="Helvetica,sans-Serif" font-size="10.00"> </text>
<polyline fill="none" stroke="black" points="99,-665.5 172,-665.5 "/>
<text text-anchor="start" x="107" y="-653.5" font-family="Helvetica,sans-Serif" font-size="10.00">+ Vector3()</text>
<text text-anchor="start" x="107" y="-642.5" font-family="Helvetica,sans-Serif" font-size="10.00">+ Vector3()</text>
<text text-anchor="start" x="107" y="-631.5" font-family="Helvetica,sans-Serif" font-size="10.00">+ Vector3()</text>
<text text-anchor="start" x="107" y="-620.5" font-family="Helvetica,sans-Serif" font-size="10.00">+ Vector3()</text>
<text text-anchor="start" x="107" y="-609.5" font-family="Helvetica,sans-Serif" font-size="10.00">+ Vector3()</text>
<text text-anchor="start" x="107" y="-598.5" font-family="Helvetica,sans-Serif" font-size="10.00">+ operator+()</text>
<text text-anchor="start" x="107" y="-587.5" font-family="Helvetica,sans-Serif" font-size="10.00">+ operator&#45;()</text>
<text text-anchor="start" x="107" y="-576.5" font-family="Helvetica,sans-Serif" font-size="10.00">+ operator*()</text>
<text text-anchor="start" x="107" y="-565.5" font-family="Helvetica,sans-Serif" font-size="10.00">+ operator/()</text>
<text text-anchor="start" x="107" y="-554.5" font-family="Helvetica,sans-Serif" font-size="10.00">+ operator*()</text>
<text text-anchor="start" x="107" y="-543.5" font-family="Helvetica,sans-Serif" font-size="10.00">+ operator*()</text>
<text text-anchor="start" x="107" y="-532.5" font-family="Helvetica,sans-Serif" font-size="10.00">+ toString()</text>
<text text-anchor="start" x="107" y="-521.5" font-family="Helvetica,sans-Serif" font-size="10.00">+ toEigen()</text>
<text text-anchor="start" x="107" y="-510.5" font-family="Helvetica,sans-Serif" font-size="10.00">+ zero()</text>
<text text-anchor="start" x="107" y="-499.5" font-family="Helvetica,sans-Serif" font-size="10.00">+ one()</text>
</a>
</g>
</g>
<!-- Node5&#45;&gt;Node4 -->
<g id="edge5" class="edge"><title>Node5&#45;&gt;Node4</title>
<path fill="none" stroke="#404040" d="M129.247,-492.163C128.549,-480.459 127.836,-468.506 127.134,-456.726"/>
<polygon fill="none" stroke="#404040" points="127.121,-456.508 122.771,-450.757 126.406,-444.529 130.756,-450.28 127.121,-456.508"/>
<text text-anchor="middle" x="164" y="-466" font-family="Helvetica,sans-Serif" font-size="10.00"> #m_diffuseColor</text>
</g>
<!-- Node6 -->
<g id="node6" class="node"><title>Node6</title>
<g id="a_node6"><a xlink:href="../../df/d32/struct_vector3_1_1_position.html" target="_top" xlink:title=" ">
<polygon fill="white" stroke="black" points="89.5,-751.5 89.5,-830.5 181.5,-830.5 181.5,-751.5 89.5,-751.5"/>
<text text-anchor="middle" x="135.5" y="-818.5" font-family="Helvetica,sans-Serif" font-size="10.00">Vector3::Position</text>
<polyline fill="none" stroke="black" points="89.5,-811.5 181.5,-811.5 "/>
<text text-anchor="start" x="97.5" y="-799.5" font-family="Helvetica,sans-Serif" font-size="10.00">+ x</text>
<text text-anchor="start" x="97.5" y="-788.5" font-family="Helvetica,sans-Serif" font-size="10.00">+ y</text>
<text text-anchor="start" x="97.5" y="-777.5" font-family="Helvetica,sans-Serif" font-size="10.00">+ z</text>
<polyline fill="none" stroke="black" points="89.5,-770.5 181.5,-770.5 "/>
<text text-anchor="middle" x="135.5" y="-758.5" font-family="Helvetica,sans-Serif" font-size="10.00"> </text>
</a>
</g>
</g>
<!-- Node6&#45;&gt;Node5 -->
<g id="edge6" class="edge"><title>Node6&#45;&gt;Node5</title>
<path fill="none" stroke="#404040" d="M135.5,-751.348C135.5,-740.692 135.5,-728.551 135.5,-715.881"/>
<polygon fill="none" stroke="#404040" points="135.5,-715.603 131.5,-709.603 135.5,-703.603 139.5,-709.603 135.5,-715.603"/>
<text text-anchor="middle" x="155" y="-725" font-family="Helvetica,sans-Serif" font-size="10.00"> +m_xyz</text>
</g>
</g>
</svg>
