<?xml version="1.0" encoding="UTF-8" standalone="no"?>
<!DOCTYPE svg PUBLIC "-//W3C//DTD SVG 1.1//EN"
 "http://www.w3.org/Graphics/SVG/1.1/DTD/svg11.dtd">
<!-- Generated by graphviz version 2.38.0 (20140413.2041)
 -->
<!-- Title: OsgAxesCross Pages: 1 -->
<svg width="136pt" height="347pt"
 viewBox="0.00 0.00 136.00 347.00" xmlns="http://www.w3.org/2000/svg" xmlns:xlink="http://www.w3.org/1999/xlink">
<g id="graph0" class="graph" transform="scale(1 1) rotate(0) translate(4 343)">
<title>OsgAxesCross</title>
<polygon fill="white" stroke="none" points="-4,4 -4,-343 132,-343 132,4 -4,4"/>
<!-- Node1 -->
<g id="node1" class="node"><title>Node1</title>
<g id="a_node1"><a xlink:title=" ">
<polygon fill="#bfbfbf" stroke="black" points="12,-0.5 12,-244.5 116,-244.5 116,-0.5 12,-0.5"/>
<text text-anchor="middle" x="64" y="-232.5" font-family="Helvetica,sans-Serif" font-size="10.00">OsgAxesCross</text>
<polyline fill="none" stroke="black" points="12,-225.5 116,-225.5 "/>
<text text-anchor="start" x="20" y="-213.5" font-family="Helvetica,sans-Serif" font-size="10.00">&#45; m_scale</text>
<text text-anchor="start" x="20" y="-202.5" font-family="Helvetica,sans-Serif" font-size="10.00">&#45; m_heightX</text>
<text text-anchor="start" x="20" y="-191.5" font-family="Helvetica,sans-Serif" font-size="10.00">&#45; m_heightY</text>
<text text-anchor="start" x="20" y="-180.5" font-family="Helvetica,sans-Serif" font-size="10.00">&#45; m_heightZ</text>
<text text-anchor="start" x="20" y="-169.5" font-family="Helvetica,sans-Serif" font-size="10.00">&#45; m_thicknessX</text>
<text text-anchor="start" x="20" y="-158.5" font-family="Helvetica,sans-Serif" font-size="10.00">&#45; m_thicknessY</text>
<text text-anchor="start" x="20" y="-147.5" font-family="Helvetica,sans-Serif" font-size="10.00">&#45; m_thicknessZ</text>
<polyline fill="none" stroke="black" points="12,-140.5 116,-140.5 "/>
<text text-anchor="start" x="20" y="-128.5" font-family="Helvetica,sans-Serif" font-size="10.00">+ OsgAxesCross()</text>
<text text-anchor="start" x="20" y="-117.5" font-family="Helvetica,sans-Serif" font-size="10.00">+ OsgAxesCross()</text>
<text text-anchor="start" x="20" y="-106.5" font-family="Helvetica,sans-Serif" font-size="10.00">+ ~OsgAxesCross()</text>
<text text-anchor="start" x="20" y="-95.5" font-family="Helvetica,sans-Serif" font-size="10.00">+ createGeometry()</text>
<text text-anchor="start" x="20" y="-84.5" font-family="Helvetica,sans-Serif" font-size="10.00">+ setScale()</text>
<text text-anchor="start" x="20" y="-73.5" font-family="Helvetica,sans-Serif" font-size="10.00">+ getScale()</text>
<text text-anchor="start" x="20" y="-62.5" font-family="Helvetica,sans-Serif" font-size="10.00">+ setHeightX()</text>
<text text-anchor="start" x="20" y="-51.5" font-family="Helvetica,sans-Serif" font-size="10.00">+ getHeightX()</text>
<text text-anchor="start" x="20" y="-40.5" font-family="Helvetica,sans-Serif" font-size="10.00">+ setHeightY()</text>
<text text-anchor="start" x="20" y="-29.5" font-family="Helvetica,sans-Serif" font-size="10.00">+ getHeightY()</text>
<text text-anchor="start" x="20" y="-18.5" font-family="Helvetica,sans-Serif" font-size="10.00">and 8 more...</text>
<text text-anchor="start" x="20" y="-7.5" font-family="Helvetica,sans-Serif" font-size="10.00">&#45; initialize()</text>
</a>
</g>
</g>
<!-- Node2 -->
<g id="node2" class="node"><title>Node2</title>
<g id="a_node2"><a xlink:title=" ">
<polygon fill="white" stroke="#bfbfbf" points="0,-281.5 0,-338.5 128,-338.5 128,-281.5 0,-281.5"/>
<text text-anchor="middle" x="64" y="-326.5" font-family="Helvetica,sans-Serif" font-size="10.00">PositionAttitudeTransform</text>
<polyline fill="none" stroke="#bfbfbf" points="0,-319.5 128,-319.5 "/>
<text text-anchor="middle" x="64" y="-307.5" font-family="Helvetica,sans-Serif" font-size="10.00"> </text>
<polyline fill="none" stroke="#bfbfbf" points="0,-300.5 128,-300.5 "/>
<text text-anchor="middle" x="64" y="-288.5" font-family="Helvetica,sans-Serif" font-size="10.00"> </text>
</a>
</g>
</g>
<!-- Node2&#45;&gt;Node1 -->
<g id="edge1" class="edge"><title>Node2&#45;&gt;Node1</title>
<path fill="none" stroke="midnightblue" d="M64,-271.139C64,-263.055 64,-254.101 64,-244.718"/>
<polygon fill="none" stroke="midnightblue" points="60.5001,-271.229 64,-281.229 67.5001,-271.229 60.5001,-271.229"/>
</g>
</g>
</svg>
