<?xml version="1.0" encoding="UTF-8" standalone="no"?>
<!DOCTYPE svg PUBLIC "-//W3C//DTD SVG 1.1//EN"
 "http://www.w3.org/Graphics/SVG/1.1/DTD/svg11.dtd">
<!-- Generated by graphviz version 2.38.0 (20140413.2041)
 -->
<!-- Title: C:/dev/projects/MotionHub/src/TrackerManagement/xs_parsermanager.cpp Pages: 1 -->
<!--zoomable 330 -->
<svg id="main" version="1.1" xmlns="http://www.w3.org/2000/svg" xmlns:xlink="http://www.w3.org/1999/xlink" xml:space="preserve" onload="init(evt)">
<style type="text/css"><![CDATA[
.edge:hover path { stroke: red; }
.edge:hover polygon { stroke: red; fill: red; }
]]></style>
<script type="text/javascript"><![CDATA[
var edges = document.getElementsByTagName('g');
if (edges && edges.length) {
  for (var i=0;i<edges.length;i++) {
    if (edges[i].id.substr(0,4)=='edge') {
      edges[i].setAttribute('class','edge');
    }
  }
}
]]></script>
        <defs>
                <circle id="rim" cx="0" cy="0" r="7"/>
                <circle id="rim2" cx="0" cy="0" r="3.5"/>
                <g id="zoomPlus">
                        <use xlink:href="#rim" fill="#404040">
                                <set attributeName="fill" to="#808080" begin="zoomplus.mouseover" end="zoomplus.mouseout"/>
                        </use>
                        <path d="M-4,0h8M0,-4v8" fill="none" stroke="white" stroke-width="1.5" pointer-events="none"/>
                </g>
                <g id="zoomMin">
                        <use xlink:href="#rim" fill="#404040">
                                <set attributeName="fill" to="#808080" begin="zoomminus.mouseover" end="zoomminus.mouseout"/>
                        </use>
                        <path d="M-4,0h8" fill="none" stroke="white" stroke-width="1.5" pointer-events="none"/>
                </g>
                <g id="dirArrow">
                        <path fill="none" stroke="white" stroke-width="1.5" d="M0,-3.0v7 M-2.5,-0.5L0,-3.0L2.5,-0.5"/>
                </g>
               <g id="resetDef">
                       <use xlink:href="#rim2" fill="#404040">
                               <set attributeName="fill" to="#808080" begin="reset.mouseover" end="reset.mouseout"/>
                       </use>
               </g>
        </defs>

<script type="text/javascript">
var viewWidth = 1351;
var viewHeight = 330;
var sectionId = 'dynsection-0';
</script>
<script xlink:href="../../svgpan.js"/>
<svg id="graph" class="graph">
<g id="viewport">
<title>C:/dev/projects/MotionHub/src/TrackerManagement/xs_parsermanager.cpp</title>
<polygon fill="white" stroke="none" points="-4,4 -4,-326 1347,-326 1347,4 -4,4"/>
<!-- Node1 -->
<g id="node1" class="node"><title>Node1</title>
<g id="a_node1"><a xlink:title=" ">
<polygon fill="#bfbfbf" stroke="black" points="446.5,-280.5 446.5,-321.5 577.5,-321.5 577.5,-280.5 446.5,-280.5"/>
<text text-anchor="start" x="454.5" y="-309.5" font-family="Helvetica,sans-Serif" font-size="10.00">C:/dev/projects/MotionHub</text>
<text text-anchor="start" x="454.5" y="-298.5" font-family="Helvetica,sans-Serif" font-size="10.00">/src/TrackerManagement</text>
<text text-anchor="middle" x="512" y="-287.5" font-family="Helvetica,sans-Serif" font-size="10.00">/xs_parsermanager.cpp</text>
</a>
</g>
</g>
<!-- Node2 -->
<g id="node2" class="node"><title>Node2</title>
<g id="a_node2"><a xlink:href="../../d0/d2a/xs__parsermanager_8h.html" target="_top" xlink:title=" ">
<polygon fill="white" stroke="black" points="132.5,-224.5 132.5,-243.5 237.5,-243.5 237.5,-224.5 132.5,-224.5"/>
<text text-anchor="middle" x="185" y="-231.5" font-family="Helvetica,sans-Serif" font-size="10.00">xs_parsermanager.h</text>
</a>
</g>
</g>
<!-- Node1&#45;&gt;Node2 -->
<g id="edge1" class="edge"><title>Node1&#45;&gt;Node2</title>
<path fill="none" stroke="midnightblue" d="M446.22,-286.924C384.817,-274.719 294.37,-256.74 237.622,-245.46"/>
<polygon fill="midnightblue" stroke="midnightblue" points="238.268,-242.02 227.778,-243.503 236.903,-248.886 238.268,-242.02"/>
</g>
<!-- Node11 -->
<g id="node11" class="node"><title>Node11</title>
<g id="a_node11"><a xlink:href="../../d3/ddb/xs__quaterniondatagram_8h.html" target="_top" xlink:title=" ">
<polygon fill="white" stroke="black" points="0,-168.5 0,-187.5 126,-187.5 126,-168.5 0,-168.5"/>
<text text-anchor="middle" x="63" y="-175.5" font-family="Helvetica,sans-Serif" font-size="10.00">xs_quaterniondatagram.h</text>
</a>
</g>
</g>
<!-- Node1&#45;&gt;Node11 -->
<g id="edge22" class="edge"><title>Node1&#45;&gt;Node11</title>
<path fill="none" stroke="midnightblue" d="M446.265,-295.855C350.431,-288.924 177.802,-272.822 123,-244 102.064,-232.989 84.6,-211.697 74.0096,-196.482"/>
<polygon fill="midnightblue" stroke="midnightblue" points="76.7834,-194.332 68.3342,-187.94 70.953,-198.206 76.7834,-194.332"/>
</g>
<!-- Node12 -->
<g id="node12" class="node"><title>Node12</title>
<g id="a_node12"><a xlink:href="../../d6/de6/xs__scaledatagram_8h.html" target="_top" xlink:title=" ">
<polygon fill="white" stroke="black" points="182,-168.5 182,-187.5 286,-187.5 286,-168.5 182,-168.5"/>
<text text-anchor="middle" x="234" y="-175.5" font-family="Helvetica,sans-Serif" font-size="10.00">xs_scaledatagram.h</text>
</a>
</g>
</g>
<!-- Node1&#45;&gt;Node12 -->
<g id="edge19" class="edge"><title>Node1&#45;&gt;Node12</title>
<path fill="none" stroke="midnightblue" d="M467.026,-280.425C409.519,-255.395 311.591,-212.771 263.049,-191.644"/>
<polygon fill="midnightblue" stroke="midnightblue" points="264.315,-188.378 253.749,-187.596 261.522,-194.796 264.315,-188.378"/>
</g>
<!-- Node13 -->
<g id="node13" class="node"><title>Node13</title>
<g id="a_node13"><a xlink:href="../../dc/da2/xs__eulerdatagram_8h.html" target="_top" xlink:title=" ">
<polygon fill="white" stroke="black" points="304,-168.5 304,-187.5 406,-187.5 406,-168.5 304,-168.5"/>
<text text-anchor="middle" x="355" y="-175.5" font-family="Helvetica,sans-Serif" font-size="10.00">xs_eulerdatagram.h</text>
</a>
</g>
</g>
<!-- Node1&#45;&gt;Node13 -->
<g id="edge17" class="edge"><title>Node1&#45;&gt;Node13</title>
<path fill="none" stroke="midnightblue" d="M486.426,-280.29C455.064,-256.119 402.606,-215.69 374.381,-193.937"/>
<polygon fill="midnightblue" stroke="midnightblue" points="376.183,-190.907 366.126,-187.575 371.91,-196.451 376.183,-190.907"/>
</g>
<!-- Node14 -->
<g id="node14" class="node"><title>Node14</title>
<g id="a_node14"><a xlink:href="../../db/db0/xs__metadatagram_8h.html" target="_top" xlink:title=" ">
<polygon fill="white" stroke="black" points="424.5,-168.5 424.5,-187.5 527.5,-187.5 527.5,-168.5 424.5,-168.5"/>
<text text-anchor="middle" x="476" y="-175.5" font-family="Helvetica,sans-Serif" font-size="10.00">xs_metadatagram.h</text>
</a>
</g>
</g>
<!-- Node1&#45;&gt;Node14 -->
<g id="edge20" class="edge"><title>Node1&#45;&gt;Node14</title>
<path fill="none" stroke="midnightblue" d="M497.226,-280.367C490.356,-270.095 482.863,-256.979 479,-244 474.513,-228.926 474.019,-211.024 474.502,-197.828"/>
<polygon fill="midnightblue" stroke="midnightblue" points="478.009,-197.82 475.102,-187.632 471.021,-197.409 478.009,-197.82"/>
</g>
<!-- Node15 -->
<g id="node15" class="node"><title>Node15</title>
<g id="a_node15"><a xlink:href="../../d0/dae/xs__angularsegmentkinematicsdatagram_8h.html" target="_top" xlink:title=" ">
<polygon fill="white" stroke="black" points="545.5,-168.5 545.5,-187.5 742.5,-187.5 742.5,-168.5 545.5,-168.5"/>
<text text-anchor="middle" x="644" y="-175.5" font-family="Helvetica,sans-Serif" font-size="10.00">xs_angularsegmentkinematicsdatagram.h</text>
</a>
</g>
</g>
<!-- Node1&#45;&gt;Node15 -->
<g id="edge23" class="edge"><title>Node1&#45;&gt;Node15</title>
<path fill="none" stroke="midnightblue" d="M507.799,-280.496C505.381,-263.813 504.869,-240.025 517,-224 529.437,-207.572 548.351,-197.121 567.813,-190.48"/>
<polygon fill="midnightblue" stroke="midnightblue" points="568.867,-193.817 577.385,-187.516 566.797,-187.13 568.867,-193.817"/>
</g>
<!-- Node16 -->
<g id="node16" class="node"><title>Node16</title>
<g id="a_node16"><a xlink:href="../../d0/da4/xs__centerofmassdatagram_8h.html" target="_top" xlink:title=" ">
<polygon fill="white" stroke="black" points="761,-168.5 761,-187.5 901,-187.5 901,-168.5 761,-168.5"/>
<text text-anchor="middle" x="831" y="-175.5" font-family="Helvetica,sans-Serif" font-size="10.00">xs_centerofmassdatagram.h</text>
</a>
</g>
</g>
<!-- Node1&#45;&gt;Node16 -->
<g id="edge25" class="edge"><title>Node1&#45;&gt;Node16</title>
<path fill="none" stroke="midnightblue" d="M516.469,-280.161C521.523,-262.534 531.564,-237.526 550,-224 566.059,-212.218 673.387,-197.423 750.628,-188.087"/>
<polygon fill="midnightblue" stroke="midnightblue" points="751.326,-191.528 760.839,-186.863 750.493,-184.578 751.326,-191.528"/>
</g>
<!-- Node17 -->
<g id="node17" class="node"><title>Node17</title>
<g id="a_node17"><a xlink:href="../../d7/dff/xs__jointanglesdatagram_8h.html" target="_top" xlink:title=" ">
<polygon fill="white" stroke="black" points="559,-224.5 559,-243.5 687,-243.5 687,-224.5 559,-224.5"/>
<text text-anchor="middle" x="623" y="-231.5" font-family="Helvetica,sans-Serif" font-size="10.00">xs_jointanglesdatagram.h</text>
</a>
</g>
</g>
<!-- Node1&#45;&gt;Node17 -->
<g id="edge27" class="edge"><title>Node1&#45;&gt;Node17</title>
<path fill="none" stroke="midnightblue" d="M545.304,-280.498C562.649,-270.34 583.458,-258.155 599.174,-248.952"/>
<polygon fill="midnightblue" stroke="midnightblue" points="601.364,-251.726 608.224,-243.652 597.826,-245.685 601.364,-251.726"/>
</g>
<!-- Node18 -->
<g id="node18" class="node"><title>Node18</title>
<g id="a_node18"><a xlink:href="../../da/d51/xs__linearsegmentkinematicsdatagram_8h.html" target="_top" xlink:title=" ">
<polygon fill="white" stroke="black" points="705.5,-224.5 705.5,-243.5 894.5,-243.5 894.5,-224.5 705.5,-224.5"/>
<text text-anchor="middle" x="800" y="-231.5" font-family="Helvetica,sans-Serif" font-size="10.00">xs_linearsegmentkinematicsdatagram.h</text>
</a>
</g>
</g>
<!-- Node1&#45;&gt;Node18 -->
<g id="edge29" class="edge"><title>Node1&#45;&gt;Node18</title>
<path fill="none" stroke="midnightblue" d="M577.712,-285.169C630.874,-273.171 704.49,-256.556 752.178,-245.793"/>
<polygon fill="midnightblue" stroke="midnightblue" points="752.96,-249.205 761.944,-243.589 751.419,-242.376 752.96,-249.205"/>
</g>
<!-- Node19 -->
<g id="node19" class="node"><title>Node19</title>
<g id="a_node19"><a xlink:href="../../de/db3/xs__positiondatagram_8h.html" target="_top" xlink:title=" ">
<polygon fill="white" stroke="black" points="912.5,-224.5 912.5,-243.5 1027.5,-243.5 1027.5,-224.5 912.5,-224.5"/>
<text text-anchor="middle" x="970" y="-231.5" font-family="Helvetica,sans-Serif" font-size="10.00">xs_positiondatagram.h</text>
</a>
</g>
</g>
<!-- Node1&#45;&gt;Node19 -->
<g id="edge31" class="edge"><title>Node1&#45;&gt;Node19</title>
<path fill="none" stroke="midnightblue" d="M577.62,-290.687C663.987,-278.43 815.048,-256.991 902.394,-244.595"/>
<polygon fill="midnightblue" stroke="midnightblue" points="903.052,-248.036 912.461,-243.166 902.069,-241.106 903.052,-248.036"/>
</g>
<!-- Node20 -->
<g id="node20" class="node"><title>Node20</title>
<g id="a_node20"><a xlink:href="../../dc/db6/xs__timecodedatagram_8h.html" target="_top" xlink:title=" ">
<polygon fill="white" stroke="black" points="1045.5,-224.5 1045.5,-243.5 1166.5,-243.5 1166.5,-224.5 1045.5,-224.5"/>
<text text-anchor="middle" x="1106" y="-231.5" font-family="Helvetica,sans-Serif" font-size="10.00">xs_timecodedatagram.h</text>
</a>
</g>
</g>
<!-- Node1&#45;&gt;Node20 -->
<g id="edge33" class="edge"><title>Node1&#45;&gt;Node20</title>
<path fill="none" stroke="midnightblue" d="M577.814,-293.423C675.264,-283.583 863.951,-264.143 1035.34,-244.055"/>
<polygon fill="midnightblue" stroke="midnightblue" points="1035.78,-247.528 1045.3,-242.885 1034.96,-240.576 1035.78,-247.528"/>
</g>
<!-- Node21 -->
<g id="node21" class="node"><title>Node21</title>
<g id="a_node21"><a xlink:href="../../dc/dff/xs__trackerkinematicsdatagram_8h.html" target="_top" xlink:title=" ">
<polygon fill="white" stroke="black" points="1185,-224.5 1185,-243.5 1343,-243.5 1343,-224.5 1185,-224.5"/>
<text text-anchor="middle" x="1264" y="-231.5" font-family="Helvetica,sans-Serif" font-size="10.00">xs_trackerkinematicsdatagram.h</text>
</a>
</g>
</g>
<!-- Node1&#45;&gt;Node21 -->
<g id="edge35" class="edge"><title>Node1&#45;&gt;Node21</title>
<path fill="none" stroke="midnightblue" d="M577.904,-294.796C695.362,-285.442 948.894,-264.891 1174.85,-243.998"/>
<polygon fill="midnightblue" stroke="midnightblue" points="1175.27,-247.474 1184.91,-243.067 1174.63,-240.504 1175.27,-247.474"/>
</g>
<!-- Node3 -->
<g id="node3" class="node"><title>Node3</title>
<g id="a_node3"><a xlink:href="../../d1/d43/xs__datagram_8h.html" target="_top" xlink:title=" ">
<polygon fill="white" stroke="black" points="696.5,-112.5 696.5,-131.5 777.5,-131.5 777.5,-112.5 696.5,-112.5"/>
<text text-anchor="middle" x="737" y="-119.5" font-family="Helvetica,sans-Serif" font-size="10.00">xs_datagram.h</text>
</a>
</g>
</g>
<!-- Node2&#45;&gt;Node3 -->
<g id="edge2" class="edge"><title>Node2&#45;&gt;Node3</title>
<path fill="none" stroke="midnightblue" d="M179.287,-224.149C171.142,-210.305 158.676,-183.513 173,-168 207.428,-130.716 553.796,-124.303 686.048,-123.216"/>
<polygon fill="midnightblue" stroke="midnightblue" points="686.338,-126.714 696.311,-123.138 686.285,-119.714 686.338,-126.714"/>
</g>
<!-- Node2&#45;&gt;Node11 -->
<g id="edge13" class="edge"><title>Node2&#45;&gt;Node11</title>
<path fill="none" stroke="midnightblue" d="M165.669,-224.444C145.68,-215.596 114.257,-201.687 91.4361,-191.586"/>
<polygon fill="midnightblue" stroke="midnightblue" points="92.8018,-188.363 82.2408,-187.516 89.9685,-194.764 92.8018,-188.363"/>
</g>
<!-- Node2&#45;&gt;Node12 -->
<g id="edge15" class="edge"><title>Node2&#45;&gt;Node12</title>
<path fill="none" stroke="midnightblue" d="M193.091,-224.083C200.155,-216.298 210.588,-204.801 219.149,-195.367"/>
<polygon fill="midnightblue" stroke="midnightblue" points="221.931,-197.509 226.059,-187.751 216.747,-192.805 221.931,-197.509"/>
</g>
<!-- Node4 -->
<g id="node4" class="node"><title>Node4</title>
<g id="a_node4"><a xlink:title=" ">
<polygon fill="white" stroke="#bfbfbf" points="538,-0.5 538,-19.5 590,-19.5 590,-0.5 538,-0.5"/>
<text text-anchor="middle" x="564" y="-7.5" font-family="Helvetica,sans-Serif" font-size="10.00">memory</text>
</a>
</g>
</g>
<!-- Node3&#45;&gt;Node4 -->
<g id="edge3" class="edge"><title>Node3&#45;&gt;Node4</title>
<path fill="none" stroke="midnightblue" d="M714.134,-112.463C693.878,-104.426 663.898,-91.3501 640,-76 617.567,-61.5912 594.701,-41.0802 579.993,-26.9724"/>
<polygon fill="midnightblue" stroke="midnightblue" points="582.317,-24.3507 572.715,-19.873 577.429,-29.3614 582.317,-24.3507"/>
</g>
<!-- Node5 -->
<g id="node5" class="node"><title>Node5</title>
<g id="a_node5"><a xlink:title=" ">
<polygon fill="white" stroke="#bfbfbf" points="608,-0.5 608,-19.5 662,-19.5 662,-0.5 608,-0.5"/>
<text text-anchor="middle" x="635" y="-7.5" font-family="Helvetica,sans-Serif" font-size="10.00">iostream</text>
</a>
</g>
</g>
<!-- Node3&#45;&gt;Node5 -->
<g id="edge4" class="edge"><title>Node3&#45;&gt;Node5</title>
<path fill="none" stroke="midnightblue" d="M709.41,-112.35C691.218,-105.302 668.209,-93.6003 654,-76 643.278,-62.7184 638.606,-43.5948 636.571,-29.5276"/>
<polygon fill="midnightblue" stroke="midnightblue" points="640.043,-29.0805 635.439,-19.5383 633.087,-29.8689 640.043,-29.0805"/>
</g>
<!-- Node6 -->
<g id="node6" class="node"><title>Node6</title>
<g id="a_node6"><a xlink:title=" ">
<polygon fill="white" stroke="#bfbfbf" points="812,-0.5 812,-19.5 864,-19.5 864,-0.5 812,-0.5"/>
<text text-anchor="middle" x="838" y="-7.5" font-family="Helvetica,sans-Serif" font-size="10.00">sstream</text>
</a>
</g>
</g>
<!-- Node3&#45;&gt;Node6 -->
<g id="edge5" class="edge"><title>Node3&#45;&gt;Node6</title>
<path fill="none" stroke="midnightblue" d="M743.512,-112.282C753.181,-99.5123 772.119,-75.1617 790,-56 799.644,-45.6653 811.181,-34.8068 820.527,-26.3459"/>
<polygon fill="midnightblue" stroke="midnightblue" points="822.949,-28.8747 828.073,-19.6012 818.285,-23.6555 822.949,-28.8747"/>
</g>
<!-- Node7 -->
<g id="node7" class="node"><title>Node7</title>
<g id="a_node7"><a xlink:title=" ">
<polygon fill="white" stroke="#bfbfbf" points="799.5,-56.5 799.5,-75.5 834.5,-75.5 834.5,-56.5 799.5,-56.5"/>
<text text-anchor="middle" x="817" y="-63.5" font-family="Helvetica,sans-Serif" font-size="10.00">map</text>
</a>
</g>
</g>
<!-- Node3&#45;&gt;Node7 -->
<g id="edge6" class="edge"><title>Node3&#45;&gt;Node7</title>
<path fill="none" stroke="midnightblue" d="M749.853,-112.324C762.216,-103.979 781.13,-91.2122 795.737,-81.3524"/>
<polygon fill="midnightblue" stroke="midnightblue" points="797.848,-84.1503 804.179,-75.6545 793.932,-78.3483 797.848,-84.1503"/>
</g>
<!-- Node8 -->
<g id="node8" class="node"><title>Node8</title>
<g id="a_node8"><a xlink:title=" ">
<polygon fill="white" stroke="#bfbfbf" points="853,-56.5 853,-75.5 895,-75.5 895,-56.5 853,-56.5"/>
<text text-anchor="middle" x="874" y="-63.5" font-family="Helvetica,sans-Serif" font-size="10.00">vector</text>
</a>
</g>
</g>
<!-- Node3&#45;&gt;Node8 -->
<g id="edge7" class="edge"><title>Node3&#45;&gt;Node8</title>
<path fill="none" stroke="midnightblue" d="M758.708,-112.444C781.488,-103.465 817.493,-89.2729 843.204,-79.1386"/>
<polygon fill="midnightblue" stroke="midnightblue" points="844.824,-82.2623 852.844,-75.339 842.257,-75.7499 844.824,-82.2623"/>
</g>
<!-- Node9 -->
<g id="node9" class="node"><title>Node9</title>
<g id="a_node9"><a xlink:href="../../dd/dce/xs__streamer_8h.html" target="_top" xlink:title=" ">
<polygon fill="white" stroke="black" points="663.5,-56.5 663.5,-75.5 742.5,-75.5 742.5,-56.5 663.5,-56.5"/>
<text text-anchor="middle" x="703" y="-63.5" font-family="Helvetica,sans-Serif" font-size="10.00">xs_streamer.h</text>
</a>
</g>
</g>
<!-- Node3&#45;&gt;Node9 -->
<g id="edge8" class="edge"><title>Node3&#45;&gt;Node9</title>
<path fill="none" stroke="midnightblue" d="M731.386,-112.083C726.633,-104.534 719.682,-93.4948 713.848,-84.2298"/>
<polygon fill="midnightblue" stroke="midnightblue" points="716.8,-82.3486 708.51,-75.7511 710.876,-86.0783 716.8,-82.3486"/>
</g>
<!-- Node9&#45;&gt;Node4 -->
<g id="edge9" class="edge"><title>Node9&#45;&gt;Node4</title>
<path fill="none" stroke="midnightblue" d="M680.975,-56.4435C657.896,-47.4776 621.438,-33.314 595.359,-23.1827"/>
<polygon fill="midnightblue" stroke="midnightblue" points="596.511,-19.8753 585.922,-19.5164 593.976,-26.4002 596.511,-19.8753"/>
</g>
<!-- Node9&#45;&gt;Node5 -->
<g id="edge10" class="edge"><title>Node9&#45;&gt;Node5</title>
<path fill="none" stroke="midnightblue" d="M692.075,-56.324C681.825,-48.1849 666.279,-35.8395 653.999,-26.0874"/>
<polygon fill="midnightblue" stroke="midnightblue" points="656.132,-23.3119 646.124,-19.8339 651.779,-28.7937 656.132,-23.3119"/>
</g>
<!-- Node9&#45;&gt;Node6 -->
<g id="edge11" class="edge"><title>Node9&#45;&gt;Node6</title>
<path fill="none" stroke="midnightblue" d="M724.391,-56.4435C746.707,-47.5171 781.903,-33.4387 807.208,-23.3168"/>
<polygon fill="midnightblue" stroke="midnightblue" points="808.724,-26.4801 816.709,-19.5164 806.124,-19.9807 808.724,-26.4801"/>
</g>
<!-- Node10 -->
<g id="node10" class="node"><title>Node10</title>
<g id="a_node10"><a xlink:title=" ">
<polygon fill="white" stroke="#bfbfbf" points="680.5,-0.5 680.5,-19.5 793.5,-19.5 793.5,-0.5 680.5,-0.5"/>
<text text-anchor="middle" x="737" y="-7.5" font-family="Helvetica,sans-Serif" font-size="10.00">xstypes/xsbytearray.h</text>
</a>
</g>
</g>
<!-- Node9&#45;&gt;Node10 -->
<g id="edge12" class="edge"><title>Node9&#45;&gt;Node10</title>
<path fill="none" stroke="midnightblue" d="M708.614,-56.083C713.367,-48.5341 720.318,-37.4948 726.152,-28.2298"/>
<polygon fill="midnightblue" stroke="midnightblue" points="729.124,-30.0783 731.49,-19.7511 723.2,-26.3486 729.124,-30.0783"/>
</g>
<!-- Node11&#45;&gt;Node3 -->
<g id="edge14" class="edge"><title>Node11&#45;&gt;Node3</title>
<path fill="none" stroke="midnightblue" d="M126.01,-169.422C130.742,-168.918 135.445,-168.438 140,-168 342.057,-148.585 583.26,-132.604 686.295,-126.116"/>
<polygon fill="midnightblue" stroke="midnightblue" points="686.653,-129.601 696.414,-125.481 686.215,-122.614 686.653,-129.601"/>
</g>
<!-- Node12&#45;&gt;Node3 -->
<g id="edge16" class="edge"><title>Node12&#45;&gt;Node3</title>
<path fill="none" stroke="midnightblue" d="M286.222,-169.137C289.19,-168.74 292.132,-168.357 295,-168 436.481,-150.37 604.088,-134.738 686.331,-127.411"/>
<polygon fill="midnightblue" stroke="midnightblue" points="686.755,-130.887 696.406,-126.517 686.136,-123.915 686.755,-130.887"/>
</g>
<!-- Node13&#45;&gt;Node3 -->
<g id="edge18" class="edge"><title>Node13&#45;&gt;Node3</title>
<path fill="none" stroke="midnightblue" d="M406.058,-169.306C409.083,-168.861 412.081,-168.423 415,-168 510.78,-154.124 622.7,-138.65 686.177,-129.942"/>
<polygon fill="midnightblue" stroke="midnightblue" points="686.885,-133.378 696.317,-128.552 685.934,-126.443 686.885,-133.378"/>
</g>
<!-- Node14&#45;&gt;Node3 -->
<g id="edge21" class="edge"><title>Node14&#45;&gt;Node3</title>
<path fill="none" stroke="midnightblue" d="M517.356,-168.444C563.212,-158.956 637.198,-143.649 686.456,-133.457"/>
<polygon fill="midnightblue" stroke="midnightblue" points="687.183,-136.881 696.267,-131.428 685.765,-130.026 687.183,-136.881"/>
</g>
<!-- Node15&#45;&gt;Node3 -->
<g id="edge24" class="edge"><title>Node15&#45;&gt;Node3</title>
<path fill="none" stroke="midnightblue" d="M658.942,-168.324C673.585,-159.822 696.134,-146.729 713.238,-136.797"/>
<polygon fill="midnightblue" stroke="midnightblue" points="715.205,-139.703 722.095,-131.655 711.69,-133.649 715.205,-139.703"/>
</g>
<!-- Node16&#45;&gt;Node3 -->
<g id="edge26" class="edge"><title>Node16&#45;&gt;Node3</title>
<path fill="none" stroke="midnightblue" d="M815.897,-168.324C801.097,-159.822 778.306,-146.729 761.018,-136.797"/>
<polygon fill="midnightblue" stroke="midnightblue" points="762.48,-133.601 752.065,-131.655 758.993,-139.671 762.48,-133.601"/>
</g>
<!-- Node17&#45;&gt;Node3 -->
<g id="edge28" class="edge"><title>Node17&#45;&gt;Node3</title>
<path fill="none" stroke="midnightblue" d="M687.101,-225.078C769.462,-214.591 902.777,-196.444 910,-188 946.698,-145.1 851.222,-130.466 787.928,-125.508"/>
<polygon fill="midnightblue" stroke="midnightblue" points="787.911,-121.998 777.684,-124.767 787.406,-128.979 787.911,-121.998"/>
</g>
<!-- Node18&#45;&gt;Node3 -->
<g id="edge30" class="edge"><title>Node18&#45;&gt;Node3</title>
<path fill="none" stroke="midnightblue" d="M870.348,-224.488C917.946,-215.793 967.969,-199.013 943,-168 923.913,-144.293 842.709,-132.398 788.136,-126.972"/>
<polygon fill="midnightblue" stroke="midnightblue" points="788.227,-123.465 777.94,-126.002 787.564,-130.433 788.227,-123.465"/>
</g>
<!-- Node19&#45;&gt;Node3 -->
<g id="edge32" class="edge"><title>Node19&#45;&gt;Node3</title>
<path fill="none" stroke="midnightblue" d="M971.674,-224.09C973.73,-210.166 975.366,-183.265 961,-168 937.856,-143.407 846.399,-131.621 787.744,-126.485"/>
<polygon fill="midnightblue" stroke="midnightblue" points="787.813,-122.979 777.556,-125.631 787.228,-129.955 787.813,-122.979"/>
</g>
<!-- Node20&#45;&gt;Node3 -->
<g id="edge34" class="edge"><title>Node20&#45;&gt;Node3</title>
<path fill="none" stroke="midnightblue" d="M1092.72,-224.394C1070.52,-210.398 1024.03,-182.783 981,-168 916.209,-145.739 837.747,-133.769 787.607,-127.896"/>
<polygon fill="midnightblue" stroke="midnightblue" points="787.992,-124.417 777.661,-126.767 787.203,-131.372 787.992,-124.417"/>
</g>
<!-- Node21&#45;&gt;Node3 -->
<g id="edge36" class="edge"><title>Node21&#45;&gt;Node3</title>
<path fill="none" stroke="midnightblue" d="M1235.56,-224.45C1190.12,-211.02 1098.21,-184.783 1019,-168 938.868,-151.022 844.71,-137.215 788.007,-129.558"/>
<polygon fill="midnightblue" stroke="midnightblue" points="788.242,-126.059 777.866,-128.201 787.314,-132.997 788.242,-126.059"/>
</g>
</g>
</svg>
        <g id="navigator" transform="translate(0 0)" fill="#404254">
                <rect fill="#f2f5e9" fill-opacity="0.5" stroke="#606060" stroke-width=".5" x="0" y="0" width="60" height="60"/>
                <use id="zoomplus" xlink:href="#zoomPlus" x="17" y="9" onmousedown="handleZoom(evt,'in')"/>
                <use id="zoomminus" xlink:href="#zoomMin" x="42" y="9" onmousedown="handleZoom(evt,'out')"/>
                <use id="reset" xlink:href="#resetDef" x="30" y="36" onmousedown="handleReset()"/>
                <g id="arrowUp" xlink:href="#dirArrow" transform="translate(30 24)" onmousedown="handlePan(0,-1)">
                  <use xlink:href="#rim" fill="#404040">
                        <set attributeName="fill" to="#808080" begin="arrowUp.mouseover" end="arrowUp.mouseout"/>
                  </use>
                  <path fill="none" stroke="white" stroke-width="1.5" d="M0,-3.0v7 M-2.5,-0.5L0,-3.0L2.5,-0.5"/>
                </g>
                <g id="arrowRight" xlink:href="#dirArrow" transform="rotate(90) translate(36 -43)" onmousedown="handlePan(1,0)">
                  <use xlink:href="#rim" fill="#404040">
                        <set attributeName="fill" to="#808080" begin="arrowRight.mouseover" end="arrowRight.mouseout"/>
                  </use>
                  <path fill="none" stroke="white" stroke-width="1.5" d="M0,-3.0v7 M-2.5,-0.5L0,-3.0L2.5,-0.5"/>
                </g>
                <g id="arrowDown" xlink:href="#dirArrow" transform="rotate(180) translate(-30 -48)" onmousedown="handlePan(0,1)">
                  <use xlink:href="#rim" fill="#404040">
                        <set attributeName="fill" to="#808080" begin="arrowDown.mouseover" end="arrowDown.mouseout"/>
                  </use>
                  <path fill="none" stroke="white" stroke-width="1.5" d="M0,-3.0v7 M-2.5,-0.5L0,-3.0L2.5,-0.5"/>
                </g>
                <g id="arrowLeft" xlink:href="#dirArrow" transform="rotate(270) translate(-36 17)" onmousedown="handlePan(-1,0)">
                  <use xlink:href="#rim" fill="#404040">
                        <set attributeName="fill" to="#808080" begin="arrowLeft.mouseover" end="arrowLeft.mouseout"/>
                  </use>
                  <path fill="none" stroke="white" stroke-width="1.5" d="M0,-3.0v7 M-2.5,-0.5L0,-3.0L2.5,-0.5"/>
                </g>
        </g>
        <svg viewBox="0 0 15 15" width="100%" height="30px" preserveAspectRatio="xMaxYMin meet">
         <g id="arrow_out" transform="scale(0.3 0.3)">
          <a xlink:href="xs__parsermanager_8cpp__incl_org.svg" target="_base">
           <rect id="button" ry="5" rx="5" y="6" x="6" height="38" width="38"
                fill="#f2f5e9" fill-opacity="0.5" stroke="#606060" stroke-width="1.0"/>
           <path id="arrow"
             d="M 11.500037,31.436501 C 11.940474,20.09759 22.043105,11.32322 32.158766,21.979434 L 37.068811,17.246167 C 37.068811,17.246167 37.088388,32 37.088388,32 L 22.160133,31.978069 C 22.160133,31.978069 26.997745,27.140456 26.997745,27.140456 C 18.528582,18.264221 13.291696,25.230495 11.500037,31.436501 z"
             style="fill:#404040;"/>
          </a>
         </g>
        </svg>
</svg>
