<?xml version="1.0" encoding="UTF-8" standalone="no"?>
<!DOCTYPE svg PUBLIC "-//W3C//DTD SVG 1.1//EN"
 "http://www.w3.org/Graphics/SVG/1.1/DTD/svg11.dtd">
<!-- Generated by graphviz version 2.38.0 (20140413.2041)
 -->
<!-- Title: mmhPlayer Pages: 1 -->
<!--zoomable 1085 -->
<svg id="main" version="1.1" xmlns="http://www.w3.org/2000/svg" xmlns:xlink="http://www.w3.org/1999/xlink" xml:space="preserve" onload="init(evt)">
<style type="text/css"><![CDATA[
.edge:hover path { stroke: red; }
.edge:hover polygon { stroke: red; fill: red; }
]]></style>
<script type="text/javascript"><![CDATA[
var edges = document.getElementsByTagName('g');
if (edges && edges.length) {
  for (var i=0;i<edges.length;i++) {
    if (edges[i].id.substr(0,4)=='edge') {
      edges[i].setAttribute('class','edge');
    }
  }
}
]]></script>
        <defs>
                <circle id="rim" cx="0" cy="0" r="7"/>
                <circle id="rim2" cx="0" cy="0" r="3.5"/>
                <g id="zoomPlus">
                        <use xlink:href="#rim" fill="#404040">
                                <set attributeName="fill" to="#808080" begin="zoomplus.mouseover" end="zoomplus.mouseout"/>
                        </use>
                        <path d="M-4,0h8M0,-4v8" fill="none" stroke="white" stroke-width="1.5" pointer-events="none"/>
                </g>
                <g id="zoomMin">
                        <use xlink:href="#rim" fill="#404040">
                                <set attributeName="fill" to="#808080" begin="zoomminus.mouseover" end="zoomminus.mouseout"/>
                        </use>
                        <path d="M-4,0h8" fill="none" stroke="white" stroke-width="1.5" pointer-events="none"/>
                </g>
                <g id="dirArrow">
                        <path fill="none" stroke="white" stroke-width="1.5" d="M0,-3.0v7 M-2.5,-0.5L0,-3.0L2.5,-0.5"/>
                </g>
               <g id="resetDef">
                       <use xlink:href="#rim2" fill="#404040">
                               <set attributeName="fill" to="#808080" begin="reset.mouseover" end="reset.mouseout"/>
                       </use>
               </g>
        </defs>

<script type="text/javascript">
var viewWidth = 606;
var viewHeight = 1085;
var sectionId = 'dynsection-1';
</script>
<script xlink:href="../../svgpan.js"/>
<svg id="graph" class="graph">
<g id="viewport">
<title>mmhPlayer</title>
<polygon fill="white" stroke="none" points="-4,4 -4,-1081 602,-1081 602,4 -4,4"/>
<!-- Node1 -->
<g id="node1" class="node"><title>Node1</title>
<g id="a_node1"><a xlink:title=" ">
<polygon fill="#bfbfbf" stroke="black" points="315,-0.5 315,-244.5 446,-244.5 446,-0.5 315,-0.5"/>
<text text-anchor="middle" x="380.5" y="-232.5" font-family="Helvetica,sans-Serif" font-size="10.00">mmhPlayer</text>
<polyline fill="none" stroke="black" points="315,-225.5 446,-225.5 "/>
<text text-anchor="start" x="323" y="-213.5" font-family="Helvetica,sans-Serif" font-size="10.00">&#45; m_timelineDragging</text>
<text text-anchor="start" x="323" y="-202.5" font-family="Helvetica,sans-Serif" font-size="10.00">&#45; m_currFrameIdx</text>
<text text-anchor="start" x="323" y="-191.5" font-family="Helvetica,sans-Serif" font-size="10.00">&#45; m_frameCount</text>
<text text-anchor="start" x="323" y="-180.5" font-family="Helvetica,sans-Serif" font-size="10.00">&#45; m_nameTranslationTable</text>
<text text-anchor="start" x="323" y="-169.5" font-family="Helvetica,sans-Serif" font-size="10.00">&#45; m_filePath</text>
<polyline fill="none" stroke="black" points="315,-162.5 446,-162.5 "/>
<text text-anchor="start" x="323" y="-150.5" font-family="Helvetica,sans-Serif" font-size="10.00">+ mmhPlayer()</text>
<text text-anchor="start" x="323" y="-139.5" font-family="Helvetica,sans-Serif" font-size="10.00">+ start()</text>
<text text-anchor="start" x="323" y="-128.5" font-family="Helvetica,sans-Serif" font-size="10.00">+ stop()</text>
<text text-anchor="start" x="323" y="-117.5" font-family="Helvetica,sans-Serif" font-size="10.00">+ getTrackerType()</text>
<text text-anchor="start" x="323" y="-106.5" font-family="Helvetica,sans-Serif" font-size="10.00">+ controlTime()</text>
<text text-anchor="start" x="323" y="-95.5" font-family="Helvetica,sans-Serif" font-size="10.00">+ setCurrentFrame()</text>
<text text-anchor="start" x="323" y="-84.5" font-family="Helvetica,sans-Serif" font-size="10.00">+ getTotalTime()</text>
<text text-anchor="start" x="323" y="-73.5" font-family="Helvetica,sans-Serif" font-size="10.00">+ getCurrFrameIdx()</text>
<text text-anchor="start" x="323" y="-62.5" font-family="Helvetica,sans-Serif" font-size="10.00">+ getFrameCount()</text>
<text text-anchor="start" x="323" y="-51.5" font-family="Helvetica,sans-Serif" font-size="10.00">+ applyModChange()</text>
<text text-anchor="start" x="323" y="-40.5" font-family="Helvetica,sans-Serif" font-size="10.00">&#45; init()</text>
<text text-anchor="start" x="323" y="-29.5" font-family="Helvetica,sans-Serif" font-size="10.00">&#45; update()</text>
<text text-anchor="start" x="323" y="-18.5" font-family="Helvetica,sans-Serif" font-size="10.00">&#45; track()</text>
<text text-anchor="start" x="323" y="-7.5" font-family="Helvetica,sans-Serif" font-size="10.00">&#45; convertJointRotation()</text>
</a>
</g>
</g>
<!-- Node2 -->
<g id="node2" class="node"><title>Node2</title>
<g id="a_node2"><a xlink:href="../../de/dbb/class_tracker.html" target="_top" xlink:title="Prototype class for implemetation &#45; holds virtual methods.">
<polygon fill="white" stroke="black" points="101.5,-292.5 101.5,-613.5 251.5,-613.5 251.5,-292.5 101.5,-292.5"/>
<text text-anchor="middle" x="176.5" y="-601.5" font-family="Helvetica,sans-Serif" font-size="10.00">Tracker</text>
<polyline fill="none" stroke="black" points="101.5,-594.5 251.5,-594.5 "/>
<text text-anchor="start" x="109.5" y="-582.5" font-family="Helvetica,sans-Serif" font-size="10.00"># m_isTracking</text>
<text text-anchor="start" x="109.5" y="-571.5" font-family="Helvetica,sans-Serif" font-size="10.00"># m_isEnabled</text>
<text text-anchor="start" x="109.5" y="-560.5" font-family="Helvetica,sans-Serif" font-size="10.00"># m_countDetectedSkeleton</text>
<text text-anchor="start" x="109.5" y="-549.5" font-family="Helvetica,sans-Serif" font-size="10.00"># m_offsetMatrix</text>
<text text-anchor="start" x="109.5" y="-538.5" font-family="Helvetica,sans-Serif" font-size="10.00"># m_rotationOffset</text>
<text text-anchor="start" x="109.5" y="-527.5" font-family="Helvetica,sans-Serif" font-size="10.00"># m_isDataAvailable</text>
<text text-anchor="start" x="109.5" y="-516.5" font-family="Helvetica,sans-Serif" font-size="10.00"># m_hasSkeletonPoolChanged</text>
<text text-anchor="start" x="109.5" y="-505.5" font-family="Helvetica,sans-Serif" font-size="10.00"># m_trackingThread</text>
<text text-anchor="start" x="109.5" y="-494.5" font-family="Helvetica,sans-Serif" font-size="10.00"># m_skeletonPool</text>
<text text-anchor="start" x="109.5" y="-483.5" font-family="Helvetica,sans-Serif" font-size="10.00"># m_skeletonPoolCache</text>
<text text-anchor="start" x="109.5" y="-472.5" font-family="Helvetica,sans-Serif" font-size="10.00">and 6 more...</text>
<polyline fill="none" stroke="black" points="101.5,-465.5 251.5,-465.5 "/>
<text text-anchor="start" x="109.5" y="-453.5" font-family="Helvetica,sans-Serif" font-size="10.00">+ Tracker()</text>
<text text-anchor="start" x="109.5" y="-442.5" font-family="Helvetica,sans-Serif" font-size="10.00">+ ~Tracker()</text>
<text text-anchor="start" x="109.5" y="-431.5" font-family="Helvetica,sans-Serif" font-size="10.00">+ start()</text>
<text text-anchor="start" x="109.5" y="-420.5" font-family="Helvetica,sans-Serif" font-size="10.00">+ stop()</text>
<text text-anchor="start" x="109.5" y="-409.5" font-family="Helvetica,sans-Serif" font-size="10.00">+ disable()</text>
<text text-anchor="start" x="109.5" y="-398.5" font-family="Helvetica,sans-Serif" font-size="10.00">+ enable()</text>
<text text-anchor="start" x="109.5" y="-387.5" font-family="Helvetica,sans-Serif" font-size="10.00">+ clean()</text>
<text text-anchor="start" x="109.5" y="-376.5" font-family="Helvetica,sans-Serif" font-size="10.00">+ isTracking()</text>
<text text-anchor="start" x="109.5" y="-365.5" font-family="Helvetica,sans-Serif" font-size="10.00">+ isEnabled()</text>
<text text-anchor="start" x="109.5" y="-354.5" font-family="Helvetica,sans-Serif" font-size="10.00">+ isDataAvailable()</text>
<text text-anchor="start" x="109.5" y="-343.5" font-family="Helvetica,sans-Serif" font-size="10.00">and 23 more...</text>
<text text-anchor="start" x="109.5" y="-332.5" font-family="Helvetica,sans-Serif" font-size="10.00"># getTrackerIdentifier()</text>
<text text-anchor="start" x="109.5" y="-321.5" font-family="Helvetica,sans-Serif" font-size="10.00"># readOffsetFromConfig()</text>
<text text-anchor="start" x="109.5" y="-310.5" font-family="Helvetica,sans-Serif" font-size="10.00"># update()</text>
<text text-anchor="start" x="109.5" y="-299.5" font-family="Helvetica,sans-Serif" font-size="10.00"># track()</text>
</a>
</g>
</g>
<!-- Node2&#45;&gt;Node1 -->
<g id="edge1" class="edge"><title>Node2&#45;&gt;Node1</title>
<path fill="none" stroke="midnightblue" d="M256.897,-297.917C258.097,-295.928 259.299,-293.954 260.5,-292 277.144,-264.923 296.621,-236.429 314.984,-210.735"/>
<polygon fill="none" stroke="midnightblue" points="253.755,-296.354 251.645,-306.736 259.769,-299.936 253.755,-296.354"/>
</g>
<!-- Node3 -->
<g id="node3" class="node"><title>Node3</title>
<g id="a_node3"><a xlink:href="../../d4/daf/class_config_manager.html" target="_top" xlink:title=" ">
<polygon fill="white" stroke="black" points="0,-832.5 0,-1076.5 119,-1076.5 119,-832.5 0,-832.5"/>
<text text-anchor="middle" x="59.5" y="-1064.5" font-family="Helvetica,sans-Serif" font-size="10.00">ConfigManager</text>
<polyline fill="none" stroke="black" points="0,-1057.5 119,-1057.5 "/>
<text text-anchor="start" x="8" y="-1045.5" font-family="Helvetica,sans-Serif" font-size="10.00">&#45; m_config</text>
<polyline fill="none" stroke="black" points="0,-1038.5 119,-1038.5 "/>
<text text-anchor="start" x="8" y="-1026.5" font-family="Helvetica,sans-Serif" font-size="10.00">+ readString()</text>
<text text-anchor="start" x="8" y="-1015.5" font-family="Helvetica,sans-Serif" font-size="10.00">+ readBool()</text>
<text text-anchor="start" x="8" y="-1004.5" font-family="Helvetica,sans-Serif" font-size="10.00">+ readInt()</text>
<text text-anchor="start" x="8" y="-993.5" font-family="Helvetica,sans-Serif" font-size="10.00">+ readFloat()</text>
<text text-anchor="start" x="8" y="-982.5" font-family="Helvetica,sans-Serif" font-size="10.00">+ readVec3f()</text>
<text text-anchor="start" x="8" y="-971.5" font-family="Helvetica,sans-Serif" font-size="10.00">+ readVec4f()</text>
<text text-anchor="start" x="8" y="-960.5" font-family="Helvetica,sans-Serif" font-size="10.00">+ writeString()</text>
<text text-anchor="start" x="8" y="-949.5" font-family="Helvetica,sans-Serif" font-size="10.00">+ writeBool()</text>
<text text-anchor="start" x="8" y="-938.5" font-family="Helvetica,sans-Serif" font-size="10.00">+ writeInt()</text>
<text text-anchor="start" x="8" y="-927.5" font-family="Helvetica,sans-Serif" font-size="10.00">+ writeFloat()</text>
<text text-anchor="start" x="8" y="-916.5" font-family="Helvetica,sans-Serif" font-size="10.00">+ writeVec3f()</text>
<text text-anchor="start" x="8" y="-905.5" font-family="Helvetica,sans-Serif" font-size="10.00">+ writeVec4f()</text>
<text text-anchor="start" x="8" y="-894.5" font-family="Helvetica,sans-Serif" font-size="10.00">+ write()</text>
<text text-anchor="start" x="8" y="-883.5" font-family="Helvetica,sans-Serif" font-size="10.00">&#45; isLoaded()</text>
<text text-anchor="start" x="8" y="-872.5" font-family="Helvetica,sans-Serif" font-size="10.00">&#45; loadConfig()</text>
<text text-anchor="start" x="8" y="-861.5" font-family="Helvetica,sans-Serif" font-size="10.00">&#45; saveConfig()</text>
<text text-anchor="start" x="8" y="-850.5" font-family="Helvetica,sans-Serif" font-size="10.00">&#45; findElement()</text>
<text text-anchor="start" x="8" y="-839.5" font-family="Helvetica,sans-Serif" font-size="10.00">&#45; findOrCreateElement()</text>
</a>
</g>
</g>
<!-- Node3&#45;&gt;Node2 -->
<g id="edge2" class="edge"><title>Node3&#45;&gt;Node2</title>
<path fill="none" stroke="#404040" d="M17.8809,-832.33C5.7075,-778.755 0.0266269,-715.65 18.5,-661 33.9165,-615.394 63.8447,-571.913 93.5449,-536.68"/>
<polygon fill="none" stroke="#404040" points="93.6684,-536.536 94.5465,-529.379 101.491,-527.437 100.613,-534.594 93.6684,-536.536"/>
<text text-anchor="middle" x="61" y="-720.5" font-family="Helvetica,sans-Serif" font-size="10.00"> #m_configManager</text>
</g>
<!-- Node4 -->
<g id="node4" class="node"><title>Node4</title>
<g id="a_node4"><a xlink:href="../../da/d21/class_network_manager.html" target="_top" xlink:title="Manager for different Network Sender and skeleton sending.">
<polygon fill="white" stroke="black" points="112.5,-661.5 112.5,-784.5 240.5,-784.5 240.5,-661.5 112.5,-661.5"/>
<text text-anchor="middle" x="176.5" y="-772.5" font-family="Helvetica,sans-Serif" font-size="10.00">NetworkManager</text>
<polyline fill="none" stroke="black" points="112.5,-765.5 240.5,-765.5 "/>
<text text-anchor="start" x="120.5" y="-753.5" font-family="Helvetica,sans-Serif" font-size="10.00">+ m_ipAddress</text>
<text text-anchor="start" x="120.5" y="-742.5" font-family="Helvetica,sans-Serif" font-size="10.00">&#45; m_poolSender</text>
<polyline fill="none" stroke="black" points="112.5,-735.5 240.5,-735.5 "/>
<text text-anchor="start" x="120.5" y="-723.5" font-family="Helvetica,sans-Serif" font-size="10.00">+ NetworkManager()</text>
<text text-anchor="start" x="120.5" y="-712.5" font-family="Helvetica,sans-Serif" font-size="10.00">+ sendSkeletonPool()</text>
<text text-anchor="start" x="120.5" y="-701.5" font-family="Helvetica,sans-Serif" font-size="10.00">+ createOSCSender()</text>
<text text-anchor="start" x="120.5" y="-690.5" font-family="Helvetica,sans-Serif" font-size="10.00">+ removeNetworkSender()</text>
<text text-anchor="start" x="120.5" y="-679.5" font-family="Helvetica,sans-Serif" font-size="10.00">+ setIPAddress()</text>
<text text-anchor="start" x="120.5" y="-668.5" font-family="Helvetica,sans-Serif" font-size="10.00">+ isValidIPAddress()</text>
</a>
</g>
</g>
<!-- Node3&#45;&gt;Node4 -->
<g id="edge4" class="edge"><title>Node3&#45;&gt;Node4</title>
<path fill="none" stroke="#404040" d="M119.028,-836.733C126.217,-822.632 133.385,-808.572 140.098,-795.404"/>
<polygon fill="none" stroke="#404040" points="140.17,-795.263 139.332,-788.1 145.62,-784.572 146.459,-791.734 140.17,-795.263"/>
<text text-anchor="middle" x="177" y="-806" font-family="Helvetica,sans-Serif" font-size="10.00"> &#45;m_configManager</text>
</g>
<!-- Node4&#45;&gt;Node2 -->
<g id="edge3" class="edge"><title>Node4&#45;&gt;Node2</title>
<path fill="none" stroke="#404040" d="M176.5,-661.187C176.5,-650.127 176.5,-638.108 176.5,-625.614"/>
<polygon fill="none" stroke="#404040" points="176.5,-625.506 172.5,-619.506 176.5,-613.506 180.5,-619.506 176.5,-625.506"/>
<text text-anchor="middle" x="223.5" y="-635" font-family="Helvetica,sans-Serif" font-size="10.00"> #m_networkManager</text>
</g>
<!-- Node5 -->
<g id="node5" class="node"><title>Node5</title>
<g id="a_node5"><a xlink:href="../../d4/d92/struct_tracker_1_1_properties.html" target="_top" xlink:title=" ">
<polygon fill="white" stroke="black" points="259,-667 259,-779 370,-779 370,-667 259,-667"/>
<text text-anchor="middle" x="314.5" y="-767" font-family="Helvetica,sans-Serif" font-size="10.00">Tracker::Properties</text>
<polyline fill="none" stroke="black" points="259,-760 370,-760 "/>
<text text-anchor="start" x="267" y="-748" font-family="Helvetica,sans-Serif" font-size="10.00">+ id</text>
<text text-anchor="start" x="267" y="-737" font-family="Helvetica,sans-Serif" font-size="10.00">+ name</text>
<text text-anchor="start" x="267" y="-726" font-family="Helvetica,sans-Serif" font-size="10.00">+ positionOffset</text>
<text text-anchor="start" x="267" y="-715" font-family="Helvetica,sans-Serif" font-size="10.00">+ rotationOffset</text>
<text text-anchor="start" x="267" y="-704" font-family="Helvetica,sans-Serif" font-size="10.00">+ scaleOffset</text>
<text text-anchor="start" x="267" y="-693" font-family="Helvetica,sans-Serif" font-size="10.00">+ additionalProperties</text>
<polyline fill="none" stroke="black" points="259,-686 370,-686 "/>
<text text-anchor="start" x="267" y="-674" font-family="Helvetica,sans-Serif" font-size="10.00">+ ~Properties()</text>
</a>
</g>
</g>
<!-- Node5&#45;&gt;Node2 -->
<g id="edge5" class="edge"><title>Node5&#45;&gt;Node2</title>
<path fill="none" stroke="#404040" d="M292.453,-666.672C287.086,-654.955 281.001,-642.855 274.5,-632 269.292,-623.305 265.988,-622.52 260.5,-614 259.664,-612.702 258.829,-611.394 257.995,-610.079"/>
<polygon fill="none" stroke="#404040" points="257.967,-610.034 251.403,-607.048 251.634,-599.841 258.198,-602.826 257.967,-610.034"/>
<text text-anchor="middle" x="313" y="-635" font-family="Helvetica,sans-Serif" font-size="10.00"> #m_properties</text>
</g>
<!-- Node6 -->
<g id="node6" class="node"><title>Node6</title>
<g id="a_node6"><a xlink:href="../../d0/d86/class_recording_session.html" target="_top" xlink:title=" ">
<polygon fill="white" stroke="black" points="269.5,-369.5 269.5,-536.5 379.5,-536.5 379.5,-369.5 269.5,-369.5"/>
<text text-anchor="middle" x="324.5" y="-524.5" font-family="Helvetica,sans-Serif" font-size="10.00">RecordingSession</text>
<polyline fill="none" stroke="black" points="269.5,-517.5 379.5,-517.5 "/>
<text text-anchor="start" x="277.5" y="-505.5" font-family="Helvetica,sans-Serif" font-size="10.00">+ RECORD_PATH</text>
<text text-anchor="start" x="277.5" y="-494.5" font-family="Helvetica,sans-Serif" font-size="10.00">&#45; m_frames</text>
<text text-anchor="start" x="277.5" y="-483.5" font-family="Helvetica,sans-Serif" font-size="10.00">&#45; m_totalTime</text>
<polyline fill="none" stroke="black" points="269.5,-476.5 379.5,-476.5 "/>
<text text-anchor="start" x="277.5" y="-464.5" font-family="Helvetica,sans-Serif" font-size="10.00">+ RecordingSession()</text>
<text text-anchor="start" x="277.5" y="-453.5" font-family="Helvetica,sans-Serif" font-size="10.00">+ addFrame()</text>
<text text-anchor="start" x="277.5" y="-442.5" font-family="Helvetica,sans-Serif" font-size="10.00">+ save()</text>
<text text-anchor="start" x="277.5" y="-431.5" font-family="Helvetica,sans-Serif" font-size="10.00">+ saveBVH()</text>
<text text-anchor="start" x="277.5" y="-420.5" font-family="Helvetica,sans-Serif" font-size="10.00">+ load()</text>
<text text-anchor="start" x="277.5" y="-409.5" font-family="Helvetica,sans-Serif" font-size="10.00">+ loadBVH()</text>
<text text-anchor="start" x="277.5" y="-398.5" font-family="Helvetica,sans-Serif" font-size="10.00">+ getFrameCount()</text>
<text text-anchor="start" x="277.5" y="-387.5" font-family="Helvetica,sans-Serif" font-size="10.00">+ getFrame()</text>
<text text-anchor="start" x="277.5" y="-376.5" font-family="Helvetica,sans-Serif" font-size="10.00">+ getTotalTime()</text>
</a>
</g>
</g>
<!-- Node6&#45;&gt;Node1 -->
<g id="edge6" class="edge"><title>Node6&#45;&gt;Node1</title>
<path fill="none" stroke="#404040" d="M338.631,-369.106C344.435,-335.061 351.302,-294.779 357.778,-256.789"/>
<polygon fill="none" stroke="#404040" points="357.848,-256.375 354.914,-249.788 359.865,-244.546 362.8,-251.132 357.848,-256.375"/>
<text text-anchor="middle" x="383.5" y="-266" font-family="Helvetica,sans-Serif" font-size="10.00"> &#45;m_session</text>
</g>
<!-- Node7 -->
<g id="node7" class="node"><title>Node7</title>
<g id="a_node7"><a xlink:href="../../d7/d08/class_skeleton.html" target="_top" xlink:title="Default Skeleton with all Joint poses.">
<polygon fill="white" stroke="black" points="398,-369.5 398,-536.5 477,-536.5 477,-369.5 398,-369.5"/>
<text text-anchor="middle" x="437.5" y="-524.5" font-family="Helvetica,sans-Serif" font-size="10.00">Skeleton</text>
<polyline fill="none" stroke="black" points="398,-517.5 477,-517.5 "/>
<text text-anchor="start" x="406" y="-505.5" font-family="Helvetica,sans-Serif" font-size="10.00">+ m_joints</text>
<text text-anchor="start" x="406" y="-494.5" font-family="Helvetica,sans-Serif" font-size="10.00">&#45; m_sid</text>
<text text-anchor="start" x="406" y="-483.5" font-family="Helvetica,sans-Serif" font-size="10.00">&#45; m_state</text>
<text text-anchor="start" x="406" y="-472.5" font-family="Helvetica,sans-Serif" font-size="10.00">&#45; m_posture</text>
<text text-anchor="start" x="406" y="-461.5" font-family="Helvetica,sans-Serif" font-size="10.00">&#45; m_height</text>
<polyline fill="none" stroke="black" points="398,-454.5 477,-454.5 "/>
<text text-anchor="start" x="406" y="-442.5" font-family="Helvetica,sans-Serif" font-size="10.00">+ Skeleton()</text>
<text text-anchor="start" x="406" y="-431.5" font-family="Helvetica,sans-Serif" font-size="10.00">+ Skeleton()</text>
<text text-anchor="start" x="406" y="-420.5" font-family="Helvetica,sans-Serif" font-size="10.00">+ getSid()</text>
<text text-anchor="start" x="406" y="-409.5" font-family="Helvetica,sans-Serif" font-size="10.00">+ getPosture()</text>
<text text-anchor="start" x="406" y="-398.5" font-family="Helvetica,sans-Serif" font-size="10.00">+ setPosture()</text>
<text text-anchor="start" x="406" y="-387.5" font-family="Helvetica,sans-Serif" font-size="10.00">+ getHeight()</text>
<text text-anchor="start" x="406" y="-376.5" font-family="Helvetica,sans-Serif" font-size="10.00">+ setHeight()</text>
</a>
</g>
</g>
<!-- Node7&#45;&gt;Node1 -->
<g id="edge7" class="edge"><title>Node7&#45;&gt;Node1</title>
<path fill="none" stroke="#404040" d="M429.581,-369.349C425.845,-336.161 420.805,-297.634 414.5,-263 414.107,-260.841 413.701,-258.665 413.283,-256.476"/>
<polygon fill="none" stroke="#404040" points="413.276,-256.442 408.185,-251.334 410.942,-244.671 416.032,-249.778 413.276,-256.442"/>
<text text-anchor="middle" x="454" y="-266" font-family="Helvetica,sans-Serif" font-size="10.00"> &#45;m_currSkeleton</text>
</g>
<!-- Node8 -->
<g id="node8" class="node"><title>Node8</title>
<g id="a_node8"><a xlink:href="../../d6/d1e/class_recording_frame.html" target="_top" xlink:title=" ">
<polygon fill="white" stroke="black" points="495,-413.5 495,-492.5 598,-492.5 598,-413.5 495,-413.5"/>
<text text-anchor="middle" x="546.5" y="-480.5" font-family="Helvetica,sans-Serif" font-size="10.00">RecordingFrame</text>
<polyline fill="none" stroke="black" points="495,-473.5 598,-473.5 "/>
<text text-anchor="start" x="503" y="-461.5" font-family="Helvetica,sans-Serif" font-size="10.00">+ m_skeletons</text>
<text text-anchor="start" x="503" y="-450.5" font-family="Helvetica,sans-Serif" font-size="10.00">+ m_duration</text>
<polyline fill="none" stroke="black" points="495,-443.5 598,-443.5 "/>
<text text-anchor="start" x="503" y="-431.5" font-family="Helvetica,sans-Serif" font-size="10.00">+ RecordingFrame()</text>
<text text-anchor="start" x="503" y="-420.5" font-family="Helvetica,sans-Serif" font-size="10.00">+ addSkeleton()</text>
</a>
</g>
</g>
<!-- Node8&#45;&gt;Node1 -->
<g id="edge8" class="edge"><title>Node8&#45;&gt;Node1</title>
<path fill="none" stroke="#404040" d="M541.011,-413.323C534.299,-373.841 520.597,-311.623 495.5,-263 484.303,-241.308 469.296,-219.921 453.826,-200.656"/>
<polygon fill="none" stroke="#404040" points="453.823,-200.652 446.925,-198.552 446.21,-191.377 453.109,-193.477 453.823,-200.652"/>
<text text-anchor="middle" x="532.5" y="-266" font-family="Helvetica,sans-Serif" font-size="10.00"> &#45;m_currFrame</text>
</g>
</g>
</svg>
        <g id="navigator" transform="translate(0 0)" fill="#404254">
                <rect fill="#f2f5e9" fill-opacity="0.5" stroke="#606060" stroke-width=".5" x="0" y="0" width="60" height="60"/>
                <use id="zoomplus" xlink:href="#zoomPlus" x="17" y="9" onmousedown="handleZoom(evt,'in')"/>
                <use id="zoomminus" xlink:href="#zoomMin" x="42" y="9" onmousedown="handleZoom(evt,'out')"/>
                <use id="reset" xlink:href="#resetDef" x="30" y="36" onmousedown="handleReset()"/>
                <g id="arrowUp" xlink:href="#dirArrow" transform="translate(30 24)" onmousedown="handlePan(0,-1)">
                  <use xlink:href="#rim" fill="#404040">
                        <set attributeName="fill" to="#808080" begin="arrowUp.mouseover" end="arrowUp.mouseout"/>
                  </use>
                  <path fill="none" stroke="white" stroke-width="1.5" d="M0,-3.0v7 M-2.5,-0.5L0,-3.0L2.5,-0.5"/>
                </g>
                <g id="arrowRight" xlink:href="#dirArrow" transform="rotate(90) translate(36 -43)" onmousedown="handlePan(1,0)">
                  <use xlink:href="#rim" fill="#404040">
                        <set attributeName="fill" to="#808080" begin="arrowRight.mouseover" end="arrowRight.mouseout"/>
                  </use>
                  <path fill="none" stroke="white" stroke-width="1.5" d="M0,-3.0v7 M-2.5,-0.5L0,-3.0L2.5,-0.5"/>
                </g>
                <g id="arrowDown" xlink:href="#dirArrow" transform="rotate(180) translate(-30 -48)" onmousedown="handlePan(0,1)">
                  <use xlink:href="#rim" fill="#404040">
                        <set attributeName="fill" to="#808080" begin="arrowDown.mouseover" end="arrowDown.mouseout"/>
                  </use>
                  <path fill="none" stroke="white" stroke-width="1.5" d="M0,-3.0v7 M-2.5,-0.5L0,-3.0L2.5,-0.5"/>
                </g>
                <g id="arrowLeft" xlink:href="#dirArrow" transform="rotate(270) translate(-36 17)" onmousedown="handlePan(-1,0)">
                  <use xlink:href="#rim" fill="#404040">
                        <set attributeName="fill" to="#808080" begin="arrowLeft.mouseover" end="arrowLeft.mouseout"/>
                  </use>
                  <path fill="none" stroke="white" stroke-width="1.5" d="M0,-3.0v7 M-2.5,-0.5L0,-3.0L2.5,-0.5"/>
                </g>
        </g>
        <svg viewBox="0 0 15 15" width="100%" height="30px" preserveAspectRatio="xMaxYMin meet">
         <g id="arrow_out" transform="scale(0.3 0.3)">
          <a xlink:href="classmmh_player__coll__graph_org.svg" target="_base">
           <rect id="button" ry="5" rx="5" y="6" x="6" height="38" width="38"
                fill="#f2f5e9" fill-opacity="0.5" stroke="#606060" stroke-width="1.0"/>
           <path id="arrow"
             d="M 11.500037,31.436501 C 11.940474,20.09759 22.043105,11.32322 32.158766,21.979434 L 37.068811,17.246167 C 37.068811,17.246167 37.088388,32 37.088388,32 L 22.160133,31.978069 C 22.160133,31.978069 26.997745,27.140456 26.997745,27.140456 C 18.528582,18.264221 13.291696,25.230495 11.500037,31.436501 z"
             style="fill:#404040;"/>
          </a>
         </g>
        </svg>
</svg>
