<?xml version="1.0" encoding="UTF-8" standalone="no"?>
<!DOCTYPE svg PUBLIC "-//W3C//DTD SVG 1.1//EN"
 "http://www.w3.org/Graphics/SVG/1.1/DTD/svg11.dtd">
<!-- Generated by graphviz version 2.38.0 (20140413.2041)
 -->
<!-- Title: Datagram Pages: 1 -->
<!--zoomable 545 -->
<svg id="main" version="1.1" xmlns="http://www.w3.org/2000/svg" xmlns:xlink="http://www.w3.org/1999/xlink" xml:space="preserve" onload="init(evt)">
<style type="text/css"><![CDATA[
.edge:hover path { stroke: red; }
.edge:hover polygon { stroke: red; fill: red; }
]]></style>
<script type="text/javascript"><![CDATA[
var edges = document.getElementsByTagName('g');
if (edges && edges.length) {
  for (var i=0;i<edges.length;i++) {
    if (edges[i].id.substr(0,4)=='edge') {
      edges[i].setAttribute('class','edge');
    }
  }
}
]]></script>
        <defs>
                <circle id="rim" cx="0" cy="0" r="7"/>
                <circle id="rim2" cx="0" cy="0" r="3.5"/>
                <g id="zoomPlus">
                        <use xlink:href="#rim" fill="#404040">
                                <set attributeName="fill" to="#808080" begin="zoomplus.mouseover" end="zoomplus.mouseout"/>
                        </use>
                        <path d="M-4,0h8M0,-4v8" fill="none" stroke="white" stroke-width="1.5" pointer-events="none"/>
                </g>
                <g id="zoomMin">
                        <use xlink:href="#rim" fill="#404040">
                                <set attributeName="fill" to="#808080" begin="zoomminus.mouseover" end="zoomminus.mouseout"/>
                        </use>
                        <path d="M-4,0h8" fill="none" stroke="white" stroke-width="1.5" pointer-events="none"/>
                </g>
                <g id="dirArrow">
                        <path fill="none" stroke="white" stroke-width="1.5" d="M0,-3.0v7 M-2.5,-0.5L0,-3.0L2.5,-0.5"/>
                </g>
               <g id="resetDef">
                       <use xlink:href="#rim2" fill="#404040">
                               <set attributeName="fill" to="#808080" begin="reset.mouseover" end="reset.mouseout"/>
                       </use>
               </g>
        </defs>

<script type="text/javascript">
var viewWidth = 1655;
var viewHeight = 545;
var sectionId = 'dynsection-0';
</script>
<script xlink:href="../../svgpan.js"/>
<svg id="graph" class="graph">
<g id="viewport">
<title>Datagram</title>
<polygon fill="white" stroke="none" points="-4,4 -4,-541 1650.5,-541 1650.5,4 -4,4"/>
<!-- Node1 -->
<g id="node1" class="node"><title>Node1</title>
<g id="a_node1"><a xlink:title=" ">
<polygon fill="#bfbfbf" stroke="black" points="774.5,-204.5 774.5,-536.5 935.5,-536.5 935.5,-204.5 774.5,-204.5"/>
<text text-anchor="middle" x="855" y="-524.5" font-family="Helvetica,sans-Serif" font-size="10.00">Datagram</text>
<polyline fill="none" stroke="black" points="774.5,-517.5 935.5,-517.5 "/>
<text text-anchor="start" x="782.5" y="-505.5" font-family="Helvetica,sans-Serif" font-size="10.00"># EULERPOSITIONSCALE</text>
<text text-anchor="start" x="782.5" y="-494.5" font-family="Helvetica,sans-Serif" font-size="10.00">&#45; m_header</text>
<text text-anchor="start" x="782.5" y="-483.5" font-family="Helvetica,sans-Serif" font-size="10.00">&#45; m_sampleCounter</text>
<text text-anchor="start" x="782.5" y="-472.5" font-family="Helvetica,sans-Serif" font-size="10.00">&#45; m_frameTime</text>
<text text-anchor="start" x="782.5" y="-461.5" font-family="Helvetica,sans-Serif" font-size="10.00">&#45; m_avatarId</text>
<text text-anchor="start" x="782.5" y="-450.5" font-family="Helvetica,sans-Serif" font-size="10.00">&#45; m_dataCount</text>
<text text-anchor="start" x="782.5" y="-439.5" font-family="Helvetica,sans-Serif" font-size="10.00">&#45; m_dgramCounter</text>
<text text-anchor="start" x="782.5" y="-428.5" font-family="Helvetica,sans-Serif" font-size="10.00">&#45; m_bodySegmentCount</text>
<text text-anchor="start" x="782.5" y="-417.5" font-family="Helvetica,sans-Serif" font-size="10.00">&#45; m_propCount</text>
<text text-anchor="start" x="782.5" y="-406.5" font-family="Helvetica,sans-Serif" font-size="10.00">&#45; m_fingerTrackingSegmentCount</text>
<text text-anchor="start" x="782.5" y="-395.5" font-family="Helvetica,sans-Serif" font-size="10.00">&#45; m_dataSize</text>
<text text-anchor="start" x="782.5" y="-384.5" font-family="Helvetica,sans-Serif" font-size="10.00">&#45; m_packetsName</text>
<polyline fill="none" stroke="black" points="774.5,-377.5 935.5,-377.5 "/>
<text text-anchor="start" x="782.5" y="-365.5" font-family="Helvetica,sans-Serif" font-size="10.00">+ Datagram()</text>
<text text-anchor="start" x="782.5" y="-354.5" font-family="Helvetica,sans-Serif" font-size="10.00">+ ~Datagram()</text>
<text text-anchor="start" x="782.5" y="-343.5" font-family="Helvetica,sans-Serif" font-size="10.00">+ deserialize()</text>
<text text-anchor="start" x="782.5" y="-332.5" font-family="Helvetica,sans-Serif" font-size="10.00">+ setDataCount()</text>
<text text-anchor="start" x="782.5" y="-321.5" font-family="Helvetica,sans-Serif" font-size="10.00">+ setType()</text>
<text text-anchor="start" x="782.5" y="-310.5" font-family="Helvetica,sans-Serif" font-size="10.00">+ messageType()</text>
<text text-anchor="start" x="782.5" y="-299.5" font-family="Helvetica,sans-Serif" font-size="10.00">+ sampleCounter()</text>
<text text-anchor="start" x="782.5" y="-288.5" font-family="Helvetica,sans-Serif" font-size="10.00">+ frameTime()</text>
<text text-anchor="start" x="782.5" y="-277.5" font-family="Helvetica,sans-Serif" font-size="10.00">+ avatarId()</text>
<text text-anchor="start" x="782.5" y="-266.5" font-family="Helvetica,sans-Serif" font-size="10.00">+ dataCount()</text>
<text text-anchor="start" x="782.5" y="-255.5" font-family="Helvetica,sans-Serif" font-size="10.00">and 8 more...</text>
<text text-anchor="start" x="782.5" y="-244.5" font-family="Helvetica,sans-Serif" font-size="10.00">+ messageType()</text>
<text text-anchor="start" x="782.5" y="-233.5" font-family="Helvetica,sans-Serif" font-size="10.00"># deserializeData()</text>
<text text-anchor="start" x="782.5" y="-222.5" font-family="Helvetica,sans-Serif" font-size="10.00">&#45; getDataSize()</text>
<text text-anchor="start" x="782.5" y="-211.5" font-family="Helvetica,sans-Serif" font-size="10.00">&#45; initMap()</text>
</a>
</g>
</g>
<!-- Node2 -->
<g id="node2" class="node"><title>Node2</title>
<g id="a_node2"><a xlink:href="../../dd/d6b/class_angular_segment_kinematics_datagram.html" target="_top" xlink:title="a Angular Kinematics datagram (type 0x22)">
<polygon fill="white" stroke="black" points="0,-22.5 0,-145.5 152,-145.5 152,-22.5 0,-22.5"/>
<text text-anchor="start" x="8" y="-133.5" font-family="Helvetica,sans-Serif" font-size="10.00">AngularSegmentKinematics</text>
<text text-anchor="middle" x="76" y="-122.5" font-family="Helvetica,sans-Serif" font-size="10.00">Datagram</text>
<polyline fill="none" stroke="black" points="0,-115.5 152,-115.5 "/>
<text text-anchor="start" x="8" y="-103.5" font-family="Helvetica,sans-Serif" font-size="10.00">&#45; m_data</text>
<polyline fill="none" stroke="black" points="0,-96.5 152,-96.5 "/>
<text text-anchor="start" x="8" y="-84.5" font-family="Helvetica,sans-Serif" font-size="10.00">+ AngularSegmentKinematics</text>
<text text-anchor="start" x="8" y="-73.5" font-family="Helvetica,sans-Serif" font-size="10.00">Datagram()</text>
<text text-anchor="start" x="8" y="-62.5" font-family="Helvetica,sans-Serif" font-size="10.00">+ ~AngularSegmentKinematics</text>
<text text-anchor="start" x="8" y="-51.5" font-family="Helvetica,sans-Serif" font-size="10.00">Datagram()</text>
<text text-anchor="start" x="8" y="-40.5" font-family="Helvetica,sans-Serif" font-size="10.00">+ printData()</text>
<text text-anchor="start" x="8" y="-29.5" font-family="Helvetica,sans-Serif" font-size="10.00"># deserializeData()</text>
</a>
</g>
</g>
<!-- Node1&#45;&gt;Node2 -->
<g id="edge1" class="edge"><title>Node1&#45;&gt;Node2</title>
<path fill="none" stroke="midnightblue" d="M764.158,-357.586C626.002,-336.396 358.315,-283.09 161,-168 150.488,-161.869 140.307,-154.155 130.862,-145.914"/>
<polygon fill="none" stroke="midnightblue" points="763.872,-361.083 774.283,-359.117 764.919,-354.162 763.872,-361.083"/>
</g>
<!-- Node3 -->
<g id="node3" class="node"><title>Node3</title>
<g id="a_node3"><a xlink:href="../../d5/da8/class_center_of_mass_datagram.html" target="_top" xlink:title="a Center of Mass datagram (type 0x24)">
<polygon fill="white" stroke="black" points="170,-39 170,-129 312,-129 312,-39 170,-39"/>
<text text-anchor="middle" x="241" y="-117" font-family="Helvetica,sans-Serif" font-size="10.00">CenterOfMassDatagram</text>
<polyline fill="none" stroke="black" points="170,-110 312,-110 "/>
<text text-anchor="start" x="178" y="-98" font-family="Helvetica,sans-Serif" font-size="10.00">&#45; m_pos</text>
<polyline fill="none" stroke="black" points="170,-91 312,-91 "/>
<text text-anchor="start" x="178" y="-79" font-family="Helvetica,sans-Serif" font-size="10.00">+ CenterOfMassDatagram()</text>
<text text-anchor="start" x="178" y="-68" font-family="Helvetica,sans-Serif" font-size="10.00">+ ~CenterOfMassDatagram()</text>
<text text-anchor="start" x="178" y="-57" font-family="Helvetica,sans-Serif" font-size="10.00">+ printData()</text>
<text text-anchor="start" x="178" y="-46" font-family="Helvetica,sans-Serif" font-size="10.00"># deserializeData()</text>
</a>
</g>
</g>
<!-- Node1&#45;&gt;Node3 -->
<g id="edge2" class="edge"><title>Node1&#45;&gt;Node3</title>
<path fill="none" stroke="midnightblue" d="M764.455,-348.472C653.43,-319.846 462.589,-261.233 321,-168 304.953,-157.434 289.692,-143.12 276.883,-129.356"/>
<polygon fill="none" stroke="midnightblue" points="763.73,-351.899 774.285,-350.982 765.462,-345.117 763.73,-351.899"/>
</g>
<!-- Node4 -->
<g id="node4" class="node"><title>Node4</title>
<g id="a_node4"><a xlink:href="../../d5/dc1/class_euler_datagram.html" target="_top" xlink:title="a Position &amp; Euler orientation pose datagram (type 01)">
<polygon fill="white" stroke="black" points="330,-39 330,-129 432,-129 432,-39 330,-39"/>
<text text-anchor="middle" x="381" y="-117" font-family="Helvetica,sans-Serif" font-size="10.00">EulerDatagram</text>
<polyline fill="none" stroke="black" points="330,-110 432,-110 "/>
<text text-anchor="start" x="338" y="-98" font-family="Helvetica,sans-Serif" font-size="10.00">&#45; m_data</text>
<polyline fill="none" stroke="black" points="330,-91 432,-91 "/>
<text text-anchor="start" x="338" y="-79" font-family="Helvetica,sans-Serif" font-size="10.00">+ EulerDatagram()</text>
<text text-anchor="start" x="338" y="-68" font-family="Helvetica,sans-Serif" font-size="10.00">+ ~EulerDatagram()</text>
<text text-anchor="start" x="338" y="-57" font-family="Helvetica,sans-Serif" font-size="10.00">+ printData()</text>
<text text-anchor="start" x="338" y="-46" font-family="Helvetica,sans-Serif" font-size="10.00"># deserializeData()</text>
</a>
</g>
</g>
<!-- Node1&#45;&gt;Node4 -->
<g id="edge3" class="edge"><title>Node1&#45;&gt;Node4</title>
<path fill="none" stroke="midnightblue" d="M764.781,-340.268C675.606,-308.196 538.716,-250.124 441,-168 428.069,-157.132 416.472,-142.9 407.001,-129.298"/>
<polygon fill="none" stroke="midnightblue" points="763.74,-343.612 774.335,-343.67 766.089,-337.018 763.74,-343.612"/>
</g>
<!-- Node5 -->
<g id="node5" class="node"><title>Node5</title>
<g id="a_node5"><a xlink:href="../../df/dd1/class_joint_angles_datagram.html" target="_top" xlink:title="a Joint Angle datagram (type 0x20)">
<polygon fill="white" stroke="black" points="450,-39 450,-129 580,-129 580,-39 450,-39"/>
<text text-anchor="middle" x="515" y="-117" font-family="Helvetica,sans-Serif" font-size="10.00">JointAnglesDatagram</text>
<polyline fill="none" stroke="black" points="450,-110 580,-110 "/>
<text text-anchor="start" x="458" y="-98" font-family="Helvetica,sans-Serif" font-size="10.00">&#45; m_data</text>
<polyline fill="none" stroke="black" points="450,-91 580,-91 "/>
<text text-anchor="start" x="458" y="-79" font-family="Helvetica,sans-Serif" font-size="10.00">+ JointAnglesDatagram()</text>
<text text-anchor="start" x="458" y="-68" font-family="Helvetica,sans-Serif" font-size="10.00">+ ~JointAnglesDatagram()</text>
<text text-anchor="start" x="458" y="-57" font-family="Helvetica,sans-Serif" font-size="10.00">+ printData()</text>
<text text-anchor="start" x="458" y="-46" font-family="Helvetica,sans-Serif" font-size="10.00"># deserializeData()</text>
</a>
</g>
</g>
<!-- Node1&#45;&gt;Node5 -->
<g id="edge4" class="edge"><title>Node1&#45;&gt;Node5</title>
<path fill="none" stroke="midnightblue" d="M765.97,-308.692C712.608,-270.659 644.559,-219.291 589,-168 576.092,-156.083 563.01,-142.151 551.509,-129.142"/>
<polygon fill="none" stroke="midnightblue" points="764.223,-311.745 774.404,-314.68 768.276,-306.037 764.223,-311.745"/>
</g>
<!-- Node6 -->
<g id="node6" class="node"><title>Node6</title>
<g id="a_node6"><a xlink:href="../../d9/db3/class_linear_segment_kinematics_datagram.html" target="_top" xlink:title="a Linear Segment Kinematics datagram (type 0x21)">
<polygon fill="white" stroke="black" points="598,-33.5 598,-134.5 786,-134.5 786,-33.5 598,-33.5"/>
<text text-anchor="middle" x="692" y="-122.5" font-family="Helvetica,sans-Serif" font-size="10.00">LinearSegmentKinematicsDatagram</text>
<polyline fill="none" stroke="black" points="598,-115.5 786,-115.5 "/>
<text text-anchor="start" x="606" y="-103.5" font-family="Helvetica,sans-Serif" font-size="10.00">&#45; m_data</text>
<polyline fill="none" stroke="black" points="598,-96.5 786,-96.5 "/>
<text text-anchor="start" x="606" y="-84.5" font-family="Helvetica,sans-Serif" font-size="10.00">+ LinearSegmentKinematicsDatagram()</text>
<text text-anchor="start" x="606" y="-73.5" font-family="Helvetica,sans-Serif" font-size="10.00">+ ~LinearSegmentKinematics</text>
<text text-anchor="start" x="606" y="-62.5" font-family="Helvetica,sans-Serif" font-size="10.00">Datagram()</text>
<text text-anchor="start" x="606" y="-51.5" font-family="Helvetica,sans-Serif" font-size="10.00">+ printData()</text>
<text text-anchor="start" x="606" y="-40.5" font-family="Helvetica,sans-Serif" font-size="10.00"># deserializeData()</text>
</a>
</g>
</g>
<!-- Node1&#45;&gt;Node6 -->
<g id="edge5" class="edge"><title>Node1&#45;&gt;Node6</title>
<path fill="none" stroke="midnightblue" d="M769.452,-220.185C751.729,-189.25 734.261,-158.762 720.413,-134.592"/>
<polygon fill="none" stroke="midnightblue" points="766.447,-221.98 774.455,-228.917 772.521,-218.5 766.447,-221.98"/>
</g>
<!-- Node7 -->
<g id="node7" class="node"><title>Node7</title>
<g id="a_node7"><a xlink:href="../../da/d4d/class_meta_datagram.html" target="_top" xlink:title=" ">
<polygon fill="white" stroke="black" points="804.5,-11.5 804.5,-156.5 905.5,-156.5 905.5,-11.5 804.5,-11.5"/>
<text text-anchor="middle" x="855" y="-144.5" font-family="Helvetica,sans-Serif" font-size="10.00">MetaDatagram</text>
<polyline fill="none" stroke="black" points="804.5,-137.5 905.5,-137.5 "/>
<text text-anchor="start" x="812.5" y="-125.5" font-family="Helvetica,sans-Serif" font-size="10.00">&#45; m_items</text>
<polyline fill="none" stroke="black" points="804.5,-118.5 905.5,-118.5 "/>
<text text-anchor="start" x="812.5" y="-106.5" font-family="Helvetica,sans-Serif" font-size="10.00">+ MetaDatagram()</text>
<text text-anchor="start" x="812.5" y="-95.5" font-family="Helvetica,sans-Serif" font-size="10.00">+ ~MetaDatagram()</text>
<text text-anchor="start" x="812.5" y="-84.5" font-family="Helvetica,sans-Serif" font-size="10.00">+ printData()</text>
<text text-anchor="start" x="812.5" y="-73.5" font-family="Helvetica,sans-Serif" font-size="10.00"># deserializeData()</text>
<text text-anchor="start" x="812.5" y="-62.5" font-family="Helvetica,sans-Serif" font-size="10.00">&#45; split()</text>
<text text-anchor="start" x="812.5" y="-51.5" font-family="Helvetica,sans-Serif" font-size="10.00">&#45; join()</text>
<text text-anchor="start" x="812.5" y="-40.5" font-family="Helvetica,sans-Serif" font-size="10.00">&#45; itemData()</text>
<text text-anchor="start" x="812.5" y="-29.5" font-family="Helvetica,sans-Serif" font-size="10.00">&#45; hasItem()</text>
<text text-anchor="start" x="812.5" y="-18.5" font-family="Helvetica,sans-Serif" font-size="10.00">&#45; itemCount()</text>
</a>
</g>
</g>
<!-- Node1&#45;&gt;Node7 -->
<g id="edge6" class="edge"><title>Node1&#45;&gt;Node7</title>
<path fill="none" stroke="midnightblue" d="M855,-194.321C855,-181.208 855,-168.491 855,-156.648"/>
<polygon fill="none" stroke="midnightblue" points="851.5,-194.417 855,-204.417 858.5,-194.417 851.5,-194.417"/>
</g>
<!-- Node8 -->
<g id="node8" class="node"><title>Node8</title>
<g id="a_node8"><a xlink:href="../../d0/db5/class_position_datagram.html" target="_top" xlink:title=" ">
<polygon fill="white" stroke="black" points="923.5,-39 923.5,-129 1038.5,-129 1038.5,-39 923.5,-39"/>
<text text-anchor="middle" x="981" y="-117" font-family="Helvetica,sans-Serif" font-size="10.00">PositionDatagram</text>
<polyline fill="none" stroke="black" points="923.5,-110 1038.5,-110 "/>
<text text-anchor="start" x="931.5" y="-98" font-family="Helvetica,sans-Serif" font-size="10.00">&#45; m_data</text>
<polyline fill="none" stroke="black" points="923.5,-91 1038.5,-91 "/>
<text text-anchor="start" x="931.5" y="-79" font-family="Helvetica,sans-Serif" font-size="10.00">+ PositionDatagram()</text>
<text text-anchor="start" x="931.5" y="-68" font-family="Helvetica,sans-Serif" font-size="10.00">+ ~PositionDatagram()</text>
<text text-anchor="start" x="931.5" y="-57" font-family="Helvetica,sans-Serif" font-size="10.00">+ printData()</text>
<text text-anchor="start" x="931.5" y="-46" font-family="Helvetica,sans-Serif" font-size="10.00"># deserializeData()</text>
</a>
</g>
</g>
<!-- Node1&#45;&gt;Node8 -->
<g id="edge7" class="edge"><title>Node1&#45;&gt;Node8</title>
<path fill="none" stroke="midnightblue" d="M932.258,-195.056C943.009,-170.782 953.174,-147.828 961.412,-129.227"/>
<polygon fill="none" stroke="midnightblue" points="928.962,-193.856 928.112,-204.417 935.362,-196.691 928.962,-193.856"/>
</g>
<!-- Node9 -->
<g id="node9" class="node"><title>Node9</title>
<g id="a_node9"><a xlink:href="../../de/d22/class_quaternion_datagram.html" target="_top" xlink:title="a Position &amp; Quaternion orientation pose datagram (type 02)">
<polygon fill="white" stroke="black" points="1056.5,-33.5 1056.5,-134.5 1183.5,-134.5 1183.5,-33.5 1056.5,-33.5"/>
<text text-anchor="middle" x="1120" y="-122.5" font-family="Helvetica,sans-Serif" font-size="10.00">QuaternionDatagram</text>
<polyline fill="none" stroke="black" points="1056.5,-115.5 1183.5,-115.5 "/>
<text text-anchor="start" x="1064.5" y="-103.5" font-family="Helvetica,sans-Serif" font-size="10.00">+ m_data</text>
<polyline fill="none" stroke="black" points="1056.5,-96.5 1183.5,-96.5 "/>
<text text-anchor="start" x="1064.5" y="-84.5" font-family="Helvetica,sans-Serif" font-size="10.00">+ QuaternionDatagram()</text>
<text text-anchor="start" x="1064.5" y="-73.5" font-family="Helvetica,sans-Serif" font-size="10.00">+ ~QuaternionDatagram()</text>
<text text-anchor="start" x="1064.5" y="-62.5" font-family="Helvetica,sans-Serif" font-size="10.00">+ printData()</text>
<text text-anchor="start" x="1064.5" y="-51.5" font-family="Helvetica,sans-Serif" font-size="10.00">+ getData()</text>
<text text-anchor="start" x="1064.5" y="-40.5" font-family="Helvetica,sans-Serif" font-size="10.00"># deserializeData()</text>
</a>
</g>
</g>
<!-- Node1&#45;&gt;Node9 -->
<g id="edge8" class="edge"><title>Node1&#45;&gt;Node9</title>
<path fill="none" stroke="midnightblue" d="M942.785,-279.75C976.117,-245.179 1014.18,-205.097 1048,-168 1057.77,-157.286 1068.08,-145.618 1077.76,-134.507"/>
<polygon fill="none" stroke="midnightblue" points="940.175,-277.415 935.748,-287.04 945.211,-282.276 940.175,-277.415"/>
</g>
<!-- Node10 -->
<g id="node10" class="node"><title>Node10</title>
<g id="a_node10"><a xlink:href="../../d8/da5/class_scale_datagram.html" target="_top" xlink:title=" ">
<polygon fill="white" stroke="black" points="1201.5,-0.5 1201.5,-167.5 1326.5,-167.5 1326.5,-0.5 1201.5,-0.5"/>
<text text-anchor="middle" x="1264" y="-155.5" font-family="Helvetica,sans-Serif" font-size="10.00">ScaleDatagram</text>
<polyline fill="none" stroke="black" points="1201.5,-148.5 1326.5,-148.5 "/>
<text text-anchor="start" x="1209.5" y="-136.5" font-family="Helvetica,sans-Serif" font-size="10.00">&#45; m_tPose</text>
<text text-anchor="start" x="1209.5" y="-125.5" font-family="Helvetica,sans-Serif" font-size="10.00">&#45; m_pointDefinitions</text>
<text text-anchor="start" x="1209.5" y="-114.5" font-family="Helvetica,sans-Serif" font-size="10.00">&#45; m_bvhScaleInformation</text>
<polyline fill="none" stroke="black" points="1201.5,-107.5 1326.5,-107.5 "/>
<text text-anchor="start" x="1209.5" y="-95.5" font-family="Helvetica,sans-Serif" font-size="10.00">+ ScaleDatagram()</text>
<text text-anchor="start" x="1209.5" y="-84.5" font-family="Helvetica,sans-Serif" font-size="10.00">+ ~ScaleDatagram()</text>
<text text-anchor="start" x="1209.5" y="-73.5" font-family="Helvetica,sans-Serif" font-size="10.00">+ printData()</text>
<text text-anchor="start" x="1209.5" y="-62.5" font-family="Helvetica,sans-Serif" font-size="10.00">+ getScaleData()</text>
<text text-anchor="start" x="1209.5" y="-51.5" font-family="Helvetica,sans-Serif" font-size="10.00"># deserializeData()</text>
<text text-anchor="start" x="1209.5" y="-40.5" font-family="Helvetica,sans-Serif" font-size="10.00">&#45; printSegmentData()</text>
<text text-anchor="start" x="1209.5" y="-29.5" font-family="Helvetica,sans-Serif" font-size="10.00">&#45; printViveSegmentData()</text>
<text text-anchor="start" x="1209.5" y="-18.5" font-family="Helvetica,sans-Serif" font-size="10.00">&#45; printPointData()</text>
<text text-anchor="start" x="1209.5" y="-7.5" font-family="Helvetica,sans-Serif" font-size="10.00">&#45; printVivePointData()</text>
</a>
</g>
</g>
<!-- Node1&#45;&gt;Node10 -->
<g id="edge9" class="edge"><title>Node1&#45;&gt;Node10</title>
<path fill="none" stroke="midnightblue" d="M944.589,-326.372C1015.89,-289.715 1116.11,-232.815 1193,-168 1195.75,-165.678 1198.49,-163.243 1201.2,-160.726"/>
<polygon fill="none" stroke="midnightblue" points="942.916,-323.297 935.604,-330.964 946.102,-329.53 942.916,-323.297"/>
</g>
<!-- Node11 -->
<g id="node11" class="node"><title>Node11</title>
<g id="a_node11"><a xlink:href="../../d8/d94/class_time_code_datagram.html" target="_top" xlink:title="a Time Code datagram (type 0x25)">
<polygon fill="white" stroke="black" points="1344.5,-22.5 1344.5,-145.5 1467.5,-145.5 1467.5,-22.5 1344.5,-22.5"/>
<text text-anchor="middle" x="1406" y="-133.5" font-family="Helvetica,sans-Serif" font-size="10.00">TimeCodeDatagram</text>
<polyline fill="none" stroke="black" points="1344.5,-126.5 1467.5,-126.5 "/>
<text text-anchor="start" x="1352.5" y="-114.5" font-family="Helvetica,sans-Serif" font-size="10.00">&#45; m_nano</text>
<text text-anchor="start" x="1352.5" y="-103.5" font-family="Helvetica,sans-Serif" font-size="10.00">&#45; m_hour</text>
<text text-anchor="start" x="1352.5" y="-92.5" font-family="Helvetica,sans-Serif" font-size="10.00">&#45; m_minute</text>
<text text-anchor="start" x="1352.5" y="-81.5" font-family="Helvetica,sans-Serif" font-size="10.00">&#45; m_second</text>
<polyline fill="none" stroke="black" points="1344.5,-74.5 1467.5,-74.5 "/>
<text text-anchor="start" x="1352.5" y="-62.5" font-family="Helvetica,sans-Serif" font-size="10.00">+ TimeCodeDatagram()</text>
<text text-anchor="start" x="1352.5" y="-51.5" font-family="Helvetica,sans-Serif" font-size="10.00">+ ~TimeCodeDatagram()</text>
<text text-anchor="start" x="1352.5" y="-40.5" font-family="Helvetica,sans-Serif" font-size="10.00">+ printData()</text>
<text text-anchor="start" x="1352.5" y="-29.5" font-family="Helvetica,sans-Serif" font-size="10.00"># deserializeData()</text>
</a>
</g>
</g>
<!-- Node1&#45;&gt;Node11 -->
<g id="edge10" class="edge"><title>Node1&#45;&gt;Node11</title>
<path fill="none" stroke="midnightblue" d="M945.484,-345.621C1047.33,-315.715 1214.41,-257.296 1336,-168 1344.81,-161.529 1353.22,-153.729 1360.97,-145.535"/>
<polygon fill="none" stroke="midnightblue" points="944.461,-342.273 935.836,-348.426 946.415,-348.995 944.461,-342.273"/>
</g>
<!-- Node12 -->
<g id="node12" class="node"><title>Node12</title>
<g id="a_node12"><a xlink:href="../../d8/d1d/class_tracker_kinematics_datagram.html" target="_top" xlink:title="Tracker kinematics datagram (type 0x23)">
<polygon fill="white" stroke="black" points="1485.5,-39 1485.5,-129 1646.5,-129 1646.5,-39 1485.5,-39"/>
<text text-anchor="middle" x="1566" y="-117" font-family="Helvetica,sans-Serif" font-size="10.00">TrackerKinematicsDatagram</text>
<polyline fill="none" stroke="black" points="1485.5,-110 1646.5,-110 "/>
<text text-anchor="start" x="1493.5" y="-98" font-family="Helvetica,sans-Serif" font-size="10.00">&#45; m_data</text>
<polyline fill="none" stroke="black" points="1485.5,-91 1646.5,-91 "/>
<text text-anchor="start" x="1493.5" y="-79" font-family="Helvetica,sans-Serif" font-size="10.00">+ TrackerKinematicsDatagram()</text>
<text text-anchor="start" x="1493.5" y="-68" font-family="Helvetica,sans-Serif" font-size="10.00">+ ~TrackerKinematicsDatagram()</text>
<text text-anchor="start" x="1493.5" y="-57" font-family="Helvetica,sans-Serif" font-size="10.00">+ printData()</text>
<text text-anchor="start" x="1493.5" y="-46" font-family="Helvetica,sans-Serif" font-size="10.00"># deserializeData()</text>
</a>
</g>
</g>
<!-- Node1&#45;&gt;Node12 -->
<g id="edge11" class="edge"><title>Node1&#45;&gt;Node12</title>
<path fill="none" stroke="midnightblue" d="M945.724,-353.081C1071.63,-327.504 1303.41,-270.156 1477,-168 1494.66,-157.606 1511.72,-143.172 1526.09,-129.253"/>
<polygon fill="none" stroke="midnightblue" points="944.846,-349.688 935.731,-355.089 946.225,-356.55 944.846,-349.688"/>
</g>
</g>
</svg>
        <g id="navigator" transform="translate(0 0)" fill="#404254">
                <rect fill="#f2f5e9" fill-opacity="0.5" stroke="#606060" stroke-width=".5" x="0" y="0" width="60" height="60"/>
                <use id="zoomplus" xlink:href="#zoomPlus" x="17" y="9" onmousedown="handleZoom(evt,'in')"/>
                <use id="zoomminus" xlink:href="#zoomMin" x="42" y="9" onmousedown="handleZoom(evt,'out')"/>
                <use id="reset" xlink:href="#resetDef" x="30" y="36" onmousedown="handleReset()"/>
                <g id="arrowUp" xlink:href="#dirArrow" transform="translate(30 24)" onmousedown="handlePan(0,-1)">
                  <use xlink:href="#rim" fill="#404040">
                        <set attributeName="fill" to="#808080" begin="arrowUp.mouseover" end="arrowUp.mouseout"/>
                  </use>
                  <path fill="none" stroke="white" stroke-width="1.5" d="M0,-3.0v7 M-2.5,-0.5L0,-3.0L2.5,-0.5"/>
                </g>
                <g id="arrowRight" xlink:href="#dirArrow" transform="rotate(90) translate(36 -43)" onmousedown="handlePan(1,0)">
                  <use xlink:href="#rim" fill="#404040">
                        <set attributeName="fill" to="#808080" begin="arrowRight.mouseover" end="arrowRight.mouseout"/>
                  </use>
                  <path fill="none" stroke="white" stroke-width="1.5" d="M0,-3.0v7 M-2.5,-0.5L0,-3.0L2.5,-0.5"/>
                </g>
                <g id="arrowDown" xlink:href="#dirArrow" transform="rotate(180) translate(-30 -48)" onmousedown="handlePan(0,1)">
                  <use xlink:href="#rim" fill="#404040">
                        <set attributeName="fill" to="#808080" begin="arrowDown.mouseover" end="arrowDown.mouseout"/>
                  </use>
                  <path fill="none" stroke="white" stroke-width="1.5" d="M0,-3.0v7 M-2.5,-0.5L0,-3.0L2.5,-0.5"/>
                </g>
                <g id="arrowLeft" xlink:href="#dirArrow" transform="rotate(270) translate(-36 17)" onmousedown="handlePan(-1,0)">
                  <use xlink:href="#rim" fill="#404040">
                        <set attributeName="fill" to="#808080" begin="arrowLeft.mouseover" end="arrowLeft.mouseout"/>
                  </use>
                  <path fill="none" stroke="white" stroke-width="1.5" d="M0,-3.0v7 M-2.5,-0.5L0,-3.0L2.5,-0.5"/>
                </g>
        </g>
        <svg viewBox="0 0 15 15" width="100%" height="30px" preserveAspectRatio="xMaxYMin meet">
         <g id="arrow_out" transform="scale(0.3 0.3)">
          <a xlink:href="class_datagram__inherit__graph_org.svg" target="_base">
           <rect id="button" ry="5" rx="5" y="6" x="6" height="38" width="38"
                fill="#f2f5e9" fill-opacity="0.5" stroke="#606060" stroke-width="1.0"/>
           <path id="arrow"
             d="M 11.500037,31.436501 C 11.940474,20.09759 22.043105,11.32322 32.158766,21.979434 L 37.068811,17.246167 C 37.068811,17.246167 37.088388,32 37.088388,32 L 22.160133,31.978069 C 22.160133,31.978069 26.997745,27.140456 26.997745,27.140456 C 18.528582,18.264221 13.291696,25.230495 11.500037,31.436501 z"
             style="fill:#404040;"/>
          </a>
         </g>
        </svg>
</svg>
