<?xml version="1.0" encoding="UTF-8" standalone="no"?>
<!DOCTYPE svg PUBLIC "-//W3C//DTD SVG 1.1//EN"
 "http://www.w3.org/Graphics/SVG/1.1/DTD/svg11.dtd">
<!-- Generated by graphviz version 2.38.0 (20140413.2041)
 -->
<!-- Title: UIManager Pages: 1 -->
<svg width="924pt" height="1752pt"
 viewBox="0.00 0.00 924.07 1752.00" xmlns="http://www.w3.org/2000/svg" xmlns:xlink="http://www.w3.org/1999/xlink">
<g id="graph0" class="graph" transform="scale(1 1) rotate(0) translate(4 1748)">
<title>UIManager</title>
<polygon fill="white" stroke="none" points="-4,4 -4,-1748 920.066,-1748 920.066,4 -4,4"/>
<!-- Node1 -->
<g id="node1" class="node"><title>Node1</title>
<g id="a_node1"><a xlink:title=" ">
<polygon fill="#bfbfbf" stroke="black" points="415.566,-0.5 415.566,-79.5 516.566,-79.5 516.566,-0.5 415.566,-0.5"/>
<text text-anchor="middle" x="466.066" y="-67.5" font-family="Helvetica,sans-Serif" font-size="10.00">UIManager</text>
<polyline fill="none" stroke="black" points="415.566,-60.5 516.566,-60.5 "/>
<text text-anchor="start" x="423.566" y="-48.5" font-family="Helvetica,sans-Serif" font-size="10.00">&#45; m_app</text>
<polyline fill="none" stroke="black" points="415.566,-41.5 516.566,-41.5 "/>
<text text-anchor="start" x="423.566" y="-29.5" font-family="Helvetica,sans-Serif" font-size="10.00">+ UIManager()</text>
<text text-anchor="start" x="423.566" y="-18.5" font-family="Helvetica,sans-Serif" font-size="10.00">+ getMainWindow()</text>
<text text-anchor="start" x="423.566" y="-7.5" font-family="Helvetica,sans-Serif" font-size="10.00">+ processInput()</text>
</a>
</g>
</g>
<!-- Node2 -->
<g id="node2" class="node"><title>Node2</title>
<g id="a_node2"><a xlink:href="../../d9/dc6/class_main_window.html" target="_top" xlink:title="Qt main Window wrapper containing slot methods.">
<polygon fill="white" stroke="black" points="388.566,-127.5 388.566,-492.5 543.566,-492.5 543.566,-127.5 388.566,-127.5"/>
<text text-anchor="middle" x="466.066" y="-480.5" font-family="Helvetica,sans-Serif" font-size="10.00">MainWindow</text>
<polyline fill="none" stroke="black" points="388.566,-473.5 543.566,-473.5 "/>
<text text-anchor="start" x="396.566" y="-461.5" font-family="Helvetica,sans-Serif" font-size="10.00">&#45; ui</text>
<text text-anchor="start" x="396.566" y="-450.5" font-family="Helvetica,sans-Serif" font-size="10.00">&#45; m_hirachyItemPool</text>
<text text-anchor="start" x="396.566" y="-439.5" font-family="Helvetica,sans-Serif" font-size="10.00">&#45; m_isTracking</text>
<text text-anchor="start" x="396.566" y="-428.5" font-family="Helvetica,sans-Serif" font-size="10.00">&#45; m_isInspectorInit</text>
<text text-anchor="start" x="396.566" y="-417.5" font-family="Helvetica,sans-Serif" font-size="10.00">&#45; m_selectedTrackerInList</text>
<text text-anchor="start" x="396.566" y="-406.5" font-family="Helvetica,sans-Serif" font-size="10.00">&#45; m_inputFieldPool</text>
<polyline fill="none" stroke="black" points="388.566,-399.5 543.566,-399.5 "/>
<text text-anchor="start" x="396.566" y="-387.5" font-family="Helvetica,sans-Serif" font-size="10.00">+ MainWindow()</text>
<text text-anchor="start" x="396.566" y="-376.5" font-family="Helvetica,sans-Serif" font-size="10.00">+ ~MainWindow()</text>
<text text-anchor="start" x="396.566" y="-365.5" font-family="Helvetica,sans-Serif" font-size="10.00">+ update()</text>
<text text-anchor="start" x="396.566" y="-354.5" font-family="Helvetica,sans-Serif" font-size="10.00">+ updateConsole()</text>
<text text-anchor="start" x="396.566" y="-343.5" font-family="Helvetica,sans-Serif" font-size="10.00">+ getOglRenderer()</text>
<text text-anchor="start" x="396.566" y="-332.5" font-family="Helvetica,sans-Serif" font-size="10.00">&#45; updateHirachy()</text>
<text text-anchor="start" x="396.566" y="-321.5" font-family="Helvetica,sans-Serif" font-size="10.00">&#45; drawInspector()</text>
<text text-anchor="start" x="396.566" y="-310.5" font-family="Helvetica,sans-Serif" font-size="10.00">&#45; updateInspector()</text>
<text text-anchor="start" x="396.566" y="-299.5" font-family="Helvetica,sans-Serif" font-size="10.00">&#45; clearInspector()</text>
<text text-anchor="start" x="396.566" y="-288.5" font-family="Helvetica,sans-Serif" font-size="10.00">&#45; addRowToInspector()</text>
<text text-anchor="start" x="396.566" y="-277.5" font-family="Helvetica,sans-Serif" font-size="10.00">&#45; toggleTrackingButtons()</text>
<text text-anchor="start" x="396.566" y="-266.5" font-family="Helvetica,sans-Serif" font-size="10.00">&#45; toQString()</text>
<text text-anchor="start" x="396.566" y="-255.5" font-family="Helvetica,sans-Serif" font-size="10.00">&#45; addTrackerToList()</text>
<text text-anchor="start" x="396.566" y="-244.5" font-family="Helvetica,sans-Serif" font-size="10.00">&#45; slotToggleTracking()</text>
<text text-anchor="start" x="396.566" y="-233.5" font-family="Helvetica,sans-Serif" font-size="10.00">&#45; slotAddTracker()</text>
<text text-anchor="start" x="396.566" y="-222.5" font-family="Helvetica,sans-Serif" font-size="10.00">&#45; slotAddGroup()</text>
<text text-anchor="start" x="396.566" y="-211.5" font-family="Helvetica,sans-Serif" font-size="10.00">&#45; slotRemoveTracker()</text>
<text text-anchor="start" x="396.566" y="-200.5" font-family="Helvetica,sans-Serif" font-size="10.00">&#45; on_actionExit_triggered()</text>
<text text-anchor="start" x="396.566" y="-189.5" font-family="Helvetica,sans-Serif" font-size="10.00">&#45; slotTrackerSelectionChanged()</text>
<text text-anchor="start" x="396.566" y="-178.5" font-family="Helvetica,sans-Serif" font-size="10.00">&#45; slotInspectorItemChanged()</text>
<text text-anchor="start" x="396.566" y="-167.5" font-family="Helvetica,sans-Serif" font-size="10.00">&#45; slotInspectorInputPosX()</text>
<text text-anchor="start" x="396.566" y="-156.5" font-family="Helvetica,sans-Serif" font-size="10.00">&#45; slotInspectorInputPosY()</text>
<text text-anchor="start" x="396.566" y="-145.5" font-family="Helvetica,sans-Serif" font-size="10.00">&#45; slotInspectorInputPosZ()</text>
<text text-anchor="start" x="396.566" y="-134.5" font-family="Helvetica,sans-Serif" font-size="10.00">and 6 more...</text>
</a>
</g>
</g>
<!-- Node2&#45;&gt;Node1 -->
<g id="edge1" class="edge"><title>Node2&#45;&gt;Node1</title>
<path fill="none" stroke="#404040" d="M466.066,-127.272C466.066,-114.658 466.066,-102.693 466.066,-91.9134"/>
<polygon fill="none" stroke="#404040" points="466.066,-91.8352 462.066,-85.8353 466.066,-79.8352 470.066,-85.8352 466.066,-91.8352"/>
<text text-anchor="middle" x="504.066" y="-101" font-family="Helvetica,sans-Serif" font-size="10.00"> &#45;m_mainWindow</text>
</g>
<!-- Node3 -->
<g id="node3" class="node"><title>Node3</title>
<g id="a_node3"><a xlink:title=" ">
<polygon fill="white" stroke="#bfbfbf" points="125.066,-656 125.066,-713 205.066,-713 205.066,-656 125.066,-656"/>
<text text-anchor="middle" x="165.066" y="-701" font-family="Helvetica,sans-Serif" font-size="10.00">QMainWindow</text>
<polyline fill="none" stroke="#bfbfbf" points="125.066,-694 205.066,-694 "/>
<text text-anchor="middle" x="165.066" y="-682" font-family="Helvetica,sans-Serif" font-size="10.00"> </text>
<polyline fill="none" stroke="#bfbfbf" points="125.066,-675 205.066,-675 "/>
<text text-anchor="middle" x="165.066" y="-663" font-family="Helvetica,sans-Serif" font-size="10.00"> </text>
</a>
</g>
</g>
<!-- Node3&#45;&gt;Node2 -->
<g id="edge2" class="edge"><title>Node3&#45;&gt;Node2</title>
<path fill="none" stroke="midnightblue" d="M172.415,-645.967C179.599,-615.58 192.642,-572.62 214.066,-540 260.229,-469.711 332.897,-406.83 388.362,-364.826"/>
<polygon fill="none" stroke="midnightblue" points="168.993,-645.231 170.199,-655.757 175.82,-646.776 168.993,-645.231"/>
</g>
<!-- Node4 -->
<g id="node4" class="node"><title>Node4</title>
<g id="a_node4"><a xlink:href="../../d8/d32/class_gl_widget.html" target="_top" xlink:title="3d render context for skeleton visualisation">
<polygon fill="white" stroke="black" points="223.066,-546 223.066,-823 389.066,-823 389.066,-546 223.066,-546"/>
<text text-anchor="middle" x="306.066" y="-811" font-family="Helvetica,sans-Serif" font-size="10.00">GlWidget</text>
<polyline fill="none" stroke="black" points="223.066,-804 389.066,-804 "/>
<text text-anchor="start" x="231.066" y="-792" font-family="Helvetica,sans-Serif" font-size="10.00">&#45; m_worldMatrix</text>
<text text-anchor="start" x="231.066" y="-781" font-family="Helvetica,sans-Serif" font-size="10.00">&#45; m_shaderProgram_texture</text>
<text text-anchor="start" x="231.066" y="-770" font-family="Helvetica,sans-Serif" font-size="10.00">&#45; m_shaderProgram_confidence</text>
<text text-anchor="start" x="231.066" y="-759" font-family="Helvetica,sans-Serif" font-size="10.00">&#45; lastPos</text>
<text text-anchor="start" x="231.066" y="-748" font-family="Helvetica,sans-Serif" font-size="10.00">&#45; m_clearColor</text>
<text text-anchor="start" x="231.066" y="-737" font-family="Helvetica,sans-Serif" font-size="10.00">&#45; m_skeletonMeshPool</text>
<polyline fill="none" stroke="black" points="223.066,-730 389.066,-730 "/>
<text text-anchor="start" x="231.066" y="-718" font-family="Helvetica,sans-Serif" font-size="10.00">+ GlWidget()</text>
<text text-anchor="start" x="231.066" y="-707" font-family="Helvetica,sans-Serif" font-size="10.00">+ ~GlWidget()</text>
<text text-anchor="start" x="231.066" y="-696" font-family="Helvetica,sans-Serif" font-size="10.00">+ updateSkeletonMeshPoolSize()</text>
<text text-anchor="start" x="231.066" y="-685" font-family="Helvetica,sans-Serif" font-size="10.00">+ updateSkeletonMeshCount()</text>
<text text-anchor="start" x="231.066" y="-674" font-family="Helvetica,sans-Serif" font-size="10.00">+ updateSkeletonMeshTransform()</text>
<text text-anchor="start" x="231.066" y="-663" font-family="Helvetica,sans-Serif" font-size="10.00"># initializeGL()</text>
<text text-anchor="start" x="231.066" y="-652" font-family="Helvetica,sans-Serif" font-size="10.00"># paintGL()</text>
<text text-anchor="start" x="231.066" y="-641" font-family="Helvetica,sans-Serif" font-size="10.00"># resizeGL()</text>
<text text-anchor="start" x="231.066" y="-630" font-family="Helvetica,sans-Serif" font-size="10.00"># mousePressEvent()</text>
<text text-anchor="start" x="231.066" y="-619" font-family="Helvetica,sans-Serif" font-size="10.00"># mouseMoveEvent()</text>
<text text-anchor="start" x="231.066" y="-608" font-family="Helvetica,sans-Serif" font-size="10.00"># mouseReleaseEvent()</text>
<text text-anchor="start" x="231.066" y="-597" font-family="Helvetica,sans-Serif" font-size="10.00">&#45; init()</text>
<text text-anchor="start" x="231.066" y="-586" font-family="Helvetica,sans-Serif" font-size="10.00">&#45; createShaderProgram()</text>
<text text-anchor="start" x="231.066" y="-575" font-family="Helvetica,sans-Serif" font-size="10.00">&#45; createMeshes()</text>
<text text-anchor="start" x="231.066" y="-564" font-family="Helvetica,sans-Serif" font-size="10.00">&#45; renderMesh()</text>
<text text-anchor="start" x="231.066" y="-553" font-family="Helvetica,sans-Serif" font-size="10.00">&#45; renderSkeletonMesh()</text>
</a>
</g>
</g>
<!-- Node4&#45;&gt;Node2 -->
<g id="edge3" class="edge"><title>Node4&#45;&gt;Node2</title>
<path fill="none" stroke="#404040" d="M365.228,-545.559C370.246,-533.869 375.243,-522.228 380.066,-511 381.273,-508.189 382.49,-505.356 383.714,-502.505"/>
<polygon fill="none" stroke="#404040" points="383.736,-502.454 382.43,-495.362 388.473,-491.428 389.78,-498.52 383.736,-502.454"/>
<text text-anchor="middle" x="416.066" y="-514" font-family="Helvetica,sans-Serif" font-size="10.00"> &#45;m_oglRenderer</text>
</g>
<!-- Node5 -->
<g id="node5" class="node"><title>Node5</title>
<g id="a_node5"><a xlink:title=" ">
<polygon fill="white" stroke="#bfbfbf" points="247.566,-953.5 247.566,-1010.5 338.566,-1010.5 338.566,-953.5 247.566,-953.5"/>
<text text-anchor="middle" x="293.066" y="-998.5" font-family="Helvetica,sans-Serif" font-size="10.00">QOpenGLWidget</text>
<polyline fill="none" stroke="#bfbfbf" points="247.566,-991.5 338.566,-991.5 "/>
<text text-anchor="middle" x="293.066" y="-979.5" font-family="Helvetica,sans-Serif" font-size="10.00"> </text>
<polyline fill="none" stroke="#bfbfbf" points="247.566,-972.5 338.566,-972.5 "/>
<text text-anchor="middle" x="293.066" y="-960.5" font-family="Helvetica,sans-Serif" font-size="10.00"> </text>
</a>
</g>
</g>
<!-- Node5&#45;&gt;Node4 -->
<g id="edge4" class="edge"><title>Node5&#45;&gt;Node4</title>
<path fill="none" stroke="midnightblue" d="M294.727,-943.239C296.078,-912.53 298.072,-867.21 300.012,-823.101"/>
<polygon fill="none" stroke="midnightblue" points="291.22,-943.321 294.277,-953.465 298.213,-943.629 291.22,-943.321"/>
</g>
<!-- Node6 -->
<g id="node6" class="node"><title>Node6</title>
<g id="a_node6"><a xlink:title=" ">
<polygon fill="white" stroke="#bfbfbf" points="356.566,-953.5 356.566,-1010.5 459.566,-1010.5 459.566,-953.5 356.566,-953.5"/>
<text text-anchor="middle" x="408.066" y="-998.5" font-family="Helvetica,sans-Serif" font-size="10.00">QOpenGLFunctions</text>
<polyline fill="none" stroke="#bfbfbf" points="356.566,-991.5 459.566,-991.5 "/>
<text text-anchor="middle" x="408.066" y="-979.5" font-family="Helvetica,sans-Serif" font-size="10.00"> </text>
<polyline fill="none" stroke="#bfbfbf" points="356.566,-972.5 459.566,-972.5 "/>
<text text-anchor="middle" x="408.066" y="-960.5" font-family="Helvetica,sans-Serif" font-size="10.00"> </text>
</a>
</g>
</g>
<!-- Node6&#45;&gt;Node4 -->
<g id="edge5" class="edge"><title>Node6&#45;&gt;Node4</title>
<path fill="none" stroke="darkgreen" d="M388.949,-944.684C377.591,-924.024 362.437,-897.969 347.066,-876 341.096,-867.468 336.333,-867.499 332.066,-858 327.102,-846.949 323.055,-835.14 319.758,-823.08"/>
<polygon fill="none" stroke="darkgreen" points="385.876,-946.36 393.731,-953.47 392.025,-943.014 385.876,-946.36"/>
</g>
<!-- Node7 -->
<g id="node7" class="node"><title>Node7</title>
<g id="a_node7"><a xlink:href="../../dc/dbc/class_tracker_manager.html" target="_top" xlink:title="Manager for all types of tracker.">
<polygon fill="white" stroke="black" points="478.066,-876.5 478.066,-1087.5 620.066,-1087.5 620.066,-876.5 478.066,-876.5"/>
<text text-anchor="middle" x="549.066" y="-1075.5" font-family="Helvetica,sans-Serif" font-size="10.00">TrackerManager</text>
<polyline fill="none" stroke="black" points="478.066,-1068.5 620.066,-1068.5 "/>
<text text-anchor="start" x="486.066" y="-1056.5" font-family="Helvetica,sans-Serif" font-size="10.00">&#45; m_trackerPool</text>
<text text-anchor="start" x="486.066" y="-1045.5" font-family="Helvetica,sans-Serif" font-size="10.00">&#45; m_isTracking</text>
<text text-anchor="start" x="486.066" y="-1034.5" font-family="Helvetica,sans-Serif" font-size="10.00">&#45; m_hasTrackerPoolChanged</text>
<text text-anchor="start" x="486.066" y="-1023.5" font-family="Helvetica,sans-Serif" font-size="10.00">&#45; m_nextFreeTrackerID</text>
<text text-anchor="start" x="486.066" y="-1012.5" font-family="Helvetica,sans-Serif" font-size="10.00">&#45; m_nextFreeAKCamID</text>
<text text-anchor="start" x="486.066" y="-1001.5" font-family="Helvetica,sans-Serif" font-size="10.00">&#45; m_trackerPoolLock</text>
<polyline fill="none" stroke="black" points="478.066,-994.5 620.066,-994.5 "/>
<text text-anchor="start" x="486.066" y="-982.5" font-family="Helvetica,sans-Serif" font-size="10.00">+ TrackerManager()</text>
<text text-anchor="start" x="486.066" y="-971.5" font-family="Helvetica,sans-Serif" font-size="10.00">+ createTracker()</text>
<text text-anchor="start" x="486.066" y="-960.5" font-family="Helvetica,sans-Serif" font-size="10.00">+ removeTrackerAt()</text>
<text text-anchor="start" x="486.066" y="-949.5" font-family="Helvetica,sans-Serif" font-size="10.00">+ startTracker()</text>
<text text-anchor="start" x="486.066" y="-938.5" font-family="Helvetica,sans-Serif" font-size="10.00">+ stopTracker()</text>
<text text-anchor="start" x="486.066" y="-927.5" font-family="Helvetica,sans-Serif" font-size="10.00">+ isTracking()</text>
<text text-anchor="start" x="486.066" y="-916.5" font-family="Helvetica,sans-Serif" font-size="10.00">+ hasTrackerPoolChanged()</text>
<text text-anchor="start" x="486.066" y="-905.5" font-family="Helvetica,sans-Serif" font-size="10.00">+ getPoolTracker()</text>
<text text-anchor="start" x="486.066" y="-894.5" font-family="Helvetica,sans-Serif" font-size="10.00">+ getTrackerRefAt()</text>
<text text-anchor="start" x="486.066" y="-883.5" font-family="Helvetica,sans-Serif" font-size="10.00">+ getTrackerPoolLock()</text>
</a>
</g>
</g>
<!-- Node7&#45;&gt;Node2 -->
<g id="edge16" class="edge"><title>Node7&#45;&gt;Node2</title>
<path fill="none" stroke="#404040" d="M490.978,-876.485C484.49,-860.957 478.862,-844.841 475.066,-829 460.753,-769.277 459.149,-625.871 460.768,-505.056"/>
<polygon fill="none" stroke="#404040" points="460.773,-504.692 456.86,-498.635 460.946,-492.693 464.859,-498.75 460.773,-504.692"/>
<text text-anchor="middle" x="525.066" y="-682" font-family="Helvetica,sans-Serif" font-size="10.00"> &#45;m_refTrackerManager</text>
</g>
<!-- Node7&#45;&gt;Node4 -->
<g id="edge6" class="edge"><title>Node7&#45;&gt;Node4</title>
<path fill="none" stroke="#404040" d="M477.9,-882.535C474.714,-880.182 471.435,-877.992 468.066,-876 423.152,-849.453 390.871,-892.873 352.066,-858 344.278,-851.002 337.744,-842.846 332.27,-833.962"/>
<polygon fill="none" stroke="#404040" points="332.135,-833.718 325.728,-830.409 326.318,-823.222 332.725,-826.531 332.135,-833.718"/>
<text text-anchor="middle" x="402.066" y="-850" font-family="Helvetica,sans-Serif" font-size="10.00"> &#45;m_refTrackerManager</text>
</g>
<!-- Node16 -->
<g id="node16" class="node"><title>Node16</title>
<g id="a_node16"><a xlink:href="../../d0/dde/class_create_tracker_window.html" target="_top" xlink:title="dialog for creating new trackers">
<polygon fill="white" stroke="black" points="584.566,-628.5 584.566,-740.5 747.566,-740.5 747.566,-628.5 584.566,-628.5"/>
<text text-anchor="middle" x="666.066" y="-728.5" font-family="Helvetica,sans-Serif" font-size="10.00">CreateTrackerWindow</text>
<polyline fill="none" stroke="black" points="584.566,-721.5 747.566,-721.5 "/>
<text text-anchor="start" x="592.566" y="-709.5" font-family="Helvetica,sans-Serif" font-size="10.00">&#45; ui</text>
<text text-anchor="start" x="592.566" y="-698.5" font-family="Helvetica,sans-Serif" font-size="10.00">&#45; m_refTreeWidgetTracker</text>
<text text-anchor="start" x="592.566" y="-687.5" font-family="Helvetica,sans-Serif" font-size="10.00">&#45; m_selectedTrackerIdInDropdown</text>
<polyline fill="none" stroke="black" points="584.566,-680.5 747.566,-680.5 "/>
<text text-anchor="start" x="592.566" y="-668.5" font-family="Helvetica,sans-Serif" font-size="10.00">+ CreateTrackerWindow()</text>
<text text-anchor="start" x="592.566" y="-657.5" font-family="Helvetica,sans-Serif" font-size="10.00">+ ~CreateTrackerWindow()</text>
<text text-anchor="start" x="592.566" y="-646.5" font-family="Helvetica,sans-Serif" font-size="10.00">&#45; slotCreateTracker()</text>
<text text-anchor="start" x="592.566" y="-635.5" font-family="Helvetica,sans-Serif" font-size="10.00">&#45; slotSelectTrackerInDropdown()</text>
</a>
</g>
</g>
<!-- Node7&#45;&gt;Node16 -->
<g id="edge21" class="edge"><title>Node7&#45;&gt;Node16</title>
<path fill="none" stroke="#404040" d="M554.307,-876.432C556.269,-866.344 558.805,-856.383 562.066,-847 569.089,-826.787 595.206,-786.255 619.508,-750.854"/>
<polygon fill="none" stroke="#404040" points="619.81,-750.418 619.93,-743.208 626.632,-740.546 626.512,-747.756 619.81,-750.418"/>
<text text-anchor="middle" x="612.066" y="-850" font-family="Helvetica,sans-Serif" font-size="10.00"> &#45;m_refTrackerManager</text>
</g>
<!-- Node8 -->
<g id="node8" class="node"><title>Node8</title>
<g id="a_node8"><a xlink:href="../../da/dbb/class_camera.html" target="_top" xlink:title=" ">
<polygon fill="white" stroke="black" points="169.566,-1212.5 169.566,-1302.5 252.566,-1302.5 252.566,-1212.5 169.566,-1212.5"/>
<text text-anchor="middle" x="211.066" y="-1290.5" font-family="Helvetica,sans-Serif" font-size="10.00">Camera</text>
<polyline fill="none" stroke="black" points="169.566,-1283.5 252.566,-1283.5 "/>
<text text-anchor="middle" x="211.066" y="-1271.5" font-family="Helvetica,sans-Serif" font-size="10.00"> </text>
<polyline fill="none" stroke="black" points="169.566,-1264.5 252.566,-1264.5 "/>
<text text-anchor="start" x="177.566" y="-1252.5" font-family="Helvetica,sans-Serif" font-size="10.00">+ Camera()</text>
<text text-anchor="start" x="177.566" y="-1241.5" font-family="Helvetica,sans-Serif" font-size="10.00">+ ~Camera()</text>
<text text-anchor="start" x="177.566" y="-1230.5" font-family="Helvetica,sans-Serif" font-size="10.00">+ addRotation()</text>
<text text-anchor="start" x="177.566" y="-1219.5" font-family="Helvetica,sans-Serif" font-size="10.00">+ rotate()</text>
</a>
</g>
</g>
<!-- Node8&#45;&gt;Node4 -->
<g id="edge7" class="edge"><title>Node8&#45;&gt;Node4</title>
<path fill="none" stroke="#404040" d="M198.598,-1212.38C180.354,-1140.37 152.048,-993.826 186.066,-876 186.628,-874.051 199.456,-853.317 216.53,-826.191"/>
<polygon fill="none" stroke="#404040" points="216.599,-826.083 216.415,-818.874 222.999,-815.932 223.182,-823.14 216.599,-826.083"/>
<text text-anchor="middle" x="212.066" y="-979.5" font-family="Helvetica,sans-Serif" font-size="10.00"> &#45;m_camera</text>
</g>
<!-- Node9 -->
<g id="node9" class="node"><title>Node9</title>
<g id="a_node9"><a xlink:href="../../d2/d96/class_entity.html" target="_top" xlink:title="base class for all objects in openGl window">
<polygon fill="white" stroke="black" points="185.566,-1411 185.566,-1611 266.566,-1611 266.566,-1411 185.566,-1411"/>
<text text-anchor="middle" x="226.066" y="-1599" font-family="Helvetica,sans-Serif" font-size="10.00">Entity</text>
<polyline fill="none" stroke="black" points="185.566,-1592 266.566,-1592 "/>
<text text-anchor="start" x="193.566" y="-1580" font-family="Helvetica,sans-Serif" font-size="10.00"># m_matrix</text>
<polyline fill="none" stroke="black" points="185.566,-1573 266.566,-1573 "/>
<text text-anchor="start" x="193.566" y="-1561" font-family="Helvetica,sans-Serif" font-size="10.00">+ Entity()</text>
<text text-anchor="start" x="193.566" y="-1550" font-family="Helvetica,sans-Serif" font-size="10.00">+ ~Entity()</text>
<text text-anchor="start" x="193.566" y="-1539" font-family="Helvetica,sans-Serif" font-size="10.00">+ getMatrix()</text>
<text text-anchor="start" x="193.566" y="-1528" font-family="Helvetica,sans-Serif" font-size="10.00">+ translate()</text>
<text text-anchor="start" x="193.566" y="-1517" font-family="Helvetica,sans-Serif" font-size="10.00">+ setPosition()</text>
<text text-anchor="start" x="193.566" y="-1506" font-family="Helvetica,sans-Serif" font-size="10.00">+ getPosition()</text>
<text text-anchor="start" x="193.566" y="-1495" font-family="Helvetica,sans-Serif" font-size="10.00">+ rotate()</text>
<text text-anchor="start" x="193.566" y="-1484" font-family="Helvetica,sans-Serif" font-size="10.00">+ setRotation()</text>
<text text-anchor="start" x="193.566" y="-1473" font-family="Helvetica,sans-Serif" font-size="10.00">+ getRotation()</text>
<text text-anchor="start" x="193.566" y="-1462" font-family="Helvetica,sans-Serif" font-size="10.00">+ scale()</text>
<text text-anchor="start" x="193.566" y="-1451" font-family="Helvetica,sans-Serif" font-size="10.00">+ scale()</text>
<text text-anchor="start" x="193.566" y="-1440" font-family="Helvetica,sans-Serif" font-size="10.00">+ setScale()</text>
<text text-anchor="start" x="193.566" y="-1429" font-family="Helvetica,sans-Serif" font-size="10.00">+ setScale()</text>
<text text-anchor="start" x="193.566" y="-1418" font-family="Helvetica,sans-Serif" font-size="10.00">+ getScale()</text>
</a>
</g>
</g>
<!-- Node9&#45;&gt;Node8 -->
<g id="edge8" class="edge"><title>Node9&#45;&gt;Node8</title>
<path fill="none" stroke="midnightblue" d="M226.25,-1400.62C225.958,-1392.29 225.571,-1384.01 225.066,-1376 223.532,-1351.7 220.419,-1324.72 217.517,-1302.75"/>
<polygon fill="none" stroke="midnightblue" points="222.757,-1400.91 226.56,-1410.8 229.754,-1400.7 222.757,-1400.91"/>
</g>
<!-- Node13 -->
<g id="node13" class="node"><title>Node13</title>
<g id="a_node13"><a xlink:href="../../dc/dbe/class_mesh.html" target="_top" xlink:title="mesh base class">
<polygon fill="white" stroke="black" points="47.0656,-1157.5 47.0656,-1357.5 151.066,-1357.5 151.066,-1157.5 47.0656,-1157.5"/>
<text text-anchor="middle" x="99.0656" y="-1345.5" font-family="Helvetica,sans-Serif" font-size="10.00">Mesh</text>
<polyline fill="none" stroke="black" points="47.0656,-1338.5 151.066,-1338.5 "/>
<text text-anchor="start" x="55.0656" y="-1326.5" font-family="Helvetica,sans-Serif" font-size="10.00"># m_vertexData</text>
<text text-anchor="start" x="55.0656" y="-1315.5" font-family="Helvetica,sans-Serif" font-size="10.00"># m_faceCount</text>
<text text-anchor="start" x="55.0656" y="-1304.5" font-family="Helvetica,sans-Serif" font-size="10.00"># m_vbo</text>
<text text-anchor="start" x="55.0656" y="-1293.5" font-family="Helvetica,sans-Serif" font-size="10.00"># m_texture</text>
<text text-anchor="start" x="55.0656" y="-1282.5" font-family="Helvetica,sans-Serif" font-size="10.00"># m_shaderProgram</text>
<text text-anchor="start" x="55.0656" y="-1271.5" font-family="Helvetica,sans-Serif" font-size="10.00"># m_isActive</text>
<polyline fill="none" stroke="black" points="47.0656,-1264.5 151.066,-1264.5 "/>
<text text-anchor="start" x="55.0656" y="-1252.5" font-family="Helvetica,sans-Serif" font-size="10.00">+ Mesh()</text>
<text text-anchor="start" x="55.0656" y="-1241.5" font-family="Helvetica,sans-Serif" font-size="10.00">+ ~Mesh()</text>
<text text-anchor="start" x="55.0656" y="-1230.5" font-family="Helvetica,sans-Serif" font-size="10.00">+ bind()</text>
<text text-anchor="start" x="55.0656" y="-1219.5" font-family="Helvetica,sans-Serif" font-size="10.00">+ release()</text>
<text text-anchor="start" x="55.0656" y="-1208.5" font-family="Helvetica,sans-Serif" font-size="10.00">+ getFaceCount()</text>
<text text-anchor="start" x="55.0656" y="-1197.5" font-family="Helvetica,sans-Serif" font-size="10.00">+ isActive()</text>
<text text-anchor="start" x="55.0656" y="-1186.5" font-family="Helvetica,sans-Serif" font-size="10.00">+ setActive()</text>
<text text-anchor="start" x="55.0656" y="-1175.5" font-family="Helvetica,sans-Serif" font-size="10.00">+ setDiffuseColor()</text>
<text text-anchor="start" x="55.0656" y="-1164.5" font-family="Helvetica,sans-Serif" font-size="10.00"># init()</text>
</a>
</g>
</g>
<!-- Node9&#45;&gt;Node13 -->
<g id="edge14" class="edge"><title>Node9&#45;&gt;Node13</title>
<path fill="none" stroke="midnightblue" d="M214.567,-1401.21C210.823,-1392.16 206.071,-1383.58 200.066,-1376 187.963,-1360.72 174.698,-1370.88 160.066,-1358 157.024,-1355.32 154.085,-1352.46 151.252,-1349.45"/>
<polygon fill="none" stroke="midnightblue" points="211.362,-1402.63 218.115,-1410.79 217.926,-1400.2 211.362,-1402.63"/>
</g>
<!-- Node10 -->
<g id="node10" class="node"><title>Node10</title>
<g id="a_node10"><a xlink:href="../../d3/de7/class_vector3.html" target="_top" xlink:title="Utility Class.">
<polygon fill="white" stroke="black" points="14.5656,-1405.5 14.5656,-1616.5 87.5656,-1616.5 87.5656,-1405.5 14.5656,-1405.5"/>
<text text-anchor="middle" x="51.0656" y="-1604.5" font-family="Helvetica,sans-Serif" font-size="10.00">Vector3</text>
<polyline fill="none" stroke="black" points="14.5656,-1597.5 87.5656,-1597.5 "/>
<text text-anchor="middle" x="51.0656" y="-1585.5" font-family="Helvetica,sans-Serif" font-size="10.00"> </text>
<polyline fill="none" stroke="black" points="14.5656,-1578.5 87.5656,-1578.5 "/>
<text text-anchor="start" x="22.5656" y="-1566.5" font-family="Helvetica,sans-Serif" font-size="10.00">+ Vector3()</text>
<text text-anchor="start" x="22.5656" y="-1555.5" font-family="Helvetica,sans-Serif" font-size="10.00">+ Vector3()</text>
<text text-anchor="start" x="22.5656" y="-1544.5" font-family="Helvetica,sans-Serif" font-size="10.00">+ Vector3()</text>
<text text-anchor="start" x="22.5656" y="-1533.5" font-family="Helvetica,sans-Serif" font-size="10.00">+ Vector3()</text>
<text text-anchor="start" x="22.5656" y="-1522.5" font-family="Helvetica,sans-Serif" font-size="10.00">+ Vector3()</text>
<text text-anchor="start" x="22.5656" y="-1511.5" font-family="Helvetica,sans-Serif" font-size="10.00">+ operator+()</text>
<text text-anchor="start" x="22.5656" y="-1500.5" font-family="Helvetica,sans-Serif" font-size="10.00">+ operator&#45;()</text>
<text text-anchor="start" x="22.5656" y="-1489.5" font-family="Helvetica,sans-Serif" font-size="10.00">+ operator*()</text>
<text text-anchor="start" x="22.5656" y="-1478.5" font-family="Helvetica,sans-Serif" font-size="10.00">+ operator/()</text>
<text text-anchor="start" x="22.5656" y="-1467.5" font-family="Helvetica,sans-Serif" font-size="10.00">+ operator*()</text>
<text text-anchor="start" x="22.5656" y="-1456.5" font-family="Helvetica,sans-Serif" font-size="10.00">+ operator*()</text>
<text text-anchor="start" x="22.5656" y="-1445.5" font-family="Helvetica,sans-Serif" font-size="10.00">+ toString()</text>
<text text-anchor="start" x="22.5656" y="-1434.5" font-family="Helvetica,sans-Serif" font-size="10.00">+ toEigen()</text>
<text text-anchor="start" x="22.5656" y="-1423.5" font-family="Helvetica,sans-Serif" font-size="10.00">+ zero()</text>
<text text-anchor="start" x="22.5656" y="-1412.5" font-family="Helvetica,sans-Serif" font-size="10.00">+ one()</text>
</a>
</g>
</g>
<!-- Node10&#45;&gt;Node4 -->
<g id="edge11" class="edge"><title>Node10&#45;&gt;Node4</title>
<path fill="none" stroke="#404040" d="M25.4663,-1405.22C-0.858811,-1273.61 -26.9422,-1044.63 60.0656,-876 91.2127,-815.635 147.806,-862.478 212.36,-828.938"/>
<polygon fill="none" stroke="#404040" points="212.429,-828.898 215.587,-822.415 222.786,-822.836 219.628,-829.319 212.429,-828.898"/>
<text text-anchor="middle" x="35.5656" y="-1131" font-family="Helvetica,sans-Serif" font-size="10.00"> &#45;m_colorRed</text>
<text text-anchor="middle" x="35.5656" y="-1120" font-family="Helvetica,sans-Serif" font-size="10.00">&#45;m_colorGreen</text>
<text text-anchor="middle" x="35.5656" y="-1109" font-family="Helvetica,sans-Serif" font-size="10.00">&#45;m_colorYellow</text>
</g>
<!-- Node10&#45;&gt;Node8 -->
<g id="edge9" class="edge"><title>Node10&#45;&gt;Node8</title>
<path fill="none" stroke="#404040" d="M87.8015,-1462.64C109.885,-1433.26 137.908,-1394.31 160.066,-1358 168.606,-1344 177.063,-1328.41 184.562,-1313.8"/>
<polygon fill="none" stroke="#404040" points="184.679,-1313.57 183.818,-1306.41 190.095,-1302.86 190.956,-1310.02 184.679,-1313.57"/>
<text text-anchor="middle" x="173.066" y="-1379" font-family="Helvetica,sans-Serif" font-size="10.00"> &#45;m_rotation</text>
</g>
<!-- Node10&#45;&gt;Node13 -->
<g id="edge15" class="edge"><title>Node10&#45;&gt;Node13</title>
<path fill="none" stroke="#404040" d="M48.0754,-1405.38C48.9205,-1395.4 50.2045,-1385.47 52.0656,-1376 52.4918,-1373.83 52.9571,-1371.65 53.4578,-1369.46"/>
<polygon fill="none" stroke="#404040" points="53.4856,-1369.35 51.0926,-1362.55 56.4514,-1357.73 58.8444,-1364.53 53.4856,-1369.35"/>
<text text-anchor="middle" x="88.5656" y="-1379" font-family="Helvetica,sans-Serif" font-size="10.00"> #m_diffuseColor</text>
</g>
<!-- Node11 -->
<g id="node11" class="node"><title>Node11</title>
<g id="a_node11"><a xlink:href="../../df/d32/struct_vector3_1_1_position.html" target="_top" xlink:title=" ">
<polygon fill="white" stroke="black" points="5.06565,-1664.5 5.06565,-1743.5 97.0656,-1743.5 97.0656,-1664.5 5.06565,-1664.5"/>
<text text-anchor="middle" x="51.0656" y="-1731.5" font-family="Helvetica,sans-Serif" font-size="10.00">Vector3::Position</text>
<polyline fill="none" stroke="black" points="5.06565,-1724.5 97.0656,-1724.5 "/>
<text text-anchor="start" x="13.0656" y="-1712.5" font-family="Helvetica,sans-Serif" font-size="10.00">+ x</text>
<text text-anchor="start" x="13.0656" y="-1701.5" font-family="Helvetica,sans-Serif" font-size="10.00">+ y</text>
<text text-anchor="start" x="13.0656" y="-1690.5" font-family="Helvetica,sans-Serif" font-size="10.00">+ z</text>
<polyline fill="none" stroke="black" points="5.06565,-1683.5 97.0656,-1683.5 "/>
<text text-anchor="middle" x="51.0656" y="-1671.5" font-family="Helvetica,sans-Serif" font-size="10.00"> </text>
</a>
</g>
</g>
<!-- Node11&#45;&gt;Node10 -->
<g id="edge10" class="edge"><title>Node11&#45;&gt;Node10</title>
<path fill="none" stroke="#404040" d="M51.0656,-1664.35C51.0656,-1653.69 51.0656,-1641.55 51.0656,-1628.88"/>
<polygon fill="none" stroke="#404040" points="51.0657,-1628.6 47.0657,-1622.6 51.0656,-1616.6 55.0657,-1622.6 51.0657,-1628.6"/>
<text text-anchor="middle" x="70.5656" y="-1638" font-family="Helvetica,sans-Serif" font-size="10.00"> +m_xyz</text>
</g>
<!-- Node12 -->
<g id="node12" class="node"><title>Node12</title>
<g id="a_node12"><a xlink:href="../../d2/d8d/class_plane.html" target="_top" xlink:title="plane mesh">
<polygon fill="white" stroke="black" points="69.0656,-948 69.0656,-1016 131.066,-1016 131.066,-948 69.0656,-948"/>
<text text-anchor="middle" x="100.066" y="-1004" font-family="Helvetica,sans-Serif" font-size="10.00">Plane</text>
<polyline fill="none" stroke="black" points="69.0656,-997 131.066,-997 "/>
<text text-anchor="middle" x="100.066" y="-985" font-family="Helvetica,sans-Serif" font-size="10.00"> </text>
<polyline fill="none" stroke="black" points="69.0656,-978 131.066,-978 "/>
<text text-anchor="start" x="77.0656" y="-966" font-family="Helvetica,sans-Serif" font-size="10.00">+ Plane()</text>
<text text-anchor="start" x="77.0656" y="-955" font-family="Helvetica,sans-Serif" font-size="10.00">+ ~Plane()</text>
</a>
</g>
</g>
<!-- Node12&#45;&gt;Node4 -->
<g id="edge12" class="edge"><title>Node12&#45;&gt;Node4</title>
<path fill="none" stroke="#404040" d="M89.5024,-947.943C82.1788,-917.979 77.4806,-874.431 101.066,-847 131.889,-811.149 166.285,-850.465 212.147,-828.805"/>
<polygon fill="none" stroke="#404040" points="212.316,-828.709 215.56,-822.268 222.752,-822.785 219.509,-829.226 212.316,-828.709"/>
<text text-anchor="middle" x="132.066" y="-850" font-family="Helvetica,sans-Serif" font-size="10.00"> &#45;m_meshGrid</text>
</g>
<!-- Node13&#45;&gt;Node12 -->
<g id="edge13" class="edge"><title>Node13&#45;&gt;Node12</title>
<path fill="none" stroke="midnightblue" d="M99.4656,-1147.12C99.6371,-1100.2 99.8251,-1048.78 99.9441,-1016.23"/>
<polygon fill="none" stroke="midnightblue" points="95.9648,-1147.36 99.4281,-1157.37 102.965,-1147.39 95.9648,-1147.36"/>
</g>
<!-- Node14 -->
<g id="node14" class="node"><title>Node14</title>
<g id="a_node14"><a xlink:href="../../de/dbb/class_tracker.html" target="_top" xlink:title="Prototype class for implemetation &#45; holds virtual methods.">
<polygon fill="white" stroke="black" points="766.066,-540.5 766.066,-828.5 916.066,-828.5 916.066,-540.5 766.066,-540.5"/>
<text text-anchor="middle" x="841.066" y="-816.5" font-family="Helvetica,sans-Serif" font-size="10.00">Tracker</text>
<polyline fill="none" stroke="black" points="766.066,-809.5 916.066,-809.5 "/>
<text text-anchor="start" x="774.066" y="-797.5" font-family="Helvetica,sans-Serif" font-size="10.00"># m_isDataAvailable</text>
<text text-anchor="start" x="774.066" y="-786.5" font-family="Helvetica,sans-Serif" font-size="10.00"># m_hasSkeletonPoolChanged</text>
<text text-anchor="start" x="774.066" y="-775.5" font-family="Helvetica,sans-Serif" font-size="10.00"># m_trackingThread</text>
<text text-anchor="start" x="774.066" y="-764.5" font-family="Helvetica,sans-Serif" font-size="10.00"># m_skeletonPool</text>
<text text-anchor="start" x="774.066" y="-753.5" font-family="Helvetica,sans-Serif" font-size="10.00"># m_skeletonPoolCache</text>
<text text-anchor="start" x="774.066" y="-742.5" font-family="Helvetica,sans-Serif" font-size="10.00"># m_idCam</text>
<text text-anchor="start" x="774.066" y="-731.5" font-family="Helvetica,sans-Serif" font-size="10.00"># m_trackingCycles</text>
<text text-anchor="start" x="774.066" y="-720.5" font-family="Helvetica,sans-Serif" font-size="10.00"># m_offsetMatrix</text>
<text text-anchor="start" x="774.066" y="-709.5" font-family="Helvetica,sans-Serif" font-size="10.00"># m_skeletonPoolLock</text>
<polyline fill="none" stroke="black" points="766.066,-702.5 916.066,-702.5 "/>
<text text-anchor="start" x="774.066" y="-690.5" font-family="Helvetica,sans-Serif" font-size="10.00">+ Tracker()</text>
<text text-anchor="start" x="774.066" y="-679.5" font-family="Helvetica,sans-Serif" font-size="10.00">+ start()</text>
<text text-anchor="start" x="774.066" y="-668.5" font-family="Helvetica,sans-Serif" font-size="10.00">+ stop()</text>
<text text-anchor="start" x="774.066" y="-657.5" font-family="Helvetica,sans-Serif" font-size="10.00">+ destroy()</text>
<text text-anchor="start" x="774.066" y="-646.5" font-family="Helvetica,sans-Serif" font-size="10.00">+ disable()</text>
<text text-anchor="start" x="774.066" y="-635.5" font-family="Helvetica,sans-Serif" font-size="10.00">+ enable()</text>
<text text-anchor="start" x="774.066" y="-624.5" font-family="Helvetica,sans-Serif" font-size="10.00">+ clean()</text>
<text text-anchor="start" x="774.066" y="-613.5" font-family="Helvetica,sans-Serif" font-size="10.00">+ isDataAvailable()</text>
<text text-anchor="start" x="774.066" y="-602.5" font-family="Helvetica,sans-Serif" font-size="10.00">+ resetIsDataAvailable()</text>
<text text-anchor="start" x="774.066" y="-591.5" font-family="Helvetica,sans-Serif" font-size="10.00">+ hasSkeletonPoolChanged()</text>
<text text-anchor="start" x="774.066" y="-580.5" font-family="Helvetica,sans-Serif" font-size="10.00">and 9 more...</text>
<text text-anchor="start" x="774.066" y="-569.5" font-family="Helvetica,sans-Serif" font-size="10.00"># init()</text>
<text text-anchor="start" x="774.066" y="-558.5" font-family="Helvetica,sans-Serif" font-size="10.00"># update()</text>
<text text-anchor="start" x="774.066" y="-547.5" font-family="Helvetica,sans-Serif" font-size="10.00"># track()</text>
</a>
</g>
</g>
<!-- Node14&#45;&gt;Node2 -->
<g id="edge17" class="edge"><title>Node14&#45;&gt;Node2</title>
<path fill="none" stroke="#404040" d="M765.889,-551.852C762.678,-547.778 759.402,-543.814 756.066,-540 696.758,-472.186 615.251,-409.861 553.747,-367.41"/>
<polygon fill="none" stroke="#404040" points="553.569,-367.289 546.359,-367.198 543.669,-360.508 550.879,-360.598 553.569,-367.289"/>
<text text-anchor="middle" x="780.566" y="-514" font-family="Helvetica,sans-Serif" font-size="10.00"> &#45;m_selectedTracker</text>
</g>
<!-- Node15 -->
<g id="node15" class="node"><title>Node15</title>
<g id="a_node15"><a xlink:href="../../d4/d92/struct_tracker_1_1_properties.html" target="_top" xlink:title=" ">
<polygon fill="white" stroke="black" points="777.566,-915 777.566,-1049 904.566,-1049 904.566,-915 777.566,-915"/>
<text text-anchor="middle" x="841.066" y="-1037" font-family="Helvetica,sans-Serif" font-size="10.00">Tracker::Properties</text>
<polyline fill="none" stroke="black" points="777.566,-1030 904.566,-1030 "/>
<text text-anchor="start" x="785.566" y="-1018" font-family="Helvetica,sans-Serif" font-size="10.00">+ id</text>
<text text-anchor="start" x="785.566" y="-1007" font-family="Helvetica,sans-Serif" font-size="10.00">+ name</text>
<text text-anchor="start" x="785.566" y="-996" font-family="Helvetica,sans-Serif" font-size="10.00">+ isTracking</text>
<text text-anchor="start" x="785.566" y="-985" font-family="Helvetica,sans-Serif" font-size="10.00">+ isEnabled</text>
<text text-anchor="start" x="785.566" y="-974" font-family="Helvetica,sans-Serif" font-size="10.00">+ countDetectedSkeleton</text>
<text text-anchor="start" x="785.566" y="-963" font-family="Helvetica,sans-Serif" font-size="10.00">+ positionOffset</text>
<text text-anchor="start" x="785.566" y="-952" font-family="Helvetica,sans-Serif" font-size="10.00">+ rotationOffset</text>
<text text-anchor="start" x="785.566" y="-941" font-family="Helvetica,sans-Serif" font-size="10.00">+ scaleOffset</text>
<polyline fill="none" stroke="black" points="777.566,-934 904.566,-934 "/>
<text text-anchor="middle" x="841.066" y="-922" font-family="Helvetica,sans-Serif" font-size="10.00"> </text>
</a>
</g>
</g>
<!-- Node15&#45;&gt;Node14 -->
<g id="edge18" class="edge"><title>Node15&#45;&gt;Node14</title>
<path fill="none" stroke="#404040" d="M841.066,-914.684C841.066,-892.576 841.066,-866.93 841.066,-840.966"/>
<polygon fill="none" stroke="#404040" points="841.066,-840.619 837.066,-834.619 841.066,-828.619 845.066,-834.619 841.066,-840.619"/>
<text text-anchor="middle" x="873.566" y="-850" font-family="Helvetica,sans-Serif" font-size="10.00"> #m_properties</text>
</g>
<!-- Node16&#45;&gt;Node2 -->
<g id="edge19" class="edge"><title>Node16&#45;&gt;Node2</title>
<path fill="none" stroke="#404040" d="M636.34,-628.135C613.342,-585.302 580.317,-523.793 549.462,-466.326"/>
<polygon fill="none" stroke="#404040" points="549.405,-466.22 543.043,-462.826 543.729,-455.648 550.091,-459.042 549.405,-466.22"/>
<text text-anchor="middle" x="635.066" y="-514" font-family="Helvetica,sans-Serif" font-size="10.00"> &#45;m_createTrackerWindow</text>
</g>
<!-- Node17 -->
<g id="node17" class="node"><title>Node17</title>
<g id="a_node17"><a xlink:title=" ">
<polygon fill="white" stroke="#bfbfbf" points="640.566,-953.5 640.566,-1010.5 691.566,-1010.5 691.566,-953.5 640.566,-953.5"/>
<text text-anchor="middle" x="666.066" y="-998.5" font-family="Helvetica,sans-Serif" font-size="10.00">QDialog</text>
<polyline fill="none" stroke="#bfbfbf" points="640.566,-991.5 691.566,-991.5 "/>
<text text-anchor="middle" x="666.066" y="-979.5" font-family="Helvetica,sans-Serif" font-size="10.00"> </text>
<polyline fill="none" stroke="#bfbfbf" points="640.566,-972.5 691.566,-972.5 "/>
<text text-anchor="middle" x="666.066" y="-960.5" font-family="Helvetica,sans-Serif" font-size="10.00"> </text>
</a>
</g>
</g>
<!-- Node17&#45;&gt;Node16 -->
<g id="edge20" class="edge"><title>Node17&#45;&gt;Node16</title>
<path fill="none" stroke="midnightblue" d="M666.066,-943.145C666.066,-891.756 666.066,-799.569 666.066,-740.531"/>
<polygon fill="none" stroke="midnightblue" points="662.566,-943.465 666.066,-953.465 669.566,-943.465 662.566,-943.465"/>
</g>
</g>
</svg>
