<?xml version="1.0" encoding="UTF-8" standalone="no"?>
<!DOCTYPE svg PUBLIC "-//W3C//DTD SVG 1.1//EN"
 "http://www.w3.org/Graphics/SVG/1.1/DTD/svg11.dtd">
<!-- Generated by graphviz version 2.38.0 (20140413.2041)
 -->
<!-- Title: C:/dev/projects/MotionHub/src/TrackerManagement/xs_udpserver.h Pages: 1 -->
<svg width="772pt" height="330pt"
 viewBox="0.00 0.00 772.00 330.00" xmlns="http://www.w3.org/2000/svg" xmlns:xlink="http://www.w3.org/1999/xlink">
<g id="graph0" class="graph" transform="scale(1 1) rotate(0) translate(4 326)">
<title>C:/dev/projects/MotionHub/src/TrackerManagement/xs_udpserver.h</title>
<polygon fill="white" stroke="none" points="-4,4 -4,-326 768,-326 768,4 -4,4"/>
<!-- Node1 -->
<g id="node1" class="node"><title>Node1</title>
<g id="a_node1"><a xlink:title=" ">
<polygon fill="#bfbfbf" stroke="black" points="327.5,-280.5 327.5,-321.5 458.5,-321.5 458.5,-280.5 327.5,-280.5"/>
<text text-anchor="start" x="335.5" y="-309.5" font-family="Helvetica,sans-Serif" font-size="10.00">C:/dev/projects/MotionHub</text>
<text text-anchor="start" x="335.5" y="-298.5" font-family="Helvetica,sans-Serif" font-size="10.00">/src/TrackerManagement</text>
<text text-anchor="middle" x="393" y="-287.5" font-family="Helvetica,sans-Serif" font-size="10.00">/xs_udpserver.h</text>
</a>
</g>
</g>
<!-- Node2 -->
<g id="node2" class="node"><title>Node2</title>
<g id="a_node2"><a xlink:href="../../dd/dce/xs__streamer_8h.html" target="_top" xlink:title=" ">
<polygon fill="white" stroke="black" points="241.5,-56.5 241.5,-75.5 320.5,-75.5 320.5,-56.5 241.5,-56.5"/>
<text text-anchor="middle" x="281" y="-63.5" font-family="Helvetica,sans-Serif" font-size="10.00">xs_streamer.h</text>
</a>
</g>
</g>
<!-- Node1&#45;&gt;Node2 -->
<g id="edge1" class="edge"><title>Node1&#45;&gt;Node2</title>
<path fill="none" stroke="midnightblue" d="M366.276,-280.441C354.586,-270.662 341.604,-257.945 333,-244 301.108,-192.309 287.931,-120.071 283.242,-86.0939"/>
<polygon fill="midnightblue" stroke="midnightblue" points="286.662,-85.2427 281.921,-75.7677 279.718,-86.1311 286.662,-85.2427"/>
</g>
<!-- Node7 -->
<g id="node7" class="node"><title>Node7</title>
<g id="a_node7"><a xlink:href="../../d0/d2a/xs__parsermanager_8h.html" target="_top" xlink:title=" ">
<polygon fill="white" stroke="black" points="113.5,-224.5 113.5,-243.5 218.5,-243.5 218.5,-224.5 113.5,-224.5"/>
<text text-anchor="middle" x="166" y="-231.5" font-family="Helvetica,sans-Serif" font-size="10.00">xs_parsermanager.h</text>
</a>
</g>
</g>
<!-- Node1&#45;&gt;Node7 -->
<g id="edge6" class="edge"><title>Node1&#45;&gt;Node7</title>
<path fill="none" stroke="midnightblue" d="M327.342,-281.199C288.064,-269.952 239.429,-256.026 205.884,-246.42"/>
<polygon fill="midnightblue" stroke="midnightblue" points="206.562,-242.974 195.985,-243.586 204.635,-249.704 206.562,-242.974"/>
</g>
<!-- Node11 -->
<g id="node11" class="node"><title>Node11</title>
<g id="a_node11"><a xlink:href="../../d3/ddb/xs__quaterniondatagram_8h.html" target="_top" xlink:title=" ">
<polygon fill="white" stroke="black" points="160,-168.5 160,-187.5 286,-187.5 286,-168.5 160,-168.5"/>
<text text-anchor="middle" x="223" y="-175.5" font-family="Helvetica,sans-Serif" font-size="10.00">xs_quaterniondatagram.h</text>
</a>
</g>
</g>
<!-- Node1&#45;&gt;Node11 -->
<g id="edge20" class="edge"><title>Node1&#45;&gt;Node11</title>
<path fill="none" stroke="midnightblue" d="M357.27,-280.272C339.611,-270.078 318.233,-257.06 300,-244 278.16,-228.357 254.815,-208.092 239.629,-194.38"/>
<polygon fill="midnightblue" stroke="midnightblue" points="241.84,-191.659 232.093,-187.506 237.123,-196.831 241.84,-191.659"/>
</g>
<!-- Node12 -->
<g id="node12" class="node"><title>Node12</title>
<g id="a_node12"><a xlink:href="../../d6/de6/xs__scaledatagram_8h.html" target="_top" xlink:title=" ">
<polygon fill="white" stroke="black" points="0,-168.5 0,-187.5 104,-187.5 104,-168.5 0,-168.5"/>
<text text-anchor="middle" x="52" y="-175.5" font-family="Helvetica,sans-Serif" font-size="10.00">xs_scaledatagram.h</text>
</a>
</g>
</g>
<!-- Node1&#45;&gt;Node12 -->
<g id="edge21" class="edge"><title>Node1&#45;&gt;Node12</title>
<path fill="none" stroke="midnightblue" d="M327.279,-299.963C265.51,-297.13 172.557,-285.443 104,-244 85.1301,-232.593 70.2817,-211.694 61.3641,-196.669"/>
<polygon fill="midnightblue" stroke="midnightblue" points="64.3305,-194.803 56.3779,-187.803 58.2292,-198.235 64.3305,-194.803"/>
</g>
<!-- Node13 -->
<g id="node13" class="node"><title>Node13</title>
<g id="a_node13"><a xlink:title=" ">
<polygon fill="white" stroke="#bfbfbf" points="342,-224.5 342,-243.5 444,-243.5 444,-224.5 342,-224.5"/>
<text text-anchor="middle" x="393" y="-231.5" font-family="Helvetica,sans-Serif" font-size="10.00">xstypes/xssocket.h</text>
</a>
</g>
</g>
<!-- Node1&#45;&gt;Node13 -->
<g id="edge18" class="edge"><title>Node1&#45;&gt;Node13</title>
<path fill="none" stroke="midnightblue" d="M393,-280.498C393,-272.065 393,-262.235 393,-253.874"/>
<polygon fill="midnightblue" stroke="midnightblue" points="396.5,-253.652 393,-243.652 389.5,-253.653 396.5,-253.652"/>
</g>
<!-- Node14 -->
<g id="node14" class="node"><title>Node14</title>
<g id="a_node14"><a xlink:title=" ">
<polygon fill="white" stroke="#bfbfbf" points="462,-224.5 462,-243.5 562,-243.5 562,-224.5 462,-224.5"/>
<text text-anchor="middle" x="512" y="-231.5" font-family="Helvetica,sans-Serif" font-size="10.00">xstypes/xsthread.h</text>
</a>
</g>
</g>
<!-- Node1&#45;&gt;Node14 -->
<g id="edge19" class="edge"><title>Node1&#45;&gt;Node14</title>
<path fill="none" stroke="midnightblue" d="M428.704,-280.498C447.475,-270.245 470.03,-257.925 486.932,-248.693"/>
<polygon fill="midnightblue" stroke="midnightblue" points="489.061,-251.518 496.159,-243.652 485.705,-245.375 489.061,-251.518"/>
</g>
<!-- Node15 -->
<g id="node15" class="node"><title>Node15</title>
<g id="a_node15"><a xlink:title=" ">
<polygon fill="white" stroke="#bfbfbf" points="580,-224.5 580,-243.5 638,-243.5 638,-224.5 580,-224.5"/>
<text text-anchor="middle" x="609" y="-231.5" font-family="Helvetica,sans-Serif" font-size="10.00">functional</text>
</a>
</g>
</g>
<!-- Node1&#45;&gt;Node15 -->
<g id="edge22" class="edge"><title>Node1&#45;&gt;Node15</title>
<path fill="none" stroke="midnightblue" d="M457.807,-280.498C494.698,-269.396 539.639,-255.872 570.892,-246.468"/>
<polygon fill="midnightblue" stroke="midnightblue" points="571.964,-249.8 580.531,-243.567 569.947,-243.097 571.964,-249.8"/>
</g>
<!-- Node16 -->
<g id="node16" class="node"><title>Node16</title>
<g id="a_node16"><a xlink:title=" ">
<polygon fill="white" stroke="#bfbfbf" points="656,-224.5 656,-243.5 700,-243.5 700,-224.5 656,-224.5"/>
<text text-anchor="middle" x="678" y="-231.5" font-family="Helvetica,sans-Serif" font-size="10.00">mutex</text>
</a>
</g>
</g>
<!-- Node1&#45;&gt;Node16 -->
<g id="edge23" class="edge"><title>Node1&#45;&gt;Node16</title>
<path fill="none" stroke="midnightblue" d="M458.533,-286.784C507.679,-276.59 576.791,-261.656 645.941,-244.151"/>
<polygon fill="midnightblue" stroke="midnightblue" points="646.871,-247.526 655.697,-241.665 645.142,-240.743 646.871,-247.526"/>
</g>
<!-- Node17 -->
<g id="node17" class="node"><title>Node17</title>
<g id="a_node17"><a xlink:title=" ">
<polygon fill="white" stroke="#bfbfbf" points="718,-224.5 718,-243.5 764,-243.5 764,-224.5 718,-224.5"/>
<text text-anchor="middle" x="741" y="-231.5" font-family="Helvetica,sans-Serif" font-size="10.00">atomic</text>
</a>
</g>
</g>
<!-- Node1&#45;&gt;Node17 -->
<g id="edge24" class="edge"><title>Node1&#45;&gt;Node17</title>
<path fill="none" stroke="midnightblue" d="M458.742,-290.29C520.669,-280.704 616.179,-264.79 707.979,-244.049"/>
<polygon fill="midnightblue" stroke="midnightblue" points="709.027,-247.4 717.998,-241.763 707.47,-240.575 709.027,-247.4"/>
</g>
<!-- Node3 -->
<g id="node3" class="node"><title>Node3</title>
<g id="a_node3"><a xlink:title=" ">
<polygon fill="white" stroke="#bfbfbf" points="59,-0.5 59,-19.5 111,-19.5 111,-0.5 59,-0.5"/>
<text text-anchor="middle" x="85" y="-7.5" font-family="Helvetica,sans-Serif" font-size="10.00">memory</text>
</a>
</g>
</g>
<!-- Node2&#45;&gt;Node3 -->
<g id="edge2" class="edge"><title>Node2&#45;&gt;Node3</title>
<path fill="none" stroke="midnightblue" d="M249.943,-56.4435C214.917,-46.7934 158.035,-31.122 121.07,-20.9377"/>
<polygon fill="midnightblue" stroke="midnightblue" points="121.778,-17.5022 111.207,-18.2203 119.918,-24.2508 121.778,-17.5022"/>
</g>
<!-- Node4 -->
<g id="node4" class="node"><title>Node4</title>
<g id="a_node4"><a xlink:title=" ">
<polygon fill="white" stroke="#bfbfbf" points="152,-0.5 152,-19.5 206,-19.5 206,-0.5 152,-0.5"/>
<text text-anchor="middle" x="179" y="-7.5" font-family="Helvetica,sans-Serif" font-size="10.00">iostream</text>
</a>
</g>
</g>
<!-- Node2&#45;&gt;Node4 -->
<g id="edge3" class="edge"><title>Node2&#45;&gt;Node4</title>
<path fill="none" stroke="midnightblue" d="M264.612,-56.324C248.329,-47.7034 223.133,-34.3643 204.284,-24.3855"/>
<polygon fill="midnightblue" stroke="midnightblue" points="205.823,-21.2402 195.347,-19.6545 202.548,-27.4267 205.823,-21.2402"/>
</g>
<!-- Node5 -->
<g id="node5" class="node"><title>Node5</title>
<g id="a_node5"><a xlink:title=" ">
<polygon fill="white" stroke="#bfbfbf" points="356,-0.5 356,-19.5 408,-19.5 408,-0.5 356,-0.5"/>
<text text-anchor="middle" x="382" y="-7.5" font-family="Helvetica,sans-Serif" font-size="10.00">sstream</text>
</a>
</g>
</g>
<!-- Node2&#45;&gt;Node5 -->
<g id="edge4" class="edge"><title>Node2&#45;&gt;Node5</title>
<path fill="none" stroke="midnightblue" d="M297.227,-56.324C313.351,-47.7034 338.3,-34.3643 356.964,-24.3855"/>
<polygon fill="midnightblue" stroke="midnightblue" points="358.644,-27.456 365.813,-19.6545 355.344,-21.283 358.644,-27.456"/>
</g>
<!-- Node6 -->
<g id="node6" class="node"><title>Node6</title>
<g id="a_node6"><a xlink:title=" ">
<polygon fill="white" stroke="#bfbfbf" points="224.5,-0.5 224.5,-19.5 337.5,-19.5 337.5,-0.5 224.5,-0.5"/>
<text text-anchor="middle" x="281" y="-7.5" font-family="Helvetica,sans-Serif" font-size="10.00">xstypes/xsbytearray.h</text>
</a>
</g>
</g>
<!-- Node2&#45;&gt;Node6 -->
<g id="edge5" class="edge"><title>Node2&#45;&gt;Node6</title>
<path fill="none" stroke="midnightblue" d="M281,-56.083C281,-49.0059 281,-38.8611 281,-29.9865"/>
<polygon fill="midnightblue" stroke="midnightblue" points="284.5,-29.751 281,-19.7511 277.5,-29.7511 284.5,-29.751"/>
</g>
<!-- Node8 -->
<g id="node8" class="node"><title>Node8</title>
<g id="a_node8"><a xlink:href="../../d1/d43/xs__datagram_8h.html" target="_top" xlink:title=" ">
<polygon fill="white" stroke="black" points="123.5,-112.5 123.5,-131.5 204.5,-131.5 204.5,-112.5 123.5,-112.5"/>
<text text-anchor="middle" x="164" y="-119.5" font-family="Helvetica,sans-Serif" font-size="10.00">xs_datagram.h</text>
</a>
</g>
</g>
<!-- Node7&#45;&gt;Node8 -->
<g id="edge7" class="edge"><title>Node7&#45;&gt;Node8</title>
<path fill="none" stroke="midnightblue" d="M162.144,-224.249C158.442,-215.333 153.111,-201.006 151,-188 148.437,-172.203 152.494,-154.388 156.736,-141.409"/>
<polygon fill="midnightblue" stroke="midnightblue" points="160.103,-142.389 160.201,-131.794 153.518,-140.015 160.103,-142.389"/>
</g>
<!-- Node7&#45;&gt;Node11 -->
<g id="edge14" class="edge"><title>Node7&#45;&gt;Node11</title>
<path fill="none" stroke="midnightblue" d="M175.158,-224.324C183.501,-216.42 196.032,-204.548 206.177,-194.938"/>
<polygon fill="midnightblue" stroke="midnightblue" points="208.823,-197.252 213.675,-187.834 204.009,-192.171 208.823,-197.252"/>
</g>
<!-- Node7&#45;&gt;Node12 -->
<g id="edge16" class="edge"><title>Node7&#45;&gt;Node12</title>
<path fill="none" stroke="midnightblue" d="M147.936,-224.444C129.425,-215.675 100.419,-201.935 79.1445,-191.858"/>
<polygon fill="midnightblue" stroke="midnightblue" points="80.5148,-188.634 69.9791,-187.516 77.5182,-194.96 80.5148,-188.634"/>
</g>
<!-- Node8&#45;&gt;Node2 -->
<g id="edge13" class="edge"><title>Node8&#45;&gt;Node2</title>
<path fill="none" stroke="midnightblue" d="M182.539,-112.444C201.623,-103.636 231.575,-89.8116 253.436,-79.722"/>
<polygon fill="midnightblue" stroke="midnightblue" points="254.935,-82.8849 262.548,-75.5164 252.001,-76.5292 254.935,-82.8849"/>
</g>
<!-- Node8&#45;&gt;Node3 -->
<g id="edge8" class="edge"><title>Node8&#45;&gt;Node3</title>
<path fill="none" stroke="midnightblue" d="M131.014,-112.438C112.537,-105.769 91.0484,-94.4527 80,-76 71.6504,-62.0547 74.2421,-43.3004 78.127,-29.5209"/>
<polygon fill="midnightblue" stroke="midnightblue" points="81.5494,-30.3162 81.3357,-19.7236 74.8971,-28.1376 81.5494,-30.3162"/>
</g>
<!-- Node8&#45;&gt;Node4 -->
<g id="edge9" class="edge"><title>Node8&#45;&gt;Node4</title>
<path fill="none" stroke="midnightblue" d="M172.214,-112.182C179.544,-103.663 189.755,-90.0191 194,-76 198.767,-60.2567 193.627,-41.9746 188.106,-28.8168"/>
<polygon fill="midnightblue" stroke="midnightblue" points="191.168,-27.1015 183.778,-19.5095 184.821,-30.0529 191.168,-27.1015"/>
</g>
<!-- Node8&#45;&gt;Node5 -->
<g id="edge10" class="edge"><title>Node8&#45;&gt;Node5</title>
<path fill="none" stroke="midnightblue" d="M204.788,-117.125C240.302,-112.159 291.921,-100.97 330,-76 348.439,-63.909 363.37,-43.141 372.425,-28.3341"/>
<polygon fill="midnightblue" stroke="midnightblue" points="375.494,-30.0183 377.504,-19.6159 369.446,-26.4944 375.494,-30.0183"/>
</g>
<!-- Node9 -->
<g id="node9" class="node"><title>Node9</title>
<g id="a_node9"><a xlink:title=" ">
<polygon fill="white" stroke="#bfbfbf" points="89.5,-56.5 89.5,-75.5 124.5,-75.5 124.5,-56.5 89.5,-56.5"/>
<text text-anchor="middle" x="107" y="-63.5" font-family="Helvetica,sans-Serif" font-size="10.00">map</text>
</a>
</g>
</g>
<!-- Node8&#45;&gt;Node9 -->
<g id="edge11" class="edge"><title>Node8&#45;&gt;Node9</title>
<path fill="none" stroke="midnightblue" d="M154.842,-112.324C146.499,-104.42 133.968,-92.5482 123.823,-82.9377"/>
<polygon fill="midnightblue" stroke="midnightblue" points="125.991,-80.1705 116.325,-75.8339 121.177,-85.2522 125.991,-80.1705"/>
</g>
<!-- Node10 -->
<g id="node10" class="node"><title>Node10</title>
<g id="a_node10"><a xlink:title=" ">
<polygon fill="white" stroke="#bfbfbf" points="143,-56.5 143,-75.5 185,-75.5 185,-56.5 143,-56.5"/>
<text text-anchor="middle" x="164" y="-63.5" font-family="Helvetica,sans-Serif" font-size="10.00">vector</text>
</a>
</g>
</g>
<!-- Node8&#45;&gt;Node10 -->
<g id="edge12" class="edge"><title>Node8&#45;&gt;Node10</title>
<path fill="none" stroke="midnightblue" d="M164,-112.083C164,-105.006 164,-94.8611 164,-85.9865"/>
<polygon fill="midnightblue" stroke="midnightblue" points="167.5,-85.751 164,-75.7511 160.5,-85.7511 167.5,-85.751"/>
</g>
<!-- Node11&#45;&gt;Node8 -->
<g id="edge15" class="edge"><title>Node11&#45;&gt;Node8</title>
<path fill="none" stroke="midnightblue" d="M213.521,-168.324C204.799,-160.341 191.657,-148.313 181.102,-138.653"/>
<polygon fill="midnightblue" stroke="midnightblue" points="183.392,-136.004 173.652,-131.834 178.666,-141.167 183.392,-136.004"/>
</g>
<!-- Node12&#45;&gt;Node8 -->
<g id="edge17" class="edge"><title>Node12&#45;&gt;Node8</title>
<path fill="none" stroke="midnightblue" d="M69.9947,-168.324C88.0377,-159.625 116.047,-146.12 136.803,-136.113"/>
<polygon fill="midnightblue" stroke="midnightblue" points="138.562,-139.15 146.05,-131.655 135.522,-132.845 138.562,-139.15"/>
</g>
</g>
</svg>
