<?xml version="1.0" encoding="UTF-8" standalone="no"?>
<!DOCTYPE svg PUBLIC "-//W3C//DTD SVG 1.1//EN"
 "http://www.w3.org/Graphics/SVG/1.1/DTD/svg11.dtd">
<!-- Generated by graphviz version 2.38.0 (20140413.2041)
 -->
<!-- Title: OsgLine Pages: 1 -->
<svg width="158pt" height="303pt"
 viewBox="0.00 0.00 158.00 303.00" xmlns="http://www.w3.org/2000/svg" xmlns:xlink="http://www.w3.org/1999/xlink">
<g id="graph0" class="graph" transform="scale(1 1) rotate(0) translate(4 299)">
<title>OsgLine</title>
<polygon fill="white" stroke="none" points="-4,4 -4,-299 154,-299 154,4 -4,4"/>
<!-- Node1 -->
<g id="node1" class="node"><title>Node1</title>
<g id="a_node1"><a xlink:title=" ">
<polygon fill="#bfbfbf" stroke="black" points="24.5,-0.5 24.5,-200.5 125.5,-200.5 125.5,-0.5 24.5,-0.5"/>
<text text-anchor="middle" x="75" y="-188.5" font-family="Helvetica,sans-Serif" font-size="10.00">OsgLine</text>
<polyline fill="none" stroke="black" points="24.5,-181.5 125.5,-181.5 "/>
<text text-anchor="start" x="32.5" y="-169.5" font-family="Helvetica,sans-Serif" font-size="10.00">&#45; m_scale</text>
<text text-anchor="start" x="32.5" y="-158.5" font-family="Helvetica,sans-Serif" font-size="10.00">&#45; m_thickness</text>
<text text-anchor="start" x="32.5" y="-147.5" font-family="Helvetica,sans-Serif" font-size="10.00">&#45; m_geode</text>
<text text-anchor="start" x="32.5" y="-136.5" font-family="Helvetica,sans-Serif" font-size="10.00">&#45; m_geom</text>
<text text-anchor="start" x="32.5" y="-125.5" font-family="Helvetica,sans-Serif" font-size="10.00">&#45; m_colors</text>
<text text-anchor="start" x="32.5" y="-114.5" font-family="Helvetica,sans-Serif" font-size="10.00">&#45; m_drawArrays</text>
<text text-anchor="start" x="32.5" y="-103.5" font-family="Helvetica,sans-Serif" font-size="10.00">&#45; m_vertices</text>
<text text-anchor="start" x="32.5" y="-92.5" font-family="Helvetica,sans-Serif" font-size="10.00">&#45; m_isDirty</text>
<text text-anchor="start" x="32.5" y="-81.5" font-family="Helvetica,sans-Serif" font-size="10.00">&#45; m_isDisplayed</text>
<polyline fill="none" stroke="black" points="24.5,-74.5 125.5,-74.5 "/>
<text text-anchor="start" x="32.5" y="-62.5" font-family="Helvetica,sans-Serif" font-size="10.00">+ OsgLine()</text>
<text text-anchor="start" x="32.5" y="-51.5" font-family="Helvetica,sans-Serif" font-size="10.00">+ ~OsgLine()</text>
<text text-anchor="start" x="32.5" y="-40.5" font-family="Helvetica,sans-Serif" font-size="10.00">+ createGeometry()</text>
<text text-anchor="start" x="32.5" y="-29.5" font-family="Helvetica,sans-Serif" font-size="10.00">+ draw()</text>
<text text-anchor="start" x="32.5" y="-18.5" font-family="Helvetica,sans-Serif" font-size="10.00">+ redraw()</text>
<text text-anchor="start" x="32.5" y="-7.5" font-family="Helvetica,sans-Serif" font-size="10.00">+ clear()</text>
</a>
</g>
</g>
<!-- Node2 -->
<g id="node2" class="node"><title>Node2</title>
<g id="a_node2"><a xlink:title=" ">
<polygon fill="white" stroke="#bfbfbf" points="0,-237.5 0,-294.5 150,-294.5 150,-237.5 0,-237.5"/>
<text text-anchor="middle" x="75" y="-282.5" font-family="Helvetica,sans-Serif" font-size="10.00">osg::PositionAttitudeTransform</text>
<polyline fill="none" stroke="#bfbfbf" points="0,-275.5 150,-275.5 "/>
<text text-anchor="middle" x="75" y="-263.5" font-family="Helvetica,sans-Serif" font-size="10.00"> </text>
<polyline fill="none" stroke="#bfbfbf" points="0,-256.5 150,-256.5 "/>
<text text-anchor="middle" x="75" y="-244.5" font-family="Helvetica,sans-Serif" font-size="10.00"> </text>
</a>
</g>
</g>
<!-- Node2&#45;&gt;Node1 -->
<g id="edge1" class="edge"><title>Node2&#45;&gt;Node1</title>
<path fill="none" stroke="midnightblue" d="M75,-227.04C75,-218.867 75,-209.865 75,-200.549"/>
<polygon fill="none" stroke="midnightblue" points="71.5001,-227.264 75,-237.264 78.5001,-227.264 71.5001,-227.264"/>
</g>
</g>
</svg>
