<?xml version="1.0" encoding="UTF-8" standalone="no"?>
<!DOCTYPE svg PUBLIC "-//W3C//DTD SVG 1.1//EN"
 "http://www.w3.org/Graphics/SVG/1.1/DTD/svg11.dtd">
<!-- Generated by graphviz version 2.38.0 (20140413.2041)
 -->
<!-- Title: Graphical Class Hierarchy Pages: 1 -->
<svg width="276pt" height="420pt"
 viewBox="0.00 0.00 276.00 419.50" xmlns="http://www.w3.org/2000/svg" xmlns:xlink="http://www.w3.org/1999/xlink">
<g id="graph0" class="graph" transform="scale(1 1) rotate(0) translate(4 415.5)">
<title>Graphical Class Hierarchy</title>
<polygon fill="white" stroke="none" points="-4,4 -4,-415.5 272,-415.5 272,4 -4,4"/>
<!-- Node0 -->
<g id="node1" class="node"><title>Node0</title>
<g id="a_node1"><a xlink:href="db/d35/class_datagram.html" target="_top" xlink:title=" ">
<polygon fill="white" stroke="black" points="0,-190.5 0,-209.5 59,-209.5 59,-190.5 0,-190.5"/>
<text text-anchor="middle" x="29.5" y="-197.5" font-family="Helvetica,sans-Serif" font-size="10.00">Datagram</text>
</a>
</g>
</g>
<!-- Node1 -->
<g id="node2" class="node"><title>Node1</title>
<g id="a_node2"><a xlink:href="dd/d6b/class_angular_segment_kinematics_datagram.html" target="_top" xlink:title="a Angular Kinematics datagram (type 0x22)">
<polygon fill="white" stroke="black" points="113,-381 113,-411 250,-411 250,-381 113,-381"/>
<text text-anchor="start" x="121" y="-399" font-family="Helvetica,sans-Serif" font-size="10.00">AngularSegmentKinematics</text>
<text text-anchor="middle" x="181.5" y="-388" font-family="Helvetica,sans-Serif" font-size="10.00">Datagram</text>
</a>
</g>
</g>
<!-- Node0&#45;&gt;Node1 -->
<g id="edge1" class="edge"><title>Node0&#45;&gt;Node1</title>
<path fill="none" stroke="midnightblue" d="M32.3061,-219.846C36.6105,-255.37 50.6866,-329.942 95,-371 100.218,-375.835 106.322,-379.74 112.824,-382.892"/>
<polygon fill="midnightblue" stroke="midnightblue" points="35.7726,-219.345 31.226,-209.776 28.8125,-220.092 35.7726,-219.345"/>
</g>
<!-- Node2 -->
<g id="node3" class="node"><title>Node2</title>
<g id="a_node3"><a xlink:href="d5/da8/class_center_of_mass_datagram.html" target="_top" xlink:title="a Center of Mass datagram (type 0x24)">
<polygon fill="white" stroke="black" points="121,-342.5 121,-361.5 242,-361.5 242,-342.5 121,-342.5"/>
<text text-anchor="middle" x="181.5" y="-349.5" font-family="Helvetica,sans-Serif" font-size="10.00">CenterOfMassDatagram</text>
</a>
</g>
</g>
<!-- Node0&#45;&gt;Node2 -->
<g id="edge2" class="edge"><title>Node0&#45;&gt;Node2</title>
<path fill="none" stroke="midnightblue" d="M34.3934,-219.762C41.2598,-249.166 58.406,-304.07 95,-333 102.515,-338.941 111.509,-343.109 120.8,-346.016"/>
<polygon fill="midnightblue" stroke="midnightblue" points="37.7837,-218.88 32.246,-209.848 30.9424,-220.362 37.7837,-218.88"/>
</g>
<!-- Node3 -->
<g id="node4" class="node"><title>Node3</title>
<g id="a_node4"><a xlink:href="d5/dc1/class_euler_datagram.html" target="_top" xlink:title="a Position &amp; Euler orientation pose datagram (type 01)">
<polygon fill="white" stroke="black" points="141,-304.5 141,-323.5 222,-323.5 222,-304.5 141,-304.5"/>
<text text-anchor="middle" x="181.5" y="-311.5" font-family="Helvetica,sans-Serif" font-size="10.00">EulerDatagram</text>
</a>
</g>
</g>
<!-- Node0&#45;&gt;Node3 -->
<g id="edge3" class="edge"><title>Node0&#45;&gt;Node3</title>
<path fill="none" stroke="midnightblue" d="M38.0922,-218.822C47.8999,-240.65 67.0941,-276.051 95,-295 108.335,-304.054 125.285,-308.868 140.571,-311.401"/>
<polygon fill="midnightblue" stroke="midnightblue" points="41.2942,-217.408 34.1414,-209.592 34.8589,-220.163 41.2942,-217.408"/>
</g>
<!-- Node4 -->
<g id="node5" class="node"><title>Node4</title>
<g id="a_node5"><a xlink:href="df/dd1/class_joint_angles_datagram.html" target="_top" xlink:title="a Joint Angle datagram (type 0x20)">
<polygon fill="white" stroke="black" points="127,-266.5 127,-285.5 236,-285.5 236,-266.5 127,-266.5"/>
<text text-anchor="middle" x="181.5" y="-273.5" font-family="Helvetica,sans-Serif" font-size="10.00">JointAnglesDatagram</text>
</a>
</g>
</g>
<!-- Node0&#45;&gt;Node4 -->
<g id="edge4" class="edge"><title>Node0&#45;&gt;Node4</title>
<path fill="none" stroke="midnightblue" d="M45.6302,-217.474C57.7207,-230.329 75.776,-247.206 95,-257 104.755,-261.97 115.786,-265.647 126.604,-268.366"/>
<polygon fill="midnightblue" stroke="midnightblue" points="47.9066,-214.775 38.594,-209.722 42.7232,-219.479 47.9066,-214.775"/>
</g>
<!-- Node5 -->
<g id="node6" class="node"><title>Node5</title>
<g id="a_node6"><a xlink:href="d9/db3/class_linear_segment_kinematics_datagram.html" target="_top" xlink:title="a Linear Segment Kinematics datagram (type 0x21)">
<polygon fill="white" stroke="black" points="95,-228.5 95,-247.5 268,-247.5 268,-228.5 95,-228.5"/>
<text text-anchor="middle" x="181.5" y="-235.5" font-family="Helvetica,sans-Serif" font-size="10.00">LinearSegmentKinematicsDatagram</text>
</a>
</g>
</g>
<!-- Node0&#45;&gt;Node5 -->
<g id="edge5" class="edge"><title>Node0&#45;&gt;Node5</title>
<path fill="none" stroke="midnightblue" d="M69.0076,-211.807C77.5366,-214.292 86.5508,-216.819 95,-219 107.809,-222.306 121.787,-225.559 134.66,-228.414"/>
<polygon fill="midnightblue" stroke="midnightblue" points="69.8633,-208.41 59.2813,-208.932 67.8789,-215.123 69.8633,-208.41"/>
</g>
<!-- Node6 -->
<g id="node7" class="node"><title>Node6</title>
<g id="a_node7"><a xlink:href="da/d4d/class_meta_datagram.html" target="_top" xlink:title=" ">
<polygon fill="white" stroke="black" points="141.5,-190.5 141.5,-209.5 221.5,-209.5 221.5,-190.5 141.5,-190.5"/>
<text text-anchor="middle" x="181.5" y="-197.5" font-family="Helvetica,sans-Serif" font-size="10.00">MetaDatagram</text>
</a>
</g>
</g>
<!-- Node0&#45;&gt;Node6 -->
<g id="edge6" class="edge"><title>Node0&#45;&gt;Node6</title>
<path fill="none" stroke="midnightblue" d="M69.128,-200C91.2816,-200 119.022,-200 141.274,-200"/>
<polygon fill="midnightblue" stroke="midnightblue" points="69.067,-196.5 59.0669,-200 69.0669,-203.5 69.067,-196.5"/>
</g>
<!-- Node7 -->
<g id="node8" class="node"><title>Node7</title>
<g id="a_node8"><a xlink:href="d0/db5/class_position_datagram.html" target="_top" xlink:title=" ">
<polygon fill="white" stroke="black" points="134.5,-152.5 134.5,-171.5 228.5,-171.5 228.5,-152.5 134.5,-152.5"/>
<text text-anchor="middle" x="181.5" y="-159.5" font-family="Helvetica,sans-Serif" font-size="10.00">PositionDatagram</text>
</a>
</g>
</g>
<!-- Node0&#45;&gt;Node7 -->
<g id="edge7" class="edge"><title>Node0&#45;&gt;Node7</title>
<path fill="none" stroke="midnightblue" d="M69.0076,-188.193C77.5366,-185.708 86.5508,-183.181 95,-181 107.809,-177.694 121.787,-174.441 134.66,-171.586"/>
<polygon fill="midnightblue" stroke="midnightblue" points="67.8789,-184.877 59.2813,-191.068 69.8633,-191.59 67.8789,-184.877"/>
</g>
<!-- Node8 -->
<g id="node9" class="node"><title>Node8</title>
<g id="a_node9"><a xlink:href="de/d22/class_quaternion_datagram.html" target="_top" xlink:title="a Position &amp; Quaternion orientation pose datagram (type 02)">
<polygon fill="white" stroke="black" points="128.5,-114.5 128.5,-133.5 234.5,-133.5 234.5,-114.5 128.5,-114.5"/>
<text text-anchor="middle" x="181.5" y="-121.5" font-family="Helvetica,sans-Serif" font-size="10.00">QuaternionDatagram</text>
</a>
</g>
</g>
<!-- Node0&#45;&gt;Node8 -->
<g id="edge8" class="edge"><title>Node0&#45;&gt;Node8</title>
<path fill="none" stroke="midnightblue" d="M45.6302,-182.526C57.7207,-169.671 75.776,-152.794 95,-143 105.297,-137.754 117.016,-133.948 128.404,-131.19"/>
<polygon fill="midnightblue" stroke="midnightblue" points="42.7232,-180.521 38.594,-190.278 47.9066,-185.225 42.7232,-180.521"/>
</g>
<!-- Node9 -->
<g id="node10" class="node"><title>Node9</title>
<g id="a_node10"><a xlink:href="d8/da5/class_scale_datagram.html" target="_top" xlink:title=" ">
<polygon fill="white" stroke="black" points="140,-76.5 140,-95.5 223,-95.5 223,-76.5 140,-76.5"/>
<text text-anchor="middle" x="181.5" y="-83.5" font-family="Helvetica,sans-Serif" font-size="10.00">ScaleDatagram</text>
</a>
</g>
</g>
<!-- Node0&#45;&gt;Node9 -->
<g id="edge9" class="edge"><title>Node0&#45;&gt;Node9</title>
<path fill="none" stroke="midnightblue" d="M38.0922,-181.178C47.8999,-159.35 67.0941,-123.949 95,-105 108.083,-96.1164 124.647,-91.315 139.704,-88.7451"/>
<polygon fill="midnightblue" stroke="midnightblue" points="34.8589,-179.837 34.1414,-190.408 41.2942,-182.592 34.8589,-179.837"/>
</g>
<!-- Node10 -->
<g id="node11" class="node"><title>Node10</title>
<g id="a_node11"><a xlink:href="d8/d94/class_time_code_datagram.html" target="_top" xlink:title="a Time Code datagram (type 0x25)">
<polygon fill="white" stroke="black" points="130.5,-38.5 130.5,-57.5 232.5,-57.5 232.5,-38.5 130.5,-38.5"/>
<text text-anchor="middle" x="181.5" y="-45.5" font-family="Helvetica,sans-Serif" font-size="10.00">TimeCodeDatagram</text>
</a>
</g>
</g>
<!-- Node0&#45;&gt;Node10 -->
<g id="edge10" class="edge"><title>Node0&#45;&gt;Node10</title>
<path fill="none" stroke="midnightblue" d="M34.3934,-180.238C41.2598,-150.834 58.406,-95.9299 95,-67 105.02,-59.0786 117.67,-54.31 130.145,-51.478"/>
<polygon fill="midnightblue" stroke="midnightblue" points="30.9424,-179.638 32.246,-190.152 37.7837,-181.12 30.9424,-179.638"/>
</g>
<!-- Node11 -->
<g id="node12" class="node"><title>Node11</title>
<g id="a_node12"><a xlink:href="d8/d1d/class_tracker_kinematics_datagram.html" target="_top" xlink:title="Tracker kinematics datagram (type 0x23)">
<polygon fill="white" stroke="black" points="111.5,-0.5 111.5,-19.5 251.5,-19.5 251.5,-0.5 111.5,-0.5"/>
<text text-anchor="middle" x="181.5" y="-7.5" font-family="Helvetica,sans-Serif" font-size="10.00">TrackerKinematicsDatagram</text>
</a>
</g>
</g>
<!-- Node0&#45;&gt;Node11 -->
<g id="edge11" class="edge"><title>Node0&#45;&gt;Node11</title>
<path fill="none" stroke="midnightblue" d="M31.9901,-180.372C35.804,-144.586 49.1438,-68.7659 95,-29 99.8249,-24.8159 105.368,-21.4933 111.264,-18.8621"/>
<polygon fill="midnightblue" stroke="midnightblue" points="28.4905,-180.208 31.0575,-190.487 35.4609,-180.851 28.4905,-180.208"/>
</g>
</g>
</svg>
