<?xml version="1.0" encoding="UTF-8" standalone="no"?>
<!DOCTYPE svg PUBLIC "-//W3C//DTD SVG 1.1//EN"
 "http://www.w3.org/Graphics/SVG/1.1/DTD/svg11.dtd">
<!-- Generated by graphviz version 2.38.0 (20140413.2041)
 -->
<!-- Title: Graphical Class Hierarchy Pages: 1 -->
<svg width="207pt" height="104pt"
 viewBox="0.00 0.00 207.00 104.00" xmlns="http://www.w3.org/2000/svg" xmlns:xlink="http://www.w3.org/1999/xlink">
<g id="graph0" class="graph" transform="scale(1 1) rotate(0) translate(4 100)">
<title>Graphical Class Hierarchy</title>
<polygon fill="white" stroke="none" points="-4,4 -4,-100 203,-100 203,4 -4,4"/>
<!-- Node29 -->
<g id="node1" class="node"><title>Node29</title>
<g id="a_node1"><a xlink:title=" ">
<polygon fill="white" stroke="#bfbfbf" points="0,-38.5 0,-57.5 51,-57.5 51,-38.5 0,-38.5"/>
<text text-anchor="middle" x="25.5" y="-45.5" font-family="Helvetica,sans-Serif" font-size="10.00">QDialog</text>
</a>
</g>
</g>
<!-- Node0 -->
<g id="node2" class="node"><title>Node0</title>
<g id="a_node2"><a xlink:href="d0/dde/class_create_tracker_window.html" target="_top" xlink:title="dialog for creating new trackers">
<polygon fill="white" stroke="black" points="87,-76.5 87,-95.5 199,-95.5 199,-76.5 87,-76.5"/>
<text text-anchor="middle" x="143" y="-83.5" font-family="Helvetica,sans-Serif" font-size="10.00">CreateTrackerWindow</text>
</a>
</g>
</g>
<!-- Node29&#45;&gt;Node0 -->
<g id="edge1" class="edge"><title>Node29&#45;&gt;Node0</title>
<path fill="none" stroke="midnightblue" d="M61.0849,-59.3786C77.5589,-64.7986 97.0477,-71.2105 112.771,-76.3834"/>
<polygon fill="midnightblue" stroke="midnightblue" points="61.8706,-55.9526 51.2776,-56.152 59.6829,-62.6019 61.8706,-55.9526"/>
</g>
<!-- Node31 -->
<g id="node3" class="node"><title>Node31</title>
<g id="a_node3"><a xlink:href="de/d9e/class_settings_window.html" target="_top" xlink:title=" ">
<polygon fill="white" stroke="black" points="99.5,-38.5 99.5,-57.5 186.5,-57.5 186.5,-38.5 99.5,-38.5"/>
<text text-anchor="middle" x="143" y="-45.5" font-family="Helvetica,sans-Serif" font-size="10.00">SettingsWindow</text>
</a>
</g>
</g>
<!-- Node29&#45;&gt;Node31 -->
<g id="edge2" class="edge"><title>Node29&#45;&gt;Node31</title>
<path fill="none" stroke="midnightblue" d="M61.6276,-48C73.4332,-48 86.737,-48 99.0729,-48"/>
<polygon fill="midnightblue" stroke="midnightblue" points="61.2777,-44.5001 51.2776,-48 61.2776,-51.5001 61.2777,-44.5001"/>
</g>
<!-- Node32 -->
<g id="node4" class="node"><title>Node32</title>
<g id="a_node4"><a xlink:href="d9/d2b/class_tracker_mod_window.html" target="_top" xlink:title=" ">
<polygon fill="white" stroke="black" points="92,-0.5 92,-19.5 194,-19.5 194,-0.5 92,-0.5"/>
<text text-anchor="middle" x="143" y="-7.5" font-family="Helvetica,sans-Serif" font-size="10.00">TrackerModWindow</text>
</a>
</g>
</g>
<!-- Node29&#45;&gt;Node32 -->
<g id="edge3" class="edge"><title>Node29&#45;&gt;Node32</title>
<path fill="none" stroke="midnightblue" d="M61.0849,-36.6214C77.5589,-31.2014 97.0477,-24.7895 112.771,-19.6166"/>
<polygon fill="midnightblue" stroke="midnightblue" points="59.6829,-33.3981 51.2776,-39.848 61.8706,-40.0474 59.6829,-33.3981"/>
</g>
</g>
</svg>
