<?xml version="1.0" encoding="UTF-8" standalone="no"?>
<!DOCTYPE svg PUBLIC "-//W3C//DTD SVG 1.1//EN"
 "http://www.w3.org/Graphics/SVG/1.1/DTD/svg11.dtd">
<!-- Generated by graphviz version 2.38.0 (20140413.2041)
 -->
<!-- Title: Graphical Class Hierarchy Pages: 1 -->
<svg width="175pt" height="66pt"
 viewBox="0.00 0.00 175.00 66.00" xmlns="http://www.w3.org/2000/svg" xmlns:xlink="http://www.w3.org/1999/xlink">
<g id="graph0" class="graph" transform="scale(1 1) rotate(0) translate(4 62)">
<title>Graphical Class Hierarchy</title>
<polygon fill="white" stroke="none" points="-4,4 -4,-62 171,-62 171,4 -4,4"/>
<!-- Node23 -->
<g id="node1" class="node"><title>Node23</title>
<g id="a_node1"><a xlink:title=" ">
<polygon fill="white" stroke="#bfbfbf" points="0,-19.5 0,-38.5 55,-38.5 55,-19.5 0,-19.5"/>
<text text-anchor="middle" x="27.5" y="-26.5" font-family="Helvetica,sans-Serif" font-size="10.00">QWidget</text>
</a>
</g>
</g>
<!-- Node0 -->
<g id="node2" class="node"><title>Node0</title>
<g id="a_node2"><a xlink:href="de/dd2/classmmh_timeline.html" target="_top" xlink:title=" ">
<polygon fill="white" stroke="black" points="92,-38.5 92,-57.5 166,-57.5 166,-38.5 92,-38.5"/>
<text text-anchor="middle" x="129" y="-45.5" font-family="Helvetica,sans-Serif" font-size="10.00">mmhTimeline</text>
</a>
</g>
</g>
<!-- Node23&#45;&gt;Node0 -->
<g id="edge1" class="edge"><title>Node23&#45;&gt;Node0</title>
<path fill="none" stroke="midnightblue" d="M65.0955,-35.9881C73.8452,-37.6589 83.1799,-39.4414 91.9067,-41.1078"/>
<polygon fill="midnightblue" stroke="midnightblue" points="65.6432,-32.5295 55.1642,-34.0917 64.3302,-39.4053 65.6432,-32.5295"/>
</g>
<!-- Node25 -->
<g id="node3" class="node"><title>Node25</title>
<g id="a_node3"><a xlink:href="da/d62/class_osg_qt_widget.html" target="_top" xlink:title=" ">
<polygon fill="white" stroke="black" points="91,-0.5 91,-19.5 167,-19.5 167,-0.5 91,-0.5"/>
<text text-anchor="middle" x="129" y="-7.5" font-family="Helvetica,sans-Serif" font-size="10.00">OsgQtWidget</text>
</a>
</g>
</g>
<!-- Node23&#45;&gt;Node25 -->
<g id="edge2" class="edge"><title>Node23&#45;&gt;Node25</title>
<path fill="none" stroke="midnightblue" d="M65.0577,-22.0191C73.4457,-20.4174 82.3731,-18.7127 90.7885,-17.1057"/>
<polygon fill="midnightblue" stroke="midnightblue" points="64.3302,-18.5947 55.1642,-23.9083 65.6432,-25.4705 64.3302,-18.5947"/>
</g>
</g>
</svg>
