<?xml version="1.0" encoding="UTF-8" standalone="no"?>
<!DOCTYPE svg PUBLIC "-//W3C//DTD SVG 1.1//EN"
 "http://www.w3.org/Graphics/SVG/1.1/DTD/svg11.dtd">
<!-- Generated by graphviz version 2.38.0 (20140413.2041)
 -->
<!-- Title: Graphical Class Hierarchy Pages: 1 -->
<svg width="242pt" height="104pt"
 viewBox="0.00 0.00 242.00 104.00" xmlns="http://www.w3.org/2000/svg" xmlns:xlink="http://www.w3.org/1999/xlink">
<g id="graph0" class="graph" transform="scale(1 1) rotate(0) translate(4 100)">
<title>Graphical Class Hierarchy</title>
<polygon fill="white" stroke="none" points="-4,4 -4,-100 238,-100 238,4 -4,4"/>
<!-- Node0 -->
<g id="node1" class="node"><title>Node0</title>
<g id="a_node1"><a xlink:href="d2/d96/class_entity.html" target="_top" xlink:title="base class for all objects in openGl window">
<polygon fill="white" stroke="black" points="0,-38.5 0,-57.5 42,-57.5 42,-38.5 0,-38.5"/>
<text text-anchor="middle" x="21" y="-45.5" font-family="Helvetica,sans-Serif" font-size="10.00">Entity</text>
</a>
</g>
</g>
<!-- Node1 -->
<g id="node2" class="node"><title>Node1</title>
<g id="a_node2"><a xlink:href="da/dbb/class_camera.html" target="_top" xlink:title=" ">
<polygon fill="white" stroke="black" points="92.5,-76.5 92.5,-95.5 142.5,-95.5 142.5,-76.5 92.5,-76.5"/>
<text text-anchor="middle" x="117.5" y="-83.5" font-family="Helvetica,sans-Serif" font-size="10.00">Camera</text>
</a>
</g>
</g>
<!-- Node0&#45;&gt;Node1 -->
<g id="edge1" class="edge"><title>Node0&#45;&gt;Node1</title>
<path fill="none" stroke="midnightblue" d="M51.6756,-59.9331C64.9339,-65.2644 80.345,-71.4615 92.8137,-76.4754"/>
<polygon fill="midnightblue" stroke="midnightblue" points="52.6248,-56.5424 42.041,-56.0588 50.0132,-63.037 52.6248,-56.5424"/>
</g>
<!-- Node2 -->
<g id="node3" class="node"><title>Node2</title>
<g id="a_node3"><a xlink:href="dc/dbe/class_mesh.html" target="_top" xlink:title="mesh base class">
<polygon fill="white" stroke="black" points="97,-38.5 97,-57.5 138,-57.5 138,-38.5 97,-38.5"/>
<text text-anchor="middle" x="117.5" y="-45.5" font-family="Helvetica,sans-Serif" font-size="10.00">Mesh</text>
</a>
</g>
</g>
<!-- Node0&#45;&gt;Node2 -->
<g id="edge2" class="edge"><title>Node0&#45;&gt;Node2</title>
<path fill="none" stroke="midnightblue" d="M52.1405,-48C66.7558,-48 83.8961,-48 96.8119,-48"/>
<polygon fill="midnightblue" stroke="midnightblue" points="52.0411,-44.5001 42.041,-48 52.041,-51.5001 52.0411,-44.5001"/>
</g>
<!-- Node5 -->
<g id="node6" class="node"><title>Node5</title>
<g id="a_node6"><a xlink:href="d2/d34/class_skeleton_mesh.html" target="_top" xlink:title="container for joint meshes">
<polygon fill="white" stroke="black" points="78,-0.5 78,-19.5 157,-19.5 157,-0.5 78,-0.5"/>
<text text-anchor="middle" x="117.5" y="-7.5" font-family="Helvetica,sans-Serif" font-size="10.00">SkeletonMesh</text>
</a>
</g>
</g>
<!-- Node0&#45;&gt;Node5 -->
<g id="edge5" class="edge"><title>Node0&#45;&gt;Node5</title>
<path fill="none" stroke="midnightblue" d="M51.6756,-36.0669C64.9339,-30.7356 80.345,-24.5385 92.8137,-19.5246"/>
<polygon fill="midnightblue" stroke="midnightblue" points="50.0132,-32.963 42.041,-39.9412 52.6248,-39.4576 50.0132,-32.963"/>
</g>
<!-- Node3 -->
<g id="node4" class="node"><title>Node3</title>
<g id="a_node4"><a xlink:href="d9/dbf/class_cube.html" target="_top" xlink:title=" ">
<polygon fill="white" stroke="black" points="194,-57.5 194,-76.5 233,-76.5 233,-57.5 194,-57.5"/>
<text text-anchor="middle" x="213.5" y="-64.5" font-family="Helvetica,sans-Serif" font-size="10.00">Cube</text>
</a>
</g>
</g>
<!-- Node2&#45;&gt;Node3 -->
<g id="edge3" class="edge"><title>Node2&#45;&gt;Node3</title>
<path fill="none" stroke="midnightblue" d="M148.262,-54.0158C163.211,-57.0373 180.86,-60.6047 193.872,-63.2349"/>
<polygon fill="midnightblue" stroke="midnightblue" points="148.93,-50.5801 138.435,-52.0294 147.543,-57.4413 148.93,-50.5801"/>
</g>
<!-- Node4 -->
<g id="node5" class="node"><title>Node4</title>
<g id="a_node5"><a xlink:href="d2/d8d/class_plane.html" target="_top" xlink:title="plane mesh">
<polygon fill="white" stroke="black" points="193,-19.5 193,-38.5 234,-38.5 234,-19.5 193,-19.5"/>
<text text-anchor="middle" x="213.5" y="-26.5" font-family="Helvetica,sans-Serif" font-size="10.00">Plane</text>
</a>
</g>
</g>
<!-- Node2&#45;&gt;Node4 -->
<g id="edge4" class="edge"><title>Node2&#45;&gt;Node4</title>
<path fill="none" stroke="midnightblue" d="M148.481,-41.94C163.019,-39.0015 180.069,-35.5553 192.916,-32.9585"/>
<polygon fill="midnightblue" stroke="midnightblue" points="147.543,-38.5587 138.435,-43.9706 148.93,-45.4199 147.543,-38.5587"/>
</g>
</g>
</svg>
