<?xml version="1.0" encoding="UTF-8" standalone="no"?>
<!DOCTYPE svg PUBLIC "-//W3C//DTD SVG 1.1//EN"
 "http://www.w3.org/Graphics/SVG/1.1/DTD/svg11.dtd">
<!-- Generated by graphviz version 2.38.0 (20140413.2041)
 -->
<!-- Title: Graphical Class Hierarchy Pages: 1 -->
<svg width="255pt" height="104pt"
 viewBox="0.00 0.00 255.00 104.00" xmlns="http://www.w3.org/2000/svg" xmlns:xlink="http://www.w3.org/1999/xlink">
<g id="graph0" class="graph" transform="scale(1 1) rotate(0) translate(4 100)">
<title>Graphical Class Hierarchy</title>
<polygon fill="white" stroke="none" points="-4,4 -4,-100 251,-100 251,4 -4,4"/>
<!-- Node34 -->
<g id="node1" class="node"><title>Node34</title>
<g id="a_node1"><a xlink:title=" ">
<polygon fill="white" stroke="#bfbfbf" points="0,-38.5 0,-57.5 128,-57.5 128,-38.5 0,-38.5"/>
<text text-anchor="middle" x="64" y="-45.5" font-family="Helvetica,sans-Serif" font-size="10.00">PositionAttitudeTransform</text>
</a>
</g>
</g>
<!-- Node0 -->
<g id="node2" class="node"><title>Node0</title>
<g id="a_node2"><a xlink:href="d4/da7/class_osg_axes_cross.html" target="_top" xlink:title=" ">
<polygon fill="white" stroke="black" points="164,-76.5 164,-95.5 247,-95.5 247,-76.5 164,-76.5"/>
<text text-anchor="middle" x="205.5" y="-83.5" font-family="Helvetica,sans-Serif" font-size="10.00">OsgAxesCross</text>
</a>
</g>
</g>
<!-- Node34&#45;&gt;Node0 -->
<g id="edge1" class="edge"><title>Node34&#45;&gt;Node0</title>
<path fill="none" stroke="midnightblue" d="M109.956,-60.2462C129.185,-65.484 151.303,-71.5091 169.31,-76.4141"/>
<polygon fill="midnightblue" stroke="midnightblue" points="110.77,-56.8404 100.202,-57.589 108.93,-63.5943 110.77,-56.8404"/>
</g>
<!-- Node36 -->
<g id="node3" class="node"><title>Node36</title>
<g id="a_node3"><a xlink:href="d7/d6e/class_osg_line.html" target="_top" xlink:title=" ">
<polygon fill="white" stroke="black" points="179,-38.5 179,-57.5 232,-57.5 232,-38.5 179,-38.5"/>
<text text-anchor="middle" x="205.5" y="-45.5" font-family="Helvetica,sans-Serif" font-size="10.00">OsgLine</text>
</a>
</g>
</g>
<!-- Node34&#45;&gt;Node36 -->
<g id="edge2" class="edge"><title>Node34&#45;&gt;Node36</title>
<path fill="none" stroke="midnightblue" d="M138.306,-48C152.872,-48 167.231,-48 178.832,-48"/>
<polygon fill="midnightblue" stroke="midnightblue" points="138.219,-44.5001 128.219,-48 138.219,-51.5001 138.219,-44.5001"/>
</g>
<!-- Node37 -->
<g id="node4" class="node"><title>Node37</title>
<g id="a_node4"><a xlink:href="df/d95/class_osg_sphere.html" target="_top" xlink:title=" ">
<polygon fill="white" stroke="black" points="173,-0.5 173,-19.5 238,-19.5 238,-0.5 173,-0.5"/>
<text text-anchor="middle" x="205.5" y="-7.5" font-family="Helvetica,sans-Serif" font-size="10.00">OsgSphere</text>
</a>
</g>
</g>
<!-- Node34&#45;&gt;Node37 -->
<g id="edge3" class="edge"><title>Node34&#45;&gt;Node37</title>
<path fill="none" stroke="midnightblue" d="M109.936,-35.7593C130.376,-30.1916 154.084,-23.7333 172.649,-18.6763"/>
<polygon fill="midnightblue" stroke="midnightblue" points="108.93,-32.4057 100.202,-38.411 110.77,-39.1596 108.93,-32.4057"/>
</g>
</g>
</svg>
