<?xml version="1.0" encoding="UTF-8" standalone="no"?>
<!DOCTYPE svg PUBLIC "-//W3C//DTD SVG 1.1//EN"
 "http://www.w3.org/Graphics/SVG/1.1/DTD/svg11.dtd">
<!-- Generated by graphviz version 2.38.0 (20140413.2041)
 -->
<!-- Title: Graphical Class Hierarchy Pages: 1 -->
<svg width="204pt" height="66pt"
 viewBox="0.00 0.00 204.00 66.00" xmlns="http://www.w3.org/2000/svg" xmlns:xlink="http://www.w3.org/1999/xlink">
<g id="graph0" class="graph" transform="scale(1 1) rotate(0) translate(4 62)">
<title>Graphical Class Hierarchy</title>
<polygon fill="white" stroke="none" points="-4,4 -4,-62 200,-62 200,4 -4,4"/>
<!-- Node13 -->
<g id="node1" class="node"><title>Node13</title>
<g id="a_node1"><a xlink:title=" ">
<polygon fill="white" stroke="#bfbfbf" points="0,-38.5 0,-57.5 103,-57.5 103,-38.5 0,-38.5"/>
<text text-anchor="middle" x="51.5" y="-45.5" font-family="Helvetica,sans-Serif" font-size="10.00">QOpenGLFunctions</text>
</a>
</g>
</g>
<!-- Node0 -->
<g id="node2" class="node"><title>Node0</title>
<g id="a_node2"><a xlink:href="d8/d32/class_gl_widget.html" target="_top" xlink:title="3d render context for skeleton visualisation">
<polygon fill="white" stroke="black" points="139,-19.5 139,-38.5 196,-38.5 196,-19.5 139,-19.5"/>
<text text-anchor="middle" x="167.5" y="-26.5" font-family="Helvetica,sans-Serif" font-size="10.00">GlWidget</text>
</a>
</g>
</g>
<!-- Node13&#45;&gt;Node0 -->
<g id="edge1" class="edge"><title>Node13&#45;&gt;Node0</title>
<path fill="none" stroke="darkgreen" d="M113.256,-37.8739C122.189,-36.3852 130.998,-34.9171 138.8,-33.6166"/>
<polygon fill="darkgreen" stroke="darkgreen" points="112.454,-34.4592 103.166,-39.5557 113.605,-41.364 112.454,-34.4592"/>
</g>
<!-- Node11 -->
<g id="node3" class="node"><title>Node11</title>
<g id="a_node3"><a xlink:title=" ">
<polygon fill="white" stroke="#bfbfbf" points="6,-0.5 6,-19.5 97,-19.5 97,-0.5 6,-0.5"/>
<text text-anchor="middle" x="51.5" y="-7.5" font-family="Helvetica,sans-Serif" font-size="10.00">QOpenGLWidget</text>
</a>
</g>
</g>
<!-- Node11&#45;&gt;Node0 -->
<g id="edge2" class="edge"><title>Node11&#45;&gt;Node0</title>
<path fill="none" stroke="midnightblue" d="M107.177,-19.1129C118.095,-20.9326 129.127,-22.7712 138.667,-24.3612"/>
<polygon fill="midnightblue" stroke="midnightblue" points="107.668,-15.6465 97.2286,-17.4548 106.517,-22.5512 107.668,-15.6465"/>
</g>
</g>
</svg>
