<?xml version="1.0" encoding="UTF-8" standalone="no"?>
<!DOCTYPE svg PUBLIC "-//W3C//DTD SVG 1.1//EN"
 "http://www.w3.org/Graphics/SVG/1.1/DTD/svg11.dtd">
<!-- Generated by graphviz version 2.38.0 (20140413.2041)
 -->
<!-- Title: Graphical Class Hierarchy Pages: 1 -->
<svg width="168pt" height="294pt"
 viewBox="0.00 0.00 168.00 294.00" xmlns="http://www.w3.org/2000/svg" xmlns:xlink="http://www.w3.org/1999/xlink">
<g id="graph0" class="graph" transform="scale(1 1) rotate(0) translate(4 290)">
<title>Graphical Class Hierarchy</title>
<polygon fill="white" stroke="none" points="-4,4 -4,-290 164,-290 164,4 -4,4"/>
<!-- Node0 -->
<g id="node1" class="node"><title>Node0</title>
<g id="a_node1"><a xlink:href="de/dbb/class_tracker.html" target="_top" xlink:title="Prototype class for implemetation &#45; holds virtual methods.">
<polygon fill="white" stroke="black" points="0,-133.5 0,-152.5 49,-152.5 49,-133.5 0,-133.5"/>
<text text-anchor="middle" x="24.5" y="-140.5" font-family="Helvetica,sans-Serif" font-size="10.00">Tracker</text>
</a>
</g>
</g>
<!-- Node1 -->
<g id="node2" class="node"><title>Node1</title>
<g id="a_node2"><a xlink:href="d0/d4c/class_a_k_tracker.html" target="_top" xlink:title="Manages Azure Kinect Body Tracking.">
<polygon fill="white" stroke="black" points="91.5,-266.5 91.5,-285.5 153.5,-285.5 153.5,-266.5 91.5,-266.5"/>
<text text-anchor="middle" x="122.5" y="-273.5" font-family="Helvetica,sans-Serif" font-size="10.00">AKTracker</text>
</a>
</g>
</g>
<!-- Node0&#45;&gt;Node1 -->
<g id="edge1" class="edge"><title>Node0&#45;&gt;Node1</title>
<path fill="none" stroke="midnightblue" d="M31.5395,-162.424C40.0383,-187.068 57.6199,-229.65 85,-257 88.6391,-260.635 93.1184,-263.728 97.6774,-266.297"/>
<polygon fill="midnightblue" stroke="midnightblue" points="34.8125,-161.172 28.3609,-152.768 28.1636,-163.361 34.8125,-161.172"/>
</g>
<!-- Node2 -->
<g id="node3" class="node"><title>Node2</title>
<g id="a_node3"><a xlink:href="d6/d12/class_b_v_h_player.html" target="_top" xlink:title=" ">
<polygon fill="white" stroke="black" points="90,-228.5 90,-247.5 155,-247.5 155,-228.5 90,-228.5"/>
<text text-anchor="middle" x="122.5" y="-235.5" font-family="Helvetica,sans-Serif" font-size="10.00">BVHPlayer</text>
</a>
</g>
</g>
<!-- Node0&#45;&gt;Node2 -->
<g id="edge2" class="edge"><title>Node0&#45;&gt;Node2</title>
<path fill="none" stroke="midnightblue" d="M36.8964,-161.788C47.6937,-178.415 65.1752,-202.529 85,-219 89.286,-222.561 94.3487,-225.716 99.3169,-228.381"/>
<polygon fill="midnightblue" stroke="midnightblue" points="39.637,-159.572 31.3444,-152.978 33.7149,-163.304 39.637,-159.572"/>
</g>
<!-- Node3 -->
<g id="node4" class="node"><title>Node3</title>
<g id="a_node4"><a xlink:href="d0/d0d/class_c_l_tracker.html" target="_top" xlink:title="Manages CapturyLive Body Tracking.">
<polygon fill="white" stroke="black" points="92,-190.5 92,-209.5 153,-209.5 153,-190.5 92,-190.5"/>
<text text-anchor="middle" x="122.5" y="-197.5" font-family="Helvetica,sans-Serif" font-size="10.00">CLTracker</text>
</a>
</g>
</g>
<!-- Node0&#45;&gt;Node3 -->
<g id="edge3" class="edge"><title>Node0&#45;&gt;Node3</title>
<path fill="none" stroke="midnightblue" d="M48.4836,-158.349C59.4067,-165.47 72.7307,-173.907 85,-181 90.5664,-184.218 96.7301,-187.522 102.383,-190.453"/>
<polygon fill="midnightblue" stroke="midnightblue" points="50.227,-155.306 39.9488,-152.736 46.3805,-161.155 50.227,-155.306"/>
</g>
<!-- Node4 -->
<g id="node5" class="node"><title>Node4</title>
<g id="a_node5"><a xlink:href="de/dec/classmmh_player.html" target="_top" xlink:title=" ">
<polygon fill="white" stroke="black" points="89.5,-152.5 89.5,-171.5 155.5,-171.5 155.5,-152.5 89.5,-152.5"/>
<text text-anchor="middle" x="122.5" y="-159.5" font-family="Helvetica,sans-Serif" font-size="10.00">mmhPlayer</text>
</a>
</g>
</g>
<!-- Node0&#45;&gt;Node4 -->
<g id="edge4" class="edge"><title>Node0&#45;&gt;Node4</title>
<path fill="none" stroke="midnightblue" d="M59.071,-149.644C68.8983,-151.589 79.6153,-153.71 89.3519,-155.637"/>
<polygon fill="midnightblue" stroke="midnightblue" points="59.7196,-146.205 49.2303,-147.697 58.3605,-153.072 59.7196,-146.205"/>
</g>
<!-- Node5 -->
<g id="node6" class="node"><title>Node5</title>
<g id="a_node6"><a xlink:href="dc/d9d/class_o_t_tracker.html" target="_top" xlink:title="Manages OptiTrack Body Tracking via NatNet protocol.">
<polygon fill="white" stroke="black" points="91.5,-114.5 91.5,-133.5 153.5,-133.5 153.5,-114.5 91.5,-114.5"/>
<text text-anchor="middle" x="122.5" y="-121.5" font-family="Helvetica,sans-Serif" font-size="10.00">OTTracker</text>
</a>
</g>
</g>
<!-- Node0&#45;&gt;Node5 -->
<g id="edge5" class="edge"><title>Node0&#45;&gt;Node5</title>
<path fill="none" stroke="midnightblue" d="M59.2163,-136.327C69.6118,-134.27 80.9907,-132.017 91.1456,-130.008"/>
<polygon fill="midnightblue" stroke="midnightblue" points="58.3605,-132.928 49.2303,-138.303 59.7196,-139.795 58.3605,-132.928"/>
</g>
<!-- Node6 -->
<g id="node7" class="node"><title>Node6</title>
<g id="a_node7"><a xlink:href="da/d81/class_o_v_r_tracker.html" target="_top" xlink:title="Manages TODO: Kommentare.">
<polygon fill="white" stroke="black" points="87.5,-76.5 87.5,-95.5 157.5,-95.5 157.5,-76.5 87.5,-76.5"/>
<text text-anchor="middle" x="122.5" y="-83.5" font-family="Helvetica,sans-Serif" font-size="10.00">OVRTracker</text>
</a>
</g>
</g>
<!-- Node0&#45;&gt;Node6 -->
<g id="edge6" class="edge"><title>Node0&#45;&gt;Node6</title>
<path fill="none" stroke="midnightblue" d="M48.4836,-127.651C59.4067,-120.53 72.7307,-112.093 85,-105 90.5664,-101.782 96.7301,-98.4785 102.383,-95.5471"/>
<polygon fill="midnightblue" stroke="midnightblue" points="46.3805,-124.845 39.9488,-133.264 50.227,-130.694 46.3805,-124.845"/>
</g>
<!-- Node7 -->
<g id="node8" class="node"><title>Node7</title>
<g id="a_node8"><a xlink:href="d0/dc6/class_tracker_group.html" target="_top" xlink:title=" ">
<polygon fill="white" stroke="black" points="85,-38.5 85,-57.5 160,-57.5 160,-38.5 85,-38.5"/>
<text text-anchor="middle" x="122.5" y="-45.5" font-family="Helvetica,sans-Serif" font-size="10.00">TrackerGroup</text>
</a>
</g>
</g>
<!-- Node0&#45;&gt;Node7 -->
<g id="edge7" class="edge"><title>Node0&#45;&gt;Node7</title>
<path fill="none" stroke="midnightblue" d="M36.8964,-124.212C47.6937,-107.585 65.1752,-83.4712 85,-67 89.286,-63.439 94.3487,-60.2842 99.3169,-57.6185"/>
<polygon fill="midnightblue" stroke="midnightblue" points="33.7149,-122.696 31.3444,-133.022 39.637,-126.428 33.7149,-122.696"/>
</g>
<!-- Node8 -->
<g id="node9" class="node"><title>Node8</title>
<g id="a_node9"><a xlink:href="d2/d61/class_x_s_tracker.html" target="_top" xlink:title="Manages Xsens Body Tracking.">
<polygon fill="white" stroke="black" points="92,-0.5 92,-19.5 153,-19.5 153,-0.5 92,-0.5"/>
<text text-anchor="middle" x="122.5" y="-7.5" font-family="Helvetica,sans-Serif" font-size="10.00">XSTracker</text>
</a>
</g>
</g>
<!-- Node0&#45;&gt;Node8 -->
<g id="edge8" class="edge"><title>Node0&#45;&gt;Node8</title>
<path fill="none" stroke="midnightblue" d="M31.5395,-123.576C40.0383,-98.9317 57.6199,-56.3504 85,-29 88.6391,-25.3649 93.1184,-22.2716 97.6774,-19.7029"/>
<polygon fill="midnightblue" stroke="midnightblue" points="28.1636,-122.639 28.3609,-133.232 34.8125,-124.828 28.1636,-122.639"/>
</g>
</g>
</svg>
