<?xml version="1.0" encoding="UTF-8" standalone="no"?>
<!DOCTYPE svg PUBLIC "-//W3C//DTD SVG 1.1//EN"
 "http://www.w3.org/Graphics/SVG/1.1/DTD/svg11.dtd">
<!-- Generated by graphviz version 2.38.0 (20140413.2041)
 -->
<!-- Title: Graphical Class Hierarchy Pages: 1 -->
<svg width="168pt" height="104pt"
 viewBox="0.00 0.00 168.00 104.00" xmlns="http://www.w3.org/2000/svg" xmlns:xlink="http://www.w3.org/1999/xlink">
<g id="graph0" class="graph" transform="scale(1 1) rotate(0) translate(4 100)">
<title>Graphical Class Hierarchy</title>
<polygon fill="white" stroke="none" points="-4,4 -4,-100 164,-100 164,4 -4,4"/>
<!-- Node0 -->
<g id="node1" class="node"><title>Node0</title>
<g id="a_node1"><a xlink:href="de/dbb/class_tracker.html" target="_top" xlink:title="Prototype class for implemetation &#45; holds virtual methods.">
<polygon fill="white" stroke="black" points="0,-38.5 0,-57.5 49,-57.5 49,-38.5 0,-38.5"/>
<text text-anchor="middle" x="24.5" y="-45.5" font-family="Helvetica,sans-Serif" font-size="10.00">Tracker</text>
</a>
</g>
</g>
<!-- Node1 -->
<g id="node2" class="node"><title>Node1</title>
<g id="a_node2"><a xlink:href="d0/d4c/class_a_k_tracker.html" target="_top" xlink:title="Manages Azure Kinect Body Tracking.">
<polygon fill="white" stroke="black" points="91.5,-76.5 91.5,-95.5 153.5,-95.5 153.5,-76.5 91.5,-76.5"/>
<text text-anchor="middle" x="122.5" y="-83.5" font-family="Helvetica,sans-Serif" font-size="10.00">AKTracker</text>
</a>
</g>
</g>
<!-- Node0&#45;&gt;Node1 -->
<g id="edge1" class="edge"><title>Node0&#45;&gt;Node1</title>
<path fill="none" stroke="midnightblue" d="M58.6019,-61.1028C71.3423,-66.1459 85.6371,-71.8043 97.3758,-76.4509"/>
<polygon fill="midnightblue" stroke="midnightblue" points="59.8166,-57.8195 49.2303,-57.3933 57.2402,-64.3281 59.8166,-57.8195"/>
</g>
<!-- Node2 -->
<g id="node3" class="node"><title>Node2</title>
<g id="a_node3"><a xlink:href="dc/d9d/class_o_t_tracker.html" target="_top" xlink:title="Manages OptiTrack Body Tracking via NatNet protocol.">
<polygon fill="white" stroke="black" points="91.5,-38.5 91.5,-57.5 153.5,-57.5 153.5,-38.5 91.5,-38.5"/>
<text text-anchor="middle" x="122.5" y="-45.5" font-family="Helvetica,sans-Serif" font-size="10.00">OTTracker</text>
</a>
</g>
</g>
<!-- Node0&#45;&gt;Node2 -->
<g id="edge2" class="edge"><title>Node0&#45;&gt;Node2</title>
<path fill="none" stroke="midnightblue" d="M59.5415,-48C69.8487,-48 81.0965,-48 91.1456,-48"/>
<polygon fill="midnightblue" stroke="midnightblue" points="59.2304,-44.5001 49.2303,-48 59.2303,-51.5001 59.2304,-44.5001"/>
</g>
<!-- Node3 -->
<g id="node4" class="node"><title>Node3</title>
<g id="a_node4"><a xlink:href="d0/dc6/class_tracker_group.html" target="_top" xlink:title=" ">
<polygon fill="white" stroke="black" points="85,-0.5 85,-19.5 160,-19.5 160,-0.5 85,-0.5"/>
<text text-anchor="middle" x="122.5" y="-7.5" font-family="Helvetica,sans-Serif" font-size="10.00">TrackerGroup</text>
</a>
</g>
</g>
<!-- Node0&#45;&gt;Node3 -->
<g id="edge3" class="edge"><title>Node0&#45;&gt;Node3</title>
<path fill="none" stroke="midnightblue" d="M58.6019,-34.8972C71.3423,-29.8541 85.6371,-24.1957 97.3758,-19.5491"/>
<polygon fill="midnightblue" stroke="midnightblue" points="57.2402,-31.6719 49.2303,-38.6067 59.8166,-38.1805 57.2402,-31.6719"/>
</g>
</g>
</svg>
