<?xml version="1.0" encoding="UTF-8" standalone="no"?>
<!DOCTYPE svg PUBLIC "-//W3C//DTD SVG 1.1//EN"
 "http://www.w3.org/Graphics/SVG/1.1/DTD/svg11.dtd">
<!-- Generated by graphviz version 2.38.0 (20140413.2041)
 -->
<!-- Title: GlWidget Pages: 1 -->
<svg width="220pt" height="446pt"
 viewBox="0.00 0.00 220.00 446.00" xmlns="http://www.w3.org/2000/svg" xmlns:xlink="http://www.w3.org/1999/xlink">
<g id="graph0" class="graph" transform="scale(1 1) rotate(0) translate(4 442)">
<title>GlWidget</title>
<polygon fill="white" stroke="none" points="-4,4 -4,-442 216,-442 216,4 -4,4"/>
<!-- Node1 -->
<g id="node1" class="node"><title>Node1</title>
<g id="a_node1"><a xlink:title="3d render context for skeleton visualisation">
<polygon fill="#bfbfbf" stroke="black" points="19.5,-0.5 19.5,-343.5 185.5,-343.5 185.5,-0.5 19.5,-0.5"/>
<text text-anchor="middle" x="102.5" y="-331.5" font-family="Helvetica,sans-Serif" font-size="10.00">GlWidget</text>
<polyline fill="none" stroke="black" points="19.5,-324.5 185.5,-324.5 "/>
<text text-anchor="start" x="27.5" y="-312.5" font-family="Helvetica,sans-Serif" font-size="10.00">&#45; m_worldMatrix</text>
<text text-anchor="start" x="27.5" y="-301.5" font-family="Helvetica,sans-Serif" font-size="10.00">&#45; m_shaderProgram_texture</text>
<text text-anchor="start" x="27.5" y="-290.5" font-family="Helvetica,sans-Serif" font-size="10.00">&#45; m_shaderProgram_confidence</text>
<text text-anchor="start" x="27.5" y="-279.5" font-family="Helvetica,sans-Serif" font-size="10.00">&#45; m_meshGrid</text>
<text text-anchor="start" x="27.5" y="-268.5" font-family="Helvetica,sans-Serif" font-size="10.00">&#45; m_camera</text>
<text text-anchor="start" x="27.5" y="-257.5" font-family="Helvetica,sans-Serif" font-size="10.00">&#45; lastPos</text>
<text text-anchor="start" x="27.5" y="-246.5" font-family="Helvetica,sans-Serif" font-size="10.00">&#45; m_clearColor</text>
<text text-anchor="start" x="27.5" y="-235.5" font-family="Helvetica,sans-Serif" font-size="10.00">&#45; m_refTrackerManager</text>
<text text-anchor="start" x="27.5" y="-224.5" font-family="Helvetica,sans-Serif" font-size="10.00">&#45; m_colorRed</text>
<text text-anchor="start" x="27.5" y="-213.5" font-family="Helvetica,sans-Serif" font-size="10.00">&#45; m_colorYellow</text>
<text text-anchor="start" x="27.5" y="-202.5" font-family="Helvetica,sans-Serif" font-size="10.00">&#45; m_colorGreen</text>
<text text-anchor="start" x="27.5" y="-191.5" font-family="Helvetica,sans-Serif" font-size="10.00">&#45; m_skeletonMeshPool</text>
<polyline fill="none" stroke="black" points="19.5,-184.5 185.5,-184.5 "/>
<text text-anchor="start" x="27.5" y="-172.5" font-family="Helvetica,sans-Serif" font-size="10.00">+ GlWidget()</text>
<text text-anchor="start" x="27.5" y="-161.5" font-family="Helvetica,sans-Serif" font-size="10.00">+ ~GlWidget()</text>
<text text-anchor="start" x="27.5" y="-150.5" font-family="Helvetica,sans-Serif" font-size="10.00">+ updateSkeletonMeshPoolSize()</text>
<text text-anchor="start" x="27.5" y="-139.5" font-family="Helvetica,sans-Serif" font-size="10.00">+ updateSkeletonMeshCount()</text>
<text text-anchor="start" x="27.5" y="-128.5" font-family="Helvetica,sans-Serif" font-size="10.00">+ updateSkeletonMeshTransform()</text>
<text text-anchor="start" x="27.5" y="-117.5" font-family="Helvetica,sans-Serif" font-size="10.00"># initializeGL()</text>
<text text-anchor="start" x="27.5" y="-106.5" font-family="Helvetica,sans-Serif" font-size="10.00"># paintGL()</text>
<text text-anchor="start" x="27.5" y="-95.5" font-family="Helvetica,sans-Serif" font-size="10.00"># resizeGL()</text>
<text text-anchor="start" x="27.5" y="-84.5" font-family="Helvetica,sans-Serif" font-size="10.00"># mousePressEvent()</text>
<text text-anchor="start" x="27.5" y="-73.5" font-family="Helvetica,sans-Serif" font-size="10.00"># mouseMoveEvent()</text>
<text text-anchor="start" x="27.5" y="-62.5" font-family="Helvetica,sans-Serif" font-size="10.00"># mouseReleaseEvent()</text>
<text text-anchor="start" x="27.5" y="-51.5" font-family="Helvetica,sans-Serif" font-size="10.00">&#45; init()</text>
<text text-anchor="start" x="27.5" y="-40.5" font-family="Helvetica,sans-Serif" font-size="10.00">&#45; createShaderProgram()</text>
<text text-anchor="start" x="27.5" y="-29.5" font-family="Helvetica,sans-Serif" font-size="10.00">&#45; createMeshes()</text>
<text text-anchor="start" x="27.5" y="-18.5" font-family="Helvetica,sans-Serif" font-size="10.00">&#45; renderMesh()</text>
<text text-anchor="start" x="27.5" y="-7.5" font-family="Helvetica,sans-Serif" font-size="10.00">&#45; renderSkeletonMesh()</text>
</a>
</g>
</g>
<!-- Node2 -->
<g id="node2" class="node"><title>Node2</title>
<g id="a_node2"><a xlink:title=" ">
<polygon fill="white" stroke="#bfbfbf" points="0,-380.5 0,-437.5 91,-437.5 91,-380.5 0,-380.5"/>
<text text-anchor="middle" x="45.5" y="-425.5" font-family="Helvetica,sans-Serif" font-size="10.00">QOpenGLWidget</text>
<polyline fill="none" stroke="#bfbfbf" points="0,-418.5 91,-418.5 "/>
<text text-anchor="middle" x="45.5" y="-406.5" font-family="Helvetica,sans-Serif" font-size="10.00"> </text>
<polyline fill="none" stroke="#bfbfbf" points="0,-399.5 91,-399.5 "/>
<text text-anchor="middle" x="45.5" y="-387.5" font-family="Helvetica,sans-Serif" font-size="10.00"> </text>
</a>
</g>
</g>
<!-- Node2&#45;&gt;Node1 -->
<g id="edge1" class="edge"><title>Node2&#45;&gt;Node1</title>
<path fill="none" stroke="midnightblue" d="M54.6701,-370.194C56.6053,-362.215 58.7654,-353.309 61.0684,-343.814"/>
<polygon fill="none" stroke="midnightblue" points="51.2184,-369.576 52.2625,-380.12 58.0211,-371.226 51.2184,-369.576"/>
</g>
<!-- Node3 -->
<g id="node3" class="node"><title>Node3</title>
<g id="a_node3"><a xlink:title=" ">
<polygon fill="white" stroke="#bfbfbf" points="109,-380.5 109,-437.5 212,-437.5 212,-380.5 109,-380.5"/>
<text text-anchor="middle" x="160.5" y="-425.5" font-family="Helvetica,sans-Serif" font-size="10.00">QOpenGLFunctions</text>
<polyline fill="none" stroke="#bfbfbf" points="109,-418.5 212,-418.5 "/>
<text text-anchor="middle" x="160.5" y="-406.5" font-family="Helvetica,sans-Serif" font-size="10.00"> </text>
<polyline fill="none" stroke="#bfbfbf" points="109,-399.5 212,-399.5 "/>
<text text-anchor="middle" x="160.5" y="-387.5" font-family="Helvetica,sans-Serif" font-size="10.00"> </text>
</a>
</g>
</g>
<!-- Node3&#45;&gt;Node1 -->
<g id="edge2" class="edge"><title>Node3&#45;&gt;Node1</title>
<path fill="none" stroke="darkgreen" d="M151.169,-370.194C149.2,-362.215 147.002,-353.309 144.658,-343.814"/>
<polygon fill="none" stroke="darkgreen" points="147.825,-371.25 153.619,-380.12 154.621,-369.572 147.825,-371.25"/>
</g>
</g>
</svg>
