<?xml version="1.0" encoding="UTF-8" standalone="no"?>
<!DOCTYPE svg PUBLIC "-//W3C//DTD SVG 1.1//EN"
 "http://www.w3.org/Graphics/SVG/1.1/DTD/svg11.dtd">
<!-- Generated by graphviz version 2.38.0 (20140413.2041)
 -->
<!-- Title: UdpServer Pages: 1 -->
<svg width="349pt" height="336pt"
 viewBox="0.00 0.00 348.50 336.00" xmlns="http://www.w3.org/2000/svg" xmlns:xlink="http://www.w3.org/1999/xlink">
<g id="graph0" class="graph" transform="scale(1 1) rotate(0) translate(4 332)">
<title>UdpServer</title>
<polygon fill="white" stroke="none" points="-4,4 -4,-332 344.5,-332 344.5,4 -4,4"/>
<!-- Node1 -->
<g id="node1" class="node"><title>Node1</title>
<g id="a_node1"><a xlink:title=" ">
<polygon fill="#bfbfbf" stroke="black" points="108.5,-0.5 108.5,-189.5 242.5,-189.5 242.5,-0.5 108.5,-0.5"/>
<text text-anchor="middle" x="175.5" y="-177.5" font-family="Helvetica,sans-Serif" font-size="10.00">UdpServer</text>
<polyline fill="none" stroke="black" points="108.5,-170.5 242.5,-170.5 "/>
<text text-anchor="start" x="116.5" y="-158.5" font-family="Helvetica,sans-Serif" font-size="10.00">+ m_started</text>
<text text-anchor="start" x="116.5" y="-147.5" font-family="Helvetica,sans-Serif" font-size="10.00">+ m_stopping</text>
<text text-anchor="start" x="116.5" y="-136.5" font-family="Helvetica,sans-Serif" font-size="10.00">&#45; m_socket</text>
<text text-anchor="start" x="116.5" y="-125.5" font-family="Helvetica,sans-Serif" font-size="10.00">&#45; m_port</text>
<text text-anchor="start" x="116.5" y="-114.5" font-family="Helvetica,sans-Serif" font-size="10.00">&#45; m_hostName</text>
<text text-anchor="start" x="116.5" y="-103.5" font-family="Helvetica,sans-Serif" font-size="10.00">&#45; m_parserManager</text>
<text text-anchor="start" x="116.5" y="-92.5" font-family="Helvetica,sans-Serif" font-size="10.00">&#45; m_udpLock</text>
<polyline fill="none" stroke="black" points="108.5,-85.5 242.5,-85.5 "/>
<text text-anchor="start" x="116.5" y="-73.5" font-family="Helvetica,sans-Serif" font-size="10.00">+ UdpServer()</text>
<text text-anchor="start" x="116.5" y="-62.5" font-family="Helvetica,sans-Serif" font-size="10.00">+ ~UdpServer()</text>
<text text-anchor="start" x="116.5" y="-51.5" font-family="Helvetica,sans-Serif" font-size="10.00">+ readMessages()</text>
<text text-anchor="start" x="116.5" y="-40.5" font-family="Helvetica,sans-Serif" font-size="10.00">+ startThread()</text>
<text text-anchor="start" x="116.5" y="-29.5" font-family="Helvetica,sans-Serif" font-size="10.00">+ stopThread()</text>
<text text-anchor="start" x="116.5" y="-18.5" font-family="Helvetica,sans-Serif" font-size="10.00">+ getQuaternionDatagram()</text>
<text text-anchor="start" x="116.5" y="-7.5" font-family="Helvetica,sans-Serif" font-size="10.00">+ getScaleDatagram()</text>
</a>
</g>
</g>
<!-- Node2 -->
<g id="node2" class="node"><title>Node2</title>
<g id="a_node2"><a xlink:href="../../d4/dd9/struct_scale_datagram_1_1_bvh_scale_information.html" target="_top" xlink:title=" ">
<polygon fill="white" stroke="black" points="0,-243 0,-322 177,-322 177,-243 0,-243"/>
<text text-anchor="middle" x="88.5" y="-310" font-family="Helvetica,sans-Serif" font-size="10.00">ScaleDatagram::BvhScaleInformation</text>
<polyline fill="none" stroke="black" points="0,-303 177,-303 "/>
<text text-anchor="start" x="8" y="-291" font-family="Helvetica,sans-Serif" font-size="10.00">+ avatarId</text>
<text text-anchor="start" x="8" y="-280" font-family="Helvetica,sans-Serif" font-size="10.00">+ tPose</text>
<text text-anchor="start" x="8" y="-269" font-family="Helvetica,sans-Serif" font-size="10.00">+ endSites</text>
<polyline fill="none" stroke="black" points="0,-262 177,-262 "/>
<text text-anchor="middle" x="88.5" y="-250" font-family="Helvetica,sans-Serif" font-size="10.00"> </text>
</a>
</g>
</g>
<!-- Node2&#45;&gt;Node1 -->
<g id="edge1" class="edge"><title>Node2&#45;&gt;Node1</title>
<path fill="none" stroke="#404040" d="M106.738,-242.613C112.592,-230.132 119.38,-215.659 126.365,-200.765"/>
<polygon fill="none" stroke="#404040" points="126.38,-200.733 125.306,-193.602 131.475,-189.869 132.549,-196.999 126.38,-200.733"/>
<text text-anchor="middle" x="154.5" y="-211" font-family="Helvetica,sans-Serif" font-size="10.00"> &#45;m_scaleData</text>
</g>
<!-- Node3 -->
<g id="node3" class="node"><title>Node3</title>
<g id="a_node3"><a xlink:href="../../d6/d4b/struct_parser_manager_1_1_quaternion_data_with_id.html" target="_top" xlink:title=" ">
<polygon fill="white" stroke="black" points="195.5,-237.5 195.5,-327.5 331.5,-327.5 331.5,-237.5 195.5,-237.5"/>
<text text-anchor="start" x="203.5" y="-315.5" font-family="Helvetica,sans-Serif" font-size="10.00">ParserManager::Quaternion</text>
<text text-anchor="middle" x="263.5" y="-304.5" font-family="Helvetica,sans-Serif" font-size="10.00">DataWithId</text>
<polyline fill="none" stroke="black" points="195.5,-297.5 331.5,-297.5 "/>
<text text-anchor="start" x="203.5" y="-285.5" font-family="Helvetica,sans-Serif" font-size="10.00">+ avatarId</text>
<text text-anchor="start" x="203.5" y="-274.5" font-family="Helvetica,sans-Serif" font-size="10.00">+ frameTime</text>
<text text-anchor="start" x="203.5" y="-263.5" font-family="Helvetica,sans-Serif" font-size="10.00">+ kinematics</text>
<polyline fill="none" stroke="black" points="195.5,-256.5 331.5,-256.5 "/>
<text text-anchor="middle" x="263.5" y="-244.5" font-family="Helvetica,sans-Serif" font-size="10.00"> </text>
</a>
</g>
</g>
<!-- Node3&#45;&gt;Node1 -->
<g id="edge2" class="edge"><title>Node3&#45;&gt;Node1</title>
<path fill="none" stroke="#404040" d="M242.422,-237.068C237.152,-225.959 231.273,-213.568 225.249,-200.868"/>
<polygon fill="none" stroke="#404040" points="225.071,-200.494 218.886,-196.788 219.928,-189.652 226.114,-193.359 225.071,-200.494"/>
<text text-anchor="middle" x="287" y="-211" font-family="Helvetica,sans-Serif" font-size="10.00"> &#45;m_quaternionDatagram</text>
</g>
</g>
</svg>
