<?xml version="1.0" encoding="UTF-8" standalone="no"?>
<!DOCTYPE svg PUBLIC "-//W3C//DTD SVG 1.1//EN"
 "http://www.w3.org/Graphics/SVG/1.1/DTD/svg11.dtd">
<!-- Generated by graphviz version 2.38.0 (20140413.2041)
 -->
<!-- Title: IKSolverLimb Pages: 1 -->
<svg width="308pt" height="848pt"
 viewBox="0.00 0.00 307.50 848.00" xmlns="http://www.w3.org/2000/svg" xmlns:xlink="http://www.w3.org/1999/xlink">
<g id="graph0" class="graph" transform="scale(1 1) rotate(0) translate(4 844)">
<title>IKSolverLimb</title>
<polygon fill="white" stroke="none" points="-4,4 -4,-844 303.5,-844 303.5,4 -4,4"/>
<!-- Node1 -->
<g id="node1" class="node"><title>Node1</title>
<g id="a_node1"><a xlink:title=" ">
<polygon fill="#bfbfbf" stroke="black" points="5.5,-0.5 5.5,-354.5 156.5,-354.5 156.5,-0.5 5.5,-0.5"/>
<text text-anchor="middle" x="81" y="-342.5" font-family="Helvetica,sans-Serif" font-size="10.00">IKSolverLimb</text>
<polyline fill="none" stroke="black" points="5.5,-335.5 156.5,-335.5 "/>
<text text-anchor="start" x="13.5" y="-323.5" font-family="Helvetica,sans-Serif" font-size="10.00">+ iterations</text>
<text text-anchor="start" x="13.5" y="-312.5" font-family="Helvetica,sans-Serif" font-size="10.00">+ tolerance</text>
<text text-anchor="start" x="13.5" y="-301.5" font-family="Helvetica,sans-Serif" font-size="10.00">+ progressTolerance</text>
<text text-anchor="start" x="13.5" y="-290.5" font-family="Helvetica,sans-Serif" font-size="10.00">+ bendToTargetRotationWeight</text>
<text text-anchor="start" x="13.5" y="-279.5" font-family="Helvetica,sans-Serif" font-size="10.00">+ bendToGoalWeight</text>
<text text-anchor="start" x="13.5" y="-268.5" font-family="Helvetica,sans-Serif" font-size="10.00">+ middleUntwistWeight</text>
<text text-anchor="start" x="13.5" y="-257.5" font-family="Helvetica,sans-Serif" font-size="10.00">+ upperUntwistWeight</text>
<text text-anchor="start" x="13.5" y="-246.5" font-family="Helvetica,sans-Serif" font-size="10.00">+ DebugFloat1</text>
<text text-anchor="start" x="13.5" y="-235.5" font-family="Helvetica,sans-Serif" font-size="10.00">+ DebugFloat2</text>
<text text-anchor="start" x="13.5" y="-224.5" font-family="Helvetica,sans-Serif" font-size="10.00">+ DebugFloat3</text>
<text text-anchor="start" x="13.5" y="-213.5" font-family="Helvetica,sans-Serif" font-size="10.00">+ DebugFloat4</text>
<text text-anchor="start" x="13.5" y="-202.5" font-family="Helvetica,sans-Serif" font-size="10.00"># joints</text>
<text text-anchor="start" x="13.5" y="-191.5" font-family="Helvetica,sans-Serif" font-size="10.00"># normal</text>
<text text-anchor="start" x="13.5" y="-180.5" font-family="Helvetica,sans-Serif" font-size="10.00"># _normal</text>
<text text-anchor="start" x="13.5" y="-169.5" font-family="Helvetica,sans-Serif" font-size="10.00"># lowerDefaultRotation</text>
<text text-anchor="start" x="13.5" y="-158.5" font-family="Helvetica,sans-Serif" font-size="10.00"># startPosition</text>
<polyline fill="none" stroke="black" points="5.5,-151.5 156.5,-151.5 "/>
<text text-anchor="start" x="13.5" y="-139.5" font-family="Helvetica,sans-Serif" font-size="10.00">+ IKSolverLimb()</text>
<text text-anchor="start" x="13.5" y="-128.5" font-family="Helvetica,sans-Serif" font-size="10.00">+ init()</text>
<text text-anchor="start" x="13.5" y="-117.5" font-family="Helvetica,sans-Serif" font-size="10.00">+ solve()</text>
<text text-anchor="start" x="13.5" y="-106.5" font-family="Helvetica,sans-Serif" font-size="10.00">+ getStartPosition()</text>
<text text-anchor="start" x="13.5" y="-95.5" font-family="Helvetica,sans-Serif" font-size="10.00"># saveDefaultState()</text>
<text text-anchor="start" x="13.5" y="-84.5" font-family="Helvetica,sans-Serif" font-size="10.00"># loadDefaultState()</text>
<text text-anchor="start" x="13.5" y="-73.5" font-family="Helvetica,sans-Serif" font-size="10.00"># solve()</text>
<text text-anchor="start" x="13.5" y="-62.5" font-family="Helvetica,sans-Serif" font-size="10.00"># constraint()</text>
<text text-anchor="start" x="13.5" y="-51.5" font-family="Helvetica,sans-Serif" font-size="10.00"># apply()</text>
<text text-anchor="start" x="13.5" y="-40.5" font-family="Helvetica,sans-Serif" font-size="10.00"># untwist()</text>
<text text-anchor="start" x="13.5" y="-29.5" font-family="Helvetica,sans-Serif" font-size="10.00"># forwardReach()</text>
<text text-anchor="start" x="13.5" y="-18.5" font-family="Helvetica,sans-Serif" font-size="10.00"># backwardReach()</text>
<text text-anchor="start" x="13.5" y="-7.5" font-family="Helvetica,sans-Serif" font-size="10.00"># solveFABRIK()</text>
</a>
</g>
</g>
<!-- Node2 -->
<g id="node2" class="node"><title>Node2</title>
<g id="a_node2"><a xlink:href="../../dd/d0e/class_i_k_solver.html" target="_top" xlink:title=" ">
<polygon fill="white" stroke="black" points="0,-435.5 0,-536.5 86,-536.5 86,-435.5 0,-435.5"/>
<text text-anchor="middle" x="43" y="-524.5" font-family="Helvetica,sans-Serif" font-size="10.00">IKSolver</text>
<polyline fill="none" stroke="black" points="0,-517.5 86,-517.5 "/>
<text text-anchor="start" x="8" y="-505.5" font-family="Helvetica,sans-Serif" font-size="10.00"># targetPosition</text>
<text text-anchor="start" x="8" y="-494.5" font-family="Helvetica,sans-Serif" font-size="10.00"># targetRotation</text>
<polyline fill="none" stroke="black" points="0,-487.5 86,-487.5 "/>
<text text-anchor="start" x="8" y="-475.5" font-family="Helvetica,sans-Serif" font-size="10.00">+ IKSolver()</text>
<text text-anchor="start" x="8" y="-464.5" font-family="Helvetica,sans-Serif" font-size="10.00">+ ~IKSolver()</text>
<text text-anchor="start" x="8" y="-453.5" font-family="Helvetica,sans-Serif" font-size="10.00">+ init()</text>
<text text-anchor="start" x="8" y="-442.5" font-family="Helvetica,sans-Serif" font-size="10.00">+ solve()</text>
</a>
</g>
</g>
<!-- Node2&#45;&gt;Node1 -->
<g id="edge1" class="edge"><title>Node2&#45;&gt;Node1</title>
<path fill="none" stroke="midnightblue" d="M50.4107,-425.227C52.9838,-404.473 56.0157,-380.018 59.1535,-354.709"/>
<polygon fill="none" stroke="midnightblue" points="46.9047,-425.06 49.1476,-435.415 53.8515,-425.921 46.9047,-425.06"/>
</g>
<!-- Node3 -->
<g id="node3" class="node"><title>Node3</title>
<g id="a_node3"><a xlink:href="../../da/dca/class_i_k_joint.html" target="_top" xlink:title=" ">
<polygon fill="white" stroke="black" points="104.5,-424.5 104.5,-547.5 221.5,-547.5 221.5,-424.5 104.5,-424.5"/>
<text text-anchor="middle" x="163" y="-535.5" font-family="Helvetica,sans-Serif" font-size="10.00">IKJoint</text>
<polyline fill="none" stroke="black" points="104.5,-528.5 221.5,-528.5 "/>
<text text-anchor="start" x="112.5" y="-516.5" font-family="Helvetica,sans-Serif" font-size="10.00">+ sqrMagnitude</text>
<text text-anchor="start" x="112.5" y="-505.5" font-family="Helvetica,sans-Serif" font-size="10.00">+ length</text>
<text text-anchor="start" x="112.5" y="-494.5" font-family="Helvetica,sans-Serif" font-size="10.00"># solvedPosition</text>
<polyline fill="none" stroke="black" points="104.5,-487.5 221.5,-487.5 "/>
<text text-anchor="start" x="112.5" y="-475.5" font-family="Helvetica,sans-Serif" font-size="10.00">+ IKJoint()</text>
<text text-anchor="start" x="112.5" y="-464.5" font-family="Helvetica,sans-Serif" font-size="10.00">+ IKJoint()</text>
<text text-anchor="start" x="112.5" y="-453.5" font-family="Helvetica,sans-Serif" font-size="10.00">+ storeSolvedPosition()</text>
<text text-anchor="start" x="112.5" y="-442.5" font-family="Helvetica,sans-Serif" font-size="10.00">+ setSolvedPosition()</text>
<text text-anchor="start" x="112.5" y="-431.5" font-family="Helvetica,sans-Serif" font-size="10.00">+ getSolvedPosition()</text>
</a>
</g>
</g>
<!-- Node3&#45;&gt;Node1 -->
<g id="edge2" class="edge"><title>Node3&#45;&gt;Node1</title>
<path fill="none" stroke="#404040" d="M146.799,-424.445C142.152,-407.076 136.825,-387.161 131.256,-366.349"/>
<polygon fill="none" stroke="#404040" points="131.242,-366.296 125.828,-361.534 128.141,-354.704 133.556,-359.466 131.242,-366.296"/>
<text text-anchor="middle" x="168.5" y="-398" font-family="Helvetica,sans-Serif" font-size="10.00"> #lowerJoint</text>
<text text-anchor="middle" x="168.5" y="-387" font-family="Helvetica,sans-Serif" font-size="10.00">#upperJoint</text>
<text text-anchor="middle" x="168.5" y="-376" font-family="Helvetica,sans-Serif" font-size="10.00">#middleJoint</text>
</g>
<!-- Node4 -->
<g id="node4" class="node"><title>Node4</title>
<g id="a_node4"><a xlink:href="../../da/df7/class_hierarchic_joint.html" target="_top" xlink:title=" ">
<polygon fill="white" stroke="black" points="80.5,-595.5 80.5,-839.5 245.5,-839.5 245.5,-595.5 80.5,-595.5"/>
<text text-anchor="middle" x="163" y="-827.5" font-family="Helvetica,sans-Serif" font-size="10.00">HierarchicJoint</text>
<polyline fill="none" stroke="black" points="80.5,-820.5 245.5,-820.5 "/>
<text text-anchor="start" x="88.5" y="-808.5" font-family="Helvetica,sans-Serif" font-size="10.00"># children</text>
<text text-anchor="start" x="88.5" y="-797.5" font-family="Helvetica,sans-Serif" font-size="10.00"># joint</text>
<text text-anchor="start" x="88.5" y="-786.5" font-family="Helvetica,sans-Serif" font-size="10.00"># confidence</text>
<text text-anchor="start" x="88.5" y="-775.5" font-family="Helvetica,sans-Serif" font-size="10.00"># local</text>
<text text-anchor="start" x="88.5" y="-764.5" font-family="Helvetica,sans-Serif" font-size="10.00"># global</text>
<text text-anchor="start" x="88.5" y="-753.5" font-family="Helvetica,sans-Serif" font-size="10.00"># globalValid</text>
<polyline fill="none" stroke="black" points="80.5,-746.5 245.5,-746.5 "/>
<text text-anchor="start" x="88.5" y="-734.5" font-family="Helvetica,sans-Serif" font-size="10.00">+ HierarchicJoint()</text>
<text text-anchor="start" x="88.5" y="-723.5" font-family="Helvetica,sans-Serif" font-size="10.00">+ HierarchicJoint()</text>
<text text-anchor="start" x="88.5" y="-712.5" font-family="Helvetica,sans-Serif" font-size="10.00">+ HierarchicJoint()</text>
<text text-anchor="start" x="88.5" y="-701.5" font-family="Helvetica,sans-Serif" font-size="10.00">+ HierarchicJoint()</text>
<text text-anchor="start" x="88.5" y="-690.5" font-family="Helvetica,sans-Serif" font-size="10.00">+ setParent()</text>
<text text-anchor="start" x="88.5" y="-679.5" font-family="Helvetica,sans-Serif" font-size="10.00">+ getParent()</text>
<text text-anchor="start" x="88.5" y="-668.5" font-family="Helvetica,sans-Serif" font-size="10.00">+ addChild()</text>
<text text-anchor="start" x="88.5" y="-657.5" font-family="Helvetica,sans-Serif" font-size="10.00">+ getChildren()</text>
<text text-anchor="start" x="88.5" y="-646.5" font-family="Helvetica,sans-Serif" font-size="10.00">+ getFirstChild()</text>
<text text-anchor="start" x="88.5" y="-635.5" font-family="Helvetica,sans-Serif" font-size="10.00">+ setJointName()</text>
<text text-anchor="start" x="88.5" y="-624.5" font-family="Helvetica,sans-Serif" font-size="10.00">and 22 more...</text>
<text text-anchor="start" x="88.5" y="-613.5" font-family="Helvetica,sans-Serif" font-size="10.00"># combineParentMatrixRecursive()</text>
<text text-anchor="start" x="88.5" y="-602.5" font-family="Helvetica,sans-Serif" font-size="10.00"># invalidateGlobalRecursive()</text>
</a>
</g>
</g>
<!-- Node4&#45;&gt;Node3 -->
<g id="edge3" class="edge"><title>Node4&#45;&gt;Node3</title>
<path fill="none" stroke="#404040" d="M163,-595.365C163,-583.179 163,-571.089 163,-559.648"/>
<polygon fill="none" stroke="#404040" points="163,-559.513 159,-553.513 163,-547.513 167,-553.513 163,-559.513"/>
<text text-anchor="middle" x="177" y="-569" font-family="Helvetica,sans-Serif" font-size="10.00"> +joint</text>
</g>
<!-- Node4&#45;&gt;Node4 -->
<g id="edge4" class="edge"><title>Node4&#45;&gt;Node4</title>
<path fill="none" stroke="#404040" d="M245.796,-741.492C256.457,-737.331 263.5,-729.334 263.5,-717.5 263.5,-710.104 260.749,-704.206 256.083,-699.808"/>
<polygon fill="none" stroke="#404040" points="256.03,-699.775 248.824,-700.053 245.796,-693.508 253.002,-693.231 256.03,-699.775"/>
<text text-anchor="middle" x="281.5" y="-715" font-family="Helvetica,sans-Serif" font-size="10.00"> #parent</text>
</g>
</g>
</svg>
