<?xml version="1.0" encoding="UTF-8" standalone="no"?>
<!DOCTYPE svg PUBLIC "-//W3C//DTD SVG 1.1//EN"
 "http://www.w3.org/Graphics/SVG/1.1/DTD/svg11.dtd">
<!-- Generated by graphviz version 2.38.0 (20140413.2041)
 -->
<!-- Title: IKSolverArm Pages: 1 -->
<svg width="308pt" height="943pt"
 viewBox="0.00 0.00 307.50 943.00" xmlns="http://www.w3.org/2000/svg" xmlns:xlink="http://www.w3.org/1999/xlink">
<g id="graph0" class="graph" transform="scale(1 1) rotate(0) translate(4 939)">
<title>IKSolverArm</title>
<polygon fill="white" stroke="none" points="-4,4 -4,-939 303.5,-939 303.5,4 -4,4"/>
<!-- Node1 -->
<g id="node1" class="node"><title>Node1</title>
<g id="a_node1"><a xlink:title=" ">
<polygon fill="#bfbfbf" stroke="black" points="46,-0.5 46,-57.5 116,-57.5 116,-0.5 46,-0.5"/>
<text text-anchor="middle" x="81" y="-45.5" font-family="Helvetica,sans-Serif" font-size="10.00">IKSolverArm</text>
<polyline fill="none" stroke="black" points="46,-38.5 116,-38.5 "/>
<text text-anchor="middle" x="81" y="-26.5" font-family="Helvetica,sans-Serif" font-size="10.00"> </text>
<polyline fill="none" stroke="black" points="46,-19.5 116,-19.5 "/>
<text text-anchor="middle" x="81" y="-7.5" font-family="Helvetica,sans-Serif" font-size="10.00"> </text>
</a>
</g>
</g>
<!-- Node2 -->
<g id="node2" class="node"><title>Node2</title>
<g id="a_node2"><a xlink:href="../../de/d95/class_i_k_solver_limb.html" target="_top" xlink:title=" ">
<polygon fill="white" stroke="black" points="5.5,-95.5 5.5,-449.5 156.5,-449.5 156.5,-95.5 5.5,-95.5"/>
<text text-anchor="middle" x="81" y="-437.5" font-family="Helvetica,sans-Serif" font-size="10.00">IKSolverLimb</text>
<polyline fill="none" stroke="black" points="5.5,-430.5 156.5,-430.5 "/>
<text text-anchor="start" x="13.5" y="-418.5" font-family="Helvetica,sans-Serif" font-size="10.00">+ iterations</text>
<text text-anchor="start" x="13.5" y="-407.5" font-family="Helvetica,sans-Serif" font-size="10.00">+ tolerance</text>
<text text-anchor="start" x="13.5" y="-396.5" font-family="Helvetica,sans-Serif" font-size="10.00">+ progressTolerance</text>
<text text-anchor="start" x="13.5" y="-385.5" font-family="Helvetica,sans-Serif" font-size="10.00">+ bendToTargetRotationWeight</text>
<text text-anchor="start" x="13.5" y="-374.5" font-family="Helvetica,sans-Serif" font-size="10.00">+ bendToGoalWeight</text>
<text text-anchor="start" x="13.5" y="-363.5" font-family="Helvetica,sans-Serif" font-size="10.00">+ middleUntwistWeight</text>
<text text-anchor="start" x="13.5" y="-352.5" font-family="Helvetica,sans-Serif" font-size="10.00">+ upperUntwistWeight</text>
<text text-anchor="start" x="13.5" y="-341.5" font-family="Helvetica,sans-Serif" font-size="10.00">+ DebugFloat1</text>
<text text-anchor="start" x="13.5" y="-330.5" font-family="Helvetica,sans-Serif" font-size="10.00">+ DebugFloat2</text>
<text text-anchor="start" x="13.5" y="-319.5" font-family="Helvetica,sans-Serif" font-size="10.00">+ DebugFloat3</text>
<text text-anchor="start" x="13.5" y="-308.5" font-family="Helvetica,sans-Serif" font-size="10.00">+ DebugFloat4</text>
<text text-anchor="start" x="13.5" y="-297.5" font-family="Helvetica,sans-Serif" font-size="10.00"># joints</text>
<text text-anchor="start" x="13.5" y="-286.5" font-family="Helvetica,sans-Serif" font-size="10.00"># normal</text>
<text text-anchor="start" x="13.5" y="-275.5" font-family="Helvetica,sans-Serif" font-size="10.00"># _normal</text>
<text text-anchor="start" x="13.5" y="-264.5" font-family="Helvetica,sans-Serif" font-size="10.00"># lowerDefaultRotation</text>
<text text-anchor="start" x="13.5" y="-253.5" font-family="Helvetica,sans-Serif" font-size="10.00"># startPosition</text>
<polyline fill="none" stroke="black" points="5.5,-246.5 156.5,-246.5 "/>
<text text-anchor="start" x="13.5" y="-234.5" font-family="Helvetica,sans-Serif" font-size="10.00">+ IKSolverLimb()</text>
<text text-anchor="start" x="13.5" y="-223.5" font-family="Helvetica,sans-Serif" font-size="10.00">+ init()</text>
<text text-anchor="start" x="13.5" y="-212.5" font-family="Helvetica,sans-Serif" font-size="10.00">+ solve()</text>
<text text-anchor="start" x="13.5" y="-201.5" font-family="Helvetica,sans-Serif" font-size="10.00">+ getStartPosition()</text>
<text text-anchor="start" x="13.5" y="-190.5" font-family="Helvetica,sans-Serif" font-size="10.00"># saveDefaultState()</text>
<text text-anchor="start" x="13.5" y="-179.5" font-family="Helvetica,sans-Serif" font-size="10.00"># loadDefaultState()</text>
<text text-anchor="start" x="13.5" y="-168.5" font-family="Helvetica,sans-Serif" font-size="10.00"># solve()</text>
<text text-anchor="start" x="13.5" y="-157.5" font-family="Helvetica,sans-Serif" font-size="10.00"># constraint()</text>
<text text-anchor="start" x="13.5" y="-146.5" font-family="Helvetica,sans-Serif" font-size="10.00"># apply()</text>
<text text-anchor="start" x="13.5" y="-135.5" font-family="Helvetica,sans-Serif" font-size="10.00"># untwist()</text>
<text text-anchor="start" x="13.5" y="-124.5" font-family="Helvetica,sans-Serif" font-size="10.00"># forwardReach()</text>
<text text-anchor="start" x="13.5" y="-113.5" font-family="Helvetica,sans-Serif" font-size="10.00"># backwardReach()</text>
<text text-anchor="start" x="13.5" y="-102.5" font-family="Helvetica,sans-Serif" font-size="10.00"># solveFABRIK()</text>
</a>
</g>
</g>
<!-- Node2&#45;&gt;Node1 -->
<g id="edge1" class="edge"><title>Node2&#45;&gt;Node1</title>
<path fill="none" stroke="midnightblue" d="M81,-85.2689C81,-75.0228 81,-65.6785 81,-57.7068"/>
<polygon fill="none" stroke="midnightblue" points="77.5001,-85.3533 81,-95.3534 84.5001,-85.3534 77.5001,-85.3533"/>
</g>
<!-- Node3 -->
<g id="node3" class="node"><title>Node3</title>
<g id="a_node3"><a xlink:href="../../dd/d0e/class_i_k_solver.html" target="_top" xlink:title=" ">
<polygon fill="white" stroke="black" points="0,-530.5 0,-631.5 86,-631.5 86,-530.5 0,-530.5"/>
<text text-anchor="middle" x="43" y="-619.5" font-family="Helvetica,sans-Serif" font-size="10.00">IKSolver</text>
<polyline fill="none" stroke="black" points="0,-612.5 86,-612.5 "/>
<text text-anchor="start" x="8" y="-600.5" font-family="Helvetica,sans-Serif" font-size="10.00"># targetPosition</text>
<text text-anchor="start" x="8" y="-589.5" font-family="Helvetica,sans-Serif" font-size="10.00"># targetRotation</text>
<polyline fill="none" stroke="black" points="0,-582.5 86,-582.5 "/>
<text text-anchor="start" x="8" y="-570.5" font-family="Helvetica,sans-Serif" font-size="10.00">+ IKSolver()</text>
<text text-anchor="start" x="8" y="-559.5" font-family="Helvetica,sans-Serif" font-size="10.00">+ ~IKSolver()</text>
<text text-anchor="start" x="8" y="-548.5" font-family="Helvetica,sans-Serif" font-size="10.00">+ init()</text>
<text text-anchor="start" x="8" y="-537.5" font-family="Helvetica,sans-Serif" font-size="10.00">+ solve()</text>
</a>
</g>
</g>
<!-- Node3&#45;&gt;Node2 -->
<g id="edge2" class="edge"><title>Node3&#45;&gt;Node2</title>
<path fill="none" stroke="midnightblue" d="M50.4107,-520.227C52.9838,-499.473 56.0157,-475.018 59.1535,-449.709"/>
<polygon fill="none" stroke="midnightblue" points="46.9047,-520.06 49.1476,-530.415 53.8515,-520.921 46.9047,-520.06"/>
</g>
<!-- Node4 -->
<g id="node4" class="node"><title>Node4</title>
<g id="a_node4"><a xlink:href="../../da/dca/class_i_k_joint.html" target="_top" xlink:title=" ">
<polygon fill="white" stroke="black" points="104.5,-519.5 104.5,-642.5 221.5,-642.5 221.5,-519.5 104.5,-519.5"/>
<text text-anchor="middle" x="163" y="-630.5" font-family="Helvetica,sans-Serif" font-size="10.00">IKJoint</text>
<polyline fill="none" stroke="black" points="104.5,-623.5 221.5,-623.5 "/>
<text text-anchor="start" x="112.5" y="-611.5" font-family="Helvetica,sans-Serif" font-size="10.00">+ sqrMagnitude</text>
<text text-anchor="start" x="112.5" y="-600.5" font-family="Helvetica,sans-Serif" font-size="10.00">+ length</text>
<text text-anchor="start" x="112.5" y="-589.5" font-family="Helvetica,sans-Serif" font-size="10.00"># solvedPosition</text>
<polyline fill="none" stroke="black" points="104.5,-582.5 221.5,-582.5 "/>
<text text-anchor="start" x="112.5" y="-570.5" font-family="Helvetica,sans-Serif" font-size="10.00">+ IKJoint()</text>
<text text-anchor="start" x="112.5" y="-559.5" font-family="Helvetica,sans-Serif" font-size="10.00">+ IKJoint()</text>
<text text-anchor="start" x="112.5" y="-548.5" font-family="Helvetica,sans-Serif" font-size="10.00">+ storeSolvedPosition()</text>
<text text-anchor="start" x="112.5" y="-537.5" font-family="Helvetica,sans-Serif" font-size="10.00">+ setSolvedPosition()</text>
<text text-anchor="start" x="112.5" y="-526.5" font-family="Helvetica,sans-Serif" font-size="10.00">+ getSolvedPosition()</text>
</a>
</g>
</g>
<!-- Node4&#45;&gt;Node2 -->
<g id="edge3" class="edge"><title>Node4&#45;&gt;Node2</title>
<path fill="none" stroke="#404040" d="M146.799,-519.445C142.152,-502.076 136.825,-482.161 131.256,-461.349"/>
<polygon fill="none" stroke="#404040" points="131.242,-461.296 125.828,-456.534 128.141,-449.704 133.556,-454.466 131.242,-461.296"/>
<text text-anchor="middle" x="168.5" y="-493" font-family="Helvetica,sans-Serif" font-size="10.00"> #lowerJoint</text>
<text text-anchor="middle" x="168.5" y="-482" font-family="Helvetica,sans-Serif" font-size="10.00">#upperJoint</text>
<text text-anchor="middle" x="168.5" y="-471" font-family="Helvetica,sans-Serif" font-size="10.00">#middleJoint</text>
</g>
<!-- Node5 -->
<g id="node5" class="node"><title>Node5</title>
<g id="a_node5"><a xlink:href="../../da/df7/class_hierarchic_joint.html" target="_top" xlink:title=" ">
<polygon fill="white" stroke="black" points="80.5,-690.5 80.5,-934.5 245.5,-934.5 245.5,-690.5 80.5,-690.5"/>
<text text-anchor="middle" x="163" y="-922.5" font-family="Helvetica,sans-Serif" font-size="10.00">HierarchicJoint</text>
<polyline fill="none" stroke="black" points="80.5,-915.5 245.5,-915.5 "/>
<text text-anchor="start" x="88.5" y="-903.5" font-family="Helvetica,sans-Serif" font-size="10.00"># children</text>
<text text-anchor="start" x="88.5" y="-892.5" font-family="Helvetica,sans-Serif" font-size="10.00"># joint</text>
<text text-anchor="start" x="88.5" y="-881.5" font-family="Helvetica,sans-Serif" font-size="10.00"># confidence</text>
<text text-anchor="start" x="88.5" y="-870.5" font-family="Helvetica,sans-Serif" font-size="10.00"># local</text>
<text text-anchor="start" x="88.5" y="-859.5" font-family="Helvetica,sans-Serif" font-size="10.00"># global</text>
<text text-anchor="start" x="88.5" y="-848.5" font-family="Helvetica,sans-Serif" font-size="10.00"># globalValid</text>
<polyline fill="none" stroke="black" points="80.5,-841.5 245.5,-841.5 "/>
<text text-anchor="start" x="88.5" y="-829.5" font-family="Helvetica,sans-Serif" font-size="10.00">+ HierarchicJoint()</text>
<text text-anchor="start" x="88.5" y="-818.5" font-family="Helvetica,sans-Serif" font-size="10.00">+ HierarchicJoint()</text>
<text text-anchor="start" x="88.5" y="-807.5" font-family="Helvetica,sans-Serif" font-size="10.00">+ HierarchicJoint()</text>
<text text-anchor="start" x="88.5" y="-796.5" font-family="Helvetica,sans-Serif" font-size="10.00">+ HierarchicJoint()</text>
<text text-anchor="start" x="88.5" y="-785.5" font-family="Helvetica,sans-Serif" font-size="10.00">+ setParent()</text>
<text text-anchor="start" x="88.5" y="-774.5" font-family="Helvetica,sans-Serif" font-size="10.00">+ getParent()</text>
<text text-anchor="start" x="88.5" y="-763.5" font-family="Helvetica,sans-Serif" font-size="10.00">+ addChild()</text>
<text text-anchor="start" x="88.5" y="-752.5" font-family="Helvetica,sans-Serif" font-size="10.00">+ getChildren()</text>
<text text-anchor="start" x="88.5" y="-741.5" font-family="Helvetica,sans-Serif" font-size="10.00">+ getFirstChild()</text>
<text text-anchor="start" x="88.5" y="-730.5" font-family="Helvetica,sans-Serif" font-size="10.00">+ setJointName()</text>
<text text-anchor="start" x="88.5" y="-719.5" font-family="Helvetica,sans-Serif" font-size="10.00">and 22 more...</text>
<text text-anchor="start" x="88.5" y="-708.5" font-family="Helvetica,sans-Serif" font-size="10.00"># combineParentMatrixRecursive()</text>
<text text-anchor="start" x="88.5" y="-697.5" font-family="Helvetica,sans-Serif" font-size="10.00"># invalidateGlobalRecursive()</text>
</a>
</g>
</g>
<!-- Node5&#45;&gt;Node4 -->
<g id="edge4" class="edge"><title>Node5&#45;&gt;Node4</title>
<path fill="none" stroke="#404040" d="M163,-690.365C163,-678.179 163,-666.089 163,-654.648"/>
<polygon fill="none" stroke="#404040" points="163,-654.513 159,-648.513 163,-642.513 167,-648.513 163,-654.513"/>
<text text-anchor="middle" x="177" y="-664" font-family="Helvetica,sans-Serif" font-size="10.00"> +joint</text>
</g>
<!-- Node5&#45;&gt;Node5 -->
<g id="edge5" class="edge"><title>Node5&#45;&gt;Node5</title>
<path fill="none" stroke="#404040" d="M245.796,-836.492C256.457,-832.331 263.5,-824.334 263.5,-812.5 263.5,-805.104 260.749,-799.206 256.083,-794.808"/>
<polygon fill="none" stroke="#404040" points="256.03,-794.775 248.824,-795.053 245.796,-788.508 253.002,-788.231 256.03,-794.775"/>
<text text-anchor="middle" x="281.5" y="-810" font-family="Helvetica,sans-Serif" font-size="10.00"> #parent</text>
</g>
</g>
</svg>
