<?xml version="1.0" encoding="UTF-8" standalone="no"?>
<!DOCTYPE svg PUBLIC "-//W3C//DTD SVG 1.1//EN"
 "http://www.w3.org/Graphics/SVG/1.1/DTD/svg11.dtd">
<!-- Generated by graphviz version 2.38.0 (20140413.2041)
 -->
<!-- Title: Mesh Pages: 1 -->
<svg width="154pt" height="584pt"
 viewBox="0.00 0.00 153.50 584.00" xmlns="http://www.w3.org/2000/svg" xmlns:xlink="http://www.w3.org/1999/xlink">
<g id="graph0" class="graph" transform="scale(1 1) rotate(0) translate(4 580)">
<title>Mesh</title>
<polygon fill="white" stroke="none" points="-4,4 -4,-580 149.5,-580 149.5,4 -4,4"/>
<!-- Node1 -->
<g id="node1" class="node"><title>Node1</title>
<g id="a_node1"><a xlink:title="mesh base class">
<polygon fill="#bfbfbf" stroke="black" points="21.5,-127.5 21.5,-338.5 125.5,-338.5 125.5,-127.5 21.5,-127.5"/>
<text text-anchor="middle" x="73.5" y="-326.5" font-family="Helvetica,sans-Serif" font-size="10.00">Mesh</text>
<polyline fill="none" stroke="black" points="21.5,-319.5 125.5,-319.5 "/>
<text text-anchor="start" x="29.5" y="-307.5" font-family="Helvetica,sans-Serif" font-size="10.00"># m_vertexData</text>
<text text-anchor="start" x="29.5" y="-296.5" font-family="Helvetica,sans-Serif" font-size="10.00"># m_faceCount</text>
<text text-anchor="start" x="29.5" y="-285.5" font-family="Helvetica,sans-Serif" font-size="10.00"># m_vbo</text>
<text text-anchor="start" x="29.5" y="-274.5" font-family="Helvetica,sans-Serif" font-size="10.00"># m_texture</text>
<text text-anchor="start" x="29.5" y="-263.5" font-family="Helvetica,sans-Serif" font-size="10.00"># m_shaderProgram</text>
<text text-anchor="start" x="29.5" y="-252.5" font-family="Helvetica,sans-Serif" font-size="10.00"># m_isActive</text>
<text text-anchor="start" x="29.5" y="-241.5" font-family="Helvetica,sans-Serif" font-size="10.00"># m_diffuseColor</text>
<polyline fill="none" stroke="black" points="21.5,-234.5 125.5,-234.5 "/>
<text text-anchor="start" x="29.5" y="-222.5" font-family="Helvetica,sans-Serif" font-size="10.00">+ Mesh()</text>
<text text-anchor="start" x="29.5" y="-211.5" font-family="Helvetica,sans-Serif" font-size="10.00">+ ~Mesh()</text>
<text text-anchor="start" x="29.5" y="-200.5" font-family="Helvetica,sans-Serif" font-size="10.00">+ bind()</text>
<text text-anchor="start" x="29.5" y="-189.5" font-family="Helvetica,sans-Serif" font-size="10.00">+ release()</text>
<text text-anchor="start" x="29.5" y="-178.5" font-family="Helvetica,sans-Serif" font-size="10.00">+ getFaceCount()</text>
<text text-anchor="start" x="29.5" y="-167.5" font-family="Helvetica,sans-Serif" font-size="10.00">+ isActive()</text>
<text text-anchor="start" x="29.5" y="-156.5" font-family="Helvetica,sans-Serif" font-size="10.00">+ setActive()</text>
<text text-anchor="start" x="29.5" y="-145.5" font-family="Helvetica,sans-Serif" font-size="10.00">+ setDiffuseColor()</text>
<text text-anchor="start" x="29.5" y="-134.5" font-family="Helvetica,sans-Serif" font-size="10.00"># init()</text>
</a>
</g>
</g>
<!-- Node3 -->
<g id="node3" class="node"><title>Node3</title>
<g id="a_node3"><a xlink:href="../../d9/dbf/class_cube.html" target="_top" xlink:title=" ">
<polygon fill="white" stroke="black" points="0,-0.5 0,-90.5 65,-90.5 65,-0.5 0,-0.5"/>
<text text-anchor="middle" x="32.5" y="-78.5" font-family="Helvetica,sans-Serif" font-size="10.00">Cube</text>
<polyline fill="none" stroke="black" points="0,-71.5 65,-71.5 "/>
<text text-anchor="middle" x="32.5" y="-59.5" font-family="Helvetica,sans-Serif" font-size="10.00"> </text>
<polyline fill="none" stroke="black" points="0,-52.5 65,-52.5 "/>
<text text-anchor="start" x="8" y="-40.5" font-family="Helvetica,sans-Serif" font-size="10.00">+ Cube()</text>
<text text-anchor="start" x="8" y="-29.5" font-family="Helvetica,sans-Serif" font-size="10.00">+ Cube()</text>
<text text-anchor="start" x="8" y="-18.5" font-family="Helvetica,sans-Serif" font-size="10.00">+ ~Cube()</text>
<text text-anchor="start" x="8" y="-7.5" font-family="Helvetica,sans-Serif" font-size="10.00">&#45; initVerts()</text>
</a>
</g>
</g>
<!-- Node1&#45;&gt;Node3 -->
<g id="edge2" class="edge"><title>Node1&#45;&gt;Node3</title>
<path fill="none" stroke="midnightblue" d="M48.1898,-117.487C46.1238,-108.139 44.1269,-99.1045 42.2896,-90.7919"/>
<polygon fill="none" stroke="midnightblue" points="44.7882,-118.314 50.3639,-127.323 51.6232,-116.804 44.7882,-118.314"/>
</g>
<!-- Node4 -->
<g id="node4" class="node"><title>Node4</title>
<g id="a_node4"><a xlink:href="../../d2/d8d/class_plane.html" target="_top" xlink:title="plane mesh">
<polygon fill="white" stroke="black" points="83.5,-11.5 83.5,-79.5 145.5,-79.5 145.5,-11.5 83.5,-11.5"/>
<text text-anchor="middle" x="114.5" y="-67.5" font-family="Helvetica,sans-Serif" font-size="10.00">Plane</text>
<polyline fill="none" stroke="black" points="83.5,-60.5 145.5,-60.5 "/>
<text text-anchor="middle" x="114.5" y="-48.5" font-family="Helvetica,sans-Serif" font-size="10.00"> </text>
<polyline fill="none" stroke="black" points="83.5,-41.5 145.5,-41.5 "/>
<text text-anchor="start" x="91.5" y="-29.5" font-family="Helvetica,sans-Serif" font-size="10.00">+ Plane()</text>
<text text-anchor="start" x="91.5" y="-18.5" font-family="Helvetica,sans-Serif" font-size="10.00">+ ~Plane()</text>
</a>
</g>
</g>
<!-- Node1&#45;&gt;Node4 -->
<g id="edge3" class="edge"><title>Node1&#45;&gt;Node4</title>
<path fill="none" stroke="midnightblue" d="M98.8529,-117.294C101.867,-103.657 104.732,-90.693 107.168,-79.6737"/>
<polygon fill="none" stroke="midnightblue" points="95.3768,-116.804 96.6361,-127.323 102.212,-118.314 95.3768,-116.804"/>
</g>
<!-- Node2 -->
<g id="node2" class="node"><title>Node2</title>
<g id="a_node2"><a xlink:href="../../d2/d96/class_entity.html" target="_top" xlink:title="base class for all objects in openGl window">
<polygon fill="white" stroke="black" points="33,-375.5 33,-575.5 114,-575.5 114,-375.5 33,-375.5"/>
<text text-anchor="middle" x="73.5" y="-563.5" font-family="Helvetica,sans-Serif" font-size="10.00">Entity</text>
<polyline fill="none" stroke="black" points="33,-556.5 114,-556.5 "/>
<text text-anchor="start" x="41" y="-544.5" font-family="Helvetica,sans-Serif" font-size="10.00"># m_matrix</text>
<polyline fill="none" stroke="black" points="33,-537.5 114,-537.5 "/>
<text text-anchor="start" x="41" y="-525.5" font-family="Helvetica,sans-Serif" font-size="10.00">+ Entity()</text>
<text text-anchor="start" x="41" y="-514.5" font-family="Helvetica,sans-Serif" font-size="10.00">+ ~Entity()</text>
<text text-anchor="start" x="41" y="-503.5" font-family="Helvetica,sans-Serif" font-size="10.00">+ getMatrix()</text>
<text text-anchor="start" x="41" y="-492.5" font-family="Helvetica,sans-Serif" font-size="10.00">+ translate()</text>
<text text-anchor="start" x="41" y="-481.5" font-family="Helvetica,sans-Serif" font-size="10.00">+ setPosition()</text>
<text text-anchor="start" x="41" y="-470.5" font-family="Helvetica,sans-Serif" font-size="10.00">+ getPosition()</text>
<text text-anchor="start" x="41" y="-459.5" font-family="Helvetica,sans-Serif" font-size="10.00">+ rotate()</text>
<text text-anchor="start" x="41" y="-448.5" font-family="Helvetica,sans-Serif" font-size="10.00">+ setRotation()</text>
<text text-anchor="start" x="41" y="-437.5" font-family="Helvetica,sans-Serif" font-size="10.00">+ getRotation()</text>
<text text-anchor="start" x="41" y="-426.5" font-family="Helvetica,sans-Serif" font-size="10.00">+ scale()</text>
<text text-anchor="start" x="41" y="-415.5" font-family="Helvetica,sans-Serif" font-size="10.00">+ scale()</text>
<text text-anchor="start" x="41" y="-404.5" font-family="Helvetica,sans-Serif" font-size="10.00">+ setScale()</text>
<text text-anchor="start" x="41" y="-393.5" font-family="Helvetica,sans-Serif" font-size="10.00">+ setScale()</text>
<text text-anchor="start" x="41" y="-382.5" font-family="Helvetica,sans-Serif" font-size="10.00">+ getScale()</text>
</a>
</g>
</g>
<!-- Node2&#45;&gt;Node1 -->
<g id="edge1" class="edge"><title>Node2&#45;&gt;Node1</title>
<path fill="none" stroke="midnightblue" d="M73.5,-365.08C73.5,-356.342 73.5,-347.528 73.5,-338.823"/>
<polygon fill="none" stroke="midnightblue" points="70.0001,-365.291 73.5,-375.291 77.0001,-365.291 70.0001,-365.291"/>
</g>
</g>
</svg>
