<?xml version="1.0" encoding="UTF-8" standalone="no"?>
<!DOCTYPE svg PUBLIC "-//W3C//DTD SVG 1.1//EN"
 "http://www.w3.org/Graphics/SVG/1.1/DTD/svg11.dtd">
<!-- Generated by graphviz version 2.38.0 (20140413.2041)
 -->
<!-- Title: BVHPlayer Pages: 1 -->
<svg width="514pt" height="1107pt"
 viewBox="0.00 0.00 514.00 1107.00" xmlns="http://www.w3.org/2000/svg" xmlns:xlink="http://www.w3.org/1999/xlink">
<g id="graph0" class="graph" transform="scale(1 1) rotate(0) translate(4 1103)">
<title>BVHPlayer</title>
<polygon fill="white" stroke="none" points="-4,4 -4,-1103 510,-1103 510,4 -4,4"/>
<!-- Node1 -->
<g id="node1" class="node"><title>Node1</title>
<g id="a_node1"><a xlink:title=" ">
<polygon fill="#bfbfbf" stroke="black" points="274,-0.5 274,-266.5 405,-266.5 405,-0.5 274,-0.5"/>
<text text-anchor="middle" x="339.5" y="-254.5" font-family="Helvetica,sans-Serif" font-size="10.00">BVHPlayer</text>
<polyline fill="none" stroke="black" points="274,-247.5 405,-247.5 "/>
<text text-anchor="start" x="282" y="-235.5" font-family="Helvetica,sans-Serif" font-size="10.00">&#45; m_timelineDragging</text>
<text text-anchor="start" x="282" y="-224.5" font-family="Helvetica,sans-Serif" font-size="10.00">&#45; m_currFrame</text>
<text text-anchor="start" x="282" y="-213.5" font-family="Helvetica,sans-Serif" font-size="10.00">&#45; m_frameCount</text>
<text text-anchor="start" x="282" y="-202.5" font-family="Helvetica,sans-Serif" font-size="10.00">&#45; m_frameTime</text>
<text text-anchor="start" x="282" y="-191.5" font-family="Helvetica,sans-Serif" font-size="10.00">&#45; m_nameTranslationTable</text>
<text text-anchor="start" x="282" y="-180.5" font-family="Helvetica,sans-Serif" font-size="10.00">&#45; m_filePath</text>
<polyline fill="none" stroke="black" points="274,-173.5 405,-173.5 "/>
<text text-anchor="start" x="282" y="-161.5" font-family="Helvetica,sans-Serif" font-size="10.00">+ BVHPlayer()</text>
<text text-anchor="start" x="282" y="-150.5" font-family="Helvetica,sans-Serif" font-size="10.00">+ ~BVHPlayer()</text>
<text text-anchor="start" x="282" y="-139.5" font-family="Helvetica,sans-Serif" font-size="10.00">+ start()</text>
<text text-anchor="start" x="282" y="-128.5" font-family="Helvetica,sans-Serif" font-size="10.00">+ stop()</text>
<text text-anchor="start" x="282" y="-117.5" font-family="Helvetica,sans-Serif" font-size="10.00">+ getTrackerType()</text>
<text text-anchor="start" x="282" y="-106.5" font-family="Helvetica,sans-Serif" font-size="10.00">+ controlTime()</text>
<text text-anchor="start" x="282" y="-95.5" font-family="Helvetica,sans-Serif" font-size="10.00">+ setCurrentFrame()</text>
<text text-anchor="start" x="282" y="-84.5" font-family="Helvetica,sans-Serif" font-size="10.00">+ getTotalTime()</text>
<text text-anchor="start" x="282" y="-73.5" font-family="Helvetica,sans-Serif" font-size="10.00">+ getCurrFrameIdx()</text>
<text text-anchor="start" x="282" y="-62.5" font-family="Helvetica,sans-Serif" font-size="10.00">+ getFrameCount()</text>
<text text-anchor="start" x="282" y="-51.5" font-family="Helvetica,sans-Serif" font-size="10.00">+ applyModChange()</text>
<text text-anchor="start" x="282" y="-40.5" font-family="Helvetica,sans-Serif" font-size="10.00">&#45; init()</text>
<text text-anchor="start" x="282" y="-29.5" font-family="Helvetica,sans-Serif" font-size="10.00">&#45; update()</text>
<text text-anchor="start" x="282" y="-18.5" font-family="Helvetica,sans-Serif" font-size="10.00">&#45; track()</text>
<text text-anchor="start" x="282" y="-7.5" font-family="Helvetica,sans-Serif" font-size="10.00">&#45; convertJointRotation()</text>
</a>
</g>
</g>
<!-- Node2 -->
<g id="node2" class="node"><title>Node2</title>
<g id="a_node2"><a xlink:href="../../de/dbb/class_tracker.html" target="_top" xlink:title="Prototype class for implemetation &#45; holds virtual methods.">
<polygon fill="white" stroke="black" points="101.5,-314.5 101.5,-635.5 251.5,-635.5 251.5,-314.5 101.5,-314.5"/>
<text text-anchor="middle" x="176.5" y="-623.5" font-family="Helvetica,sans-Serif" font-size="10.00">Tracker</text>
<polyline fill="none" stroke="black" points="101.5,-616.5 251.5,-616.5 "/>
<text text-anchor="start" x="109.5" y="-604.5" font-family="Helvetica,sans-Serif" font-size="10.00"># m_isTracking</text>
<text text-anchor="start" x="109.5" y="-593.5" font-family="Helvetica,sans-Serif" font-size="10.00"># m_isEnabled</text>
<text text-anchor="start" x="109.5" y="-582.5" font-family="Helvetica,sans-Serif" font-size="10.00"># m_countDetectedSkeleton</text>
<text text-anchor="start" x="109.5" y="-571.5" font-family="Helvetica,sans-Serif" font-size="10.00"># m_offsetMatrix</text>
<text text-anchor="start" x="109.5" y="-560.5" font-family="Helvetica,sans-Serif" font-size="10.00"># m_rotationOffset</text>
<text text-anchor="start" x="109.5" y="-549.5" font-family="Helvetica,sans-Serif" font-size="10.00"># m_isDataAvailable</text>
<text text-anchor="start" x="109.5" y="-538.5" font-family="Helvetica,sans-Serif" font-size="10.00"># m_hasSkeletonPoolChanged</text>
<text text-anchor="start" x="109.5" y="-527.5" font-family="Helvetica,sans-Serif" font-size="10.00"># m_trackingThread</text>
<text text-anchor="start" x="109.5" y="-516.5" font-family="Helvetica,sans-Serif" font-size="10.00"># m_skeletonPool</text>
<text text-anchor="start" x="109.5" y="-505.5" font-family="Helvetica,sans-Serif" font-size="10.00"># m_skeletonPoolCache</text>
<text text-anchor="start" x="109.5" y="-494.5" font-family="Helvetica,sans-Serif" font-size="10.00">and 6 more...</text>
<polyline fill="none" stroke="black" points="101.5,-487.5 251.5,-487.5 "/>
<text text-anchor="start" x="109.5" y="-475.5" font-family="Helvetica,sans-Serif" font-size="10.00">+ Tracker()</text>
<text text-anchor="start" x="109.5" y="-464.5" font-family="Helvetica,sans-Serif" font-size="10.00">+ ~Tracker()</text>
<text text-anchor="start" x="109.5" y="-453.5" font-family="Helvetica,sans-Serif" font-size="10.00">+ start()</text>
<text text-anchor="start" x="109.5" y="-442.5" font-family="Helvetica,sans-Serif" font-size="10.00">+ stop()</text>
<text text-anchor="start" x="109.5" y="-431.5" font-family="Helvetica,sans-Serif" font-size="10.00">+ disable()</text>
<text text-anchor="start" x="109.5" y="-420.5" font-family="Helvetica,sans-Serif" font-size="10.00">+ enable()</text>
<text text-anchor="start" x="109.5" y="-409.5" font-family="Helvetica,sans-Serif" font-size="10.00">+ clean()</text>
<text text-anchor="start" x="109.5" y="-398.5" font-family="Helvetica,sans-Serif" font-size="10.00">+ isTracking()</text>
<text text-anchor="start" x="109.5" y="-387.5" font-family="Helvetica,sans-Serif" font-size="10.00">+ isEnabled()</text>
<text text-anchor="start" x="109.5" y="-376.5" font-family="Helvetica,sans-Serif" font-size="10.00">+ isDataAvailable()</text>
<text text-anchor="start" x="109.5" y="-365.5" font-family="Helvetica,sans-Serif" font-size="10.00">and 23 more...</text>
<text text-anchor="start" x="109.5" y="-354.5" font-family="Helvetica,sans-Serif" font-size="10.00"># getTrackerIdentifier()</text>
<text text-anchor="start" x="109.5" y="-343.5" font-family="Helvetica,sans-Serif" font-size="10.00"># readOffsetFromConfig()</text>
<text text-anchor="start" x="109.5" y="-332.5" font-family="Helvetica,sans-Serif" font-size="10.00"># update()</text>
<text text-anchor="start" x="109.5" y="-321.5" font-family="Helvetica,sans-Serif" font-size="10.00"># track()</text>
</a>
</g>
</g>
<!-- Node2&#45;&gt;Node1 -->
<g id="edge1" class="edge"><title>Node2&#45;&gt;Node1</title>
<path fill="none" stroke="midnightblue" d="M255.98,-308.458C262.714,-294.432 269.466,-280.369 276.052,-266.65"/>
<polygon fill="none" stroke="midnightblue" points="252.732,-307.135 251.559,-317.665 259.043,-310.165 252.732,-307.135"/>
</g>
<!-- Node3 -->
<g id="node3" class="node"><title>Node3</title>
<g id="a_node3"><a xlink:href="../../d4/daf/class_config_manager.html" target="_top" xlink:title=" ">
<polygon fill="white" stroke="black" points="0,-854.5 0,-1098.5 119,-1098.5 119,-854.5 0,-854.5"/>
<text text-anchor="middle" x="59.5" y="-1086.5" font-family="Helvetica,sans-Serif" font-size="10.00">ConfigManager</text>
<polyline fill="none" stroke="black" points="0,-1079.5 119,-1079.5 "/>
<text text-anchor="start" x="8" y="-1067.5" font-family="Helvetica,sans-Serif" font-size="10.00">&#45; m_config</text>
<polyline fill="none" stroke="black" points="0,-1060.5 119,-1060.5 "/>
<text text-anchor="start" x="8" y="-1048.5" font-family="Helvetica,sans-Serif" font-size="10.00">+ readString()</text>
<text text-anchor="start" x="8" y="-1037.5" font-family="Helvetica,sans-Serif" font-size="10.00">+ readBool()</text>
<text text-anchor="start" x="8" y="-1026.5" font-family="Helvetica,sans-Serif" font-size="10.00">+ readInt()</text>
<text text-anchor="start" x="8" y="-1015.5" font-family="Helvetica,sans-Serif" font-size="10.00">+ readFloat()</text>
<text text-anchor="start" x="8" y="-1004.5" font-family="Helvetica,sans-Serif" font-size="10.00">+ readVec3f()</text>
<text text-anchor="start" x="8" y="-993.5" font-family="Helvetica,sans-Serif" font-size="10.00">+ readVec4f()</text>
<text text-anchor="start" x="8" y="-982.5" font-family="Helvetica,sans-Serif" font-size="10.00">+ writeString()</text>
<text text-anchor="start" x="8" y="-971.5" font-family="Helvetica,sans-Serif" font-size="10.00">+ writeBool()</text>
<text text-anchor="start" x="8" y="-960.5" font-family="Helvetica,sans-Serif" font-size="10.00">+ writeInt()</text>
<text text-anchor="start" x="8" y="-949.5" font-family="Helvetica,sans-Serif" font-size="10.00">+ writeFloat()</text>
<text text-anchor="start" x="8" y="-938.5" font-family="Helvetica,sans-Serif" font-size="10.00">+ writeVec3f()</text>
<text text-anchor="start" x="8" y="-927.5" font-family="Helvetica,sans-Serif" font-size="10.00">+ writeVec4f()</text>
<text text-anchor="start" x="8" y="-916.5" font-family="Helvetica,sans-Serif" font-size="10.00">+ write()</text>
<text text-anchor="start" x="8" y="-905.5" font-family="Helvetica,sans-Serif" font-size="10.00">&#45; isLoaded()</text>
<text text-anchor="start" x="8" y="-894.5" font-family="Helvetica,sans-Serif" font-size="10.00">&#45; loadConfig()</text>
<text text-anchor="start" x="8" y="-883.5" font-family="Helvetica,sans-Serif" font-size="10.00">&#45; saveConfig()</text>
<text text-anchor="start" x="8" y="-872.5" font-family="Helvetica,sans-Serif" font-size="10.00">&#45; findElement()</text>
<text text-anchor="start" x="8" y="-861.5" font-family="Helvetica,sans-Serif" font-size="10.00">&#45; findOrCreateElement()</text>
</a>
</g>
</g>
<!-- Node3&#45;&gt;Node2 -->
<g id="edge2" class="edge"><title>Node3&#45;&gt;Node2</title>
<path fill="none" stroke="#404040" d="M17.8809,-854.33C5.7075,-800.755 0.0266269,-737.65 18.5,-683 33.9165,-637.394 63.8447,-593.913 93.5449,-558.68"/>
<polygon fill="none" stroke="#404040" points="93.6684,-558.536 94.5465,-551.379 101.491,-549.437 100.613,-556.594 93.6684,-558.536"/>
<text text-anchor="middle" x="61" y="-742.5" font-family="Helvetica,sans-Serif" font-size="10.00"> #m_configManager</text>
</g>
<!-- Node4 -->
<g id="node4" class="node"><title>Node4</title>
<g id="a_node4"><a xlink:href="../../da/d21/class_network_manager.html" target="_top" xlink:title="Manager for different Network Sender and skeleton sending.">
<polygon fill="white" stroke="black" points="112.5,-683.5 112.5,-806.5 240.5,-806.5 240.5,-683.5 112.5,-683.5"/>
<text text-anchor="middle" x="176.5" y="-794.5" font-family="Helvetica,sans-Serif" font-size="10.00">NetworkManager</text>
<polyline fill="none" stroke="black" points="112.5,-787.5 240.5,-787.5 "/>
<text text-anchor="start" x="120.5" y="-775.5" font-family="Helvetica,sans-Serif" font-size="10.00">+ m_ipAddress</text>
<text text-anchor="start" x="120.5" y="-764.5" font-family="Helvetica,sans-Serif" font-size="10.00">&#45; m_poolSender</text>
<polyline fill="none" stroke="black" points="112.5,-757.5 240.5,-757.5 "/>
<text text-anchor="start" x="120.5" y="-745.5" font-family="Helvetica,sans-Serif" font-size="10.00">+ NetworkManager()</text>
<text text-anchor="start" x="120.5" y="-734.5" font-family="Helvetica,sans-Serif" font-size="10.00">+ sendSkeletonPool()</text>
<text text-anchor="start" x="120.5" y="-723.5" font-family="Helvetica,sans-Serif" font-size="10.00">+ createOSCSender()</text>
<text text-anchor="start" x="120.5" y="-712.5" font-family="Helvetica,sans-Serif" font-size="10.00">+ removeNetworkSender()</text>
<text text-anchor="start" x="120.5" y="-701.5" font-family="Helvetica,sans-Serif" font-size="10.00">+ setIPAddress()</text>
<text text-anchor="start" x="120.5" y="-690.5" font-family="Helvetica,sans-Serif" font-size="10.00">+ isValidIPAddress()</text>
</a>
</g>
</g>
<!-- Node3&#45;&gt;Node4 -->
<g id="edge4" class="edge"><title>Node3&#45;&gt;Node4</title>
<path fill="none" stroke="#404040" d="M119.028,-858.733C126.217,-844.632 133.385,-830.572 140.098,-817.404"/>
<polygon fill="none" stroke="#404040" points="140.17,-817.263 139.332,-810.1 145.62,-806.572 146.459,-813.734 140.17,-817.263"/>
<text text-anchor="middle" x="177" y="-828" font-family="Helvetica,sans-Serif" font-size="10.00"> &#45;m_configManager</text>
</g>
<!-- Node4&#45;&gt;Node2 -->
<g id="edge3" class="edge"><title>Node4&#45;&gt;Node2</title>
<path fill="none" stroke="#404040" d="M176.5,-683.187C176.5,-672.127 176.5,-660.108 176.5,-647.614"/>
<polygon fill="none" stroke="#404040" points="176.5,-647.506 172.5,-641.506 176.5,-635.506 180.5,-641.506 176.5,-647.506"/>
<text text-anchor="middle" x="223.5" y="-657" font-family="Helvetica,sans-Serif" font-size="10.00"> #m_networkManager</text>
</g>
<!-- Node5 -->
<g id="node5" class="node"><title>Node5</title>
<g id="a_node5"><a xlink:href="../../d4/d92/struct_tracker_1_1_properties.html" target="_top" xlink:title=" ">
<polygon fill="white" stroke="black" points="259,-689 259,-801 370,-801 370,-689 259,-689"/>
<text text-anchor="middle" x="314.5" y="-789" font-family="Helvetica,sans-Serif" font-size="10.00">Tracker::Properties</text>
<polyline fill="none" stroke="black" points="259,-782 370,-782 "/>
<text text-anchor="start" x="267" y="-770" font-family="Helvetica,sans-Serif" font-size="10.00">+ id</text>
<text text-anchor="start" x="267" y="-759" font-family="Helvetica,sans-Serif" font-size="10.00">+ name</text>
<text text-anchor="start" x="267" y="-748" font-family="Helvetica,sans-Serif" font-size="10.00">+ positionOffset</text>
<text text-anchor="start" x="267" y="-737" font-family="Helvetica,sans-Serif" font-size="10.00">+ rotationOffset</text>
<text text-anchor="start" x="267" y="-726" font-family="Helvetica,sans-Serif" font-size="10.00">+ scaleOffset</text>
<text text-anchor="start" x="267" y="-715" font-family="Helvetica,sans-Serif" font-size="10.00">+ additionalProperties</text>
<polyline fill="none" stroke="black" points="259,-708 370,-708 "/>
<text text-anchor="start" x="267" y="-696" font-family="Helvetica,sans-Serif" font-size="10.00">+ ~Properties()</text>
</a>
</g>
</g>
<!-- Node5&#45;&gt;Node2 -->
<g id="edge5" class="edge"><title>Node5&#45;&gt;Node2</title>
<path fill="none" stroke="#404040" d="M292.453,-688.672C287.086,-676.955 281.001,-664.855 274.5,-654 269.292,-645.305 265.988,-644.52 260.5,-636 259.664,-634.702 258.829,-633.394 257.995,-632.079"/>
<polygon fill="none" stroke="#404040" points="257.967,-632.034 251.403,-629.048 251.634,-621.841 258.198,-624.826 257.967,-632.034"/>
<text text-anchor="middle" x="313" y="-657" font-family="Helvetica,sans-Serif" font-size="10.00"> #m_properties</text>
</g>
<!-- Node6 -->
<g id="node6" class="node"><title>Node6</title>
<g id="a_node6"><a xlink:href="../../d5/d9c/classbvh11_1_1_bvh_object.html" target="_top" xlink:title=" ">
<polygon fill="white" stroke="black" points="270,-331 270,-619 409,-619 409,-331 270,-331"/>
<text text-anchor="middle" x="339.5" y="-607" font-family="Helvetica,sans-Serif" font-size="10.00">bvh11::BvhObject</text>
<polyline fill="none" stroke="black" points="270,-600 409,-600 "/>
<text text-anchor="start" x="278" y="-588" font-family="Helvetica,sans-Serif" font-size="10.00">&#45; frames_</text>
<text text-anchor="start" x="278" y="-577" font-family="Helvetica,sans-Serif" font-size="10.00">&#45; frame_time_</text>
<text text-anchor="start" x="278" y="-566" font-family="Helvetica,sans-Serif" font-size="10.00">&#45; channels_</text>
<text text-anchor="start" x="278" y="-555" font-family="Helvetica,sans-Serif" font-size="10.00">&#45; motion_</text>
<text text-anchor="start" x="278" y="-544" font-family="Helvetica,sans-Serif" font-size="10.00">&#45; root_joint_</text>
<polyline fill="none" stroke="black" points="270,-537 409,-537 "/>
<text text-anchor="start" x="278" y="-525" font-family="Helvetica,sans-Serif" font-size="10.00">+ BvhObject()</text>
<text text-anchor="start" x="278" y="-514" font-family="Helvetica,sans-Serif" font-size="10.00">+ frames()</text>
<text text-anchor="start" x="278" y="-503" font-family="Helvetica,sans-Serif" font-size="10.00">+ frame_time()</text>
<text text-anchor="start" x="278" y="-492" font-family="Helvetica,sans-Serif" font-size="10.00">+ channels()</text>
<text text-anchor="start" x="278" y="-481" font-family="Helvetica,sans-Serif" font-size="10.00">+ motion()</text>
<text text-anchor="start" x="278" y="-470" font-family="Helvetica,sans-Serif" font-size="10.00">+ root_joint()</text>
<text text-anchor="start" x="278" y="-459" font-family="Helvetica,sans-Serif" font-size="10.00">+ GetJointList()</text>
<text text-anchor="start" x="278" y="-448" font-family="Helvetica,sans-Serif" font-size="10.00">+ GetTransformationRelative</text>
<text text-anchor="start" x="278" y="-437" font-family="Helvetica,sans-Serif" font-size="10.00">ToParent()</text>
<text text-anchor="start" x="278" y="-426" font-family="Helvetica,sans-Serif" font-size="10.00">+ GetTransformation()</text>
<text text-anchor="start" x="278" y="-415" font-family="Helvetica,sans-Serif" font-size="10.00">+ GetRootTransformation()</text>
<text text-anchor="start" x="278" y="-404" font-family="Helvetica,sans-Serif" font-size="10.00">and 16 more...</text>
<text text-anchor="start" x="278" y="-393" font-family="Helvetica,sans-Serif" font-size="10.00">&#45; ReadBvhFile()</text>
<text text-anchor="start" x="278" y="-382" font-family="Helvetica,sans-Serif" font-size="10.00">&#45; PrintJointSubHierarchy()</text>
<text text-anchor="start" x="278" y="-371" font-family="Helvetica,sans-Serif" font-size="10.00">&#45; WriteJointSubHierarchy()</text>
<text text-anchor="start" x="278" y="-360" font-family="Helvetica,sans-Serif" font-size="10.00">&#45; ReadBvhFile()</text>
<text text-anchor="start" x="278" y="-349" font-family="Helvetica,sans-Serif" font-size="10.00">&#45; PrintJointSubHierarchy()</text>
<text text-anchor="start" x="278" y="-338" font-family="Helvetica,sans-Serif" font-size="10.00">&#45; WriteJointSubHierarchy()</text>
</a>
</g>
</g>
<!-- Node6&#45;&gt;Node1 -->
<g id="edge6" class="edge"><title>Node6&#45;&gt;Node1</title>
<path fill="none" stroke="#404040" d="M339.5,-330.514C339.5,-313.475 339.5,-296.075 339.5,-279.023"/>
<polygon fill="none" stroke="#404040" points="339.5,-278.678 335.5,-272.678 339.5,-266.678 343.5,-272.678 339.5,-278.678"/>
<text text-anchor="middle" x="371" y="-288" font-family="Helvetica,sans-Serif" font-size="10.00"> &#45;m_bvhObject</text>
</g>
<!-- Node7 -->
<g id="node7" class="node"><title>Node7</title>
<g id="a_node7"><a xlink:href="../../d7/d08/class_skeleton.html" target="_top" xlink:title="Default Skeleton with all Joint poses.">
<polygon fill="white" stroke="black" points="427,-391.5 427,-558.5 506,-558.5 506,-391.5 427,-391.5"/>
<text text-anchor="middle" x="466.5" y="-546.5" font-family="Helvetica,sans-Serif" font-size="10.00">Skeleton</text>
<polyline fill="none" stroke="black" points="427,-539.5 506,-539.5 "/>
<text text-anchor="start" x="435" y="-527.5" font-family="Helvetica,sans-Serif" font-size="10.00">+ m_joints</text>
<text text-anchor="start" x="435" y="-516.5" font-family="Helvetica,sans-Serif" font-size="10.00">&#45; m_sid</text>
<text text-anchor="start" x="435" y="-505.5" font-family="Helvetica,sans-Serif" font-size="10.00">&#45; m_state</text>
<text text-anchor="start" x="435" y="-494.5" font-family="Helvetica,sans-Serif" font-size="10.00">&#45; m_posture</text>
<text text-anchor="start" x="435" y="-483.5" font-family="Helvetica,sans-Serif" font-size="10.00">&#45; m_height</text>
<polyline fill="none" stroke="black" points="427,-476.5 506,-476.5 "/>
<text text-anchor="start" x="435" y="-464.5" font-family="Helvetica,sans-Serif" font-size="10.00">+ Skeleton()</text>
<text text-anchor="start" x="435" y="-453.5" font-family="Helvetica,sans-Serif" font-size="10.00">+ Skeleton()</text>
<text text-anchor="start" x="435" y="-442.5" font-family="Helvetica,sans-Serif" font-size="10.00">+ getSid()</text>
<text text-anchor="start" x="435" y="-431.5" font-family="Helvetica,sans-Serif" font-size="10.00">+ getPosture()</text>
<text text-anchor="start" x="435" y="-420.5" font-family="Helvetica,sans-Serif" font-size="10.00">+ setPosture()</text>
<text text-anchor="start" x="435" y="-409.5" font-family="Helvetica,sans-Serif" font-size="10.00">+ getHeight()</text>
<text text-anchor="start" x="435" y="-398.5" font-family="Helvetica,sans-Serif" font-size="10.00">+ setHeight()</text>
</a>
</g>
</g>
<!-- Node7&#45;&gt;Node1 -->
<g id="edge7" class="edge"><title>Node7&#45;&gt;Node1</title>
<path fill="none" stroke="#404040" d="M443.44,-391.068C433.312,-357.666 420.528,-319.06 406.5,-285 405.543,-282.676 404.572,-280.334 403.59,-277.978"/>
<polygon fill="none" stroke="#404040" points="403.57,-277.929 397.558,-273.947 398.922,-266.866 404.934,-270.848 403.57,-277.929"/>
<text text-anchor="middle" x="448" y="-288" font-family="Helvetica,sans-Serif" font-size="10.00"> &#45;m_currSkeleton</text>
</g>
</g>
</svg>
