<?xml version="1.0" encoding="UTF-8" standalone="no"?>
<!DOCTYPE svg PUBLIC "-//W3C//DTD SVG 1.1//EN"
 "http://www.w3.org/Graphics/SVG/1.1/DTD/svg11.dtd">
<!-- Generated by graphviz version 2.38.0 (20140413.2041)
 -->
<!-- Title: CapturyActorPacket Pages: 1 -->
<svg width="112pt" height="248pt"
 viewBox="0.00 0.00 112.00 248.00" xmlns="http://www.w3.org/2000/svg" xmlns:xlink="http://www.w3.org/1999/xlink">
<g id="graph0" class="graph" transform="scale(1 1) rotate(0) translate(4 244)">
<title>CapturyActorPacket</title>
<polygon fill="white" stroke="none" points="-4,4 -4,-244 108,-244 108,4 -4,4"/>
<!-- Node1 -->
<g id="node1" class="node"><title>Node1</title>
<g id="a_node1"><a xlink:title=" ">
<polygon fill="#bfbfbf" stroke="black" points="0,-0.5 0,-101.5 104,-101.5 104,-0.5 0,-0.5"/>
<text text-anchor="middle" x="52" y="-89.5" font-family="Helvetica,sans-Serif" font-size="10.00">CapturyActorPacket</text>
<polyline fill="none" stroke="black" points="0,-82.5 104,-82.5 "/>
<text text-anchor="start" x="8" y="-70.5" font-family="Helvetica,sans-Serif" font-size="10.00">+ type</text>
<text text-anchor="start" x="8" y="-59.5" font-family="Helvetica,sans-Serif" font-size="10.00">+ size</text>
<text text-anchor="start" x="8" y="-48.5" font-family="Helvetica,sans-Serif" font-size="10.00">+ name</text>
<text text-anchor="start" x="8" y="-37.5" font-family="Helvetica,sans-Serif" font-size="10.00">+ id</text>
<text text-anchor="start" x="8" y="-26.5" font-family="Helvetica,sans-Serif" font-size="10.00">+ numJoints</text>
<polyline fill="none" stroke="black" points="0,-19.5 104,-19.5 "/>
<text text-anchor="middle" x="52" y="-7.5" font-family="Helvetica,sans-Serif" font-size="10.00"> </text>
</a>
</g>
</g>
<!-- Node2 -->
<g id="node2" class="node"><title>Node2</title>
<g id="a_node2"><a xlink:href="../../d5/dd7/struct_captury_joint_packet.html" target="_top" xlink:title=" ">
<polygon fill="white" stroke="black" points="1.5,-149.5 1.5,-239.5 102.5,-239.5 102.5,-149.5 1.5,-149.5"/>
<text text-anchor="middle" x="52" y="-227.5" font-family="Helvetica,sans-Serif" font-size="10.00">CapturyJointPacket</text>
<polyline fill="none" stroke="black" points="1.5,-220.5 102.5,-220.5 "/>
<text text-anchor="start" x="9.5" y="-208.5" font-family="Helvetica,sans-Serif" font-size="10.00">+ name</text>
<text text-anchor="start" x="9.5" y="-197.5" font-family="Helvetica,sans-Serif" font-size="10.00">+ parent</text>
<text text-anchor="start" x="9.5" y="-186.5" font-family="Helvetica,sans-Serif" font-size="10.00">+ offset</text>
<text text-anchor="start" x="9.5" y="-175.5" font-family="Helvetica,sans-Serif" font-size="10.00">+ orientation</text>
<polyline fill="none" stroke="black" points="1.5,-168.5 102.5,-168.5 "/>
<text text-anchor="middle" x="52" y="-156.5" font-family="Helvetica,sans-Serif" font-size="10.00"> </text>
</a>
</g>
</g>
<!-- Node2&#45;&gt;Node1 -->
<g id="edge1" class="edge"><title>Node2&#45;&gt;Node1</title>
<path fill="none" stroke="#404040" d="M52,-149.117C52,-137.928 52,-125.713 52,-113.838"/>
<polygon fill="none" stroke="#404040" points="52.0001,-113.644 48,-107.644 52,-101.644 56,-107.644 52.0001,-113.644"/>
<text text-anchor="middle" x="68.5" y="-123" font-family="Helvetica,sans-Serif" font-size="10.00"> +joints</text>
</g>
</g>
</svg>
