<?xml version="1.0" encoding="UTF-8" standalone="no"?>
<!DOCTYPE svg PUBLIC "-//W3C//DTD SVG 1.1//EN"
 "http://www.w3.org/Graphics/SVG/1.1/DTD/svg11.dtd">
<!-- Generated by graphviz version 2.38.0 (20140413.2041)
 -->
<!-- Title: OsgBone Pages: 1 -->
<!--zoomable 596 -->
<svg id="main" version="1.1" xmlns="http://www.w3.org/2000/svg" xmlns:xlink="http://www.w3.org/1999/xlink" xml:space="preserve" onload="init(evt)">
<style type="text/css"><![CDATA[
.edge:hover path { stroke: red; }
.edge:hover polygon { stroke: red; fill: red; }
]]></style>
<script type="text/javascript"><![CDATA[
var edges = document.getElementsByTagName('g');
if (edges && edges.length) {
  for (var i=0;i<edges.length;i++) {
    if (edges[i].id.substr(0,4)=='edge') {
      edges[i].setAttribute('class','edge');
    }
  }
}
]]></script>
        <defs>
                <circle id="rim" cx="0" cy="0" r="7"/>
                <circle id="rim2" cx="0" cy="0" r="3.5"/>
                <g id="zoomPlus">
                        <use xlink:href="#rim" fill="#404040">
                                <set attributeName="fill" to="#808080" begin="zoomplus.mouseover" end="zoomplus.mouseout"/>
                        </use>
                        <path d="M-4,0h8M0,-4v8" fill="none" stroke="white" stroke-width="1.5" pointer-events="none"/>
                </g>
                <g id="zoomMin">
                        <use xlink:href="#rim" fill="#404040">
                                <set attributeName="fill" to="#808080" begin="zoomminus.mouseover" end="zoomminus.mouseout"/>
                        </use>
                        <path d="M-4,0h8" fill="none" stroke="white" stroke-width="1.5" pointer-events="none"/>
                </g>
                <g id="dirArrow">
                        <path fill="none" stroke="white" stroke-width="1.5" d="M0,-3.0v7 M-2.5,-0.5L0,-3.0L2.5,-0.5"/>
                </g>
               <g id="resetDef">
                       <use xlink:href="#rim2" fill="#404040">
                               <set attributeName="fill" to="#808080" begin="reset.mouseover" end="reset.mouseout"/>
                       </use>
               </g>
        </defs>

<script type="text/javascript">
var viewWidth = 234;
var viewHeight = 596;
var sectionId = 'dynsection-1';
</script>
<script xlink:href="../../svgpan.js"/>
<svg id="graph" class="graph">
<g id="viewport">
<title>OsgBone</title>
<polygon fill="white" stroke="none" points="-4,4 -4,-592 229.5,-592 229.5,4 -4,4"/>
<!-- Node1 -->
<g id="node1" class="node"><title>Node1</title>
<g id="a_node1"><a xlink:title=" ">
<polygon fill="#bfbfbf" stroke="black" points="0,-0.5 0,-244.5 169,-244.5 169,-0.5 0,-0.5"/>
<text text-anchor="middle" x="84.5" y="-232.5" font-family="Helvetica,sans-Serif" font-size="10.00">OsgBone</text>
<polyline fill="none" stroke="black" points="0,-225.5 169,-225.5 "/>
<text text-anchor="start" x="8" y="-213.5" font-family="Helvetica,sans-Serif" font-size="10.00">&#45; m_boneNode</text>
<text text-anchor="start" x="8" y="-202.5" font-family="Helvetica,sans-Serif" font-size="10.00">&#45; m_startJoint</text>
<text text-anchor="start" x="8" y="-191.5" font-family="Helvetica,sans-Serif" font-size="10.00">&#45; m_startJointOffset</text>
<text text-anchor="start" x="8" y="-180.5" font-family="Helvetica,sans-Serif" font-size="10.00">&#45; m_endJoint</text>
<text text-anchor="start" x="8" y="-169.5" font-family="Helvetica,sans-Serif" font-size="10.00">&#45; offsetRotation</text>
<text text-anchor="start" x="8" y="-158.5" font-family="Helvetica,sans-Serif" font-size="10.00">&#45; m_isStickManRenderingActive</text>
<text text-anchor="start" x="8" y="-147.5" font-family="Helvetica,sans-Serif" font-size="10.00">&#45; m_isGlLookAtSolidBoneRotation</text>
<text text-anchor="start" x="8" y="-136.5" font-family="Helvetica,sans-Serif" font-size="10.00">Activated</text>
<polyline fill="none" stroke="black" points="0,-129.5 169,-129.5 "/>
<text text-anchor="start" x="8" y="-117.5" font-family="Helvetica,sans-Serif" font-size="10.00">+ OsgBone()</text>
<text text-anchor="start" x="8" y="-106.5" font-family="Helvetica,sans-Serif" font-size="10.00">+ OsgBone()</text>
<text text-anchor="start" x="8" y="-95.5" font-family="Helvetica,sans-Serif" font-size="10.00">+ ~OsgBone()</text>
<text text-anchor="start" x="8" y="-84.5" font-family="Helvetica,sans-Serif" font-size="10.00">+ setStartJoint()</text>
<text text-anchor="start" x="8" y="-73.5" font-family="Helvetica,sans-Serif" font-size="10.00">+ setEndJoint()</text>
<text text-anchor="start" x="8" y="-62.5" font-family="Helvetica,sans-Serif" font-size="10.00">+ setOffsetRotation()</text>
<text text-anchor="start" x="8" y="-51.5" font-family="Helvetica,sans-Serif" font-size="10.00">+ update()</text>
<text text-anchor="start" x="8" y="-40.5" font-family="Helvetica,sans-Serif" font-size="10.00">+ updateScale()</text>
<text text-anchor="start" x="8" y="-29.5" font-family="Helvetica,sans-Serif" font-size="10.00">+ createLeafJoint()</text>
<text text-anchor="start" x="8" y="-18.5" font-family="Helvetica,sans-Serif" font-size="10.00">+ updateStickManRenderingState()</text>
<text text-anchor="start" x="8" y="-7.5" font-family="Helvetica,sans-Serif" font-size="10.00">&#45; initialize()</text>
</a>
</g>
</g>
<!-- Node2 -->
<g id="node2" class="node"><title>Node2</title>
<g id="a_node2"><a xlink:title=" ">
<polygon fill="white" stroke="#bfbfbf" points="21,-364 21,-421 82,-421 82,-364 21,-364"/>
<text text-anchor="middle" x="51.5" y="-409" font-family="Helvetica,sans-Serif" font-size="10.00">osg::Node</text>
<polyline fill="none" stroke="#bfbfbf" points="21,-402 82,-402 "/>
<text text-anchor="middle" x="51.5" y="-390" font-family="Helvetica,sans-Serif" font-size="10.00"> </text>
<polyline fill="none" stroke="#bfbfbf" points="21,-383 82,-383 "/>
<text text-anchor="middle" x="51.5" y="-371" font-family="Helvetica,sans-Serif" font-size="10.00"> </text>
</a>
</g>
</g>
<!-- Node2&#45;&gt;Node1 -->
<g id="edge1" class="edge"><title>Node2&#45;&gt;Node1</title>
<path fill="none" stroke="midnightblue" d="M56.1341,-353.866C59.6613,-325.22 64.7243,-284.102 69.5994,-244.511"/>
<polygon fill="none" stroke="midnightblue" points="52.6557,-353.476 54.9073,-363.829 59.6033,-354.331 52.6557,-353.476"/>
</g>
<!-- Node3 -->
<g id="node3" class="node"><title>Node3</title>
<g id="a_node3"><a xlink:href="../../d7/d6e/class_osg_line.html" target="_top" xlink:title=" ">
<polygon fill="white" stroke="black" points="100,-292.5 100,-492.5 201,-492.5 201,-292.5 100,-292.5"/>
<text text-anchor="middle" x="150.5" y="-480.5" font-family="Helvetica,sans-Serif" font-size="10.00">OsgLine</text>
<polyline fill="none" stroke="black" points="100,-473.5 201,-473.5 "/>
<text text-anchor="start" x="108" y="-461.5" font-family="Helvetica,sans-Serif" font-size="10.00">&#45; m_scale</text>
<text text-anchor="start" x="108" y="-450.5" font-family="Helvetica,sans-Serif" font-size="10.00">&#45; m_thickness</text>
<text text-anchor="start" x="108" y="-439.5" font-family="Helvetica,sans-Serif" font-size="10.00">&#45; m_geode</text>
<text text-anchor="start" x="108" y="-428.5" font-family="Helvetica,sans-Serif" font-size="10.00">&#45; m_geom</text>
<text text-anchor="start" x="108" y="-417.5" font-family="Helvetica,sans-Serif" font-size="10.00">&#45; m_colors</text>
<text text-anchor="start" x="108" y="-406.5" font-family="Helvetica,sans-Serif" font-size="10.00">&#45; m_drawArrays</text>
<text text-anchor="start" x="108" y="-395.5" font-family="Helvetica,sans-Serif" font-size="10.00">&#45; m_vertices</text>
<text text-anchor="start" x="108" y="-384.5" font-family="Helvetica,sans-Serif" font-size="10.00">&#45; m_isDirty</text>
<text text-anchor="start" x="108" y="-373.5" font-family="Helvetica,sans-Serif" font-size="10.00">&#45; m_isDisplayed</text>
<polyline fill="none" stroke="black" points="100,-366.5 201,-366.5 "/>
<text text-anchor="start" x="108" y="-354.5" font-family="Helvetica,sans-Serif" font-size="10.00">+ OsgLine()</text>
<text text-anchor="start" x="108" y="-343.5" font-family="Helvetica,sans-Serif" font-size="10.00">+ ~OsgLine()</text>
<text text-anchor="start" x="108" y="-332.5" font-family="Helvetica,sans-Serif" font-size="10.00">+ createGeometry()</text>
<text text-anchor="start" x="108" y="-321.5" font-family="Helvetica,sans-Serif" font-size="10.00">+ draw()</text>
<text text-anchor="start" x="108" y="-310.5" font-family="Helvetica,sans-Serif" font-size="10.00">+ redraw()</text>
<text text-anchor="start" x="108" y="-299.5" font-family="Helvetica,sans-Serif" font-size="10.00">+ clear()</text>
</a>
</g>
</g>
<!-- Node3&#45;&gt;Node1 -->
<g id="edge2" class="edge"><title>Node3&#45;&gt;Node1</title>
<path fill="none" stroke="#404040" d="M126.112,-292.468C123.247,-280.838 120.29,-268.829 117.335,-256.828"/>
<polygon fill="none" stroke="#404040" points="117.253,-256.496 111.934,-251.626 114.383,-244.844 119.702,-249.713 117.253,-256.496"/>
<text text-anchor="middle" x="138" y="-266" font-family="Helvetica,sans-Serif" font-size="10.00"> &#45;m_line</text>
</g>
<!-- Node4 -->
<g id="node4" class="node"><title>Node4</title>
<g id="a_node4"><a xlink:title=" ">
<polygon fill="white" stroke="#bfbfbf" points="75.5,-530.5 75.5,-587.5 225.5,-587.5 225.5,-530.5 75.5,-530.5"/>
<text text-anchor="middle" x="150.5" y="-575.5" font-family="Helvetica,sans-Serif" font-size="10.00">osg::PositionAttitudeTransform</text>
<polyline fill="none" stroke="#bfbfbf" points="75.5,-568.5 225.5,-568.5 "/>
<text text-anchor="middle" x="150.5" y="-556.5" font-family="Helvetica,sans-Serif" font-size="10.00"> </text>
<polyline fill="none" stroke="#bfbfbf" points="75.5,-549.5 225.5,-549.5 "/>
<text text-anchor="middle" x="150.5" y="-537.5" font-family="Helvetica,sans-Serif" font-size="10.00"> </text>
</a>
</g>
</g>
<!-- Node4&#45;&gt;Node3 -->
<g id="edge3" class="edge"><title>Node4&#45;&gt;Node3</title>
<path fill="none" stroke="midnightblue" d="M150.5,-520.289C150.5,-511.841 150.5,-502.496 150.5,-492.821"/>
<polygon fill="none" stroke="midnightblue" points="147,-520.466 150.5,-530.466 154,-520.466 147,-520.466"/>
</g>
</g>
</svg>
        <g id="navigator" transform="translate(0 0)" fill="#404254">
                <rect fill="#f2f5e9" fill-opacity="0.5" stroke="#606060" stroke-width=".5" x="0" y="0" width="60" height="60"/>
                <use id="zoomplus" xlink:href="#zoomPlus" x="17" y="9" onmousedown="handleZoom(evt,'in')"/>
                <use id="zoomminus" xlink:href="#zoomMin" x="42" y="9" onmousedown="handleZoom(evt,'out')"/>
                <use id="reset" xlink:href="#resetDef" x="30" y="36" onmousedown="handleReset()"/>
                <g id="arrowUp" xlink:href="#dirArrow" transform="translate(30 24)" onmousedown="handlePan(0,-1)">
                  <use xlink:href="#rim" fill="#404040">
                        <set attributeName="fill" to="#808080" begin="arrowUp.mouseover" end="arrowUp.mouseout"/>
                  </use>
                  <path fill="none" stroke="white" stroke-width="1.5" d="M0,-3.0v7 M-2.5,-0.5L0,-3.0L2.5,-0.5"/>
                </g>
                <g id="arrowRight" xlink:href="#dirArrow" transform="rotate(90) translate(36 -43)" onmousedown="handlePan(1,0)">
                  <use xlink:href="#rim" fill="#404040">
                        <set attributeName="fill" to="#808080" begin="arrowRight.mouseover" end="arrowRight.mouseout"/>
                  </use>
                  <path fill="none" stroke="white" stroke-width="1.5" d="M0,-3.0v7 M-2.5,-0.5L0,-3.0L2.5,-0.5"/>
                </g>
                <g id="arrowDown" xlink:href="#dirArrow" transform="rotate(180) translate(-30 -48)" onmousedown="handlePan(0,1)">
                  <use xlink:href="#rim" fill="#404040">
                        <set attributeName="fill" to="#808080" begin="arrowDown.mouseover" end="arrowDown.mouseout"/>
                  </use>
                  <path fill="none" stroke="white" stroke-width="1.5" d="M0,-3.0v7 M-2.5,-0.5L0,-3.0L2.5,-0.5"/>
                </g>
                <g id="arrowLeft" xlink:href="#dirArrow" transform="rotate(270) translate(-36 17)" onmousedown="handlePan(-1,0)">
                  <use xlink:href="#rim" fill="#404040">
                        <set attributeName="fill" to="#808080" begin="arrowLeft.mouseover" end="arrowLeft.mouseout"/>
                  </use>
                  <path fill="none" stroke="white" stroke-width="1.5" d="M0,-3.0v7 M-2.5,-0.5L0,-3.0L2.5,-0.5"/>
                </g>
        </g>
        <svg viewBox="0 0 15 15" width="100%" height="30px" preserveAspectRatio="xMaxYMin meet">
         <g id="arrow_out" transform="scale(0.3 0.3)">
          <a xlink:href="class_osg_bone__coll__graph_org.svg" target="_base">
           <rect id="button" ry="5" rx="5" y="6" x="6" height="38" width="38"
                fill="#f2f5e9" fill-opacity="0.5" stroke="#606060" stroke-width="1.0"/>
           <path id="arrow"
             d="M 11.500037,31.436501 C 11.940474,20.09759 22.043105,11.32322 32.158766,21.979434 L 37.068811,17.246167 C 37.068811,17.246167 37.088388,32 37.088388,32 L 22.160133,31.978069 C 22.160133,31.978069 26.997745,27.140456 26.997745,27.140456 C 18.528582,18.264221 13.291696,25.230495 11.500037,31.436501 z"
             style="fill:#404040;"/>
          </a>
         </g>
        </svg>
</svg>
