<?xml version="1.0" encoding="UTF-8" standalone="no"?>
<!DOCTYPE svg PUBLIC "-//W3C//DTD SVG 1.1//EN"
 "http://www.w3.org/Graphics/SVG/1.1/DTD/svg11.dtd">
<!-- Generated by graphviz version 2.38.0 (20140413.2041)
 -->
<!-- Title: OsgBone Pages: 1 -->
<svg width="234pt" height="596pt"
 viewBox="0.00 0.00 233.50 596.00" xmlns="http://www.w3.org/2000/svg" xmlns:xlink="http://www.w3.org/1999/xlink">
<g id="graph0" class="graph" transform="scale(1 1) rotate(0) translate(4 592)">
<title>OsgBone</title>
<polygon fill="white" stroke="none" points="-4,4 -4,-592 229.5,-592 229.5,4 -4,4"/>
<!-- Node1 -->
<g id="node1" class="node"><title>Node1</title>
<g id="a_node1"><a xlink:title=" ">
<polygon fill="#bfbfbf" stroke="black" points="0,-0.5 0,-244.5 169,-244.5 169,-0.5 0,-0.5"/>
<text text-anchor="middle" x="84.5" y="-232.5" font-family="Helvetica,sans-Serif" font-size="10.00">OsgBone</text>
<polyline fill="none" stroke="black" points="0,-225.5 169,-225.5 "/>
<text text-anchor="start" x="8" y="-213.5" font-family="Helvetica,sans-Serif" font-size="10.00">&#45; m_boneNode</text>
<text text-anchor="start" x="8" y="-202.5" font-family="Helvetica,sans-Serif" font-size="10.00">&#45; m_startJoint</text>
<text text-anchor="start" x="8" y="-191.5" font-family="Helvetica,sans-Serif" font-size="10.00">&#45; m_startJointOffset</text>
<text text-anchor="start" x="8" y="-180.5" font-family="Helvetica,sans-Serif" font-size="10.00">&#45; m_endJoint</text>
<text text-anchor="start" x="8" y="-169.5" font-family="Helvetica,sans-Serif" font-size="10.00">&#45; offsetRotation</text>
<text text-anchor="start" x="8" y="-158.5" font-family="Helvetica,sans-Serif" font-size="10.00">&#45; m_isStickManRenderingActive</text>
<text text-anchor="start" x="8" y="-147.5" font-family="Helvetica,sans-Serif" font-size="10.00">&#45; m_isGlLookAtSolidBoneRotation</text>
<text text-anchor="start" x="8" y="-136.5" font-family="Helvetica,sans-Serif" font-size="10.00">Activated</text>
<polyline fill="none" stroke="black" points="0,-129.5 169,-129.5 "/>
<text text-anchor="start" x="8" y="-117.5" font-family="Helvetica,sans-Serif" font-size="10.00">+ OsgBone()</text>
<text text-anchor="start" x="8" y="-106.5" font-family="Helvetica,sans-Serif" font-size="10.00">+ OsgBone()</text>
<text text-anchor="start" x="8" y="-95.5" font-family="Helvetica,sans-Serif" font-size="10.00">+ ~OsgBone()</text>
<text text-anchor="start" x="8" y="-84.5" font-family="Helvetica,sans-Serif" font-size="10.00">+ setStartJoint()</text>
<text text-anchor="start" x="8" y="-73.5" font-family="Helvetica,sans-Serif" font-size="10.00">+ setEndJoint()</text>
<text text-anchor="start" x="8" y="-62.5" font-family="Helvetica,sans-Serif" font-size="10.00">+ setOffsetRotation()</text>
<text text-anchor="start" x="8" y="-51.5" font-family="Helvetica,sans-Serif" font-size="10.00">+ update()</text>
<text text-anchor="start" x="8" y="-40.5" font-family="Helvetica,sans-Serif" font-size="10.00">+ updateScale()</text>
<text text-anchor="start" x="8" y="-29.5" font-family="Helvetica,sans-Serif" font-size="10.00">+ createLeafJoint()</text>
<text text-anchor="start" x="8" y="-18.5" font-family="Helvetica,sans-Serif" font-size="10.00">+ updateStickManRenderingState()</text>
<text text-anchor="start" x="8" y="-7.5" font-family="Helvetica,sans-Serif" font-size="10.00">&#45; initialize()</text>
</a>
</g>
</g>
<!-- Node2 -->
<g id="node2" class="node"><title>Node2</title>
<g id="a_node2"><a xlink:title=" ">
<polygon fill="white" stroke="#bfbfbf" points="21,-364 21,-421 82,-421 82,-364 21,-364"/>
<text text-anchor="middle" x="51.5" y="-409" font-family="Helvetica,sans-Serif" font-size="10.00">osg::Node</text>
<polyline fill="none" stroke="#bfbfbf" points="21,-402 82,-402 "/>
<text text-anchor="middle" x="51.5" y="-390" font-family="Helvetica,sans-Serif" font-size="10.00"> </text>
<polyline fill="none" stroke="#bfbfbf" points="21,-383 82,-383 "/>
<text text-anchor="middle" x="51.5" y="-371" font-family="Helvetica,sans-Serif" font-size="10.00"> </text>
</a>
</g>
</g>
<!-- Node2&#45;&gt;Node1 -->
<g id="edge1" class="edge"><title>Node2&#45;&gt;Node1</title>
<path fill="none" stroke="midnightblue" d="M56.1341,-353.866C59.6613,-325.22 64.7243,-284.102 69.5994,-244.511"/>
<polygon fill="none" stroke="midnightblue" points="52.6557,-353.476 54.9073,-363.829 59.6033,-354.331 52.6557,-353.476"/>
</g>
<!-- Node3 -->
<g id="node3" class="node"><title>Node3</title>
<g id="a_node3"><a xlink:href="../../d7/d6e/class_osg_line.html" target="_top" xlink:title=" ">
<polygon fill="white" stroke="black" points="100,-292.5 100,-492.5 201,-492.5 201,-292.5 100,-292.5"/>
<text text-anchor="middle" x="150.5" y="-480.5" font-family="Helvetica,sans-Serif" font-size="10.00">OsgLine</text>
<polyline fill="none" stroke="black" points="100,-473.5 201,-473.5 "/>
<text text-anchor="start" x="108" y="-461.5" font-family="Helvetica,sans-Serif" font-size="10.00">&#45; m_scale</text>
<text text-anchor="start" x="108" y="-450.5" font-family="Helvetica,sans-Serif" font-size="10.00">&#45; m_thickness</text>
<text text-anchor="start" x="108" y="-439.5" font-family="Helvetica,sans-Serif" font-size="10.00">&#45; m_geode</text>
<text text-anchor="start" x="108" y="-428.5" font-family="Helvetica,sans-Serif" font-size="10.00">&#45; m_geom</text>
<text text-anchor="start" x="108" y="-417.5" font-family="Helvetica,sans-Serif" font-size="10.00">&#45; m_colors</text>
<text text-anchor="start" x="108" y="-406.5" font-family="Helvetica,sans-Serif" font-size="10.00">&#45; m_drawArrays</text>
<text text-anchor="start" x="108" y="-395.5" font-family="Helvetica,sans-Serif" font-size="10.00">&#45; m_vertices</text>
<text text-anchor="start" x="108" y="-384.5" font-family="Helvetica,sans-Serif" font-size="10.00">&#45; m_isDirty</text>
<text text-anchor="start" x="108" y="-373.5" font-family="Helvetica,sans-Serif" font-size="10.00">&#45; m_isDisplayed</text>
<polyline fill="none" stroke="black" points="100,-366.5 201,-366.5 "/>
<text text-anchor="start" x="108" y="-354.5" font-family="Helvetica,sans-Serif" font-size="10.00">+ OsgLine()</text>
<text text-anchor="start" x="108" y="-343.5" font-family="Helvetica,sans-Serif" font-size="10.00">+ ~OsgLine()</text>
<text text-anchor="start" x="108" y="-332.5" font-family="Helvetica,sans-Serif" font-size="10.00">+ createGeometry()</text>
<text text-anchor="start" x="108" y="-321.5" font-family="Helvetica,sans-Serif" font-size="10.00">+ draw()</text>
<text text-anchor="start" x="108" y="-310.5" font-family="Helvetica,sans-Serif" font-size="10.00">+ redraw()</text>
<text text-anchor="start" x="108" y="-299.5" font-family="Helvetica,sans-Serif" font-size="10.00">+ clear()</text>
</a>
</g>
</g>
<!-- Node3&#45;&gt;Node1 -->
<g id="edge2" class="edge"><title>Node3&#45;&gt;Node1</title>
<path fill="none" stroke="#404040" d="M126.112,-292.468C123.247,-280.838 120.29,-268.829 117.335,-256.828"/>
<polygon fill="none" stroke="#404040" points="117.253,-256.496 111.934,-251.626 114.383,-244.844 119.702,-249.713 117.253,-256.496"/>
<text text-anchor="middle" x="138" y="-266" font-family="Helvetica,sans-Serif" font-size="10.00"> &#45;m_line</text>
</g>
<!-- Node4 -->
<g id="node4" class="node"><title>Node4</title>
<g id="a_node4"><a xlink:title=" ">
<polygon fill="white" stroke="#bfbfbf" points="75.5,-530.5 75.5,-587.5 225.5,-587.5 225.5,-530.5 75.5,-530.5"/>
<text text-anchor="middle" x="150.5" y="-575.5" font-family="Helvetica,sans-Serif" font-size="10.00">osg::PositionAttitudeTransform</text>
<polyline fill="none" stroke="#bfbfbf" points="75.5,-568.5 225.5,-568.5 "/>
<text text-anchor="middle" x="150.5" y="-556.5" font-family="Helvetica,sans-Serif" font-size="10.00"> </text>
<polyline fill="none" stroke="#bfbfbf" points="75.5,-549.5 225.5,-549.5 "/>
<text text-anchor="middle" x="150.5" y="-537.5" font-family="Helvetica,sans-Serif" font-size="10.00"> </text>
</a>
</g>
</g>
<!-- Node4&#45;&gt;Node3 -->
<g id="edge3" class="edge"><title>Node4&#45;&gt;Node3</title>
<path fill="none" stroke="midnightblue" d="M150.5,-520.289C150.5,-511.841 150.5,-502.496 150.5,-492.821"/>
<polygon fill="none" stroke="midnightblue" points="147,-520.466 150.5,-530.466 154,-520.466 147,-520.466"/>
</g>
</g>
</svg>
