<?xml version="1.0" encoding="UTF-8" standalone="no"?>
<!DOCTYPE svg PUBLIC "-//W3C//DTD SVG 1.1//EN"
 "http://www.w3.org/Graphics/SVG/1.1/DTD/svg11.dtd">
<!-- Generated by graphviz version 2.38.0 (20140413.2041)
 -->
<!-- Title: IKSolverLimb Pages: 1 -->
<svg width="159pt" height="628pt"
 viewBox="0.00 0.00 159.00 628.00" xmlns="http://www.w3.org/2000/svg" xmlns:xlink="http://www.w3.org/1999/xlink">
<g id="graph0" class="graph" transform="scale(1 1) rotate(0) translate(4 624)">
<title>IKSolverLimb</title>
<polygon fill="white" stroke="none" points="-4,4 -4,-624 155,-624 155,4 -4,4"/>
<!-- Node1 -->
<g id="node1" class="node"><title>Node1</title>
<g id="a_node1"><a xlink:title=" ">
<polygon fill="#bfbfbf" stroke="black" points="0,-94.5 0,-481.5 151,-481.5 151,-94.5 0,-94.5"/>
<text text-anchor="middle" x="75.5" y="-469.5" font-family="Helvetica,sans-Serif" font-size="10.00">IKSolverLimb</text>
<polyline fill="none" stroke="black" points="0,-462.5 151,-462.5 "/>
<text text-anchor="start" x="8" y="-450.5" font-family="Helvetica,sans-Serif" font-size="10.00">+ iterations</text>
<text text-anchor="start" x="8" y="-439.5" font-family="Helvetica,sans-Serif" font-size="10.00">+ tolerance</text>
<text text-anchor="start" x="8" y="-428.5" font-family="Helvetica,sans-Serif" font-size="10.00">+ progressTolerance</text>
<text text-anchor="start" x="8" y="-417.5" font-family="Helvetica,sans-Serif" font-size="10.00">+ bendToTargetRotationWeight</text>
<text text-anchor="start" x="8" y="-406.5" font-family="Helvetica,sans-Serif" font-size="10.00">+ bendToGoalWeight</text>
<text text-anchor="start" x="8" y="-395.5" font-family="Helvetica,sans-Serif" font-size="10.00">+ middleUntwistWeight</text>
<text text-anchor="start" x="8" y="-384.5" font-family="Helvetica,sans-Serif" font-size="10.00">+ upperUntwistWeight</text>
<text text-anchor="start" x="8" y="-373.5" font-family="Helvetica,sans-Serif" font-size="10.00">+ DebugFloat1</text>
<text text-anchor="start" x="8" y="-362.5" font-family="Helvetica,sans-Serif" font-size="10.00">+ DebugFloat2</text>
<text text-anchor="start" x="8" y="-351.5" font-family="Helvetica,sans-Serif" font-size="10.00">+ DebugFloat3</text>
<text text-anchor="start" x="8" y="-340.5" font-family="Helvetica,sans-Serif" font-size="10.00">+ DebugFloat4</text>
<text text-anchor="start" x="8" y="-329.5" font-family="Helvetica,sans-Serif" font-size="10.00"># upperJoint</text>
<text text-anchor="start" x="8" y="-318.5" font-family="Helvetica,sans-Serif" font-size="10.00"># middleJoint</text>
<text text-anchor="start" x="8" y="-307.5" font-family="Helvetica,sans-Serif" font-size="10.00"># lowerJoint</text>
<text text-anchor="start" x="8" y="-296.5" font-family="Helvetica,sans-Serif" font-size="10.00"># joints</text>
<text text-anchor="start" x="8" y="-285.5" font-family="Helvetica,sans-Serif" font-size="10.00"># normal</text>
<text text-anchor="start" x="8" y="-274.5" font-family="Helvetica,sans-Serif" font-size="10.00"># _normal</text>
<text text-anchor="start" x="8" y="-263.5" font-family="Helvetica,sans-Serif" font-size="10.00"># lowerDefaultRotation</text>
<text text-anchor="start" x="8" y="-252.5" font-family="Helvetica,sans-Serif" font-size="10.00"># startPosition</text>
<polyline fill="none" stroke="black" points="0,-245.5 151,-245.5 "/>
<text text-anchor="start" x="8" y="-233.5" font-family="Helvetica,sans-Serif" font-size="10.00">+ IKSolverLimb()</text>
<text text-anchor="start" x="8" y="-222.5" font-family="Helvetica,sans-Serif" font-size="10.00">+ init()</text>
<text text-anchor="start" x="8" y="-211.5" font-family="Helvetica,sans-Serif" font-size="10.00">+ solve()</text>
<text text-anchor="start" x="8" y="-200.5" font-family="Helvetica,sans-Serif" font-size="10.00">+ getStartPosition()</text>
<text text-anchor="start" x="8" y="-189.5" font-family="Helvetica,sans-Serif" font-size="10.00"># saveDefaultState()</text>
<text text-anchor="start" x="8" y="-178.5" font-family="Helvetica,sans-Serif" font-size="10.00"># loadDefaultState()</text>
<text text-anchor="start" x="8" y="-167.5" font-family="Helvetica,sans-Serif" font-size="10.00"># solve()</text>
<text text-anchor="start" x="8" y="-156.5" font-family="Helvetica,sans-Serif" font-size="10.00"># constraint()</text>
<text text-anchor="start" x="8" y="-145.5" font-family="Helvetica,sans-Serif" font-size="10.00"># apply()</text>
<text text-anchor="start" x="8" y="-134.5" font-family="Helvetica,sans-Serif" font-size="10.00"># untwist()</text>
<text text-anchor="start" x="8" y="-123.5" font-family="Helvetica,sans-Serif" font-size="10.00"># forwardReach()</text>
<text text-anchor="start" x="8" y="-112.5" font-family="Helvetica,sans-Serif" font-size="10.00"># backwardReach()</text>
<text text-anchor="start" x="8" y="-101.5" font-family="Helvetica,sans-Serif" font-size="10.00"># solveFABRIK()</text>
</a>
</g>
</g>
<!-- Node3 -->
<g id="node3" class="node"><title>Node3</title>
<g id="a_node3"><a xlink:href="../../d7/dfb/class_i_k_solver_arm.html" target="_top" xlink:title=" ">
<polygon fill="white" stroke="black" points="40.5,-0.5 40.5,-57.5 110.5,-57.5 110.5,-0.5 40.5,-0.5"/>
<text text-anchor="middle" x="75.5" y="-45.5" font-family="Helvetica,sans-Serif" font-size="10.00">IKSolverArm</text>
<polyline fill="none" stroke="black" points="40.5,-38.5 110.5,-38.5 "/>
<text text-anchor="middle" x="75.5" y="-26.5" font-family="Helvetica,sans-Serif" font-size="10.00"> </text>
<polyline fill="none" stroke="black" points="40.5,-19.5 110.5,-19.5 "/>
<text text-anchor="middle" x="75.5" y="-7.5" font-family="Helvetica,sans-Serif" font-size="10.00"> </text>
</a>
</g>
</g>
<!-- Node1&#45;&gt;Node3 -->
<g id="edge2" class="edge"><title>Node1&#45;&gt;Node3</title>
<path fill="none" stroke="midnightblue" d="M75.5,-84.091C75.5,-74.2731 75.5,-65.3393 75.5,-57.6866"/>
<polygon fill="none" stroke="midnightblue" points="72.0001,-84.189 75.5,-94.189 79.0001,-84.189 72.0001,-84.189"/>
</g>
<!-- Node2 -->
<g id="node2" class="node"><title>Node2</title>
<g id="a_node2"><a xlink:href="../../dd/d0e/class_i_k_solver.html" target="_top" xlink:title=" ">
<polygon fill="white" stroke="black" points="32.5,-518.5 32.5,-619.5 118.5,-619.5 118.5,-518.5 32.5,-518.5"/>
<text text-anchor="middle" x="75.5" y="-607.5" font-family="Helvetica,sans-Serif" font-size="10.00">IKSolver</text>
<polyline fill="none" stroke="black" points="32.5,-600.5 118.5,-600.5 "/>
<text text-anchor="start" x="40.5" y="-588.5" font-family="Helvetica,sans-Serif" font-size="10.00"># targetPosition</text>
<text text-anchor="start" x="40.5" y="-577.5" font-family="Helvetica,sans-Serif" font-size="10.00"># targetRotation</text>
<polyline fill="none" stroke="black" points="32.5,-570.5 118.5,-570.5 "/>
<text text-anchor="start" x="40.5" y="-558.5" font-family="Helvetica,sans-Serif" font-size="10.00">+ IKSolver()</text>
<text text-anchor="start" x="40.5" y="-547.5" font-family="Helvetica,sans-Serif" font-size="10.00">+ ~IKSolver()</text>
<text text-anchor="start" x="40.5" y="-536.5" font-family="Helvetica,sans-Serif" font-size="10.00">+ init()</text>
<text text-anchor="start" x="40.5" y="-525.5" font-family="Helvetica,sans-Serif" font-size="10.00">+ solve()</text>
</a>
</g>
</g>
<!-- Node2&#45;&gt;Node1 -->
<g id="edge1" class="edge"><title>Node2&#45;&gt;Node1</title>
<path fill="none" stroke="midnightblue" d="M75.5,-508.204C75.5,-499.868 75.5,-490.961 75.5,-481.685"/>
<polygon fill="none" stroke="midnightblue" points="72.0001,-508.442 75.5,-518.442 79.0001,-508.442 72.0001,-508.442"/>
</g>
</g>
</svg>
