<?xml version="1.0" encoding="UTF-8" standalone="no"?>
<!DOCTYPE svg PUBLIC "-//W3C//DTD SVG 1.1//EN"
 "http://www.w3.org/Graphics/SVG/1.1/DTD/svg11.dtd">
<!-- Generated by graphviz version 2.38.0 (20140413.2041)
 -->
<!-- Title: IKSolverHip Pages: 1 -->
<svg width="308pt" height="551pt"
 viewBox="0.00 0.00 307.50 551.00" xmlns="http://www.w3.org/2000/svg" xmlns:xlink="http://www.w3.org/1999/xlink">
<g id="graph0" class="graph" transform="scale(1 1) rotate(0) translate(4 547)">
<title>IKSolverHip</title>
<polygon fill="white" stroke="none" points="-4,4 -4,-547 303.5,-547 303.5,4 -4,4"/>
<!-- Node1 -->
<g id="node1" class="node"><title>Node1</title>
<g id="a_node1"><a xlink:title=" ">
<polygon fill="#bfbfbf" stroke="black" points="40.5,-0.5 40.5,-79.5 121.5,-79.5 121.5,-0.5 40.5,-0.5"/>
<text text-anchor="middle" x="81" y="-67.5" font-family="Helvetica,sans-Serif" font-size="10.00">IKSolverHip</text>
<polyline fill="none" stroke="black" points="40.5,-60.5 121.5,-60.5 "/>
<text text-anchor="middle" x="81" y="-48.5" font-family="Helvetica,sans-Serif" font-size="10.00"> </text>
<polyline fill="none" stroke="black" points="40.5,-41.5 121.5,-41.5 "/>
<text text-anchor="start" x="48.5" y="-29.5" font-family="Helvetica,sans-Serif" font-size="10.00">+ IKSolverHip()</text>
<text text-anchor="start" x="48.5" y="-18.5" font-family="Helvetica,sans-Serif" font-size="10.00">+ init()</text>
<text text-anchor="start" x="48.5" y="-7.5" font-family="Helvetica,sans-Serif" font-size="10.00">+ solve()</text>
</a>
</g>
</g>
<!-- Node2 -->
<g id="node2" class="node"><title>Node2</title>
<g id="a_node2"><a xlink:href="../../dd/d0e/class_i_k_solver.html" target="_top" xlink:title=" ">
<polygon fill="white" stroke="black" points="0,-138.5 0,-239.5 86,-239.5 86,-138.5 0,-138.5"/>
<text text-anchor="middle" x="43" y="-227.5" font-family="Helvetica,sans-Serif" font-size="10.00">IKSolver</text>
<polyline fill="none" stroke="black" points="0,-220.5 86,-220.5 "/>
<text text-anchor="start" x="8" y="-208.5" font-family="Helvetica,sans-Serif" font-size="10.00"># targetPosition</text>
<text text-anchor="start" x="8" y="-197.5" font-family="Helvetica,sans-Serif" font-size="10.00"># targetRotation</text>
<polyline fill="none" stroke="black" points="0,-190.5 86,-190.5 "/>
<text text-anchor="start" x="8" y="-178.5" font-family="Helvetica,sans-Serif" font-size="10.00">+ IKSolver()</text>
<text text-anchor="start" x="8" y="-167.5" font-family="Helvetica,sans-Serif" font-size="10.00">+ ~IKSolver()</text>
<text text-anchor="start" x="8" y="-156.5" font-family="Helvetica,sans-Serif" font-size="10.00">+ init()</text>
<text text-anchor="start" x="8" y="-145.5" font-family="Helvetica,sans-Serif" font-size="10.00">+ solve()</text>
</a>
</g>
</g>
<!-- Node2&#45;&gt;Node1 -->
<g id="edge1" class="edge"><title>Node2&#45;&gt;Node1</title>
<path fill="none" stroke="midnightblue" d="M58.4658,-128.172C62.7061,-111.769 67.1898,-94.4238 71.0315,-79.5625"/>
<polygon fill="none" stroke="midnightblue" points="54.9793,-127.675 55.8651,-138.233 61.7565,-129.427 54.9793,-127.675"/>
</g>
<!-- Node3 -->
<g id="node3" class="node"><title>Node3</title>
<g id="a_node3"><a xlink:href="../../da/dca/class_i_k_joint.html" target="_top" xlink:title=" ">
<polygon fill="white" stroke="black" points="104.5,-127.5 104.5,-250.5 221.5,-250.5 221.5,-127.5 104.5,-127.5"/>
<text text-anchor="middle" x="163" y="-238.5" font-family="Helvetica,sans-Serif" font-size="10.00">IKJoint</text>
<polyline fill="none" stroke="black" points="104.5,-231.5 221.5,-231.5 "/>
<text text-anchor="start" x="112.5" y="-219.5" font-family="Helvetica,sans-Serif" font-size="10.00">+ sqrMagnitude</text>
<text text-anchor="start" x="112.5" y="-208.5" font-family="Helvetica,sans-Serif" font-size="10.00">+ length</text>
<text text-anchor="start" x="112.5" y="-197.5" font-family="Helvetica,sans-Serif" font-size="10.00"># solvedPosition</text>
<polyline fill="none" stroke="black" points="104.5,-190.5 221.5,-190.5 "/>
<text text-anchor="start" x="112.5" y="-178.5" font-family="Helvetica,sans-Serif" font-size="10.00">+ IKJoint()</text>
<text text-anchor="start" x="112.5" y="-167.5" font-family="Helvetica,sans-Serif" font-size="10.00">+ IKJoint()</text>
<text text-anchor="start" x="112.5" y="-156.5" font-family="Helvetica,sans-Serif" font-size="10.00">+ storeSolvedPosition()</text>
<text text-anchor="start" x="112.5" y="-145.5" font-family="Helvetica,sans-Serif" font-size="10.00">+ setSolvedPosition()</text>
<text text-anchor="start" x="112.5" y="-134.5" font-family="Helvetica,sans-Serif" font-size="10.00">+ getSolvedPosition()</text>
</a>
</g>
</g>
<!-- Node3&#45;&gt;Node1 -->
<g id="edge2" class="edge"><title>Node3&#45;&gt;Node1</title>
<path fill="none" stroke="#404040" d="M129.174,-127.361C122.284,-115.008 115.114,-102.156 108.477,-90.2574"/>
<polygon fill="none" stroke="#404040" points="108.401,-90.1203 101.984,-86.8291 102.555,-79.6405 108.971,-82.9318 108.401,-90.1203"/>
<text text-anchor="middle" x="128" y="-101" font-family="Helvetica,sans-Serif" font-size="10.00"> #hip</text>
</g>
<!-- Node4 -->
<g id="node4" class="node"><title>Node4</title>
<g id="a_node4"><a xlink:href="../../da/df7/class_hierarchic_joint.html" target="_top" xlink:title=" ">
<polygon fill="white" stroke="black" points="80.5,-298.5 80.5,-542.5 245.5,-542.5 245.5,-298.5 80.5,-298.5"/>
<text text-anchor="middle" x="163" y="-530.5" font-family="Helvetica,sans-Serif" font-size="10.00">HierarchicJoint</text>
<polyline fill="none" stroke="black" points="80.5,-523.5 245.5,-523.5 "/>
<text text-anchor="start" x="88.5" y="-511.5" font-family="Helvetica,sans-Serif" font-size="10.00"># children</text>
<text text-anchor="start" x="88.5" y="-500.5" font-family="Helvetica,sans-Serif" font-size="10.00"># joint</text>
<text text-anchor="start" x="88.5" y="-489.5" font-family="Helvetica,sans-Serif" font-size="10.00"># confidence</text>
<text text-anchor="start" x="88.5" y="-478.5" font-family="Helvetica,sans-Serif" font-size="10.00"># local</text>
<text text-anchor="start" x="88.5" y="-467.5" font-family="Helvetica,sans-Serif" font-size="10.00"># global</text>
<text text-anchor="start" x="88.5" y="-456.5" font-family="Helvetica,sans-Serif" font-size="10.00"># globalValid</text>
<polyline fill="none" stroke="black" points="80.5,-449.5 245.5,-449.5 "/>
<text text-anchor="start" x="88.5" y="-437.5" font-family="Helvetica,sans-Serif" font-size="10.00">+ HierarchicJoint()</text>
<text text-anchor="start" x="88.5" y="-426.5" font-family="Helvetica,sans-Serif" font-size="10.00">+ HierarchicJoint()</text>
<text text-anchor="start" x="88.5" y="-415.5" font-family="Helvetica,sans-Serif" font-size="10.00">+ HierarchicJoint()</text>
<text text-anchor="start" x="88.5" y="-404.5" font-family="Helvetica,sans-Serif" font-size="10.00">+ HierarchicJoint()</text>
<text text-anchor="start" x="88.5" y="-393.5" font-family="Helvetica,sans-Serif" font-size="10.00">+ setParent()</text>
<text text-anchor="start" x="88.5" y="-382.5" font-family="Helvetica,sans-Serif" font-size="10.00">+ getParent()</text>
<text text-anchor="start" x="88.5" y="-371.5" font-family="Helvetica,sans-Serif" font-size="10.00">+ addChild()</text>
<text text-anchor="start" x="88.5" y="-360.5" font-family="Helvetica,sans-Serif" font-size="10.00">+ getChildren()</text>
<text text-anchor="start" x="88.5" y="-349.5" font-family="Helvetica,sans-Serif" font-size="10.00">+ getFirstChild()</text>
<text text-anchor="start" x="88.5" y="-338.5" font-family="Helvetica,sans-Serif" font-size="10.00">+ setJointName()</text>
<text text-anchor="start" x="88.5" y="-327.5" font-family="Helvetica,sans-Serif" font-size="10.00">and 22 more...</text>
<text text-anchor="start" x="88.5" y="-316.5" font-family="Helvetica,sans-Serif" font-size="10.00"># combineParentMatrixRecursive()</text>
<text text-anchor="start" x="88.5" y="-305.5" font-family="Helvetica,sans-Serif" font-size="10.00"># invalidateGlobalRecursive()</text>
</a>
</g>
</g>
<!-- Node4&#45;&gt;Node3 -->
<g id="edge3" class="edge"><title>Node4&#45;&gt;Node3</title>
<path fill="none" stroke="#404040" d="M163,-298.365C163,-286.179 163,-274.089 163,-262.648"/>
<polygon fill="none" stroke="#404040" points="163,-262.513 159,-256.513 163,-250.513 167,-256.513 163,-262.513"/>
<text text-anchor="middle" x="177" y="-272" font-family="Helvetica,sans-Serif" font-size="10.00"> +joint</text>
</g>
<!-- Node4&#45;&gt;Node4 -->
<g id="edge4" class="edge"><title>Node4&#45;&gt;Node4</title>
<path fill="none" stroke="#404040" d="M245.796,-444.492C256.457,-440.331 263.5,-432.334 263.5,-420.5 263.5,-413.104 260.749,-407.206 256.083,-402.808"/>
<polygon fill="none" stroke="#404040" points="256.03,-402.775 248.824,-403.053 245.796,-396.508 253.002,-396.231 256.03,-402.775"/>
<text text-anchor="middle" x="281.5" y="-418" font-family="Helvetica,sans-Serif" font-size="10.00"> #parent</text>
</g>
</g>
</svg>
