<?xml version="1.0" encoding="UTF-8" standalone="no"?>
<!DOCTYPE svg PUBLIC "-//W3C//DTD SVG 1.1//EN"
 "http://www.w3.org/Graphics/SVG/1.1/DTD/svg11.dtd">
<!-- Generated by graphviz version 2.38.0 (20140413.2041)
 -->
<!-- Title: C:/dev/projects/MotionHub/src/TrackerManagement/xs_scaledatagram.h Pages: 1 -->
<!--zoomable 719 -->
<svg id="main" version="1.1" xmlns="http://www.w3.org/2000/svg" xmlns:xlink="http://www.w3.org/1999/xlink" xml:space="preserve" onload="init(evt)">
<style type="text/css"><![CDATA[
.edge:hover path { stroke: red; }
.edge:hover polygon { stroke: red; fill: red; }
]]></style>
<script type="text/javascript"><![CDATA[
var edges = document.getElementsByTagName('g');
if (edges && edges.length) {
  for (var i=0;i<edges.length;i++) {
    if (edges[i].id.substr(0,4)=='edge') {
      edges[i].setAttribute('class','edge');
    }
  }
}
]]></script>
        <defs>
                <circle id="rim" cx="0" cy="0" r="7"/>
                <circle id="rim2" cx="0" cy="0" r="3.5"/>
                <g id="zoomPlus">
                        <use xlink:href="#rim" fill="#404040">
                                <set attributeName="fill" to="#808080" begin="zoomplus.mouseover" end="zoomplus.mouseout"/>
                        </use>
                        <path d="M-4,0h8M0,-4v8" fill="none" stroke="white" stroke-width="1.5" pointer-events="none"/>
                </g>
                <g id="zoomMin">
                        <use xlink:href="#rim" fill="#404040">
                                <set attributeName="fill" to="#808080" begin="zoomminus.mouseover" end="zoomminus.mouseout"/>
                        </use>
                        <path d="M-4,0h8" fill="none" stroke="white" stroke-width="1.5" pointer-events="none"/>
                </g>
                <g id="dirArrow">
                        <path fill="none" stroke="white" stroke-width="1.5" d="M0,-3.0v7 M-2.5,-0.5L0,-3.0L2.5,-0.5"/>
                </g>
               <g id="resetDef">
                       <use xlink:href="#rim2" fill="#404040">
                               <set attributeName="fill" to="#808080" begin="reset.mouseover" end="reset.mouseout"/>
                       </use>
               </g>
        </defs>

<script type="text/javascript">
var viewWidth = 514;
var viewHeight = 719;
var sectionId = 'dynsection-1';
</script>
<script xlink:href="../../svgpan.js"/>
<svg id="graph" class="graph">
<g id="viewport">
<title>C:/dev/projects/MotionHub/src/TrackerManagement/xs_scaledatagram.h</title>
<polygon fill="white" stroke="none" points="-4,4 -4,-715 510,-715 510,4 -4,4"/>
<!-- Node1 -->
<g id="node1" class="node"><title>Node1</title>
<g id="a_node1"><a xlink:title=" ">
<polygon fill="#bfbfbf" stroke="black" points="179,-669.5 179,-710.5 310,-710.5 310,-669.5 179,-669.5"/>
<text text-anchor="start" x="187" y="-698.5" font-family="Helvetica,sans-Serif" font-size="10.00">C:/dev/projects/MotionHub</text>
<text text-anchor="start" x="187" y="-687.5" font-family="Helvetica,sans-Serif" font-size="10.00">/src/TrackerManagement</text>
<text text-anchor="middle" x="244.5" y="-676.5" font-family="Helvetica,sans-Serif" font-size="10.00">/xs_scaledatagram.h</text>
</a>
</g>
</g>
<!-- Node2 -->
<g id="node2" class="node"><title>Node2</title>
<g id="a_node2"><a xlink:href="../../d0/d2a/xs__parsermanager_8h.html" target="_top" xlink:title=" ">
<polygon fill="white" stroke="black" points="132,-591.5 132,-632.5 263,-632.5 263,-591.5 132,-591.5"/>
<text text-anchor="start" x="140" y="-620.5" font-family="Helvetica,sans-Serif" font-size="10.00">C:/dev/projects/MotionHub</text>
<text text-anchor="start" x="140" y="-609.5" font-family="Helvetica,sans-Serif" font-size="10.00">/src/TrackerManagement</text>
<text text-anchor="middle" x="197.5" y="-598.5" font-family="Helvetica,sans-Serif" font-size="10.00">/xs_parsermanager.h</text>
</a>
</g>
</g>
<!-- Node1&#45;&gt;Node2 -->
<g id="edge1" class="edge"><title>Node1&#45;&gt;Node2</title>
<path fill="none" stroke="midnightblue" d="M227.034,-660.757C221.219,-651.354 214.875,-641.096 209.563,-632.506"/>
<polygon fill="midnightblue" stroke="midnightblue" points="224.16,-662.764 232.396,-669.428 230.113,-659.082 224.16,-662.764"/>
</g>
<!-- Node3 -->
<g id="node3" class="node"><title>Node3</title>
<g id="a_node3"><a xlink:href="../../d9/d51/xs__udpserver_8h.html" target="_top" xlink:title=" ">
<polygon fill="white" stroke="black" points="187,-513.5 187,-554.5 318,-554.5 318,-513.5 187,-513.5"/>
<text text-anchor="start" x="195" y="-542.5" font-family="Helvetica,sans-Serif" font-size="10.00">C:/dev/projects/MotionHub</text>
<text text-anchor="start" x="195" y="-531.5" font-family="Helvetica,sans-Serif" font-size="10.00">/src/TrackerManagement</text>
<text text-anchor="middle" x="252.5" y="-520.5" font-family="Helvetica,sans-Serif" font-size="10.00">/xs_udpserver.h</text>
</a>
</g>
</g>
<!-- Node1&#45;&gt;Node3 -->
<g id="edge14" class="edge"><title>Node1&#45;&gt;Node3</title>
<path fill="none" stroke="midnightblue" d="M261.401,-660.24C265.54,-651.752 269.386,-642.25 271.5,-633 275.658,-614.802 274.539,-609.418 271.5,-591 269.444,-578.541 264.977,-565.126 260.891,-554.551"/>
<polygon fill="midnightblue" stroke="midnightblue" points="258.184,-658.84 256.679,-669.327 264.396,-662.067 258.184,-658.84"/>
</g>
<!-- Node4 -->
<g id="node4" class="node"><title>Node4</title>
<g id="a_node4"><a xlink:href="../../d0/d47/_x_s_tracker_8h_source.html" target="_top" xlink:title=" ">
<polygon fill="white" stroke="black" points="243,-357.5 243,-398.5 374,-398.5 374,-357.5 243,-357.5"/>
<text text-anchor="start" x="251" y="-386.5" font-family="Helvetica,sans-Serif" font-size="10.00">C:/dev/projects/MotionHub</text>
<text text-anchor="start" x="251" y="-375.5" font-family="Helvetica,sans-Serif" font-size="10.00">/src/TrackerManagement</text>
<text text-anchor="middle" x="308.5" y="-364.5" font-family="Helvetica,sans-Serif" font-size="10.00">/XSTracker.h</text>
</a>
</g>
</g>
<!-- Node1&#45;&gt;Node4 -->
<g id="edge15" class="edge"><title>Node1&#45;&gt;Node4</title>
<path fill="none" stroke="midnightblue" d="M268.825,-661.302C289.352,-635.753 316.888,-595.719 326.5,-555 339.661,-499.249 324.093,-431.32 314.67,-398.545"/>
<polygon fill="midnightblue" stroke="midnightblue" points="266.085,-659.124 262.438,-669.071 271.492,-663.569 266.085,-659.124"/>
</g>
<!-- Node10 -->
<g id="node10" class="node"><title>Node10</title>
<g id="a_node10"><a xlink:href="../../d7/db5/_x_s_bvh_writer_8h_source.html" target="_top" xlink:title=" ">
<polygon fill="white" stroke="black" points="0,-435.5 0,-476.5 131,-476.5 131,-435.5 0,-435.5"/>
<text text-anchor="start" x="8" y="-464.5" font-family="Helvetica,sans-Serif" font-size="10.00">C:/dev/projects/MotionHub</text>
<text text-anchor="start" x="8" y="-453.5" font-family="Helvetica,sans-Serif" font-size="10.00">/src/TrackerManagement</text>
<text text-anchor="middle" x="65.5" y="-442.5" font-family="Helvetica,sans-Serif" font-size="10.00">/XSBvhWriter.h</text>
</a>
</g>
</g>
<!-- Node1&#45;&gt;Node10 -->
<g id="edge16" class="edge"><title>Node1&#45;&gt;Node10</title>
<path fill="none" stroke="midnightblue" d="M169.31,-668.165C116.661,-648.788 51.7348,-613.829 28.5,-555 21.643,-537.638 23.1276,-530.877 28.5,-513 32.4909,-499.72 40.7665,-486.686 48.4809,-476.538"/>
<polygon fill="midnightblue" stroke="midnightblue" points="168.391,-671.552 178.985,-671.604 170.735,-664.957 168.391,-671.552"/>
</g>
<!-- Node12 -->
<g id="node12" class="node"><title>Node12</title>
<g id="a_node12"><a xlink:href="../../dc/d93/xs__parsermanager_8cpp.html" target="_top" xlink:title=" ">
<polygon fill="white" stroke="black" points="38,-513.5 38,-554.5 169,-554.5 169,-513.5 38,-513.5"/>
<text text-anchor="start" x="46" y="-542.5" font-family="Helvetica,sans-Serif" font-size="10.00">C:/dev/projects/MotionHub</text>
<text text-anchor="start" x="46" y="-531.5" font-family="Helvetica,sans-Serif" font-size="10.00">/src/TrackerManagement</text>
<text text-anchor="middle" x="103.5" y="-520.5" font-family="Helvetica,sans-Serif" font-size="10.00">/xs_parsermanager.cpp</text>
</a>
</g>
</g>
<!-- Node1&#45;&gt;Node12 -->
<g id="edge17" class="edge"><title>Node1&#45;&gt;Node12</title>
<path fill="none" stroke="midnightblue" d="M169.589,-667.942C151.838,-659.681 134.578,-648.371 122.5,-633 104.833,-610.515 102.047,-576.303 102.298,-554.822"/>
<polygon fill="midnightblue" stroke="midnightblue" points="168.325,-671.208 178.891,-671.989 171.117,-664.79 168.325,-671.208"/>
</g>
<!-- Node13 -->
<g id="node13" class="node"><title>Node13</title>
<g id="a_node13"><a xlink:href="../../d3/da0/xs__scaledatagram_8cpp.html" target="_top" xlink:title=" ">
<polygon fill="white" stroke="black" points="375,-591.5 375,-632.5 506,-632.5 506,-591.5 375,-591.5"/>
<text text-anchor="start" x="383" y="-620.5" font-family="Helvetica,sans-Serif" font-size="10.00">C:/dev/projects/MotionHub</text>
<text text-anchor="start" x="383" y="-609.5" font-family="Helvetica,sans-Serif" font-size="10.00">/src/TrackerManagement</text>
<text text-anchor="middle" x="440.5" y="-598.5" font-family="Helvetica,sans-Serif" font-size="10.00">/xs_scaledatagram.cpp</text>
</a>
</g>
</g>
<!-- Node1&#45;&gt;Node13 -->
<g id="edge18" class="edge"><title>Node1&#45;&gt;Node13</title>
<path fill="none" stroke="midnightblue" d="M304.465,-665.748C331.901,-655.11 364.045,-642.646 390.196,-632.506"/>
<polygon fill="midnightblue" stroke="midnightblue" points="303.033,-662.55 294.975,-669.428 305.564,-669.076 303.033,-662.55"/>
</g>
<!-- Node2&#45;&gt;Node3 -->
<g id="edge2" class="edge"><title>Node2&#45;&gt;Node3</title>
<path fill="none" stroke="midnightblue" d="M217.729,-583.048C224.591,-573.566 232.103,-563.185 238.384,-554.506"/>
<polygon fill="midnightblue" stroke="midnightblue" points="214.691,-581.275 211.664,-591.428 220.362,-585.379 214.691,-581.275"/>
</g>
<!-- Node2&#45;&gt;Node12 -->
<g id="edge13" class="edge"><title>Node2&#45;&gt;Node12</title>
<path fill="none" stroke="midnightblue" d="M165.422,-585.065C153.045,-575.057 139.127,-563.804 127.625,-554.506"/>
<polygon fill="midnightblue" stroke="midnightblue" points="163.316,-587.863 173.293,-591.428 167.717,-582.419 163.316,-587.863"/>
</g>
<!-- Node3&#45;&gt;Node4 -->
<g id="edge3" class="edge"><title>Node3&#45;&gt;Node4</title>
<path fill="none" stroke="midnightblue" d="M273.512,-504.782C279.084,-496.214 284.621,-486.535 288.5,-477 299.034,-451.103 304.229,-419.019 306.633,-398.772"/>
<polygon fill="midnightblue" stroke="midnightblue" points="270.48,-503.016 267.761,-513.256 276.272,-506.947 270.48,-503.016"/>
</g>
<!-- Node3&#45;&gt;Node10 -->
<g id="edge10" class="edge"><title>Node3&#45;&gt;Node10</title>
<path fill="none" stroke="midnightblue" d="M194.945,-509.609C168.844,-499.001 138.335,-486.602 113.494,-476.506"/>
<polygon fill="midnightblue" stroke="midnightblue" points="193.761,-512.905 204.343,-513.428 196.397,-506.421 193.761,-512.905"/>
</g>
<!-- Node11 -->
<g id="node11" class="node"><title>Node11</title>
<g id="a_node11"><a xlink:href="../../db/d56/xs__udpserver_8cpp.html" target="_top" xlink:title=" ">
<polygon fill="white" stroke="black" points="149,-435.5 149,-476.5 280,-476.5 280,-435.5 149,-435.5"/>
<text text-anchor="start" x="157" y="-464.5" font-family="Helvetica,sans-Serif" font-size="10.00">C:/dev/projects/MotionHub</text>
<text text-anchor="start" x="157" y="-453.5" font-family="Helvetica,sans-Serif" font-size="10.00">/src/TrackerManagement</text>
<text text-anchor="middle" x="214.5" y="-442.5" font-family="Helvetica,sans-Serif" font-size="10.00">/xs_udpserver.cpp</text>
</a>
</g>
</g>
<!-- Node3&#45;&gt;Node11 -->
<g id="edge12" class="edge"><title>Node3&#45;&gt;Node11</title>
<path fill="none" stroke="midnightblue" d="M238.233,-504.466C233.571,-495.143 228.504,-485.007 224.253,-476.506"/>
<polygon fill="midnightblue" stroke="midnightblue" points="235.111,-506.049 242.714,-513.428 241.372,-502.919 235.111,-506.049"/>
</g>
<!-- Node5 -->
<g id="node5" class="node"><title>Node5</title>
<g id="a_node5"><a xlink:href="../../d4/d9c/_tracker_manager_8h_source.html" target="_top" xlink:title=" ">
<polygon fill="white" stroke="black" points="243,-279.5 243,-320.5 374,-320.5 374,-279.5 243,-279.5"/>
<text text-anchor="start" x="251" y="-308.5" font-family="Helvetica,sans-Serif" font-size="10.00">C:/dev/projects/MotionHub</text>
<text text-anchor="start" x="251" y="-297.5" font-family="Helvetica,sans-Serif" font-size="10.00">/src/TrackerManagement</text>
<text text-anchor="middle" x="308.5" y="-286.5" font-family="Helvetica,sans-Serif" font-size="10.00">/TrackerManager.h</text>
</a>
</g>
</g>
<!-- Node4&#45;&gt;Node5 -->
<g id="edge4" class="edge"><title>Node4&#45;&gt;Node5</title>
<path fill="none" stroke="midnightblue" d="M308.5,-347.297C308.5,-338.301 308.5,-328.653 308.5,-320.506"/>
<polygon fill="midnightblue" stroke="midnightblue" points="305,-347.428 308.5,-357.428 312,-347.428 305,-347.428"/>
</g>
<!-- Node6 -->
<g id="node6" class="node"><title>Node6</title>
<g id="a_node6"><a xlink:href="../../d6/d0a/_motion_hub_8h_source.html" target="_top" xlink:title=" ">
<polygon fill="white" stroke="black" points="225,-0.5 225,-30.5 390,-30.5 390,-0.5 225,-0.5"/>
<text text-anchor="start" x="233" y="-18.5" font-family="Helvetica,sans-Serif" font-size="10.00">C:/dev/projects/MotionHub</text>
<text text-anchor="middle" x="307.5" y="-7.5" font-family="Helvetica,sans-Serif" font-size="10.00">/src/MireviMotionHub/MotionHub.h</text>
</a>
</g>
</g>
<!-- Node5&#45;&gt;Node6 -->
<g id="edge5" class="edge"><title>Node5&#45;&gt;Node6</title>
<path fill="none" stroke="midnightblue" d="M282.291,-271.338C275.867,-262.878 269.872,-253.117 266.5,-243 241.762,-168.787 242.138,-140.651 268.5,-67 273.428,-53.233 283.643,-40.2369 292.382,-30.8768"/>
<polygon fill="midnightblue" stroke="midnightblue" points="279.757,-273.77 288.776,-279.33 285.193,-269.359 279.757,-273.77"/>
</g>
<!-- Node7 -->
<g id="node7" class="node"><title>Node7</title>
<g id="a_node7"><a xlink:href="../../de/d0c/_create_tracker_window_8h_source.html" target="_top" xlink:title=" ">
<polygon fill="white" stroke="black" points="276,-201.5 276,-242.5 463,-242.5 463,-201.5 276,-201.5"/>
<text text-anchor="start" x="284" y="-230.5" font-family="Helvetica,sans-Serif" font-size="10.00">C:/dev/projects/MotionHub</text>
<text text-anchor="start" x="284" y="-219.5" font-family="Helvetica,sans-Serif" font-size="10.00">/src/RenderManagement/CreateTracker</text>
<text text-anchor="middle" x="369.5" y="-208.5" font-family="Helvetica,sans-Serif" font-size="10.00">Window.h</text>
</a>
</g>
</g>
<!-- Node5&#45;&gt;Node7 -->
<g id="edge6" class="edge"><title>Node5&#45;&gt;Node7</title>
<path fill="none" stroke="midnightblue" d="M330.47,-271.627C338.205,-261.99 346.736,-251.362 353.844,-242.506"/>
<polygon fill="midnightblue" stroke="midnightblue" points="327.739,-269.439 324.209,-279.428 333.198,-273.82 327.739,-269.439"/>
</g>
<!-- Node8 -->
<g id="node8" class="node"><title>Node8</title>
<g id="a_node8"><a xlink:href="../../d2/d97/_main_window_8h_source.html" target="_top" xlink:title=" ">
<polygon fill="white" stroke="black" points="275.5,-134.5 275.5,-164.5 465.5,-164.5 465.5,-134.5 275.5,-134.5"/>
<text text-anchor="start" x="283.5" y="-152.5" font-family="Helvetica,sans-Serif" font-size="10.00">C:/dev/projects/MotionHub</text>
<text text-anchor="middle" x="370.5" y="-141.5" font-family="Helvetica,sans-Serif" font-size="10.00">/src/RenderManagement/MainWindow.h</text>
</a>
</g>
</g>
<!-- Node7&#45;&gt;Node8 -->
<g id="edge7" class="edge"><title>Node7&#45;&gt;Node8</title>
<path fill="none" stroke="midnightblue" d="M369.924,-191.08C370.053,-182.006 370.189,-172.45 370.296,-164.892"/>
<polygon fill="midnightblue" stroke="midnightblue" points="366.421,-191.313 369.779,-201.362 373.42,-191.412 366.421,-191.313"/>
</g>
<!-- Node9 -->
<g id="node9" class="node"><title>Node9</title>
<g id="a_node9"><a xlink:href="../../d7/df2/_u_i_manager_8h_source.html" target="_top" xlink:title=" ">
<polygon fill="white" stroke="black" points="278,-67.5 278,-97.5 459,-97.5 459,-67.5 278,-67.5"/>
<text text-anchor="start" x="286" y="-85.5" font-family="Helvetica,sans-Serif" font-size="10.00">C:/dev/projects/MotionHub</text>
<text text-anchor="middle" x="368.5" y="-74.5" font-family="Helvetica,sans-Serif" font-size="10.00">/src/RenderManagement/UIManager.h</text>
</a>
</g>
</g>
<!-- Node8&#45;&gt;Node9 -->
<g id="edge8" class="edge"><title>Node8&#45;&gt;Node9</title>
<path fill="none" stroke="midnightblue" d="M369.749,-124.108C369.474,-115.154 369.171,-105.323 368.933,-97.5765"/>
<polygon fill="midnightblue" stroke="midnightblue" points="366.26,-124.508 370.066,-134.396 373.257,-124.293 366.26,-124.508"/>
</g>
<!-- Node9&#45;&gt;Node6 -->
<g id="edge9" class="edge"><title>Node9&#45;&gt;Node6</title>
<path fill="none" stroke="midnightblue" d="M348.346,-60.0243C339.257,-50.3398 328.779,-39.1739 320.71,-30.5765"/>
<polygon fill="midnightblue" stroke="midnightblue" points="345.869,-62.4992 355.264,-67.396 350.973,-57.709 345.869,-62.4992"/>
</g>
<!-- Node10&#45;&gt;Node4 -->
<g id="edge11" class="edge"><title>Node10&#45;&gt;Node4</title>
<path fill="none" stroke="midnightblue" d="M137.625,-432.442C172.116,-421.655 213.004,-408.867 246.134,-398.506"/>
<polygon fill="midnightblue" stroke="midnightblue" points="136.578,-429.103 128.079,-435.428 138.667,-435.783 136.578,-429.103"/>
</g>
</g>
</svg>
        <g id="navigator" transform="translate(0 0)" fill="#404254">
                <rect fill="#f2f5e9" fill-opacity="0.5" stroke="#606060" stroke-width=".5" x="0" y="0" width="60" height="60"/>
                <use id="zoomplus" xlink:href="#zoomPlus" x="17" y="9" onmousedown="handleZoom(evt,'in')"/>
                <use id="zoomminus" xlink:href="#zoomMin" x="42" y="9" onmousedown="handleZoom(evt,'out')"/>
                <use id="reset" xlink:href="#resetDef" x="30" y="36" onmousedown="handleReset()"/>
                <g id="arrowUp" xlink:href="#dirArrow" transform="translate(30 24)" onmousedown="handlePan(0,-1)">
                  <use xlink:href="#rim" fill="#404040">
                        <set attributeName="fill" to="#808080" begin="arrowUp.mouseover" end="arrowUp.mouseout"/>
                  </use>
                  <path fill="none" stroke="white" stroke-width="1.5" d="M0,-3.0v7 M-2.5,-0.5L0,-3.0L2.5,-0.5"/>
                </g>
                <g id="arrowRight" xlink:href="#dirArrow" transform="rotate(90) translate(36 -43)" onmousedown="handlePan(1,0)">
                  <use xlink:href="#rim" fill="#404040">
                        <set attributeName="fill" to="#808080" begin="arrowRight.mouseover" end="arrowRight.mouseout"/>
                  </use>
                  <path fill="none" stroke="white" stroke-width="1.5" d="M0,-3.0v7 M-2.5,-0.5L0,-3.0L2.5,-0.5"/>
                </g>
                <g id="arrowDown" xlink:href="#dirArrow" transform="rotate(180) translate(-30 -48)" onmousedown="handlePan(0,1)">
                  <use xlink:href="#rim" fill="#404040">
                        <set attributeName="fill" to="#808080" begin="arrowDown.mouseover" end="arrowDown.mouseout"/>
                  </use>
                  <path fill="none" stroke="white" stroke-width="1.5" d="M0,-3.0v7 M-2.5,-0.5L0,-3.0L2.5,-0.5"/>
                </g>
                <g id="arrowLeft" xlink:href="#dirArrow" transform="rotate(270) translate(-36 17)" onmousedown="handlePan(-1,0)">
                  <use xlink:href="#rim" fill="#404040">
                        <set attributeName="fill" to="#808080" begin="arrowLeft.mouseover" end="arrowLeft.mouseout"/>
                  </use>
                  <path fill="none" stroke="white" stroke-width="1.5" d="M0,-3.0v7 M-2.5,-0.5L0,-3.0L2.5,-0.5"/>
                </g>
        </g>
        <svg viewBox="0 0 15 15" width="100%" height="30px" preserveAspectRatio="xMaxYMin meet">
         <g id="arrow_out" transform="scale(0.3 0.3)">
          <a xlink:href="xs__scaledatagram_8h__dep__incl_org.svg" target="_base">
           <rect id="button" ry="5" rx="5" y="6" x="6" height="38" width="38"
                fill="#f2f5e9" fill-opacity="0.5" stroke="#606060" stroke-width="1.0"/>
           <path id="arrow"
             d="M 11.500037,31.436501 C 11.940474,20.09759 22.043105,11.32322 32.158766,21.979434 L 37.068811,17.246167 C 37.068811,17.246167 37.088388,32 37.088388,32 L 22.160133,31.978069 C 22.160133,31.978069 26.997745,27.140456 26.997745,27.140456 C 18.528582,18.264221 13.291696,25.230495 11.500037,31.436501 z"
             style="fill:#404040;"/>
          </a>
         </g>
        </svg>
</svg>
