<?xml version="1.0" encoding="UTF-8" standalone="no"?>
<!DOCTYPE svg PUBLIC "-//W3C//DTD SVG 1.1//EN"
 "http://www.w3.org/Graphics/SVG/1.1/DTD/svg11.dtd">
<!-- Generated by graphviz version 2.38.0 (20140413.2041)
 -->
<!-- Title: SkeletonMesh Pages: 1 -->
<svg width="108pt" height="314pt"
 viewBox="0.00 0.00 108.00 314.00" xmlns="http://www.w3.org/2000/svg" xmlns:xlink="http://www.w3.org/1999/xlink">
<g id="graph0" class="graph" transform="scale(1 1) rotate(0) translate(4 310)">
<title>SkeletonMesh</title>
<polygon fill="white" stroke="none" points="-4,4 -4,-310 104,-310 104,4 -4,4"/>
<!-- Node1 -->
<g id="node1" class="node"><title>Node1</title>
<g id="a_node1"><a xlink:title="container for joint meshes">
<polygon fill="#bfbfbf" stroke="black" points="0,-0.5 0,-68.5 100,-68.5 100,-0.5 0,-0.5"/>
<text text-anchor="middle" x="50" y="-56.5" font-family="Helvetica,sans-Serif" font-size="10.00">SkeletonMesh</text>
<polyline fill="none" stroke="black" points="0,-49.5 100,-49.5 "/>
<text text-anchor="start" x="8" y="-37.5" font-family="Helvetica,sans-Serif" font-size="10.00">+ m_joints</text>
<polyline fill="none" stroke="black" points="0,-30.5 100,-30.5 "/>
<text text-anchor="start" x="8" y="-18.5" font-family="Helvetica,sans-Serif" font-size="10.00">+ SkeletonMesh()</text>
<text text-anchor="start" x="8" y="-7.5" font-family="Helvetica,sans-Serif" font-size="10.00">+ ~SkeletonMesh()</text>
</a>
</g>
</g>
<!-- Node2 -->
<g id="node2" class="node"><title>Node2</title>
<g id="a_node2"><a xlink:href="../../d2/d96/class_entity.html" target="_top" xlink:title="base class for all objects in openGl window">
<polygon fill="white" stroke="black" points="9.5,-105.5 9.5,-305.5 90.5,-305.5 90.5,-105.5 9.5,-105.5"/>
<text text-anchor="middle" x="50" y="-293.5" font-family="Helvetica,sans-Serif" font-size="10.00">Entity</text>
<polyline fill="none" stroke="black" points="9.5,-286.5 90.5,-286.5 "/>
<text text-anchor="start" x="17.5" y="-274.5" font-family="Helvetica,sans-Serif" font-size="10.00"># m_matrix</text>
<polyline fill="none" stroke="black" points="9.5,-267.5 90.5,-267.5 "/>
<text text-anchor="start" x="17.5" y="-255.5" font-family="Helvetica,sans-Serif" font-size="10.00">+ Entity()</text>
<text text-anchor="start" x="17.5" y="-244.5" font-family="Helvetica,sans-Serif" font-size="10.00">+ ~Entity()</text>
<text text-anchor="start" x="17.5" y="-233.5" font-family="Helvetica,sans-Serif" font-size="10.00">+ getMatrix()</text>
<text text-anchor="start" x="17.5" y="-222.5" font-family="Helvetica,sans-Serif" font-size="10.00">+ translate()</text>
<text text-anchor="start" x="17.5" y="-211.5" font-family="Helvetica,sans-Serif" font-size="10.00">+ setPosition()</text>
<text text-anchor="start" x="17.5" y="-200.5" font-family="Helvetica,sans-Serif" font-size="10.00">+ getPosition()</text>
<text text-anchor="start" x="17.5" y="-189.5" font-family="Helvetica,sans-Serif" font-size="10.00">+ rotate()</text>
<text text-anchor="start" x="17.5" y="-178.5" font-family="Helvetica,sans-Serif" font-size="10.00">+ setRotation()</text>
<text text-anchor="start" x="17.5" y="-167.5" font-family="Helvetica,sans-Serif" font-size="10.00">+ getRotation()</text>
<text text-anchor="start" x="17.5" y="-156.5" font-family="Helvetica,sans-Serif" font-size="10.00">+ scale()</text>
<text text-anchor="start" x="17.5" y="-145.5" font-family="Helvetica,sans-Serif" font-size="10.00">+ scale()</text>
<text text-anchor="start" x="17.5" y="-134.5" font-family="Helvetica,sans-Serif" font-size="10.00">+ setScale()</text>
<text text-anchor="start" x="17.5" y="-123.5" font-family="Helvetica,sans-Serif" font-size="10.00">+ setScale()</text>
<text text-anchor="start" x="17.5" y="-112.5" font-family="Helvetica,sans-Serif" font-size="10.00">+ getScale()</text>
</a>
</g>
</g>
<!-- Node2&#45;&gt;Node1 -->
<g id="edge1" class="edge"><title>Node2&#45;&gt;Node1</title>
<path fill="none" stroke="midnightblue" d="M50,-94.9218C50,-85.5767 50,-76.6815 50,-68.7534"/>
<polygon fill="none" stroke="midnightblue" points="46.5001,-95.2144 50,-105.214 53.5001,-95.2145 46.5001,-95.2144"/>
</g>
</g>
</svg>
