<?xml version="1.0" encoding="UTF-8" standalone="no"?>
<!DOCTYPE svg PUBLIC "-//W3C//DTD SVG 1.1//EN"
 "http://www.w3.org/Graphics/SVG/1.1/DTD/svg11.dtd">
<!-- Generated by graphviz version 2.38.0 (20140413.2041)
 -->
<!-- Title: NetworkSender Pages: 1 -->
<svg width="110pt" height="270pt"
 viewBox="0.00 0.00 110.00 270.00" xmlns="http://www.w3.org/2000/svg" xmlns:xlink="http://www.w3.org/1999/xlink">
<g id="graph0" class="graph" transform="scale(1 1) rotate(0) translate(4 266)">
<title>NetworkSender</title>
<polygon fill="white" stroke="none" points="-4,4 -4,-266 106,-266 106,4 -4,4"/>
<!-- Node1 -->
<g id="node1" class="node"><title>Node1</title>
<g id="a_node1"><a xlink:title="Prototype class for implemetation &#45; holds virtual methods.">
<polygon fill="#bfbfbf" stroke="black" points="2,-138.5 2,-261.5 100,-261.5 100,-138.5 2,-138.5"/>
<text text-anchor="middle" x="51" y="-249.5" font-family="Helvetica,sans-Serif" font-size="10.00">NetworkSender</text>
<polyline fill="none" stroke="black" points="2,-242.5 100,-242.5 "/>
<text text-anchor="start" x="10" y="-230.5" font-family="Helvetica,sans-Serif" font-size="10.00"># m_address</text>
<text text-anchor="start" x="10" y="-219.5" font-family="Helvetica,sans-Serif" font-size="10.00"># m_port</text>
<text text-anchor="start" x="10" y="-208.5" font-family="Helvetica,sans-Serif" font-size="10.00">&#45; m_active</text>
<polyline fill="none" stroke="black" points="2,-201.5 100,-201.5 "/>
<text text-anchor="start" x="10" y="-189.5" font-family="Helvetica,sans-Serif" font-size="10.00">+ NetworkSender()</text>
<text text-anchor="start" x="10" y="-178.5" font-family="Helvetica,sans-Serif" font-size="10.00">+ NetworkSender()</text>
<text text-anchor="start" x="10" y="-167.5" font-family="Helvetica,sans-Serif" font-size="10.00">+ isActive()</text>
<text text-anchor="start" x="10" y="-156.5" font-family="Helvetica,sans-Serif" font-size="10.00">+ setActive()</text>
<text text-anchor="start" x="10" y="-145.5" font-family="Helvetica,sans-Serif" font-size="10.00">+ sendSkeleton()</text>
</a>
</g>
</g>
<!-- Node2 -->
<g id="node2" class="node"><title>Node2</title>
<g id="a_node2"><a xlink:href="../../d9/dee/class_o_s_c_sender.html" target="_top" xlink:title="Implements OSC Protocol.">
<polygon fill="white" stroke="black" points="0,-0.5 0,-101.5 102,-101.5 102,-0.5 0,-0.5"/>
<text text-anchor="middle" x="51" y="-89.5" font-family="Helvetica,sans-Serif" font-size="10.00">OSCSender</text>
<polyline fill="none" stroke="black" points="0,-82.5 102,-82.5 "/>
<text text-anchor="start" x="8" y="-70.5" font-family="Helvetica,sans-Serif" font-size="10.00">&#45; buffer</text>
<text text-anchor="start" x="8" y="-59.5" font-family="Helvetica,sans-Serif" font-size="10.00">&#45; m_transmitSocket</text>
<text text-anchor="start" x="8" y="-48.5" font-family="Helvetica,sans-Serif" font-size="10.00">&#45; m_packetStream</text>
<polyline fill="none" stroke="black" points="0,-41.5 102,-41.5 "/>
<text text-anchor="start" x="8" y="-29.5" font-family="Helvetica,sans-Serif" font-size="10.00">+ OSCSender()</text>
<text text-anchor="start" x="8" y="-18.5" font-family="Helvetica,sans-Serif" font-size="10.00">+ OSCSender()</text>
<text text-anchor="start" x="8" y="-7.5" font-family="Helvetica,sans-Serif" font-size="10.00">+ sendSkeleton()</text>
</a>
</g>
</g>
<!-- Node1&#45;&gt;Node2 -->
<g id="edge1" class="edge"><title>Node1&#45;&gt;Node2</title>
<path fill="none" stroke="midnightblue" d="M51,-128.289C51,-119.323 51,-110.301 51,-101.758"/>
<polygon fill="none" stroke="midnightblue" points="47.5001,-128.361 51,-138.361 54.5001,-128.361 47.5001,-128.361"/>
</g>
</g>
</svg>
